<?xml version="1.0" standalone="no"?>
<!DOCTYPE svg PUBLIC "-//W3C//DTD SVG 1.1//EN" "http://www.w3.org/Graphics/SVG/1.1/DTD/svg11.dtd" >
<svg xmlns="http://www.w3.org/2000/svg">
<metadata>
This is a custom SVG webfont generated by Font Squirrel.
Copyright   :  2002 2003 Adobe Systems Incorporated All Rights Reserved
Designer    : Robert Slimbach
Foundry URL : httpwwwadobecomtype
</metadata>
<defs>
<font id="webfontQfzz88Gb" horiz-adv-x="1032" >
<font-face units-per-em="2048" ascent="1425" descent="-623" />
<missing-glyph horiz-adv-x="428" />
<glyph unicode=" "  horiz-adv-x="428" />
<glyph unicode="&#x09;" horiz-adv-x="428" />
<glyph unicode="&#xa0;" horiz-adv-x="428" />
<glyph unicode="!" horiz-adv-x="557" d="M127 997v2q0 111 20 150q14 35 86 61q100 37 222 62q31 6 39 -1t-7 -32q-43 -72 -82.5 -378t-39.5 -439q0 -16 -29 -10q-25 4 -71 31.5t-64 50.5q-8 12 -24.5 75.5t-33 184t-16.5 243.5zM301 311q27 12 37 -12q37 -94 98 -162q31 -35 -12 -74q-33 -29 -87 -63.5 t-79 -34.5q-29 0 -73 48t-62 87q-23 47 4 82q14 25 78.5 71t95.5 58z" />
<glyph unicode="&#x22;" horiz-adv-x="649" d="M229 1391q29 8 39.5 -10.5t10.5 -73.5q0 -76 -21.5 -187.5t-36.5 -142.5q-12 -29 -50 -69t-62 -52q-18 -10 -22.5 -6t1.5 18q18 43 18 213t-24 232q14 12 67 42t80 36zM524 1386q23 8 33 -4t10 -41q0 -76 -18.5 -194.5t-42.5 -163.5q-27 -49 -88 -102 q-18 -14 -24.5 -14.5t-6.5 22.5q8 33 7 199.5t-19 216.5q16 14 70 43.5t79 37.5z" />
<glyph unicode="#" d="M514 424h-137q-23 0 -29 -18q-49 -209 -82 -273q-25 -53 -94 -100q-10 -6 -15 -2t-1 14q61 170 98 358q4 20 -12 21q-131 0 -193 14q-18 4 -6 17q10 20 55 65t54 43q55 -10 120 -10q12 0 15 14l35 160q6 20 -19 21q-160 0 -203 14q-14 8 -8 14q12 23 57.5 66t51.5 41 q43 -10 141 -11q16 0 20 17q39 180 52 260q0 16 104 61q10 4 10 -8q-10 -59 -33.5 -165.5t-31.5 -149.5q-2 -14 14 -21h135q10 0 19 23q27 119 55 276q4 18 100 58q16 6 11 -23q-10 -55 -34 -155.5t-32 -147.5q-6 -29 21 -29q152 0 231 25q14 4 6 -12q-100 -133 -274 -133 q-10 0 -25 -27l-31 -141q-8 -33 9 -33q147 0 219 12q6 2 8 -4q0 -6 -8 -14q-100 -115 -242 -115q-18 0 -27 -25q-39 -188 -73 -270q-18 -47 -82 -70q-8 -4 -12.5 -3t-5.5 6.5t4 15.5q25 70 77 326q4 18 -12 18zM592 748h-148q-18 0 -22 -23l-35 -147q-2 -10 2 -19.5t8 -9.5 h148q14 0 14 14l37 166q0 19 -4 19z" />
<glyph unicode="$" d="M657 1229q94 -4 174 -41q88 -43 89 -115q0 -49 -40 -97t-75 -69q-27 -2 -29 13q2 86 -37 147t-116 78q-4 -72 -15.5 -210t-13.5 -173q0 -25 20 -31q96 -29 148.5 -49t108 -55t79 -86.5t23.5 -122.5q0 -201 -219 -324q-102 -55 -201 -78q-31 -6 -37 -36 q-18 -119 -35.5 -159t-56.5 -65l-23 -11q-2 -1 -6 19q27 150 29 199q4 37 -31 37q-176 0 -291 74q-20 12 -33.5 40.5t-0.5 47.5q49 76 75 209q8 43 39 10q16 -18 17 -37q4 -121 65 -188q43 -49 142 -70q27 -4 30 23q23 190 35 356q0 33 -27 41q-186 55 -258.5 123.5 t-72.5 195.5q0 98 52 184.5t146 137.5q102 57 203 76q20 6 21 30l2 25q0 23 2 53.5t2 40.5q0 18 80 74q25 14 24 -6q-2 -33 -10 -183q-3 -28 22 -28zM319 940v-2q0 -57 40 -101t118 -63q20 -4 25 17l26 362q-88 -4 -148.5 -59.5t-60.5 -153.5zM737 295v2q0 111 -143 160 q-25 8 -29 -27l-30 -319q-2 -18 6 -23.5t24 -1.5q172 45 172 209z" />
<glyph unicode="%" horiz-adv-x="1417" d="M475 1239h2q41 0 115 -41q109 -43 178 -43q182 0 285 72q8 6 27.5 31.5t27.5 31.5q2 2 127 56q29 10 27 -7q-2 -10 -17 -30q-217 -338 -532.5 -772.5t-435.5 -542.5q-68 -61 -136 -76q-25 -4 -27.5 4t15.5 25q123 119 424 523t442 634q10 18 7 21t-17 -3 q-123 -57 -315 -55q-18 0 -15 -16q12 -43 13 -111q-2 -172 -119 -291q-33 -35 -112 -73.5t-142 -38.5q-111 0 -165 74.5t-54 189.5q0 154 78 266q45 70 182 137q71 35 137 35zM397 1157h-2q-57 0 -88 -79t-31 -210q0 -86 33 -161.5t94 -75.5q57 0 86 78.5t29 201.5 q0 94 -27.5 170t-93.5 76zM1118 682h2q106 0 161.5 -79t55.5 -195q0 -125 -38.5 -208t-86.5 -122q-135 -111 -256 -111q-111 0 -169 86t-58 187q0 199 115 309q39 39 125 86q27 16 75.5 31.5t73.5 15.5zM1036 594h-2q-51 0 -78.5 -71.5t-27.5 -184.5q0 -143 42 -206.5 t95 -63.5q119 0 119 251q0 102 -39 188.5t-109 86.5z" />
<glyph unicode="&#x26;" horiz-adv-x="1546" d="M727 1253h2q111 0 170 -59t59 -160q0 -51 -28.5 -96t-98.5 -100l-78 -54l-98 -65q-25 -14 -6 -39q82 -106 256 -268q18 -16 33 12q16 29 46 92.5t48 97.5q115 231 291 232q43 0 82 -25.5t51 -54.5q6 -16 1 -20.5t-25 -6.5q-203 -6 -342 -211q-33 -49 -95 -159 q-14 -23 2 -39q209 -188 332 -189q111 0 184 56q14 12 15 -11q0 -31 -19 -59q-47 -68 -142 -119t-202 -51q-160 0 -346 160q-16 18 -39 -4q-170 -152 -354 -152q-152 0 -248 82t-96 233q0 129 131 232l147 113q25 14 7 41q-61 100 -62 208q0 186 182 301q138 82 240 82z M633 1163h-2q-51 0 -85 -48t-34 -120q0 -111 70 -215q14 -25 41 -4q131 100 131 232q0 66 -33 110.5t-88 44.5zM565 127h2q92 0 156 47q16 14 -4 35q-176 180 -283 342q-18 27 -37 6q-55 -63 -55 -168q0 -121 69.5 -191.5t151.5 -70.5z" />
<glyph unicode="'" horiz-adv-x="358" d="M235.5 1388.5q24.5 4.5 34 -12t9.5 -71.5q0 -78 -19.5 -184.5t-34.5 -137.5q-12 -31 -47 -72t-59 -53q-20 -10 -24.5 -6t-0.5 18q18 45 15 211t-27 230q25 18 77 45.5t76.5 32z" />
<glyph unicode="(" horiz-adv-x="780" d="M96 375q6 453 219 772q152 229 314 278q37 10 63 -2q25 -4 -6 -26q-150 -90 -254 -264q-156 -266 -156 -682q0 -160 27 -293t70 -216t78.5 -131.5t72.5 -76.5q47 -39 127 -64q20 -6 4 -24q-23 -31 -61.5 -49.5t-67.5 -18.5q-68 0 -153.5 56.5t-159.5 183.5 q-55 96 -87 247.5t-30 309.5z" />
<glyph unicode=")" horiz-adv-x="780" d="M692 639q-6 -453 -219 -774q-152 -223 -315 -279q-31 -6 -64 4q-20 8 2 21q150 90 260 270q156 266 156 680q0 160 -26.5 293t-68.5 217t-79 133t-72 78q-47 39 -129 61q-20 2 -2 25q23 31 60.5 49.5t66.5 18.5q68 0 154 -55.5t159 -184.5q55 -96 87 -247.5t30 -309.5z " />
<glyph unicode="*" horiz-adv-x="712" d="M684 1184q-6 -6 -18.5 -31t-23.5 -44t-19 -22q-147 -47 -183 -63q27 -29 102.5 -90.5t106.5 -75.5q23 -10 -12 -20q-86 -10 -105 -2q-53 27 -129 88q-6 6 -14 5t-10 -14q-2 -10 -6 -41.5t-7.5 -53t-5.5 -49.5t-1 -48.5t8 -30.5q2 -8 -13 -10q-47 0 -73 31q-20 27 -17 80 q6 76 21 145q4 29 -19 20q-180 -61 -237 -94q-12 -6 -13 0q-2 4 4 15q29 82 70 100q10 4 162 70q-18 10 -73.5 64t-80.5 85q-12 12 0 27q12 12 47 30.5t48 18.5q72 -102 126 -150q25 94 50 156q16 33 45 49q12 6 53 9t51 -1q8 -4 0 -14q-53 -53 -90 -199q-2 -8 4 -11t10 -1 q74 35 205 74q33 14 39 2q0 -2 -2 -4z" />
<glyph unicode="+" horiz-adv-x="1136" d="M621 868h2q14 0 14 -73q0 -23 -1 -120t-1 -167q0 -31 22 -31q72 -2 209.5 4t139.5 6q14 0 15 -4t-7 -14q-10 -14 -56.5 -50t-64.5 -40q-143 -25 -227 -25q-37 0 -37 -43q0 -31 -13 -258q-2 -27 -41.5 -63.5t-70.5 -50.5q-4 -2 -7 0t-3 10v344q0 25 -12.5 43t-30.5 18 q-242 0 -312 19q-27 4 -10 20q6 6 30.5 49l28.5 50q10 16 23 12q76 -29 270 -29q12 0 13 19q0 209 -21 309l78 38q58 27 70 27z" />
<glyph unicode="," horiz-adv-x="468" d="M389 178v-2q0 -117 -96 -256t-230 -203q-63 -29 -98 -28q-37 0 -10 22q219 176 219 377q0 49 -21.5 77t-50.5 34q-20 4 -24 15t20 30q109 68 123 80q25 20 51 20q57 0 87 -48t30 -118z" />
<glyph unicode="-" horiz-adv-x="727" d="M94 360q74 119 86 119q53 0 84 2q223 10 379 54q6 2 9 -0.5t2 -7.5t-5 -11q-20 -41 -57 -80t-66 -49q-57 -20 -198.5 -41.5t-186.5 -19.5q-43 2 -51 6.5t4 27.5z" />
<glyph unicode="." horiz-adv-x="468" d="M338 299q-2 -55 14.5 -111.5t42.5 -85.5q16 -16 -2 -34q-29 -33 -82 -65t-78 -32q-66 0 -105.5 71t-39.5 134q0 25 16 39q23 14 93.5 49t107.5 45q8 2 16.5 2t12.5 -3t4 -9z" />
<glyph unicode="/" horiz-adv-x="903" d="M838 1354q23 6 10 -25q-102 -287 -316.5 -793.5t-324.5 -699.5q-10 -16 -68.5 -49t-72.5 -33q-10 -2 -11.5 2t4.5 15q129 229 326 711.5t305 793.5q4 10 61.5 41t86.5 37z" />
<glyph unicode="0" d="M635 1239h2q96 0 165.5 -51t106.5 -136t53.5 -177.5t16.5 -192.5q0 -229 -80 -385t-186 -221q-61 -39 -142.5 -72t-138.5 -33q-102 0 -179 48.5t-119 129t-61.5 173t-19.5 196.5q0 383 189 551q74 70 190 121q99 49 203 49zM477 1122h-2q-57 0 -104 -53q-76 -86 -76 -391 q0 -84 12 -176t40 -190.5t85 -162t133 -63.5q47 0 82 35q84 80 84 418q0 88 -15.5 184t-44 188.5t-80 151.5t-114.5 59z" />
<glyph unicode="1" d="M414 598v2q0 350 -15 391q-4 27 -32 23q-143 -14 -189 -15q-14 0 -21 4.5t-1 12.5q55 55 90 63q317 68 432 158q12 8 16 2t0 -20q-25 -66 -24 -611q0 -401 16 -475q6 -23 41 -27q139 -12 205 -32q25 -6 12 -19q-72 -74 -94 -73q-244 18 -303 18q-225 0 -406 -31 q-20 -4 -23 -1t1 18q4 8 34.5 30.5t43.5 28.5q57 25 159 49q18 4 27 35q10 41 20.5 189.5t10.5 279.5z" />
<glyph unicode="2" d="M559 1239h2q158 0 242 -102.5t84 -227.5q0 -121 -61.5 -230.5t-190.5 -252.5q-39 -41 -209 -199q-14 -10 0 -18q86 -33 348 -33q143 0 230 90q25 33 24 -2q0 -33 -24 -65q-154 -221 -412 -222q-109 0 -246 9.5t-156 9.5q-14 0 -61 -1t-51 -1q-14 0 -17.5 5t0.5 9 q68 104 117 133q193 94 313.5 276.5t120.5 362.5q0 139 -56 230.5t-175 91.5q-86 0 -131 -69.5t-45 -151.5q0 -53 6 -90q6 -29 -16 -29q-47 4 -81 38t-34 79q0 61 63.5 137t130.5 119q154 104 285 104z" />
<glyph unicode="3" d="M571 1239h2q125 0 204 -71.5t79 -178.5q0 -111 -115 -194q-47 -37 -108 -74q-25 -16 10 -25q123 -29 174 -61q61 -37 94 -84t33 -133q0 -229 -293 -395q-211 -125 -368 -125q-139 0 -181 67q-27 39 2 76q14 16 50 109q4 14 10 18t11 0t9 -14q8 -49 39 -80q68 -61 211 -62 q117 0 186.5 77t69.5 183q0 254 -278 254q-72 0 -138 -26q-10 -4 -13 7t3 21q33 76 76 95q84 37 123 56t81 51t56 66.5t14 86.5q0 82 -50 135t-132 53q-152 0 -289 -174q-8 -12 -14 -10t-6 18q4 53 27 86q63 98 172.5 173t248.5 75z" />
<glyph unicode="4" d="M731 1280q-27 -109 -200 -390.5t-289 -424.5q-6 -6 -2 -17.5t20 -15.5q121 -33 275 -33q27 0 26 25q4 238 -20 309q-8 27 12 31q96 20 233 141q31 27 31 -24q-4 -344 -10 -453q0 -31 20 -31q135 0 226 68q12 8 12 -6q0 -23 -16 -43q-82 -98 -230 -115q-20 -6 -20 -39 q0 -84 -11 -147q-10 -76 -24 -99q-20 -29 -90 -67.5t-115 -48.5q-37 -8 -29 14q25 70 31 324q0 31 -7 41t-26 10q-96 2 -238.5 14t-168.5 12q-66 0 -90 -16q-20 -14 -21 10q0 16 39 60q147 147 308 401t204 391q4 16 146 139q25 23 29.5 16t-5.5 -36z" />
<glyph unicode="5" d="M604 1147h2q123 0 209 32.5t119 75.5q18 23 24.5 23t8.5 -33q0 -37 -19 -63q-76 -137 -183.5 -194.5t-277.5 -57.5q-84 0 -122 8q-27 4 -31 -29q-8 -61 -37 -186q-6 -29 33 -33q109 -10 317 -37q143 -20 219 -81.5t76 -182.5q0 -68 -26.5 -126t-75.5 -106t-87 -75 t-94 -62q-209 -123 -395 -122q-147 0 -180 73q-23 33 0 74q35 43 59 109q6 16 13.5 21t13.5 -2t6 -21q2 -39 39 -76q70 -63 209 -63.5t201.5 70.5t62.5 159q0 106 -58.5 154t-226.5 67q-160 18 -225 -2q-20 -6 -27.5 1t-0.5 25q37 92 61.5 281.5t13.5 316.5q-2 16 34 59.5 t60 61.5q12 12 21 2q39 -61 264 -61z" />
<glyph unicode="6" d="M711 727h2q125 0 193.5 -77t68.5 -208q0 -217 -254 -383q-139 -88 -279 -88q-172 0 -264 109q-115 123 -115 375q0 432 343 692q88 66 199.5 107.5t197.5 41.5q82 0 125 -30q41 -27 59 -82q6 -18 -1 -22.5t-15 1.5q-74 39 -209 39q-197 0 -307 -127q-135 -154 -136 -485 q0 -276 115 -406q78 -86 184 -86q68 0 107 51.5t39 147.5q0 127 -66.5 185.5t-162.5 58.5q-76 0 -142 -43q-18 -12 -18 6q0 14 10 35.5t23 31.5q182 156 303 156z" />
<glyph unicode="7" d="M680 1161h2q236 0 266 70q14 25 25 0q6 -10 6 -29q2 -59 -39 -164q-20 -53 -98 -184q-215 -371 -375 -692q-63 -125 -76 -244q-2 -31 -37 -20q-37 10 -73.5 49t-34.5 71q2 57 112 218q207 295 418 669q10 18 11 30.5t-4 16.5t-17 2q-98 -20 -397 -20q-156 0 -205 8 q-57 8 -81 23.5t-24 54.5q0 37 53.5 122t75.5 101q8 6 13.5 9t9.5 2t5 -3t5 -8q27 -53 108 -67.5t351 -14.5z" />
<glyph unicode="8" d="M621 1274h2q154 0 220 -70.5t66 -181.5q0 -109 -92 -197q-47 -45 -135 -110q-14 -14 4 -27l83 -44q60 -32 80.5 -45t54.5 -43t45.5 -64.5t11.5 -81.5q0 -109 -79 -202t-196 -159q-139 -80 -250 -80q-369 0 -368 269q0 86 86 165l49 42t65 50.5t64 49.5q18 12 -2 30 q-186 104 -187 269q0 188 211 325q167 105 267 105zM504 1163h-2q-63 0 -111 -43q-53 -53 -53 -133q0 -29 7 -53.5t29.5 -57t75 -67.5t132.5 -70q25 -8 45 6q92 68 92 183q0 88 -59.5 161.5t-155.5 73.5zM557 84h2q68 0 117 33q57 39 57 116q0 29 -7 54.5t-26.5 50t-33 40 t-49.5 38.5l-52 33q-16 10 -63 35l-62 34q-20 14 -43 -4q-100 -82 -100 -188q0 -98 70.5 -170t189.5 -72z" />
<glyph unicode="9" d="M573 1239h2q102 0 179 -45t119 -120t61.5 -156.5t19.5 -169.5q0 -489 -344 -728q-199 -137 -370 -137q-96 0 -138 33q-57 45 -57 115q0 29 21 12q74 -61 231 -61q182 0 303 137q102 117 102 471q0 125 -35.5 249t-82.5 187q-70 96 -158 96q-68 0 -103.5 -59t-35.5 -158 q0 -133 66.5 -206.5t162.5 -73.5q63 0 129 43q14 8 15.5 -0.5t-3.5 -22.5q-20 -51 -49 -74q-129 -117 -260 -116q-121 0 -203 74.5t-82 222.5q0 233 209 370q172 117 301 117z" />
<glyph unicode=":" horiz-adv-x="536" d="M328 819q8 0 14 1t11 -6t7 -23q8 -47 31 -98.5t41 -63.5q20 -18 4 -41q-35 -51 -102 -92q-41 -20 -62 -21q-53 0 -94 51.5t-55 114.5q-12 55 18 82q29 27 93.5 59.5t93.5 36.5zM371 299q-2 -53 15 -110.5t42 -86.5q18 -16 0 -34q-29 -33 -82 -65t-80 -32q-66 0 -105.5 71 t-39.5 134q0 25 16 39q23 14 93.5 49t107.5 45q10 2 17 2t11.5 -3t4.5 -9z" />
<glyph unicode=";" horiz-adv-x="536" d="M326 817h2q25 0 30 -26q10 -45 34 -94.5t40 -63.5q20 -18 4 -41q-51 -70 -104 -96q-35 -23 -58 -23q-53 0 -93 52.5t-52 109.5q-10 31 -7 45t28 39q23 23 89.5 60.5t86.5 37.5zM422 176v-2q0 -117 -96.5 -256t-229.5 -203q-63 -29 -98 -28q-37 0 -10 22q219 176 219 377 q0 49 -21.5 76.5t-50.5 34.5q-18 4 -20 16t16 25q70 39 123 84q25 20 51 20q57 0 87 -48t30 -118z" />
<glyph unicode="&#x3c;" horiz-adv-x="989" d="M141 473q207 63 371 170t336 262q16 16 16 -12q0 -14 -9 -51t-15 -45q-74 -94 -194 -188.5t-208 -147.5q-6 -4 -6 -14.5t6 -14.5q98 -55 219 -161.5t150 -164.5q18 -35 -25 -135q-4 -8 -7 -12t-5 -5t-6 1t-7 5l-9 9q-250 283 -560 408q-18 4 -47 67q-8 23 0 29z" />
<glyph unicode="=" horiz-adv-x="1136" d="M1016 662q18 0 10 -13q-14 -18 -55 -56t-49 -40q-156 -27 -480 -27q-231 0 -288 15q-18 2 -9 24l74 86q16 18 31 17q59 -16 186 -17q410 -1 580 11zM995 305q18 0 11 -10q-18 -25 -56.5 -61.5t-48.5 -36.5q-166 -27 -479 -27q-240 0 -289 16q-16 2 -8 21l76 84 q16 20 28 18q66 -14 189 -14q395 -2 577 10z" />
<glyph unicode="&#x3e;" horiz-adv-x="989" d="M854 375q-207 -66 -373 -171.5t-334 -258.5q-16 -14 -16 12q0 14 11.5 51t17.5 47q76 96 194.5 192.5t196.5 139.5q4 4 5 14.5t-5 14.5q-96 55 -212 161.5t-149 163.5q-8 18 -1.5 60.5t20.5 79.5q12 27 37 0q260 -293 561 -408q20 -10 47 -67q8 -29 0 -31z" />
<glyph unicode="?" horiz-adv-x="866" d="M528 1268q127 2 195 -62.5t68 -156.5q2 -94 -47.5 -164t-170.5 -176q-111 -94 -110 -191q0 -39 20 -80q14 -23 -12 -22q-68 0 -117 31.5t-49 95.5q0 35 26.5 79t100.5 136q74 100 74 205q0 86 -44 133t-104 47q-66 0 -104.5 -49.5t-38.5 -116.5q0 -80 12 -107 q4 -6 -2 -12t-20 -6q-51 0 -89 30.5t-38 80.5q0 88 164 182q171 123 286 123zM440 315q35 16 43 -16q20 -96 88 -172q20 -23 -12 -53q-33 -33 -88 -71t-82 -38q-35 0 -77 49t-58 92q-12 33 -12 47.5t16 34.5q23 27 86 70t96 57z" />
<glyph unicode="@" horiz-adv-x="1681" d="M1022 819h2q43 0 63 -20q16 -12 23 -6q6 10 20 18q61 35 105 41q10 2 12 -4t-6 -17q-29 -43 -64.5 -211.5t-37.5 -312.5q-6 -188 86 -188q98 0 183 118.5t85 321.5q0 244 -135 384t-387 140q-285 0 -479 -188q-219 -219 -220 -586q0 -260 137.5 -416.5t378.5 -156.5 q236 0 396 131q10 8 15 10t6 -3t-3 -19q-18 -47 -35 -64q-197 -176 -495 -176q-262 0 -415 170t-153 455q0 461 406 753q109 78 254 132.5t283 54.5q256 0 411.5 -150.5t155.5 -406.5q0 -201 -100.5 -349.5t-251.5 -230.5q-104 -53 -187 -51q-70 0 -104 74q-31 74 -23 184 q2 45 -24 6q-96 -129 -203 -199q-90 -59 -152 -59q-33 0 -60.5 45t-27.5 139q0 109 42 224.5t100 187.5q39 47 132 108.5t152 85.5q72 31 115 31zM920 721h-2q-70 0 -111 -51q-45 -59 -78 -166t-33 -219q0 -115 47.5 -115t111 86t91.5 160q12 35 38 130t36 122q10 29 -14 39 q-39 14 -86 14z" />
<glyph unicode="A" horiz-adv-x="1458" d="M606 387h-2q-39 0 -96 6q-7 2 -14 2q-27 0 -37 -28q-68 -137 -99 -213q-8 -17 -8 -28q0 -19 25 -24q123 -14 172 -32q27 -8 8 -23q-77 -60 -100 -60q-1 0 -2 1q-61 6 -86 8q-78 4 -131 4q-117 0 -236 -14q-3 0 -5 -1q-10 0 -10 7q0 10 15 22q31 31 57 49q6 4 36 13.5 t38 11.5q29 8 66 53q68 88 145 254q8 20 2 43q-8 20 0 29q2 2 24.5 28.5t32.5 36.5q16 12 27 39q127 268 170 379q6 18 23.5 63.5t23.5 65.5q16 74 29 86q135 96 194 125q9 5 15 5q4 0 7 -2q7 -5 -3 -27q-8 -20 -7 -57.5t7 -61.5q14 -61 57 -191q70 -201 165 -425t148 -316 q70 -119 136 -127q27 -6 98 -20q18 -2 18 -6.5t-14 -16.5q-37 -39 -69 -49q-26 -9 -79 -9q-11 0 -22 1q-20 0 -78.5 3t-114 5t-94.5 2q-84 0 -137 -12q-5 -1 -9 -2q-8 0 -9 7q-2 9 8 21q18 33 65 72q23 16 13 51q-6 20 -45 115.5t-56 142.5q-14 39 -45 25q-80 -31 -217 -31z M717 506h2q41 0 74 4q27 2 26 19q0 5 -2 12l-45 124l-48 130q-19 53 -30 92q-4 12 -14 13h-1q-9 0 -15 -15q-37 -104 -129 -332q-2 -4 -2 -7q0 -14 26 -24q33 -16 158 -16z" />
<glyph unicode="B" horiz-adv-x="1327" d="M674 1282h2q268 0 369.5 -69.5t101.5 -204.5q0 -131 -109 -207q-18 -12 -120 -64q-8 -4 -11.5 -8t1.5 -7t14 -3q143 -25 211 -66q111 -63 110 -221q0 -219 -291 -342q-229 -98 -604 -98q-174 0 -235 4q-12 2 -13.5 4t9.5 14q53 57 110 70q29 10 35 55q20 127 20 381 q0 393 -22 518q-1 9 -1 18q0 32 17 58q8 12 10.5 17.5t-3 7.5t-21.5 2q-72 0 -219 -29q-15 0 -15 7q0 4 5 9q14 20 43.5 44t52.5 32q100 29 266 53.5t287 24.5zM608 1180h-2q-23 0 -43 -4q-27 -10 -26 -52q0 -35 2 -194.5t2 -204.5q0 -23 6 -29t24 2q33 18 58 21 q106 12 125 12q33 0 67 29q57 51 58 168q0 119 -72 185.5t-199 66.5zM645 631h-2q-25 0 -57 -8q-29 -8 -36 -15.5t-9 -27.5q0 -168 -2 -254q0 -133 -21 -170q-7 -15 -7 -23q0 -4 2 -6q5 -6 28 -10q53 -12 143 -13q109 0 184.5 62.5t75.5 175.5q0 137 -84 213t-215 76z" />
<glyph unicode="C" horiz-adv-x="1390" d="M932 1284h2q158 0 246 -37q104 -43 112 -98q1 -8 1 -16q0 -24 -9 -48q-37 -84 -57 -159q-6 -20 -20.5 -37t-26.5 -21q-6 -2 -11.5 3.5t-5.5 15.5q-8 139 -51 184q-94 109 -309 109q-158 0 -262 -101q-145 -145 -146 -417q0 -299 148 -457q131 -141 356 -142q119 0 213 72 q90 76 158 201q10 20 22 8q6 -6 14 -31q6 -19 5 -32q0 -91 -88 -203q-33 -41 -88 -60q-61 -25 -167 -46t-196 -21q-135 0 -250.5 29.5t-217 95t-160 188.5t-58.5 291q0 172 70.5 303t162.5 207q115 88 284 153.5t329 65.5z" />
<glyph unicode="D" horiz-adv-x="1533" d="M713 1280h2q233 0 355 -36t218 -122q158 -137 158 -432q0 -102 -28.5 -192t-74 -150.5t-79 -93.5t-64.5 -55q-311 -223 -797 -224q-203 0 -299 9q-39 2 -16 22q86 68 115 74q35 10 49 63q25 102 24 361q0 473 -30 596q-8 37 -51 37q-80 0 -193 -21q-15 -2 -15 5q0 4 5 9 q57 68 110 80q88 20 293 45t318 25zM651 1171h-2q-61 0 -86 -6q-29 -10 -26 -30q0 -18 4 -182.5t4 -270.5q0 -455 -13 -528q-1 -4 -1 -9q0 -22 38 -28q53 -12 154 -13q231 0 333.5 116t102.5 349q0 172 -50 303.5t-167 215t-291 83.5z" />
<glyph unicode="E" horiz-adv-x="1212" d="M276 549v2q0 494 -34 571q-8 18 -45 25q-8 2 -68.5 9t-83.5 11q-24 5 -24 13q0 4 8 10q117 68 128 68q26 0 93.5 -8t109.5 -9q139 -6 385 -6q209 0 304 49q7 3 10 3q5 0 7 -4q3 -7 -3 -23q-35 -114 -35 -244q0 -35 2 -72q2 -23 -14 -18q-20 6 -43 25.5t-31 37.5 q-20 47 -41 123q-6 14 -8 19.5t-9 10.5t-16 3q-133 -25 -282 -25q-27 0 -35 -5t-8 -25q0 -41 1 -170t1 -191q0 -23 26 -29q47 -20 246 -20q53 0 74 22q4 6 17.5 29t19.5 31q8 10 86 41q14 6 19 3t-1 -20q-51 -115 -51 -360q0 -33 -29 -8q-41 37 -67 133q-14 29 -29 29 q-133 -14 -295 -15q-18 0 -18 -45q0 -53 -5.5 -182t-5.5 -182q0 -49 50 -60q41 -6 134 -6t146 8q90 14 142 52q78 53 131 180q12 25 26 8q18 -26 18 -62q0 -10 -1 -20q-10 -61 -40 -114.5t-55 -78.5q-43 -47 -75.5 -62t-83.5 -15q-61 0 -246 8q-283 6 -316 6 q-262 0 -321 -16q-5 -1 -8 -1q-10 0 -10 6q0 5 6 13q37 49 71 59q51 20 121 35q16 4 31 41q24 78 24 412z" />
<glyph unicode="F" horiz-adv-x="1163" d="M743 1235h2q217 0 324 55q8 4 13 4t7 -5q1 -3 1 -7q0 -8 -5 -20q-39 -123 -39 -255q0 -33 3 -67q2 -18 -3.5 -22.5t-13.5 0.5q-12 4 -39.5 30.5t-34.5 38.5q-27 57 -38 121q-11 36 -39 36q-4 0 -9 -1q-121 -23 -284 -23q-25 0 -33 -5t-8 -25v-390q0 -27 26 -32 q68 -23 256 -23q47 0 65.5 11.5t49.5 54.5q14 23 96 47q10 4 13.5 0t1.5 -17q-47 -164 -47 -344q0 -41 -35 -8q-29 23 -41 49q-14 29 -27 82q-8 29 -31 27q-136 -15 -257 -15h-54q-18 0 -18 -43q0 -53 -1 -161.5t-1 -161.5q0 -57 47 -64q141 -18 186 -34q16 -8 4 -17 q-31 -33 -68.5 -51t-52.5 -16q-63 8 -102 10q-61 6 -188 6q-150 0 -308 -23q-10 -1 -16 -1t-8 1q-4 2 6 17q29 45 68 59q96 39 110 43q18 4 29 41q27 80 26 385q0 18 -14 25q-12 2 -39 18q-12 10 -2 27q8 10 25 33l22 30q10 16 11 37q0 354 -31 426q-12 23 -31 27 q-8 2 -76.5 13t-91.5 16q-24 4 -24 10q0 4 10 10q106 66 130 66h3q133 -25 575 -25z" />
<glyph unicode="G" horiz-adv-x="1523" d="M958 1284h3q172 0 286 -43q109 -47 109 -113q2 -8 -8 -32q-57 -98 -68 -170q-2 -20 -25.5 -45t-37.5 -25q-8 0 -9.5 3t-1.5 18q0 9 1 18q0 119 -77 195q-117 100 -313 100q-125 0 -237 -74q-184 -125 -185 -448q0 -145 42 -260t101.5 -179.5t134.5 -105.5t133 -54.5 t105 -13.5q57 0 99 15q29 10 30 49q1 25 2 65q0 81 -6 222q0 23 -11 30.5t-40 7.5q-63 0 -235 27q-31 4 -9 23q111 78 130 78q1 0 1 -1q147 -18 271 -18q213 0 354 33q14 4 19 -1q1 -1 1 -4q0 -6 -8 -18q-10 -18 -49 -57q-25 -12 -59.5 -25.5t-36.5 -15.5q-23 -14 -35 -43 q-18 -47 -18 -178q0 -55 14 -84q16 -27 90 -27q23 0 12 -18q-20 -35 -51 -45q-55 -16 -164 -45q-317 -74 -483 -74q-315 0 -473 151q-168 162 -168 451q0 213 113.5 375t310.5 252q233 104 446 104z" />
<glyph unicode="H" horiz-adv-x="1644" d="M276 567v2q0 442 -18 541q-4 25 -45 31q-123 10 -154 20q-10 4 -6 13q20 12 46 32.5t41.5 30.5t23.5 10q25 0 98 -6q147 -6 182 -6q123 0 281 18q6 2 9 -1t1 -9q-2 -14 -22.5 -36.5t-36.5 -30.5q-14 -6 -76 -25q-39 -10 -45 -45q-10 -51 -10 -248v-98q0 -35 39 -45 q78 -20 278 -21q156 0 217 13q23 6 23 53q0 213 2 342q0 29 -35 31q-76 6 -151 22q-27 4 -9 19q94 76 114 75q22 0 60.5 -4.5t53.5 -5.5q78 -4 100 -4q176 0 352 25h4q9 0 4 -9q-14 -43 -47 -61q-25 -16 -92 -35q-31 -10 -41 -22.5t-20 -42.5q-29 -106 -29 -459 q0 -387 31 -490q4 -14 14 -21t17.5 -9t27.5 -5q137 -20 154 -26q8 -2 11 -4q2 -1 2 -3q0 -4 -9 -14q-66 -66 -98 -65q-49 0 -88 2q-78 4 -130 4q-223 0 -372 -33q-5 -1 -8 -1q-6 0 -7 5q0 2 2 9q4 10 19.5 29.5t26.5 27.5q31 23 88 47q31 10 39 22.5t10 53.5q4 135 4 395 q0 39 -21 39q-70 -18 -229 -19q-236 0 -274 -2q-33 -2 -33 -61q0 -311 2 -348q4 -53 33 -58q125 -16 172 -30q16 -4 6 -15q-78 -74 -96 -73q-9 0 -48 3t-71 5q-94 4 -144 4q-176 0 -348 -25q-13 -3 -13 5q0 4 5 10q20 39 55 57q23 12 111 45q27 8 39 53q28 111 28 422z" />
<glyph unicode="I" horiz-adv-x="819" d="M276 621v2q0 403 -18 477q-6 29 -43 33q-96 12 -143 26q-23 8 -6 19q78 72 102 71h2l90 -8q129 -6 168 -6q119 0 332 20q2 1 4 1q5 0 7 -4q1 -2 1 -4q0 -3 -2 -5q-41 -59 -65 -69q-39 -16 -89 -25q-41 -10 -53 -43q-18 -70 -18 -440q0 -362 10 -504q4 -51 31 -56 q117 -14 162 -28q6 -2 10 -5t4 -6.5t-2 -5.5q-80 -74 -106 -73h-3q-6 0 -22 2l-33 4q-16 2 -33 2q-78 4 -162 4q-219 0 -356 -25q-5 -1 -8 0q-10 0 -10 5q0 2 2 4q33 59 53 67q76 29 111 37q39 8 55 62q28 96 28 471z" />
<glyph unicode="J" horiz-adv-x="763" d="M549 432v-2q0 -231 -39 -375.5t-139 -247.5q-98 -109 -216 -169t-208 -60q-78 0 -117 45q-44 47 -44 132q0 11 1 22q0 37 25 12q33 -27 100.5 -53.5t140.5 -26.5q90 0 138.5 56.5t66.5 230.5q14 133 14 514q0 434 -20 571q-8 51 -59 60q-129 14 -162 24q-20 2 -4 17 q85 70 108 70q1 0 2 -1q61 -6 109 -10q74 -6 160 -6q207 0 335 27q2 1 4 0q4 0 6 -4q1 -2 1 -3q0 -4 -4 -8q-16 -27 -50 -59q-10 -6 -112 -41q-27 -6 -29 -43q-8 -74 -8 -672z" />
<glyph unicode="K" horiz-adv-x="1478" d="M274 618v3q0 397 -14 483q-6 31 -41 35q-59 2 -147 20q-27 8 -6 23q79 66 103 65h3q8 -2 33.5 -4t44.5 -4q74 -4 147 -4q193 0 357 25q18 0 4 -15q-41 -59 -58 -65q-27 -12 -98 -29q-39 -10 -45 -43q-18 -129 -18 -487q0 -143 10 -461q4 -55 33 -58q139 -14 168 -22 q18 -6 6 -19q-74 -74 -103 -73q-29 4 -102 8q-86 4 -164 4q-195 0 -344 -31q-3 -1 -5 0q-6 0 -8 3q-1 2 -2 5q0 3 3 7q20 31 57 59q18 10 105 43q41 14 51 57q30 100 30 475zM854 692q47 -98 151.5 -243.5t217.5 -270.5q68 -72 134 -97.5t161 -31.5q14 0 14 -4q2 -2 -2 -6 q-31 -51 -72 -55q-72 -14 -184 -15q-197 0 -309 107q-133 125 -340 446q-10 16 -22.5 30.5t-27 28t-18.5 19.5q-11 11 -11 25q0 10 9 14q84 25 156 90q80 66 187.5 187.5t139.5 179.5q23 43 -6 45q-20 4 -65 9t-58 9q-25 4 -8 21q81 66 96 65q11 0 37 -3l43 -5q14 0 44 -1 t46 -1q164 0 297 20q5 1 9 1q7 0 8 -3q2 -4 -4 -14q-29 -43 -72 -61q-51 -20 -123 -33q-45 -8 -131 -84q-47 -41 -144.5 -143.5t-148.5 -161.5q-13 -15 -13 -32q0 -15 9 -32z" />
<glyph unicode="L" horiz-adv-x="1173" d="M279 637v2q0 238 -6.5 336t-26.5 147q-6 18 -43 25q-8 2 -59.5 10t-73.5 12q-33 6 -13 21q27 20 63 38.5t44 18.5q6 0 46 -3l66 -5q90 -4 158 -4q147 0 336 20q12 0 8 -12q-23 -47 -73 -67q-51 -18 -101 -27q-41 -10 -47 -62q-10 -117 -10 -458q0 -53 -3 -235.5t-3 -236 t51 -63.5q52 -9 111 -9t124 9q98 14 162 68q63 51 113 182q12 27 24 14q22 -25 22 -64q0 -9 -1 -20q-8 -68 -39 -128t-53 -83q-43 -49 -72 -63t-80 -14q-63 0 -235 8q-258 6 -299 6q-197 0 -328 -16q-8 -1 -13 -1q-13 0 -13 5t8 16q29 39 73 57q8 4 117 33q20 4 33 39 q12 33 22.5 201t10.5 303z" />
<glyph unicode="M" horiz-adv-x="1949" d="M995 469q23 -31 37 -8q39 55 147.5 261t176.5 357q12 25 28.5 69t24.5 62q14 25 47 25q317 0 445 18q4 1 7 1q9 0 9 -5t-8 -16q-49 -59 -84 -72q-20 -6 -58 -14t-55 -14q-45 -12 -57 -52q-11 -37 -11 -162q0 -84 5 -206q2 -37 4 -118t3 -118t4 -98.5t6 -95t8 -71.5 t12 -62q10 -43 34 -46q160 -23 162 -22q23 -6 10 -19q-88 -74 -110 -73q-66 4 -103 6q-70 4 -114 4q-186 0 -338 -27q-7 -2 -12 -1q-7 0 -7 4t4 8q29 45 56 65q25 16 80 37q20 8 26 53q14 186 15 774q0 31 -15 5q-248 -473 -350 -711q-14 -35 -36.5 -70t-38 -53t-49.5 -54 l-44 -46q-12 -10 -19 -11q-11 0 -12 25q-2 90 -63 248q-137 360 -305 680q-6 10 -13.5 13t-12.5 0t-5 -9q-4 -104 -20.5 -387t-18.5 -379q0 -47 41 -55q20 -4 55 -10l63 -9q28 -4 44 -10q29 -6 8 -25q-18 -16 -56 -41.5t-50 -23.5q-37 6 -76 8q-27 2 -109 2q-168 0 -289 -23 q-10 -2 -12 0q-1 1 -1 4t1 7q8 18 34 41.5t46 31.5q8 4 98 31q37 8 52 49q35 90 66.5 346t39.5 465q1 20 1 39q0 90 -17 117q-16 25 -43 31q-37 6 -106 13l-89 9q-31 6 -6 21q106 59 119 59q51 -6 129 -6q29 0 62 1q122 3 167 13q20 6 31 -16q20 -57 141 -285 q248 -459 264 -479z" />
<glyph unicode="N" horiz-adv-x="1589" d="M293 831v3q0 186 -27 247q-16 53 -69 66q-66 12 -189 12q-10 0 -13 5t3 10q63 59 98 63q45 2 179.5 12.5t173.5 10.5q12 0 34.5 -18.5t34.5 -35.5q174 -242 403.5 -524.5t295.5 -310.5q33 -16 34 8q2 12 2 260q0 365 -22 444q-8 27 -21.5 38.5t-40.5 13.5q-94 10 -161 24 q-20 4 -11 17q16 16 57.5 43.5t53.5 25.5q66 -10 188 -10q115 0 289 22q17 2 17 -4q0 -5 -7 -14q-27 -47 -73 -68q-39 -14 -103 -30q-27 -8 -43 -66q-25 -109 -24 -493q0 -553 8 -598q12 -37 -21 -37q-145 0 -284 159q-188 203 -625 777q-8 12 -18.5 13t-16.5 -4t-6 -15 v-306q0 -96 3 -178t6 -144.5t3 -84.5q4 -55 54 -66q115 -18 118 -20q23 -4 7 -19q-70 -70 -101 -69q-31 2 -67 6q-53 4 -93 4q-199 0 -315 -25q-17 -5 -17 5q0 3 3 10q33 49 67 63q31 12 107 33q41 10 58.5 27.5t29.5 58.5q41 149 41 659z" />
<glyph unicode="O" horiz-adv-x="1554" d="M920 1282h2q141 0 248.5 -49t171 -133t94 -185.5t30.5 -216.5q0 -334 -241 -520q-45 -35 -129 -85t-127 -68q-178 -72 -297 -72q-260 0 -423 149.5t-163 438.5q0 299 209 493q92 80 268 162q88 41 192 63.5t165 22.5zM729 1157h-2q-139 0 -227 -82q-129 -119 -129 -381 q0 -276 138 -439t351 -163q109 0 178 47q147 98 148 434q0 258 -123 421t-334 163z" />
<glyph unicode="P" horiz-adv-x="1275" d="M276 590v2q0 412 -26 512q-8 29 -37 31h-10q-48 0 -180 -17q-19 -2 -19 5q0 5 4 10q47 59 90 73q70 23 260.5 47.5t327.5 24.5q299 0 412 -107q102 -92 102 -257.5t-149 -290.5q-68 -53 -174.5 -99.5t-147.5 -46.5q-90 0 -123 41q-20 27 10 27q158 4 220 53q80 70 79 221 q0 154 -75.5 255.5t-218.5 101.5q-27 0 -50 -9q-18 -6 -22 -39q-4 -47 -4 -559q0 -250 8 -413q4 -43 49 -47q129 -8 189 -27q23 -4 8 -19q-16 -18 -57.5 -46.5t-53.5 -26.5q-27 2 -113 6q-98 4 -161 4q-274 0 -379 -31q-4 -1 -7 0q-6 0 -9 2q-3 4 4 13q35 61 61 71 q14 6 104 37q37 12 54 53q34 74 34 445z" />
<glyph unicode="Q" horiz-adv-x="1554" d="M913 1282h2q145 0 257 -51t174.5 -137t93 -188.5t30.5 -215.5q0 -180 -61 -301t-184 -221l-33 -27q-12 -10 -16.5 -12t-6.5 -4t-5 -4t-11 -10q-23 -14 6 -50q98 -123 226 -186t239 -63q92 0 148 22q18 6 18 -8q-6 -39 -45 -68q-55 -39 -149.5 -64.5t-151.5 -25.5 q-160 0 -290 51.5t-325 219.5q-34 29 -61 28q-8 0 -14 -2q-44 -11 -78 -10h-10q-106 0 -203.5 30.5t-185 95t-139.5 184.5t-52 280q0 285 203 483q76 74 252 158q194 96 372 96zM735 1159h-2q-131 0 -221 -80q-135 -125 -135 -395q0 -154 46 -273.5t115.5 -185t140.5 -98.5 t132 -33q41 0 53 8q27 23 111 48q18 4 33 0q18 -4 41 8q27 18 43 35.5t40.5 60.5t37 125t12.5 196q0 256 -120 420t-327 164z" />
<glyph unicode="R" horiz-adv-x="1368" d="M702 1278h3q150 0 250 -29.5t147 -82t64.5 -103.5t17.5 -117q0 -131 -111 -219q-76 -51 -112 -70q-18 -10 -5 -49q63 -147 157.5 -295.5t154.5 -197.5q45 -37 81.5 -48.5t100.5 -19.5q18 -2 18 -7t-8 -17q-20 -31 -59 -37q-59 -16 -152 -17q-109 0 -186.5 34t-144.5 120 q-70 88 -234 373q-31 51 -82 51q-25 0 -39 -2q-23 -2 -22 -33q0 -39 -2 -173t-2 -187q0 -39 28 -46q172 -27 187 -30q16 -4 2 -23q-14 -16 -51 -41.5t-50 -23.5q-33 4 -116 8q-86 4 -131 4q-223 0 -347 -25q-25 -6 -24 7q0 4 4 8q39 53 80 69q27 12 88 31q35 10 43 37 q27 94 26 530q0 344 -24 443q-4 23 -11.5 30t-27.5 7q-63 0 -170 -19q-12 -2 -16 4q-2 2 -2 5q0 4 4 8q53 59 100 71q297 72 573 72zM625 1171h-2q-49 0 -68 -10q-14 -8 -14 -35v-458q0 -20 14 -27.5t68 -7.5q154 0 220 49t66 184q0 129 -74.5 217t-209.5 88z" />
<glyph unicode="S" horiz-adv-x="1056" d="M692 1282h2q86 0 170 -35q20 -10 34.5 -32.5t10.5 -36.5q-2 -12 -9 -38t-9 -34q-14 -68 -19 -109q0 -16 -13 -37.5t-30 -31.5q-23 -14 -24 14q-14 131 -41 164q-63 76 -197 76q-90 0 -148.5 -56.5t-58.5 -160.5q0 -115 121 -168q18 -8 159.5 -62.5t188.5 -77.5 q156 -68 156 -223q0 -215 -240 -364q-195 -117 -409 -117q-152 0 -227 63q-16 16 -26 44q-5 15 -5 27q0 10 4 17q57 115 68 232q2 20 8 23t18 -5q39 -29 39 -59v-16q0 -91 45 -136q76 -82 232 -82q119 0 175 58.5t56 136.5q0 115 -127 166q-162 63 -289 119 q-178 90 -178 274q0 227 233 367q164 100 330 100z" />
<glyph unicode="T" horiz-adv-x="1366" d="M709 1223h2q389 0 473 28q4 4 27.5 16.5t52.5 29.5l51 32q10 7 16 7q3 0 6 -2q5 -3 6 -11q0 -4 -2 -8q-60 -152 -59 -315q0 -44 4 -89q2 -27 -4 -30.5t-25 8.5q-55 39 -73 84q-2 2 -33 137q-2 12 -5 17.5t-11.5 8.5t-24.5 3q-10 0 -48 -5.5t-91 -9.5t-113 -4 q-12 0 -18 -4t-8.5 -11t-6.5 -24q-8 -51 -8 -434q2 -338 19 -473q6 -49 43 -55q166 -25 206 -41q23 -8 5 -23q-104 -74 -117 -73l-107 12q-72 6 -182 6q-330 0 -434 -31q-7 -3 -11 -2h-2q-3 2 -2 7.5t5 11.5q27 47 77 73q53 25 166 47q37 8 43 52q23 135 23 524 q0 303 -10 379q-8 57 -33 57q-55 0 -143.5 2t-100.5 2q-49 0 -67 -47q-31 -88 -56 -125q-37 -53 -76 -76q-16 -12 -23 -10q-6 2 -6 12q0 69 23.5 178.5t23.5 148.5q0 20 -1 38q0 18 67 86q9 9 15.5 9t9.5 -9q12 -51 51 -72q74 -32 486 -32z" />
<glyph unicode="U" horiz-adv-x="1566" d="M520 662v-3q0 -203 26.5 -300t76.5 -154q94 -113 266 -113q174 0 254 107q53 72 69.5 177t16.5 314q0 303 -25 391q-16 43 -47 47q-109 12 -176 29q-27 4 -12 19q16 16 60 43.5t56 25.5q72 -9 151 -8h32q207 0 286 18q18 5 19 -5q0 -6 -8 -17q-29 -45 -62 -62 q-18 -10 -110 -41q-29 -10 -33 -55q-8 -147 -8 -301q-4 -289 -46 -439.5t-167 -250.5q-150 -131 -389 -131q-258 0 -383 137q-70 80 -96.5 191.5t-26.5 334.5v439q0 68 -29 71q-119 18 -168 31q-16 5 -16 12q0 4 6 9q25 23 53.5 41t45 25t22.5 7q8 0 35.5 -4t48.5 -6 q111 -6 159 -6q174 0 340 22q5 1 9 1q5 0 6 -2q2 -3 -6 -17q-43 -57 -64 -68q-45 -20 -113 -36q-23 -6 -32 -35q-21 -65 -21 -438z" />
<glyph unicode="V" horiz-adv-x="1449" d="M186 1065q-23 31 -29.5 39t-21 17t-33.5 14q-41 8 -139 22q-13 2 -13 8t11 15q83 66 115 65h4q37 -4 115 -8q41 -2 122 -2q182 0 326 22q5 2 9 2q5 0 7 -3q4 -5 -4 -15q-29 -45 -55 -61q-16 -8 -88 -33q-31 -10 -18 -39l301 -758q4 -14 10 -17t10 3t8 16 q61 141 155.5 387t125.5 340q8 33 3 43.5t-34 14.5q-16 4 -65 12l-74 12q-23 4 -8 19q88 70 115 69h1q115 -14 191 -14q158 0 272 18q17 2 17 -4q0 -5 -6 -14q-23 -39 -56 -57q-20 -10 -106 -31q-37 -8 -55.5 -26.5t-49.5 -65.5q-117 -176 -354 -754q-70 -174 -80 -190 q-141 -154 -170 -154q-4 0 -7 1t-5 3t-3 5t-2 8.5t-2 9.5l-3 12q-2 8 -5 14q-70 258 -203 589t-229 466z" />
<glyph unicode="W" horiz-adv-x="2080" d="M1128 1233q27 27 38.5 24.5t7.5 -36.5q-2 -11 -2 -25q0 -50 24 -131q53 -211 258 -686q18 -41 35 2q33 90 87 255l97 295q43 130 49 146q12 31 5 43.5t-39 18.5q-10 2 -55.5 8t-80.5 12q-20 8 -10 19q27 27 61.5 50t41.5 21q16 -2 88 -10q66 -4 114 -4q166 0 277 25 q5 1 8 0q7 0 7 -4t-5 -13q-14 -35 -55 -61q-31 -18 -101 -35q-20 -4 -37.5 -15.5t-24.5 -18.5t-27.5 -35.5l-28.5 -39.5q-82 -113 -295 -694q-53 -139 -66 -192q-16 -55 -67 -117q-27 -29 -97 -78q-5 -3 -9 -3q-13 0 -21 28q-43 184 -289 772q-4 10 -12.5 13t-12.5 -9 l-231 -611q-18 -49 -68 -108q-31 -39 -94 -78q-14 -8 -20.5 2t-14.5 45q-51 227 -178 581.5t-219 497.5q-25 41 -60 48q-20 6 -59 12t-59 10q-15 5 -15 13q0 5 7 12q94 68 114 67q57 -8 90 -10q70 -4 121 -4q186 0 328 22q10 2 13 -3t-1 -13q-20 -37 -61 -61 q-20 -12 -74 -31q-33 -12 -21 -43q6 -14 47 -143l95 -305l90 -277q12 -41 31 2q41 84 104.5 264t101.5 320q29 90 57.5 136t112.5 130z" />
<glyph unicode="X" horiz-adv-x="1468" d="M332 1049q-33 45 -61.5 65.5t-71.5 28.5q-18 4 -57 10l-62 10q-31 6 -10 21q10 6 33.5 22.5t43 28.5t29.5 12q14 0 42 -3t44 -3q55 -6 148 -6q172 0 315 27q4 1 7 0q6 0 9 -2q4 -4 -2 -13q-23 -43 -57 -61q-20 -12 -53 -25q-12 -6 -14.5 -11t3.5 -22q33 -80 173 -313 q12 -16 17 -15t17 15q117 150 187 281q7 13 6 21q0 19 -29 24q-51 10 -94 16q-29 6 -8 23q98 66 102 65q25 -4 72 -8q27 -2 94 -2q139 0 270 20q16 4 15 -2q0 -4 -6 -14q-29 -45 -66 -63q-14 -6 -33.5 -11.5t-45.5 -11.5l-42 -10q-43 -10 -96 -62q-27 -23 -68 -73l-113 -148 l-102 -133q-16 -20 0 -47q223 -383 338 -520q41 -47 82 -54l92 -14q66 -10 93 -16q14 -4 14 -8.5t-10 -14.5q-78 -63 -101 -63q-98 7 -220 7q-49 0 -101 -1q-184 -4 -252 -27q-7 -2 -12 -2q-6 0 -9 3q-4 5 6 20q23 37 37 49q6 6 16.5 12l18.5 10.5t10 6.5q18 8 18 24 q0 14 -11 33l-195 336q-14 23 -31 0l-135 -183q-86 -114 -102 -143q-18 -29 10 -37l50 -7q36 -5 64.5 -10t45 -11.5t4.5 -18.5q-66 -66 -86 -66q-1 0 -2 1q-96 14 -189 14q-172 0 -295 -20q-19 -4 -18 4q0 2 2 4.5t2 3.5q35 51 70 63q16 6 50 15.5t46 13.5q45 10 94 55 q137 135 346 420q10 16 -8 47q-174 308 -268 443z" />
<glyph unicode="Y" horiz-adv-x="1320" d="M223 1061q-25 27 -37 37t-34.5 21t-57.5 20q-12 2 -55 8t-70 12q-10 2 -14 6t-4 8.5t4 8.5q86 68 101 67q6 0 47 -3l69 -5q49 -2 160 -6q141 0 321 18q27 0 11 -20q-31 -43 -64 -59q-27 -10 -68 -21q-25 -8 -8 -45q82 -160 209 -434q8 -23 23 4l126 226q85 151 113 206 q16 25 -16 29q-82 12 -115 22q-27 8 -12 21q77 66 99 66q2 0 3 -1q4 0 32 -3t44 -5q61 -4 107 -4q70 0 241 18q4 1 7 1q9 0 10 -6q0 -5 -6 -13q-35 -51 -66 -61q-8 -2 -48 -14.5t-54 -14.5q-31 -8 -86 -64q-141 -145 -297 -448q-35 -66 -35 -158q0 -242 8 -330q2 -33 33 -34 q193 -27 223 -37q18 -8 6 -19q-31 -29 -71.5 -51t-51.5 -20q-39 8 -133 12q-106 4 -151 4q-244 0 -412 -29q-5 -1 -8.5 -1t-4.5 1q-3 2 1 13q31 55 98 77q63 25 137 39q37 10 43 62q14 84 15 262q0 78 -29 147q-59 137 -143.5 284t-139.5 206z" />
<glyph unicode="Z" horiz-adv-x="1247" d="M707 1217h2q227 0 315 30q39 14 54.5 25.5t33.5 36.5q16 20 23 -13q2 -8 2 -16q0 -37 -17 -76q-33 -76 -166 -272q-201 -285 -510 -668q-10 -14 17 -24q121 -49 373 -50q139 0 198 15q98 23 185 145q20 25 26 15q7 -10 7 -30q0 -16 -5 -38q-14 -53 -81.5 -135 t-153.5 -131q-92 -51 -256 -51q-59 0 -265 10q-137 10 -213 10q-164 0 -200 -16q-17 -8 -26 -8h-4q-7 3 -3 18q6 37 37 67q184 176 450.5 483.5t343.5 483.5q2 6 -1 10t-11 2q-106 -33 -465 -32q-90 0 -139 4q-20 0 -39 -29q-59 -92 -102 -133q-39 -39 -76 -39q-13 0 -13 5 q0 4 3 13q78 168 110 418q4 27 66 74q3 3 6 3l10 -9q16 -57 62 -68q115 -30 422 -30z" />
<glyph unicode="[" horiz-adv-x="778" d="M209 231v2q0 313 18.5 680t42.5 426q8 18 34 41t44 27q33 8 346 8q16 0 6 -14q-31 -45 -61 -58q-10 -4 -82 -14t-94 -18q-27 -12 -43 -109q-49 -262 -49 -969q0 -354 30 -464q8 -39 56 -52q20 -4 59 -8t87 -8t67 -6q20 0 6 -21q-57 -51 -92 -57q-72 -16 -281 -16 q-18 0 -46 14t-30 29q-18 122 -18 587z" />
<glyph unicode="\" horiz-adv-x="724" d="M186 1354q66 -254 226.5 -782.5t249.5 -794.5q6 -20 4 -25.5t-19 -3.5q-29 4 -85 66.5t-81 136.5l-176 554q-164 517 -231 750q-6 18 27.5 53t54.5 46q26 14 30 0z" />
<glyph unicode="]" horiz-adv-x="784" d="M573 786v-2q0 -315 -17 -680.5t-44 -425.5q-8 -18 -34.5 -40.5t-43.5 -26.5q-33 -10 -346 -10q-16 0 -6 18q51 51 61 55q2 0 77 11.5t99 21.5q23 10 43 109q49 276 50 970q0 342 -33 463q-10 41 -53 51q-20 4 -59.5 8.5t-87.5 8.5t-66 6q-25 0 -7 18q2 2 23 19.5t36 26 t34 12.5q72 16 280 16q16 0 44 -13t30 -28q20 -139 20 -588z" />
<glyph unicode="^" horiz-adv-x="962" d="M549 1292h2q2 0 8 -16q29 -111 51.5 -178.5t92 -196.5t169.5 -239q12 -14 -8 -20.5t-82.5 4.5t-85.5 30q-29 20 -108.5 136t-112.5 202q-4 10 -10 0q-158 -285 -244 -340q-16 -10 -63 -26.5t-64 -16.5q-25 0 -2 20q94 94 186.5 254t147.5 301q10 25 60.5 55.5t62.5 30.5z " />
<glyph unicode="_" horiz-adv-x="1138" d="M1143 -365v-102h-1147v102h1147z" />
<glyph unicode="`" horiz-adv-x="874" d="M537 950q6 -14 -21 -16q-20 0 -55 7t-43 13q-43 25 -111.5 110t-93.5 157q-12 33 12 57q10 12 58.5 28.5t78.5 14.5q71 -221 175 -371z" />
<glyph unicode="a" horiz-adv-x="942" d="M526 846h2q76 0 129.5 -31t79 -84t37.5 -104.5t12 -110.5q0 -190 -14 -348q-2 -27 23 -39q29 -17 80 -17q21 0 47 3q5 2 4 -4q0 -24 -33 -52q-53 -41 -152.5 -67.5t-171.5 -26.5q-18 0 -28.5 6t-8.5 23q2 8 3.5 26.5t2.5 41t1 32.5q0 20 -17 12q-23 -12 -71 -43.5 t-84 -52.5q-66 -35 -125 -35q-68 0 -125.5 52.5t-57.5 146.5q0 53 36 97t83 71q61 33 168 74t156 55q37 8 37 35q0 94 -41 153.5t-127 59.5q-51 0 -88 -37q-49 -45 -72 -182q-4 -39 -31 -25q-35 16 -61.5 52t-26.5 65q0 43 60 80q109 78 227 133q84 41 147 41zM422 133h2 q68 0 104 51q16 16 17 47q0 25 1 66t1 61q0 35 -23 35q-90 0 -176 -45q-47 -29 -47 -72q0 -53 34 -98t87 -45z" />
<glyph unicode="b" horiz-adv-x="1044" d="M692 846h2q147 0 219 -102.5t72 -235.5q0 -197 -127 -324q-88 -92 -264 -168q-104 -43 -182 -43q-76 0 -179 41q-23 6 -37 1t-73 -38q-10 -5 -16 -5q-3 0 -6 1q-7 4 -3 17q29 121 29 665q0 444 -21 523q-6 37 -51 45q-49 10 -80 14q-14 2 -13 9q0 2 1 5q4 8 26.5 24.5 t39.5 18.5q176 20 247 43q25 8 97 49q4 2 6 2q7 0 10 -10q4 -14 0 -32q-20 -164 -20 -486v-127q0 -12 9 -19t19 -1q145 84 183 100q69 33 112 33zM535 688h-3q-76 0 -137 -45q-27 -25 -26 -76q0 -254 8 -379q2 -43 26 -61q49 -41 138 -41q86 0 143 71.5t57 229.5 q0 135 -59 218t-147 83z" />
<glyph unicode="c" horiz-adv-x="856" d="M584 846h2q121 0 180 -64q35 -45 35 -90q0 -47 -40 -86t-81 -51q-33 -14 -33 8q-8 59 -31 92q-47 76 -151 76q-63 0 -111 -43q-63 -59 -63 -223q0 -162 70.5 -251t187.5 -89q74 0 148.5 36t121.5 87q4 6 9.5 7t7.5 -1t2 -8q0 -55 -37 -96q-109 -104 -244 -150 q-82 -27 -168 -27q-139 0 -234.5 88.5t-95.5 272.5q0 207 166 340q72 59 179.5 115.5t179.5 56.5z" />
<glyph unicode="d" horiz-adv-x="1083" d="M600 846h2q41 0 57 -2q10 -2 14.5 4t4.5 18q0 170 -6 275q-2 70 -21 73q-23 4 -141 13q-14 4 -4 14q10 8 26 24l27 24q10 9 19 9q170 16 247 41q68 16 109 43q14 9 20 10q2 0 3 -1q5 -4 1 -23q-39 -131 -38 -713q0 -406 24 -479q8 -25 39 -33q16 -4 49 -5t47 3q2 0 5 1 q11 0 11 -8q0 -12 -24 -42q-39 -51 -151.5 -89t-186.5 -38q-31 0 -39 33l-6 82q0 25 -9 29t-28 -7q-96 -57 -166 -88q-78 -37 -131 -37q-115 0 -205 93.5t-90 251.5q0 100 36 184t89 133q88 82 236 154q114 53 180 53zM498 739h-2q-66 0 -113 -41q-82 -72 -82 -235 q0 -129 59.5 -229.5t180.5 -100.5q66 0 108 35q29 18 29 53v412q0 35 -23 53q-57 53 -157 53z" />
<glyph unicode="e" horiz-adv-x="862" d="M532 846h3q129 0 189 -81q53 -71 53 -153q0 -11 -1 -22q0 -23 20.5 -19t32.5 4q18 2 19 -10q-2 -10 -15.5 -25.5t-25.5 -21.5q-55 -29 -248 -61q-78 -12 -237 -27q-12 -2 -18.5 -14.5t-4.5 -22.5q6 -268 260 -268q80 0 157 37t113 71q14 14 15 -6q0 -47 -33 -75 q-88 -86 -279 -156q-63 -23 -157 -23q-127 0 -221.5 90.5t-94.5 278.5q0 109 37 194t84 132q51 55 174 120q106 58 178 58zM424 745h-2q-45 0 -81 -46t-42 -146q0 -37 37 -37q102 0 184 12q39 8 39 41q0 76 -32.5 126t-102.5 50z" />
<glyph unicode="f" horiz-adv-x="667" d="M657 1389h2q96 0 144 -76q12 -23 12 -51.5t-39 -65.5q-18 -18 -86 -68q-6 -6 -15 -6t-11 8q-14 49 -54.5 90.5t-97.5 41.5q-31 0 -57 -31q-37 -48 -37 -234q0 -62 4 -139q2 -25 9 -32t30 -9q47 -5 91 -5q83 0 159 17q14 2 14 -6q0 -10 -16 -28q-16 -20 -58.5 -49 t-70.5 -37q-51 -18 -138 -19q-25 0 -24 -26q0 -455 12 -519q4 -27 12.5 -35t30.5 -12q115 -20 158 -35q18 -6 6 -18q-59 -59 -84 -59h-2q-66 8 -102 10q-70 4 -127 4q-199 0 -299 -20q-6 -2 -11 -2t-8 3q-1 2 -1 4q0 5 5 11q6 14 28.5 36.5t33.5 26.5l61 21q35 12 37 61 q8 117 8 514q0 31 -20 35q-10 2 -49 8.5t-56 10.5q-16 6 -19 10t5 16l29 30q16 17 27 26.5t22 15.5q10 2 47 10q20 4 22 39q10 113 52 209q55 147 217 250q112 74 204 74z" />
<glyph unicode="g" horiz-adv-x="917" d="M510 848h2q78 0 168 -51q31 -14 65 -15q111 0 191 97q7 10 10 9h2q3 -2 3 -8q0 -75 -47 -131t-124 -83q-16 -6 -10 -29q10 -31 10 -74q0 -141 -149 -233q-59 -41 -219 -119q-43 -18 -43 -43q0 -27 88 -43l311 -45q61 -10 101 -57.5t40 -108.5q0 -139 -118 -242 q-92 -84 -228 -147q-125 -57 -258 -57q-137 0 -225 63t-88 164q0 41 51 86q12 12 79.5 64.5t86.5 68.5q18 12 0 20q-37 18 -62.5 54.5t-25.5 77.5q-2 29 29 51q16 10 70 38l83 42q25 16 -2 18q-236 29 -235 252q0 109 77 197q70 82 219 141q107 43 148 43zM393 745h-2 q-37 0 -61 -26q-47 -41 -47 -133v-11q0 -124 47 -193q49 -73 123 -73q45 0 71 27q43 33 43 153q0 256 -174 256zM459 -414h2q125 0 187.5 48.5t62.5 117.5q0 80 -113 107q-139 39 -268 45q-31 0 -54 -17q-80 -55 -79 -127q0 -66 74.5 -120t187.5 -54z" />
<glyph unicode="h" horiz-adv-x="1116" d="M707 846h2q252 0 252 -336q0 -63 -7.5 -207.5t-7.5 -155.5q0 -27 19 -38q31 -14 120 -41q14 -4 14 -10q0 -4 -5 -9q-66 -43 -80 -45q-301 -4 -363 -29q-7 -3 -12 -2q-7 0 -9 4q-5 8 5 19q45 57 61 106q16 82 17 316q0 283 -160 282q-68 0 -129 -55q-25 -25 -25 -82 q0 -371 11 -440q8 -27 36 -35q80 -14 99 -22q16 -8 2 -21q-66 -55 -82 -55q-14 0 -50 3t-73 5t-68 2q-156 0 -258 -18q-35 -6 -14 18q33 45 47 51q10 6 27.5 14.5t23.5 10.5q20 8 35 53q25 94 25 508q0 455 -17 545q-6 35 -47 43l-48 9q-28 5 -42 7q-10 0 -14 2q-2 1 -2 3 t2 5q35 39 61 45q178 20 244 41q23 6 106 52q3 1 5 1q6 0 10 -9q4 -11 2 -31q-18 -180 -19 -617q0 -33 23 -18q127 80 147 90q93 41 136 41z" />
<glyph unicode="i" horiz-adv-x="571" d="M328 983h-2q-88 0 -129 35q-47 39 -47 133q0 45 34 68q27 16 87.5 31.5t105.5 15.5t20 -37q-22 -30 -21 -102q0 -63 19 -107q10 -16 -8 -25q-20 -12 -59 -12zM174 401v2q0 170 -12 226q-6 27 -37 41l-33 13l-37 15q-23 10 21 39q16 10 22 11q184 23 314 102q8 7 15 6h3 q8 -2 4 -16q-18 -96 -18 -396q0 -197 10 -294q4 -37 33.5 -55.5t97.5 -31.5q15 -2 15 -9q0 -6 -9 -15q-49 -47 -76 -47q-31 0 -112.5 4t-110.5 4q-47 0 -89 -3t-75.5 -7t-46.5 -4q-5 -1 -9 -1q-8 0 -8 4t7 13q18 23 92 64q20 8 25 40q14 94 14 295z" />
<glyph unicode="j" horiz-adv-x="534" d="M344 993h-22q-93 0 -132 31q-59 41 -59 137q0 41 25 62q76 45 196 45q47 0 25 -31q-23 -37 -23 -102.5t17 -110.5q14 -31 -27 -31zM162 274v2q0 276 -21 342q-8 25 -32 41q-20 12 -95 37q-16 4 19 33q14 10 22 10q176 20 322 111q9 6 15 5q9 0 11 -13q4 -33 5 -631 q0 -195 -38 -314.5t-116 -205.5q-203 -223 -338 -223q-57 0 -94 49q-31 37 -31 100q0 16 4 18.5t23 -8.5q25 -14 79 -25.5t87 -11.5q66 0 101.5 40t51.5 153q25 112 25 491z" />
<glyph unicode="k" horiz-adv-x="1050" d="M162 639v2q0 432 -19 537q-6 35 -43 45q-8 2 -33.5 7t-39.5 7q-18 4 -19 8l2 4q4 10 26.5 26.5t37.5 18.5q131 12 237 47q49 14 88 43q5 4 9 5q5 0 8 -9q4 -14 2 -37q-18 -106 -19 -681q0 -446 9 -535q2 -31 32 -33q109 -20 111 -22q20 -6 6 -21q-59 -59 -88 -59 q-6 0 -80 4q-70 4 -127 4q-164 0 -264 -18q-15 -2 -15 5q0 6 9 17q14 27 43 45q10 6 21.5 11.5t24.5 10.5t19 7q20 6 27.5 16t11.5 35q23 166 23 510zM930 125q66 -58 154 -58q11 0 22 1q12 0 12 -8q0 -3 -2 -7q-8 -16 -25.5 -32.5t-31.5 -20.5q-98 -25 -242 -25 q-39 0 -83 28t-70 63q-123 156 -189 266q-41 70 -59 88q-9 9 -9 14q0 6 11 8q45 8 112.5 85t108.5 153q11 19 11 79q0 17 -1 38q0 20 21 20q195 0 346 37q4 1 7 1q5 0 5 -5q0 -6 -8 -16q-37 -55 -74 -72q-20 -8 -45 -16l-46 -13q-22 -6 -28 -8q-35 -10 -59 -35 q-31 -27 -106 -117q-14 -16 -3 -41q45 -100 129.5 -228t141.5 -179z" />
<glyph unicode="l" horiz-adv-x="559" d="M158 719v2q0 336 -15 450q-8 31 -43 43q-35 10 -96 21q-16 2 -12 12t25.5 26.5t33.5 18.5q162 12 254 47q55 16 103 43q5 4 8 4q6 0 6 -16v-10q-23 -109 -23 -666q0 -440 15 -565q4 -31 30 -33q109 -25 117 -26q10 -3 10 -9t-10 -14q-14 -16 -45 -35.5t-41 -19.5 q-8 0 -82 4t-141 4q-125 0 -248 -20q-7 -1 -11.5 -1.5t-5.5 1.5q-1 1 -1 2q0 4 4 14q23 39 43 51q14 8 35.5 16.5t27.5 12.5q27 10 37 45q25 94 25 598z" />
<glyph unicode="m" horiz-adv-x="1660" d="M176 412v2q0 160 -12 204q-6 35 -31 46q-8 4 -92 34q-16 4 14 35q16 14 31 19q180 31 289 104q9 7 14 7q2 0 4 -1q6 -4 8 -28q2 -18 5.5 -60.5t5.5 -56.5q0 -37 26 -19q68 51 168 111q70 37 119 37q152 0 209 -141q10 -25 35 -11q94 70 168 115q70 37 129 37t104 -23.5 t70.5 -57.5t41 -82t20.5 -88t5 -83q0 -55 -20 -369q0 -29 14 -41q29 -29 139 -49q11 -4 12 -10q0 -4 -5 -10q-45 -31 -70 -35q-55 -12 -238 -12q-106 0 -133 6q-27 4 -8 22q37 45 47 84q18 55 19 318q0 270 -160 270q-59 0 -123 -63q-20 -25 -20 -60q-4 -279 -15 -422 q-4 -37 27 -41q55 -10 119 -28q20 -6 6 -17q-78 -63 -92 -63q-25 4 -74 4q-66 4 -115 4q-131 0 -223 -16q-6 -2 -9 -2q-10 0 -1 14q31 51 47 59q8 6 26.5 12.5t26.5 12.5q18 10 23 53q10 113 10 313q0 242 -146 242q-76 0 -129 -65q-27 -29 -26 -68q0 -55 -1 -210t-1 -206 q0 -41 26 -45q41 -8 95 -20q16 -6 0 -25q-70 -57 -84 -57q-66 4 -82 4q-49 4 -95 4q-137 0 -243 -16q-4 -1 -7 -1q-6 0 -6 3.5t5 11.5q23 49 47 57q41 14 61 23q18 6 31 49q14 82 14 285z" />
<glyph unicode="n" horiz-adv-x="1128" d="M176 412v2q0 166 -14 209q-4 20 -27 34q-37 18 -92 35q-18 4 16 39q16 18 27 19q147 12 287 106q8 7 14 7q10 0 14 -19q12 -41 13 -127q0 -27 22 -12q84 61 154 98q74 43 137 43q246 0 246 -357q0 -61 -7.5 -187t-7.5 -161q0 -25 23 -39q37 -20 133 -39q9 -4 9 -9t-5 -11 q-35 -35 -57 -41q-76 -25 -236 -25q-121 0 -153 13q-23 10 -4 26q29 29 49 93q14 47 14 309q0 133 -44 200.5t-120 67.5q-68 0 -123 -55q-29 -23 -28 -66q0 -270 4 -434q0 -29 26 -33q78 -16 99 -24q18 -6 0 -21q-66 -61 -86 -61q-20 2 -74 6q-33 2 -106 2q-174 0 -242 -18 q-10 -3 -10 3q0 4 4 11q12 41 41 57q8 4 27.5 12.5t31.5 16.5q23 14 31 51q14 76 14 279z" />
<glyph unicode="o" horiz-adv-x="1005" d="M612 846h2q162 0 247 -101.5t85 -261.5q0 -188 -121 -303q-80 -82 -243 -157q-111 -49 -183 -50q-139 0 -239.5 89.5t-100.5 275.5q0 129 51.5 220t122.5 138q57 37 201 105q112 45 178 45zM459 733h-2q-59 0 -105 -55q-59 -70 -59 -221q0 -166 70.5 -264.5t175.5 -98.5 q57 0 104 43q61 57 62 240q0 150 -60.5 253t-185.5 103z" />
<glyph unicode="p" horiz-adv-x="1075" d="M156 221v2q0 338 -23 420q-4 16 -29 37q-16 10 -45 22l-43 19q-12 4 15 29q10 8 16 10q133 29 190.5 53.5t124.5 79.5q6 5 11 5q6 0 8 -9q12 -37 12 -176q0 -31 29 -11l178 103q74 41 115 41q106 0 178 -58.5t97.5 -132t25.5 -155.5q0 -201 -137 -322q-98 -90 -234 -162 q-80 -41 -160 -41q-45 0 -71 9q-23 8 -23 -13q0 -53 1 -115.5t1 -102.5t2 -75q4 -47 39 -51q131 -16 146 -20q20 -4 4 -21q-72 -70 -92 -69q-80 4 -156 4q-85 0 -163 -5q-148 -9 -198 -28q-7 -2 -11 -2q-7 0 -7 4.5t6 13.5q39 53 51 60q10 6 76 35q35 12 39 53 q27 180 27 569zM782 373v2q0 123 -61.5 214t-163.5 91q-74 0 -129 -49q-29 -23 -29 -53q-5 -77 -4 -194q0 -88 2 -198q4 -35 27 -57q53 -45 143 -45q70 0 115 33q100 68 100 256z" />
<glyph unicode="q" horiz-adv-x="1036" d="M633 846h2q80 0 168 -33q18 -8 41 4l40 23l38 20q8 6 14 6t8 -4t0 -10q-35 -117 -35 -582q0 -518 29 -614q6 -25 41 -29q29 -4 115 -12q9 -1 9 -7q0 -4 -5 -11q-14 -25 -50 -52.5t-49 -27.5h-66q-309 0 -460 -35q-3 -1 -5 -1q-6 0 -7 4q-2 5 4 13q29 43 70 68 q23 12 88 35q23 4 30 43q14 88 15 313v98q0 20 -6.5 27.5t-18.5 1.5q-106 -59 -164 -82q-78 -29 -119 -29q-129 0 -215 91.5t-86 254.5q0 207 177 353q66 55 213 129q100 45 184 45zM492 729h-3q-74 0 -129 -59q-66 -78 -65 -226q0 -154 73.5 -239.5t174.5 -85.5q57 0 96 31 q29 23 29 63q0 203 -2 303q0 150 -43 178q-47 35 -131 35z" />
<glyph unicode="r" horiz-adv-x="831" d="M174 424v2q0 141 -22 190q-8 20 -37 39q-8 4 -82 27q-4 1 -4 5q0 10 24 36q14 16 23 16q152 18 284 113q7 4 13 4q12 0 16 -18q25 -88 25 -181q4 -29 22 -6q104 119 125 140q59 55 112.5 55t98.5 -53q31 -41 31 -95q0 -98 -111 -163q-43 -29 -51 2q-14 84 -104 84 q-27 0 -57.5 -19.5t-45.5 -42.5q-20 -31 -20 -98q2 -35 2 -283q0 -47 37 -67q43 -29 180 -33q18 0 6 -23q-18 -39 -57 -51q-31 -12 -101 -12q-57 4 -100 4q-74 4 -113 4q-131 0 -186 -12q-8 -3 -13 -4q-1 0 -2 1q-5 1 -6.5 5t5.5 14q16 35 53 59q35 35 41 70q14 58 14 291z " />
<glyph unicode="s" horiz-adv-x="792" d="M520 846h2q80 0 133 -35q26 -20 27 -48q0 -16 -8 -34q-25 -47 -29 -111q-4 -35 -45 -55q-18 -10 -22 10q-18 106 -48 134q-47 43 -122 43q-55 0 -89 -33t-34 -82q0 -53 63 -82q16 -8 58.5 -20.5t100.5 -27.5l81 -22q147 -43 147 -168q0 -76 -50 -141t-120 -106 q-172 -94 -309 -95q-117 0 -176 45q-14 10 -21 37q-3 11 -2 21q0 13 4 22q55 94 74 158q4 14 17 8q27 -16 26 -41q0 -53 47 -100q55 -55 158 -55q63 0 100 32.5t37 77.5q0 57 -71 82q-23 6 -98 29l-113 35q-143 45 -144 165q0 92 47 157t138 122q118 78 241 78z" />
<glyph unicode="t" horiz-adv-x="700" d="M545 811h2q94 0 153 23q16 6 19 -5q0 -6 -10 -20q-43 -63 -123 -94q-78 -25 -172 -25q-6 0 -14.5 -9t-8.5 -22v-237q0 -217 43 -266q41 -41 105 -41q68 0 147 65q8 6 10 3t2 -15q0 -10 -11 -38t-19 -38q-106 -117 -293 -117q-109 0 -170 68q-59 63 -60 242q0 82 9 377 q0 29 -27 30q-84 6 -125 19q-16 6 -16 15q0 6 8 13q80 80 104 80q10 0 26.5 -2t25.5 0q14 0 18 29q10 88 29 133q16 37 95 100.5t120 77.5q10 4 14 4q3 0 4 -1q4 -3 0 -13q-25 -100 -29 -309q0 -25 25 -25q31 -2 119 -2z" />
<glyph unicode="u" horiz-adv-x="1110" d="M393 428v-2q0 -215 58 -262q41 -35 106 -35q76 0 123 68q16 25 16 82q0 68 3 215t3 155q0 27 -30 41q-43 18 -131 35q-14 4 -2 16q10 10 34.5 26.5t30.5 16.5q193 8 342 64q8 3 13 3q4 0 6 -2q4 -5 0 -26q-23 -129 -23 -405q0 -168 14 -240q4 -39 45 -49q43 -8 101 -8 q10 0 10 -4q0 -2 -2 -4q-12 -33 -35 -50q-72 -45 -155.5 -72.5t-143.5 -27.5q-35 0 -45 33q-16 49 -20 113q-2 12 -11.5 12t-15.5 -6q-125 -86 -143 -97q-76 -45 -156 -45q-240 0 -240 312q0 209 15 352q0 29 -21 41q-35 25 -114 47q-7 4 -8 7q0 2 3 5q41 37 58 39 q86 8 186.5 29.5t147.5 44.5q5 2 7 2q4 0 6 -3q3 -5 -1 -18q-31 -94 -31 -403z" />
<glyph unicode="v" horiz-adv-x="952" d="M399 -25q-53 207 -131 395.5t-131 276.5q-8 14 -16 24.5t-19.5 18.5l-17.5 12.5t-22.5 8.5t-22.5 6t-29.5 5t-32.5 5q-12 4 -12 10q0 5 6 11q79 59 94 59q7 0 22 -0.5t23 -0.5q66 0 159 8q126 11 180 28q3 1 5 0q5 0 7 -2q2 -4 -2 -15q-16 -31 -49 -75q-14 -18 -4 -48 q88 -240 141 -426q4 -8 11 -7t11 10q90 201 148 411q6 23 -8 31l-26 6l-43 10l-42 11q-16 2 -4 14q68 61 90 61q20 0 67.5 -4t67.5 -6q106 0 203 21q11 3 11 -5q0 -4 -3 -10q-16 -43 -55 -61q-8 -4 -31.5 -13.5t-40.5 -17.5q-23 -12 -51 -53q-74 -98 -285 -578 q-10 -20 -30.5 -41.5t-37.5 -35.5l-42 -30q-25 -17 -29 -22q-9 -8 -16 -7q-9 -1 -13 15z" />
<glyph unicode="w" horiz-adv-x="1413" d="M369 -29q-23 137 -98.5 364.5t-120.5 301.5q-35 55 -59.5 69.5t-102.5 24.5q-9 0 -9 5t7 14q49 49 67 49q305 0 406 39q3 1 5 0q4 0 6 -1q3 -3 -1 -16q-10 -45 -45 -86q-16 -23 -8 -37l104 -379q8 -25 27 3q76 158 151 401q6 23 51.5 58.5t79.5 54.5q10 7 16 7q7 0 7 -12 q4 -96 68.5 -271t117.5 -265q14 -18 25 6q88 170 121 367q12 45 -15 51q-111 27 -112 26q-20 6 -6 19q14 6 35 21l37 27q15 11 20 11q10 0 34.5 -3t53.5 -5t59 -2q135 0 199 23q7 3 10 2h2q1 -1 2 -4q0 -6 -6 -15q-20 -41 -41 -55q-33 -18 -80 -31q-45 -14 -71 -74l-79 -179 l-109 -243q-48 -105 -73 -153q-49 -78 -139 -123q-4 -3 -8 -3q-10 0 -14 22q-37 147 -174 460q-12 35 -29 2q-74 -154 -152 -360q-10 -20 -52 -61t-87 -58q-18 -6 -20 8z" />
<glyph unicode="x" horiz-adv-x="1007" d="M807 178q72 -84 123 -92q88 -12 108 -23q9 -4 10 -9q0 -4 -6 -9q-14 -16 -45.5 -36.5t-48.5 -20.5q-31 4 -84 8q-45 3 -82 3q-18 0 -34 -1q-172 0 -254 -14q-10 -2 -11 4q-2 4 4 10q12 33 39 51l31 19q10 12 0 30q-57 102 -98 166q-8 12 -10.5 13.5t-12.5 -9.5 q-49 -63 -141 -159q-20 -25 12 -29q102 -12 125 -23q10 -10 -2 -18q-59 -49 -76 -49h-2l-65 6q-49 4 -82 4q-137 -4 -205 -18q-4 -1 -6 -1q-9 0 -9 6q0 4 5 9q27 37 57 51q6 4 82 29q29 6 61 37q61 59 197 227q14 18 4 31q-100 182 -162 264q-41 49 -69 61q-43 20 -125 29 q-16 4 -4 18q6 4 18 15.5t22.5 18.5t20.5 7q215 12 348 68q4 2 7 2q8 0 4 -14q-8 -37 -11 -45q-6 -27 11 -62q6 -10 21 -41l34 -64q18 -34 41 -67q8 -16 20 0q74 98 90 133q8 16 -20 27q-6 2 -31.5 8t-38.5 12q-10 4 2 15q63 57 76 57q46 -2 89 -2q152 0 253 29q6 2 11.5 2 t4 -6.5t-9.5 -18.5q-29 -45 -63 -59q-10 -4 -49 -15.5t-64 -19.5q-31 -10 -55 -39q-27 -29 -80 -102l-66 -90q-12 -16 0 -37q136 -216 191 -277z" />
<glyph unicode="y" horiz-adv-x="962" d="M127 -340h2q94 0 192.5 77t145.5 185q8 23 -12 53q-31 53 -43 93q-68 201 -141.5 358.5t-112.5 212.5q-23 41 -50.5 55.5t-115.5 34.5q-9 2 -10 7q0 4 6 9q4 2 21.5 15.5t29.5 22t20 8.5q268 18 371 67q4 1 7 1q7 0 5 -7q0 -8 -6 -23q-2 -4 -9 -21t-10 -25.5t-7 -23 t-4 -23.5t4 -17q43 -94 186 -492q2 -8 7 -11t10 1t10 14q47 109 75.5 235t28.5 183q6 27 -12 49q-6 8 -18.5 13.5t-22.5 7.5l-37 7q-27 5 -41 9t0 17q74 63 86 63q227 0 348 27q8 2 11 -2q1 -2 2 -5q0 -3 -3 -8q-25 -53 -55 -67q-18 -10 -72 -33q-29 -14 -51 -65 q-14 -35 -98 -271.5t-131 -337.5q-150 -319 -279 -467q-92 -102 -178 -102q-63 0 -104 45q-47 57 -52 125q-2 12 4.5 18t16.5 2q37 -14 86 -14z" />
<glyph unicode="z" horiz-adv-x="907" d="M504 807h2q84 0 122 1t85 10t84 28q6 4 10 3t6 -7t-2 -23q-31 -84 -76 -157q-106 -172 -360 -453q-25 -29 2 -37q51 -18 205 -18q127 0 185 27.5t128 115.5q16 18 21.5 17t5.5 -21q0 -45 -35 -111q-78 -111 -163 -159t-261 -48q-86 0 -225.5 11.5t-169.5 11.5 q-18 0 -22.5 9t3.5 18q55 63 103 108q369 362 448 494q6 10 8 15t-2 7t-5 2h-9q-47 -2 -155.5 -9t-153.5 -9q-49 -4 -66 -33q-41 -63 -84 -106q-37 -37 -74 -41q-18 -4 -18 4q0 4 4 12q88 201 92 342q0 20 45 66q4 3 7 3q6 0 12 -10q29 -35 84 -49t219 -14z" />
<glyph unicode="{" horiz-adv-x="784" d="M623 -430h-2q-156 0 -252.5 69.5t-96.5 227.5q0 39 5.5 81t9.5 66.5t16 80t16 75.5q31 143 -31.5 217t-172.5 84q-23 2 -19 21q45 53 62 53q98 10 142 54t40 105.5t-21 139.5q-31 104 -27.5 201.5t36 174t121 134t227.5 82.5q25 6 16 -23q-27 -63 -51 -72 q-203 -63 -145 -366q39 -207 39 -227q0 -133 -179 -216q-27 -12 2 -26q70 -37 110 -84t49 -110.5t4 -121t-23 -143.5q-51 -248 -4 -317q51 -86 194 -92q29 0 8 -25q-28 -43 -73 -43z" />
<glyph unicode="|" horiz-adv-x="628" d="M233 1671h175v-2228h-175v2228z" />
<glyph unicode="}" horiz-adv-x="782" d="M147 1432h3q154 0 248 -71t94 -224q0 -68 -48 -289q-31 -141 37 -218t178 -87q20 -2 11 -19q-39 -51 -62 -55q-96 -12 -140 -53t-42 -102.5t18 -143.5q127 -528 -346 -602q-14 -4 -18 1t2 19q23 59 47 68q82 27 121 84t36 128t-20 157q-35 209 -35 237q0 137 179 221 q27 12 -2 27q-72 37 -111 85t-48 111.5t-4 121t23 143.5q45 233 2 301q-47 80 -186 94q-18 2 -6 23q10 16 30.5 29.5t38.5 13.5z" />
<glyph unicode="~" horiz-adv-x="1222" d="M444 584h2q88 0 232 -99q123 -80 182 -79q78 0 166 114q23 31 98 55q31 10 31 0q0 -4 -4 -10q-51 -117 -167 -216t-226 -99q-82 0 -211 90q-117 80 -178 80q-74 0 -146.5 -54.5t-120.5 -117.5q-27 -35 -26 8q0 57 24 94q74 92 170 163t174 71z" />
<glyph unicode="&#xa1;" horiz-adv-x="557" d="M264 555q-35 -14 -45 18q-33 80 -98 150q-33 33 16 72q123 115 166 114q27 0 68 -50t61 -91q20 -47 -12 -90q-20 -33 -73.5 -73t-82.5 -50zM432 -127v-2q0 -109 -20 -150q-18 -33 -88 -61q-86 -39 -220 -61q-33 -4 -41 1t7 31q43 72 81.5 377t38.5 438q-2 10 8.5 13.5 t22.5 -0.5q20 -4 68.5 -34t64.5 -48q10 -8 27.5 -72.5t34 -185.5t16.5 -246z" />
<glyph unicode="&#xa2;" d="M928 889v-2q-2 -37 -43 -78t-68 -51q-27 -8 -26 10q-2 102 -111 152q-23 10 -23 -13q-31 -442 -45 -565q-2 -12 7.5 -18.5t17.5 -6.5q162 8 289 121q12 14 17 12.5t3 -20.5q0 -45 -26 -76q-113 -123 -295 -164q-29 -6 -31 -30q-6 -98 -16 -129q-14 -47 -72 -111 q-8 -8 -14.5 -9t-8.5 4t0 13q23 162 27 219q2 10 -7 17.5t-16 7.5q-172 4 -274 90t-102 270q0 109 48 201t120 146q113 84 282 141q16 6 21 27q2 68 6 131q0 10 65 75q25 18 25 -4q-2 -33 -10 -190q0 -20 20 -23q152 -6 201 -59q39 -37 39 -88zM360 653v-2q0 -117 38 -200.5 t104 -114.5q23 -10 28 20q31 365 41 562q2 23 -16 22q-76 -12 -125 -66q-29 -29 -49.5 -90t-20.5 -131z" />
<glyph unicode="&#xa3;" d="M727 1239h2q57 0 104.5 -26.5t49.5 -82.5q0 -57 -72 -133q-29 -35 -39 7q-16 63 -71.5 93.5t-118.5 30.5q-29 0 -52.5 -21.5t-33.5 -57.5q-20 -86 -17 -383q0 -4 2 -10.5t10.5 -12.5t20.5 -6q213 0 295 18q16 4 20 0t-4 -18q-6 -10 -33.5 -34.5t-46.5 -33.5 q-70 -31 -235 -30q-31 0 -37 -27q-20 -119 -65.5 -188.5t-124.5 -124.5q-25 -16 -13 -21q6 -2 17 0q100 23 225 2q31 -4 82 -14l87 -16.5t50 -6.5q86 0 132 51.5t81 161.5q10 25 19 25q10 0 18 -9.5t14 -32t-2 -58.5q-25 -133 -132 -248t-208 -115q-18 0 -32.5 1t-33 4 t-28.5 4t-34 8l-30 10l-40 12t-43 14q-170 55 -222 56q-72 0 -163 -70q-29 -23 -29 10q0 39 33 72q111 115 137 162q20 37 30.5 88t11.5 91t1 122q0 37 -35 37q-100 0 -162 14q-8 2 -13 5t-5 6t4 7q23 25 62.5 53.5t48.5 24.5q4 0 16 -3t26.5 -5t26.5 -2q31 0 31 27 q2 70 4 105.5t21.5 102t56.5 117.5q72 98 180 158q154 90 256 90z" />
<glyph unicode="&#xa4;" d="M553 942h2q106 0 170 -45q6 -4 15.5 -3t13.5 5q35 39 102 94q10 8 46 18.5t71 8.5q23 0 4 -19q-45 -41 -172 -194q31 -51 40 -87t9 -95q0 -96 -72 -195q-6 -6 -6 -19.5t6 -21.5q88 -117 156 -180q12 -12 0 -21q-35 -18 -101.5 -3.5t-99.5 46.5q-12 14 -38.5 39l-39.5 37 q-106 -78 -206 -78q-121 0 -181 60q-27 -23 -89 -86.5t-74 -73.5q-16 -14 -23 12q-10 63 16 95l43 52q31 38 52 60q14 14 0 35q-37 57 -37 162q0 115 76 209l-89 100q-45 53 -41 84q10 45 54 96q16 20 26 2q8 -12 138 -162q16 -16 30 -6q107 74 199 74zM506 854h-2 q-76 0 -124 -67.5t-48 -180.5q0 -129 51 -203.5t125 -74.5q168 0 170 243q2 121 -46 202t-126 81z" />
<glyph unicode="&#xa5;" d="M373 432v119h-27q-147 0 -205 14q-25 6 -12 19q63 72 82 69q55 -18 154 -18q-29 115 -114 262t-134 195q-31 35 -72 36q-23 4 -53.5 10.5t-34.5 6.5q-14 6 -6 14q16 16 45 39t35 23q109 -14 198 -15q158 0 281 17q6 2 7 -1t-1 -8q-4 -4 -13 -22t-18 -25q-16 -12 -73 -28 q-18 -6 -6 -35t48 -107l66 -147q31 -70 45 -113q4 -6 11.5 -7t11.5 7q31 66 88 203t67 158q8 25 -12 28q-76 10 -98 19q-16 4 -2 14q66 57 86 55q16 -4 51 -6q10 0 41 -1t49 -1q121 0 186 17q6 2 7.5 -2t-4.5 -11q-25 -41 -46 -51q-41 -16 -81 -26q-31 -8 -64 -50 q-98 -123 -221 -421q-12 -27 16 -27q115 0 240 16q10 2 11 1t-3 -11q-6 -12 -23.5 -30.5t-33.5 -26.5q-76 -33 -172 -33h-33q-20 0 -21 -21v-73q0 -25 27 -25q47 0 236 17q14 0 8 -9q-6 -14 -27.5 -35.5t-44.5 -29.5q-68 -27 -174 -27q-25 0 -25 -24q0 -172 7 -209 q6 -23 26 -25q109 -10 162 -24q18 -8 2 -21q-66 -57 -72 -57q-20 4 -108 8q-98 4 -168 4q-109 0 -301 -23q-8 -2 -11 1.5t-1 9.5q39 51 57 59q29 16 119 35q16 6 26 31q14 72 15 233h-50q-160 0 -231 14q-12 4 -13 5.5t3 11.5q72 78 84 76q86 -19 211 -21z" />
<glyph unicode="&#xa6;" horiz-adv-x="641" d="M233 1505h175v-780h-175v780zM233 -389v780h175v-780h-175z" />
<glyph unicode="&#xa7;" horiz-adv-x="909" d="M590 1178h2q20 0 36.5 -1t29 -5.5t20.5 -6.5t16 -7t11.5 -8l10.5 -9t9 -8q14 -14 14 -39q0 -70 -65 -119q-12 -8 -19 2q-18 39 -64 69.5t-99 30.5q-127 0 -127 -116q0 -27 8 -46.5t34.5 -44t46 -39t75.5 -52.5l92 -62q123 -88 164.5 -163t41.5 -163q0 -139 -106 -315 q-10 -16 -10 -45q-2 -84 -73 -163t-167 -126q-68 -35 -174 -35q-41 0 -82 18.5t-59 45.5q-25 37 2 75q49 74 67.5 84.5t20.5 -0.5q10 -41 66.5 -80.5t109.5 -39.5q127 0 127 120q0 98 -203 230q-139 88 -203.5 167t-64.5 195q0 158 121 332q6 10 12 37q31 96 137 186 q119 101 242 101zM420 582q-150 100 -182 178q-8 14 -15 2q-23 -41 -22 -84q0 -88 70.5 -171t269.5 -216q84 -55 129 -129q4 -8 11 -7t11 7q23 45 23 82q0 74 -70.5 154t-224.5 184z" />
<glyph unicode="&#xa8;" horiz-adv-x="874" d="M123 1167q10 12 61.5 47t69.5 41q29 10 35 -14q6 -20 16 -41.5t18.5 -32l21.5 -26t15 -17.5q25 -25 2 -51q-35 -47 -118 -94q-29 -14 -45 -4q-20 12 -57.5 58t-37.5 77q1 32 19 57zM518 1169q88 70 117 82q35 14 47 -4q59 -96 70 -106q29 -29 4 -62q-18 -27 -67.5 -67.5 t-78.5 -38.5q-20 0 -55 43t-55 90q-15 34 18 63z" />
<glyph unicode="&#xa9;" horiz-adv-x="1390" d="M809 1227h2q229 0 362.5 -151.5t133.5 -393.5q0 -197 -111 -362.5t-272.5 -254t-325.5 -88.5q-229 0 -371.5 141.5t-142.5 391.5q0 162 66.5 300t172 227t232.5 139.5t254 50.5zM717 1141h-2q-229 0 -375.5 -168t-146.5 -398q0 -225 145 -369.5t328 -144.5 q242 0 389 173.5t147 402.5q0 223 -130 363.5t-355 140.5zM821 942h2q104 0 156 -39q14 -10 19.5 -27.5t-1.5 -25.5q-10 -14 -43 -129q-8 -20 -26 -19q-4 0 -4 5q-4 76 -29 100q-47 51 -102 63q-27 6 -60 7q-59 0 -106 -37q-80 -70 -80 -224q0 -113 64.5 -175t154.5 -62 q143 0 229 82q8 8 9 -4q0 -25 -19 -54q-18 -20 -78.5 -55t-103.5 -49q-59 -25 -144 -25q-147 0 -228 78t-81 205q0 174 180 295q139 90 291 90z" />
<glyph unicode="&#xaa;" horiz-adv-x="655" d="M365 1067h2q68 0 109.5 -37t54 -77t12.5 -81q0 -80 -11 -192q-2 -20 17 -27q8 -4 21.5 -5t33 -2t31.5 -3q12 0 -17 -35q-8 -10 -12 -12q-92 -51 -215 -51q-23 0 -22 18q0 23 4 51q2 6 -3 9.5t-12 1.5q-86 -55 -88 -58q-29 -20 -88 -20q-47 0 -90 31.5t-43 93.5 q0 31 20.5 59.5t45.5 38.5q117 57 223 82q31 6 31 27q0 102 -105 102q-41 0 -65 -25q-27 -35 -43 -100q-6 -33 -29 -14q-55 45 -55 76q0 23 28 40q70 45 154 82q58 27 111 27zM248 702v-2q12 -41 69 -38q29 2 45 18q8 37 11 47q0 35 -4 49q-16 16 -41 12q-57 -4 -84 -32 q-23 -25 4 -54z" />
<glyph unicode="&#xab;" horiz-adv-x="1040" d="M344 371q80 -72 135 -187q25 -57 25 -90q0 -16 -19.5 -43.5t-42.5 -44.5q-14 -10 -18 0q-35 106 -131 208.5t-178 129.5q-18 4 -15 18q14 35 47 50q100 53 211 175t138 199q8 20 22 7q8 -10 17.5 -33t7.5 -33q-27 -143 -201 -319q-16 -21 2 -37zM723 367q82 -74 149 -217 q18 -55 19 -74q0 -16 -17.5 -44t-42.5 -40q-16 -12 -20 0q-37 111 -138.5 215t-183.5 141q-12 6 -10 19q10 25 47 49q80 49 147.5 110.5t108.5 118.5t62.5 94t36.5 70q12 33 20 10q33 -53 27 -67q-47 -188 -213 -340q-19 -18 8 -45z" />
<glyph unicode="&#xac;" horiz-adv-x="1136" d="M723 479h-483q-111 0 -111 21q0 8 27.5 48t44.5 58q20 20 30 17q53 -14 279 -15q332 0 416 15q4 2 7 -2.5t3 -16.5q-12 -301 -12 -348q0 -109 14 -166q2 -4 -3 -7t-11 -3q-41 0 -83 22.5t-48 49.5q-10 80 -11 243q0 33 -3 48.5t-16 25.5t-40 10z" />
<glyph unicode="&#xad;" horiz-adv-x="727" d="M94 360q74 119 86 119q53 0 84 2q223 10 379 54q6 2 9 -0.5t2 -7.5t-5 -11q-20 -41 -57 -80t-66 -49q-57 -20 -198.5 -41.5t-186.5 -19.5q-43 2 -51 6.5t4 27.5z" />
<glyph unicode="&#xae;" horiz-adv-x="673" d="M377 1130h2q109 0 108 -73q0 -43 -53 -70q-12 -10 -8 -18q27 -68 76 -68q74 0 73 129q0 72 -52 129.5t-142 57.5q-104 0 -168 -56q-94 -78 -94 -198q0 -104 62.5 -158.5t152.5 -54.5q31 0 57.5 4t48 12t33.5 14t30.5 17.5t22.5 13.5q6 6 6 0q0 -14 -10 -35 q-20 -29 -80.5 -55.5t-142.5 -26.5q-127 0 -190.5 65.5t-63.5 170.5q0 160 145 264q100 72 222 72q98 0 159.5 -57.5t61.5 -151.5q0 -98 -55.5 -152.5t-112.5 -54.5q-61 0 -115 74q-29 41 -28 16q-4 -33 -7 -51q0 -10 11 -10q20 0 45 -7q10 -4 6 -10q-2 0 -9.5 -7t-15.5 -12 t-12 -5l-25 2h-45q-57 0 -86 -6q-8 0 -4 6q8 14 19 20q4 4 24 14q8 2 15 21q16 94 10 170q0 8 -4 8q-20 0 -64 -14q-2 0 -2 2q14 29 39 39q62 30 160 30zM350 1087h-2q-10 0 -12 -8l-8 -86q0 -12 18 -12q61 0 62 49q-1 57 -58 57z" />
<glyph unicode="&#xaf;" horiz-adv-x="874" d="M164 1055q43 74 80 100q33 -10 135 -10q209 0 344 22q25 0 4 -26q-25 -31 -67 -66t-66 -43q-86 -25 -350 -24q-57 0 -75.5 11t-4.5 36z" />
<glyph unicode="&#xb0;" horiz-adv-x="604" d="M356 1333h2q100 0 151.5 -56t51.5 -151q0 -125 -76 -186q-125 -106 -231 -106q-68 0 -135.5 52t-67.5 158q0 115 90 183q43 39 105.5 72.5t109.5 33.5zM295 1235h-2q-55 0 -88 -41t-33 -102q0 -80 45 -124t105 -44q45 0 78.5 37.5t33.5 111.5q0 72 -34.5 117t-104.5 45z " />
<glyph unicode="&#xb1;" horiz-adv-x="1136" d="M625 1098h2q14 0 14 -74v-293q0 -23 14 -22q74 -2 136.5 -1t139.5 2t87 1q29 0 10 -19q-14 -20 -52 -57t-52 -39q-162 -14 -238 -14q-23 0 -35 -11.5t-12 -21.5q0 -90 -8 -246q-2 -25 -47 -69t-66 -56q-4 -2 -7 1t-3 9v334q0 29 -14.5 44.5t-32.5 15.5h-45q-246 0 -281 8 q-25 8 -10 22q18 23 57 101q8 18 25 12q43 -18 289 -18q12 0 12 18q0 254 -6 315q12 10 60.5 34t62.5 24zM397 129h623q18 0 10 -10q-14 -20 -57 -60.5t-51 -42.5q-143 -16 -514 -16q-260 0 -281 6q-27 10 -8 37l65 80q16 23 29 20q41 -8 184 -14z" />
<glyph unicode="&#xb2;" horiz-adv-x="667" d="M356 1440h2q102 0 149.5 -58.5t47.5 -132.5q0 -109 -137 -237l-30 -25l-44 -36l-47 -38q-6 -6 2 -10q37 -20 190 -20q72 0 140 82q8 10 14 8t6 -15q0 -29 -18 -57q-88 -145 -234 -145q-61 0 -143 6t-119 6q-39 0 -69 -10q-10 -2 -12.5 3t1.5 9q59 86 68 88 q123 49 184.5 138t61.5 182q0 68 -31 119t-96 51q-39 0 -61.5 -40t-22.5 -87q0 -49 2 -60q4 -14 2 -17t-10 -3q-31 0 -57.5 27.5t-26.5 54.5q0 53 63 116q41 41 105.5 71t119.5 30z" />
<glyph unicode="&#xb3;" horiz-adv-x="667" d="M365 1444h2q78 0 129 -44t51 -97q0 -59 -70 -107q-12 -8 -37.5 -22.5t-36.5 -22.5q-16 -8 7 -12l54 -12q15 -3 49 -14t48 -24.5t27.5 -39t13.5 -58.5q0 -111 -164 -207q-147 -84 -248 -84q-109 0 -118 54q-8 27 0 34q25 35 39 84q2 8 10 9.5t10 -7.5q8 -31 27 -43 q55 -47 133 -47q57 0 86 35t29 82q0 72 -34 106.5t-114 34.5q-29 0 -82 -14q-8 -2 -11 3t1 11q25 49 49 60q78 33 108.5 63.5t30.5 81.5q0 31 -25.5 57.5t-66.5 26.5q-74 0 -162 -92q-14 -10 -14 6q0 35 14 55q41 55 110 99.5t155 44.5z" />
<glyph unicode="&#xb4;" horiz-adv-x="874" d="M684 1325h2q16 0 15 -18.5t-17 -53.5q-29 -57 -99.5 -154.5t-103.5 -121.5q-14 -12 -58 -27.5t-69 -15.5q-18 0 -8 14q35 47 91.5 158t74.5 178q8 12 74.5 26.5t97.5 14.5z" />
<glyph unicode="&#xb5;" horiz-adv-x="1126" d="M547 139h2q63 0 110 74q18 31 19 78q-2 106 12 450q2 41 21 43q20 8 122.5 35t131.5 37q12 2 15 -4t-1 -16q-47 -104 -47 -451q0 -154 17.5 -204t64.5 -50q43 0 100 49q16 14 19 -14q2 -14 -5 -33q-29 -78 -110.5 -124t-165.5 -46q-145 0 -160 166q0 8 -6 11t-12 -5 q-68 -92 -174 -143q-49 -25 -113 -25q-57 0 -106 49q-10 12 -17 0q-23 -45 -22 -172q0 -145 55 -208.5t162 -57.5q16 2 19 -5t-9 -24q-23 -33 -85 -57t-91 -24q-84 -2 -119 73.5t-35 292.5q0 678 13 817q6 90 19 116t58 36q156 41 185 55q14 10 20 5t0 -29 q-45 -133 -45 -467q0 -133 57 -191q38 -37 101 -37z" />
<glyph unicode="&#xb6;" horiz-adv-x="1263" d="M569 -309h2q82 0 138.5 30.5t87 72.5t49 125t23.5 145.5t12 177.5q0 18 -3.5 23t-17.5 -3q-70 -45 -153.5 -77.5t-108.5 -32.5q-199 0 -323.5 114.5t-124.5 345.5q0 106 40.5 191.5t102 134.5t126 74.5t120.5 25.5q16 0 144 9.5t151 7.5q12 -2 32 22q68 82 90 80 q20 0 21 -76q0 -27 20 -26q39 -2 110 8t95 24q12 6 19.5 -2t3.5 -18q-45 -94 -211 -113q-31 -2 -31 -41q12 -319 12 -376q0 -109 -2 -185t-13 -187.5t-29.5 -190t-55.5 -164.5t-88 -140.5t-130 -89.5t-177 -35q-76 0 -139.5 29t-80 76t-6.5 100q18 98 43 148q29 39 29 -2 q4 -61 25 -99q57 -106 198 -106zM801 946q-70 2 -109 -24q-102 -66 -102 -258q0 -158 56 -246t140 -88q45 0 78 18q16 8 21 60q2 72 -11.5 259t-23.5 236q-10 41 -49 43z" />
<glyph unicode="&#xb7;" horiz-adv-x="468" d="M338 582q-2 -53 14.5 -110.5t42.5 -84.5q14 -16 -2 -37q-29 -33 -82 -64.5t-78 -31.5q-66 0 -105.5 70.5t-39.5 134.5q0 25 16 39q23 14 93.5 49t107.5 45q8 2 16.5 2t12.5 -3t4 -9z" />
<glyph unicode="&#xb8;" horiz-adv-x="874" d="M463 14h69q-78 -100 -77 -120q0 -29 57 -64q96 -55 96 -106q0 -55 -61 -117q-41 -41 -109.5 -73t-122.5 -34q-23 0 -27.5 2t-4.5 12.5t22.5 35t40.5 30.5q4 2 16.5 5t18.5 5t17.5 5.5t17.5 6.5t15 7t13.5 8t9.5 10t7 12.5t2 14.5q0 25 -98 82q-61 37 -62 82q0 29 33 63 q23 29 127 133z" />
<glyph unicode="&#xb9;" horiz-adv-x="667" d="M256 1094v2q0 145 -8 178q-2 16 -19 16q-33 -2 -118 -2q-8 0 -11.5 2t-1.5 8q2 8 21.5 28t32.5 22q217 45 284 100q4 4 9.5 -2t3.5 -14q-12 -68 -13 -330q0 -205 13 -238q6 -16 28 -16q106 -8 133 -19q14 -4 8 -10q-61 -66 -73 -61q-86 10 -191 10q-178 0 -266 -18 q-12 -2 -15 0t1 10q2 4 24.5 27.5t30.5 25.5q59 20 98 29q10 2 15 14q14 50 14 238z" />
<glyph unicode="&#xba;" horiz-adv-x="696" d="M418 1071h2q111 0 166 -59.5t55 -157.5q0 -94 -44 -147.5t-120 -92.5q-125 -68 -180 -67q-246 0 -246 219q0 92 44 145.5t130 96.5q123 63 193 63zM328 991h-2q-39 0 -70 -33q-39 -45 -39 -120q0 -113 44 -161t108 -48q35 0 63 30q35 35 35 142q0 86 -34.5 138t-104.5 52 z" />
<glyph unicode="&#xbb;" horiz-adv-x="1040" d="M307 444q-86 78 -147 218q-20 49 -21 71q0 16 17.5 44t42.5 42q16 10 20 0q37 -113 138.5 -217t183.5 -137q16 -6 12 -21q-12 -27 -47 -49q-104 -63 -187 -151t-115 -142.5t-50 -99.5q-10 -23 -23 -10q-39 39 -29 65q45 180 213 342q21 20 -8 45zM688 440 q-78 68 -137 187q-25 57 -23 90q0 18 19.5 44.5t42.5 41.5q12 12 16 0q35 -106 132.5 -208.5t179.5 -127.5q18 -6 12 -18q-8 -33 -45 -50q-100 -51 -210 -173t-136 -201q-8 -20 -23 -7q-8 8 -19.5 32t-9.5 32q33 152 203 321q16 19 -2 37z" />
<glyph unicode="&#xbc;" horiz-adv-x="1447" d="M274 889v2q0 147 -8 180q-2 14 -22 14q-33 -2 -115 -2q-8 0 -11 2t-1 9q2 8 23.5 27.5t33.5 21.5q215 45 283 100q4 4 10 -2t4 -14q-16 -72 -16 -330q0 -211 10 -238q6 -16 31 -16q106 -8 133 -18q14 -4 8 -11q-14 -18 -42 -40.5t-32 -20.5q-86 10 -190 10 q-188 0 -267 -16q-12 -2 -15 0t1 10q2 4 23.5 27.5t29.5 25.5q47 16 99 29q10 2 14 16q16 44 16 234zM1147 1266q4 8 104 37q10 4 13.5 -0.5t-0.5 -12.5q-145 -266 -430 -691t-449 -622q-12 -16 -55 -35.5t-64 -23.5q-23 0 -10 12q170 203 448.5 625t442.5 711zM1139 641 q-39 -90 -260 -389q-4 -2 -2 -9t12 -10q43 -16 137 -16q18 0 18 14q2 104 -14 160q-6 18 4 19q37 8 94.5 34.5t79.5 47.5q27 23 27 -11q0 -37 -2 -93t-3 -96t-1 -59q0 -16 14 -16q76 0 135 33q10 6 13 0q0 -4 -5 -14q-6 -18 -24 -43q-49 -45 -123 -50q-16 0 -16 -22 q0 -18 -4 -68q-6 -43 -15 -53q-12 -16 -69.5 -44t-92.5 -36q-8 -2 -12 -1t-6 3t0 6q20 47 20 178q0 31 -20 31q-55 0 -104.5 3t-88 7.5t-53.5 4.5q-29 4 -51 -9q-14 -8 -14 9.5t12 31.5q94 88 182 220.5t119 224.5q6 25 121 86q18 10 16.5 -8.5t-24.5 -65.5z" />
<glyph unicode="&#xbd;" horiz-adv-x="1447" d="M242 889v2q0 131 -6 180q-4 14 -23 14q-33 -2 -117 -2q-8 0 -11 2t-1 9q2 8 21.5 27.5t31.5 21.5q221 45 287 100q4 4 10 -2t4 -14q-16 -72 -16 -330q0 -205 12 -238q6 -16 29 -16q100 -8 125 -18q12 -6 8 -11q-66 -61 -68 -61q-86 10 -188 10q-182 0 -254 -14 q-12 -2 -17.5 0t-2.5 10q4 6 26.5 28.5t28.5 24.5q25 12 88 27q10 2 14 16q19 50 19 234zM1087 1266q4 8 105 37q10 4 13 -0.5t-1 -12.5q-143 -264 -426.5 -688t-447.5 -625q-14 -16 -58.5 -35.5t-62.5 -21.5q-10 -2 -13 1t3 11q172 205 450 625t438 709zM1102 674h2 q102 0 150.5 -59.5t48.5 -133.5q0 -111 -140 -235q-20 -20 -121 -99q-8 -8 2 -12q51 -20 191 -20q70 0 141 82q8 10 14.5 8t6.5 -15q0 -31 -19 -57q-111 -145 -248 -145q-8 0 -118 6q-53 6 -115 6q-41 0 -82 -10q-14 -4 -12 6q0 2 2 6q57 84 67 88q119 51 180.5 140 t61.5 180q0 68 -30.5 120t-94.5 52q-37 0 -60.5 -40t-23.5 -89.5t4 -59.5q2 -20 -10 -20q-31 0 -56.5 27.5t-25.5 56.5q0 53 62 114q41 43 104.5 73t118.5 30z" />
<glyph unicode="&#xbe;" horiz-adv-x="1476" d="M422 1239h2q78 0 129 -44t51 -97q0 -59 -69 -107q-14 -10 -40 -24l-36 -21q-12 -6 2 -10q2 -2 4 -2l54 -11q15 -3 49 -14.5t48.5 -25t27.5 -39t13 -58.5q0 -113 -161 -204q-145 -86 -254 -86q-102 0 -113 53q-8 27 0 35q25 35 39 84q2 8 10 9t10 -7q8 -31 27 -43 q55 -47 133 -47q57 0 85 34.5t28 81.5q0 72 -33 107t-113 35q-35 0 -82 -15q-4 -2 -7 1t-2 8.5t3 9.5q23 45 45 55q76 31 108 63.5t32 81.5q0 31 -26 57.5t-67 26.5q-74 0 -161 -92q-14 -10 -15 6q0 35 15 56q41 55 109.5 99t154.5 44zM1130 1266q4 8 42 20t63 17 q10 2 14 -1.5t0 -11.5q-147 -270 -430.5 -695t-445.5 -618q-14 -16 -57.5 -35.5t-63.5 -23.5q-23 0 -10 12q168 201 443 619t445 717zM1124 641q-39 -90 -260 -389q-4 -2 -2 -9t12 -10q47 -16 138 -16q18 0 18 19q2 102 -14 155q-6 18 4 19q35 8 94.5 34.5t83.5 44.5 q23 27 23 -8q0 -37 -2 -93l-3.5 -96t-1.5 -59q0 -16 17 -16q74 0 133 33q10 6 12 -4q0 -4 -4 -13q-8 -20 -26 -40q-49 -45 -123 -50q-14 0 -15 -22q0 -18 -4 -68q-6 -43 -14 -53q-12 -16 -69.5 -44t-92.5 -36q-8 -2 -12 -1t-6 3t0 6q20 47 20 178q0 31 -20 31 q-55 0 -104.5 3t-88.5 7.5t-53 4.5q-29 4 -49 -9q-14 -10 -13.5 8.5t15.5 32.5q92 88 178 219.5t117 225.5q8 25 121 86q18 10 16 -8.5t-25 -65.5z" />
<glyph unicode="&#xbf;" horiz-adv-x="866" d="M434 541q-35 -14 -45 18q-37 92 -100 158q-25 27 10 53q6 4 27 22l38 31l39 32q23 17 40.5 26.5t27.5 9.5q31 0 71 -46t58 -85q23 -47 -8 -92q-20 -33 -73.5 -72t-84.5 -55zM334 -414h-2q-127 -2 -193.5 61.5t-68.5 157.5q0 94 49 165t168 175q109 96 108 191 q0 61 -16 84q-10 18 14 18q59 4 109.5 -29.5t50.5 -97.5q0 -33 -24.5 -73.5t-102.5 -141.5q-72 -102 -72 -205q0 -86 43 -133t103 -47q66 0 104.5 49.5t38.5 116.5q0 80 -12 109q-2 4 -1 8t7 7t16 3q51 0 89 -30.5t38 -82.5q0 -47 -50 -97t-112 -85q-178 -121 -284 -123z " />
<glyph unicode="&#xc0;" horiz-adv-x="1458" d="M606 387h-2q-39 0 -96 6q-39 8 -51 -26q-68 -137 -99 -213q-23 -45 17 -52q123 -14 172 -32q27 -8 8 -23q-82 -63 -102 -59q-61 6 -86 8q-78 4 -131 4q-117 0 -236 -14q-16 -2 -14 8q0 8 14 20q31 31 57 49q6 4 36 13.5t38 11.5q29 8 66 53q68 88 145 254q8 20 2 43 q-8 20 0 29q2 2 24.5 28.5t32.5 36.5q16 12 27 39q127 268 170 379q6 18 23.5 63.5t23.5 65.5q16 74 29 86q135 96 194 125q14 8 21.5 3t-2.5 -27q-8 -20 -7 -57.5t7 -61.5q14 -61 57 -191q70 -201 165 -425t148 -316q70 -119 136 -127q27 -6 98 -20q18 -2 18 -6.5 t-14 -16.5q-37 -39 -68.5 -49t-101.5 -8q-31 2 -133 6q-106 4 -154 4q-84 0 -137 -12q-16 -4 -18 5t8 21q18 33 65 72q23 16 13 51q-6 20 -45 115.5t-56 142.5q-14 39 -45 25q-80 -31 -217 -31zM717 506h2q41 0 74 4q35 2 24 31l-45 124l-48 130q-19 53 -30 92q-4 12 -14 13 t-16 -15q-37 -104 -129 -332q-8 -18 24 -31q33 -16 158 -16zM541 1665q14 4 22 -6q37 -45 135.5 -118t243.5 -136q16 -4 -2 -19q-47 -33 -84 -32q-49 0 -210 59.5t-245 120.5q-23 16 -26.5 25.5t8.5 21.5q23 18 79 48t79 36z" />
<glyph unicode="&#xc1;" horiz-adv-x="1458" d="M606 387h-2q-39 0 -96 6q-39 8 -51 -26q-68 -137 -99 -213q-23 -45 17 -52q123 -14 172 -32q27 -8 8 -23q-82 -63 -102 -59q-61 6 -86 8q-78 4 -131 4q-117 0 -236 -14q-16 -2 -14 8q0 8 14 20q31 31 57 49q6 4 36 13.5t38 11.5q29 8 66 53q68 88 145 254q8 20 2 43 q-8 20 0 29q2 2 24.5 28.5t32.5 36.5q16 12 27 39q127 268 170 379q6 18 23.5 63.5t23.5 65.5q16 74 29 86q135 96 194 125q14 8 21.5 3t-2.5 -27q-8 -20 -7 -57.5t7 -61.5q14 -61 57 -191q70 -201 165 -425t148 -316q70 -119 136 -127q27 -6 98 -20q18 -2 18 -6.5 t-14 -16.5q-37 -39 -68.5 -49t-101.5 -8q-31 2 -133 6q-106 4 -154 4q-84 0 -137 -12q-16 -4 -18 5t8 21q18 33 65 72q23 16 13 51q-6 20 -45 115.5t-56 142.5q-14 39 -45 25q-80 -31 -217 -31zM717 506h2q41 0 74 4q35 2 24 31l-45 124l-48 130q-19 53 -30 92q-4 12 -14 13 t-16 -15q-37 -104 -129 -332q-8 -18 24 -31q33 -16 158 -16zM1202 1642h2q16 0 19.5 -4t1.5 -12q-4 -35 -60 -78q-47 -39 -159.5 -101.5t-221.5 -96.5q-33 -12 -118 8q-31 8 -9 20q53 29 152.5 98.5t148.5 120.5q10 12 19 15q29 6 120 18t105 12z" />
<glyph unicode="&#xc2;" horiz-adv-x="1458" d="M606 387h-2q-39 0 -96 6q-39 8 -51 -26q-68 -137 -99 -213q-23 -45 17 -52q123 -14 172 -32q27 -8 8 -23q-82 -63 -102 -59q-61 6 -86 8q-78 4 -131 4q-117 0 -236 -14q-16 -2 -14 8q0 8 14 20q31 31 57 49q6 4 36 13.5t38 11.5q29 8 66 53q68 88 145 254q8 20 2 43 q-8 20 0 29q2 2 24.5 28.5t32.5 36.5q16 12 27 39q127 268 170 379q6 18 23.5 63.5t23.5 65.5q16 74 29 86q135 96 194 125q14 8 21.5 3t-2.5 -27q-8 -20 -7 -57.5t7 -61.5q14 -61 57 -191q70 -201 165 -425t148 -316q70 -119 136 -127q27 -6 98 -20q18 -2 18 -6.5 t-14 -16.5q-37 -39 -68.5 -49t-101.5 -8q-31 2 -133 6q-106 4 -154 4q-84 0 -137 -12q-16 -4 -18 5t8 21q18 33 65 72q23 16 13 51q-6 20 -45 115.5t-56 142.5q-14 39 -45 25q-80 -31 -217 -31zM717 506h2q41 0 74 4q35 2 24 31l-45 124l-48 130q-19 53 -30 92q-4 12 -14 13 t-16 -15q-37 -104 -129 -332q-8 -18 24 -31q33 -16 158 -16zM774 1432q-12 -8 -32.5 -23.5t-34 -24t-40 -22.5t-59.5 -29q-43 -18 -80 -18q-14 0 -35.5 10t-29.5 21q-8 8 4 14q160 78 274 209q4 6 48.5 33.5t52.5 27.5q6 0 8 -6q61 -119 285 -248q10 -6 -5 -20 q-57 -47 -90 -47q-14 0 -49 16q-41 16 -184 105q-19 12 -33 2z" />
<glyph unicode="&#xc3;" horiz-adv-x="1458" d="M606 387h-2q-39 0 -96 6q-39 8 -51 -26q-68 -137 -99 -213q-23 -45 17 -52q123 -14 172 -32q27 -8 8 -23q-82 -63 -102 -59q-61 6 -86 8q-78 4 -131 4q-117 0 -236 -14q-16 -2 -14 8q0 8 14 20q31 31 57 49q6 4 36 13.5t38 11.5q29 8 66 53q68 88 145 254q8 20 2 43 q-8 20 0 29q2 2 24.5 28.5t32.5 36.5q16 12 27 39q127 268 170 379q6 18 23.5 63.5t23.5 65.5q16 74 29 86q135 96 194 125q14 8 21.5 3t-2.5 -27q-8 -20 -7 -57.5t7 -61.5q14 -61 57 -191q70 -201 165 -425t148 -316q70 -119 136 -127q27 -6 98 -20q18 -2 18 -6.5 t-14 -16.5q-37 -39 -68.5 -49t-101.5 -8q-31 2 -133 6q-106 4 -154 4q-84 0 -137 -12q-16 -4 -18 5t8 21q18 33 65 72q23 16 13 51q-6 20 -45 115.5t-56 142.5q-14 39 -45 25q-80 -31 -217 -31zM717 506h2q41 0 74 4q35 2 24 31l-45 124l-48 130q-19 53 -30 92q-4 12 -14 13 t-16 -15q-37 -104 -129 -332q-8 -18 24 -31q33 -16 158 -16zM928 1479h2q45 0 102 57q14 18 76 35q10 2 14 0t2 -10q-25 -63 -102.5 -137t-140.5 -74q-47 0 -138 49q-72 41 -94 37q-68 -8 -145 -101q-4 -8 -12 4q-6 8 -1 39t15 45q27 41 88 91.5t102 50.5q55 0 144 -54 q55 -32 88 -32z" />
<glyph unicode="&#xc4;" horiz-adv-x="1458" d="M606 387h-2q-39 0 -96 6q-39 8 -51 -26q-68 -137 -99 -213q-23 -45 17 -52q123 -14 172 -32q27 -8 8 -23q-82 -63 -102 -59q-61 6 -86 8q-78 4 -131 4q-117 0 -236 -14q-16 -2 -14 8q0 8 14 20q31 31 57 49q6 4 36 13.5t38 11.5q29 8 66 53q68 88 145 254q8 20 2 43 q-8 20 0 29q2 2 24.5 28.5t32.5 36.5q16 12 27 39q127 268 170 379q6 18 23.5 63.5t23.5 65.5q16 74 29 86q135 96 194 125q14 8 21.5 3t-2.5 -27q-8 -20 -7 -57.5t7 -61.5q14 -61 57 -191q70 -201 165 -425t148 -316q70 -119 136 -127q27 -6 98 -20q18 -2 18 -6.5 t-14 -16.5q-37 -39 -68.5 -49t-101.5 -8q-31 2 -133 6q-106 4 -154 4q-84 0 -137 -12q-16 -4 -18 5t8 21q18 33 65 72q23 16 13 51q-6 20 -45 115.5t-56 142.5q-14 39 -45 25q-80 -31 -217 -31zM717 506h2q41 0 74 4q35 2 24 31l-45 124l-48 130q-19 53 -30 92q-4 12 -14 13 t-16 -15q-37 -104 -129 -332q-8 -18 24 -31q33 -16 158 -16zM467 1495q10 12 58 46t67 42q29 10 33 -14q10 -47 69 -119q25 -25 2 -49q-45 -57 -116 -94q-25 -12 -45 -2q-18 14 -52 57t-34 76q0 34 18 57zM924 1495q16 16 60 48t65 40q29 12 36 -12q14 -57 68 -115 q27 -27 4 -53q-41 -59 -117 -94q-27 -16 -47 -4q-23 16 -53.5 57t-34.5 74q-4 36 19 59z" />
<glyph unicode="&#xc5;" horiz-adv-x="1458" d="M606 387h-2q-39 0 -96 6q-39 8 -51 -26q-68 -137 -99 -213q-23 -45 17 -52q123 -14 172 -32q27 -8 8 -23q-82 -63 -102 -59q-61 6 -86 8q-78 4 -131 4q-117 0 -236 -14q-16 -2 -14 8q0 8 14 20q31 31 57 49q6 4 36 13.5t38 11.5q29 8 66 53q68 88 145 254q8 20 2 43 q-8 20 0 29q2 2 24.5 28.5t32.5 36.5q16 12 27 39q127 268 170 379q6 18 23.5 63.5t23.5 65.5q16 74 29 86q135 96 194 125q14 8 21.5 3t-2.5 -27q-8 -20 -7 -57.5t7 -61.5q14 -61 57 -191q70 -201 165 -425t148 -316q70 -119 136 -127q27 -6 98 -20q18 -2 18 -6.5 t-14 -16.5q-37 -39 -68.5 -49t-101.5 -8q-31 2 -133 6q-106 4 -154 4q-84 0 -137 -12q-16 -4 -18 5t8 21q18 33 65 72q23 16 13 51q-6 20 -45 115.5t-56 142.5q-14 39 -45 25q-80 -31 -217 -31zM717 506h2q41 0 74 4q35 2 24 31l-45 124l-48 130q-19 53 -30 92q-4 12 -14 13 t-16 -15q-37 -104 -129 -332q-8 -18 24 -31q33 -16 158 -16zM825 1698h2q72 0 111 -49.5t39 -122.5q0 -94 -76 -158q-78 -66 -156 -65q-51 0 -101 40.5t-50 126.5q0 82 59 134q100 94 172 94zM778 1608h-2q-86 0 -86 -99q0 -55 33 -85.5t72 -30.5q80 0 79 92q0 49 -25.5 86 t-70.5 37z" />
<glyph unicode="&#xc6;" horiz-adv-x="1988" d="M1427 1235h3q281 0 385 49q16 8 19 1t-3 -25q-45 -135 -33 -322q2 -12 -3 -18.5t-15 -1.5q-23 8 -44.5 32.5t-27.5 40.5q-16 41 -39 119q-14 37 -45 31q-100 -18 -264 -19q-37 0 -37 -30v-443q0 -23 25 -33q20 -6 233 -2q74 0 154 13q53 8 102 26q12 6 12 -2t-10 -22 q-27 -43 -98.5 -79t-120.5 -40q-76 -4 -285 -10q-18 0 -18 -39q0 -55 -3 -165t-3 -132q0 -49 59 -62q80 -16 244 -8q86 4 155 49q94 68 144 187q14 27 24 10q27 -33 17 -80q-14 -113 -96 -203q-41 -45 -72 -58t-84 -13q-63 0 -252 8q-283 6 -317 6q-223 0 -318 -12 q-14 -4 -18 0t4 18q37 49 78 64q6 2 116 30q25 8 35 43q23 84 23 320q0 41 -19 41q-98 -2 -227 2t-133 4q-45 0 -68 -35l-102 -148l-78 -112q-25 -37 -39 -63q-18 -45 14 -48q115 -12 170 -32q25 -6 4 -23q-61 -63 -94 -63q-10 0 -84 8q-111 6 -127 6q-139 0 -260 -18 q-18 0 -8 18q27 47 61 61q20 8 80 25q72 23 109 70q174 227 272 381q20 33 21 77q0 12 1 16.5t6 7.5t19 7q31 8 50 39q76 119 178 326q14 29 29.5 49t35.5 39l19 18q10 10 4 17.5t-23 7.5q-223 14 -282 28q-20 4 -4 21q12 10 67 42t66 30q198 -27 716 -27zM1053 1079 q-4 55 -17 56q-27 0 -59 -54q-59 -84 -229 -385q-18 -33 -11.5 -46t45.5 -21q78 -14 256 -11q18 0 19 25q6 223 -4 436z" />
<glyph unicode="&#xc7;" horiz-adv-x="1390" d="M932 1284h2q150 0 250 -41q41 -14 73.5 -40.5t34.5 -53.5q4 -45 -6 -64q-37 -88 -57 -155q-6 -20 -21.5 -39t-27.5 -23q-8 -4 -12.5 1t-4.5 16q4 133 -49 188q-92 106 -317 107q-154 0 -256 -99q-145 -139 -146 -422q0 -289 150 -448q131 -137 354 -137q125 0 217 69 q90 70 152 187q12 27 24 12q8 -6 14.5 -30.5t4.5 -39.5q-43 -141 -92 -204q-29 -39 -84 -56q-133 -47 -289 -57q-45 -59 -45 -72q0 -27 57 -61q96 -57 96 -107q0 -55 -61 -116q-41 -41 -109.5 -73t-121.5 -34q-23 0 -28 2t-5 12.5t22.5 35t40.5 30.5q6 2 31 9t34 11l24 12 q15 7 21.5 17t6.5 25q0 25 -98 84q-61 37 -62 80q0 25 29 59l84 82q-137 2 -252 32.5t-213 98.5t-154.5 188.5t-56.5 284.5q0 172 70.5 301t162.5 203q113 88 285 156.5t328 68.5z" />
<glyph unicode="&#xc8;" horiz-adv-x="1212" d="M276 549v2q0 494 -34 571q-8 18 -45 25q-8 2 -68.5 9t-83.5 11q-37 8 -16 23q121 70 129 67q82 -14 202 -16q139 -6 385 -6q209 0 304 49q14 6 17 -1t-3 -23q-45 -145 -33 -316q2 -23 -14 -18q-20 6 -43 25.5t-31 37.5q-20 47 -41 123q-6 14 -8 19.5t-9 10.5t-16 3 q-133 -25 -282 -25q-27 0 -35 -5t-8 -25q0 -41 1 -170t1 -191q0 -23 26 -29q47 -20 246 -20q53 0 74 22q4 6 17.5 29t19.5 31q8 10 86 41q14 6 19 3t-1 -20q-51 -115 -51 -360q0 -33 -29 -8q-41 37 -67 133q-14 29 -29 29q-133 -14 -295 -15q-18 0 -18 -45q0 -53 -5.5 -182 t-5.5 -182q0 -49 50 -60q41 -6 134 -6t146 8q90 14 142 52q78 53 131 180q12 25 26 8q23 -33 17 -82q-10 -61 -40 -114.5t-55 -78.5q-43 -47 -75.5 -62t-83.5 -15q-61 0 -246 8q-283 6 -316 6q-262 0 -321 -16q-14 -2 -17.5 2t5.5 16q37 49 71 59q51 20 121 35q16 4 31 41 q24 78 24 412zM377 1642q14 4 22 -6q37 -45 135.5 -117.5t243.5 -136.5q16 -4 -2 -18q-47 -33 -84 -33q-49 0 -209.5 59.5t-244.5 120.5q-23 16 -27 25.5t8 22.5q23 18 79 47.5t79 35.5z" />
<glyph unicode="&#xc9;" horiz-adv-x="1212" d="M276 549v2q0 494 -34 571q-8 18 -45 25q-8 2 -68.5 9t-83.5 11q-37 8 -16 23q121 70 129 67q82 -14 202 -16q139 -6 385 -6q209 0 304 49q14 6 17 -1t-3 -23q-45 -145 -33 -316q2 -23 -14 -18q-20 6 -43 25.5t-31 37.5q-20 47 -41 123q-6 14 -8 19.5t-9 10.5t-16 3 q-133 -25 -282 -25q-27 0 -35 -5t-8 -25q0 -41 1 -170t1 -191q0 -23 26 -29q47 -20 246 -20q53 0 74 22q4 6 17.5 29t19.5 31q8 10 86 41q14 6 19 3t-1 -20q-51 -115 -51 -360q0 -33 -29 -8q-41 37 -67 133q-14 29 -29 29q-133 -14 -295 -15q-18 0 -18 -45q0 -53 -5.5 -182 t-5.5 -182q0 -49 50 -60q41 -6 134 -6t146 8q90 14 142 52q78 53 131 180q12 25 26 8q23 -33 17 -82q-10 -61 -40 -114.5t-55 -78.5q-43 -47 -75.5 -62t-83.5 -15q-61 0 -246 8q-283 6 -316 6q-262 0 -321 -16q-14 -2 -17.5 2t5.5 16q37 49 71 59q51 20 121 35q16 4 31 41 q24 78 24 412zM1022 1626h2q16 0 19.5 -4t0.5 -12q-4 -35 -59 -78q-47 -39 -159.5 -101.5t-221.5 -97.5q-33 -12 -119 8q-31 8 -8 21q53 29 152.5 98.5t148.5 120.5q10 12 19 14q29 6 120 18.5t105 12.5z" />
<glyph unicode="&#xca;" horiz-adv-x="1212" d="M276 549v2q0 494 -34 571q-8 18 -45 25q-8 2 -68.5 9t-83.5 11q-37 8 -16 23q121 70 129 67q82 -14 202 -16q139 -6 385 -6q209 0 304 49q14 6 17 -1t-3 -23q-45 -145 -33 -316q2 -23 -14 -18q-20 6 -43 25.5t-31 37.5q-20 47 -41 123q-6 14 -8 19.5t-9 10.5t-16 3 q-133 -25 -282 -25q-27 0 -35 -5t-8 -25q0 -41 1 -170t1 -191q0 -23 26 -29q47 -20 246 -20q53 0 74 22q4 6 17.5 29t19.5 31q8 10 86 41q14 6 19 3t-1 -20q-51 -115 -51 -360q0 -33 -29 -8q-41 37 -67 133q-14 29 -29 29q-133 -14 -295 -15q-18 0 -18 -45q0 -53 -5.5 -182 t-5.5 -182q0 -49 50 -60q41 -6 134 -6t146 8q90 14 142 52q78 53 131 180q12 25 26 8q23 -33 17 -82q-10 -61 -40 -114.5t-55 -78.5q-43 -47 -75.5 -62t-83.5 -15q-61 0 -246 8q-283 6 -316 6q-262 0 -321 -16q-14 -2 -17.5 2t5.5 16q37 49 71 59q51 20 121 35q16 4 31 41 q24 78 24 412zM592 1464q-12 -8 -32.5 -23.5t-34 -23.5t-40 -22.5t-59.5 -28.5q-43 -18 -80 -18q-14 0 -35.5 10t-29.5 20q-8 8 4 15q160 78 274 209q4 6 48 33.5t52 27.5q4 0 9 -6q61 -119 284 -248q10 -6 -4 -20q-57 -47 -90 -48q-14 0 -49 17q-41 16 -184 104 q-19 12 -33 2z" />
<glyph unicode="&#xcb;" horiz-adv-x="1212" d="M276 549v2q0 494 -34 571q-8 18 -45 25q-8 2 -68.5 9t-83.5 11q-37 8 -16 23q121 70 129 67q82 -14 202 -16q139 -6 385 -6q209 0 304 49q14 6 17 -1t-3 -23q-45 -145 -33 -316q2 -23 -14 -18q-20 6 -43 25.5t-31 37.5q-20 47 -41 123q-6 14 -8 19.5t-9 10.5t-16 3 q-133 -25 -282 -25q-27 0 -35 -5t-8 -25q0 -41 1 -170t1 -191q0 -23 26 -29q47 -20 246 -20q53 0 74 22q4 6 17.5 29t19.5 31q8 10 86 41q14 6 19 3t-1 -20q-51 -115 -51 -360q0 -33 -29 -8q-41 37 -67 133q-14 29 -29 29q-133 -14 -295 -15q-18 0 -18 -45q0 -53 -5.5 -182 t-5.5 -182q0 -49 50 -60q41 -6 134 -6t146 8q90 14 142 52q78 53 131 180q12 25 26 8q23 -33 17 -82q-10 -61 -40 -114.5t-55 -78.5q-43 -47 -75.5 -62t-83.5 -15q-61 0 -246 8q-283 6 -316 6q-262 0 -321 -16q-14 -2 -17.5 2t5.5 16q37 49 71 59q51 20 121 35q16 4 31 41 q24 78 24 412zM266 1516q10 12 58.5 45.5t66.5 42.5q29 10 33 -15q10 -47 70 -119q25 -25 2 -49q-45 -57 -117 -94q-25 -12 -45 -2q-18 14 -52 57t-34 76q0 35 18 58zM723 1516q16 16 60 47.5t65 40.5q29 12 37 -13q14 -57 67 -114q27 -27 4 -54q-41 -59 -116 -94 q-27 -16 -47 -4q-23 16 -53.5 57t-34.5 74q-5 37 18 60z" />
<glyph unicode="&#xcc;" horiz-adv-x="819" d="M276 621v2q0 403 -18 477q-6 29 -43 33q-96 12 -143 26q-23 8 -6 19q82 76 104 71l90 -8q129 -6 168 -6q119 0 332 20q8 2 11 -3t-1 -9q-41 -59 -65 -69q-39 -16 -89 -25q-41 -10 -53 -43q-18 -70 -18 -440q0 -362 10 -504q4 -51 31 -56q117 -14 162 -28q6 -2 10 -5 t4 -6.5t-2 -5.5q-84 -78 -109 -73q-6 0 -22 2l-33 4q-16 2 -33 2q-78 4 -162 4q-219 0 -356 -25q-18 -2 -18 5q0 2 2 4q33 59 53 67q76 29 111 37q39 8 55 62q28 96 28 471zM180 1636q14 4 23 -6q37 -45 135 -117.5t244 -136.5q16 -4 -2 -18q-47 -33 -84 -33 q-49 0 -210 59.5t-245 120.5q-23 16 -27 25.5t9 21.5q23 18 78.5 48t78.5 36z" />
<glyph unicode="&#xcd;" horiz-adv-x="819" d="M276 621v2q0 403 -18 477q-6 29 -43 33q-96 12 -143 26q-23 8 -6 19q82 76 104 71l90 -8q129 -6 168 -6q119 0 332 20q8 2 11 -3t-1 -9q-41 -59 -65 -69q-39 -16 -89 -25q-41 -10 -53 -43q-18 -70 -18 -440q0 -362 10 -504q4 -51 31 -56q117 -14 162 -28q6 -2 10 -5 t4 -6.5t-2 -5.5q-84 -78 -109 -73q-6 0 -22 2l-33 4q-16 2 -33 2q-78 4 -162 4q-219 0 -356 -25q-18 -2 -18 5q0 2 2 4q33 59 53 67q76 29 111 37q39 8 55 62q28 96 28 471zM831 1624h3q16 0 19 -4t1 -12q-4 -35 -59 -78q-47 -39 -160 -101.5t-221 -97.5q-33 -12 -119 8 q-31 8 -8 21q53 29 152.5 98.5t148.5 120.5q10 12 18 14q29 6 120 18.5t105 12.5z" />
<glyph unicode="&#xce;" horiz-adv-x="819" d="M276 621v2q0 403 -18 477q-6 29 -43 33q-96 12 -143 26q-23 8 -6 19q82 76 104 71l90 -8q129 -6 168 -6q119 0 332 20q8 2 11 -3t-1 -9q-41 -59 -65 -69q-39 -16 -89 -25q-41 -10 -53 -43q-18 -70 -18 -440q0 -362 10 -504q4 -51 31 -56q117 -14 162 -28q6 -2 10 -5 t4 -6.5t-2 -5.5q-84 -78 -109 -73q-6 0 -22 2l-33 4q-16 2 -33 2q-78 4 -162 4q-219 0 -356 -25q-18 -2 -18 5q0 2 2 4q33 59 53 67q76 29 111 37q39 8 55 62q28 96 28 471zM395 1452q-12 -8 -32.5 -23.5t-34 -23.5t-40 -22.5t-59.5 -28.5q-43 -18 -79 -19q-14 0 -36 10.5 t-30 20.5q-8 8 4 14q160 78 274 209q4 6 48.5 34t52.5 28q4 0 8 -6q61 -119 285 -248q10 -6 -4 -21q-57 -47 -90 -47q-14 0 -50 17q-41 16 -184 104q-19 12 -33 2z" />
<glyph unicode="&#xcf;" horiz-adv-x="819" d="M276 621v2q0 403 -18 477q-6 29 -43 33q-96 12 -143 26q-23 8 -6 19q82 76 104 71l90 -8q129 -6 168 -6q119 0 332 20q8 2 11 -3t-1 -9q-41 -59 -65 -69q-39 -16 -89 -25q-41 -10 -53 -43q-18 -70 -18 -440q0 -362 10 -504q4 -51 31 -56q117 -14 162 -28q6 -2 10 -5 t4 -6.5t-2 -5.5q-84 -78 -109 -73q-6 0 -22 2l-33 4q-16 2 -33 2q-78 4 -162 4q-219 0 -356 -25q-18 -2 -18 5q0 2 2 4q33 59 53 67q76 29 111 37q39 8 55 62q28 96 28 471zM84 1520q10 12 58 45.5t67 42.5q29 10 33 -15q10 -47 69 -118q25 -25 2 -50q-45 -57 -116 -94 q-25 -12 -45 -2q-18 14 -52 57.5t-34 75.5q0 35 18 58zM541 1520q16 16 60 47.5t65 40.5q27 12 36 -13q14 -57 68 -114q25 -27 4 -54q-41 -59 -117 -94q-27 -16 -47 -4q-23 16 -53.5 57t-34.5 74q-4 37 19 60z" />
<glyph unicode="&#xd0;" horiz-adv-x="1546" d="M709 1274h2q223 0 357 -36t232 -122q158 -137 158 -428q0 -102 -28.5 -192t-73.5 -150.5t-79 -93.5t-65 -55q-311 -221 -802 -222q-201 0 -299 9q-39 4 -17 22q86 68 115 76q25 6 35 19.5t16 41.5q27 96 23 451q-158 0 -209 14q-20 8 -6 23q39 39 88 65q12 8 22 6 q41 -6 103 -8q-8 319 -27 400q-10 39 -53 39q-57 0 -193 -21q-12 -2 -14 2t4 12q55 66 111 78q92 23 287.5 46.5t312.5 23.5zM655 1165h-2q-59 0 -84 -6q-27 -8 -26 -29q8 -238 8 -415q0 -23 22 -23q236 0 336 15q16 0 6 -11q-4 -8 -32.5 -34.5t-40.5 -32.5 q-61 -35 -269 -37q-20 0 -20 -25q0 -326 -14 -415q-6 -20 28 -33q6 0 8 -2q27 -12 170 -13q221 0 323.5 118t102.5 351q0 260 -129 426t-387 166z" />
<glyph unicode="&#xd1;" horiz-adv-x="1589" d="M293 831v3q0 186 -27 247q-16 53 -69 66q-66 12 -189 12q-10 0 -13 5t3 10q63 59 98 63q45 2 179.5 12.5t173.5 10.5q12 0 34.5 -18.5t34.5 -35.5q174 -242 403.5 -524.5t295.5 -310.5q33 -16 34 8q2 12 2 260q0 365 -22 444q-8 27 -21.5 38.5t-40.5 13.5q-94 10 -161 24 q-20 4 -11 17q16 16 57.5 43.5t53.5 25.5q66 -10 188 -10q115 0 289 22q14 2 16.5 -2t-6.5 -16q-27 -47 -73 -68q-39 -14 -103 -30q-27 -8 -43 -66q-25 -109 -24 -493q0 -553 8 -598q12 -37 -21 -37q-145 0 -284 159q-188 203 -625 777q-8 12 -18.5 13t-16.5 -4t-6 -15v-306 q0 -96 3 -178t6 -144.5t3 -84.5q4 -55 54 -66q115 -18 118 -20q23 -4 7 -19q-70 -70 -101 -69q-31 2 -67 6q-53 4 -93 4q-199 0 -315 -25q-14 -4 -16 2q-2 2 2 13q33 49 67 63q31 12 107 33q41 10 58.5 27.5t29.5 58.5q41 149 41 659zM973 1470h2q45 0 102 58q14 18 76 35 q10 2 14 0t2 -11q-25 -63 -102.5 -137t-140.5 -74q-47 0 -138 50q-72 41 -94 36q-68 -8 -145 -100q-4 -8 -12 4q-6 8 -1 39t15 45q27 41 88 91t102 50q55 0 144 -53q55 -33 88 -33z" />
<glyph unicode="&#xd2;" horiz-adv-x="1554" d="M920 1282h2q141 0 248.5 -49t171 -133t94 -185.5t30.5 -216.5q0 -334 -241 -520q-45 -35 -129 -85t-127 -68q-178 -72 -297 -72q-260 0 -423 149.5t-163 438.5q0 299 209 493q92 80 268 162q88 41 192 63.5t165 22.5zM729 1157h-2q-139 0 -227 -82q-129 -119 -129 -381 q0 -276 138 -439t351 -163q109 0 178 47q147 98 148 434q0 258 -123 421t-334 163zM557 1665q14 4 23 -6q37 -45 135 -118t243 -136q16 -4 -2 -19q-47 -33 -84 -32q-49 0 -209.5 59.5t-244.5 120.5q-23 16 -27 25.5t8 21.5q23 18 79 48t79 36z" />
<glyph unicode="&#xd3;" horiz-adv-x="1554" d="M920 1282h2q141 0 248.5 -49t171 -133t94 -185.5t30.5 -216.5q0 -334 -241 -520q-45 -35 -129 -85t-127 -68q-178 -72 -297 -72q-260 0 -423 149.5t-163 438.5q0 299 209 493q92 80 268 162q88 41 192 63.5t165 22.5zM729 1157h-2q-139 0 -227 -82q-129 -119 -129 -381 q0 -276 138 -439t351 -163q109 0 178 47q147 98 148 434q0 258 -123 421t-334 163zM1194 1645h2q16 0 19.5 -4.5t1.5 -12.5q-4 -35 -60 -78q-47 -39 -159.5 -101.5t-221.5 -96.5q-33 -12 -119 8q-31 8 -8 20q53 29 152.5 98.5t148.5 120.5q10 12 19 15q29 6 120 18.5 t105 12.5z" />
<glyph unicode="&#xd4;" horiz-adv-x="1554" d="M920 1282h2q141 0 248.5 -49t171 -133t94 -185.5t30.5 -216.5q0 -334 -241 -520q-45 -35 -129 -85t-127 -68q-178 -72 -297 -72q-260 0 -423 149.5t-163 438.5q0 299 209 493q92 80 268 162q88 41 192 63.5t165 22.5zM729 1157h-2q-139 0 -227 -82q-129 -119 -129 -381 q0 -276 138 -439t351 -163q109 0 178 47q147 98 148 434q0 258 -123 421t-334 163zM797 1477q-12 -8 -33 -23.5t-34 -24t-39.5 -22.5t-59.5 -29q-43 -18 -80 -18q-14 0 -35.5 10t-30.5 21q-8 8 4 14q160 78 275 209q4 6 48 33.5t52 27.5q4 0 8 -6q61 -119 285 -248 q10 -6 -4 -20q-57 -47 -90 -47q-14 0 -49 16q-41 16 -185 105q-18 12 -32 2z" />
<glyph unicode="&#xd5;" horiz-adv-x="1554" d="M920 1282h2q141 0 248.5 -49t171 -133t94 -185.5t30.5 -216.5q0 -334 -241 -520q-45 -35 -129 -85t-127 -68q-178 -72 -297 -72q-260 0 -423 149.5t-163 438.5q0 299 209 493q92 80 268 162q88 41 192 63.5t165 22.5zM729 1157h-2q-139 0 -227 -82q-129 -119 -129 -381 q0 -276 138 -439t351 -163q109 0 178 47q147 98 148 434q0 258 -123 421t-334 163zM920 1493h2q45 0 102 57q14 18 76 35q10 2 14 0t2 -10q-25 -63 -102.5 -137t-141.5 -74q-47 0 -137 49q-72 41 -94 37q-68 -8 -145 -100q-4 -6 -13 4q-6 8 -1 38.5t16 45.5q27 41 88 91 t102 50q55 0 143 -53q56 -33 89 -33z" />
<glyph unicode="&#xd6;" horiz-adv-x="1554" d="M920 1282h2q141 0 248.5 -49t171 -133t94 -185.5t30.5 -216.5q0 -334 -241 -520q-45 -35 -129 -85t-127 -68q-178 -72 -297 -72q-260 0 -423 149.5t-163 438.5q0 299 209 493q92 80 268 162q88 41 192 63.5t165 22.5zM729 1157h-2q-139 0 -227 -82q-129 -119 -129 -381 q0 -276 138 -439t351 -163q109 0 178 47q147 98 148 434q0 258 -123 421t-334 163zM475 1534q10 12 58.5 46t66.5 42q29 10 33 -14q10 -47 69 -119q25 -25 3 -49q-45 -57 -117 -94q-25 -12 -45 -3q-18 14 -52 57.5t-34 76.5q0 34 18 57zM932 1534q16 16 60 48t65 40 q29 12 37 -12q14 -57 67 -115q27 -25 4 -53q-41 -59 -116 -94q-27 -16 -48 -5q-23 16 -53 57.5t-35 74.5q-4 36 19 59z" />
<glyph unicode="&#xd7;" horiz-adv-x="1136" d="M985 805q10 2 10 -7.5t-8 -25.5q-18 -35 -122.5 -163t-192.5 -220q-20 -20 -4 -41q43 -55 170 -189t157 -159q16 -16 6 -20q-29 -14 -88 -15q-47 0 -118 66q-164 152 -220 215q-23 27 -36 4q-164 -174 -252 -234q-33 -27 -137 -47q-14 -2 -14.5 9.5t9.5 19.5 q29 25 157 157t157 171q16 23 2 32l-111 122l-98 108q-35 39 -45 55q-33 57 -21 86q4 10 19 28l29 35q15 17 18 19q10 12 16 -4q25 -49 114 -153.5t163 -180.5q20 -20 35 -6q98 102 165.5 187t83.5 116q11 17 156 35z" />
<glyph unicode="&#xd8;" horiz-adv-x="1550" d="M920 1282h2q141 0 254 -51q23 31 69 106q18 31 131 56q14 2 16.5 -3.5t-6.5 -15.5q-51 -86 -126 -192q209 -158 208 -484q0 -330 -241 -520q-127 -94 -256 -153q-180 -72 -297 -72q-182 0 -309 67q-14 6 -31 -10l-37 -37q-82 -76 -180 -96q-18 -4 -19.5 3t8.5 20 q31 29 154 163q12 14 -2 31q-170 154 -170 441q0 305 209 499q74 68 274 160q88 41 190 64.5t159 23.5zM735 1159h-2q-139 0 -229 -80q-139 -121 -139 -385q0 -250 96 -395q283 344 561 721q16 25 -4 37q-115 102 -283 102zM862 90h2q102 0 174 49q154 102 154 434 q0 219 -76 363q-16 29 -33 4q-330 -440 -561 -715q135 -135 340 -135z" />
<glyph unicode="&#xd9;" horiz-adv-x="1566" d="M520 662v-3q0 -203 26.5 -300t76.5 -154q94 -113 266 -113q174 0 254 107q53 72 69.5 177t16.5 314q0 303 -25 391q-16 43 -47 47q-109 12 -176 29q-27 4 -12 19q16 16 60 43.5t56 25.5q86 -10 183 -8q207 0 286 18q14 4 17.5 -2t-6.5 -20q-29 -45 -62 -62 q-18 -10 -110 -41q-29 -10 -33 -55q-8 -147 -8 -301q-4 -289 -46 -439.5t-167 -250.5q-150 -131 -389 -131q-258 0 -383 137q-70 80 -96.5 191.5t-26.5 334.5v439q0 68 -29 71q-119 18 -168 31q-27 8 -10 21q25 23 53.5 41t45 25t22.5 7q8 0 35.5 -4t48.5 -6q111 -6 159 -6 q174 0 340 22q12 2 14.5 -1t-5.5 -17q-43 -57 -64 -68q-45 -20 -113 -36q-23 -6 -32 -35q-21 -65 -21 -438zM596 1640q14 4 22 -6q37 -45 135.5 -117.5t243.5 -136.5q16 -4 -2 -18q-47 -33 -84 -33q-49 0 -209.5 59.5t-244.5 120.5q-23 16 -27 25.5t8 21.5q23 18 79 48 t79 36z" />
<glyph unicode="&#xda;" horiz-adv-x="1566" d="M520 662v-3q0 -203 26.5 -300t76.5 -154q94 -113 266 -113q174 0 254 107q53 72 69.5 177t16.5 314q0 303 -25 391q-16 43 -47 47q-109 12 -176 29q-27 4 -12 19q16 16 60 43.5t56 25.5q86 -10 183 -8q207 0 286 18q14 4 17.5 -2t-6.5 -20q-29 -45 -62 -62 q-18 -10 -110 -41q-29 -10 -33 -55q-8 -147 -8 -301q-4 -289 -46 -439.5t-167 -250.5q-150 -131 -389 -131q-258 0 -383 137q-70 80 -96.5 191.5t-26.5 334.5v439q0 68 -29 71q-119 18 -168 31q-27 8 -10 21q25 23 53.5 41t45 25t22.5 7q8 0 35.5 -4t48.5 -6q111 -6 159 -6 q174 0 340 22q12 2 14.5 -1t-5.5 -17q-43 -57 -64 -68q-45 -20 -113 -36q-23 -6 -32 -35q-21 -65 -21 -438zM1241 1628h2q16 0 19.5 -4t1.5 -12q-4 -35 -60 -78q-47 -39 -159.5 -101.5t-221.5 -97.5q-33 -12 -118 8q-31 8 -9 21q53 29 152.5 98.5t148.5 120.5q10 12 19 14 q29 6 120 18.5t105 12.5z" />
<glyph unicode="&#xdb;" horiz-adv-x="1566" d="M520 662v-3q0 -203 26.5 -300t76.5 -154q94 -113 266 -113q174 0 254 107q53 72 69.5 177t16.5 314q0 303 -25 391q-16 43 -47 47q-109 12 -176 29q-27 4 -12 19q16 16 60 43.5t56 25.5q86 -10 183 -8q207 0 286 18q14 4 17.5 -2t-6.5 -20q-29 -45 -62 -62 q-18 -10 -110 -41q-29 -10 -33 -55q-8 -147 -8 -301q-4 -289 -46 -439.5t-167 -250.5q-150 -131 -389 -131q-258 0 -383 137q-70 80 -96.5 191.5t-26.5 334.5v439q0 68 -29 71q-119 18 -168 31q-27 8 -10 21q25 23 53.5 41t45 25t22.5 7q8 0 35.5 -4t48.5 -6q111 -6 159 -6 q174 0 340 22q12 2 14.5 -1t-5.5 -17q-43 -57 -64 -68q-45 -20 -113 -36q-23 -6 -32 -35q-21 -65 -21 -438zM813 1458q-12 -8 -32.5 -23.5t-34 -23.5t-40 -22.5t-59.5 -28.5q-43 -18 -80 -19q-14 0 -35.5 10.5t-29.5 20.5q-8 8 4 14q160 78 274 209q4 6 48 34t53 28 q4 0 8 -6q61 -119 285 -248q10 -6 -5 -21q-57 -47 -90 -47q-14 0 -49 17q-41 16 -184 104q-19 12 -33 2z" />
<glyph unicode="&#xdc;" horiz-adv-x="1566" d="M520 662v-3q0 -203 26.5 -300t76.5 -154q94 -113 266 -113q174 0 254 107q53 72 69.5 177t16.5 314q0 303 -25 391q-16 43 -47 47q-109 12 -176 29q-27 4 -12 19q16 16 60 43.5t56 25.5q86 -10 183 -8q207 0 286 18q14 4 17.5 -2t-6.5 -20q-29 -45 -62 -62 q-18 -10 -110 -41q-29 -10 -33 -55q-8 -147 -8 -301q-4 -289 -46 -439.5t-167 -250.5q-150 -131 -389 -131q-258 0 -383 137q-70 80 -96.5 191.5t-26.5 334.5v439q0 68 -29 71q-119 18 -168 31q-27 8 -10 21q25 23 53.5 41t45 25t22.5 7q8 0 35.5 -4t48.5 -6q111 -6 159 -6 q174 0 340 22q12 2 14.5 -1t-5.5 -17q-43 -57 -64 -68q-45 -20 -113 -36q-23 -6 -32 -35q-21 -65 -21 -438zM506 1522q10 12 58 46t67 42q29 10 33 -15q10 -47 69 -118q25 -25 2 -50q-45 -57 -117 -94q-25 -12 -45 -2q-18 14 -52 57.5t-34 75.5q1 35 19 58zM963 1522 q16 16 60 48t64 40q27 12 37 -13q14 -57 68 -114q25 -25 4 -53q-41 -59 -117 -95q-27 -16 -47 -4q-23 16 -53.5 57.5t-34.5 73.5q-4 37 19 60z" />
<glyph unicode="&#xdd;" horiz-adv-x="1320" d="M223 1061q-25 27 -37 37t-34.5 21t-57.5 20q-12 2 -55 8t-70 12q-10 2 -14 6t-4 8.5t4 8.5q88 70 102 67q6 0 46 -3l69 -5q49 -2 160 -6q141 0 321 18q27 0 11 -20q-31 -43 -64 -59q-27 -10 -68 -21q-25 -8 -8 -45q82 -160 209 -434q8 -23 23 4l126 226q85 151 113 206 q16 25 -16 29q-82 12 -115 22q-27 8 -12 21q84 72 102 65q4 0 32 -3t44 -5q61 -4 107 -4q70 0 241 18q12 2 15.5 -2t-4.5 -16q-35 -51 -66 -61q-8 -2 -48 -14.5t-54 -14.5q-31 -8 -86 -64q-141 -145 -297 -448q-35 -66 -35 -158q0 -242 8 -330q2 -33 33 -34q193 -27 223 -37 q18 -8 6 -19q-31 -29 -71.5 -51t-51.5 -20q-39 8 -133 12q-106 4 -151 4q-244 0 -412 -29q-10 -2 -13 0t1 13q31 55 98 77q63 25 137 39q37 10 43 62q14 84 15 262q0 78 -29 147q-59 137 -143.5 284t-139.5 206zM1153 1640h2q16 0 19.5 -4t1.5 -12q-4 -35 -60 -78 q-47 -39 -159.5 -101.5t-221.5 -96.5q-33 -12 -119 8q-31 8 -8 20q53 29 152.5 98.5t148.5 120.5q10 12 19 15q29 6 120 18t105 12z" />
<glyph unicode="&#xde;" horiz-adv-x="1245" d="M1169 668v-2q0 -76 -25.5 -135.5t-74.5 -99.5t-84 -60.5t-90 -46.5q-147 -68 -360 -70q-10 0 -15 -16v-82q0 -39 45 -45q104 -8 201 -35q27 -4 4 -25q-80 -70 -113 -65q-96 8 -100 8q-61 6 -154 6q-274 0 -370 -29q-8 -2 -11.5 0t-3.5 6.5t2 10.5q6 16 27 40.5t33 30.5 q14 8 102 35q25 6 34 17.5t17 33.5q25 82 25 473q0 397 -18 486q-6 29 -41 33q-100 12 -138 20q-27 6 -4 25q86 68 101 65q104 -12 243 -12q164 0 316 16q18 0 10 -12q-31 -49 -65 -63q-39 -16 -76 -23q-53 -14 -54 -43q-4 -66 -4 -131q0 -12 5.5 -18.5t15.5 -4.5 q37 6 90 13q78 8 143 8q221 0 310 -84q77 -75 77 -225zM893 616v2q0 115 -66.5 184.5t-183.5 69.5q-68 0 -92 -14q-29 -16 -31 -57v-58q0 -53 -1 -142t-1 -179q0 -37 31 -51q43 -23 121 -23q96 0 151 55q72 74 72 213z" />
<glyph unicode="&#xdf;" horiz-adv-x="1122" d="M758 1389h2q121 0 195.5 -73t74.5 -183q0 -109 -82 -191q-18 -20 -56 -56l-52 -50q-53 -47 -54 -76q0 -23 33 -52.5t144 -103.5q43 -29 71.5 -82t28.5 -114q0 -121 -80 -218.5t-174 -154.5q-98 -66 -182 -66q-51 0 -79 44t-24 98q0 29 23 10q51 -45 160 -45 q66 0 108.5 44t42.5 109q0 80 -76 146q-33 31 -98.5 77t-91.5 70q-43 45 -39 94.5t35 71.5q72 59 162 154q78 78 77 205q0 90 -53 164.5t-137 74.5q-57 0 -100 -41q-61 -59 -90 -195.5t-29 -414.5v-207q0 -246 16 -303q10 -33 74 -49q20 -4 10 -19q-16 -25 -44 -47t-40 -20 q-16 2 -63 6q-53 4 -82 4q-139 0 -262 -16q-14 -2 -17.5 3t0.5 11q25 33 47 49q25 14 86 35q23 8 27 33q4 33 4 188v354q0 23 -16 23q-4 0 -49.5 7t-63.5 11q-16 4 -19 7.5t5 15.5q29 45 92 82q2 0 45 8q16 4 16 25q6 195 129 331q96 123 240 179q103 43 205 43z" />
<glyph unicode="&#xe0;" horiz-adv-x="942" d="M526 846h2q76 0 129.5 -31t79 -84t37.5 -104.5t12 -110.5q0 -190 -14 -348q-2 -27 23 -39q41 -25 127 -14q6 2 4 -9q-8 -27 -33 -47q-53 -41 -152.5 -67.5t-171.5 -26.5q-18 0 -28.5 6t-8.5 23q2 8 3.5 26.5t2.5 41t1 32.5q0 20 -17 12q-23 -12 -71 -43.5t-84 -52.5 q-66 -35 -125 -35q-68 0 -125.5 52.5t-57.5 146.5q0 53 36 97t83 71q61 33 168 74t156 55q37 8 37 35q0 94 -41 153.5t-127 59.5q-51 0 -88 -37q-49 -45 -72 -182q-4 -39 -31 -25q-35 16 -61.5 52t-26.5 65q0 43 60 80q109 78 227 133q84 41 147 41zM422 133h2q68 0 104 51 q16 16 17 47q0 25 1 66t1 61q0 35 -23 35q-90 0 -176 -45q-47 -29 -47 -72q0 -53 34 -98t87 -45zM571 950q6 -14 -20 -16q-20 0 -55 7t-43 13q-43 25 -112 110t-93 157q-12 33 12 57q10 12 58.5 28.5t78.5 14.5q70 -221 174 -371z" />
<glyph unicode="&#xe1;" horiz-adv-x="942" d="M526 846h2q76 0 129.5 -31t79 -84t37.5 -104.5t12 -110.5q0 -190 -14 -348q-2 -27 23 -39q41 -25 127 -14q6 2 4 -9q-8 -27 -33 -47q-53 -41 -152.5 -67.5t-171.5 -26.5q-18 0 -28.5 6t-8.5 23q2 8 3.5 26.5t2.5 41t1 32.5q0 20 -17 12q-23 -12 -71 -43.5t-84 -52.5 q-66 -35 -125 -35q-68 0 -125.5 52.5t-57.5 146.5q0 53 36 97t83 71q61 33 168 74t156 55q37 8 37 35q0 94 -41 153.5t-127 59.5q-51 0 -88 -37q-49 -45 -72 -182q-4 -39 -31 -25q-35 16 -61.5 52t-26.5 65q0 43 60 80q109 78 227 133q84 41 147 41zM422 133h2q68 0 104 51 q16 16 17 47q0 25 1 66t1 61q0 35 -23 35q-90 0 -176 -45q-47 -29 -47 -72q0 -53 34 -98t87 -45zM725 1325h2q16 0 15 -18.5t-17 -53.5q-29 -57 -99.5 -154.5t-103.5 -121.5q-14 -12 -58 -27.5t-69 -15.5q-18 0 -8 14q35 47 91.5 158t74.5 178q8 12 74.5 26.5t97.5 14.5z " />
<glyph unicode="&#xe2;" horiz-adv-x="942" d="M526 846h2q76 0 129.5 -31t79 -84t37.5 -104.5t12 -110.5q0 -190 -14 -348q-2 -27 23 -39q41 -25 127 -14q6 2 4 -9q-8 -27 -33 -47q-53 -41 -152.5 -67.5t-171.5 -26.5q-18 0 -28.5 6t-8.5 23q2 8 3.5 26.5t2.5 41t1 32.5q0 20 -17 12q-23 -12 -71 -43.5t-84 -52.5 q-66 -35 -125 -35q-68 0 -125.5 52.5t-57.5 146.5q0 53 36 97t83 71q61 33 168 74t156 55q37 8 37 35q0 94 -41 153.5t-127 59.5q-51 0 -88 -37q-49 -45 -72 -182q-4 -39 -31 -25q-35 16 -61.5 52t-26.5 65q0 43 60 80q109 78 227 133q84 41 147 41zM422 133h2q68 0 104 51 q16 16 17 47q0 25 1 66t1 61q0 35 -23 35q-90 0 -176 -45q-47 -29 -47 -72q0 -53 34 -98t87 -45zM455 1100q-45 -61 -103 -121q-31 -35 -114 -41q-14 -2 -22.5 0t1.5 18q133 137 221 308q6 14 43 33.5t47 19.5q12 0 15 -14q51 -180 186 -297q12 -8 2 -25q-12 -16 -44 -31.5 t-54 -19.5q-20 -6 -43 14q-68 63 -109 156q-12 23 -26 0z" />
<glyph unicode="&#xe3;" horiz-adv-x="942" d="M526 846h2q76 0 129.5 -31t79 -84t37.5 -104.5t12 -110.5q0 -190 -14 -348q-2 -27 23 -39q41 -25 127 -14q6 2 4 -9q-8 -27 -33 -47q-53 -41 -152.5 -67.5t-171.5 -26.5q-18 0 -28.5 6t-8.5 23q2 8 3.5 26.5t2.5 41t1 32.5q0 20 -17 12q-23 -12 -71 -43.5t-84 -52.5 q-66 -35 -125 -35q-68 0 -125.5 52.5t-57.5 146.5q0 53 36 97t83 71q61 33 168 74t156 55q37 8 37 35q0 94 -41 153.5t-127 59.5q-51 0 -88 -37q-49 -45 -72 -182q-4 -39 -31 -25q-35 16 -61.5 52t-26.5 65q0 43 60 80q109 78 227 133q84 41 147 41zM422 133h2q68 0 104 51 q16 16 17 47q0 25 1 66t1 61q0 35 -23 35q-90 0 -176 -45q-47 -29 -47 -72q0 -53 34 -98t87 -45zM614 1112h2q33 0 84 59q14 23 64 33q10 2 11 -3t-1 -13q-41 -111 -139 -180q-37 -25 -78 -25q-37 0 -133 53q-72 39 -90 37q-61 -6 -137 -102q-12 -16 -17 4q-6 39 19 80 q35 57 94 108q47 39 86 39q35 0 139 -55q71 -35 96 -35z" />
<glyph unicode="&#xe4;" horiz-adv-x="942" d="M526 846h2q76 0 129.5 -31t79 -84t37.5 -104.5t12 -110.5q0 -190 -14 -348q-2 -27 23 -39q41 -25 127 -14q6 2 4 -9q-8 -27 -33 -47q-53 -41 -152.5 -67.5t-171.5 -26.5q-18 0 -28.5 6t-8.5 23q2 8 3.5 26.5t2.5 41t1 32.5q0 20 -17 12q-23 -12 -71 -43.5t-84 -52.5 q-66 -35 -125 -35q-68 0 -125.5 52.5t-57.5 146.5q0 53 36 97t83 71q61 33 168 74t156 55q37 8 37 35q0 94 -41 153.5t-127 59.5q-51 0 -88 -37q-49 -45 -72 -182q-4 -39 -31 -25q-35 16 -61.5 52t-26.5 65q0 43 60 80q109 78 227 133q84 41 147 41zM422 133h2q68 0 104 51 q16 16 17 47q0 25 1 66t1 61q0 35 -23 35q-90 0 -176 -45q-47 -29 -47 -72q0 -53 34 -98t87 -45zM158 1167q10 12 61 47t70 41q29 10 35 -14q6 -20 16 -41.5t18.5 -32l21.5 -26t15 -17.5q25 -25 2 -51q-35 -47 -118 -94q-29 -14 -46 -4q-20 12 -57 58t-37 77q1 32 19 57z M553 1169q88 70 117 82q35 14 47 -4q59 -96 69 -106q29 -29 5 -62q-18 -27 -67.5 -67.5t-78.5 -38.5q-20 0 -55 43t-55 90q-15 34 18 63z" />
<glyph unicode="&#xe5;" horiz-adv-x="942" d="M526 846h2q76 0 129.5 -31t79 -84t37.5 -104.5t12 -110.5q0 -190 -14 -348q-2 -27 23 -39q41 -25 127 -14q6 2 4 -9q-8 -27 -33 -47q-53 -41 -152.5 -67.5t-171.5 -26.5q-18 0 -28.5 6t-8.5 23q2 8 3.5 26.5t2.5 41t1 32.5q0 20 -17 12q-23 -12 -71 -43.5t-84 -52.5 q-66 -35 -125 -35q-68 0 -125.5 52.5t-57.5 146.5q0 53 36 97t83 71q61 33 168 74t156 55q37 8 37 35q0 94 -41 153.5t-127 59.5q-51 0 -88 -37q-49 -45 -72 -182q-4 -39 -31 -25q-35 16 -61.5 52t-26.5 65q0 43 60 80q109 78 227 133q84 41 147 41zM422 133h2q68 0 104 51 q16 16 17 47q0 25 1 66t1 61q0 35 -23 35q-90 0 -176 -45q-47 -29 -47 -72q0 -53 34 -98t87 -45zM512 1288h2q66 0 101.5 -43t35.5 -108q0 -92 -80 -156q-74 -53 -129 -53q-49 0 -94 38t-45 113q0 80 66 138q94 71 143 71zM469 1208h-2q-76 0 -76 -92q0 -53 30 -80.5 t66 -27.5q70 0 70 88q0 49 -22.5 80.5t-65.5 31.5z" />
<glyph unicode="&#xe6;" horiz-adv-x="1343" d="M1014 848h2q131 0 191.5 -83t52.5 -179q0 -18 20 -19q25 4 37 4q8 2 10 -1t-2 -13q-12 -29 -55 -51q-66 -33 -226 -57q-123 -23 -245 -31q-23 -2 -19 -29q14 -262 267 -262q141 0 262 106q6 8 12 7.5t4 -13.5q-10 -57 -29 -73q-82 -78 -206.5 -129.5t-233.5 -51.5 q-172 0 -250 154q-10 27 -41 2q-84 -63 -182 -115q-72 -39 -141 -39q-66 0 -124.5 52.5t-58.5 150.5q0 51 44 99.5t85 70.5q119 63 312 117q35 6 35 37q0 96 -40 156.5t-126 60.5q-57 0 -88 -39q-59 -66 -70 -182q-4 -33 -29 -25q-25 10 -58.5 52t-33.5 69q0 37 74 88 q84 61 211 123q88 43 149 43q139 0 193 -109q12 -23 31 -4q47 37 129 75t137 38zM301 270v-2q0 -51 35 -93t90 -42q80 0 121 62q16 23 10 49q-12 70 -14 110q-6 33 -25 33q-94 4 -172 -45q-45 -27 -45 -72zM903 745h-2q-47 0 -83 -57t-36 -149q0 -33 33 -33q98 0 193 14 q35 8 34 39q0 186 -139 186z" />
<glyph unicode="&#xe7;" horiz-adv-x="860" d="M586 846h2q123 0 176 -62q37 -43 37 -92q0 -45 -39 -83t-80 -54q-33 -10 -33 6q-6 55 -33 94q-47 76 -163 76q-51 0 -99 -43q-63 -59 -63 -223q0 -166 71.5 -253t192.5 -87q135 0 264 121q18 18 19 0q0 -51 -39 -101q-119 -109 -238 -143q-86 -88 -86 -111q0 -29 60 -63 q92 -55 92 -109q0 -49 -60 -114q-41 -41 -108.5 -73t-118.5 -34q-23 0 -29 2t-6 12.5t23.5 35t42.5 30.5q4 2 17 5t18.5 5t16.5 5.5t16 6.5t14.5 7t13.5 8t9 10t7 12.5t2 14.5q0 25 -96 82q-61 37 -61 82q0 23 30 59q14 18 99 102q-41 -4 -68 -4q-139 0 -234.5 88.5 t-95.5 272.5q0 207 166 340q70 59 179.5 115.5t181.5 56.5z" />
<glyph unicode="&#xe8;" horiz-adv-x="862" d="M532 846h3q129 0 189 -81t52 -175q0 -23 20.5 -19t32.5 4q18 2 19 -10q-2 -10 -15.5 -25.5t-25.5 -21.5q-55 -29 -248 -61q-78 -12 -237 -27q-12 -2 -18.5 -14.5t-4.5 -22.5q6 -268 260 -268q80 0 157 37t113 71q14 14 15 -6q0 -47 -33 -75q-88 -86 -279 -156 q-63 -23 -157 -23q-127 0 -221.5 90.5t-94.5 278.5q0 109 37 194t84 132q51 55 174 120q106 58 178 58zM424 745h-2q-45 0 -81 -46t-42 -146q0 -37 37 -37q102 0 184 12q39 8 39 41q0 76 -32.5 126t-102.5 50zM575 950q6 -14 -20 -16q-20 0 -55 7t-43 13q-43 25 -112 110 t-93 157q-12 33 12 57q10 12 58.5 28.5t78.5 14.5q70 -221 174 -371z" />
<glyph unicode="&#xe9;" horiz-adv-x="862" d="M532 846h3q129 0 189 -81t52 -175q0 -23 20.5 -19t32.5 4q18 2 19 -10q-2 -10 -15.5 -25.5t-25.5 -21.5q-55 -29 -248 -61q-78 -12 -237 -27q-12 -2 -18.5 -14.5t-4.5 -22.5q6 -268 260 -268q80 0 157 37t113 71q14 14 15 -6q0 -47 -33 -75q-88 -86 -279 -156 q-63 -23 -157 -23q-127 0 -221.5 90.5t-94.5 278.5q0 109 37 194t84 132q51 55 174 120q106 58 178 58zM424 745h-2q-45 0 -81 -46t-42 -146q0 -37 37 -37q102 0 184 12q39 8 39 41q0 76 -32.5 126t-102.5 50zM719 1325h2q16 0 15 -18.5t-17 -53.5q-29 -57 -99.5 -154.5 t-103.5 -121.5q-14 -12 -58 -27.5t-69 -15.5q-18 0 -8 14q35 47 91 158t75 178q8 12 74.5 26.5t97.5 14.5z" />
<glyph unicode="&#xea;" horiz-adv-x="862" d="M532 846h3q129 0 189 -81t52 -175q0 -23 20.5 -19t32.5 4q18 2 19 -10q-2 -10 -15.5 -25.5t-25.5 -21.5q-55 -29 -248 -61q-78 -12 -237 -27q-12 -2 -18.5 -14.5t-4.5 -22.5q6 -268 260 -268q80 0 157 37t113 71q14 14 15 -6q0 -47 -33 -75q-88 -86 -279 -156 q-63 -23 -157 -23q-127 0 -221.5 90.5t-94.5 278.5q0 109 37 194t84 132q51 55 174 120q106 58 178 58zM424 745h-2q-45 0 -81 -46t-42 -146q0 -37 37 -37q102 0 184 12q39 8 39 41q0 76 -32.5 126t-102.5 50zM465 1100q-45 -61 -103 -121q-31 -35 -114 -41q-14 -2 -22.5 0 t1.5 18q133 137 222 308q6 14 42.5 33.5t47.5 19.5q12 0 14 -14q51 -180 186 -297q12 -8 2 -25q-12 -16 -43.5 -31.5t-54.5 -19.5q-20 -6 -43 14q-68 63 -108 156q-13 23 -27 0z" />
<glyph unicode="&#xeb;" horiz-adv-x="862" d="M532 846h3q129 0 189 -81t52 -175q0 -23 20.5 -19t32.5 4q18 2 19 -10q-2 -10 -15.5 -25.5t-25.5 -21.5q-55 -29 -248 -61q-78 -12 -237 -27q-12 -2 -18.5 -14.5t-4.5 -22.5q6 -268 260 -268q80 0 157 37t113 71q14 14 15 -6q0 -47 -33 -75q-88 -86 -279 -156 q-63 -23 -157 -23q-127 0 -221.5 90.5t-94.5 278.5q0 109 37 194t84 132q51 55 174 120q106 58 178 58zM424 745h-2q-45 0 -81 -46t-42 -146q0 -37 37 -37q102 0 184 12q39 8 39 41q0 76 -32.5 126t-102.5 50zM168 1167q10 12 61.5 47t69.5 41q29 10 35 -14q6 -20 16 -41.5 t18.5 -32l21.5 -26t16 -17.5q25 -25 2 -51q-35 -47 -119 -94q-29 -14 -45 -4q-20 12 -57 58t-37 77q0 32 18 57zM563 1169q88 70 117 82q35 14 47 -4q59 -96 70 -106q29 -29 4 -62q-18 -27 -67.5 -67.5t-78.5 -38.5q-20 0 -55 43t-55 90q-15 34 18 63z" />
<glyph unicode="&#xec;" horiz-adv-x="571" d="M174 401v2q0 166 -12 226q-6 27 -37 41l-33 13l-37 15q-23 10 21 39q16 10 22 11q184 23 314 102q10 8 18 6t4 -16q-18 -131 -18 -396q0 -197 10 -294q4 -37 33.5 -55.5t97.5 -31.5q27 -4 6 -24q-49 -47 -76 -47q-31 0 -112.5 4t-110.5 4q-47 0 -88 -3t-71.5 -7t-43.5 -4 q-14 -2 -16 2t6 14q23 33 84 64q18 8 25 45q14 93 14 290zM379 950q6 -14 -21 -16q-20 0 -55 7t-43 13q-43 25 -111.5 110t-93.5 157q-12 33 13 57q10 12 58 28.5t79 14.5q70 -221 174 -371z" />
<glyph unicode="&#xed;" horiz-adv-x="571" d="M174 401v2q0 166 -12 226q-6 27 -37 41l-33 13l-37 15q-23 10 21 39q16 10 22 11q184 23 314 102q10 8 18 6t4 -16q-18 -131 -18 -396q0 -197 10 -294q4 -37 33.5 -55.5t97.5 -31.5q27 -4 6 -24q-49 -47 -76 -47q-31 0 -112.5 4t-110.5 4q-47 0 -88 -3t-71.5 -7t-43.5 -4 q-14 -2 -16 2t6 14q23 33 84 64q18 8 25 45q14 93 14 290zM537 1325h2q16 0 15 -18.5t-17 -53.5q-29 -57 -99.5 -154.5t-103.5 -121.5q-14 -12 -58.5 -27.5t-68.5 -15.5q-18 0 -8 14q35 47 91 158t75 178q8 12 74.5 26.5t97.5 14.5z" />
<glyph unicode="&#xee;" horiz-adv-x="571" d="M174 401v2q0 166 -12 226q-6 27 -37 41l-33 13l-37 15q-23 10 21 39q16 10 22 11q184 23 314 102q10 8 18 6t4 -16q-18 -131 -18 -396q0 -197 10 -294q4 -37 33.5 -55.5t97.5 -31.5q27 -4 6 -24q-49 -47 -76 -47q-31 0 -112.5 4t-110.5 4q-47 0 -88 -3t-71.5 -7t-43.5 -4 q-14 -2 -16 2t6 14q23 33 84 64q18 8 25 45q14 93 14 290zM268 1100q-45 -61 -102 -121q-31 -35 -115 -41q-14 -2 -22.5 0t2.5 18q133 137 221 308q6 14 43 33.5t47 19.5q12 0 14 -14q51 -180 187 -297q12 -8 2 -25q-12 -16 -44 -31.5t-55 -19.5q-20 -6 -43 14 q-68 63 -108 156q-13 23 -27 0z" />
<glyph unicode="&#xef;" horiz-adv-x="571" d="M174 401v2q0 166 -12 226q-6 27 -37 41l-33 13l-37 15q-23 10 21 39q16 10 22 11q184 23 314 102q10 8 18 6t4 -16q-18 -131 -18 -396q0 -197 10 -294q4 -37 33.5 -55.5t97.5 -31.5q27 -4 6 -24q-49 -47 -76 -47q-31 0 -112.5 4t-110.5 4q-47 0 -88 -3t-71.5 -7t-43.5 -4 q-14 -2 -16 2t6 14q23 33 84 64q18 8 25 45q14 93 14 290zM-29 1167q10 12 61.5 47t69.5 41q29 10 35 -14q6 -20 16.5 -41.5t18.5 -32t21.5 -26t15.5 -17.5q25 -25 2 -51q-35 -47 -119 -94q-29 -14 -45 -4q-20 12 -57 58t-37 77q0 32 18 57zM367 1169q88 70 116 82 q35 14 47 -4q59 -96 70 -106q29 -29 4 -62q-18 -27 -67.5 -67.5t-77.5 -38.5q-20 0 -55 43t-56 90q-14 34 19 63z" />
<glyph unicode="&#xf0;" horiz-adv-x="1005" d="M449 1389h2q172 0 297 -129q14 -14 30 -5q162 102 180 117q12 12 13 -4q0 -23 -15 -55q-16 -35 -135 -123q-14 -12 -6 -31q115 -176 115 -491q0 -205 -62.5 -352.5t-162.5 -219.5q-76 -49 -163 -86t-132 -37q-68 0 -124.5 14.5t-110.5 50.5t-85 107.5t-31 173.5 q0 229 185 377q199 150 354 150q49 0 80 -12q8 -2 12 3t2 15q-16 117 -57 197q-12 20 -29 8q-217 -127 -284 -156q-10 -6 -16.5 -3t-2.5 13q8 12 24.5 41t30 46.5t23.5 23.5q49 23 182 104q18 10 4 27q-104 121 -239 121q-96 0 -158 -31q-12 -6 -16 -1t0 15q16 37 65 72 q107 60 230 60zM479 745h-2q-74 0 -125 -63q-59 -74 -59 -211q0 -176 66.5 -280.5t160.5 -104.5q63 0 101 51q25 31 49 131.5t24 251.5q0 104 -39 152q-63 73 -176 73z" />
<glyph unicode="&#xf1;" horiz-adv-x="1128" d="M176 412v2q0 166 -14 209q-4 20 -27 34q-37 18 -92 35q-18 4 16 39q16 18 27 19q147 12 287 106q23 18 28 -12q12 -41 13 -127q0 -27 22 -12q84 61 154 98q74 43 137 43q246 0 246 -357q0 -61 -7.5 -187t-7.5 -161q0 -25 23 -39q37 -20 133 -39q16 -6 4 -20 q-35 -35 -57 -41q-76 -25 -236 -25q-121 0 -153 13q-23 10 -4 26q29 29 49 93q14 47 14 309q0 133 -44 200.5t-120 67.5q-68 0 -123 -55q-29 -23 -28 -66q0 -270 4 -434q0 -29 26 -33q78 -16 99 -24q18 -6 0 -21q-66 -61 -86 -61q-20 2 -74 6q-33 2 -106 2q-174 0 -242 -18 q-16 -4 -6 14q12 41 41 57q8 4 27.5 12.5t31.5 16.5q23 14 31 51q14 76 14 279zM711 1112h2q33 0 84 59q14 23 63 33q10 2 11 -3t-1 -13q-41 -111 -139 -180q-37 -25 -78 -25q-37 0 -133 53q-72 39 -90 37q-61 -6 -137 -102q-12 -16 -17 4q-6 39 19 80q35 57 94 108 q47 39 86 39q35 0 139 -55q72 -35 97 -35z" />
<glyph unicode="&#xf2;" horiz-adv-x="1005" d="M612 846h2q162 0 247 -101.5t85 -261.5q0 -188 -121 -303q-80 -82 -243 -157q-111 -49 -183 -50q-139 0 -239.5 89.5t-100.5 275.5q0 129 51.5 220t122.5 138q57 37 201 105q112 45 178 45zM459 733h-2q-59 0 -105 -55q-59 -70 -59 -221q0 -166 70.5 -264.5t175.5 -98.5 q57 0 104 43q61 57 62 240q0 150 -60.5 253t-185.5 103zM616 950q6 -14 -20 -16q-20 0 -55 7t-43 13q-43 25 -112 110t-93 157q-12 33 12 57q10 12 58.5 28.5t78.5 14.5q70 -221 174 -371z" />
<glyph unicode="&#xf3;" horiz-adv-x="1005" d="M612 846h2q162 0 247 -101.5t85 -261.5q0 -188 -121 -303q-80 -82 -243 -157q-111 -49 -183 -50q-139 0 -239.5 89.5t-100.5 275.5q0 129 51.5 220t122.5 138q57 37 201 105q112 45 178 45zM459 733h-2q-59 0 -105 -55q-59 -70 -59 -221q0 -166 70.5 -264.5t175.5 -98.5 q57 0 104 43q61 57 62 240q0 150 -60.5 253t-185.5 103zM750 1325h2q16 0 15 -18.5t-17 -53.5q-29 -57 -99.5 -154.5t-103.5 -121.5q-14 -12 -58.5 -27.5t-68.5 -15.5q-18 0 -8 14q35 47 91 158t75 178q8 12 74.5 26.5t97.5 14.5z" />
<glyph unicode="&#xf4;" horiz-adv-x="1005" d="M612 846h2q162 0 247 -101.5t85 -261.5q0 -188 -121 -303q-80 -82 -243 -157q-111 -49 -183 -50q-139 0 -239.5 89.5t-100.5 275.5q0 129 51.5 220t122.5 138q57 37 201 105q112 45 178 45zM459 733h-2q-59 0 -105 -55q-59 -70 -59 -221q0 -166 70.5 -264.5t175.5 -98.5 q57 0 104 43q61 57 62 240q0 150 -60.5 253t-185.5 103zM500 1100q-45 -61 -103 -121q-31 -35 -114 -41q-14 -2 -22.5 0t1.5 18q133 137 221 308q6 14 43 33.5t47 19.5q12 0 15 -14q51 -180 186 -297q12 -8 2 -25q-12 -16 -44 -31.5t-54 -19.5q-20 -6 -43 14 q-68 63 -109 156q-12 23 -26 0z" />
<glyph unicode="&#xf5;" horiz-adv-x="1005" d="M612 846h2q162 0 247 -101.5t85 -261.5q0 -188 -121 -303q-80 -82 -243 -157q-111 -49 -183 -50q-139 0 -239.5 89.5t-100.5 275.5q0 129 51.5 220t122.5 138q57 37 201 105q112 45 178 45zM459 733h-2q-59 0 -105 -55q-59 -70 -59 -221q0 -166 70.5 -264.5t175.5 -98.5 q57 0 104 43q61 57 62 240q0 150 -60.5 253t-185.5 103zM649 1112h2q33 0 84 59q14 23 64 33q10 2 11 -3t-1 -13q-41 -111 -139 -180q-37 -25 -78 -25q-37 0 -133 53q-72 39 -90 37q-61 -6 -138 -102q-12 -16 -16 4q-6 39 18 80q35 57 95 108q47 39 86 39q35 0 139 -55 q71 -35 96 -35z" />
<glyph unicode="&#xf6;" horiz-adv-x="1005" d="M612 846h2q162 0 247 -101.5t85 -261.5q0 -188 -121 -303q-80 -82 -243 -157q-111 -49 -183 -50q-139 0 -239.5 89.5t-100.5 275.5q0 129 51.5 220t122.5 138q57 37 201 105q112 45 178 45zM459 733h-2q-59 0 -105 -55q-59 -70 -59 -221q0 -166 70.5 -264.5t175.5 -98.5 q57 0 104 43q61 57 62 240q0 150 -60.5 253t-185.5 103zM188 1167q10 12 61.5 47t69.5 41q29 10 35 -14q6 -20 16.5 -41.5t18.5 -32t21.5 -26t15.5 -17.5q25 -25 2 -51q-35 -47 -119 -94q-29 -14 -45 -4q-20 12 -57 58t-37 77q0 32 18 57zM584 1169q88 70 116 82 q35 14 48 -4q59 -96 69 -106q29 -29 4 -62q-18 -27 -67 -67.5t-78 -38.5q-20 0 -55 43t-56 90q-14 34 19 63z" />
<glyph unicode="&#xf7;" horiz-adv-x="1136" d="M575 567h-2q-20 0 -66 58.5t-46 101.5q0 33 64.5 68.5t121.5 35.5q20 0 21 -14q0 -76 -31 -163t-62 -87zM1018 487h2q6 0 9 -4t-1 -6q-14 -20 -57 -60t-51 -42q-141 -16 -514 -17q-246 0 -271 7q-20 4 -8 26q12 16 40 50t34 42q16 20 32 19q55 -12 170 -15h615zM608 272 q25 4 25 -8q-14 -188 -10 -241q0 -16 -29 -13q-61 18 -105.5 56t-52.5 86q-6 27 53.5 68.5t118.5 51.5z" />
<glyph unicode="&#xf8;" horiz-adv-x="1005" d="M616 846h2q74 0 142 -27q20 31 39 55q10 23 112 39q12 2 16.5 -1t0.5 -9q-14 -23 -92 -131q111 -98 110 -289q0 -186 -119 -301q-80 -82 -243 -157q-113 -51 -189 -52q-78 0 -145 27q-18 4 -25 -4l-47 -47q-35 -35 -119 -53q-10 -2 -14 3t0 11l115 127q8 12 -2 22 q-98 94 -99 275q0 129 51.5 222t122.5 138q80 51 199 105q104 47 184 47zM457 731h-2q-66 0 -111 -55q-61 -72 -61 -213q0 -143 41 -232q180 221 305 402q14 18 0 33q-61 65 -172 65zM532 92h3q63 0 112 49q70 59 70 230q0 104 -25 176q-6 20 -18 4q-180 -244 -305 -391 q65 -68 163 -68z" />
<glyph unicode="&#xf9;" horiz-adv-x="1110" d="M393 428v-2q0 -215 58 -262q41 -35 106 -35q76 0 123 68q16 25 16 82q0 68 3 215t3 155q0 27 -30 41q-43 18 -131 35q-14 4 -2 16q10 10 34.5 26.5t30.5 16.5q193 8 342 64q14 6 18.5 1t0.5 -26q-23 -129 -23 -405q0 -168 14 -240q4 -39 45 -49q43 -8 101 -8q14 0 8 -8 q-12 -33 -35 -50q-72 -45 -155.5 -72.5t-143.5 -27.5q-35 0 -45 33q-16 49 -20 113q-2 12 -11.5 12t-15.5 -6q-125 -86 -143 -97q-76 -45 -156 -45q-240 0 -240 312q0 209 15 352q0 29 -21 41q-35 25 -114 47q-12 6 -5 12q41 37 58 39q86 8 186.5 29.5t147.5 44.5 q10 4 13 -1t-1 -18q-31 -94 -31 -403zM649 950q6 -14 -20 -16q-20 0 -55 7t-44 13q-43 25 -111.5 110t-92.5 157q-12 33 12 57q10 12 58 28.5t79 14.5q70 -221 174 -371z" />
<glyph unicode="&#xfa;" horiz-adv-x="1110" d="M393 428v-2q0 -215 58 -262q41 -35 106 -35q76 0 123 68q16 25 16 82q0 68 3 215t3 155q0 27 -30 41q-43 18 -131 35q-14 4 -2 16q10 10 34.5 26.5t30.5 16.5q193 8 342 64q14 6 18.5 1t0.5 -26q-23 -129 -23 -405q0 -168 14 -240q4 -39 45 -49q43 -8 101 -8q14 0 8 -8 q-12 -33 -35 -50q-72 -45 -155.5 -72.5t-143.5 -27.5q-35 0 -45 33q-16 49 -20 113q-2 12 -11.5 12t-15.5 -6q-125 -86 -143 -97q-76 -45 -156 -45q-240 0 -240 312q0 209 15 352q0 29 -21 41q-35 25 -114 47q-12 6 -5 12q41 37 58 39q86 8 186.5 29.5t147.5 44.5 q10 4 13 -1t-1 -18q-31 -94 -31 -403zM803 1325h2q16 0 15 -18.5t-17 -53.5q-29 -57 -99.5 -154.5t-103.5 -121.5q-14 -12 -58 -27.5t-69 -15.5q-18 0 -8 14q35 47 91 158t75 178q8 12 74.5 26.5t97.5 14.5z" />
<glyph unicode="&#xfb;" horiz-adv-x="1110" d="M393 428v-2q0 -215 58 -262q41 -35 106 -35q76 0 123 68q16 25 16 82q0 68 3 215t3 155q0 27 -30 41q-43 18 -131 35q-14 4 -2 16q10 10 34.5 26.5t30.5 16.5q193 8 342 64q14 6 18.5 1t0.5 -26q-23 -129 -23 -405q0 -168 14 -240q4 -39 45 -49q43 -8 101 -8q14 0 8 -8 q-12 -33 -35 -50q-72 -45 -155.5 -72.5t-143.5 -27.5q-35 0 -45 33q-16 49 -20 113q-2 12 -11.5 12t-15.5 -6q-125 -86 -143 -97q-76 -45 -156 -45q-240 0 -240 312q0 209 15 352q0 29 -21 41q-35 25 -114 47q-12 6 -5 12q41 37 58 39q86 8 186.5 29.5t147.5 44.5 q10 4 13 -1t-1 -18q-31 -94 -31 -403zM545 1100q-45 -61 -103 -121q-31 -35 -114 -41q-14 -2 -22.5 0t1.5 18q133 137 221 308q6 14 43 33.5t47 19.5q12 0 15 -14q51 -180 186 -297q12 -8 2 -25q-12 -16 -44 -31.5t-54 -19.5q-20 -6 -43 14q-68 63 -109 156q-12 23 -26 0z " />
<glyph unicode="&#xfc;" horiz-adv-x="1110" d="M393 428v-2q0 -215 58 -262q41 -35 106 -35q76 0 123 68q16 25 16 82q0 68 3 215t3 155q0 27 -30 41q-43 18 -131 35q-14 4 -2 16q10 10 34.5 26.5t30.5 16.5q193 8 342 64q14 6 18.5 1t0.5 -26q-23 -129 -23 -405q0 -168 14 -240q4 -39 45 -49q43 -8 101 -8q14 0 8 -8 q-12 -33 -35 -50q-72 -45 -155.5 -72.5t-143.5 -27.5q-35 0 -45 33q-16 49 -20 113q-2 12 -11.5 12t-15.5 -6q-125 -86 -143 -97q-76 -45 -156 -45q-240 0 -240 312q0 209 15 352q0 29 -21 41q-35 25 -114 47q-12 6 -5 12q41 37 58 39q86 8 186.5 29.5t147.5 44.5 q10 4 13 -1t-1 -18q-31 -94 -31 -403zM242 1167q10 12 61 47t70 41q29 10 35 -14q6 -20 16 -41.5t18.5 -32l21.5 -26t15 -17.5q25 -25 2 -51q-35 -47 -119 -94q-29 -14 -45 -4q-20 12 -57 58t-37 77q1 32 19 57zM637 1169q88 70 117 82q35 14 47 -4q59 -96 69 -106 q29 -29 4 -62q-18 -27 -67 -67.5t-78 -38.5q-20 0 -55 43t-56 90q-14 34 19 63z" />
<glyph unicode="&#xfd;" horiz-adv-x="962" d="M127 -340h2q94 0 192.5 77t145.5 185q8 23 -12 53q-31 53 -43 93q-68 201 -141.5 358.5t-112.5 212.5q-23 41 -50.5 55.5t-115.5 34.5q-16 4 -4 16q4 2 21.5 15.5t29.5 22t20 8.5q268 18 371 67q14 4 12 -6q0 -8 -6 -23q-2 -4 -9 -21t-10 -25.5t-7 -23t-4 -23.5t4 -17 q43 -94 186 -492q2 -8 7 -11t10 1t10 14q47 109 75.5 235t28.5 183q6 27 -12 49q-6 8 -18.5 13.5t-22.5 7.5l-37 7q-27 5 -41 9t0 17q74 63 86 63q227 0 348 27q8 2 11 -2t-1 -13q-25 -53 -55 -67q-18 -10 -72 -33q-29 -14 -51 -65q-14 -35 -98 -271.5t-131 -337.5 q-150 -319 -279 -467q-92 -102 -178 -102q-63 0 -104 45q-47 57 -52 125q-2 12 4.5 18t16.5 2q37 -14 86 -14zM811 1325h2q16 0 15 -18.5t-17 -53.5q-29 -57 -99.5 -154.5t-103.5 -121.5q-14 -12 -58 -27.5t-69 -15.5q-18 0 -8 14q35 47 91.5 158t74.5 178q8 12 74.5 26.5 t97.5 14.5z" />
<glyph unicode="&#xfe;" horiz-adv-x="1050" d="M989 502v-2q0 -195 -131 -320q-109 -98 -237 -162q-84 -43 -146 -43q-53 0 -86 15q-10 4 -17 0t-5 -13q0 -272 2 -299q6 -47 39 -51q115 -14 131 -18q14 -6 0 -25q-59 -68 -93 -67q-166 6 -307 -3.5t-190 -27.5q-14 -4 -17.5 2t5.5 16q35 51 59 62q20 10 70 31 q20 8 27 17t11 34q25 145 25 772q0 616 -18 754q-6 33 -48 43q-45 8 -83 14q-12 2 -15.5 4t0.5 8q4 10 25.5 26.5t38.5 18.5q94 16 137 25.5t99.5 28t107.5 47.5q10 6 13 -5.5t-1 -27.5q-18 -86 -18 -484v-159q0 -27 28 -11l178 105q72 39 115 39q106 0 178 -57.5t97.5 -131 t25.5 -155.5zM756 371v2q0 127 -60.5 217t-165.5 90q-70 0 -129 -49q-29 -23 -30 -56q-8 -190 0 -389q2 -41 24 -59q53 -43 140 -43q78 0 124 33q97 72 97 254z" />
<glyph unicode="&#xff;" horiz-adv-x="962" d="M127 -340h2q94 0 192.5 77t145.5 185q8 23 -12 53q-31 53 -43 93q-68 201 -141.5 358.5t-112.5 212.5q-23 41 -50.5 55.5t-115.5 34.5q-16 4 -4 16q4 2 21.5 15.5t29.5 22t20 8.5q268 18 371 67q14 4 12 -6q0 -8 -6 -23q-2 -4 -9 -21t-10 -25.5t-7 -23t-4 -23.5t4 -17 q43 -94 186 -492q2 -8 7 -11t10 1t10 14q47 109 75.5 235t28.5 183q6 27 -12 49q-6 8 -18.5 13.5t-22.5 7.5l-37 7q-27 5 -41 9t0 17q74 63 86 63q227 0 348 27q8 2 11 -2t-1 -13q-25 -53 -55 -67q-18 -10 -72 -33q-29 -14 -51 -65q-14 -35 -98 -271.5t-131 -337.5 q-150 -319 -279 -467q-92 -102 -178 -102q-63 0 -104 45q-47 57 -52 125q-2 12 4.5 18t16.5 2q37 -14 86 -14zM236 1167q10 12 61 47t70 41q29 10 34 -14q6 -20 16.5 -41.5t18.5 -32t21.5 -26t15.5 -17.5q25 -25 2 -51q-35 -47 -119 -94q-29 -14 -45 -4q-20 12 -57 58 t-37 77q1 32 19 57zM631 1169q88 70 117 82q35 14 47 -4q59 -96 69 -106q29 -29 4 -62q-18 -27 -67 -67.5t-78 -38.5q-20 0 -55 43t-56 90q-14 34 19 63z" />
<glyph unicode="&#x152;" horiz-adv-x="2195" d="M866 1282h2q254 0 359 -137q23 -25 24 -2q4 16 4 41q0 12 -1 28.5t-1 22.5q0 16 23 14q92 -12 469 -14q201 -2 299 53q12 6 15 0t-1 -20q-43 -125 -37 -332q2 -12 -3 -17.5t-13 -0.5q-20 10 -41.5 31.5t-26.5 35.5q-29 72 -41 123q-6 20 -13 28.5t-19 6.5 q-117 -20 -297 -23q-23 0 -32 -8t-13 -31q-16 -80 -17 -352q0 -27 27 -33q43 -20 260 -20q68 0 96 26q8 6 17.5 24.5t19.5 27.5q27 27 86 41q12 6 16.5 2t0.5 -21q-47 -113 -48 -350q0 -49 -36 -14q-41 37 -62 135q-4 16 -10 24.5t-21 6.5q-115 -14 -325 -15q-20 0 -21 -41 q0 -199 15 -321q4 -35 26.5 -62.5t59.5 -36.5q76 -16 211 -12q104 2 178 60q29 23 63.5 72.5t55.5 101.5q6 16 10 18t14 -8q31 -31 23 -76q-12 -104 -86 -201q-59 -68 -146 -69q-141 -4 -534 -4q-152 0 -152 122q0 41 -2 62q0 23 -20 2q-139 -135 -365 -197 q-86 -23 -178 -22q-279 0 -434.5 160.5t-155.5 435.5q0 141 39 244.5t123 203.5q49 57 139 119t172 92q188 76 305 76zM782 1178h-2q-152 0 -245 -76q-160 -131 -160 -443q0 -264 134 -413.5t353 -149.5q150 0 246 76q135 102 135 287v301q0 100 -41 174 q-61 113 -156.5 178.5t-263.5 65.5z" />
<glyph unicode="&#x153;" horiz-adv-x="1490" d="M612 846h2q158 0 238 -121q14 -23 37 0q47 45 130 83t140 38q133 0 193.5 -84t52.5 -182q0 -20 20.5 -16.5t34.5 3.5q16 0 13 -14q-2 -8 -17.5 -25.5t-25.5 -21.5q-66 -31 -256 -60q-63 -12 -226 -26q-25 -2 -18 -35q16 -258 262 -258q82 0 152.5 35t107.5 71 q10 10 16.5 8.5t4.5 -16.5q-8 -49 -29 -69q-82 -78 -206 -130.5t-234 -52.5q-166 0 -238 131q-10 16 -41 0q-205 -131 -326 -131q-141 0 -240.5 88.5t-99.5 276.5q0 127 52.5 221t124.5 139q49 29 202 105q102 43 174 43zM459 733h-2q-57 0 -105 -53q-61 -72 -61 -219 q0 -166 70.5 -266.5t177.5 -100.5q57 0 106 45q61 61 62 234q0 152 -61.5 256t-186.5 104zM1051 745h-2q-45 0 -83 -55t-38 -147q0 -35 30 -35q106 0 193 14q39 6 39 37q0 186 -139 186z" />
<glyph unicode="&#x178;" horiz-adv-x="1320" d="M223 1061q-25 27 -37 37t-34.5 21t-57.5 20q-12 2 -55 8t-70 12q-10 2 -14 6t-4 8.5t4 8.5q88 70 102 67q6 0 46 -3l69 -5q49 -2 160 -6q141 0 321 18q27 0 11 -20q-31 -43 -64 -59q-27 -10 -68 -21q-25 -8 -8 -45q82 -160 209 -434q8 -23 23 4l126 226q85 151 113 206 q16 25 -16 29q-82 12 -115 22q-27 8 -12 21q84 72 102 65q4 0 32 -3t44 -5q61 -4 107 -4q70 0 241 18q12 2 15.5 -2t-4.5 -16q-35 -51 -66 -61q-8 -2 -48 -14.5t-54 -14.5q-31 -8 -86 -64q-141 -145 -297 -448q-35 -66 -35 -158q0 -242 8 -330q2 -33 33 -34q193 -27 223 -37 q18 -8 6 -19q-31 -29 -71.5 -51t-51.5 -20q-39 8 -133 12q-106 4 -151 4q-244 0 -412 -29q-10 -2 -13 0t1 13q31 55 98 77q63 25 137 39q37 10 43 62q14 84 15 262q0 78 -29 147q-59 137 -143.5 284t-139.5 206zM397 1516q10 12 58.5 45.5t66.5 42.5q29 10 33 -15 q10 -47 70 -119q25 -25 2 -49q-45 -57 -117 -94q-25 -12 -45 -2q-18 14 -52 57t-34 76q0 35 18 58zM854 1516q16 16 60 47.5t65 40.5q29 12 37 -13q14 -57 67 -114q27 -27 4 -54q-41 -59 -116 -94q-27 -16 -47 -4q-23 16 -53.5 57t-34.5 74q-5 37 18 60z" />
<glyph unicode="&#x2c6;" horiz-adv-x="874" d="M420 1100q-45 -61 -103 -121q-31 -35 -114 -41q-14 -2 -22.5 0t1.5 18q133 137 221 308q6 14 43 33.5t48 19.5q12 0 14 -14q51 -180 186 -297q12 -8 2 -25q-12 -16 -43.5 -31.5t-54.5 -19.5q-20 -6 -43 14q-68 63 -109 156q-12 23 -26 0z" />
<glyph unicode="&#x2dc;" horiz-adv-x="874" d="M584 1112h2q33 0 84 59q14 23 63 33q10 2 11 -3t-1 -13q-41 -111 -139 -180q-37 -25 -78 -25q-37 0 -133 53q-72 39 -90 37q-61 -6 -137 -102q-12 -16 -16 4q-6 39 18 80q35 57 94 108q47 39 86 39q35 0 139 -55q72 -35 97 -35z" />
<glyph unicode="&#x2000;" horiz-adv-x="847" />
<glyph unicode="&#x2001;" horiz-adv-x="1697" />
<glyph unicode="&#x2002;" horiz-adv-x="847" />
<glyph unicode="&#x2003;" horiz-adv-x="1697" />
<glyph unicode="&#x2004;" horiz-adv-x="565" />
<glyph unicode="&#x2005;" horiz-adv-x="423" />
<glyph unicode="&#x2006;" horiz-adv-x="282" />
<glyph unicode="&#x2007;" horiz-adv-x="282" />
<glyph unicode="&#x2008;" horiz-adv-x="210" />
<glyph unicode="&#x2009;" horiz-adv-x="337" />
<glyph unicode="&#x200a;" horiz-adv-x="94" />
<glyph unicode="&#x2010;" horiz-adv-x="727" d="M94 360q74 119 86 119q53 0 84 2q223 10 379 54q6 2 9 -0.5t2 -7.5t-5 -11q-20 -41 -57 -80t-66 -49q-57 -20 -198.5 -41.5t-186.5 -19.5q-43 2 -51 6.5t4 27.5z" />
<glyph unicode="&#x2011;" horiz-adv-x="727" d="M94 360q74 119 86 119q53 0 84 2q223 10 379 54q6 2 9 -0.5t2 -7.5t-5 -11q-20 -41 -57 -80t-66 -49q-57 -20 -198.5 -41.5t-186.5 -19.5q-43 2 -51 6.5t4 27.5z" />
<glyph unicode="&#x2012;" horiz-adv-x="727" d="M94 360q74 119 86 119q53 0 84 2q223 10 379 54q6 2 9 -0.5t2 -7.5t-5 -11q-20 -41 -57 -80t-66 -49q-57 -20 -198.5 -41.5t-186.5 -19.5q-43 2 -51 6.5t4 27.5z" />
<glyph unicode="&#x2013;" horiz-adv-x="1171" d="M633 489h2q328 0 440 11q10 2 10 -4.5t-10 -16.5q-31 -35 -91 -67.5t-120 -38.5q-158 -14 -481 -15q-231 0 -270 17q-20 6 -11 18q6 12 47 55.5t56 51.5q123 -11 428 -11z" />
<glyph unicode="&#x2014;" horiz-adv-x="1900" d="M868 489h2q825 0 938 11q10 2 11 -6q0 -6 -9 -17q-33 -35 -93 -67.5t-120 -36.5q-131 -14 -1161 -15q-279 0 -323 17q-20 6 -11 18q6 12 47 55.5t56 53.5q147 -13 663 -13z" />
<glyph unicode="&#x2018;" horiz-adv-x="471" d="M186 881h-2q-63 0 -86.5 44t-23.5 91q0 121 93 224t179 138q49 16 74 17q12 0 17 -4.5t0 -12.5t-17 -16q-166 -129 -166 -283q0 -88 80 -88q16 0 20 -7t-1 -18.5t-17 -21.5q-76 -63 -150 -63z" />
<glyph unicode="&#x2019;" horiz-adv-x="471" d="M295 1393h2q63 0 87 -44t24 -92q0 -121 -92.5 -225t-178.5 -135q-41 -18 -76 -18q-45 0 0 34q166 119 166 281q0 88 -80 88q-16 0 -20 7t1 17.5t17 20.5q74 66 150 66z" />
<glyph unicode="&#x201a;" horiz-adv-x="468" d="M389 170v-2q0 -106 -97 -247.5t-229 -203.5q-8 -6 -45.5 -17t-52.5 -11q-37 0 -10 22q219 176 219 377q0 49 -21.5 77t-50.5 34q-12 2 -17 10t-1 18.5t14 16.5q8 6 52.5 33.5t64.5 44.5q31 23 57 22q57 0 87 -51t30 -123z" />
<glyph unicode="&#x201c;" horiz-adv-x="796" d="M186 881h-2q-63 0 -86.5 44t-23.5 91q0 121 93 221t181 135q47 14 64 14q51 0 8 -32q-166 -119 -166 -275q0 -43 22.5 -65.5t59.5 -22.5q16 0 19 -7t-2 -18.5t-17 -21.5q-76 -63 -150 -63zM520 881h-2q-63 0 -86.5 44t-23.5 91q0 121 96 229.5t180 138.5q37 16 59 17 q29 2 32 -6.5t-19 -26.5q-72 -51 -120 -128t-48 -161q0 -88 80 -88q16 0 20 -7t-1 -18.5t-17 -21.5q-80 -63 -150 -63z" />
<glyph unicode="&#x201d;" horiz-adv-x="796" d="M295 1399h2q61 0 86 -44t25 -91q0 -121 -96.5 -227.5t-182.5 -141.5q-37 -16 -59 -16q-53 0 -11 32q70 49 118 127t48 162q0 88 -80 88q-16 0 -19 7.5t2 17.5t15 20q78 66 152 66zM627 1399h2q63 0 87.5 -44t24.5 -91q0 -121 -93 -221.5t-181 -135.5q-53 -14 -66 -14 q-51 0 -6 33q164 117 164 274q0 88 -80 88q-16 0 -20 7.5t1 17.5t17 20q29 27 74 46.5t76 19.5z" />
<glyph unicode="&#x201e;" horiz-adv-x="851" d="M389 170v-2q0 -106 -97 -247.5t-229 -203.5q-47 -27 -98 -28q-16 -2 -19 5t9 17q219 176 219 377q0 49 -21.5 77t-50.5 34q-20 6 -18 20t18 27q37 27 113 76q31 23 55 22q57 0 88 -51t31 -123zM772 170v-2q0 -106 -97 -247.5t-229 -203.5q-49 -25 -98 -28q-16 -2 -19 5 t11 17q217 178 217 377q0 49 -21.5 77t-50.5 34q-18 4 -16 19t20 28q12 10 50.5 34.5t60.5 41.5q31 23 53 22q57 0 88 -51t31 -123z" />
<glyph unicode="&#x2022;" horiz-adv-x="800" d="M502 705q23 12 35 4.5t10 -33.5q-6 -55 32.5 -165t90.5 -153q12 -12 -6 -41q-37 -59 -155 -137t-167 -78q-63 0 -136 122t-73 225q0 68 33 81q148 69 336 175z" />
<glyph unicode="&#x2026;" horiz-adv-x="1650" d="M360 299q-2 -53 15.5 -110.5t42.5 -86.5q16 -16 0 -34q-29 -33 -83 -65t-79 -32q-66 0 -105.5 71t-39.5 134q0 25 16 39q23 14 93.5 49t107.5 45q8 2 16 2t12 -3t4 -9zM942 295q6 -96 64 -193q12 -20 -2 -34q-25 -29 -88.5 -63t-81.5 -34q-63 0 -99.5 78t-36.5 133 q0 25 17 39q20 12 88.5 44t105.5 42q33 11 33 -12zM1522 293v-2q0 -49 17 -105.5t42 -83.5q16 -16 -2 -34q-29 -33 -85 -65t-85 -32q-66 0 -101.5 75t-35.5 140q0 23 16 39q16 10 87 38t114 40q33 10 33 -10z" />
<glyph unicode="&#x202f;" horiz-adv-x="337" />
<glyph unicode="&#x2039;" horiz-adv-x="665" d="M344 371q82 -76 135 -187q23 -47 23 -88q0 -18 -19.5 -45.5t-40.5 -44.5q-12 -10 -18 0q-35 106 -131 208.5t-178 129.5q-18 4 -15 18q14 35 47 50q100 53 211 175t138 199q8 20 22 7q6 -8 16.5 -35t8.5 -37q-33 -145 -201 -313q-16 -21 2 -37z" />
<glyph unicode="&#x203a;" horiz-adv-x="665" d="M309 432q-86 74 -133 184q-25 51 -24 91q0 18 19 45.5t40 42.5q14 10 18 0q35 -106 131.5 -209t180.5 -129q14 -4 12 -17q-12 -33 -47 -51q-100 -51 -211 -173t-137 -202q-6 -20 -21 -6q-8 8 -18 29.5t-8 32.5q29 147 200 325q16 19 -2 37z" />
<glyph unicode="&#x205f;" horiz-adv-x="423" />
<glyph unicode="&#x20ac;" d="M711 1239h2q150 0 211 -57q29 -31 28 -64q0 -20 -10 -47q-12 -35 -27 -106q-4 -14 -19 -32t-26 -18q-12 0 -12 15q0 82 -27 131q-23 45 -72.5 72.5t-113.5 27.5q-57 0 -91 -21.5t-69 -64.5q-76 -94 -96 -311q-2 -27 21 -27q31 -2 110 -2q248 0 367 15q14 0 0 -17 q-59 -63 -230 -80q-72 -6 -278 -6q0 -53 2 -88q0 -23 27 -22h67q203 0 361 14q10 0 0 -14q-63 -66 -232 -82q-74 -6 -215 -6q8 -70 25.5 -132.5t50.5 -125t90 -99.5t131 -37q70 0 133 56q63 61 105 145q6 12 18 6q6 -4 14.5 -22.5t6.5 -34.5q-10 -74 -56 -150 q-12 -23 -49 -47q-31 -23 -102.5 -38t-145.5 -15q-207 0 -340 121t-153 377q-86 2 -127 14q-12 4 -8 14q8 12 47 42t51 30q8 -2 31 -2q0 35 4 104q-20 2 -66 15q-14 4 -8 14q41 51 94 70q47 201 174 325q74 76 187 118t215 42z" />
<glyph unicode="&#x2122;" horiz-adv-x="860" d="M223 1124l-2 -92v-67q0 -8 10 -9q51 -8 60 -12q8 -2 6 -6q-33 -33 -35 -33q-37 6 -86 6q-8 0 -125 -10q-8 0 -2 8q14 25 35 31q4 2 14.5 4t12.5 2q8 2 16 10q20 20 20 131q0 37 -10 37h-53q-2 0 -4 -4t-9.5 -16l-17.5 -27q-2 -8 -15 -15t-19.5 -7t-6.5 4q12 29 23 108 q2 8 22 29q4 4 6 0q2 -10 23 -18q49 -8 115 -9q72 0 90 6.5t55 22.5q6 2 6 -4q-18 -47 -18 -102q0 -23 -27 -39q-6 -4 -6 4q-10 43 -14 69q-2 6 -11 4zM489 1098h-2q0 -49 -26 -129q-2 -6 2 -9.5t14 -5.5l20 -5q11 -3 17 -5t4 -4q-23 -31 -29 -31q-12 4 -69 4q-23 0 -72 -4 v4q4 25 25 31q41 12 49 31q25 49 24 121q0 27 -16 30h-53q-8 0 -4 7q14 25 28 28q74 18 125 19q4 0 15 -11q4 -10 26.5 -53t34.5 -69q2 -2 5 -3.5t5 0.5l64 95q6 20 12 20q10 4 40 8t60.5 7.5t32.5 3.5q8 0 8 -4q0 -6 -8 -18.5t-14 -12.5q-31 -6 -40 -25.5t-9 -68.5 q0 -45 10 -78q6 -16 27 -23q25 -4 41 -4q12 0 6 -10q-33 -25 -39 -25q-12 0 -43 1t-39 1q-29 0 -66 -6q-6 12 0 17q29 12 31 79q0 18 2 48t2 47h-4q-31 -43 -80 -154q-2 -6 -16.5 -22.5t-24.5 -20.5q-6 -2 -8 6q-31 113 -68 193z" />
<glyph unicode="&#xe000;" horiz-adv-x="855" d="M0 855h855v-855h-855v855z" />
<glyph unicode="&#xfb01;" horiz-adv-x="1163" d="M758 1389h2q74 0 122 -37t48 -99q0 -41 -33 -75q-29 -31 -92 -72q-27 -14 -33 8q-23 158 -170 158q-94 0 -129 -119q-49 -127 -49 -301q0 -23 41 -31q51 -8 196.5 -5t202.5 13q86 14 146 41q10 4 14 0t2 -14q-18 -135 -18 -412q0 -215 10 -301q2 -39 39 -43 q82 -16 108 -24q18 -6 4 -25q-63 -63 -86 -59q-39 6 -88 6q-31 2 -100 2q-178 0 -258 -14q-4 -2 -8 -1t-5 6t5 13q25 41 69 64q31 12 40.5 20t13.5 27q16 70 16 305q0 162 -10 264q-4 20 -10.5 29.5t-20.5 5.5q-72 -14 -287 -14q-23 0 -22 -27q0 -477 10 -533q8 -41 43 -47 q92 -18 113 -24q18 -6 2 -21q-76 -63 -84 -63q-16 2 -88 6q-78 4 -119 4q-172 0 -272 -18q-14 -2 -18.5 3t3.5 13q37 55 64 63q31 16 59 23q12 4 16.5 6t10.5 7t8 14.5t2 25.5q8 156 8 535q0 27 -20 33q-8 2 -58.5 7t-66.5 11q-18 4 -19.5 8t8.5 14q10 14 50.5 47t50.5 33 h22q6 -2 19 -2q20 0 22 35q12 166 113 291q86 102 229 180q119 60 232 60z" />
<glyph unicode="&#xfb02;" horiz-adv-x="1165" d="M717 1384h2q92 0 135 -53q10 -12 35 -6q27 10 131 70q10 6 15 3t1 -16q-29 -145 -28 -686q0 -414 10 -553q6 -39 39 -45q72 -8 108 -24q16 -6 2 -25q-61 -61 -77 -59q-33 4 -68 6q-61 4 -123 4q-133 0 -254 -14q-14 -2 -17 0t3 12q2 4 11 18l16 25q7 10 14 12 q10 8 30.5 16.5t22.5 8.5q18 12 23 35q18 74 18 477v143q-2 29 -21 19q-80 -47 -215 -47q-6 0 -39.5 -1.5t-48.5 -1.5q-25 0 -24 -26q0 -381 10 -531q6 -43 41 -49q41 -8 104 -24q23 -6 9 -21q-61 -61 -84 -61q-20 2 -95 6q-78 4 -106 4q-197 0 -277 -16q-12 -2 -15 2t3 12 q6 14 25.5 36.5t28 27t67.5 22.5q23 6 30 16.5t9 40.5q8 90 8 527q0 33 -20 34q-100 8 -127 19q-18 4 -20.5 8t9.5 16q88 78 103 78q16 0 24 -2q4 0 11.5 -1t9.5 -1q16 0 20 37q0 104 52 199q70 145 239 248q51 31 123 56t117 25zM596 1278h-2q-53 0 -107 -57 q-31 -39 -50 -137.5t-13 -221.5q4 -25 10 -33t29 -10q156 -14 268 8q37 6 37 43q0 158 -6 273q0 12 -10.5 35.5t-14.5 27.5q-31 37 -59.5 54.5t-81.5 17.5z" />
<glyph unicode="&#xfb03;" horiz-adv-x="1775" d="M635 1341h2q100 0 141 -67q12 -18 12.5 -45t-38.5 -62q-12 -14 -43 -36.5t-35 -26.5q-20 -8 -27 4q-14 45 -48 83t-85 38q-29 0 -55.5 -31t-33.5 -130t-1 -208q2 -23 9 -30t32 -11q82 -10 295 -6q29 2 28 31q0 152 92.5 274.5t237.5 200.5q129 70 248 70q66 0 115 -37 t49 -101q0 -43 -35 -77q-29 -31 -84 -68q-31 -14 -33 8q-12 66 -55 109t-119 43q-53 0 -100 -47q-74 -74 -74 -369q0 -25 37 -31q57 -6 186 -4t213 10q74 6 152 39q10 4 14 0t2 -12q-18 -137 -18 -408q0 -211 10 -303q2 -37 37 -41q82 -16 109 -24q23 -8 6 -25 q-61 -63 -82 -59q-41 6 -90 6q-31 2 -103 2q-184 0 -264 -18q-12 -4 -15 0t7 18q31 41 74 63q47 20 55 50q16 70 16 307q0 213 -8 262q-4 23 -10 32t-21 7q-74 -14 -290 -14q-23 0 -23 -27q0 -481 10 -535q8 -41 41 -47q88 -16 106.5 -24t2.5 -23q-68 -61 -82 -61 q-23 2 -88 6q-74 4 -103 4q-147 0 -282 -16q-10 -2 -12.5 2t4.5 10q6 14 26.5 37.5t32.5 27.5q18 8 53 19q20 8 28.5 19.5t10.5 43.5q10 215 10 527q0 31 -18 30h-322q-25 0 -24 -26q0 -475 10 -529q6 -27 14.5 -35t28.5 -12q78 -14 94 -20q18 -4 8 -19q-16 -23 -46.5 -47 t-43.5 -22q-37 4 -82 6q-61 4 -106 4q-180 0 -272 -18q-14 -4 -18.5 2t3.5 14q8 14 29.5 38.5t30.5 26.5q12 4 30.5 11.5t30.5 11.5q25 6 31 15.5t8 43.5q8 156 8 525q0 35 -20 35q-119 12 -144 22q-25 8 -6 25q76 76 94 75q8 0 30 -2t32 -2q18 0 20 31q8 98 45 186 q53 135 213 236q105 65 195 65z" />
<glyph unicode="&#xfb04;" horiz-adv-x="1783" d="M635 1341h2q100 0 141 -67q12 -18 12.5 -45t-38.5 -62q-12 -14 -43 -36.5t-35 -26.5q-23 -8 -27 4q-14 45 -48 83t-85 38q-29 0 -55 -31q-49 -59 -35 -352q2 -25 31 -27q98 -12 303 -4q31 0 30 39q6 305 326 471q115 59 203 59q111 0 158 -53q12 -16 32 -4q23 10 71 37 t58 31q8 6 13.5 3t3.5 -16q-29 -133 -29 -686q0 -463 10 -555q2 -37 39 -43q74 -10 109 -24q16 -8 0 -25q-12 -16 -42 -38.5t-38 -20.5q-33 4 -68 6q-57 4 -121 4q-123 0 -251 -14q-14 -2 -17.5 0t2.5 12q29 51 39 55q12 8 31.5 16.5t21.5 8.5q16 10 25 35q18 74 18 477v147 q-2 27 -20 17q-78 -39 -211 -43q-47 -2 -102 -2q-25 0 -25 -27q0 -481 10 -537q8 -41 41 -47q74 -14 113 -26q16 -8 0 -21q-66 -66 -90 -61q-8 0 -24.5 2t-30 3t-25.5 1q-57 4 -98 4q-190 0 -281 -14q-10 -2 -14 2t0 10q6 14 28.5 38.5t30.5 29.5q16 4 49 16q23 8 30 19.5 t9 43.5q10 215 10 521q0 33 -18 32q-47 -2 -184 0l-138 2q-25 0 -24 -26q0 -475 10 -529q6 -27 14.5 -35t28.5 -12q59 -10 90 -22q25 -6 12 -19q-18 -20 -48.5 -44.5t-41.5 -22.5q-31 2 -84 6q-66 4 -108 4q-176 0 -268 -18q-14 -4 -18.5 2t3.5 14q8 14 29.5 38.5t30.5 26.5 q12 4 30.5 11.5t30.5 11.5q25 6 31 15.5t8 43.5q8 156 8 523q0 35 -20 34q-117 12 -142 23q-25 8 -8 27q70 74 96 73q8 0 30 -2t28 -2q20 0 22 33q8 100 45 184q53 137 213 238q105 65 195 65zM1200 1276h-2q-63 0 -106 -62q-78 -104 -62 -362q2 -23 8 -27t29 -6 q154 -14 279 6q37 6 36 43q0 188 -2 269q-4 41 -16 61q-60 78 -164 78z" />
</font>
</defs>
</svg>
