<?xml version="1.0" standalone="no"?>
<!DOCTYPE svg PUBLIC "-//W3C//DTD SVG 1.1//EN" "http://www.w3.org/Graphics/SVG/1.1/DTD/svg11.dtd" >
<svg xmlns="http://www.w3.org/2000/svg">
<metadata>
This is a custom SVG webfont generated by Font Squirrel.
Copyright   :  2002 2003 Adobe Systems Incorporated All Rights Reserved
Designer    : Robert Slimbach
Foundry URL : httpwwwadobecomtype
</metadata>
<defs>
<font id="webfontI2QfvC6f" horiz-adv-x="1001" >
<font-face units-per-em="2048" ascent="1425" descent="-623" />
<missing-glyph horiz-adv-x="413" />
<glyph unicode=" "  horiz-adv-x="413" />
<glyph unicode="&#x09;" horiz-adv-x="413" />
<glyph unicode="&#xa0;" horiz-adv-x="413" />
<glyph unicode="!" horiz-adv-x="595" d="M569 1264q23 2 29 -3.5t-10 -31.5q-53 -70 -134 -373t-104 -446q-2 -23 -28 -13q-59 33 -95 84q-8 10 -14 82t-4 196t18.5 240.5t40.5 149.5q25 39 92 59q139 44 209 56zM346 301q-4 -76 43 -143q16 -49 17 -74q-18 -27 -61.5 -53.5t-72.5 -32.5q-53 -4 -91 35t-40 80 q-10 8 -16 32.5t-2 38.5q10 14 60 45t85 43q72 33 78 29z" />
<glyph unicode="&#x22;" horiz-adv-x="706" d="M410 1397h2q33 0 18 -90q-12 -80 -46 -171.5t-56 -127.5q-18 -29 -69.5 -74t-80.5 -60q-16 -8 -22 -8t-5 5.5t7 15.5q31 53 59.5 207.5t13.5 218.5l33 17l54 30q26 14 54 25.5t38 11.5zM696 1397h2q29 0 19 -80q-14 -76 -48 -171t-61 -136q-18 -29 -66 -72t-75 -55 q-29 -14 -29 -6q0 4 6 14q27 47 55.5 200.5t16.5 219.5q6 2 47 25.5t79 42t54 18.5z" />
<glyph unicode="#" d="M528 418h-133q-20 0 -26 -21q-55 -188 -99 -270q-29 -51 -100 -100q-10 -8 -15 -4t-1 16q63 150 120 356q4 23 -8 23q-121 0 -192 16q-16 4 -6 15l16 16l28 29q13 14 29.5 29.5t28.5 24.5t16 7q76 -10 121 -10q10 0 15 16l45 158q8 20 -15 20q-150 0 -192 19q-16 4 -8 12 q102 113 120 109q47 -12 117 -13q16 0 23 17l71 276q2 8 41 29.5t66 30.5q6 2 8 -1.5t0 -7.5q-16 -63 -51 -187t-41 -144q-2 -12 14 -19h127q4 0 11.5 8.5t9.5 12.5l80 293q4 16 98 57q8 4 11 -2t-1 -21q-14 -57 -48 -170.5t-44 -154.5q-4 -23 16 -23q152 0 232 25 q10 2 10 -4q0 -4 -4 -9q-53 -72 -133 -102.5t-142 -30.5q-16 0 -24 -20l-43 -156q-8 -23 8 -22q104 -4 203 10q4 2 7 0t3 -6t-4 -10q-96 -113 -242 -113q-18 0 -26 -25q-55 -199 -93 -274q-4 -10 -23.5 -25.5t-38.5 -29t-21 -15.5q-14 -10 -15 4q-2 6 2 17q25 57 101 323 q9 21 -9 21zM625 739h-138q-18 0 -22 -18l-45 -156q-6 -23 10 -22h133q16 0 17 14l51 168q0 14 -6 14z" />
<glyph unicode="$" d="M709 1227q86 -2 161 -41q68 -39 60 -111q-6 -49 -49 -98t-74 -68q-6 -4 -10 -6t-9.5 -2t-8.5 6t-1 17q16 84 -12.5 143t-99.5 76q-14 -68 -41 -210l-35 -185q-4 -25 16 -33q76 -31 105.5 -44.5t79 -41t68 -51t33.5 -60.5t15 -84q0 -127 -59.5 -204.5t-177.5 -141.5 q-88 -51 -211 -72q-16 -4 -22.5 -10t-12.5 -26q-33 -119 -53.5 -160t-59.5 -64q-23 -10 -24.5 -11t-1.5 19q29 100 47 199q6 37 -19 37q-174 0 -280 72q-16 10 -25.5 42.5t2.5 47.5q72 74 105 196q14 43 34.5 32t18.5 -46q-10 -129 33 -190q39 -55 129 -68q8 -2 19 4t13 19 l78 364q0 33 -20 39q-158 55 -219.5 116.5t-61.5 170.5q0 225 232 352q84 47 196 70q8 2 15.5 12t7.5 18l20 129q2 18 86 74q12 8 19.5 5t5.5 -13q-8 -57 -33 -189q-8 -30 21 -30zM334 932v-2q0 -117 137 -162q27 -6 33 12l69 373q-88 -4 -163.5 -64.5t-75.5 -156.5z M686 299v2q0 106 -129 160q-25 10 -31 -25l-40 -185q-26 -116 -29 -138q-2 -18 4 -23.5t20 -1.5q205 45 205 211z" />
<glyph unicode="%" horiz-adv-x="1359" d="M551 1239h2q41 0 98 -39q68 -47 178 -47q154 0 236 49q23 12 41 31q8 8 24.5 30.5t22.5 26.5q8 6 62.5 28.5t68.5 27.5q37 12 23 -17q-4 -10 -15 -22q-233 -322 -585.5 -759t-481.5 -552q-23 -20 -71 -46t-76 -32q-14 -2 -20.5 -1t-7.5 5t4 10.5t16 14.5 q145 133 468.5 529t489.5 632q14 23 6 22q-4 0 -14 -6q-115 -59 -240 -59h-55q-10 0 -15 -3t-3 -13q2 -8 2 -58q0 -203 -158 -346q-39 -35 -112.5 -71.5t-133.5 -36.5q-92 0 -140 62.5t-48 158.5q0 174 100 307q47 59 195 133q82 41 139 41zM465 1159h-2q-72 0 -113 -117.5 t-41 -232.5q0 -72 26.5 -125t76.5 -53q39 0 69.5 40t47 100t23.5 117.5t7 104.5q0 66 -23.5 116t-70.5 50zM1104 680h2q90 0 135 -66.5t45 -167.5q0 -106 -41 -204.5t-117 -159.5q-47 -39 -122.5 -77t-133.5 -38q-94 0 -143 67.5t-49 158.5q0 221 141 354q43 39 135 86 q27 16 76 31.5t72 15.5zM1014 592h-2q-68 0 -103 -107.5t-35 -214.5q-2 -104 31 -155.5t82 -51.5q41 0 70.5 35t44 90.5t20.5 101.5t6 89q0 88 -28.5 150.5t-85.5 62.5z" />
<glyph unicode="&#x26;" horiz-adv-x="1492" d="M854 1276h2q76 0 119 -35q68 -49 26 -113q-39 -59 -51 -131q-4 -31 -18 -16q-23 18 -29 66q0 39 -18 67q-45 78 -162 78q-86 0 -129 -62.5t-43 -156.5q0 -154 119 -195q53 -18 104 -14q29 0 -2 -37q-49 -66 -86 -65h-96q-236 0 -236 -216q0 -133 84 -231t256 -98 q315 0 400 344q6 25 13 24.5t21.5 -25t17.5 -61.5t-5 -55q-33 -76 -113 -160t-168 -129q-176 -92 -346 -92q-219 0 -323.5 103.5t-104.5 255.5q0 150 119 243q31 25 176 105q29 14 -2 41q-59 63 -60 149q0 168 175 289q180 127 360 127zM662 391v2q0 41 51 107.5t127 113.5 q98 61 278 62q156 0 227.5 22.5t86 72.5t-6.5 130q-4 20 2.5 28.5t17.5 5.5t23 -15q39 -33 35 -99.5t-49 -130.5q-70 -100 -147 -143q-70 -39 -170 -47q-20 0 -106.5 -5.5t-149.5 -7.5q-98 -2 -128 -37.5t-32 -132.5q0 -23 -6 -25.5t-17 7.5q-36 37 -36 92z" />
<glyph unicode="'" horiz-adv-x="421" d="M406 1407h2q18 0 22 -18.5t-2 -71.5q-10 -78 -43 -169t-53 -130q-18 -31 -66.5 -75t-75.5 -58q-16 -8 -23 -9.5t-7 5t4 16.5q29 57 54.5 210t8.5 216q154 84 179 84z" />
<glyph unicode="(" horiz-adv-x="804" d="M109 215v2q0 543 309 936q82 102 181 184t181 105q12 4 35 3t33 -7q8 -4 5 -9.5t-13 -11.5q-186 -111 -305 -280q-236 -334 -236 -850q0 -213 52 -346.5t114 -190.5q37 -31 125 -59q18 -4 -2 -25q-25 -31 -65 -49t-68 -18q-160 0 -253 177t-93 439z" />
<glyph unicode=")" horiz-adv-x="804" d="M719 838v-2q0 -547 -311 -938q-80 -102 -180.5 -185.5t-184.5 -105.5q-29 -12 -68 2q-4 2 -5 6t3 8t13 8q184 109 303 281q240 334 239 856q0 213 -52 345t-114 185q-37 33 -124 62q-14 4 0 24q27 29 66.5 47.5t70.5 18.5q158 0 251 -176t93 -436z" />
<glyph unicode="*" horiz-adv-x="737" d="M788 1174q-4 -4 -19 -29t-29.5 -42.5t-22.5 -19.5l-187 -51q25 -31 93.5 -97.5t97.5 -82.5q10 -6 6 -11t-18 -10q-86 -8 -107 7q-53 33 -121 98q-4 6 -12 4t-10 -12q-2 -12 -14 -56l-16 -62q-5 -19 -10 -59t5 -42q2 -6 -2 -9.5t-12 -1.5q-49 0 -72 35q-18 27 -8 80 q10 61 35 148q4 10 -0.5 16t-16.5 4q-168 -45 -248 -76q-18 -8 -6 13q39 84 78 94q63 27 172 57q-41 29 -139 162q-12 12 2 24q12 12 48 26.5t50 14.5q68 -109 113 -155q31 86 65 149q20 35 52 47q14 4 52 4t52 -4q4 -8 -2 -14q-29 -25 -60.5 -83t-48.5 -107q-8 -14 13 -15 q61 27 217 62q32 6 30 -6z" />
<glyph unicode="+" horiz-adv-x="1136" d="M614 868h2q14 0 15 -73q0 -23 -1 -120t-1 -167q0 -31 22 -31q72 -2 209 4t139 6q14 0 15.5 -4t-6.5 -14q-10 -14 -56.5 -50t-64.5 -40q-143 -25 -228 -25q-37 0 -36 -43q0 -31 -13 -258q-2 -27 -42 -63.5t-70 -50.5q-4 -2 -7.5 0t-3.5 10v344q0 25 -12 43t-31 18 q-242 0 -311 19q-27 4 -10 20q6 6 30.5 49l28.5 50q10 16 23 12q76 -29 270 -29q12 0 12 19q0 209 -20 309l78 38q57 27 69 27z" />
<glyph unicode="," horiz-adv-x="522" d="M293 354h2q45 0 67.5 -44t22.5 -97q0 -133 -120 -277.5t-255 -209.5q-43 -23 -108 -33q-14 -2 -19.5 2t-2.5 10t14 12q127 92 196.5 183.5t69.5 214.5q0 37 -17.5 62.5t-42.5 33.5q-18 4 -19 16.5t15 22.5l150 90q27 14 47 14z" />
<glyph unicode="-" horiz-adv-x="724" d="M88 358q6 6 29.5 39t44 57.5t26.5 24.5q25 -2 99 2q236 14 370 51q10 2 11 -6q0 -6 -9 -16q-25 -39 -68.5 -77t-74.5 -50q-68 -25 -198 -41t-189 -16q-53 0 -55 12q0 6 14 20z" />
<glyph unicode="." horiz-adv-x="520" d="M344 309q-12 -51 3 -114.5t40 -94.5q12 -16 -8 -37q-33 -33 -88 -65.5t-82 -32.5q-68 0 -99.5 76t-23.5 141q4 27 23 41q25 16 94 51t108 45q10 4 18.5 4.5t11.5 -4t3 -10.5z" />
<glyph unicode="/" horiz-adv-x="901" d="M936 1354h2q10 2 12 -4.5t-6 -20.5q-143 -303 -413.5 -802.5t-405.5 -690.5q-12 -16 -76.5 -49t-81.5 -33q-10 -2 -10 2t6 15q162 236 426 725t393 780q6 12 70 43t84 35z" />
<glyph unicode="0" d="M696 1239h2q141 0 213 -116.5t72 -301.5q0 -221 -70.5 -421.5t-214.5 -303.5q-76 -53 -171 -90t-162 -37q-147 0 -221 124t-74 315q0 180 51 333.5t131 257.5q66 82 164 144q151 96 280 96zM543 1122h-2q-76 0 -131.5 -93t-80 -227t-24.5 -284q0 -182 52.5 -309 t160.5 -127q63 0 110.5 59.5t73 151.5t37 185t11.5 181q0 225 -46 344t-161 119z" />
<glyph unicode="1" d="M778 1239h2q10 2 13.5 -2t-5.5 -18q-53 -90 -86 -330q-76 -580 -79 -737q-2 -29 5 -40.5t34 -13.5q141 -18 176 -30q18 -8 6 -21q-14 -14 -53 -38.5t-50 -24.5l-116 10q-74 6 -158 6q-252 0 -350 -25q-27 -6 -27 2q0 6 10 15q51 51 82 61q43 16 140 35q31 8 38 41 q35 172 129 860q2 23 -1 29t-13 4q-86 -18 -213 -33q-18 0 -10 17q12 16 47 44.5t49 30.5q137 23 170 35q12 4 64 41q47 33 98 53q69 25 98 29z" />
<glyph unicode="2" d="M616 1239h2q143 0 212 -92t69 -223q0 -137 -77 -253t-216 -245q-59 -57 -248 -207q-25 -18 2 -29q33 -14 135.5 -27t219.5 -13q80 0 135 36.5t100 118.5q16 23 19 -4q8 -49 -21 -94q-160 -229 -391 -230q-111 0 -266 13q-102 10 -152 10q-68 0 -100 -16q-14 -6 -19.5 0 t3.5 20q51 94 122 141q25 12 72 45q428 315 428 668q0 119 -51 187.5t-141 68.5q-106 0 -166 -97t-56 -226v-11v-13q0 -3 -4 -6t-12 1q-39 2 -64.5 40t-25.5 83q0 55 67.5 134t151.5 130q143 90 272 90z" />
<glyph unicode="3" d="M643 1239h2q117 0 178.5 -62.5t61.5 -156.5q0 -121 -137 -221q-20 -14 -117 -76q-14 -10 -11 -18.5t17 -10.5q125 -27 198.5 -85t73.5 -189q0 -217 -278 -397q-211 -125 -389 -125q-96 0 -148 22q-68 35 -67 98q0 33 55 132q8 20 22 16q4 0 5 -8q10 -154 258 -154 q141 0 220 82t79 197q0 125 -67 190.5t-191 65.5q-68 0 -144 -31q-12 -6 -12 8q0 8 4 19q33 76 88 96q143 51 222 116.5t79 167.5q0 160 -151 160q-55 0 -113.5 -30.5t-91.5 -59.5t-88 -84q-25 -29 -23 8q14 63 29 80q68 90 182.5 170t253.5 80z" />
<glyph unicode="4" d="M805 1280q-31 -84 -158 -270q-166 -260 -403 -535q-25 -25 6 -39q74 -35 262 -35q23 0 33 33q49 227 41 301q-2 25 16 33q37 10 118 57t126 80q20 12 22 -16q0 -8 -2 -23q0 -12 -90 -442q-6 -31 25 -31q133 0 219 68q12 10 12 0q2 -6 -4 -19q-12 -47 -63 -84 q-74 -53 -193 -63q-25 0 -33 -35q-31 -121 -49 -240q-12 -88 -10 -118q2 -12 1 -20.5t-7 -10.5t-21 0q-84 12 -126 61.5t-38 116.5q4 43 27 193q8 51 -27 51q-59 2 -212.5 15.5t-157.5 13.5q-61 2 -101 -21q-25 -14 -24 8q0 27 51 74q162 156 336 382t225 357q6 23 19 37 q49 59 155 150q27 20 31 10t-6 -39z" />
<glyph unicode="5" d="M631 653h2q106 0 188 -65.5t82 -194.5q0 -123 -73.5 -210t-200.5 -167q-190 -119 -379 -118q-96 0 -148 22q-68 35 -67 100q0 29 53 130q12 27 23 16q4 -2 4 -8q6 -154 260 -154q139 0 209.5 75t70.5 189q0 109 -67.5 175.5t-163.5 66.5q-59 0 -133 -21.5t-115 -52.5 q-25 -23 -26 4q-2 12 4 25q49 92 84.5 271t40.5 323q2 25 52 86t72 76q12 6 21 -2q41 -70 231 -70q223 0 328 127q20 23 23 -4q2 -8 0 -19q-12 -59 -41 -102q-147 -213 -428 -213q-104 0 -131 4q-23 4 -33 -35q-31 -137 -84 -305q-6 -18 -1 -28.5t27 -0.5q210 80 316 80z " />
<glyph unicode="6" d="M721 727h2q98 0 157.5 -68.5t59.5 -183.5q0 -143 -73.5 -238.5t-211.5 -185.5q-127 -82 -266 -82q-150 0 -233.5 116t-83.5 298q0 451 360 735q96 80 213 129t205 49q143 0 170 -108q2 -12 -2 -19.5t-9 -7.5t-12 6q-18 12 -72.5 23.5t-103.5 11.5q-213 0 -346 -141 q-168 -184 -168 -547q0 -186 67.5 -299t190.5 -113q86 0 131 61.5t43 168.5q0 106 -54 159.5t-122 53.5q-84 0 -174 -64q-12 -6 -16 -4t-2 12q2 14 16 41t31 39q188 158 303 158z" />
<glyph unicode="7" d="M725 1161h2q229 0 268 70q12 25 21 2q6 -12 4 -31q-4 -59 -57 -168q-41 -84 -103 -178l-152 -234l-165 -253q-68 -106 -119 -199q-66 -117 -94 -254q-6 -31 -35 -20q-37 8 -71 46t-27 70q10 66 120 215l139 185l150 202l117 167q61 91 88 143q6 14 9 22t1 11.5t-7 4.5 t-13 -1q-98 -20 -391 -21q-150 0 -211 10q-49 8 -69.5 23.5t-18.5 52.5q2 35 60 114t87 103q23 18 31 0q25 -53 99.5 -67.5t336.5 -14.5z" />
<glyph unicode="8" d="M709 1274h2q90 0 155.5 -62.5t65.5 -160.5q0 -127 -101 -224q-104 -98 -153 -137q-18 -14 4 -28l70 -44q47 -29 67.5 -44t48 -41.5t37.5 -59.5t10 -76q0 -180 -266 -346q-131 -80 -270 -80q-129 0 -224.5 59.5t-95.5 192.5q0 96 93 180q14 12 188 150q23 23 -6 41 q-137 90 -137 229q0 68 21.5 124.5t67.5 103.5t74.5 70.5t83.5 62.5q134 90 265 90zM573 1163h-2q-80 0 -129 -59.5t-49 -157.5q0 -63 39 -114.5t148 -106.5q27 -14 47 0q127 84 127 229q0 80 -45.5 144.5t-135.5 64.5zM508 76h2q88 0 140 56t52 128q0 80 -62 137.5 t-191 122.5q-35 16 -56 0q-113 -96 -112 -223q2 -86 53 -153.5t174 -67.5z" />
<glyph unicode="9" d="M647 1239h2q154 0 230.5 -123t76.5 -297q0 -276 -92 -458.5t-276 -325.5q-190 -152 -406 -152q-47 0 -80 15q-37 14 -49 43q-8 25 -30 53q-14 20 -25 51q-10 25 2 31q6 2 16 -8q63 -80 230 -80q252 0 369.5 184t117.5 502q0 104 -22.5 200.5t-80 170t-136.5 73.5 q-70 0 -123.5 -68.5t-51.5 -205.5q2 -104 62.5 -170t136.5 -66t148 49q12 10 16 8.5t2 -18.5q-2 -20 -16.5 -40.5t-24.5 -28.5q-74 -63 -164 -99.5t-137 -36.5q-90 0 -157.5 73t-69.5 196q-2 133 54 229t169 182q159 117 309 117z" />
<glyph unicode=":" horiz-adv-x="587" d="M410 836q14 2 21 -1.5t5 -11.5q-10 -51 7.5 -112.5t41.5 -94.5q12 -18 -8 -36q-49 -49 -123 -80q-27 -12 -43 -13q-63 0 -99 77t-28 138q2 25 21 39q25 16 100.5 53.5t104.5 41.5zM379 309q-12 -51 3 -114.5t40 -94.5q12 -16 -8 -37q-35 -35 -89.5 -66.5t-80.5 -31.5 q-68 0 -99.5 76t-23.5 141q4 27 22 41q25 16 94.5 51t108.5 45q10 4 17.5 4.5t11.5 -4t4 -10.5z" />
<glyph unicode=";" horiz-adv-x="589" d="M403 836h3q14 2 21 -1.5t5 -11.5q-10 -51 7.5 -112.5t41.5 -94.5q12 -18 -8 -36q-49 -49 -121 -80q-25 -12 -43 -13q-68 0 -103.5 76t-25.5 139q4 25 21 39q25 16 100 53.5t102 41.5zM328 354h2q45 0 67.5 -44t22.5 -97q0 -131 -120 -277.5t-255 -209.5q-47 -27 -108 -35 q-14 -2 -19.5 2t-2.5 10t13 12q127 96 197 185.5t70 212.5q0 76 -60 96q-18 6 -19 18.5t15 22.5q119 74 150 88q29 16 47 16z" />
<glyph unicode="&#x3c;" horiz-adv-x="989" d="M133 473q207 63 371 170t336 262q16 16 16 -12q0 -14 -9 -51t-16 -45q-74 -94 -193.5 -188.5t-207.5 -147.5q-6 -4 -6 -14.5t6 -14.5q98 -55 219 -161.5t150 -164.5q18 -35 -25 -135q-4 -8 -7 -12t-5 -5t-6 1t-7 5l-10 9q-250 283 -559 408q-18 4 -47 67q-8 23 0 29z" />
<glyph unicode="=" horiz-adv-x="1136" d="M1001 662q18 0 11 -13q-14 -18 -55.5 -56t-49.5 -40q-156 -27 -479 -27q-231 0 -289 15q-18 2 -8 24l74 86q16 18 31 17q59 -16 186 -17q409 -1 579 11zM981 305q18 0 10 -10q-18 -25 -56 -61.5t-48 -36.5q-166 -27 -479 -27q-240 0 -289 16q-16 2 -8 21l75 84 q16 20 29 18q63 -14 188 -14q396 -2 578 10z" />
<glyph unicode="&#x3e;" horiz-adv-x="989" d="M846 375q-207 -66 -373 -171.5t-334 -258.5q-16 -14 -16 12q0 14 11 51t18 47q76 96 194.5 192.5t196.5 139.5q4 4 5 14.5t-5 14.5q-96 55 -212 161.5t-149 163.5q-8 18 -2 60.5t21 79.5q12 27 37 0q260 -293 561 -408q20 -10 47 -67q8 -29 0 -31z" />
<glyph unicode="?" horiz-adv-x="884" d="M641 1262q115 2 174 -54.5t59 -140.5q0 -41 -11 -80t-21.5 -62.5t-45 -61.5t-47 -49l-65.5 -56t-63 -56q-143 -127 -144 -223q0 -43 10 -67q8 -23 -10 -25q-59 -2 -102 27.5t-43 79.5q0 29 31.5 71.5t134.5 159.5q98 109 98 258q2 72 -34 116t-91 44q-74 0 -124 -61.5 t-50 -153.5q0 -31 6 -70q2 -12 -3 -15t-19 -3q-47 0 -84 35.5t-35 80.5q4 41 56 97.5t124 93.5q158 113 299 115zM471 301q-4 -78 43 -141q16 -53 16 -76q-18 -27 -61 -53.5t-72 -32.5q-55 -4 -93 35t-40 80q-10 8 -16 32.5t-2 38.5q10 16 60 46t87 42q64 39 78 29z" />
<glyph unicode="@" horiz-adv-x="1660" d="M1020 819h2q43 0 63 -20q16 -12 23 -6q4 10 22 18q61 35 105 41q10 2 12 -4t-6 -17q-31 -41 -69.5 -210.5t-47.5 -313.5q-10 -186 78 -186q92 0 161 85t96.5 185.5t27.5 186.5q0 236 -132 370.5t-380 134.5q-283 0 -481 -188q-236 -221 -236 -616q0 -248 134 -395.5 t369.5 -147.5t395.5 131q10 8 15.5 10t6.5 -3t-3 -19q-16 -41 -35 -64q-203 -176 -498 -176q-256 0 -405.5 161t-149.5 429q0 485 426 788q111 78 257.5 132.5t283.5 54.5q252 0 403.5 -144.5t151.5 -388.5q0 -199 -97.5 -356.5t-271.5 -249.5q-100 -51 -190 -49 q-70 0 -101 74q-27 63 -18 184q2 14 -2 18t-10.5 0t-12.5 -12q-94 -127 -205 -199q-92 -59 -153 -59q-33 0 -58.5 41t-25.5 125q0 113 42 230.5t111 199.5q41 49 130.5 108.5t154.5 85.5q76 31 117 31zM913 721h-2q-68 0 -106 -51q-57 -70 -90 -185.5t-33 -218.5 q0 -98 43 -98q49 0 113.5 86t95.5 162q14 37 43 133t37 119q4 12 5 18t-3 11t-15 10q-39 14 -88 14z" />
<glyph unicode="A" horiz-adv-x="1396" d="M930 1286h2q23 0 2 -39q-17 -31 -17 -83q0 -29 5 -64q6 -68 39 -213q92 -418 192 -668q27 -68 44 -92.5t48 -26.5q121 -18 148 -26q8 -3 8 -8.5t-8 -12.5q-84 -59 -105 -59q-14 2 -46 3t-48 1q-35 2 -119 2q-193 -4 -307 -25q-6 -2 -9 -1q-5 0 -3 3q0 6 8 17q18 29 57 49 l68 25q23 10 16 36q-12 66 -63 263q-6 27 -14.5 31.5t-22.5 -3.5q-68 -32 -223 -31q-46 0 -101 3q-31 2 -45 -23l-72 -120l-55 -87q-20 -39 10 -41q119 -14 173 -30q20 -6 6 -21q-27 -20 -62 -40.5t-45 -18.5q-8 0 -35.5 4t-65.5 7t-77 3q-180 0 -258 -25q-7 -1 -11 -1h-3 q-3 1 -3 4q0 7 11 18q39 49 82 61l92 27q35 14 63 47q53 59 156 246q4 6 6 11t1 10t-2 7.5t-5 8.5t-6 10q-8 16 0 27q25 29 61 49q25 20 35 37q141 240 252 522l10 31q8 25 13 38q6 27 18 37q187 121 205 121zM690 477h2q76 0 96 10q21 9 22 26q0 36 -10.5 85t-36 141.5 t-36.5 137.5q-4 14 -9 14q-6 0 -16 -19q-41 -100 -167 -350q-5 -4 -6 -8q0 -2 1 -4q4 -6 6.5 -8t16.5 -8q33 -17 137 -17z" />
<glyph unicode="B" horiz-adv-x="1228" d="M719 1282h2q395 0 395 -262q0 -106 -62.5 -176t-189.5 -117q-8 -2 -10 -7t2 -10t12 -8q139 -29 211 -90q76 -61 76 -168q0 -80 -25.5 -143t-75.5 -108.5t-96.5 -73t-113.5 -58.5q-188 -84 -555 -84q-147 0 -258 5q-15 0 -15 6q0 5 9 12q10 10 71 51q10 6 72 21 q25 6 41 30q31 45 76 451q37 393 41 475q4 45 26 88q10 14 5 20.5t-25 4.5q-131 -10 -258 -43q-12 -4 -15.5 1t7.5 15q39 47 86 66q92 37 267 69.5t300 32.5zM659 1174h-2q-29 0 -41 -7q-27 -6 -30 -43q-23 -254 -43 -419q-4 -25 1 -30t21 1q23 16 47 18q123 16 191.5 69.5 t68.5 182.5q0 88 -50 158t-163 70zM651 610h-2q-55 0 -84 -12q-33 -10 -39 -35q-23 -201 -39 -287q-29 -143 -45 -159q-11 -16 -11 -24q0 -5 4 -8q5 -3 18 -5q51 -10 97 -10q63 0 116 18q94 14 156.5 86t62.5 193q-1 243 -234 243z" />
<glyph unicode="C" horiz-adv-x="1226" d="M932 1284h2q135 0 209 -53q35 -23 43 -55q2 -8 2 -17q0 -25 -19 -53q-12 -16 -25.5 -43t-27.5 -60.5t-18 -41.5q-16 -33 -45 -48q-8 -4 -10.5 0.5t-2.5 18.5q1 26 2 47q0 73 -16 106q-55 104 -217 105q-154 0 -268 -105q-182 -172 -183 -522q0 -227 112 -343t294 -116 q205 0 387 187q23 23 25 -6q0 -31 -48 -88q-72 -92 -234.5 -167t-332.5 -75q-223 0 -347 128t-124 386q0 199 82 353.5t195 246.5q102 82 262 148.5t303 66.5z" />
<glyph unicode="D" horiz-adv-x="1409" d="M1362 733v-2q0 -397 -350 -600q-250 -154 -680 -154q-303 0 -330 5q-18 1 -18 8q0 5 8 12q29 23 94 59q14 6 72 15q25 2 43 33q23 41 59 297q35 211 57 581q6 80 33 131q18 31 -18 31q-25 0 -118 -18.5t-153 -34.5q-14 -4 -18 0t8 16q45 47 96 70q106 43 280.5 69.5 t307.5 26.5q348 0 498 -158q129 -135 129 -387zM1104 651v2q0 260 -127 396q-106 121 -303 120q-47 0 -64 -8q-20 -4 -22 -28q-74 -682 -96 -836q-27 -133 -62 -182q-5 -8 -5 -14q0 -16 34 -19q55 -4 104 -4q262 0 367 110q174 156 174 463z" />
<glyph unicode="E" horiz-adv-x="1165" d="M735 1235h2q201 0 217 31q6 12 51.5 32.5t79.5 26.5h15q4 0 5 -3t-1 -7l-6 -12q-78 -177 -79 -341q0 -12 1 -24q0 -16 -4 -20.5t-12 2.5q-41 23 -56 79q-18 63 -18 136q-2 33 -29 26q-92 -25 -278 -24q-33 0 -39 -33l-11 -99l-15 -145q-9 -84 -13 -133q-4 -20 26 -33 q39 -18 183 -18q41 0 75 10q16 6 31 35l21 41q33 33 104 51q12 4 15.5 2t-3.5 -20q-35 -68 -59.5 -185.5t-26.5 -201.5q0 -33 -28 -11q-47 41 -54 156q0 16 -5 23.5t-21 5.5q-68 -16 -256 -17q-27 0 -29 -37q-33 -229 -51 -397q-6 -16 -1 -26.5t30 -12.5q63 -8 266 -8 q109 0 172 51q92 59 143 211q16 45 29 8q7 -16 7 -38q0 -19 -5 -42q-14 -68 -57 -135t-70 -90q-72 -66 -158 -65q-111 0 -305 8t-262 8q-176 0 -258 -14q-24 -1 -24 6q0 4 6 10q18 20 63 45q16 12 123 37q20 4 37 43q16 33 39.5 158t38.5 256q2 14 10 90t13 129t12.5 142 t7.5 127t-5 83q-2 25 -7 33t-27 10q-4 0 -79 13.5t-95 17.5q-35 8 -11 22q100 56 131 56h5q184 -29 499 -29z" />
<glyph unicode="F" horiz-adv-x="1081" d="M748 1233h2q160 0 208 18q6 2 31 27q12 12 56.5 28.5t66.5 20.5q4 0 7 1q13 0 13 -8.5t-10 -25.5q-61 -135 -78 -350q-4 -25 -18 -16q-16 10 -32.5 34.5t-20.5 41.5q-14 55 -19 118q-2 29 -9 36t-23 -1q-80 -27 -299 -27q-20 0 -26.5 -6t-10.5 -26l-43 -404 q-4 -20 22 -32q41 -16 170 -17q66 0 88.5 7t40.5 32l9 18q7 14 16 21q27 23 102 39q10 2 13.5 0t3.5 -9.5t-9 -23.5q-66 -125 -79 -326q-2 -31 -10.5 -34.5t-18.5 6.5q-35 29 -43 63q-6 23 -14 84q-10 27 -25 27q-92 -18 -268 -19q-23 0 -29 -38q-4 -39 -20.5 -164 t-22.5 -178q-1 -6 -1 -12q0 -32 32 -38q150 -14 207 -32q18 -8 0 -21q-98 -64 -127 -64q-3 0 -5 1q-43 8 -86 12q-74 4 -172 4q-115 0 -309 -20q-6 -1 -10 -1q-10 0 -11 4q0 3 9 13q31 43 78 63l51 17q33 10 47 16q20 8 35 45q41 98 69 381q6 27 -10 31q-14 6 -37 20 q-16 10 -2 29q8 10 27 28l27 25q18 18 22 43q27 224 27 343q0 46 -4 77q-6 35 -29 39q-98 10 -170 25q-33 8 -8 24q27 18 72 41t57 21q160 -31 500 -31z" />
<glyph unicode="G" horiz-adv-x="1417" d="M967 1284h2q184 0 272 -67q31 -20 44 -60q5 -15 5 -30q0 -23 -12 -44q-41 -66 -66 -157q-6 -20 -29.5 -41t-35.5 -21q-14 0 -10 23q10 48 9 87q0 78 -38 122q-82 94 -264 94q-217 0 -342 -165t-125 -441q0 -258 119.5 -394.5t298.5 -136.5q53 0 96 13q37 12 29 40 q-2 8 -2 121q6 88 22 179q4 27 -1 36t-30 9q-53 2 -213 22q-31 8 -8 25q18 16 72 42q49 24 63 23h2q158 -14 232 -14q190 0 323 35q14 4 19 -1q1 -1 1 -4q0 -6 -7 -18q-23 -33 -50 -51q-4 -2 -94 -39q-12 -6 -39 -43q-16 -25 -33 -105q-12 -55 -12 -92q0 -17 2 -30 q4 -35 23 -45q10 -6 32 -6q17 0 42 4q14 2 15 -4.5t-7 -16.5q-31 -45 -68 -57q-12 -4 -65.5 -19.5t-85.5 -23.5q-283 -78 -437 -78q-246 0 -383 138t-137 374q0 455 381 674q242 143 490 143z" />
<glyph unicode="H" horiz-adv-x="1527" d="M829 684h2q141 0 203 16q27 6 33 56q31 227 37 323q1 9 1 17q0 34 -22 41q-20 4 -78.5 13t-72.5 11q-31 10 -8 25q101 66 114 65q20 0 93.5 -7t130.5 -9q166 0 307 31q3 1 5 0q7 0 7 -4t-4 -9q-35 -51 -61 -67l-99 -39q-23 -8 -30 -18.5t-17 -43.5q-37 -94 -80 -450 q-33 -306 -33 -429q0 -31 3 -50q2 -33 12 -42.5t37 -13.5q139 -20 149 -22q23 -4 25 -9.5t-15 -17.5q-79 -64 -110 -63h-2q-23 4 -80 6q-61 6 -178 6q-164 0 -277 -25q-29 -6 -6 21q20 27 68 61q10 6 73 29q14 4 20.5 13.5t10.5 39.5q39 276 55 424q4 41 -20 37l-45 -6 q-45 -8 -97.5 -14.5t-109.5 -6.5q-49 0 -98 1t-77 2.5t-40 1.5q-31 0 -39 -54q-2 -20 -14.5 -108t-21.5 -164t-9 -102q-4 -23 0 -34.5t7 -12.5t16 -3q111 -14 159 -30q16 -4 6 -15q-87 -68 -115 -68q-2 0 -3 1q-25 4 -95 8q-78 4 -127 4q-238 0 -329 -29q-3 -1 -6 0 q-6 0 -6 4t6 13q29 41 67 63q6 4 105 37q33 10 45 51q37 90 80 426q56 408 55 517v14q-2 23 -11.5 31t-29.5 10q-94 8 -160 26q-18 8 -6 17q105 72 136 72q2 0 3 -1q41 -6 92 -10q61 -6 125 -6q207 0 291 25q20 6 22.5 0.5t-10.5 -19.5q-41 -55 -65 -65q-23 -10 -82 -27 q-29 -10 -41 -53q-54 -182 -54 -355q0 -29 40 -36q102 -21 243 -21z" />
<glyph unicode="I" horiz-adv-x="774" d="M281 543q52 368 51 522v31q0 25 -9.5 33t-29.5 10q-100 10 -164 24q-20 4 -4 19q43 33 83 53t52 18q135 -16 209 -18q233 0 338 25q2 1 3 0q5 0 5 -5q0 -6 -4 -12q-23 -33 -53 -55q-18 -14 -115 -45q-29 -8 -41 -43q-18 -53 -49 -305q-49 -375 -55 -445 q-10 -106 -17 -217q-2 -31 23 -31q104 -8 192 -32q27 -8 9 -19q-76 -63 -113 -63q-20 2 -57 5t-56 3q-74 4 -135 4q-221 0 -338 -20q-5 -1 -9 -2h-4q-5 1 -5 5v7q25 39 69 61q76 31 103 35q14 2 23.5 13.5t12.5 18.5t11 29q29 72 74 396z" />
<glyph unicode="J" horiz-adv-x="749" d="M289 522q49 418 51 561q0 39 -37 45q-55 6 -176 35q-37 8 -12 25q18 16 67 41.5t58 23.5q106 -18 278 -18q205 0 295 22q7 2 11.5 2.5t5.5 -2.5q1 -1 1 -3q0 -5 -4 -15q-25 -47 -69 -65q-49 -18 -103 -31q-39 -10 -49 -82q-16 -104 -42.5 -338t-37.5 -311 q-31 -236 -67.5 -357t-114.5 -209q-96 -104 -217 -173.5t-209 -69.5q-57 0 -98 43q-18 18 -30.5 60t-12.5 69q0 10 4 16t9 6t9 -6q20 -29 81 -52.5t136.5 -23.5t116.5 50.5t76 226.5q29 135 80 530z" />
<glyph unicode="K" horiz-adv-x="1392" d="M285 557q47 406 47 525v18q0 23 -7.5 31t-27.5 12q-94 8 -158 28q-29 6 -2 23q86 58 110 58q2 0 3 -1q59 -16 235 -16q145 0 297 18q10 2 14.5 0t3.5 -5t-5 -7q-25 -33 -60 -57q-31 -18 -102 -33q-35 -14 -45 -66q-10 -55 -64 -487q-41 -362 -55 -457q-4 -39 20 -41 q102 -12 162 -32q27 -6 11 -19q-12 -12 -54.5 -39.5t-52.5 -25.5q-98 14 -227 16q-238 0 -324 -23q-23 -6 -22 3q0 4 4 8q23 37 61 59q8 6 115 41q37 10 51 49q27 66 72 420zM1004 1087q27 45 0 54q-16 4 -55.5 10t-45.5 8q-29 10 -4 27q23 12 45.5 26.5t31.5 19.5l20 11 q11 6 17.5 7t12.5 1q88 -14 197 -16q174 4 243 29q15 5 22 5q3 0 5 -1q4 -4 -16 -29q-2 -4 -33 -27.5t-47 -31.5q-45 -29 -189 -52q-14 -2 -25.5 -6t-20.5 -12l-15 -13q-6 -5 -15.5 -16.5t-13.5 -15.5l-317 -324q-16 -18 0 -59q49 -119 157.5 -280.5t225.5 -276.5 q70 -66 229 -70q16 0 8 -16q-2 -12 -33.5 -34.5t-50.5 -27.5q-94 -20 -190 -20q-121 0 -229 109q-193 217 -363 518q-14 19 -14 35q0 8 4 16q20 10 96 61q78 51 187.5 170t175.5 221z" />
<glyph unicode="L" horiz-adv-x="1110" d="M285 610q49 351 49 458q0 22 -2 34q-4 37 -29 41q-6 2 -69.5 11t-83.5 13q-41 6 -13 23q96 62 119 62q1 0 2 -1q2 0 12 -1l30 -3l38 -4q86 -8 151 -8q256 4 316 22q6 2 11 2t7 -3q4 -5 -8 -19q-49 -53 -78 -63q-4 -2 -39.5 -12.5t-56.5 -14.5q-27 -4 -39 -64 q-12 -41 -84 -557q-41 -301 -53 -364q-3 -9 -3 -17q0 -28 34 -43q74 -25 233 -24h14q106 0 168 57q100 90 140 215q8 20 12 22.5t12 -7.5q14 -18 14 -47q0 -14 -4 -31q-14 -59 -50 -123t-66 -96q-47 -53 -89 -73t-116 -20q-70 0 -270 13q-197 12 -258 12q-203 0 -259 -18 q-18 -6 -22 0q-1 2 -1 3q0 6 9 15q43 51 72 59q55 20 121 31q20 4 37 43q14 33 46 192.5t46 284.5z" />
<glyph unicode="M" horiz-adv-x="1857" d="M938 434q14 -37 37 -2q186 281 391 635q53 92 64 133q14 39 40 37q30 -2 70 -2q59 0 140 4q134 6 202 23q11 2 16 2q4 0 6 -1q3 -3 -8 -22q-29 -47 -65 -63q-31 -14 -131 -37q-27 -8 -39 -23.5t-23 -54.5q-31 -96 -61 -471q-17 -216 -17 -336q0 -65 5 -102q6 -43 28 -52 q45 -22 116 -22q41 0 91 8q14 2 19.5 0t3.5 -8t-13 -19q-66 -82 -442 -81q-127 0 -199 10q-35 4 -14 24q55 57 94 72q25 10 35 61q12 70 109 773q2 12 -5.5 13t-15.5 -15q-279 -446 -399 -685q-80 -156 -94 -174q-45 -59 -99 -96q-14 -11 -22 -10q-3 0 -5 1q-9 5 -3 23 q3 11 2 28q0 61 -35 202q-109 487 -209 743q-4 8 -8 12.5t-9.5 0t-7.5 -16.5q-20 -125 -76.5 -405.5t-82.5 -382.5q-3 -11 -3 -20q0 -26 27 -32q14 -4 76.5 -12t89.5 -14q27 -8 6 -25q-81 -66 -103 -65h-1q-27 4 -76 8q-29 2 -117 2q-119 0 -262 -20q-12 0 -12 7q0 4 4 11 q25 37 72 59q41 16 106 33q49 10 68 51q45 96 104 358.5t88 454.5q10 55 10 95q0 89 -51 96q-57 7 -137 7q-32 0 -68 -1q-16 0 -18 6t10 14q82 59 117 61.5t167 13.5t191 11q6 0 12.5 -3t9.5 -6t7 -11l6 -12q2 -4 5 -14.5t5 -14.5q84 -246 281 -762z" />
<glyph unicode="N" horiz-adv-x="1460" d="M479 1255h2q12 2 43 -27.5t49 -56.5q53 -84 239.5 -351t274.5 -406q10 -14 18.5 -10t10.5 18q10 45 36 241.5l32 239.5q29 178 43 201q10 20 5 26.5t-30 10.5l-155 20q-8 2 -10.5 7.5t5.5 11.5q91 68 121 68q2 0 4 -1q6 -2 30 -4t38 -4q57 -4 92 -4q131 0 260 29q4 1 6 0 q7 0 7.5 -5t-5.5 -14q-27 -43 -75 -63q-45 -20 -123 -37q-27 -8 -49 -39q-51 -74 -101 -436q-44 -322 -43 -465v-21.5v-20.5q0 -124 -114 -235q-12 -12 -20 -16q-3 -2 -6 -2q-4 0 -7 3q-6 5 -13 19q-68 160 -131 258q-356 580 -460 728q-25 31 -29 2q-25 -211 -78 -578 q-4 -23 -9 -62.5t-10 -72.5t-12 -57q-2 -9 -2 -17q0 -27 29 -33q121 -14 170 -24q20 -6 2 -21q-68 -66 -108 -65q-23 2 -89 6q-78 4 -118 4q-143 0 -252 -23q-12 -4 -18 -2q-4 2 -4 5q0 4 5 12q39 51 68 61q39 20 111 35q61 12 86 78q25 59 67.5 281.5t61.5 447.5 q9 98 9 149q0 38 -5 50q-14 39 -58 45q-45 4 -204 4q-23 0 -7 16q88 72 115 72q10 -1 305 24z" />
<glyph unicode="O" horiz-adv-x="1398" d="M901 1284h2q121 0 210 -45t137 -120t70.5 -157.5t22.5 -175.5q0 -426 -307 -639q-115 -86 -249 -141t-244 -55q-205 0 -328 123t-123 375q0 479 404 702q86 47 204.5 90t200.5 43zM731 1159h-2q-117 0 -207 -80q-172 -154 -172 -481q0 -516 359 -516q182 0 281.5 160.5 t99.5 406.5q0 236 -93.5 373t-265.5 137z" />
<glyph unicode="P" horiz-adv-x="1165" d="M700 1280h2q451 0 451 -346q0 -119 -41 -190.5t-131 -143.5q-61 -49 -162.5 -87t-140.5 -38q-84 0 -109 47q-16 25 2 25q17 -1 33 -1q162 0 225 58q78 74 78 246q0 143 -63.5 233.5t-184.5 90.5q-16 0 -41 -5q-20 -4 -26 -39q-6 -29 -70 -497q-47 -371 -47 -486 q-4 -43 33 -47q127 -10 180 -30q14 -6 -2 -23q-20 -18 -62 -40.5t-55 -22.5q-4 0 -34.5 4t-53.5 6q-59 6 -147 6q-236 0 -342 -25q-3 -1 -6 0q-9 0 -9 7q0 5 7 12q41 53 82 67q43 16 84 23q23 4 30.5 11t16.5 28q31 68 79 438q49 373 56 500q4 49 30 78q6 10 0 15t-16 5 q-133 -14 -250 -53q-14 -6 -18 -2t4 16q45 55 82 72q94 37 258.5 62.5t277.5 25.5z" />
<glyph unicode="Q" horiz-adv-x="1386" d="M895 1284h2q125 0 216 -44t139 -118.5t69.5 -154.5t21.5 -170q0 -195 -60 -334t-144 -213q-61 -78 -146 -133q-20 -14 2 -35q371 -297 570 -297q74 0 121 22q12 6 15 5q2 -2 2 -3.5t-1.5 -4.5t-1.5 -5q-12 -37 -39 -57q-106 -76 -238 -76q-248 0 -698 301q-29 18 -51 10 q-76 -25 -129 -24h-8q-199 0 -323 123t-124 366q0 487 385 701q92 53 213 97t207 44zM727 1159h-2q-121 0 -205 -72q-57 -43 -115.5 -178t-58.5 -309q0 -154 38 -264.5t93 -158.5t99.5 -68.5t76.5 -20.5q12 0 17 2q136 72 190 73q6 0 10 -1q10 -2 26.5 -3t27.5 -1 q80 72 121.5 210t41.5 275q0 213 -92 364.5t-268 151.5z" />
<glyph unicode="R" horiz-adv-x="1302" d="M723 1280h2q420 0 420 -309q0 -68 -24.5 -123t-70.5 -93t-84 -60.5t-94 -47.5q-20 -6 -8 -35q41 -111 135.5 -277.5t151.5 -219.5q68 -59 178 -64q15 -1 15 -8q0 -4 -5 -10q-27 -37 -63 -45q-61 -16 -158 -17q-88 0 -139 27t-111 92q-72 82 -252 416q-31 53 -69 57 q-25 0 2 27q35 45 92 51q254 31 254 268q0 121 -66.5 190.5t-177.5 69.5q-33 0 -49 -8q-10 -6 -14 -37q-8 -61 -41 -344.5t-53 -433.5q-14 -137 -50 -211q-12 -29 23 -33q152 -25 174 -32q16 -6 0 -23q-12 -12 -51 -35.5t-53 -21.5l-95 6q-70 4 -110 4q-262 0 -336 -23 q-20 -4 -25 1q-1 1 -1 4q0 5 10 14q31 37 88 65q49 20 88 27q59 12 86 172q41 227 77 719q8 111 35 154q8 16 0 16l-10 -2q-115 -6 -258 -47q-16 -4 -20.5 -1t4.5 15q66 66 92 76q72 31 247 60.5t314 29.5z" />
<glyph unicode="S" horiz-adv-x="985" d="M715 1286h2q20 0 38.5 -1t34 -5t24.5 -7t21.5 -10.5t17.5 -9.5t16.5 -10t13.5 -10q28 -20 28 -52q0 -25 -18 -57q-29 -53 -43 -108q-10 -31 -45 -53q-27 -16 -25 12q0 12 1 24q0 86 -27 123q-49 66 -164 66q-84 0 -151.5 -64.5t-67.5 -165.5q0 -104 94 -157 q33 -18 149.5 -74.5t155.5 -77.5q139 -78 139 -215q0 -201 -260 -366q-186 -117 -360 -117q-152 0 -236 76q-17 17 -16 54q0 25 10 38q53 70 76 172q4 23 22.5 41t34.5 22q6 2 9.5 -3t3.5 -15q-1 -22 -1 -42q0 -126 33 -165q57 -66 197 -66q121 0 187 66q65 64 65 139 q0 102 -99 160q-45 29 -139 73t-129 62q-147 78 -147 248q0 221 246 379q155 96 309 96z" />
<glyph unicode="T" horiz-adv-x="1263" d="M756 1231h2q334 0 409 22q29 6 35 21q14 25 29 35q41 23 112 37q21 2 21 -6q0 -6 -6 -21q-96 -199 -96 -401q0 -14 -4.5 -17.5t-18.5 4.5q-47 23 -61 84q-12 68 -17 148q0 12 -1 15t-3 10t-7 4t-13 -3q-25 -12 -110 -20t-140 -8q-37 0 -51 -41q-20 -59 -76 -535 q-31 -252 -35 -395q0 -47 35 -53q182 -23 221 -37q20 -6 2 -23q-89 -68 -124 -68q-3 0 -5 1q-41 8 -100 10q-66 6 -174 6q-233 0 -400 -25q-3 -1 -6 0q-5 0 -7 2q-3 4 3 13q31 43 88 69q35 14 143 41q35 8 50 54q37 100 86 520q27 260 41 342q8 61 34 98q8 14 -10 14 q-66 0 -299 13q-18 0 -27.5 -8.5t-19.5 -34.5q-31 -76 -68 -127q-41 -53 -92 -66q-10 -4 -16 -4t-9 1t-3 5t4 11q70 133 78 327q2 18 73 96q6 6 9.5 8.5t6.5 2.5t5 -4l6 -13q14 -41 27.5 -52t50.5 -19q96 -33 428 -33z" />
<glyph unicode="U" horiz-adv-x="1449" d="M233 489q4 51 19 159l33 245l26 201q6 39 -30 45q-102 14 -144 24q-20 4 -20 13q0 4 6 10q20 16 64 41.5t57 23.5q14 -2 47 -5t47 -5q66 -4 137 -6q225 0 301 18q16 2 18.5 -2t-8.5 -16q-27 -37 -63 -57q-25 -14 -105 -31q-29 -4 -40 -39q-23 -82 -53.5 -281.5 t-39.5 -334.5q-4 -40 -3 -77q0 -173 81 -247q33 -33 95.5 -52.5t117.5 -19.5q123 0 197 54q47 33 82 91t57.5 149t31.5 146.5t25 163.5q27 193 41 367q0 63 -43 68q-172 27 -178 28q-23 8 -6 19q93 64 114 63h3q33 -4 76 -6q61 -4 106 -4q166 0 268 25q7 2 12 2q7 0 7 -5 t-6 -16q-14 -37 -70 -63q-33 -12 -117 -33q-37 -8 -53 -109l-42 -243q-34 -195 -58 -316q-61 -322 -281 -444q-127 -74 -276 -74q-225 0 -342 119q-66 59 -86 158q-11 55 -12 126q0 58 7 127z" />
<glyph unicode="V" horiz-adv-x="1370" d="M518 -27q-12 193 -104 582q-96 397 -166 532q-18 39 -55 50q-16 4 -66.5 13t-73.5 15q-15 2 -14 11q0 6 8 14q80 61 113 61q213 -16 237 -16q193 0 320 20q14 2 16 -2t-8 -18q-29 -35 -51 -49q-18 -12 -111 -41q-28 -9 -27 -35q0 -8 3 -18q45 -158 168 -766q4 -24 12 -24 q9 0 24 28q53 94 383 755q14 29 9 40.5t-33 15.5q-88 14 -123 24q-8 2 -11 9.5t3 9.5q79 68 109 68q2 0 3 -1q63 -12 177 -16q127 0 256 25q4 1 7 0q8 0 8 -5t-5 -14q-16 -31 -56 -57q-33 -20 -112 -41q-27 -6 -49.5 -22.5t-34.5 -31t-41 -53.5q-92 -125 -273.5 -456.5 t-226.5 -452.5q-23 -59 -90 -111q-80 -66 -106 -71q-2 -2 -5.5 -2t-5.5 1t-4 5t-3 10t-1 14z" />
<glyph unicode="W" horiz-adv-x="1990" d="M207 1137q-135 20 -156 24q-13 2 -13 8q0 5 9 13q85 68 116 68q2 0 3 -1q16 -2 102 -10q82 -4 135 -4q229 0 328 25q3 1 5 0q6 0 7 -4q2 -5 -6 -15q-39 -47 -63 -61q-31 -16 -109 -39q-20 -4 -22 -14.5t2 -30.5l53 -334t57 -348q4 -49 33 0q53 90 152.5 284.5 t124.5 268.5q16 43 18 67q2 45 16 60q63 63 175 147q10 8 17 11t11 -4t-2 -29q-8 -35 -8 -93t8 -139q20 -168 63.5 -352t86.5 -264q20 -35 34 0q279 596 347 712q12 29 6 40.5t-33 15.5q-8 2 -36 5t-57.5 8t-49.5 9q-23 6 -9 21q12 12 57 41q41 27 56 26h2q12 0 86 -10 q66 -4 109 -4q180 0 252 22q8 2 12 2.5t5 -2.5q1 -4 -9 -20q-18 -33 -70 -57q-16 -10 -98 -33q-35 -8 -57.5 -27.5t-59.5 -70.5q-82 -117 -230.5 -412t-230.5 -496q-14 -37 -56 -92t-79 -86q-16 -14 -24 -14q-2 0 -4 1q-9 3 -21 30q-47 94 -107.5 351t-85.5 435 q-2 16 -10 18t-14 -10q-68 -106 -166 -295.5t-154 -320.5q-4 -10 -12 -34t-16 -38q-27 -47 -150 -123q-12 -8 -21.5 -11t-13.5 1t2 24q3 19 3 49q0 78 -19 232q-51 516 -145 784q-25 89 -76 95z" />
<glyph unicode="X" horiz-adv-x="1398" d="M283 1141q-72 8 -142 22q-20 6 -4 19q12 10 58.5 38.5t54.5 28.5q115 -14 219 -14q193 0 303 18q25 2 27 -2t-13 -20q-25 -31 -59 -49q-14 -8 -43 -16.5t-35 -10.5q-10 -4 -11 -10t1 -27q16 -84 129 -317q12 -25 35 2q47 53 119.5 155.5t93.5 141.5q18 31 -15 37 q-76 10 -114 20q-12 2 -15.5 9.5t5.5 11.5q2 2 28.5 21.5t50 32.5t31.5 13t35 -3t39 -3q66 -4 110 -4q133 0 248 31q6 2 10 2q6 0 6 -5t-5 -16q-12 -27 -72 -61q-35 -16 -113 -35q-49 -12 -92 -49q-23 -16 -76 -83l-127 -160l-110 -136q-16 -23 -4 -59q68 -158 144.5 -295.5 t115.5 -188.5q29 -39 47 -55t47 -21l96 -13q68 -9 88 -13q18 -6 6 -21q-61 -63 -98 -63q-93 5 -176 4q-219 0 -375 -31q-9 -2 -14 -2t-6 2q-2 4 10 21q23 37 41 49l51 26q33 14 12 52q-20 35 -166 354q-14 25 -30 0l-258 -338q-18 -25 14 -33l52 -7q38 -5 68 -10t44 -11 q25 -10 4 -21q-20 -12 -39.5 -25.5t-29.5 -18.5l-18 -10q-9 -5 -14.5 -6t-11.5 -1q-8 0 -30.5 3t-36.5 3q-43 6 -113 6q-172 0 -274 -25q-10 -2 -14 5q-1 2 -1 4q0 4 4 8q12 16 37 39.5t43 29.5l103 31q45 14 80 47q166 154 350 420q12 23 0 55q-66 168 -191 408 q-31 63 -52 87t-62 32z" />
<glyph unicode="Y" horiz-adv-x="1261" d="M203 1141q-10 2 -61.5 11t-80.5 15q-14 4 -13 9q0 3 5 8q86 68 115 67q14 -2 45 -5t43 -5q59 -6 162 -6q160 0 274 16q14 2 15.5 -3t-9.5 -19q-23 -37 -49 -53q-10 -6 -36.5 -14.5t-28.5 -10.5q-29 -10 -17 -39q66 -154 142 -428q8 -29 28 0q188 291 260 418q16 29 -8 41 q-8 2 -31 6l-51 9q-29 5 -39 7q-33 8 -14 23q87 59 109 59h2q10 0 39.5 -3t42.5 -3q51 -6 106 -6q76 0 236 20q4 1 7 1q8 0 7.5 -4.5t-6.5 -14.5q-25 -37 -62 -55q-43 -23 -116 -39q-25 -4 -89 -62q-68 -63 -167 -202.5t-156 -239.5q-47 -80 -57 -143q-29 -223 -31 -344 q0 -39 33 -46q170 -27 200 -36q27 -6 9 -21q-72 -66 -96 -66q-1 0 -3 1q-35 6 -104 10q-68 6 -148 6q-319 0 -434 -31q-4 -2 -7.5 -2t-5.5 2q-5 4 1 13q25 43 74 69q55 25 161 45q27 6 50 60q18 41 37.5 146.5t21.5 166.5q1 10 1 22q0 45 -17 119q-25 102 -80.5 237.5 t-104.5 207.5q-33 45 -51 61.5t-53 24.5z" />
<glyph unicode="Z" horiz-adv-x="1171" d="M793 1229h2q231 0 309 35q35 14 72 57q9 11 14 11q6 0 6 -17q0 -8 -2 -19q-6 -49 -35 -94q-20 -37 -133 -188q-350 -463 -629 -781q-16 -16 13 -24q137 -47 391 -47q156 0 236.5 40t131.5 156q12 23 21 0q8 -15 7 -33q0 -26 -15 -59q-66 -141 -215 -233q-96 -61 -238 -62 q-104 0 -293.5 14.5t-230.5 14.5q-18 1 -35 1q-88 0 -131 -28q-11 -7 -18 -7t-9 7q-1 4 -1 8q0 12 9 25q20 33 70.5 86t85.5 82q156 135 397.5 408.5t362.5 468.5q6 8 2 12t-16 2q-132 -29 -377 -29h-33q-104 0 -174 4q-20 0 -37 -24q-57 -90 -92 -125q-25 -29 -76 -41 q-14 -2 -17 0t3 18q102 195 133 373q4 29 72 82q6 8 10 8q5 0 8 -12q8 -45 37 -55q76 -35 414 -35z" />
<glyph unicode="[" horiz-adv-x="804" d="M195 250q37 311 98 678.5t92 427.5q10 18 39 39.5t47 27.5q27 8 360 9q18 0 5 -19q-4 -2 -17.5 -17.5t-27 -25.5t-23.5 -12l-184 -31q-29 -6 -62 -108q-76 -248 -166 -969q-43 -375 -30 -459q6 -45 49 -55q27 -6 120 -12.5t105 -8.5q25 0 2 -18q-2 -2 -23.5 -20.5 t-39 -27.5t-35.5 -14q-72 -14 -297 -14q-16 0 -43 17.5t-29 31.5q-1 70 60 580z" />
<glyph unicode="\" horiz-adv-x="724" d="M301 1354q78 -563 277 -1577q6 -23 -1.5 -27t-25.5 0q-27 4 -70 65.5t-57 137.5q-229 1204 -246 1302q-4 27 30 56.5t64 42.5q27 14 29 0z" />
<glyph unicode="]" horiz-adv-x="804" d="M637 803q-39 -322 -99.5 -684.5t-93.5 -421.5q-20 -39 -84 -68q-39 -10 -360 -10q-27 0 -4 19q49 49 65 55q10 4 90 16t103 21q27 10 57 108q74 238 164 963q41 356 29 461q-2 41 -47 53q-25 6 -119 12t-107 8q-20 2 -2 21q4 2 24.5 18.5t38 25.5t36.5 13q72 16 297 17 q18 0 42.5 -13.5t26.5 -30.5q2 -151 -57 -583z" />
<glyph unicode="^" horiz-adv-x="962" d="M578 1292h2q2 0 8 -16q29 -111 51.5 -178.5t92 -196.5t169.5 -239q12 -14 -8.5 -20.5t-82.5 4.5t-85 30q-29 20 -108.5 136t-112.5 202q-4 10 -10 0q-158 -285 -244 -340q-16 -10 -63.5 -26.5t-63.5 -16.5q-25 0 -2 20q94 94 186 254t148 301q10 25 60.5 55.5t62.5 30.5z " />
<glyph unicode="_" horiz-adv-x="1134" d="M1090 -365v-102h-1147v102h1147z" />
<glyph unicode="`" horiz-adv-x="874" d="M442 1343h2q14 0 19 -18q39 -229 121 -377q12 -16 -15 -16q-55 0 -100 29q-39 29 -92 110.5t-68 151.5q-8 33 23 63q12 12 53 34.5t57 22.5z" />
<glyph unicode="a" horiz-adv-x="993" d="M623 838h2q33 0 90 -45q12 -12 24 6q14 18 63.5 43.5t86.5 25.5q12 0 14 -6t-8 -14q-29 -35 -51 -125q-25 -90 -42 -233q-16 -127 -16 -216v-20q0 -80 31 -80q51 0 127 102q25 27 25 -2q0 -49 -19 -81q-39 -70 -150.5 -150t-181.5 -80q-29 0 -47 39t-18 92q0 80 8 150 q2 20 -3 24t-17 -12q-84 -109 -203 -201q-119 -90 -203 -90q-31 0 -60.5 56.5t-29.5 146.5q0 225 129 393q45 63 225 184l84 52q25 14 64 27.5t76 13.5zM530 719h-2q-90 0 -129 -37q-53 -51 -80.5 -157.5t-27.5 -215.5q0 -63 15.5 -102t39.5 -39q27 0 81 49t114 145 q37 68 65 209q14 61 39 105q2 4 2 8q0 10 -12 14q-42 21 -105 21z" />
<glyph unicode="b" horiz-adv-x="989" d="M821 856h2q45 0 78 -59.5t33 -157.5q0 -287 -215 -483q-49 -45 -134 -93.5t-145 -66.5q-98 -33 -178 -33q-49 0 -87 36t-52 97q-11 37 -11 94q0 62 13 148q14 115 46 344t38 276l13 101q7 55 11.5 82.5t6.5 36.5q4 14 0 21t-19 5q-66 -12 -160 -20q-14 0 -14 6t10 16 q68 57 90 62q231 39 324 96q35 23 55 22q16 0 2 -22q-31 -49 -61 -197q-43 -211 -86 -561q-2 -16 5 -20t22 10q119 133 235 201q104 59 178 59zM616 686h-2q-51 0 -126.5 -95t-114.5 -200q-27 -74 -27 -170q0 -55 38 -90t105 -35q61 0 105 49q35 35 64.5 139.5t29.5 239.5 q0 162 -72 162z" />
<glyph unicode="c" horiz-adv-x="731" d="M616 852h2q70 0 93 -47q10 -19 9 -36q0 -19 -11 -38q-49 -74 -62 -104q-6 -18 -17.5 -21.5t-17.5 12.5q-39 100 -153 101q-57 0 -107 -62q-29 -35 -47 -115.5t-18 -164.5q0 -252 157 -252q133 0 256 151q18 25 19 -2q0 -43 -37 -94q-98 -119 -240 -178q-88 -37 -180 -37 q-86 0 -146.5 66.5t-60.5 208.5q0 119 41 216t90 152q70 78 207 158q137 86 223 86z" />
<glyph unicode="d" horiz-adv-x="1034" d="M590 852h2q39 0 76 -39l41 281q16 96 36 123q8 8 4 14t-16 4q-53 -10 -176 -21q-18 -2 -20 1.5t14 19.5q57 53 80 57q242 27 375 94q9 5 13 6q7 0 7 -10t-10 -24q-74 -98 -121 -514q-63 -362 -70 -541v-17q0 -124 29 -124q35 0 139 123q12 18 13 -6q0 -43 -19 -80 q-55 -94 -164.5 -170t-165.5 -76q-31 0 -51 49q-17 41 -17 110q0 14 1 29q4 86 8 107q2 31 -8 28q-4 -2 -10 -10q-96 -131 -230 -227q-109 -76 -190 -76q-43 0 -79 57.5t-36 176.5q0 133 44 237.5t93 159.5q35 37 114 99.5t128 90.5q121 68 166 68zM541 745h-2 q-262 0 -263 -417q0 -80 20.5 -133.5t55.5 -53.5q31 0 77 40t81 98q88 125 127 344q10 50 10 82q0 14 -2 24q-38 16 -104 16z" />
<glyph unicode="e" horiz-adv-x="747" d="M602 854h2q41 0 74 -37t33 -98q0 -115 -144 -213q-106 -74 -252 -119q-25 -4 -24 -25q-2 -6 -2 -38q0 -98 43 -150.5t110 -52.5q129 0 248 125q27 25 29 4q0 -47 -33 -86q-78 -86 -194.5 -141.5t-231.5 -55.5q-92 0 -142 72t-52 178q0 84 6 117q0 20 -11 26 q-23 20 -22 39q-4 12 20 21q31 12 33 24q37 160 168 263q57 47 169 97t173 50zM444 748h-2q-57 0 -100 -83q-52 -100 -52 -190q0 -9 5 -13q3 -3 10 -3q5 0 12 2q86 14 152 57t66 109q0 53 -23 87t-68 34z" />
<glyph unicode="f" horiz-adv-x="616" d="M770 1386h2q29 0 53.5 -18t24.5 -43q0 -49 -76 -131q-4 -6 -10 -9t-10 -4t-8.5 3t-4.5 10q-6 31 -36.5 52.5t-75.5 21.5q-63 0 -103 -97q-49 -127 -63 -364q-2 -33 31 -33h15q171 0 259 43q16 10 14 0q0 -10 -14 -26q-59 -78 -168 -107q-57 -14 -127 -18q-29 -2 -33 -35 q-16 -174 -51 -455q-45 -379 -250 -557q-174 -152 -315 -151q-78 0 -115 38q-47 44 -47 139v15q0 16 7 19.5t16 -11.5q23 -43 90 -69.5t135 -26.5q74 0 112.5 34t67.5 135t51 306q23 197 56 582q2 29 -27 30q-78 0 -147 17q-39 10 -19 26q102 74 126 74h1q45 -4 76 -4 q18 0 20 25q23 170 113 297q82 115 203 202q125 90 227 90z" />
<glyph unicode="g" horiz-adv-x="858" d="M539 856h2q16 0 29.5 -1t27.5 -6t21.5 -7t22.5 -11.5t17.5 -11.5t20.5 -14l16 -12q31 -18 58 -19q102 0 155 72q11 16 19 16q2 0 4 -1q7 -4 6 -18q0 -62 -64 -128q-45 -43 -114 -66q-18 -4 -19 -45q0 -164 -129 -272q-70 -55 -170 -111q-72 -47 -71 -71q0 -39 78 -64 q190 -61 247 -82q111 -37 111 -147q0 -139 -248 -287q-162 -102 -313 -102q-74 0 -146.5 18t-135 69.5t-62.5 129.5q0 66 288 264q-43 39 -43 82q0 14 35 42.5t77 59.5t48 37q18 18 -10 18q-14 -1 -26 -1q-88 0 -139 50q-58 56 -58 158q0 156 108 271q57 61 150 100 q43 20 53 27q25 16 78 39.5t76 23.5zM430 743h-2q-37 0 -68 -26q-74 -61 -73 -244q0 -188 123 -188q53 0 85.5 49t42 104.5t9.5 116.5q0 90 -31 139t-86 49zM385 -408h2q102 0 160.5 37t58.5 88q0 61 -100 113q-35 14 -225 80q-9 3 -20 2q-22 0 -44 -12q-37 -18 -74 -60.5 t-34 -72.5q0 -76 80.5 -125.5t195.5 -49.5z" />
<glyph unicode="h" horiz-adv-x="1046" d="M846 856h2q39 0 54 -58q10 -38 10 -87q0 -26 -3 -56q-20 -178 -80 -452q-4 -18 2.5 -24.5t18.5 -0.5q66 31 125 92q8 10 13 12.5t7 -1.5q1 -2 1 -5.5t-1 -7.5q-20 -78 -55 -106q-125 -119 -266 -174q-88 -35 -119 -35q-37 0 -6 39q31 31 57 153q45 182 64 398q1 21 1 39 q0 100 -38 100q-39 0 -96.5 -55.5t-112.5 -153.5q-43 -63 -123 -332q-16 -59 -61 -94q-59 -47 -191 -84q-8 -2 -12 0q-3 1 -3 5q0 7 9 22q29 45 51 155q47 236 91 562.5t48 433.5q2 43 -7 57t-33 12q-72 -4 -130 -10q-16 -2 -19 1t7 13q43 49 72 54q246 43 315 96 q31 23 47 22q7 0 7.5 -23t-7.5 -69l-108 -723q-2 -20 6 -21t25 15q137 164 254 228q108 63 184 63z" />
<glyph unicode="i" horiz-adv-x="583" d="M403 176h3q16 0 34.5 10.5t43 36t32.5 35.5t35 41q20 25 20 0q0 -55 -26 -96q-41 -63 -164 -151.5t-195 -88.5q-33 0 -46 61q-6 29 -6 67q0 41 7 91q29 229 66 420q4 12 -1 16.5t-22 -0.5l-121 -47q-18 -6 -22 -4q-2 1 -2 4q0 4 4 11q25 51 55 69q31 20 130.5 77.5 t160.5 96.5q12 8 47 19.5t43 11.5q27 0 10 -25q-35 -63 -53 -141q-47 -193 -59 -397q-2 -22 -2 -40q0 -77 28 -77zM502 1245q22 -6 22 -16q0 -8 -14 -19q-50 -44 -50 -131q0 -27 5 -59q2 -10 -3 -14.5t-20 -6.5q-19 -3 -36 -3q-47 0 -84 24q-43 29 -43 108q0 72 51 99 q29 16 83 21q21 2 39 2q29 0 50 -5z" />
<glyph unicode="j" horiz-adv-x="565" d="M485 1268q23 -6 26 -9.5t-5 -21.5q-29 -39 -34 -109q-1 -15 -1 -28q0 -49 14 -76q10 -25 -20 -25q-88 0 -127 31q-39 33 -55 113q-1 7 -1 13q0 43 23 65q8 6 91 27q76 20 88 20h1zM506 860q4 1 6 1q8 0 8 -9q-2 -8 -10 -18q-51 -57 -72 -265q-4 -47 -21.5 -218 l-29.5 -281q-33 -297 -254 -469q-168 -133 -248 -133q-74 0 -106 30q-55 53 -55 158q2 12 8 17t14 -7q16 -33 77.5 -57.5t125.5 -24.5q86 0 124 66.5t58 277.5l20 189l16 163q5 52 13 114.5t15.5 97t15.5 57.5q8 16 2 20t-23 -4q-53 -33 -165 -67q-27 -8 -27 0q0 4 4 10 q39 63 70 76q131 63 196 145q31 41 54 51q137 76 184 80z" />
<glyph unicode="k" horiz-adv-x="968" d="M805 145h2q41 0 70.5 31t70.5 94q23 31 23 -12q0 -10 -7.5 -42t-15.5 -42q-57 -96 -138 -157.5t-148 -61.5q-92 0 -150 139l-36.5 90.5t-37 90t-28.5 53.5q-25 37 -43 22q-20 -20 -23 -41q-4 -14 -12 -59t-19 -82q-18 -80 -67 -115q-55 -39 -111.5 -66.5t-71 -27.5 t-14.5 13q0 5 2 12q31 70 62 239q117 643 129 934q4 45 -35 45q-47 -2 -121 -2q-27 0 -27 6q0 4 11 11q57 49 82 53q186 31 276 88q45 29 57 28q11 0 11 -28q0 -19 -4 -51q-102 -659 -119 -797q0 -10 5 -15.5t15 -2t21 15.5l124 133q32 33 101.5 98.5t115.5 89t89 23.5 q35 0 70.5 -41t41.5 -82q2 -16 -24 -10q-34 8 -68 8q-71 0 -146 -34q-112 -50 -190 -150q-18 -23 -2 -39q61 -57 121 -180q55 -102 89 -140.5t69 -38.5z" />
<glyph unicode="l" horiz-adv-x="563" d="M231 1221q-76 -12 -141 -17q-17 0 -17 6q0 5 11 13q59 53 84 59q231 27 356 102q14 9 21.5 9.5t7.5 -9.5t-12 -30q-41 -41 -84 -262q-82 -449 -101 -750q-2 -28 -1 -50q0 -109 40 -110q61 0 156 123q16 18 19 16t3 -22q0 -43 -24 -86q-72 -100 -191.5 -175t-175.5 -75 q-73 0 -72 168q0 59 9 139q31 250 102 729q31 186 33 197q4 14 -1.5 20.5t-21.5 4.5z" />
<glyph unicode="m" horiz-adv-x="1566" d="M391 854h2q37 0 37 -113q-2 -33 -16 -180q-4 -29 6 -26q4 2 10 12q111 154 272 254q86 53 164 53q55 0 56 -129q0 -68 -15 -172q-2 -14 0 -19.5t6.5 -3.5t10.5 11q98 131 264 243q106 72 194 72q58 0 58 -100q0 -34 -6 -80q-8 -53 -37 -202.5t-39 -217.5q-4 -23 -4 -40 q0 -42 22 -42q25 0 66 34t74 83q14 16 20 13q4 -2 4 -10q0 -5 -2 -13q-8 -63 -37 -101q-66 -94 -172 -160.5t-170 -66.5q-62 0 -62 104q0 51 15 127q74 367 76 381q6 29 6 50q0 49 -35 49q-45 0 -114.5 -75t-129.5 -190q-20 -41 -37.5 -92t-32 -107.5t-14.5 -58.5 q-20 -68 -61 -98q-47 -33 -102.5 -53.5t-75.5 -20.5q-27 0 -14 21q27 53 45 141q57 262 57 432q0 98 -39 99q-35 0 -96.5 -68t-122.5 -184q-16 -31 -29.5 -71t-22 -68.5t-20.5 -78t-18 -71.5q-16 -51 -41 -68q-129 -80 -197 -92q-12 -2 -15 2t5 25q31 66 47 135 q55 233 59 461q2 35 -3 47t-17 10q-47 -10 -119 -70q-16 -14 -20 -10q-2 2 -2 5q0 5 4 16q23 61 61 90q68 59 163 120.5t134 61.5z" />
<glyph unicode="n" horiz-adv-x="1071" d="M862 856h2q31 0 50 -52q14 -37 14 -95q0 -25 -2 -54q-8 -72 -32 -232.5t-38 -217.5q-4 -18 1 -23.5t17 -1.5q61 25 123 94q12 12 16 11q2 -1 2 -9q0 -5 -1 -12q-2 -16 -13.5 -49t-21.5 -45q-106 -117 -260 -178q-84 -39 -137 -39q-33 0 -6.5 37t53.5 145 q18 76 38.5 221.5t20.5 204.5q0 98 -39 98q-45 0 -110.5 -73.5t-118.5 -192.5q-31 -68 -92 -274q-6 -27 -41 -60q-33 -27 -101.5 -60.5t-95.5 -33.5q-23 0 -8 23q25 39 49 159q57 272 57 439q-4 59 -21 59h-1q-47 -23 -105 -67q-10 -8 -16 -11.5t-9 -1.5q-2 2 -2 5q0 4 5 18 q16 49 53 86q57 51 157.5 116.5t143.5 65.5q18 0 28 -41q6 -28 6 -62q0 -15 -1 -30q-2 -78 -12 -154q-4 -29 6 -28q4 2 10 8q96 131 248 237q100 70 184 70z" />
<glyph unicode="o" horiz-adv-x="923" d="M651 856h2q94 0 151.5 -81t57.5 -208q0 -276 -188 -422q-76 -59 -198 -120.5t-183 -61.5q-236 0 -236 293q0 188 105 336q59 92 244 174l31 18l32 19q110 53 182 53zM475 735h-2q-37 0 -72 -35q-109 -104 -108 -366q0 -125 48 -182.5t112 -57.5q72 0 114 74 q70 117 70 330q0 111 -47 174t-115 63z" />
<glyph unicode="p" horiz-adv-x="1036" d="M985 635v-2q0 -250 -145 -426q-66 -80 -181 -146q-158 -106 -286 -106q-25 0 -29 -29q-4 -16 -10 -43.5t-10 -50.5l-9 -43q-25 -119 -57 -158q-12 -16 18 -22q17 -2 38 -2q44 0 104 9q88 13 127 38q25 16 24 0q2 -14 -22 -39q-80 -80 -248 -113q-82 -16 -270 -16 q-106 0 -129 12q-7 4 -8 10q0 7 12 17q70 59 123 74q23 4 39 26q16 20 40.5 140t32.5 208q4 29 -16 41q-51 33 -51 88q0 16 16 9q8 -4 47 -15q8 -2 13.5 5.5t7.5 19.5q37 207 53 428q2 23 -6 27t-25 -7q-55 -27 -145 -32q-36 2 -36 11.5t36 26.5q147 76 198 162l22 35 q15 25 19 33q20 43 107.5 100.5t114.5 59.5q4 1 7 0q9 0 10 -4q1 -6 -9 -23q-23 -35 -46.5 -149.5t-33.5 -219.5q-2 -25 7 -26.5t20 14.5q106 145 241 229q109 70 187 70q45 0 76.5 -53t31.5 -168zM745 528v2q0 147 -67 148q-33 0 -78 -40t-76 -120q-66 -84 -99 -176 q-55 -150 -55 -254q0 -27 38 -31q26 -3 49 -3q109 0 170 63q49 45 83.5 154.5t34.5 256.5z" />
<glyph unicode="q" horiz-adv-x="991" d="M588 856h2q35 0 61.5 -30.5t36.5 -67.5q4 -23 -1 -33t-23 -4q-27 10 -107 14h-8q-111 0 -176 -57q-33 -33 -63.5 -136.5t-30.5 -224.5q0 -172 73 -172q45 0 103.5 61.5t113.5 155.5q37 59 72 205q35 143 66 193q41 63 126 110.5t123 47.5q25 0 25 -9q0 -5 -8 -12 q-55 -47 -86 -158.5t-64 -380.5q-12 -96 -27 -228l-26 -223q-10 -91 -18 -143q-2 -8 -7.5 -33.5l-8.5 -39t-11 -30.5t-18 -28q-8 -10 -8.5 -17t10.5 -7h18q77 0 121 15q49 17 98 57q27 18 25 0q0 -18 -23 -43q-98 -102 -286 -134q-123 -20 -363 -20q-29 0 -34 6t14 21 q90 80 118 81q10 2 31 5.5t29 5.5q18 2 45 84q41 119 88 542q2 18 -4 23.5t-17 -6.5q-47 -59 -120.5 -130t-116.5 -98q-98 -55 -164 -55q-49 0 -84 63.5t-35 155.5q0 258 154 420q57 63 162 141q168 113 223 113z" />
<glyph unicode="r" horiz-adv-x="757" d="M735 856h2q51 0 51 -49q0 -18 -18 -62q-33 -66 -59 -163q-4 -23 -17.5 -28t-21.5 11q-29 43 -62 43q-131 0 -215 -309q-23 -80 -45 -182q-10 -45 -51 -76q-23 -16 -100.5 -52t-92.5 -36q-31 0 -10 27q25 33 47 157q39 225 43 373q1 18 1 34q0 93 -21 93h-4 q-29 -2 -117 -68q-24 -19 -24 -4q0 4 2 10q16 51 47 82q53 51 154.5 124t146.5 73t45 -121q0 -86 -13 -201q-2 -20 7 -18q8 2 16 16q76 137 113 187q98 139 196 139z" />
<glyph unicode="s" horiz-adv-x="651" d="M496 856h2q47 0 74.5 -21.5t27.5 -58.5q0 -16 -22.5 -56t-42.5 -65q-27 -35 -35 -2q-20 82 -135 82q-41 0 -70 -26.5t-29 -65.5q0 -47 64 -92q66 -45 170 -105q90 -49 90 -131q0 -121 -164 -247q-57 -45 -140 -79t-124 -34q-63 0 -111 47q-47 41 -47 141q0 12 8 18.5 t19 -5.5q25 -37 95.5 -63.5t137.5 -26.5q72 0 108 28.5t36 63.5t-52 67q-29 16 -88 54t-88 55q-90 53 -90 162q0 117 146 239q57 47 134 84t126 37z" />
<glyph unicode="t" horiz-adv-x="729" d="M543 1171h2q5 2 8 3q6 0 6 -8.5t-8 -18.5q-55 -78 -90 -340q-4 -31 24 -33q20 -1 40 -1q78 0 154 13q95 16 124 33q18 8 20 -6q0 -8 -12 -25q-63 -76 -166 -98q-96 -25 -178 -24q-23 0 -31 -33q-10 -41 -25.5 -161t-19.5 -208q-1 -16 -1 -30q0 -53 12 -77q15 -30 53 -30 q47 0 110.5 54.5t108.5 123.5q18 27 20 2q0 -5 1 -10q0 -70 -52 -133q-57 -68 -169 -134.5t-214 -66.5q-68 0 -94 71q-22 57 -22 129q0 17 1 34q2 49 10.5 107t25.5 165l28 174q2 20 -21 21q-86 0 -149 12q-20 5 -20 13q0 7 12 16q115 78 131 77q16 -2 47 -2q20 0 27 25 q29 119 47 170q16 43 53 74q57 46 207 122z" />
<glyph unicode="u" horiz-adv-x="1079" d="M469 848h2q14 2 18.5 -6t-6.5 -17q-25 -25 -43 -84q-20 -57 -40.5 -185t-24.5 -220q-2 -28 -2 -51q0 -121 53 -121q55 0 104.5 64.5t108.5 183.5q14 29 28.5 76t21.5 74.5t21.5 95t16.5 71.5q8 29 35 35q25 6 86 29.5t84 37.5q43 25 57 25q6 0 9 -4t0 -13.5t-13 -21.5 q-23 -23 -49 -100q-55 -203 -70 -410q-1 -22 -1 -40q0 -107 40 -107q49 0 133 129q20 29 21 -4q1 -10 1 -20q0 -40 -20 -75q-37 -70 -143 -151.5t-197 -81.5q-63 0 -63 135q0 8 12 168q2 16 -5 16t-15 -14q-86 -135 -232 -233q-106 -66 -174 -66q-47 0 -71 55 q-21 47 -22 121q0 12 1 25q6 172 74 442q4 12 -2 15.5t-21 -3.5q-70 -33 -108 -53q-37 -20 -37 -8q0 6 6 18q33 57 57 76q39 25 122 70t106 63q20 18 70.5 40t70.5 24z" />
<glyph unicode="v" horiz-adv-x="862" d="M858 735v-2q2 -193 -338 -581q-53 -63 -59 -78q-8 -16 -35 -37q-10 -8 -41 -25l-67 -35l-39 -20h-5q-17 0 -10 29q12 37 12 98q0 13 1 26q0 124 -18 261q-19 152 -52 219q-14 37 -24.5 47t-26.5 6q-33 -8 -105 -102q-14 -16 -19 -13.5t-3 21.5q0 53 32 92q37 39 97 86 q39 35 45 43q18 25 66 54.5t73 29.5q66 0 98 -182q33 -172 41 -424q0 -39 27 -8q190 205 190 393q0 66 -47 90q-18 8 -2 31q18 33 73.5 67.5t76.5 34.5q59 0 59 -121z" />
<glyph unicode="w" horiz-adv-x="1314" d="M1286 680v-2q0 -74 -32.5 -157t-95 -172t-107.5 -143l-117 -134q-25 -29 -87.5 -73t-80.5 -44q-25 0 -49 53q-16 39 -35.5 174t-22.5 199q-2 39 -14 43t-33 -33q-100 -176 -172 -260q-6 -6 -20 -31.5t-39 -50.5q-20 -23 -88 -58q-64 -34 -77 -34h-1q-31 0 -14 25 q8 14 24 124q10 78 10 172q0 47 -3 97q-7 152 -27 217q-8 37 -16.5 49t-26.5 8q-59 -16 -123 -94q-10 -10 -16 -5q-4 3 -4 9q0 4 1 8q27 68 48 90q43 49 147 122t154 73q53 0 67 -152q12 -121 12 -258q0 -76 -4 -157q0 -8 2.5 -13.5t6.5 -6.5t8 3t10 13q51 80 139 264 q20 43 35 61q10 18 19 56q0 10 4 16l6 9q2 3 8 8t8 5q6 4 40 22.5t61.5 36t37.5 27.5q25 25 47.5 25t0.5 -35q-21 -40 -22 -147q0 -18 1 -37q6 -303 57 -385q18 -31 54 -2q70 66 120 185.5t50 252.5q0 49 -12.5 107.5t-22.5 72.5q-23 33 20 33q57 0 110.5 -46t53.5 -130z " />
<glyph unicode="x" horiz-adv-x="991" d="M410 850h2q16 0 40.5 -24.5t47.5 -75.5q18 -43 33.5 -90.5t23.5 -67.5q14 -43 39 -6q33 49 115 151q16 18 14 33q0 18 23 33q20 16 58 38.5t56 26.5q4 1 7 1q8 0 10 -5q2 -6 0 -33l-2 -29q0 -118 94 -130q14 -3 14 -10.5t-14 -18.5q-28 -22 -71 -22q-10 0 -20 2 q-56 6 -92 39q-7 7 -16 6q-18 0 -43 -29q-63 -55 -106 -137q-17 -32 -17 -58q0 -9 2 -18q88 -281 150 -281q68 0 151 152q8 14 13.5 16t7.5 -4t4 -20v-11q0 -42 -29 -90q-49 -82 -136 -152.5t-171 -70.5q-25 0 -49.5 26.5t-48 84t-32.5 84l-28 86.5q-14 39 -34 6 q-96 -152 -152 -213q-80 -86 -164 -86q-45 0 -74.5 28.5t-29.5 86.5q-4 41 34 100q18 39 37 6q29 -59 88 -59q51 0 121 63.5t113 161.5q7 18 7 39q0 24 -9 51q-72 236 -115 236q-53 0 -147 -146q-8 -14 -14.5 -12t-4.5 16q-1 10 -1 21q0 43 22 78q59 78 168 165 q80 62 125 62z" />
<glyph unicode="y" horiz-adv-x="882" d="M346 852h2q76 0 125 -197q45 -180 64 -448q2 -23 10 -25t16 13q49 80 100.5 218t53.5 234q0 53 -47 74q-14 10 10 37q80 86 164 98q27 0 26 -47q0 -131 -106.5 -375t-190.5 -371q-25 -39 -36 -92q-8 -33 -64 -63l-11 -10.5t-16 -16.5q-129 -201 -250.5 -307t-215.5 -106 q-44 0 -44 30q0 12 7 29q41 98 84 164q23 31 34 8q19 -20 48 -20q20 0 45 10q45 16 101 65t99 119q6 0 4 38t-2 46v13q0 124 -37 319q-39 205 -79 282q-6 10 -12.5 25.5t-10.5 23t-9 14.5t-10 10t-14 3q-37 0 -127 -145q-6 -12 -12 -15.5t-9 1t-3 16.5q0 72 37 119 q70 92 146.5 160.5t129.5 68.5z" />
<glyph unicode="z" horiz-adv-x="864" d="M393 848h2q51 0 154 -33q72 -23 100 -22q49 0 82 24q16 14 39 43q29 31 86 31q15 0 15 -10q0 -7 -7 -19q-4 -8 -12 -16q-94 -104 -135 -144l-246 -261q-123 -136 -170 -197q-18 -20 6 -21q43 0 129 -37q125 -47 172 -47q84 0 129 50.5t80 154.5q10 27 21 8 q10 -25 9 -61.5t-9 -54.5q-45 -106 -143.5 -199.5t-229.5 -93.5q-29 0 -72 16t-99 45t-58 31q-47 20 -78 20q-41 0 -105 -59q-27 -23 -69 -23q-11 0 -11 11q0 6 4 14q35 51 123 145q319 332 428 457q27 27 -4 21q-4 -1 -12 -1q-26 0 -92 9q-104 23 -146 22q-66 0 -93 -12 t-52 -49q-33 -49 -45 -125q-4 -27 -21 -14q-37 27 -36 73q2 31 50 104.5t101 125.5q94 94 215 94z" />
<glyph unicode="{" horiz-adv-x="804" d="M537 -403h-2q-166 0 -257.5 78.5t-66.5 234.5q14 88 74 283q43 145 -11.5 216.5t-162.5 79.5q-31 2 -17 21q10 14 34 32.5t36 20.5q141 14 180 88t23 209q-31 256 76.5 401.5t371.5 182.5q12 2 16.5 -4t-4.5 -19q-49 -66 -65 -69q-231 -70 -209 -363q12 -193 8 -223 q-16 -139 -201 -215q-29 -12 -2 -27q66 -37 100 -84t36 -109.5t-10.5 -118.5t-41.5 -142q-76 -225 -32 -306q20 -41 75.5 -67.5t122.5 -30.5q29 0 4 -24q-30 -45 -75 -45z" />
<glyph unicode="|" horiz-adv-x="589" d="M252 1671h127v-2228h-127v2228z" />
<glyph unicode="}" horiz-adv-x="804" d="M297 1442h2q152 0 243 -76t72 -229q-4 -39 -12 -76t-14 -57.5t-22 -67.5l-23 -72q-47 -141 8 -217t162 -84q29 -2 20 -20q-51 -51 -67 -54q-139 -12 -179.5 -85.5t-25.5 -213.5q27 -231 -73.5 -391.5t-369.5 -204.5q-12 -4 -16 2.5t4 20.5q8 16 28.5 42t31.5 28 q231 68 204 360q-8 201 -4 236q16 141 203 221q29 10 0 24q-86 49 -114.5 124t-17.5 146.5t50 186.5q70 221 37 289q-39 78 -199 100q-27 6 -2 25q10 16 33 29.5t41 13.5z" />
<glyph unicode="~" horiz-adv-x="1179" d="M424 580h2q86 0 221 -97q121 -78 174 -77q74 0 160 110q18 29 96 55q8 4 14.5 5.5t9.5 0t3 -5.5t-2 -10q-51 -113 -162 -211t-215 -98q-45 0 -86 17.5t-117 70.5q-111 78 -172 78q-68 0 -138.5 -53.5t-115.5 -114.5q-27 -35 -26 8q0 63 24 92q72 90 163 160t167 70z" />
<glyph unicode="&#xa1;" horiz-adv-x="595" d="M27 -449h-2q-20 -4 -26.5 2.5t9.5 32.5q53 68 133 369t105 451q4 18 22 12q39 -12 101 -86q8 -10 14 -81t4 -195t-18 -240q-16 -109 -41 -152q-23 -33 -84 -55q-121 -48 -217 -58zM428 842q-6 -72 41 -142q18 -45 18 -75q-20 -25 -62 -52.5t-71 -33.5q-53 -2 -91 36.5 t-40 77.5q-10 8 -16 33t-2 41q10 14 60 44t85 42q64 39 78 29z" />
<glyph unicode="&#xa2;" d="M944 899v-2q0 -47 -37 -87t-69 -50q-25 -10 -25 10q-4 131 -100 160q-18 6 -23 -19q-68 -373 -112 -577q-2 -12 5 -18.5t15 -6.5q84 2 162 40t127 87q14 14 20 11t2 -21q-12 -53 -39 -78q-119 -121 -299 -158q-27 -6 -30 -32q-25 -98 -31 -119q-10 -33 -86 -113 q-12 -12 -18.5 -7t-2.5 18q23 80 52 210q2 10 -6.5 17.5t-12.5 7.5q-135 2 -229 81t-94 243q0 242 209 395q133 94 282 133q16 2 21 27q6 27 24 143q0 6 13 18l23 23q11 10 27.5 22.5t18.5 14.5q18 12 19 4v-8q-23 -133 -37 -207q-4 -18 16 -21q135 -10 184 -61 q31 -37 31 -80zM346 582v-2q0 -207 119 -250q8 -4 14 -2t8 6t5 14q37 166 110 572q2 14 -2 19t-12 3q-68 -10 -123 -57q-53 -47 -86 -134t-33 -169z" />
<glyph unicode="&#xa3;" d="M752 1239h2q57 0 101 -27.5t40 -83.5q-2 -53 -78 -133q-35 -35 -37 6q-4 66 -54 99t-112 33q-29 0 -58.5 -25t-41.5 -66q-25 -80 -41 -376q0 -29 29 -29q236 0 311 25q12 4 14 -3q0 -6 -8 -18q-6 -10 -32.5 -34.5t-45.5 -31.5q-76 -29 -252 -34q-31 -2 -34 -23 q-27 -125 -76 -199.5t-129 -138.5q-16 -12 -14 -18t20 -2q90 16 207 -4q164 -27 207 -27q80 0 133 56.5t96 162.5q10 25 25 23q31 -14 12 -101q-35 -133 -147.5 -242.5t-208.5 -109.5q-37 0 -74 7t-56.5 13.5l-95.5 32.5l-42 16l-38 13l-30 10q-18 6 -31.5 8t-30 5.5 t-35.5 3.5q-59 6 -178 -70q-16 -8 -20 -7t-4 11q25 61 41 74q129 104 159 160q33 57 45.5 123.5t16.5 187.5q2 35 -23 35q-152 0 -190 14q-12 4 -14.5 8t4.5 8q86 84 106 78q27 -8 96 -8q31 0 33 25q23 221 103 327q37 47 96 97.5t98 70.5q142 78 236 78z" />
<glyph unicode="&#xa4;" d="M565 940h2q100 0 162 -45q16 -12 27 2q37 39 104 94q51 31 115 27q20 0 0 -21q-49 -47 -170 -192q29 -53 37 -88t6 -96q-2 -96 -74 -193q-6 -6 -6 -19.5t4 -21.5q88 -123 143 -180q14 -14 3 -21q-37 -18 -100.5 -3.5t-94.5 46.5l-34.5 33t-39.5 39q-100 -74 -200 -74 q-119 0 -177 58q-29 -25 -93 -89l-68 -69q-12 -10 -15.5 -7t-7.5 21q-10 57 16 90l97 113q14 14 0 35q-33 61 -31 162q2 115 80 211q-6 6 -82 100q-43 53 -39 84q12 55 55 94q16 20 27 4q6 -12 129 -162q12 -18 29 -6q106 74 196 74zM514 854h-2q-74 0 -122 -66.5 t-50 -181.5q-4 -129 43 -205.5t119 -76.5q80 0 123 53t49 190q4 121 -41 204t-119 83z" />
<glyph unicode="&#xa5;" d="M360 432l13 119h-66q-137 0 -170 12q-20 8 -8 19q88 68 102 63q61 -12 146 -12q-12 100 -79 264t-101 203q-23 31 -58 35q-41 4 -90 14q-8 4 0 10q76 61 88 62q68 -10 197 -15q141 0 237 15q8 0 7 -9q-20 -37 -37 -49q-8 -8 -74 -26q-18 -6 -8 -35q57 -154 108 -367 q4 -16 17 -2q176 309 207 367q12 25 -9 28q-72 8 -96 15q-12 4 0 16q59 59 82 55q12 -2 55 -6q12 0 44 -1t48 -1q96 0 179 17q8 2 8 -4q0 -4 -4 -9q-23 -39 -51 -51q-41 -16 -82 -26q-31 -8 -66 -50q-61 -68 -143 -196.5t-131 -227.5q-12 -27 14 -26q100 0 225 16q8 2 9 -1 t-3 -13q-4 -8 -23.5 -27.5t-35.5 -25.5q-66 -31 -158 -31h-39q-23 0 -22 -23l-8 -73q-2 -23 18 -23q121 0 234 14q6 2 8 -1t-2 -9q-8 -14 -33 -34.5t-49 -28.5q-53 -23 -166 -25q-25 0 -27 -22q-18 -190 -16 -211q0 -23 20 -25q111 -10 158 -27q12 -6 0 -18 q-10 -12 -40 -34.5t-38 -22.5q-39 6 -102 8q-98 4 -158 4q-106 0 -287 -23q-10 -2 -13 0.5t3 10.5q35 45 61.5 59t116.5 35q23 4 31 31q25 63 43 235h-78q-113 0 -192 14q-16 0 -6 13q10 14 50 44t48 27q51 -12 192 -14z" />
<glyph unicode="&#xa6;" horiz-adv-x="638" d="M254 1505h174v-780h-174v780zM254 -389v780h174v-780h-174z" />
<glyph unicode="&#xa7;" horiz-adv-x="886" d="M664 1178h2q78 0 122 -52q14 -18 9 -43q-18 -68 -76 -110q-14 -12 -21 2q-12 37 -47 68.5t-86 31.5q-135 0 -135 -135q0 -14 3 -28.5t15 -28.5l20 -26q9 -11 32 -31l36 -30l47 -38l54 -43q158 -129 158 -281q0 -182 -148 -360q-14 -14 -18 -35q-14 -94 -82 -174 t-166 -127q-78 -39 -166 -39q-55 0 -96 23.5t-55 48.5q-20 35 4 75q41 53 84 82q14 10 18 0q8 -51 58.5 -87t103.5 -36q129 0 129 144q0 96 -166 213q-209 147 -209 330q0 205 162 366q12 12 29 45q51 106 149 182q125 93 236 93zM428 584q-119 94 -145 176q-6 23 -21 2 q-37 -45 -37 -123q0 -84 70 -164t207 -184q70 -53 106 -129q10 -20 25 2q31 31 31 98q0 82 -59.5 157t-176.5 165z" />
<glyph unicode="&#xa8;" horiz-adv-x="874" d="M182 1141q8 10 61.5 44t75.5 44q33 10 33 -6q6 -45 58 -121q23 -25 -4 -53q-47 -47 -127 -93q-29 -14 -46 -4q-14 8 -42.5 53.5t-26.5 75.5q0 37 18 60zM575 1143q55 41 132 86q31 18 43 -8q43 -88 61 -109q25 -27 -4 -61q-23 -27 -78 -66t-84 -39q-18 0 -53 49t-39 84 q-7 41 22 64z" />
<glyph unicode="&#xa9;" horiz-adv-x="1390" d="M836 1227h2q229 0 363 -151.5t134 -393.5q0 -197 -110.5 -362.5t-272 -254t-325.5 -88.5q-227 0 -369.5 141.5t-142.5 391.5q0 160 65.5 298t170 228t231.5 140.5t254 50.5zM748 1141h-3q-227 0 -368 -167t-141 -399q0 -240 135 -377t325 -137q240 0 387.5 173.5 t147.5 402.5q0 223 -130 363.5t-353 140.5zM852 942h2q100 0 156 -39q14 -10 18 -27.5t-2 -25.5q-10 -18 -43 -129q-8 -20 -25 -19q-4 0 -4 5q-8 78 -28 100l-9.5 10t-12.5 12l-16 14q-11 9 -22 13l-25 10q-15 6 -35 8.5t-42 2.5q-59 0 -107 -37q-80 -70 -79 -224 q0 -113 64.5 -175t154.5 -62q141 0 227 82q8 8 8 -4q0 -25 -18 -54q-18 -20 -79 -55t-104 -49q-55 -25 -141 -25q-147 0 -228 78t-81 205q0 174 180 295q139 90 291 90z" />
<glyph unicode="&#xaa;" horiz-adv-x="645" d="M444 1073h2q20 0 56 -26q4 -6 18 6q27 31 101 39q10 2 12 -1.5t-4 -9.5q-10 -12 -35 -80q-35 -147 -35 -268q0 -43 12 -43q39 0 80 53q16 18 17 -2q0 -37 -13 -55q-27 -37 -105.5 -86t-121.5 -49q-12 0 -22.5 19.5t-10.5 39.5q-2 29 11 107q2 12 -3.5 12t-9.5 -6 q-47 -55 -121 -115q-78 -57 -133 -57q-18 0 -34.5 29.5t-16.5 83.5q-4 139 80 245q23 33 127 97q108 67 149 67zM387 989h-2q-49 0 -72 -20q-31 -29 -47 -92.5t-14 -118.5q0 -70 27 -70q43 0 112 109q27 39 43 104q8 37 29 64q6 10 -12 14q-37 10 -64 10z" />
<glyph unicode="&#xab;" horiz-adv-x="1044" d="M348 371q74 -74 113 -187q18 -49 14 -90q-2 -18 -25.5 -44.5t-46.5 -43.5q-14 -10 -18 0q-25 109 -106.5 210t-161.5 128q-20 6 -13 21q18 33 54 47q104 53 229 175t162 199q10 20 24 7q25 -41 19 -66q-51 -152 -240 -319q-20 -21 -4 -37zM731 367q78 -84 121 -217 q14 -41 10 -74q-2 -16 -23.5 -44t-47.5 -40q-18 -12 -19 0q-25 111 -113 215t-165 141q-12 6 -11 21q14 25 54 47q264 152 401 393q16 33 23 10l10 -16q8 -16 10 -25.5t0 -25.5q-70 -188 -254 -340q-23 -18 4 -45z" />
<glyph unicode="&#xac;" horiz-adv-x="1136" d="M711 479h-484q-111 0 -110 21q0 8 27.5 48t43.5 58q20 20 31 17q53 -14 279 -15q332 0 415 15q4 2 7.5 -2.5t3.5 -16.5q-12 -301 -13 -348q0 -109 15 -166q2 -4 -3 -7t-12 -3q-41 0 -83 22.5t-48 49.5q-10 80 -10 243q0 33 -3 48.5t-16 25.5t-40 10z" />
<glyph unicode="&#xad;" horiz-adv-x="724" d="M88 358q6 6 29.5 39t44 57.5t26.5 24.5q25 -2 99 2q236 14 370 51q10 2 11 -6q0 -6 -9 -16q-25 -39 -68.5 -77t-74.5 -50q-68 -25 -198 -41t-189 -16q-53 0 -55 12q0 6 14 20z" />
<glyph unicode="&#xae;" horiz-adv-x="612" d="M426 1130h2q109 0 109 -73q0 -45 -54 -72q-12 -10 -8 -18q23 -68 70 -68q80 0 80 129q0 74 -52.5 131.5t-142.5 57.5q-104 0 -168 -56q-94 -78 -94 -198q0 -104 62.5 -158.5t152.5 -54.5q31 0 57.5 4t48 12t34 14t30.5 17.5t22 13.5q6 6 7 0q0 -14 -11 -35 q-20 -29 -80.5 -55.5t-142.5 -26.5q-127 0 -190.5 65.5t-63.5 170.5q0 160 146 264q100 72 221 72q98 0 159.5 -57.5t61.5 -153.5q0 -102 -54.5 -154.5t-113.5 -52.5q-51 0 -115 84q-18 27 -26 14q-2 -2 -2 -6q-2 -10 -4 -26.5t-2 -24.5q0 -10 10 -10q20 0 45 -7 q10 -4 6 -10q-2 0 -9 -7t-15.5 -12t-12.5 -5l-24 2h-46q-57 0 -86 -6q-8 0 -4 6q8 14 19 20q4 4 24 14q8 2 15 19q14 98 10 172q0 8 -4 8q-20 0 -64 -14q-2 0 -2 2q14 29 39 39q62 30 160 30zM399 1087h-2q-10 0 -12 -8l-8 -88q0 -12 18 -12q61 0 62 51q-1 57 -58 57z" />
<glyph unicode="&#xaf;" horiz-adv-x="874" d="M219 1051q61 78 92 102q37 -10 121 -10q63 0 130 3t107 7l77 8q38 4 40 4q6 2 7 -4q0 -8 -9 -16q-84 -96 -145 -117q-82 -25 -344 -24q-86 0 -84 26q0 9 8 21z" />
<glyph unicode="&#xb0;" horiz-adv-x="598" d="M422 1337h2q100 0 150.5 -55t50.5 -149q0 -121 -76 -183q-127 -104 -227 -104q-68 0 -134.5 52t-66.5 157q0 109 88 178q43 39 104.5 71.5t108.5 32.5zM362 1243h-2q-55 0 -87.5 -41t-32.5 -102q0 -80 45 -124t102 -44q45 0 79 38t34 111q0 72 -34 117t-104 45z" />
<glyph unicode="&#xb1;" horiz-adv-x="1136" d="M610 1098h2q14 0 15 -74v-293q0 -23 14 -22q74 -2 136.5 -1t139 2t87.5 1q29 0 10 -19q-14 -20 -52 -57t-53 -39q-162 -14 -237 -14q-23 0 -35 -11.5t-12 -21.5q0 -90 -9 -246q-2 -25 -47 -69t-65 -56q-4 -2 -7 1t-3 9v334q0 29 -14.5 44.5t-33.5 15.5h-45q-246 0 -280 8 q-25 8 -10 22q18 23 57 101q8 18 25 12q43 -18 288 -18q12 0 13 18q0 254 -7 315q12 10 60.5 34t62.5 24zM383 129h623q18 0 10 -10q-14 -20 -57.5 -60.5t-51.5 -42.5q-143 -16 -514 -16q-258 0 -280 6q-27 10 -9 37l66 80q16 23 29 20q41 -8 184 -14z" />
<glyph unicode="&#xb2;" horiz-adv-x="667" d="M449 1448h2q90 0 134 -49t44 -117q0 -61 -24.5 -112.5t-53.5 -81t-80 -70.5q-14 -12 -133 -98q-8 -8 4 -15q37 -18 172 -18q80 0 158 84q10 10 15 8t3 -14q-8 -43 -26 -66q-102 -135 -275 -135q-61 0 -134 6t-99 6q-49 0 -84 -10q-25 -4 -9 14q66 80 78 86 q115 45 207 139.5t92 211.5q0 57 -27.5 95t-84.5 38q-41 0 -73 -34t-38 -89q-4 -45 -4 -60q2 -20 -12 -20q-29 0 -51.5 27.5t-18.5 54.5q6 55 82 119q115 100 236 100z" />
<glyph unicode="&#xb3;" horiz-adv-x="667" d="M467 1450h2q76 0 116 -39t40 -98q0 -63 -88 -117q-35 -20 -68 -35q-6 -4 -4 -9t10 -7q51 -10 83 -21.5t58.5 -43t26.5 -79.5q-2 -125 -182 -223q-129 -70 -240 -69q-109 0 -131 55q-10 27 4 41q16 10 47 86q8 20 21 16q6 -2 6 -8q10 -51 20 -61q49 -49 129 -50 q66 0 99 38t35 100q2 55 -37 89t-111 34q-43 0 -82 -15q-4 -2 -7 0t-2 7.5t5 15.5q18 35 53 53q88 35 128 68.5t40 78.5q0 33 -21.5 55.5t-62.5 22.5q-74 0 -176 -94q-16 -10 -14 6q4 45 22 66q45 53 120 95t161 42z" />
<glyph unicode="&#xb4;" horiz-adv-x="874" d="M768 1337h2q10 0 14 -10t-1 -28.5t-19 -38.5q-45 -76 -125 -168.5t-121 -120.5q-16 -12 -57 -25.5t-68 -13.5q-6 0 -7 5t3 9q47 53 109.5 156.5t91.5 177.5q14 12 80.5 34.5t97.5 22.5z" />
<glyph unicode="&#xb5;" horiz-adv-x="1052" d="M412 168h2q49 0 98 64.5t104 175.5q29 55 93 325q10 31 36 37q18 4 92 30.5t91 39.5q29 18 45 16q6 -2 7 -7t-3 -14.5t-16 -21.5q-23 -25 -46 -106q-57 -188 -67 -400q-8 -147 37 -147q53 0 137 127q23 35 22 -2q6 -45 -16 -88q-41 -74 -154.5 -157t-195.5 -83 q-27 0 -43.5 43t-13.5 92q2 72 18 182q0 10 -2 15.5t-8 2.5t-13 -13q-125 -199 -227 -265q-70 -49 -113 -49q-16 0 -34.5 11.5t-22.5 21.5q-10 20 -16 0q-25 -57 -35 -176q-8 -104 40 -173t124 -69q39 0 6 -29q-20 -25 -69.5 -46t-88.5 -23q-53 0 -79.5 46t-28.5 119.5 t2 168.5q4 59 46 379.5t60 443.5q10 70 24.5 95.5t37.5 35.5q172 86 221 86q35 0 10 -25q-31 -25 -55 -96q-20 -63 -41 -192t-25 -219q-8 -156 60 -156z" />
<glyph unicode="&#xb6;" horiz-adv-x="1265" d="M504 -276h2q78 0 137 35.5t91 70.5t59.5 130t34 129t22.5 151q2 14 4 22q4 33 -6 33q-2 0 -10 -4q-78 -53 -147.5 -78t-100.5 -25q-176 0 -289 105.5t-113 310.5q0 117 44 208t113 141.5t140.5 76t137.5 25.5q70 0 295 10q8 -2 34 29q23 31 50.5 58.5t39.5 25.5 q10 0 13.5 -37t-0.5 -54q-2 -20 18 -26q164 0 217 33q8 6 14.5 6t7.5 -4t-1 -11q-14 -37 -80 -78.5t-154 -43.5q-33 0 -37 -43q-27 -301 -59 -531q-20 -176 -55 -309t-97.5 -254t-168 -186.5t-246.5 -65.5q-80 0 -146.5 39t-83.5 94q-12 39 -6 84q4 68 60 141q6 8 13 12.5 t12 1.5t3 -18q-6 -35 21 -96q59 -108 217 -108zM874 956h-2q-84 0 -127 -14q-59 -16 -107 -98t-48 -199q0 -125 48 -205t140 -80q39 0 68 13q18 8 28 57q8 47 23.5 242.5t13.5 240.5q-4 43 -37 43z" />
<glyph unicode="&#xb7;" horiz-adv-x="505" d="M358 586q-6 -47 11.5 -106.5t42.5 -88.5q12 -20 -15 -43q-31 -29 -89 -63.5t-81 -34.5q-55 0 -86.5 68.5t-29.5 127.5q0 37 18 50q23 16 91.5 54t105.5 48q16 6 25 3t7 -15z" />
<glyph unicode="&#xb8;" horiz-adv-x="821" d="M393 6h62q-61 -96 -62 -112q0 -31 78 -78q68 -43 68 -95q0 -61 -72 -124q-121 -106 -205 -107q-29 0 -54.5 19.5t-29.5 35.5q-4 14 -2 19.5t17 3.5q33 -4 47 -4q61 0 108 24.5t47 55.5q0 18 -18.5 34.5t-85.5 57.5q-49 27 -49 67q2 23 57 93.5t94 109.5z" />
<glyph unicode="&#xb9;" horiz-adv-x="667" d="M322 1106q20 143 16 168q0 18 -21 18q-35 -2 -139 -2q-8 0 -11 2t-1 8q8 8 34.5 29t39.5 23q227 47 301 102q4 2 7 1t5 -6t0 -11q-25 -86 -43 -242q-37 -297 -33 -324q4 -20 27 -20q100 -8 133 -18q12 -4 6 -11q-12 -14 -44 -36.5t-38 -22.5q-86 10 -194 10 q-162 0 -261 -16q-12 -2 -14 0t4 10q4 6 29 27.5t31 23.5q12 6 46 15.5t44 11.5q16 2 22 18q23 49 54 242z" />
<glyph unicode="&#xba;" horiz-adv-x="598" d="M457 1077h2q141 0 141 -174q0 -156 -111 -241q-41 -33 -121.5 -71t-119.5 -38q-154 0 -154 174q0 102 64 191q8 12 22.5 25t34.5 26l32 19q11 7 36.5 20.5t27.5 15.5q31 18 37 23q58 30 109 30zM354 993h-2q-25 0 -41 -18q-57 -57 -57 -193q0 -78 29.5 -109.5t66.5 -31.5 q35 0 58 35q37 59 36 176q0 141 -90 141z" />
<glyph unicode="&#xbb;" horiz-adv-x="1044" d="M311 444q-80 86 -121 218q-14 41 -10 71q2 16 23.5 44t48.5 42q18 10 18 0q25 -113 114 -217t167 -137q14 -6 8 -23q-14 -27 -53 -45q-262 -152 -402 -395q-16 -27 -22 -8q0 2 -8 15.5t-12.5 27.5t-0.5 24q66 178 254 338q23 18 -4 45zM692 440q-74 72 -110 187 q-18 55 -13 90q2 18 24.5 44.5t47.5 41.5q12 12 16 0q23 -106 107 -208.5t162 -127.5q18 -6 12 -21q-18 -33 -53 -47q-106 -51 -230.5 -172t-162.5 -202q-8 -20 -23 -7q-27 43 -18 66q47 147 239 319q18 19 2 37z" />
<glyph unicode="&#xbc;" horiz-adv-x="1490" d="M291 901q16 119 16 168q-2 18 -20 18q-37 -2 -137 -2q-8 0 -12.5 2.5t-2.5 8.5q8 8 35 28.5t39 22.5q227 47 303 102q4 2 7 1t5 -6t0 -11q-25 -76 -45 -242q-35 -289 -30 -323q4 -20 24 -21q100 -8 133 -18q12 -4 6 -11q-12 -14 -43.5 -36.5t-38.5 -22.5q-86 10 -194 10 q-164 0 -258 -16q-14 -2 -16.5 0t4.5 10q4 6 28.5 27.5t32.5 23.5l90 27q12 2 23 18q28 70 51 242zM1184 1272q31 23 110 37q10 4 14.5 0t-1.5 -13q-119 -193 -509 -697.5t-519 -616.5q-18 -14 -67.5 -37t-64.5 -25q-23 0 -10 12q225 238 579.5 697t467.5 643zM684 184 q102 86 205.5 216t146.5 225q4 10 52.5 40.5t78.5 43.5q41 23 -16 -72q-37 -68 -305 -385q-8 -14 8 -19q63 -18 137 -18q20 0 25 18q12 104 4 156q-2 14 6 19q35 6 91.5 31.5t82.5 47.5q14 10 20.5 7.5t4.5 -21.5q-16 -143 -33 -244q-2 -16 14 -16q70 0 135 37q12 8 13 0 q0 -6 -6 -17q-10 -20 -33 -43q-47 -45 -125 -51q-16 0 -19 -22q-2 -18 -14 -66q-10 -39 -22 -53q-12 -16 -68.5 -43t-91.5 -35q-18 -4 -19 2q0 2 2 6q27 53 41 176q4 31 -18 31q-25 0 -111 8.5t-122 8.5q-51 0 -70 -11q-12 -8 -12 6q0 21 18 37z" />
<glyph unicode="&#xbd;" horiz-adv-x="1490" d="M297 901q20 143 16 168q0 18 -20 18q-37 -2 -137 -2q-8 0 -12.5 2.5t-0.5 8.5q6 8 33 28.5t39 22.5q225 45 303 102q4 2 7 1t5 -6t0 -11q-25 -76 -45 -242q-35 -289 -30 -323q4 -20 24 -21q106 -8 133 -18q16 -4 6 -11q-12 -14 -43.5 -36.5t-35.5 -22.5q-88 10 -197 10 q-160 0 -258 -16q-14 -2 -15 0t3 10q49 49 61 51l90 27q12 2 23 18q26 60 51 242zM1182 1272q31 23 110 37q10 4 14.5 0t-1.5 -13q-121 -195 -510 -699.5t-519 -616.5q-18 -14 -67 -37t-64 -25q-20 0 -8 12q225 240 578.5 699t466.5 643zM1149 676h2q90 0 134 -49t44 -117 q0 -61 -24.5 -112.5t-53 -81t-80.5 -70.5q-14 -12 -133 -99q-8 -8 6 -14q33 -18 175 -18q72 0 153 84q10 10 15.5 8t3.5 -14q-8 -43 -27 -66q-102 -135 -272 -135q-61 0 -134 6t-100 6q-49 0 -84 -10q-25 -4 -8 14q66 80 78 86q115 45 206 139.5t91 210.5q0 55 -28 94.5 t-83 39.5q-43 0 -73.5 -34t-36.5 -89q-4 -45 -5 -60q2 -20 -12 -20q-29 0 -51.5 27.5t-17.5 54.5q6 55 81 118q111 101 234 101z" />
<glyph unicode="&#xbe;" horiz-adv-x="1490" d="M471 1245h2q78 0 117 -37t39 -98q0 -66 -88 -119q-35 -20 -68 -35q-6 -4 -4 -9t10 -7q51 -10 83 -21.5t58.5 -43t26.5 -78.5q-2 -125 -182 -224q-129 -70 -239.5 -69.5t-131.5 51.5q-12 25 4 41q16 10 47 86q8 20 21 14q6 0 6 -8q16 -51 23 -57q47 -47 127 -47 q66 0 98.5 37.5t34.5 99.5q2 55 -37 89t-111 34q-43 0 -82 -15q-4 -2 -7 0t-2 7.5t5 15.5q18 35 53 53q88 35 128 69t40 79q0 33 -21.5 55t-62.5 22q-74 0 -176 -94q-16 -10 -14 6q4 45 22 66q45 53 120 95t161 42zM1194 1272q20 14 111 37q10 2 13 -1t-1 -12 q-121 -195 -510 -698.5t-518 -615.5q-18 -14 -67.5 -37t-63.5 -25q-20 0 -8 12q227 238 580 698t464 642zM684 184q102 86 205.5 217t146.5 226q4 10 52.5 40.5t78.5 43.5q20 10 17 -9q-4 -18 -33 -63q-41 -74 -305 -387q-8 -14 8 -19q63 -18 137 -18q20 0 25 18 q12 104 4 156q-4 18 6 19q35 6 91.5 32.5t82.5 48.5q14 8 20.5 6.5t4.5 -20.5q-16 -141 -33 -246q-2 -16 14 -16q70 0 135 37q12 8 13 0q0 -6 -6 -17q-10 -20 -33 -43q-47 -45 -125 -51q-16 0 -19 -22q-2 -18 -14 -66q-10 -39 -22 -53q-12 -16 -68.5 -43t-91.5 -35 q-6 -2 -11.5 -2t-6.5 3t1 7q27 53 41 176q4 31 -18 31q-25 0 -111 8.5t-120 8.5q-53 0 -72 -11q-12 -8 -12 6q0 21 18 37z" />
<glyph unicode="&#xbf;" horiz-adv-x="884" d="M248 -446h-2q-115 0 -173.5 55t-58.5 139q0 49 11.5 90t44 82t50 60.5t76 68.5t72.5 64q143 123 146 221q0 43 -11 67q-8 23 11 25q59 2 102 -27.5t43 -79.5q0 -31 -31.5 -73.5t-132.5 -155.5q-102 -115 -102 -258q-2 -72 33.5 -116t91.5 -44q72 0 122 62.5t50 154.5 q0 29 -6 68q-2 12 4 15t20 3q47 0 83 -34.5t34 -81.5q-4 -41 -56.5 -97.5t-123.5 -93.5q-160 -114 -297 -114zM608 836q-6 -47 11.5 -102.5t42.5 -86.5q12 -18 -15 -43q-27 -29 -88 -62.5t-84 -33.5q-57 0 -90 70.5t-27 126.5q2 27 19 43q102 70 198 100q16 6 25.5 3 t7.5 -15z" />
<glyph unicode="&#xc0;" horiz-adv-x="1396" d="M930 1286h2q23 0 2 -39q-27 -47 -12 -147q6 -68 39 -213q92 -418 192 -668q27 -68 44 -92.5t48 -26.5q121 -18 148 -26q16 -6 0 -21q-84 -59 -105 -59q-14 2 -46 3t-48 1q-35 2 -119 2q-193 -4 -307 -25q-14 -4 -12 2q0 6 8 17q18 29 57 49l68 25q23 10 16 36 q-12 66 -63 263q-6 27 -14.5 31.5t-22.5 -3.5q-88 -41 -324 -28q-31 2 -45 -23l-72 -120l-55 -87q-20 -39 10 -41q119 -14 173 -30q20 -6 6 -21q-27 -20 -62 -40.5t-45 -18.5q-8 0 -35.5 4t-65.5 7t-77 3q-180 0 -258 -25q-10 -2 -14 -1t-2 7.5t10 14.5q39 49 82 61l92 27 q35 14 63 47q53 59 156 246q4 6 6 11t1 10t-2 7.5t-5 8.5t-6 10q-8 16 0 27q25 29 61 49q25 20 35 37q141 240 252 522l10 31q8 25 13 38q6 27 18 37q187 121 205 121zM690 477h2q76 0 96 10q25 10 21 31q-23 119 -82 359q-8 31 -25 -5q-41 -100 -167 -350q-8 -6 -4 -12 t6 -8t16 -8q33 -17 137 -17zM645 1638q14 4 21 -8q25 -35 126 -109.5t234 -136.5q18 -8 -4 -18q-51 -29 -104 -29q-47 0 -202 60.5t-229 118.5q-39 31 -12 45q152 71 170 77z" />
<glyph unicode="&#xc1;" horiz-adv-x="1396" d="M930 1286h2q23 0 2 -39q-27 -47 -12 -147q6 -68 39 -213q92 -418 192 -668q27 -68 44 -92.5t48 -26.5q121 -18 148 -26q16 -6 0 -21q-84 -59 -105 -59q-14 2 -46 3t-48 1q-35 2 -119 2q-193 -4 -307 -25q-14 -4 -12 2q0 6 8 17q18 29 57 49l68 25q23 10 16 36 q-12 66 -63 263q-6 27 -14.5 31.5t-22.5 -3.5q-88 -41 -324 -28q-31 2 -45 -23l-72 -120l-55 -87q-20 -39 10 -41q119 -14 173 -30q20 -6 6 -21q-27 -20 -62 -40.5t-45 -18.5q-8 0 -35.5 4t-65.5 7t-77 3q-180 0 -258 -25q-10 -2 -14 -1t-2 7.5t10 14.5q39 49 82 61l92 27 q35 14 63 47q53 59 156 246q4 6 6 11t1 10t-2 7.5t-5 8.5t-6 10q-8 16 0 27q25 29 61 49q25 20 35 37q141 240 252 522l10 31q8 25 13 38q6 27 18 37q187 121 205 121zM690 477h2q76 0 96 10q25 10 21 31q-23 119 -82 359q-8 31 -25 -5q-41 -100 -167 -350q-8 -6 -4 -12 t6 -8t16 -8q33 -17 137 -17zM1268 1620h2q53 0 18 -41q-14 -18 -45 -39q-211 -147 -383 -203q-80 -20 -129 -4q-37 10 -6 25q45 23 149.5 95.5t155.5 123.5q8 12 17 14q29 6 119 17.5t102 11.5z" />
<glyph unicode="&#xc2;" horiz-adv-x="1396" d="M930 1286h2q23 0 2 -39q-27 -47 -12 -147q6 -68 39 -213q92 -418 192 -668q27 -68 44 -92.5t48 -26.5q121 -18 148 -26q16 -6 0 -21q-84 -59 -105 -59q-14 2 -46 3t-48 1q-35 2 -119 2q-193 -4 -307 -25q-14 -4 -12 2q0 6 8 17q18 29 57 49l68 25q23 10 16 36 q-12 66 -63 263q-6 27 -14.5 31.5t-22.5 -3.5q-88 -41 -324 -28q-31 2 -45 -23l-72 -120l-55 -87q-20 -39 10 -41q119 -14 173 -30q20 -6 6 -21q-27 -20 -62 -40.5t-45 -18.5q-8 0 -35.5 4t-65.5 7t-77 3q-180 0 -258 -25q-10 -2 -14 -1t-2 7.5t10 14.5q39 49 82 61l92 27 q35 14 63 47q53 59 156 246q4 6 6 11t1 10t-2 7.5t-5 8.5t-6 10q-8 16 0 27q25 29 61 49q25 20 35 37q141 240 252 522l10 31q8 25 13 38q6 27 18 37q187 121 205 121zM690 477h2q76 0 96 10q25 10 21 31q-23 119 -82 359q-8 31 -25 -5q-41 -100 -167 -350q-8 -6 -4 -12 t6 -8t16 -8q33 -17 137 -17zM854 1434q-59 -39 -180 -95q-39 -18 -80 -18t-72 25q-12 8 6 18q199 90 306 201q92 70 100 69.5t12 -6.5q41 -104 266 -250q10 -6 -6 -20q-16 -12 -54 -27.5t-48 -15.5q-20 0 -47 14q-70 31 -168 103q-19 12 -35 2z" />
<glyph unicode="&#xc3;" horiz-adv-x="1396" d="M930 1286h2q23 0 2 -39q-27 -47 -12 -147q6 -68 39 -213q92 -418 192 -668q27 -68 44 -92.5t48 -26.5q121 -18 148 -26q16 -6 0 -21q-84 -59 -105 -59q-14 2 -46 3t-48 1q-35 2 -119 2q-193 -4 -307 -25q-14 -4 -12 2q0 6 8 17q18 29 57 49l68 25q23 10 16 36 q-12 66 -63 263q-6 27 -14.5 31.5t-22.5 -3.5q-88 -41 -324 -28q-31 2 -45 -23l-72 -120l-55 -87q-20 -39 10 -41q119 -14 173 -30q20 -6 6 -21q-27 -20 -62 -40.5t-45 -18.5q-8 0 -35.5 4t-65.5 7t-77 3q-180 0 -258 -25q-10 -2 -14 -1t-2 7.5t10 14.5q39 49 82 61l92 27 q35 14 63 47q53 59 156 246q4 6 6 11t1 10t-2 7.5t-5 8.5t-6 10q-8 16 0 27q25 29 61 49q25 20 35 37q141 240 252 522l10 31q8 25 13 38q6 27 18 37q187 121 205 121zM690 477h2q76 0 96 10q25 10 21 31q-23 119 -82 359q-8 31 -25 -5q-41 -100 -167 -350q-8 -6 -4 -12 t6 -8t16 -8q33 -17 137 -17zM1016 1473h2q39 0 102 59q23 23 94 33q12 2 14.5 0t-1.5 -13q-37 -63 -123 -137t-150 -74q-47 0 -131 52q-61 37 -88 37q-20 0 -68.5 -28t-91.5 -71q-8 -8 -14 2q-4 10 6.5 44t22.5 48q29 37 98.5 85.5t108.5 48.5q55 0 137 -54q47 -32 82 -32z " />
<glyph unicode="&#xc4;" horiz-adv-x="1396" d="M930 1286h2q23 0 2 -39q-27 -47 -12 -147q6 -68 39 -213q92 -418 192 -668q27 -68 44 -92.5t48 -26.5q121 -18 148 -26q16 -6 0 -21q-84 -59 -105 -59q-14 2 -46 3t-48 1q-35 2 -119 2q-193 -4 -307 -25q-14 -4 -12 2q0 6 8 17q18 29 57 49l68 25q23 10 16 36 q-12 66 -63 263q-6 27 -14.5 31.5t-22.5 -3.5q-88 -41 -324 -28q-31 2 -45 -23l-72 -120l-55 -87q-20 -39 10 -41q119 -14 173 -30q20 -6 6 -21q-27 -20 -62 -40.5t-45 -18.5q-8 0 -35.5 4t-65.5 7t-77 3q-180 0 -258 -25q-10 -2 -14 -1t-2 7.5t10 14.5q39 49 82 61l92 27 q35 14 63 47q53 59 156 246q4 6 6 11t1 10t-2 7.5t-5 8.5t-6 10q-8 16 0 27q25 29 61 49q25 20 35 37q141 240 252 522l10 31q8 25 13 38q6 27 18 37q187 121 205 121zM690 477h2q76 0 96 10q25 10 21 31q-23 119 -82 359q-8 31 -25 -5q-41 -100 -167 -350q-8 -6 -4 -12 t6 -8t16 -8q33 -17 137 -17zM547 1485q14 12 60 44t65 38q35 12 37 -13q4 -53 49 -112q20 -20 0 -49q-51 -51 -125 -88q-27 -14 -43 -5q-20 14 -46 54.5t-22 72.5q5 38 25 58zM997 1485q88 66 129 82q16 6 25.5 1t9.5 -14q6 -53 51 -112q20 -25 -2 -49q-43 -47 -125 -88 q-25 -14 -43 -5q-20 16 -45.5 56.5t-21.5 70.5q4 38 22 58z" />
<glyph unicode="&#xc5;" horiz-adv-x="1396" d="M930 1286h2q23 0 2 -39q-27 -47 -12 -147q6 -68 39 -213q92 -418 192 -668q27 -68 44 -92.5t48 -26.5q121 -18 148 -26q16 -6 0 -21q-84 -59 -105 -59q-14 2 -46 3t-48 1q-35 2 -119 2q-193 -4 -307 -25q-14 -4 -12 2q0 6 8 17q18 29 57 49l68 25q23 10 16 36 q-12 66 -63 263q-6 27 -14.5 31.5t-22.5 -3.5q-88 -41 -324 -28q-31 2 -45 -23l-72 -120l-55 -87q-20 -39 10 -41q119 -14 173 -30q20 -6 6 -21q-27 -20 -62 -40.5t-45 -18.5q-8 0 -35.5 4t-65.5 7t-77 3q-180 0 -258 -25q-10 -2 -14 -1t-2 7.5t10 14.5q39 49 82 61l92 27 q35 14 63 47q53 59 156 246q4 6 6 11t1 10t-2 7.5t-5 8.5t-6 10q-8 16 0 27q25 29 61 49q25 20 35 37q141 240 252 522l10 31q8 25 13 38q6 27 18 37q187 121 205 121zM690 477h2q76 0 96 10q25 10 21 31q-23 119 -82 359q-8 31 -25 -5q-41 -100 -167 -350q-8 -6 -4 -12 t6 -8t16 -8q33 -17 137 -17zM936 1675h2q70 0 101.5 -46t23.5 -120q-12 -92 -96 -153q-78 -66 -156 -66q-49 0 -93 39t-34 123q8 78 72 133q106 90 180 90zM881 1587h-2q-86 0 -99 -96q-6 -53 22.5 -83t65.5 -30q76 0 88 88q6 49 -13 85t-62 36z" />
<glyph unicode="&#xc6;" horiz-adv-x="1918" d="M1501 1235h2q137 0 203 13.5t119 45.5q16 8 19 -1t-5 -23q-29 -47 -49.5 -138.5t-20.5 -181.5q0 -16 -3 -19t-11 -1q-12 4 -32.5 28.5t-24.5 43t-11.5 65.5l-9.5 59q-2 14 -3 19.5t-4 12.5t-6 6t-11 -1q-72 -25 -283 -24q-20 0 -28.5 -7.5t-12.5 -25.5q-4 -29 -12 -115 l-19 -196q-10 -111 -16 -164q-2 -31 21 -31h221q121 0 215 37q16 6 19 3t-5 -22q-27 -43 -84 -79.5t-119 -44.5q-4 -2 -130 0t-140 2q-18 0 -25 -43l-32 -269q-4 -51 37 -71q55 -27 241 -27q115 0 202 67.5t130 178.5q12 33 25 10q16 -25 4 -70q-29 -131 -138 -225 q-66 -61 -186 -61q-102 0 -262 8q-240 6 -242 6q-205 0 -305 -14q-18 0 0 18q43 43 78 57q2 0 111 27q31 6 43 47q33 117 59 344q2 12 -16 13q-92 0 -206 2t-128 2q-41 4 -68 -33q-221 -287 -272 -340q-10 -10 -9 -18.5t11 -8.5q125 -12 164 -28q12 -4 0 -19 q-6 -10 -46 -36.5t-49 -24.5q-98 12 -165 12q-135 0 -259 -20q-10 0 -4 10q27 35 58 55q23 18 96 37q59 18 117 78q82 82 272 348q16 25 21 72q0 35 30 41q35 10 56 38q119 178 223 367q20 35 35.5 54.5t30 31.5t18.5 16q12 18 -17 19q-166 4 -303 33q-23 8 2 22 q111 57 131 58q234 -25 758 -25zM1018 596h2q16 0 18 22q45 395 47 439q4 80 -10 80q-33 0 -86 -80q-27 -39 -115 -178l-137 -215q-25 -41 15 -50q78 -18 266 -18z" />
<glyph unicode="&#xc7;" horiz-adv-x="1226" d="M936 1284h2q127 0 205 -49q35 -23 43 -56.5t-17 -70.5q-12 -16 -25.5 -43t-26.5 -58.5t-19 -43.5q-16 -33 -45 -48q-8 -4 -10.5 0.5t-2.5 18.5q12 109 -14 156q-61 98 -213 98q-76 0 -150.5 -31t-123.5 -76q-180 -166 -181 -520q0 -225 113 -343t295 -118q207 0 387 181 q23 23 23 -5q0 -39 -48 -90q-57 -68 -169.5 -126t-210.5 -83q-37 -8 -67 -43.5t-30 -56.5q0 -18 12.5 -33.5t57.5 -42.5q68 -41 67 -94q0 -63 -71 -123q-119 -109 -205 -108q-29 0 -54.5 19.5t-31.5 35.5q-6 14 -3 19.5t17 3.5q37 -4 47 -5q61 0 109.5 26t48.5 54 q0 20 -17.5 36t-88.5 56q-47 27 -47 72q2 18 46 70.5t95 93.5q-266 -25 -404.5 110.5t-138.5 401.5q0 199 83 353.5t196 246.5q100 80 263 147.5t304 67.5z" />
<glyph unicode="&#xc8;" horiz-adv-x="1165" d="M735 1235h2q201 0 217 31q6 12 51.5 32.5t79.5 26.5h15q4 0 5 -3t-1 -7l-6 -12q-84 -190 -78 -365q0 -16 -4 -20.5t-12 2.5q-41 23 -56 79q-18 63 -18 136q-2 33 -29 26q-92 -25 -278 -24q-33 0 -39 -33l-11 -99l-15 -145q-9 -84 -13 -133q-4 -20 26 -33q39 -18 183 -18 q41 0 75 10q16 6 31 35l21 41q33 33 104 51q12 4 15.5 2t-3.5 -20q-35 -68 -59.5 -185.5t-26.5 -201.5q0 -33 -28 -11q-47 41 -54 156q0 16 -5 23.5t-21 5.5q-68 -16 -256 -17q-27 0 -29 -37q-33 -229 -51 -397q-6 -16 -1 -26.5t30 -12.5q63 -8 266 -8q109 0 172 51 q92 59 143 211q16 45 29 8q12 -29 2 -80q-14 -68 -57 -135t-70 -90q-72 -66 -158 -65q-111 0 -305 8t-262 8q-176 0 -258 -14q-35 -2 -18 16q18 20 63 45q16 12 123 37q20 4 37 43q16 33 39.5 158t38.5 256q2 14 10 90t13 129t12.5 142t7.5 127t-5 83q-2 25 -7 33t-27 10 q-4 0 -79 13.5t-95 17.5q-35 8 -11 22q106 59 136 56q184 -29 499 -29zM467 1649q14 4 20 -9q25 -35 126.5 -109.5t234.5 -135.5q18 -8 -4 -19q-51 -29 -105 -28q-47 0 -201.5 60t-228.5 118q-39 31 -12 45q152 72 170 78z" />
<glyph unicode="&#xc9;" horiz-adv-x="1165" d="M735 1235h2q201 0 217 31q6 12 51.5 32.5t79.5 26.5h15q4 0 5 -3t-1 -7l-6 -12q-84 -190 -78 -365q0 -16 -4 -20.5t-12 2.5q-41 23 -56 79q-18 63 -18 136q-2 33 -29 26q-92 -25 -278 -24q-33 0 -39 -33l-11 -99l-15 -145q-9 -84 -13 -133q-4 -20 26 -33q39 -18 183 -18 q41 0 75 10q16 6 31 35l21 41q33 33 104 51q12 4 15.5 2t-3.5 -20q-35 -68 -59.5 -185.5t-26.5 -201.5q0 -33 -28 -11q-47 41 -54 156q0 16 -5 23.5t-21 5.5q-68 -16 -256 -17q-27 0 -29 -37q-33 -229 -51 -397q-6 -16 -1 -26.5t30 -12.5q63 -8 266 -8q109 0 172 51 q92 59 143 211q16 45 29 8q12 -29 2 -80q-14 -68 -57 -135t-70 -90q-72 -66 -158 -65q-111 0 -305 8t-262 8q-176 0 -258 -14q-35 -2 -18 16q18 20 63 45q16 12 123 37q20 4 37 43q16 33 39.5 158t38.5 256q2 14 10 90t13 129t12.5 142t7.5 127t-5 83q-2 25 -7 33t-27 10 q-4 0 -79 13.5t-95 17.5q-35 8 -11 22q106 59 136 56q184 -29 499 -29zM1098 1632h2q53 0 18 -41q-14 -18 -45 -39q-211 -147 -383 -202q-80 -20 -129 -4q-37 10 -6 24q45 23 149.5 95.5t155.5 123.5q8 12 17 15q29 6 119 17t102 11z" />
<glyph unicode="&#xca;" horiz-adv-x="1165" d="M735 1235h2q201 0 217 31q6 12 51.5 32.5t79.5 26.5h15q4 0 5 -3t-1 -7l-6 -12q-84 -190 -78 -365q0 -16 -4 -20.5t-12 2.5q-41 23 -56 79q-18 63 -18 136q-2 33 -29 26q-92 -25 -278 -24q-33 0 -39 -33l-11 -99l-15 -145q-9 -84 -13 -133q-4 -20 26 -33q39 -18 183 -18 q41 0 75 10q16 6 31 35l21 41q33 33 104 51q12 4 15.5 2t-3.5 -20q-35 -68 -59.5 -185.5t-26.5 -201.5q0 -33 -28 -11q-47 41 -54 156q0 16 -5 23.5t-21 5.5q-68 -16 -256 -17q-27 0 -29 -37q-33 -229 -51 -397q-6 -16 -1 -26.5t30 -12.5q63 -8 266 -8q109 0 172 51 q92 59 143 211q16 45 29 8q12 -29 2 -80q-14 -68 -57 -135t-70 -90q-72 -66 -158 -65q-111 0 -305 8t-262 8q-176 0 -258 -14q-35 -2 -18 16q18 20 63 45q16 12 123 37q20 4 37 43q16 33 39.5 158t38.5 256q2 14 10 90t13 129t12.5 142t7.5 127t-5 83q-2 25 -7 33t-27 10 q-4 0 -79 13.5t-95 17.5q-35 8 -11 22q106 59 136 56q184 -29 499 -29zM662 1479q-59 -39 -181 -95q-39 -18 -80 -18t-71 25q-12 8 6 18q199 90 305 201q92 70 100.5 69.5t12.5 -6.5q41 -104 266 -250q10 -6 -6 -20q-16 -12 -54 -27.5t-49 -15.5q-20 0 -47 14 q-70 31 -168 103q-18 12 -34 2z" />
<glyph unicode="&#xcb;" horiz-adv-x="1165" d="M735 1235h2q201 0 217 31q6 12 51.5 32.5t79.5 26.5h15q4 0 5 -3t-1 -7l-6 -12q-84 -190 -78 -365q0 -16 -4 -20.5t-12 2.5q-41 23 -56 79q-18 63 -18 136q-2 33 -29 26q-92 -25 -278 -24q-33 0 -39 -33l-11 -99l-15 -145q-9 -84 -13 -133q-4 -20 26 -33q39 -18 183 -18 q41 0 75 10q16 6 31 35l21 41q33 33 104 51q12 4 15.5 2t-3.5 -20q-35 -68 -59.5 -185.5t-26.5 -201.5q0 -33 -28 -11q-47 41 -54 156q0 16 -5 23.5t-21 5.5q-68 -16 -256 -17q-27 0 -29 -37q-33 -229 -51 -397q-6 -16 -1 -26.5t30 -12.5q63 -8 266 -8q109 0 172 51 q92 59 143 211q16 45 29 8q12 -29 2 -80q-14 -68 -57 -135t-70 -90q-72 -66 -158 -65q-111 0 -305 8t-262 8q-176 0 -258 -14q-35 -2 -18 16q18 20 63 45q16 12 123 37q20 4 37 43q16 33 39.5 158t38.5 256q2 14 10 90t13 129t12.5 142t7.5 127t-5 83q-2 25 -7 33t-27 10 q-4 0 -79 13.5t-95 17.5q-35 8 -11 22q106 59 136 56q184 -29 499 -29zM356 1536q14 12 60.5 44t64.5 38q35 12 37 -12q4 -53 49 -113q23 -23 0 -49q-51 -51 -125 -88q-27 -14 -43 -4q-20 14 -45.5 54t-21.5 73q4 37 24 57zM807 1536q88 66 129 82q14 6 24.5 1t10.5 -13 q6 -53 51 -113q20 -25 -2 -49q-43 -47 -125 -88q-25 -14 -43 -4q-20 16 -46 56t-22 71q5 37 23 57z" />
<glyph unicode="&#xcc;" horiz-adv-x="774" d="M281 543q57 408 51 553q0 25 -9.5 33t-29.5 10q-100 10 -164 24q-20 4 -4 19q43 33 83 53t52 18q135 -16 209 -18q233 0 338 25q8 2 8 -4.5t-4 -12.5q-23 -33 -53 -55q-18 -14 -115 -45q-29 -8 -41 -43q-18 -53 -49 -305q-49 -375 -55 -445q-10 -106 -17 -217 q-2 -31 23 -31q104 -8 192 -32q27 -8 9 -19q-76 -63 -113 -63q-20 2 -57 5t-56 3q-74 4 -135 4q-221 0 -338 -20q-8 -2 -13 -1t-5 4v7q25 39 69 61q76 31 103 35q14 2 23.5 13.5t12.5 18.5t11 29q29 72 74 396zM291 1632q14 4 20 -8q25 -35 126.5 -109.5t234.5 -136.5 q18 -8 -4 -18q-51 -29 -105 -29q-47 0 -201.5 60.5t-228.5 117.5q-39 31 -12 45q152 72 170 78z" />
<glyph unicode="&#xcd;" horiz-adv-x="774" d="M281 543q57 408 51 553q0 25 -9.5 33t-29.5 10q-100 10 -164 24q-20 4 -4 19q43 33 83 53t52 18q135 -16 209 -18q233 0 338 25q8 2 8 -4.5t-4 -12.5q-23 -33 -53 -55q-18 -14 -115 -45q-29 -8 -41 -43q-18 -53 -49 -305q-49 -375 -55 -445q-10 -106 -17 -217 q-2 -31 23 -31q104 -8 192 -32q27 -8 9 -19q-76 -63 -113 -63q-20 2 -57 5t-56 3q-74 4 -135 4q-221 0 -338 -20q-8 -2 -13 -1t-5 4v7q25 39 69 61q76 31 103 35q14 2 23.5 13.5t12.5 18.5t11 29q29 72 74 396zM930 1618h2q53 0 18 -41q-14 -18 -45 -39q-211 -147 -383 -203 q-80 -20 -129 -4q-37 8 -6 25q45 23 149.5 95.5t155.5 123.5q8 12 17 14q29 6 119 17.5t102 11.5z" />
<glyph unicode="&#xce;" horiz-adv-x="774" d="M281 543q57 408 51 553q0 25 -9.5 33t-29.5 10q-100 10 -164 24q-20 4 -4 19q43 33 83 53t52 18q135 -16 209 -18q233 0 338 25q8 2 8 -4.5t-4 -12.5q-23 -33 -53 -55q-18 -14 -115 -45q-29 -8 -41 -43q-18 -53 -49 -305q-49 -375 -55 -445q-10 -106 -17 -217 q-2 -31 23 -31q104 -8 192 -32q27 -8 9 -19q-76 -63 -113 -63q-20 2 -57 5t-56 3q-74 4 -135 4q-221 0 -338 -20q-8 -2 -13 -1t-5 4v7q25 39 69 61q76 31 103 35q14 2 23.5 13.5t12.5 18.5t11 29q29 72 74 396zM494 1460q-59 -39 -181 -94q-39 -18 -79.5 -18t-71.5 24 q-12 8 6 19q199 90 305 200q92 70 100.5 70t12.5 -6q41 -104 266 -250q10 -6 -6 -21q-16 -12 -54 -27.5t-49 -15.5q-20 0 -47 15q-70 31 -168 102q-18 12 -34 2z" />
<glyph unicode="&#xcf;" horiz-adv-x="774" d="M281 543q57 408 51 553q0 25 -9.5 33t-29.5 10q-100 10 -164 24q-20 4 -4 19q43 33 83 53t52 18q135 -16 209 -18q233 0 338 25q8 2 8 -4.5t-4 -12.5q-23 -33 -53 -55q-18 -14 -115 -45q-29 -8 -41 -43q-18 -53 -49 -305q-49 -375 -55 -445q-10 -106 -17 -217 q-2 -31 23 -31q104 -8 192 -32q27 -8 9 -19q-76 -63 -113 -63q-20 2 -57 5t-56 3q-74 4 -135 4q-221 0 -338 -20q-8 -2 -13 -1t-5 4v7q25 39 69 61q76 31 103 35q14 2 23.5 13.5t12.5 18.5t11 29q29 72 74 396zM193 1532q14 12 60 44t64 38q35 12 37 -12q4 -53 49 -113 q23 -23 0 -49q-51 -51 -124 -88q-27 -14 -43 -4q-20 14 -46 54t-22 73q5 37 25 57zM643 1532q88 66 129 82q14 6 24.5 1t10.5 -13q6 -53 51 -113q20 -25 -2 -49q-43 -47 -125 -88q-25 -14 -43 -4q-20 16 -46 56t-21 71q4 37 22 57z" />
<glyph unicode="&#xd0;" horiz-adv-x="1411" d="M1360 737v-2q0 -391 -354 -606q-254 -152 -693 -152q-295 0 -313 3q-18 4 -20.5 7t12.5 15q37 33 92 57q12 8 76 17q25 2 41 37q33 72 59 293q2 12 5 45.5t7 71.5l9 75q-147 0 -201 14q-23 6 -6 23q102 68 127 65q18 -4 92 -6q12 104 24 310q4 78 33 124q12 20 -20 21 q-23 0 -117 -17.5t-154 -33.5q-14 -4 -17 -1t7 17q57 55 98 72q104 41 278.5 66.5t297.5 25.5q350 0 502 -152q135 -133 135 -389zM1104 645v2q0 270 -133 408q-106 115 -299 114q-45 0 -64 -8q-20 -4 -22 -28q-10 -80 -23.5 -224.5t-19.5 -193.5q-4 -23 18 -23 q193 0 307 15q4 2 6.5 -2.5t-2.5 -8.5q-25 -39 -69 -61q-61 -33 -223 -35h-29q-20 0 -25 -20q-20 -170 -37 -283q-16 -94 -61 -180q-12 -27 29 -31q174 -12 286.5 10.5t182.5 93.5q178 164 178 455z" />
<glyph unicode="&#xd1;" horiz-adv-x="1460" d="M479 1255h2q12 2 43 -27.5t49 -56.5q53 -84 239.5 -351t274.5 -406q10 -14 18.5 -10t10.5 18q10 45 36 241.5l32 239.5q29 178 43 201q10 20 5 26.5t-30 10.5l-155 20q-8 2 -10.5 7.5t5.5 11.5q98 74 125 67q6 -2 30 -4t38 -4q57 -4 92 -4q131 0 260 29q12 2 13.5 -3.5 t-5.5 -15.5q-27 -43 -75 -63q-45 -20 -123 -37q-27 -8 -49 -39q-51 -74 -100.5 -436.5t-43.5 -497.5q4 -129 -114 -244q-12 -12 -19.5 -16t-13.5 1t-13 19q-68 160 -131 258q-356 580 -460 728q-25 31 -29 2q-25 -211 -78 -578q-4 -23 -9 -62.5t-10 -72.5t-12 -57 q-10 -43 27 -50q121 -14 170 -24q20 -6 2 -21q-68 -66 -108 -65q-23 2 -89 6q-78 4 -118 4q-143 0 -252 -23q-12 -4 -17.5 -2t-4.5 6.5t5 10.5q39 51 68 61q39 20 111 35q61 12 86 78q25 59 67.5 281.5t61.5 447.5q16 172 4 199q-14 39 -58 45q-45 4 -204 4q-23 0 -7 16 q88 72 115 72q10 -1 305 24zM1016 1473h2q39 0 102 59q23 23 94 33q12 2 14.5 0t-1.5 -13q-37 -63 -123 -137t-150 -74q-47 0 -131 52q-61 37 -88 37q-20 0 -68.5 -28t-91.5 -71q-8 -8 -14 2q-4 10 6.5 44t22.5 48q29 37 98.5 85.5t108.5 48.5q55 0 137 -54q47 -32 82 -32z " />
<glyph unicode="&#xd2;" horiz-adv-x="1398" d="M901 1284h2q121 0 210 -45t137 -120t70.5 -157.5t22.5 -175.5q0 -426 -307 -639q-115 -86 -249 -141t-244 -55q-205 0 -328 123t-123 375q0 479 404 702q86 47 204.5 90t200.5 43zM731 1159h-2q-117 0 -207 -80q-172 -154 -172 -481q0 -516 359 -516q182 0 281.5 160.5 t99.5 406.5q0 236 -93.5 373t-265.5 137zM657 1653q14 4 21 -8q25 -35 126 -110t234 -136q18 -8 -4 -19q-51 -29 -104 -28q-47 0 -202 60.5t-228 117.5q-39 31 -13 45q152 72 170 78z" />
<glyph unicode="&#xd3;" horiz-adv-x="1398" d="M901 1284h2q121 0 210 -45t137 -120t70.5 -157.5t22.5 -175.5q0 -426 -307 -639q-115 -86 -249 -141t-244 -55q-205 0 -328 123t-123 375q0 479 404 702q86 47 204.5 90t200.5 43zM731 1159h-2q-117 0 -207 -80q-172 -154 -172 -481q0 -516 359 -516q182 0 281.5 160.5 t99.5 406.5q0 236 -93.5 373t-265.5 137zM1241 1651h2q53 0 19 -41q-14 -18 -45 -39q-211 -147 -383 -203q-80 -20 -129 -4q-37 8 -7 25q45 23 149.5 95t156.5 124q8 12 16 14q29 6 119 17.5t102 11.5z" />
<glyph unicode="&#xd4;" horiz-adv-x="1398" d="M901 1284h2q121 0 210 -45t137 -120t70.5 -157.5t22.5 -175.5q0 -426 -307 -639q-115 -86 -249 -141t-244 -55q-205 0 -328 123t-123 375q0 479 404 702q86 47 204.5 90t200.5 43zM731 1159h-2q-117 0 -207 -80q-172 -154 -172 -481q0 -516 359 -516q182 0 281.5 160.5 t99.5 406.5q0 236 -93.5 373t-265.5 137zM825 1479q-59 -39 -180 -95q-39 -18 -80 -18t-71 25q-12 8 6 18q199 90 305 201q92 70 100 69.5t13 -6.5q41 -104 266 -250q10 -6 -6 -20q-16 -12 -54.5 -27.5t-48.5 -15.5q-20 0 -47 14q-70 31 -168 103q-19 12 -35 2z" />
<glyph unicode="&#xd5;" horiz-adv-x="1398" d="M901 1284h2q121 0 210 -45t137 -120t70.5 -157.5t22.5 -175.5q0 -426 -307 -639q-115 -86 -249 -141t-244 -55q-205 0 -328 123t-123 375q0 479 404 702q86 47 204.5 90t200.5 43zM731 1159h-2q-117 0 -207 -80q-172 -154 -172 -481q0 -516 359 -516q182 0 281.5 160.5 t99.5 406.5q0 236 -93.5 373t-265.5 137zM965 1493h2q39 0 102 59q23 23 94 33q12 2 14.5 0t-1.5 -12q-37 -63 -123 -137t-150 -74q-47 0 -131 51q-61 37 -88 37q-20 0 -68.5 -27.5t-91.5 -70.5q-8 -8 -14 2q-4 10 6 44t23 48q29 37 98.5 85t107.5 48q55 0 138 -53 q47 -33 82 -33z" />
<glyph unicode="&#xd6;" horiz-adv-x="1398" d="M901 1284h2q121 0 210 -45t137 -120t70.5 -157.5t22.5 -175.5q0 -426 -307 -639q-115 -86 -249 -141t-244 -55q-205 0 -328 123t-123 375q0 479 404 702q86 47 204.5 90t200.5 43zM731 1159h-2q-117 0 -207 -80q-172 -154 -172 -481q0 -516 359 -516q182 0 281.5 160.5 t99.5 406.5q0 236 -93.5 373t-265.5 137zM539 1538q14 12 60 44t65 38q35 12 36 -12q4 -53 50 -113q20 -20 0 -49q-51 -51 -125 -88q-27 -14 -43 -4q-20 14 -46 54t-22 73q5 37 25 57zM989 1538q88 66 129 82q16 6 25.5 1t9.5 -13q6 -53 51 -113q20 -25 -2 -49 q-43 -47 -125 -88q-25 -14 -43 -4q-20 16 -45.5 56t-21.5 71q4 37 22 57z" />
<glyph unicode="&#xd7;" horiz-adv-x="1136" d="M971 805q10 2 10 -7.5t-8 -25.5q-18 -35 -123 -163t-193 -220q-20 -20 -4 -41q43 -55 170 -189t158 -159q16 -16 6 -20q-29 -14 -88 -15q-47 0 -119 66q-164 152 -219 215q-23 27 -37 4q-164 -174 -252 -234q-33 -27 -137 -47q-14 -2 -14 9.5t10 19.5q29 25 157 157 t156 171q16 23 2 32l-110 122l-98 108q-35 39 -45 55q-33 57 -21 86q4 10 18 28l30 35q15 17 18 19q12 12 16 -4q25 -49 114 -153.5t162 -180.5q20 -20 35 -6q98 102 166 187t84 116q11 17 156 35z" />
<glyph unicode="&#xd8;" horiz-adv-x="1417" d="M905 1284h2q117 0 211 -47q14 23 43 63q8 10 125 68q14 6 17.5 0t-5.5 -20q-53 -88 -104 -162q150 -133 149 -400q0 -424 -307 -636q-117 -86 -249 -142.5t-240 -56.5q-135 0 -234 53q-14 8 -28 -6l-17 -16q-10 -10 -16 -15q-31 -27 -80 -54.5t-70 -29.5q-12 -2 -16 1 t-1 9.5t9 12.5l129 143q12 12 -2 27q-127 131 -127 375q0 238 108.5 419t293.5 281q88 49 205.5 91t203.5 42zM741 1161h-2q-129 0 -219 -80q-55 -47 -115.5 -176t-60.5 -313q0 -193 64 -318q266 334 567 758q10 16 -4 31q-83 98 -230 98zM721 82h2q166 0 269.5 168 t103.5 403q0 188 -47 287q-8 16 -11 16q-4 0 -12 -12q-322 -444 -571 -747q96 -115 266 -115z" />
<glyph unicode="&#xd9;" horiz-adv-x="1449" d="M233 489q4 51 19 159l33 245l26 201q6 39 -30 45q-102 14 -144 24q-31 6 -14 23q20 16 64 41.5t57 23.5q14 -2 47 -5t47 -5q66 -4 137 -6q225 0 301 18q16 2 18.5 -2t-8.5 -16q-27 -37 -63 -57q-25 -14 -105 -31q-29 -4 -40 -39q-23 -82 -53.5 -281.5t-39.5 -334.5 q-20 -233 78 -324q33 -33 95.5 -52.5t117.5 -19.5q123 0 197 54q47 33 82 91t57.5 149t31.5 146.5t25 163.5q27 193 41 367q0 63 -43 68q-172 27 -178 28q-23 8 -6 19q98 68 117 63q33 -4 76 -6q61 -4 106 -4q166 0 268 25q14 4 17.5 -0.5t-4.5 -18.5q-14 -37 -70 -63 q-33 -12 -117 -33q-37 -8 -53 -109l-42 -243q-34 -195 -58 -316q-61 -322 -281 -444q-127 -74 -276 -74q-225 0 -342 119q-66 59 -86.5 157t-4.5 254zM651 1632q14 4 21 -8q25 -35 126 -109.5t234 -136.5q18 -8 -4 -18q-51 -29 -104 -29q-47 0 -202 60.5t-228 117.5 q-39 31 -13 45q152 72 170 78z" />
<glyph unicode="&#xda;" horiz-adv-x="1449" d="M233 489q4 51 19 159l33 245l26 201q6 39 -30 45q-102 14 -144 24q-31 6 -14 23q20 16 64 41.5t57 23.5q14 -2 47 -5t47 -5q66 -4 137 -6q225 0 301 18q16 2 18.5 -2t-8.5 -16q-27 -37 -63 -57q-25 -14 -105 -31q-29 -4 -40 -39q-23 -82 -53.5 -281.5t-39.5 -334.5 q-20 -233 78 -324q33 -33 95.5 -52.5t117.5 -19.5q123 0 197 54q47 33 82 91t57.5 149t31.5 146.5t25 163.5q27 193 41 367q0 63 -43 68q-172 27 -178 28q-23 8 -6 19q98 68 117 63q33 -4 76 -6q61 -4 106 -4q166 0 268 25q14 4 17.5 -0.5t-4.5 -18.5q-14 -37 -70 -63 q-33 -12 -117 -33q-37 -8 -53 -109l-42 -243q-34 -195 -58 -316q-61 -322 -281 -444q-127 -74 -276 -74q-225 0 -342 119q-66 59 -86.5 157t-4.5 254zM1282 1630h2q53 0 19 -41q-14 -18 -46 -39q-211 -147 -383 -202q-80 -20 -129 -5q-37 8 -6 25q45 23 149.5 95.5 t155.5 123.5q8 12 17 15q29 6 119 17t102 11z" />
<glyph unicode="&#xdb;" horiz-adv-x="1449" d="M233 489q4 51 19 159l33 245l26 201q6 39 -30 45q-102 14 -144 24q-31 6 -14 23q20 16 64 41.5t57 23.5q14 -2 47 -5t47 -5q66 -4 137 -6q225 0 301 18q16 2 18.5 -2t-8.5 -16q-27 -37 -63 -57q-25 -14 -105 -31q-29 -4 -40 -39q-23 -82 -53.5 -281.5t-39.5 -334.5 q-20 -233 78 -324q33 -33 95.5 -52.5t117.5 -19.5q123 0 197 54q47 33 82 91t57.5 149t31.5 146.5t25 163.5q27 193 41 367q0 63 -43 68q-172 27 -178 28q-23 8 -6 19q98 68 117 63q33 -4 76 -6q61 -4 106 -4q166 0 268 25q14 4 17.5 -0.5t-4.5 -18.5q-14 -37 -70 -63 q-33 -12 -117 -33q-37 -8 -53 -109l-42 -243q-34 -195 -58 -316q-61 -322 -281 -444q-127 -74 -276 -74q-225 0 -342 119q-66 59 -86.5 157t-4.5 254zM872 1450q-59 -39 -180 -94q-39 -18 -80 -18.5t-71 24.5q-12 8 6 18q199 90 305 201q92 70 100.5 70t12.5 -6 q41 -104 266 -250q10 -6 -6 -21q-16 -12 -54 -27.5t-49 -15.5q-20 0 -47 15q-70 31 -168 102q-19 12 -35 2z" />
<glyph unicode="&#xdc;" horiz-adv-x="1449" d="M233 489q4 51 19 159l33 245l26 201q6 39 -30 45q-102 14 -144 24q-31 6 -14 23q20 16 64 41.5t57 23.5q14 -2 47 -5t47 -5q66 -4 137 -6q225 0 301 18q16 2 18.5 -2t-8.5 -16q-27 -37 -63 -57q-25 -14 -105 -31q-29 -4 -40 -39q-23 -82 -53.5 -281.5t-39.5 -334.5 q-20 -233 78 -324q33 -33 95.5 -52.5t117.5 -19.5q123 0 197 54q47 33 82 91t57.5 149t31.5 146.5t25 163.5q27 193 41 367q0 63 -43 68q-172 27 -178 28q-23 8 -6 19q98 68 117 63q33 -4 76 -6q61 -4 106 -4q166 0 268 25q14 4 17.5 -0.5t-4.5 -18.5q-14 -37 -70 -63 q-33 -12 -117 -33q-37 -8 -53 -109l-42 -243q-34 -195 -58 -316q-61 -322 -281 -444q-127 -74 -276 -74q-225 0 -342 119q-66 59 -86.5 157t-4.5 254zM578 1518q14 12 60 43.5t64 37.5q35 12 37 -12q4 -53 49 -112q23 -20 0 -50q-51 -51 -124 -88q-27 -14 -43 -4 q-20 14 -46 54t-22 73q5 38 25 58zM1028 1518q88 66 129 81q14 6 24.5 1t10.5 -13q6 -53 51 -112q20 -25 -2 -50q-43 -47 -125 -88q-25 -14 -43 -4q-20 16 -46 56.5t-21 70.5q4 38 22 58z" />
<glyph unicode="&#xdd;" horiz-adv-x="1261" d="M203 1141q-10 2 -61.5 11t-80.5 15q-23 6 -8 17q86 68 115 67q14 -2 45 -5t43 -5q59 -6 162 -6q160 0 274 16q14 2 15.5 -3t-9.5 -19q-23 -37 -49 -53q-10 -6 -36.5 -14.5t-28.5 -10.5q-29 -10 -17 -39q66 -154 142 -428q8 -29 28 0q188 291 260 418q16 29 -8 41 q-8 2 -31 6l-51 9q-29 5 -39 7q-33 8 -14 23q90 61 111 59q10 0 39.5 -3t42.5 -3q51 -6 106 -6q76 0 236 20q12 2 14 -2t-6 -16q-25 -37 -62 -55q-43 -23 -116 -39q-25 -4 -89 -62q-68 -63 -167 -202.5t-156 -239.5q-47 -80 -57 -143q-29 -223 -31 -344q0 -39 33 -46 q170 -27 200 -36q27 -6 9 -21q-76 -70 -99 -65q-35 6 -104 10q-68 6 -148 6q-319 0 -434 -31q-8 -4 -13 0t1 13q25 43 74 69q55 25 161 45q27 6 50 60q18 41 37.5 146.5t21.5 166.5q6 47 -16 141q-25 102 -80.5 237.5t-104.5 207.5q-33 45 -51 61.5t-53 24.5zM1208 1612h2 q53 0 19 -41q-14 -18 -45 -39q-211 -147 -383 -203q-80 -20 -129 -4q-37 10 -6 25q45 23 149.5 95.5t155.5 123.5q8 12 16 14q29 6 119 17.5t102 11.5z" />
<glyph unicode="&#xde;" horiz-adv-x="1177" d="M788 973h3q338 0 337 -295q0 -266 -333 -373q-121 -39 -281 -39q-31 0 -31 -28q-2 -23 -8 -82q-2 -33 5 -43.5t26 -12.5q125 -14 164 -30q16 -6 6 -21q-92 -66 -98 -65q-84 12 -261 16q-172 0 -323 -23q-10 0 -6 11q33 47 63 63q18 6 55 15.5t48 13.5q23 6 31 14t18 37 q31 72 86 477q51 393 43 494q-2 35 -31 37q-117 14 -162 26q-8 2 -9 8.5t7 12.5q94 70 115 69q129 -20 231 -20q131 0 320 22q12 0 8 -8q-8 -18 -31.5 -40.5t-40.5 -28.5q-31 -14 -108 -31q-31 -6 -39 -37q-8 -25 -23 -135q-2 -8 3.5 -14.5t11.5 -4.5q143 15 204 15z M657 881h-2q-45 0 -80 -13q-25 -10 -28 -51q-4 -23 -47 -395q-2 -37 18 -47q43 -23 119 -23q96 0 154 47q88 74 88 232q0 113 -59 181.5t-163 68.5z" />
<glyph unicode="&#xdf;" horiz-adv-x="1036" d="M829 1374h2q70 0 134.5 -52t64.5 -153q0 -80 -30.5 -134t-100.5 -134q-6 -6 -48 -45t-64.5 -70.5t-22.5 -60.5t117 -152q84 -90 84 -176q0 -115 -87 -212t-212 -165q-92 -51 -181 -51q-35 0 -63.5 15.5t-32.5 38.5q-8 41 55 127q6 8 10.5 11t7.5 0t9 -14q29 -55 158 -55 q63 0 107 37t44 94q0 66 -84 150q-92 96 -125 139q-25 39 -12.5 90t53.5 92l88 88q63 63 87 91t48.5 77t24.5 97q0 94 -49 157.5t-129 63.5q-63 0 -113.5 -61.5t-81 -162t-47 -183.5t-26.5 -167l-62 -467q-31 -229 -71.5 -331.5t-133.5 -200.5q-74 -82 -195.5 -154.5 t-203.5 -72.5q-39 0 -72 20q-66 41 -61 166q2 27 14 24q4 0 9 -6q23 -37 88 -61.5t127 -24.5q104 0 146 77t83 331q31 180 72 534q41 358 155 529q82 125 231.5 221t288.5 96z" />
<glyph unicode="&#xe0;" horiz-adv-x="993" d="M623 838h2q33 0 90 -45q12 -12 24 6q14 18 63.5 43.5t86.5 25.5q12 0 14 -6t-8 -14q-29 -35 -51 -125q-25 -90 -42.5 -232.5t-15.5 -236.5q0 -80 31 -80q51 0 127 102q25 27 25 -2q0 -49 -19 -81q-39 -70 -150.5 -150t-181.5 -80q-29 0 -47 39t-18 92q0 80 8 150 q2 20 -3 24t-17 -12q-84 -109 -203 -201q-119 -90 -203 -90q-31 0 -60.5 56.5t-29.5 146.5q0 225 129 393q45 63 225 184l84 52q25 14 64 27.5t76 13.5zM530 719h-2q-90 0 -129 -37q-53 -51 -80.5 -157.5t-27.5 -215.5q0 -63 15.5 -102t39.5 -39q27 0 81 49t114 145 q37 68 65 209q14 61 39 105q6 16 -10 22q-42 21 -105 21zM530 1343h2q14 0 19 -18q39 -229 121 -377q12 -16 -15 -16q-55 0 -100 29q-39 29 -92 110.5t-68 151.5q-8 33 23 63q12 12 53 34.5t57 22.5z" />
<glyph unicode="&#xe1;" horiz-adv-x="993" d="M623 838h2q33 0 90 -45q12 -12 24 6q14 18 63.5 43.5t86.5 25.5q12 0 14 -6t-8 -14q-29 -35 -51 -125q-25 -90 -42.5 -232.5t-15.5 -236.5q0 -80 31 -80q51 0 127 102q25 27 25 -2q0 -49 -19 -81q-39 -70 -150.5 -150t-181.5 -80q-29 0 -47 39t-18 92q0 80 8 150 q2 20 -3 24t-17 -12q-84 -109 -203 -201q-119 -90 -203 -90q-31 0 -60.5 56.5t-29.5 146.5q0 225 129 393q45 63 225 184l84 52q25 14 64 27.5t76 13.5zM530 719h-2q-90 0 -129 -37q-53 -51 -80.5 -157.5t-27.5 -215.5q0 -63 15.5 -102t39.5 -39q27 0 81 49t114 145 q37 68 65 209q14 61 39 105q6 16 -10 22q-42 21 -105 21zM862 1337h2q10 0 14.5 -10t-1 -28.5t-19.5 -38.5q-45 -76 -125 -168.5t-121 -120.5q-16 -12 -57 -25.5t-68 -13.5q-6 0 -7 5t3 9q47 53 109.5 156.5t91.5 177.5q14 12 80.5 34.5t97.5 22.5z" />
<glyph unicode="&#xe2;" horiz-adv-x="993" d="M623 838h2q33 0 90 -45q12 -12 24 6q14 18 63.5 43.5t86.5 25.5q12 0 14 -6t-8 -14q-29 -35 -51 -125q-25 -90 -42.5 -232.5t-15.5 -236.5q0 -80 31 -80q51 0 127 102q25 27 25 -2q0 -49 -19 -81q-39 -70 -150.5 -150t-181.5 -80q-29 0 -47 39t-18 92q0 80 8 150 q2 20 -3 24t-17 -12q-84 -109 -203 -201q-119 -90 -203 -90q-31 0 -60.5 56.5t-29.5 146.5q0 225 129 393q45 63 225 184l84 52q25 14 64 27.5t76 13.5zM530 719h-2q-90 0 -129 -37q-53 -51 -80.5 -157.5t-27.5 -215.5q0 -63 15.5 -102t39.5 -39q27 0 81 49t114 145 q37 68 65 209q14 61 39 105q6 16 -10 22q-42 21 -105 21zM578 1100q-12 -14 -123 -121q-41 -39 -107 -43h-8q-16 -2 -20.5 1t8.5 19l94 93q31 31 82 92t92 127q10 14 40 31.5t38 17.5q12 0 14 -14q31 -197 135 -299q10 -8 0 -27q-37 -41 -96 -49q-20 0 -37 14 q-47 39 -88 156q-8 22 -24 2z" />
<glyph unicode="&#xe3;" horiz-adv-x="993" d="M623 838h2q33 0 90 -45q12 -12 24 6q14 18 63.5 43.5t86.5 25.5q12 0 14 -6t-8 -14q-29 -35 -51 -125q-25 -90 -42.5 -232.5t-15.5 -236.5q0 -80 31 -80q51 0 127 102q25 27 25 -2q0 -49 -19 -81q-39 -70 -150.5 -150t-181.5 -80q-29 0 -47 39t-18 92q0 80 8 150 q2 20 -3 24t-17 -12q-84 -109 -203 -201q-119 -90 -203 -90q-31 0 -60.5 56.5t-29.5 146.5q0 225 129 393q45 63 225 184l84 52q25 14 64 27.5t76 13.5zM530 719h-2q-90 0 -129 -37q-53 -51 -80.5 -157.5t-27.5 -215.5q0 -63 15.5 -102t39.5 -39q27 0 81 49t114 145 q37 68 65 209q14 61 39 105q6 16 -10 22q-42 21 -105 21zM506 1202h2q33 0 129 -53q68 -35 86 -35q43 0 94 57q37 33 80 41q12 2 15 0t-1 -10q-37 -74 -112.5 -146.5t-145.5 -72.5q-43 0 -125 53q-70 41 -84 39q-59 -6 -149 -104q-14 -14 -14 2q-8 51 24 92q35 45 95.5 91 t105.5 46z" />
<glyph unicode="&#xe4;" horiz-adv-x="993" d="M623 838h2q33 0 90 -45q12 -12 24 6q14 18 63.5 43.5t86.5 25.5q12 0 14 -6t-8 -14q-29 -35 -51 -125q-25 -90 -42.5 -232.5t-15.5 -236.5q0 -80 31 -80q51 0 127 102q25 27 25 -2q0 -49 -19 -81q-39 -70 -150.5 -150t-181.5 -80q-29 0 -47 39t-18 92q0 80 8 150 q2 20 -3 24t-17 -12q-84 -109 -203 -201q-119 -90 -203 -90q-31 0 -60.5 56.5t-29.5 146.5q0 225 129 393q45 63 225 184l84 52q25 14 64 27.5t76 13.5zM530 719h-2q-90 0 -129 -37q-53 -51 -80.5 -157.5t-27.5 -215.5q0 -63 15.5 -102t39.5 -39q27 0 81 49t114 145 q37 68 65 209q14 61 39 105q6 16 -10 22q-42 21 -105 21zM283 1141q8 10 61 44t76 44q33 10 33 -6q6 -45 57 -121q23 -25 -4 -53q-47 -47 -127 -93q-29 -14 -45 -4q-14 8 -43 53.5t-27 75.5q1 37 19 60zM676 1143q55 41 131 86q31 18 43 -8q43 -88 61 -109q25 -27 -4 -61 q-23 -27 -78 -66t-84 -39q-18 0 -53 49t-39 84q-6 41 23 64z" />
<glyph unicode="&#xe5;" horiz-adv-x="993" d="M623 838h2q33 0 90 -45q12 -12 24 6q14 18 63.5 43.5t86.5 25.5q12 0 14 -6t-8 -14q-29 -35 -51 -125q-25 -90 -42.5 -232.5t-15.5 -236.5q0 -80 31 -80q51 0 127 102q25 27 25 -2q0 -49 -19 -81q-39 -70 -150.5 -150t-181.5 -80q-29 0 -47 39t-18 92q0 80 8 150 q2 20 -3 24t-17 -12q-84 -109 -203 -201q-119 -90 -203 -90q-31 0 -60.5 56.5t-29.5 146.5q0 225 129 393q45 63 225 184l84 52q25 14 64 27.5t76 13.5zM530 719h-2q-90 0 -129 -37q-53 -51 -80.5 -157.5t-27.5 -215.5q0 -63 15.5 -102t39.5 -39q27 0 81 49t114 145 q37 68 65 209q14 61 39 105q6 16 -10 22q-42 21 -105 21zM649 1280h2q66 0 97.5 -43t25.5 -109q-10 -90 -94 -151q-76 -55 -131 -55q-49 0 -90 37.5t-35 113.5q6 82 78 135q88 72 147 72zM600 1202h-2q-76 0 -86 -94q-6 -53 24.5 -80t67.5 -27q68 0 76 89q4 49 -15.5 80.5 t-64.5 31.5z" />
<glyph unicode="&#xe6;" horiz-adv-x="1241" d="M651 825h2q59 0 95 -84q8 -10 6 -20t-19 -6q-78 14 -141 14q-84 0 -168 -65q-63 -63 -99 -170t-36 -207q0 -59 14 -94t37 -35q39 0 94.5 58t108.5 153q39 66 63 131q31 86 86 143q86 98 269 174q82 37 137 37q43 0 73.5 -37t30.5 -90q0 -129 -137 -225q-94 -70 -256 -119 q-20 -8 -25 -33q-4 -14 -4 -41q0 -90 44 -139t110 -49q121 0 246 133q25 27 24 0q0 -53 -39 -92q-76 -84 -189.5 -139.5t-225.5 -55.5q-174 0 -187 230v61q2 14 -2 17.5t-14 -11.5q-88 -131 -227 -229q-29 -25 -84.5 -47.5t-98.5 -22.5q-33 0 -63.5 51.5t-30.5 139.5 q0 225 143 403q63 76 199 160q59 39 139 72.5t125 33.5zM944 750h-2q-51 0 -101 -95.5t-55 -183.5q0 -20 29 -14q61 14 101 28.5t77 51t37 90.5q0 47 -25.5 85t-60.5 38z" />
<glyph unicode="&#xe7;" horiz-adv-x="731" d="M631 852h2q57 0 76 -39q25 -35 -7 -76q-39 -59 -59 -112q-6 -18 -16.5 -20.5t-16.5 13.5q-41 98 -157 99q-51 0 -99 -62q-31 -35 -50 -115.5t-19 -168.5q0 -246 155 -246q137 0 267 151q18 25 18 -2q0 -49 -39 -94q-76 -96 -227 -166q-43 -20 -71 -50t-28 -48 q0 -31 76 -76q68 -45 68 -94q0 -59 -72 -125q-121 -106 -203 -106q-29 0 -54 19.5t-32 35.5q-4 14 -2 19t17 3q33 -4 47 -4q61 0 108 25t47 55q0 18 -18 34.5t-86 57.5q-49 27 -49 68q0 35 123 145q-8 -2 -37 -6q-8 0 -20.5 -1t-16.5 -1q-86 0 -143.5 66.5t-57.5 208.5 q0 121 40 217t89 149q74 78 209 158q144 88 238 88z" />
<glyph unicode="&#xe8;" horiz-adv-x="747" d="M602 854h2q41 0 74 -37t33 -98q0 -115 -144 -213q-106 -74 -252 -119q-25 -4 -24 -25q-2 -6 -2 -38q0 -98 43 -150.5t110 -52.5q129 0 248 125q27 25 29 4q0 -47 -33 -86q-78 -86 -194.5 -141.5t-231.5 -55.5q-92 0 -142 72t-52 178q0 84 6 117q0 20 -11 26 q-23 20 -22 39q-4 12 20 21q31 12 33 24q37 160 168 263q57 47 169 97t173 50zM444 748h-2q-57 0 -100 -83t-51 -184q-2 -14 4 -19t22 -1q86 14 152 57t66 109q0 53 -23 87t-68 34zM430 1343h2q14 0 19 -18q39 -229 120 -377q12 -16 -14 -16q-55 0 -100 29 q-39 29 -92.5 110.5t-67.5 151.5q-8 33 22 63q12 12 53.5 34.5t57.5 22.5z" />
<glyph unicode="&#xe9;" horiz-adv-x="747" d="M602 854h2q41 0 74 -37t33 -98q0 -115 -144 -213q-106 -74 -252 -119q-25 -4 -24 -25q-2 -6 -2 -38q0 -98 43 -150.5t110 -52.5q129 0 248 125q27 25 29 4q0 -47 -33 -86q-78 -86 -194.5 -141.5t-231.5 -55.5q-92 0 -142 72t-52 178q0 84 6 117q0 20 -11 26 q-23 20 -22 39q-4 12 20 21q31 12 33 24q37 160 168 263q57 47 169 97t173 50zM444 748h-2q-57 0 -100 -83t-51 -184q-2 -14 4 -19t22 -1q86 14 152 57t66 109q0 53 -23 87t-68 34zM752 1337h2q10 0 14 -10t-1 -28.5t-19 -38.5q-45 -76 -125 -168.5t-121 -120.5 q-16 -12 -57.5 -25.5t-67.5 -13.5q-6 0 -7 5t3 9q47 53 109.5 156.5t90.5 177.5q14 12 81 34.5t98 22.5z" />
<glyph unicode="&#xea;" horiz-adv-x="747" d="M602 854h2q41 0 74 -37t33 -98q0 -115 -144 -213q-106 -74 -252 -119q-25 -4 -24 -25q-2 -6 -2 -38q0 -98 43 -150.5t110 -52.5q129 0 248 125q27 25 29 4q0 -47 -33 -86q-78 -86 -194.5 -141.5t-231.5 -55.5q-92 0 -142 72t-52 178q0 84 6 117q0 20 -11 26 q-23 20 -22 39q-4 12 20 21q31 12 33 24q37 160 168 263q57 47 169 97t173 50zM444 748h-2q-57 0 -100 -83t-51 -184q-2 -14 4 -19t22 -1q86 14 152 57t66 109q0 53 -23 87t-68 34zM481 1100q-12 -14 -123 -121q-41 -39 -106 -43h-8q-16 -2 -20.5 1t7.5 19l95 93 q31 31 82 92t92 127q10 14 39.5 31.5t38.5 17.5q12 0 14 -14q31 -197 135 -299q10 -8 0 -27q-37 -41 -96 -49q-20 0 -37 14q-47 39 -88 156q-9 22 -25 2z" />
<glyph unicode="&#xeb;" horiz-adv-x="747" d="M602 854h2q41 0 74 -37t33 -98q0 -115 -144 -213q-106 -74 -252 -119q-25 -4 -24 -25q-2 -6 -2 -38q0 -98 43 -150.5t110 -52.5q129 0 248 125q27 25 29 4q0 -47 -33 -86q-78 -86 -194.5 -141.5t-231.5 -55.5q-92 0 -142 72t-52 178q0 84 6 117q0 20 -11 26 q-23 20 -22 39q-4 12 20 21q31 12 33 24q37 160 168 263q57 47 169 97t173 50zM444 748h-2q-57 0 -100 -83t-51 -184q-2 -14 4 -19t22 -1q86 14 152 57t66 109q0 53 -23 87t-68 34zM186 1141q8 10 61.5 44t76.5 44q33 10 32 -6q6 -45 58 -121q23 -25 -4 -53 q-47 -47 -127 -93q-29 -14 -45 -4q-14 8 -43 53.5t-27 75.5q0 37 18 60zM580 1143q55 41 131 86q31 18 43 -8q43 -88 61 -109q25 -27 -4 -61q-23 -27 -78 -66t-84 -39q-18 0 -53 49t-39 84q-6 41 23 64z" />
<glyph unicode="&#xec;" horiz-adv-x="583" d="M403 176h3q16 0 34.5 10.5t43 36t32.5 35.5t35 41q20 25 20 0q0 -55 -26 -96q-41 -63 -164 -151.5t-195 -88.5q-33 0 -47 60.5t0 156.5q27 209 68 422q2 12 -3 16.5t-22 -0.5l-121 -47q-18 -6 -22 -4t2 15q25 51 55 69l293 176q12 8 47 18.5t45 10.5q23 0 8 -25 q-33 -51 -55 -141q-45 -182 -57 -397q-9 -117 26 -117zM324 1343h2q14 0 18 -18q39 -229 121 -377q12 -16 -14 -16q-55 0 -101 29q-39 29 -92 110.5t-68 151.5q-8 33 23 63q12 12 53.5 34.5t57.5 22.5z" />
<glyph unicode="&#xed;" horiz-adv-x="583" d="M403 176h3q16 0 34.5 10.5t43 36t32.5 35.5t35 41q20 25 20 0q0 -55 -26 -96q-41 -63 -164 -151.5t-195 -88.5q-33 0 -47 60.5t0 156.5q27 209 68 422q2 12 -3 16.5t-22 -0.5l-121 -47q-18 -6 -22 -4t2 15q25 51 55 69l293 176q12 8 47 18.5t45 10.5q23 0 8 -25 q-33 -51 -55 -141q-45 -182 -57 -397q-9 -117 26 -117zM653 1337h2q10 0 14.5 -10t-0.5 -28.5t-20 -38.5q-45 -76 -125 -168.5t-121 -120.5q-16 -12 -57 -25.5t-67 -13.5q-6 0 -7.5 5t2.5 9q47 53 109.5 156.5t91.5 177.5q14 12 80.5 34.5t97.5 22.5z" />
<glyph unicode="&#xee;" horiz-adv-x="583" d="M403 176h3q16 0 34.5 10.5t43 36t32.5 35.5t35 41q20 25 20 0q0 -55 -26 -96q-41 -63 -164 -151.5t-195 -88.5q-33 0 -47 60.5t0 156.5q27 209 68 422q2 12 -3 16.5t-22 -0.5l-121 -47q-18 -6 -22 -4t2 15q25 51 55 69l293 176q12 8 47 18.5t45 10.5q23 0 8 -25 q-33 -51 -55 -141q-45 -182 -57 -397q-9 -117 26 -117zM365 1100q-12 -14 -123 -121q-41 -39 -107 -43h-8q-16 -2 -20.5 1t8.5 19l94 93q31 31 82 92t92 127q10 14 40 31.5t38 17.5q12 0 14 -14q31 -197 135 -299q10 -8 0 -27q-37 -41 -96 -49q-20 0 -37 14q-47 39 -88 156 q-8 22 -24 2z" />
<glyph unicode="&#xef;" horiz-adv-x="583" d="M403 176h3q16 0 34.5 10.5t43 36t32.5 35.5t35 41q20 25 20 0q0 -55 -26 -96q-41 -63 -164 -151.5t-195 -88.5q-33 0 -47 60.5t0 156.5q27 209 68 422q2 12 -3 16.5t-22 -0.5l-121 -47q-18 -6 -22 -4t2 15q25 51 55 69l293 176q12 8 47 18.5t45 10.5q23 0 8 -25 q-33 -51 -55 -141q-45 -182 -57 -397q-9 -117 26 -117zM78 1141q8 10 61.5 44t75.5 44q33 10 33 -6q6 -45 57 -121q23 -25 -4 -53q-47 -47 -127 -93q-29 -14 -45 -4q-14 8 -43 53.5t-27 75.5q1 37 19 60zM471 1143q55 41 131 86q31 18 43 -8q43 -88 62 -109q25 -27 -5 -61 q-23 -27 -78 -66t-83 -39q-18 0 -53 49t-39 84q-7 41 22 64z" />
<glyph unicode="&#xf0;" horiz-adv-x="925" d="M592 848h2q27 0 35 -2q18 -4 18 14q0 86 -41 176q-6 20 -26 8q-119 -68 -232 -108q-12 -4 -15 -2t3 16q12 29 39.5 70t36.5 43q57 18 127 59q18 12 12 27q-31 51 -76 77.5t-133 26.5q-35 0 -79 -11t-60 -21q-12 -8 -15 0q-2 4 7 14q33 59 81 88q98 55 209 55 q154 0 254 -129q2 -4 11.5 -6t13.5 2q98 59 162 107q12 8 12 -11q-2 -14 -25 -73q-4 -8 -8 -14l-10 -12q-6 -7 -10 -10l-15 -11l-15 -13q-5 -4 -22 -16l-26 -18q-18 -12 -8 -35q68 -158 67 -369q0 -238 -57 -406.5t-201 -269.5q-59 -47 -152.5 -88t-172.5 -41 q-92 0 -158 67.5t-66 213.5q0 281 191 422q252 180 342 180zM496 725h-2q-53 0 -93 -39q-109 -96 -108 -358q0 -113 45 -173.5t108 -60.5q61 0 107 64q43 55 71.5 180t28.5 215q0 72 -28 111q-39 61 -129 61z" />
<glyph unicode="&#xf1;" horiz-adv-x="1071" d="M862 856h2q31 0 50.5 -52t11.5 -149q-8 -72 -32 -232.5t-38 -217.5q-4 -18 1 -23.5t17 -1.5q61 25 123 94q12 12 15.5 10.5t1.5 -20.5q-2 -16 -13.5 -49t-21.5 -45q-106 -117 -260 -178q-84 -39 -137 -39q-33 0 -6.5 37t53.5 145q18 76 38.5 221.5t20.5 204.5 q0 98 -39 98q-45 0 -110.5 -73.5t-118.5 -192.5q-31 -68 -92 -274q-6 -27 -41 -60q-33 -27 -101.5 -60.5t-95.5 -33.5q-23 0 -8 23q25 39 49 159q57 272 57 439q-4 61 -22 59q-47 -23 -105 -67q-10 -8 -16 -11.5t-9 -1.5t-2 7.5t5 15.5q16 49 53 86q57 51 157.5 116.5 t143.5 65.5q18 0 27.5 -41t5.5 -92q-2 -78 -12 -154q-4 -29 6 -28q4 2 10 8q96 131 248 237q100 70 184 70zM526 1202h2q33 0 129 -53q68 -35 86 -35q43 0 95 57q37 33 80 41q12 2 15 0t-1 -10q-37 -74 -113 -146.5t-145 -72.5q-43 0 -125 53q-70 41 -84 39 q-59 -6 -150 -104q-14 -14 -14 2q-8 51 25 92q35 45 95 91t105 46z" />
<glyph unicode="&#xf2;" horiz-adv-x="923" d="M651 856h2q94 0 151.5 -81t57.5 -208q0 -276 -188 -422q-76 -59 -198 -120.5t-183 -61.5q-236 0 -236 293q0 188 105 336q59 92 244 174l31 18l32 19q110 53 182 53zM475 735h-2q-37 0 -72 -35q-109 -104 -108 -366q0 -125 48 -182.5t112 -57.5q72 0 114 74 q70 117 70 330q0 111 -47 174t-115 63zM487 1343h2q14 0 19 -18q39 -229 121 -377q12 -16 -15 -16q-55 0 -100 29q-39 29 -92 110.5t-68 151.5q-8 33 23 63q12 12 53 34.5t57 22.5z" />
<glyph unicode="&#xf3;" horiz-adv-x="923" d="M651 856h2q94 0 151.5 -81t57.5 -208q0 -276 -188 -422q-76 -59 -198 -120.5t-183 -61.5q-236 0 -236 293q0 188 105 336q59 92 244 174l31 18l32 19q110 53 182 53zM475 735h-2q-37 0 -72 -35q-109 -104 -108 -366q0 -125 48 -182.5t112 -57.5q72 0 114 74 q70 117 70 330q0 111 -47 174t-115 63zM811 1337h2q10 0 14 -10t-1 -28.5t-19 -38.5q-45 -76 -125 -168.5t-121 -120.5q-16 -12 -57 -25.5t-68 -13.5q-6 0 -7 5t3 9q47 53 109.5 156.5t91.5 177.5q14 12 80.5 34.5t97.5 22.5z" />
<glyph unicode="&#xf4;" horiz-adv-x="923" d="M651 856h2q94 0 151.5 -81t57.5 -208q0 -276 -188 -422q-76 -59 -198 -120.5t-183 -61.5q-236 0 -236 293q0 188 105 336q59 92 244 174l31 18l32 19q110 53 182 53zM475 735h-2q-37 0 -72 -35q-109 -104 -108 -366q0 -125 48 -182.5t112 -57.5q72 0 114 74 q70 117 70 330q0 111 -47 174t-115 63zM549 1100q-12 -14 -123 -121q-41 -39 -107 -43h-8q-16 -2 -20 1t8 19l94 93q31 31 82 92t92 127q10 14 40 31.5t38 17.5q12 0 14 -14q31 -197 136 -299q10 -8 0 -27q-37 -41 -97 -49q-20 0 -36 14q-47 39 -89 156q-8 22 -24 2z" />
<glyph unicode="&#xf5;" horiz-adv-x="923" d="M651 856h2q94 0 151.5 -81t57.5 -208q0 -276 -188 -422q-76 -59 -198 -120.5t-183 -61.5q-236 0 -236 293q0 188 105 336q59 92 244 174l31 18l32 19q110 53 182 53zM475 735h-2q-37 0 -72 -35q-109 -104 -108 -366q0 -125 48 -182.5t112 -57.5q72 0 114 74 q70 117 70 330q0 111 -47 174t-115 63zM465 1202h2q33 0 129 -53q68 -35 86 -35q43 0 94 57q37 33 80 41q12 2 15 0t-1 -10q-37 -74 -112.5 -146.5t-145.5 -72.5q-43 0 -125 53q-70 41 -84 39q-59 -6 -149 -104q-14 -14 -14 2q-8 51 24 92q35 45 95.5 91t105.5 46z" />
<glyph unicode="&#xf6;" horiz-adv-x="923" d="M651 856h2q94 0 151.5 -81t57.5 -208q0 -276 -188 -422q-76 -59 -198 -120.5t-183 -61.5q-236 0 -236 293q0 188 105 336q59 92 244 174l31 18l32 19q110 53 182 53zM475 735h-2q-37 0 -72 -35q-109 -104 -108 -366q0 -125 48 -182.5t112 -57.5q72 0 114 74 q70 117 70 330q0 111 -47 174t-115 63zM252 1141q8 10 61.5 44t75.5 44q33 10 33 -6q6 -45 57 -121q23 -25 -4 -53q-47 -47 -127 -93q-29 -14 -45 -4q-14 8 -43 53.5t-27 75.5q1 37 19 60zM645 1143q55 41 131 86q31 18 43 -8q43 -88 62 -109q25 -27 -4 -61 q-23 -27 -78.5 -66t-83.5 -39q-18 0 -53 49t-39 84q-7 41 22 64z" />
<glyph unicode="&#xf7;" horiz-adv-x="1136" d="M565 567h-2q-20 0 -66 58.5t-46 101.5q0 33 64.5 68.5t121.5 35.5q20 0 20 -14q0 -76 -30.5 -163t-61.5 -87zM1008 487h2q6 0 9 -4t-1 -6q-14 -20 -57 -60t-52 -42q-141 -16 -514 -17q-246 0 -270 7q-20 4 -8 26q16 18 73 92q16 20 33 19q55 -12 170 -15h615zM598 272 q25 4 25 -8q-14 -188 -11 -241q0 -16 -28 -13q-61 18 -105.5 56t-52.5 86q-6 27 53.5 68.5t118.5 51.5z" />
<glyph unicode="&#xf8;" horiz-adv-x="927" d="M655 856h2q31 0 62 -10q6 6 14 20.5t15 22.5q4 10 108 47q10 2 8 -8q0 -10 -14 -35l-62 -94q78 -78 78 -232q0 -276 -188 -422q-76 -57 -200 -119.5t-183 -62.5q-43 0 -84 10q-10 4 -23 -4l-11 -11l-9 -9q-45 -45 -109 -55q-14 -2 -16 1t6 13q20 27 76 90q12 16 0 29 q-68 70 -68 229q0 186 107 334q53 84 244 176q12 6 32.5 20.5t28.5 18.5q110 51 186 51zM494 737h-2q-51 0 -89 -37q-119 -115 -118 -381q0 -59 12 -102q172 233 303 436q12 14 -2 27q-45 57 -104 57zM455 96h2q31 0 64.5 22.5t49.5 49.5q82 121 82 321q0 39 -6 72 q-2 20 -16 0q-168 -248 -295 -416q43 -49 119 -49z" />
<glyph unicode="&#xf9;" horiz-adv-x="1079" d="M469 848h2q14 2 18.5 -6t-6.5 -17q-25 -25 -43 -84q-20 -57 -40.5 -185t-24.5 -220q-12 -172 51 -172q55 0 104.5 64.5t108.5 183.5q14 29 28.5 76t21.5 74.5t21.5 95t16.5 71.5q8 29 35 35q25 6 86 29.5t84 37.5q43 25 57 25q6 0 9 -4t0 -13.5t-13 -21.5 q-23 -23 -49 -100q-55 -203 -70 -410q-8 -147 39 -147q49 0 133 129q20 29 21 -4q6 -51 -19 -95q-37 -70 -143 -151.5t-197 -81.5q-63 0 -63 135q0 8 12 168q2 16 -5 16t-15 -14q-86 -135 -232 -233q-106 -66 -174 -66q-47 0 -71.5 55.5t-20.5 145.5q6 172 74 442 q4 12 -2 15.5t-21 -3.5q-70 -33 -108 -53q-37 -20 -37 -8q0 6 6 18q33 57 57 76q39 25 122 70t106 63q20 18 70.5 40t70.5 24zM582 1343h2q14 0 18 -18q39 -229 121 -377q12 -16 -14 -16q-55 0 -101 29q-39 29 -92 110.5t-67 151.5q-8 33 22 63q12 12 53.5 34.5t57.5 22.5z " />
<glyph unicode="&#xfa;" horiz-adv-x="1079" d="M469 848h2q14 2 18.5 -6t-6.5 -17q-25 -25 -43 -84q-20 -57 -40.5 -185t-24.5 -220q-12 -172 51 -172q55 0 104.5 64.5t108.5 183.5q14 29 28.5 76t21.5 74.5t21.5 95t16.5 71.5q8 29 35 35q25 6 86 29.5t84 37.5q43 25 57 25q6 0 9 -4t0 -13.5t-13 -21.5 q-23 -23 -49 -100q-55 -203 -70 -410q-8 -147 39 -147q49 0 133 129q20 29 21 -4q6 -51 -19 -95q-37 -70 -143 -151.5t-197 -81.5q-63 0 -63 135q0 8 12 168q2 16 -5 16t-15 -14q-86 -135 -232 -233q-106 -66 -174 -66q-47 0 -71.5 55.5t-20.5 145.5q6 172 74 442 q4 12 -2 15.5t-21 -3.5q-70 -33 -108 -53q-37 -20 -37 -8q0 6 6 18q33 57 57 76q39 25 122 70t106 63q20 18 70.5 40t70.5 24zM938 1337h2q10 0 14 -10t-1 -28.5t-19 -38.5q-45 -76 -125 -168.5t-121 -120.5q-16 -12 -57 -25.5t-68 -13.5q-6 0 -7 5t3 9q47 53 109.5 156.5 t91.5 177.5q14 12 80.5 34.5t97.5 22.5z" />
<glyph unicode="&#xfb;" horiz-adv-x="1079" d="M469 848h2q14 2 18.5 -6t-6.5 -17q-25 -25 -43 -84q-20 -57 -40.5 -185t-24.5 -220q-12 -172 51 -172q55 0 104.5 64.5t108.5 183.5q14 29 28.5 76t21.5 74.5t21.5 95t16.5 71.5q8 29 35 35q25 6 86 29.5t84 37.5q43 25 57 25q6 0 9 -4t0 -13.5t-13 -21.5 q-23 -23 -49 -100q-55 -203 -70 -410q-8 -147 39 -147q49 0 133 129q20 29 21 -4q6 -51 -19 -95q-37 -70 -143 -151.5t-197 -81.5q-63 0 -63 135q0 8 12 168q2 16 -5 16t-15 -14q-86 -135 -232 -233q-106 -66 -174 -66q-47 0 -71.5 55.5t-20.5 145.5q6 172 74 442 q4 12 -2 15.5t-21 -3.5q-70 -33 -108 -53q-37 -20 -37 -8q0 6 6 18q33 57 57 76q39 25 122 70t106 63q20 18 70.5 40t70.5 24zM635 1100q-12 -14 -123 -121q-41 -39 -106 -43h-9q-16 -2 -20 1t8 19l94 93q31 31 82 92t92 127q10 14 40 31.5t38 17.5q12 0 14 -14 q31 -197 136 -299q10 -8 0 -27q-37 -41 -97 -49q-20 0 -36 14q-47 39 -89 156q-8 22 -24 2z" />
<glyph unicode="&#xfc;" horiz-adv-x="1079" d="M469 848h2q14 2 18.5 -6t-6.5 -17q-25 -25 -43 -84q-20 -57 -40.5 -185t-24.5 -220q-12 -172 51 -172q55 0 104.5 64.5t108.5 183.5q14 29 28.5 76t21.5 74.5t21.5 95t16.5 71.5q8 29 35 35q25 6 86 29.5t84 37.5q43 25 57 25q6 0 9 -4t0 -13.5t-13 -21.5 q-23 -23 -49 -100q-55 -203 -70 -410q-8 -147 39 -147q49 0 133 129q20 29 21 -4q6 -51 -19 -95q-37 -70 -143 -151.5t-197 -81.5q-63 0 -63 135q0 8 12 168q2 16 -5 16t-15 -14q-86 -135 -232 -233q-106 -66 -174 -66q-47 0 -71.5 55.5t-20.5 145.5q6 172 74 442 q4 12 -2 15.5t-21 -3.5q-70 -33 -108 -53q-37 -20 -37 -8q0 6 6 18q33 57 57 76q39 25 122 70t106 63q20 18 70.5 40t70.5 24zM340 1141q8 10 61.5 44t75.5 44q33 10 33 -6q6 -45 57 -121q23 -25 -4 -53q-47 -47 -127 -93q-29 -14 -45 -4q-14 8 -43 53.5t-26 75.5 q0 37 18 60zM733 1143q55 41 131 86q31 18 43 -8q43 -88 62 -109q25 -27 -4 -61q-23 -27 -78.5 -66t-83.5 -39q-18 0 -53 49t-39 84q-7 41 22 64z" />
<glyph unicode="&#xfd;" horiz-adv-x="882" d="M346 852h2q76 0 125 -197q45 -180 64 -448q2 -23 10 -25t16 13q49 80 100.5 218t53.5 234q0 53 -47 74q-14 10 10 37q80 86 164 98q27 0 26 -47q0 -131 -106.5 -375t-190.5 -371q-25 -39 -36 -92q-8 -33 -64 -63l-11 -10.5t-16 -16.5q-129 -201 -250.5 -307t-215.5 -106 q-61 0 -37 59q41 98 84 164q23 31 34 8q33 -35 93 -10q45 16 101 65t99 119q6 0 4 38t-2 46q2 127 -36.5 332t-79.5 282q-6 10 -12.5 25.5t-10.5 23t-9 14.5t-10 10t-14 3q-37 0 -127 -145q-6 -12 -12 -15.5t-9 1t-3 16.5q0 72 37 119q70 92 146.5 160.5t129.5 68.5z M860 1337h2q10 0 14.5 -10t-1 -28.5t-19.5 -38.5q-45 -76 -125 -168.5t-121 -120.5q-16 -12 -57 -25.5t-68 -13.5q-6 0 -7 5t3 9q47 53 109.5 156.5t91.5 177.5q14 12 80.5 34.5t97.5 22.5z" />
<glyph unicode="&#xfe;" horiz-adv-x="985" d="M829 856h2q23 0 43.5 -18.5t38 -70.5t17.5 -134q0 -102 -28 -193.5t-53.5 -134.5t-66.5 -100q-68 -84 -264 -191q-29 -16 -83 -34.5t-77 -18.5q-29 0 -51 6q-10 2 -16 -5t-8 -19q-27 -158 -29 -166q-33 -125 -49 -150q-4 -12 -2 -14t22 -6q131 -16 230 35q37 20 34 2 q-2 -12 -26 -41q-76 -76 -213 -99q-94 -18 -279 -18q-127 0 -157 12q-23 6 6 31q76 70 139 70q8 0 13 2t7.5 4t7.5 10t7 10q53 70 129 625q111 772 119 909q2 31 -4.5 39t-26.5 6q-41 -6 -143 -14q-14 -2 -13 6q0 8 11 16q63 55 86 60q238 41 317 102q39 27 47 10 q2 -6 -2 -20q-39 -135 -57 -254q-47 -297 -78 -522q-2 -20 4 -22.5t16 12.5q117 135 228 204q118 74 202 74zM629 688h-2q-55 0 -132 -91t-126 -218q-31 -84 -43 -221q-2 -43 29.5 -69t68.5 -26q35 0 58.5 6.5t34.5 12.5t36 24q55 37 95 149t40 294q0 139 -59 139z" />
<glyph unicode="&#xff;" horiz-adv-x="882" d="M346 852h2q76 0 125 -197q45 -180 64 -448q2 -23 10 -25t16 13q49 80 100.5 218t53.5 234q0 53 -47 74q-14 10 10 37q80 86 164 98q27 0 26 -47q0 -131 -106.5 -375t-190.5 -371q-25 -39 -36 -92q-8 -33 -64 -63l-11 -10.5t-16 -16.5q-129 -201 -250.5 -307t-215.5 -106 q-61 0 -37 59q41 98 84 164q23 31 34 8q33 -35 93 -10q45 16 101 65t99 119q6 0 4 38t-2 46q2 127 -36.5 332t-79.5 282q-6 10 -12.5 25.5t-10.5 23t-9 14.5t-10 10t-14 3q-37 0 -127 -145q-6 -12 -12 -15.5t-9 1t-3 16.5q0 72 37 119q70 92 146.5 160.5t129.5 68.5z M248 1141q8 10 61 44t76 44q33 10 33 -6q6 -45 57 -121q23 -25 -4 -53q-47 -47 -127 -93q-29 -14 -45 -4q-14 8 -43 53.5t-27 75.5q1 37 19 60zM641 1143q55 41 131 86q31 18 43 -8q43 -88 62 -109q25 -27 -5 -61q-23 -27 -78 -66t-83 -39q-18 0 -53 49t-40 84q-6 41 23 64z " />
<glyph unicode="&#x152;" horiz-adv-x="2039" d="M883 1282h2q223 0 301 -131q4 -8 10 -11t10 0t6 9q12 68 15 88q4 16 22 14q82 -14 441 -16q211 -2 286 45q4 6 9.5 4t1.5 -10q-68 -147 -82 -336q0 -12 -17 -4q-10 4 -47 59q-18 55 -29 144q-2 10 -7 15t-11 3q-109 -14 -297 -16q-37 0 -47 -39q-39 -131 -64 -377 q-4 -27 23 -35q49 -20 219 -20q63 0 127 24q14 6 37 20l47 28q25 15 31 20q23 14 22 2q0 -4 -2 -10q-59 -109 -80 -346q-2 -16 -16 -7q-63 51 -72 148q-2 14 -6 21t-12 5q-27 -2 -144.5 -2t-158.5 -6q-12 -2 -18.5 -4t-11.5 -11t-7 -28q-25 -158 -27 -286q-2 -115 97 -140 q74 -12 208 -12q106 0 181 78q72 76 121 170q12 18 18 6q20 -43 8 -82q-29 -94 -86 -180q-53 -78 -131 -82t-571 -4q-49 0 -72 48t-23 109q0 20 -18 3q-201 -195 -494 -195q-238 0 -359.5 144.5t-121.5 377.5q0 399 281 615q109 84 258 141q117 49 250 49zM799 1188h-2 q-137 0 -226 -70q-217 -172 -217 -571q0 -223 102.5 -344t276.5 -121q152 0 252 82q86 70 119 213q16 109 59 446q10 84 -24 156q-39 94 -125 151.5t-215 57.5z" />
<glyph unicode="&#x153;" horiz-adv-x="1316" d="M625 856h2q68 0 114.5 -40t65.5 -107q4 -20 20 -9q66 55 170.5 103.5t176.5 48.5q45 0 76.5 -38t31.5 -97q0 -127 -135 -221q-76 -57 -266 -123q-23 -8 -27 -29q-2 -12 -2 -43q0 -84 49 -132t115 -48q117 0 241 129q31 31 31 6q4 -45 -33 -86q-80 -88 -191.5 -145.5 t-219.5 -57.5q-74 0 -124 40t-67 110q-4 23 -20 10q-217 -162 -332 -162q-244 0 -244 291q0 236 140 375q37 39 108.5 84t124.5 69q158 72 195 72zM479 737h-2q-35 0 -76 -37q-109 -109 -108 -368q0 -129 46 -180.5t103 -51.5q80 0 129 80q63 106 64 314q0 117 -47.5 180 t-108.5 63zM1020 745h-2q-53 0 -107.5 -88t-60.5 -184q-2 -16 4 -21.5t23 -2.5q43 8 61 12t58 18.5t58.5 30.5t36 45t17.5 68q0 51 -26.5 86.5t-61.5 35.5z" />
<glyph unicode="&#x178;" horiz-adv-x="1261" d="M203 1141q-10 2 -61.5 11t-80.5 15q-23 6 -8 17q86 68 115 67q14 -2 45 -5t43 -5q59 -6 162 -6q160 0 274 16q14 2 15.5 -3t-9.5 -19q-23 -37 -49 -53q-10 -6 -36.5 -14.5t-28.5 -10.5q-29 -10 -17 -39q66 -154 142 -428q8 -29 28 0q188 291 260 418q16 29 -8 41 q-8 2 -31 6l-51 9q-29 5 -39 7q-33 8 -14 23q90 61 111 59q10 0 39.5 -3t42.5 -3q51 -6 106 -6q76 0 236 20q12 2 14 -2t-6 -16q-25 -37 -62 -55q-43 -23 -116 -39q-25 -4 -89 -62q-68 -63 -167 -202.5t-156 -239.5q-47 -80 -57 -143q-29 -223 -31 -344q0 -39 33 -46 q170 -27 200 -36q27 -6 9 -21q-76 -70 -99 -65q-35 6 -104 10q-68 6 -148 6q-319 0 -434 -31q-8 -4 -13 0t1 13q25 43 74 69q55 25 161 45q27 6 50 60q18 41 37.5 146.5t21.5 166.5q6 47 -16 141q-25 102 -80.5 237.5t-104.5 207.5q-33 45 -51 61.5t-53 24.5zM471 1518 q14 12 60.5 43.5t64.5 37.5q35 12 37 -12q4 -53 49 -112q23 -20 0 -50q-51 -51 -125 -88q-27 -14 -43 -4q-20 14 -46 54t-22 73q5 38 25 58zM922 1518q88 66 129 81q14 6 24 1t10 -13q6 -53 52 -112q20 -25 -2 -50q-43 -47 -125 -88q-25 -14 -43 -4q-20 16 -46 56.5 t-22 70.5q5 38 23 58z" />
<glyph unicode="&#x2c6;" horiz-adv-x="874" d="M477 1100q-12 -14 -123 -121q-41 -39 -106 -43h-8q-16 -2 -20.5 1t7.5 19l95 93q31 31 82 92t92 127q10 14 39.5 31.5t37.5 17.5q12 0 15 -14q31 -197 135 -299q10 -8 0 -27q-37 -41 -96 -49q-20 0 -37 14q-47 39 -88 156q-9 22 -25 2z" />
<glyph unicode="&#x2dc;" horiz-adv-x="874" d="M414 1202h2q33 0 129 -53q68 -35 86 -35q43 0 94 57q37 33 80 41q12 2 15 0t-1 -10q-37 -74 -112.5 -146.5t-145.5 -72.5q-43 0 -125 53q-70 41 -84 39q-59 -6 -149 -104q-14 -14 -15 2q-8 51 25 92q35 45 95.5 91t105.5 46z" />
<glyph unicode="&#x2000;" horiz-adv-x="839" />
<glyph unicode="&#x2001;" horiz-adv-x="1679" />
<glyph unicode="&#x2002;" horiz-adv-x="839" />
<glyph unicode="&#x2003;" horiz-adv-x="1679" />
<glyph unicode="&#x2004;" horiz-adv-x="559" />
<glyph unicode="&#x2005;" horiz-adv-x="419" />
<glyph unicode="&#x2006;" horiz-adv-x="278" />
<glyph unicode="&#x2007;" horiz-adv-x="278" />
<glyph unicode="&#x2008;" horiz-adv-x="208" />
<glyph unicode="&#x2009;" horiz-adv-x="335" />
<glyph unicode="&#x200a;" horiz-adv-x="92" />
<glyph unicode="&#x2010;" horiz-adv-x="724" d="M88 358q6 6 29.5 39t44 57.5t26.5 24.5q25 -2 99 2q236 14 370 51q10 2 11 -6q0 -6 -9 -16q-25 -39 -68.5 -77t-74.5 -50q-68 -25 -198 -41t-189 -16q-53 0 -55 12q0 6 14 20z" />
<glyph unicode="&#x2011;" horiz-adv-x="724" d="M88 358q6 6 29.5 39t44 57.5t26.5 24.5q25 -2 99 2q236 14 370 51q10 2 11 -6q0 -6 -9 -16q-25 -39 -68.5 -77t-74.5 -50q-68 -25 -198 -41t-189 -16q-53 0 -55 12q0 6 14 20z" />
<glyph unicode="&#x2012;" horiz-adv-x="724" d="M88 358q6 6 29.5 39t44 57.5t26.5 24.5q25 -2 99 2q236 14 370 51q10 2 11 -6q0 -6 -9 -16q-25 -39 -68.5 -77t-74.5 -50q-68 -25 -198 -41t-189 -16q-53 0 -55 12q0 6 14 20z" />
<glyph unicode="&#x2013;" horiz-adv-x="1171" d="M641 489h2q307 0 438 17q12 4 13 -2q0 -6 -11 -17q-31 -35 -97 -70.5t-128 -43.5q-117 -16 -483 -17q-238 0 -269 17q-18 10 -8 22q8 12 54.5 55.5t62.5 51.5q131 -13 426 -13z" />
<glyph unicode="&#x2014;" horiz-adv-x="1900" d="M831 489h3q870 0 985 15q14 2 8 -8q-2 -4 -10 -13q-35 -37 -99.5 -69.5t-126.5 -38.5q-207 -18 -1208 -19q-246 0 -277 17q-18 10 -8 20q8 12 54.5 56.5t62.5 52.5q96 -13 616 -13z" />
<glyph unicode="&#x2018;" horiz-adv-x="495" d="M256 895h-2q-96 0 -96 113q2 113 103 227.5t214 155.5q45 18 76 18q35 0 10 -25q-4 -4 -12 -10q-201 -139 -201 -297q0 -72 70 -71q35 0 10 -31q-6 -8 -16 -17q-80 -63 -156 -63z" />
<glyph unicode="&#x2019;" horiz-adv-x="495" d="M426 1405h2q96 0 96 -113q-2 -113 -103.5 -227.5t-213.5 -155.5q-47 -18 -76 -18q-41 0 -2 31l4 4q203 139 203 297q0 72 -72 71q-35 0 -10 31q6 8 16 16q80 64 156 64z" />
<glyph unicode="&#x201a;" horiz-adv-x="522" d="M293 354h2q45 0 67.5 -44t22.5 -97q0 -131 -120 -276.5t-255 -210.5q-43 -23 -108 -33q-14 -2 -19.5 1t-2.5 9t14 14q127 96 196.5 185.5t69.5 212.5q0 37 -17.5 62.5t-42.5 33.5q-18 4 -19 16.5t15 22.5l150 90q27 14 47 14z" />
<glyph unicode="&#x201c;" horiz-adv-x="835" d="M256 895h-2q-96 0 -96 113q2 113 104.5 227.5t214.5 155.5q41 18 76 18t8 -25q-4 -4 -12 -10q-201 -143 -201 -297q0 -72 70 -71q37 0 10 -33q-6 -8 -14 -15q-84 -63 -158 -63zM590 895h-2q-96 0 -96 112.5t105 233.5t218 162q37 16 76 16q41 0 -2 -33 q-84 -57 -146.5 -139t-62.5 -170q0 -72 70 -71q37 0 10 -33q-6 -8 -15 -15q-79 -63 -155 -63z" />
<glyph unicode="&#x201d;" horiz-adv-x="835" d="M434 1405h2q96 0 96 -112.5t-105 -232.5t-220 -163q-43 -16 -74 -16q-41 0 2 32q88 59 148.5 141.5t60.5 168.5q0 72 -70 71q-37 0 -10 33q6 8 15 14q79 64 155 64zM766 1405h2q96 0 96 -113q-2 -113 -103.5 -227.5t-213.5 -155.5q-41 -18 -76 -18t-8 24q4 4 12 11 q199 139 199 297q0 72 -70 71q-33 0 -12 31q6 8 16 16q84 64 158 64z" />
<glyph unicode="&#x201e;" horiz-adv-x="913" d="M293 354h2q45 0 67.5 -44t22.5 -97q0 -131 -120 -276.5t-255 -210.5q-43 -23 -108 -33q-14 -2 -19.5 1t-2.5 9t14 14q127 96 196.5 185.5t69.5 212.5q0 37 -17.5 62.5t-42.5 33.5q-18 4 -19 16.5t15 22.5l150 90q27 14 47 14zM678 354h2q45 0 67.5 -44t22.5 -97 q0 -131 -120 -276.5t-255 -210.5q-45 -25 -110 -33q-12 -2 -17.5 1t-2.5 9t14 14q127 96 196.5 185.5t69.5 212.5q0 37 -17.5 62.5t-42.5 33.5q-18 4 -20 16.5t16 22.5l150 90q27 14 47 14z" />
<glyph unicode="&#x2022;" horiz-adv-x="819" d="M514 705q33 18 42 9t5 -40q-6 -53 28 -159.5t83 -149.5q14 -14 -8 -46q-39 -59 -159 -138t-171 -79q-63 0 -130 122t-63 225q2 70 35 81q193 83 338 175z" />
<glyph unicode="&#x2026;" horiz-adv-x="1667" d="M324 299q-6 -47 11 -106.5t42 -88.5q14 -23 -15 -45q-33 -29 -90 -62.5t-79 -33.5q-55 0 -87 68.5t-30 128.5q0 33 18 49q23 16 91.5 54t105.5 48q16 6 25.5 3t7.5 -15zM905 299q-6 -47 11.5 -106.5t41.5 -88.5q14 -23 -14 -45q-33 -29 -90 -62.5t-80 -33.5 q-55 0 -87 68.5t-30 128.5q0 33 17 49q27 18 95.5 55t102.5 47q16 6 25.5 3t7.5 -15zM1485 299q-6 -47 11 -106.5t42 -88.5q14 -23 -14 -45q-33 -29 -90.5 -62.5t-79.5 -33.5q-55 0 -87 68.5t-30 128.5q0 33 18 49q23 16 91.5 54t105.5 48q16 6 25.5 3t7.5 -15z" />
<glyph unicode="&#x202f;" horiz-adv-x="335" />
<glyph unicode="&#x2039;" horiz-adv-x="655" d="M348 371q72 -66 113 -187q20 -55 14 -90q-8 -45 -72 -88q-14 -10 -18 0q-23 106 -105.5 208.5t-162.5 129.5q-18 6 -13 21q16 29 54 47q104 51 229 173t164 201q10 20 22 7q6 -8 14.5 -32t6.5 -34q-51 -147 -242 -319q-18 -19 -4 -37z" />
<glyph unicode="&#x203a;" horiz-adv-x="655" d="M305 432q-74 70 -112 184q-18 55 -15 91q2 18 25.5 45.5t44.5 42.5q18 10 18 0q25 -109 109 -210.5t164 -127.5q16 -6 10 -17q-16 -33 -53 -51q-106 -51 -230.5 -172t-163.5 -203q-8 -20 -20 -6q-6 8 -14.5 33t-6.5 35q45 143 240 319q20 19 4 37z" />
<glyph unicode="&#x205f;" horiz-adv-x="419" />
<glyph unicode="&#x20ac;" d="M786 1235h2q135 0 187 -59q31 -31 24 -66q0 -20 -16 -47q-23 -49 -39 -105q-4 -12 -26.5 -27.5t-28.5 -15.5l-2 11q8 113 -8 147q-39 84 -156 84q-84 0 -168 -84q-92 -96 -135 -309q-6 -27 16 -27q39 -2 113 -2q231 0 366 17q12 0 -2 -17q-57 -66 -217 -80 q-90 -8 -299 -8q-2 -16 -4 -42.5t-4 -45.5q-2 -23 23 -22h73q221 0 357 16q12 0 -2 -16q-59 -68 -217 -80q-96 -8 -240 -8q0 -393 229 -394q80 0 136 49q45 39 120 154q6 14 17 4q20 -31 10 -61q-20 -72 -72 -152q-20 -29 -51 -43q-74 -51 -235 -51q-190 0 -302 120 t-110 378q-82 4 -119 14q-14 4 -6 16q8 10 50 41t54 29q2 0 11.5 -1t15.5 -1q4 35 16 104q-37 2 -61 11q-12 4 -4 16q4 10 39 34.5t53 33.5q33 111 78 185.5t119 141.5q171 158 415 158z" />
<glyph unicode="&#x2122;" horiz-adv-x="849" d="M309 1124l-2 -90v-67q0 -8 10 -9q53 -8 62 -12q8 -2 6 -6q-33 -33 -35 -33q-37 6 -88 6q-8 0 -125 -10q-8 0 -2 8q14 25 35 31q4 2 14.5 4t12.5 2q8 2 16 10q20 20 20 129q0 37 -10 37h-53q-2 0 -4 -4t-9 -16t-18 -27q-2 -6 -15 -14t-19.5 -8t-6.5 6q12 29 23 106 q2 8 22 29q4 4 7 0q2 -10 22 -18q49 -8 115 -9q74 0 92 6.5t55 22.5q6 2 6 -4q-18 -47 -18 -102q0 -23 -27 -39q-6 -4 -6 4q-10 43 -14 69q-2 6 -13 4q-12 -2 -53 -6zM578 1098h-3q0 -37 -26 -129q-2 -6 2 -9.5t14 -5.5l20 -5q11 -3 17 -5t4 -4q-23 -31 -28 -31q-12 4 -70 4 q-23 0 -72 -4v4q4 25 25 31q41 12 49 31q25 49 25 121q0 27 -17 30h-53q-6 0 -4 7q14 25 28 28q74 18 125 19q4 0 15 -11q6 -14 27 -56l34 -66q4 -6 8 -3l64 95q6 20 12 20q10 4 40 8t60.5 7.5t32.5 3.5q8 0 8 -4q0 -6 -8 -18.5t-14 -12.5q-31 -6 -40 -25.5t-9 -68.5 q0 -45 10 -78q6 -16 27 -23q25 -4 41 -4q12 0 6 -10q-33 -25 -39 -25q-12 0 -43 1t-39 1q-29 0 -66 -6q-6 12 2 17q27 12 29 79q4 70 4 95h-2q-39 -51 -80 -152q-4 -6 -18 -22.5t-23 -20.5q-8 -2 -10 6q-26 111 -65 191z" />
<glyph unicode="&#xe000;" horiz-adv-x="870" d="M0 870h870v-870h-870v870z" />
<glyph unicode="&#xfb01;" horiz-adv-x="1110" d="M821 1386h2q106 0 133 -77q10 -25 3 -65t-27 -66q-18 -25 -29 -9q-70 102 -213 103q-111 0 -162 -146q-43 -133 -63 -315q-6 -37 22 -37q258 0 367 29q104 23 158 49q18 8 20 -4t-8 -25q-35 -57 -57 -145q-39 -162 -54 -387q-8 -115 27 -115q49 0 143 123q23 23 23 -2 q0 -61 -23 -92q-47 -74 -172 -159t-188 -85q-35 0 -48 60.5t1 156.5q37 291 65 432q14 61 43 103q-49 -23 -127 -33q-115 -14 -180 -14q-31 0 -35 -39q-4 -49 -11 -110.5t-20.5 -161t-21.5 -175.5q-23 -178 -72 -310t-165 -241q-172 -162 -338 -161q-78 0 -111 40 q-57 57 -43 152q4 39 21 8q23 -43 90 -69.5t133 -26.5q119 0 163 100.5t74 372.5q23 190 58 586q0 31 -29 31q-68 0 -150 18q-16 4 -23 8t-5 8t10 11q102 74 125 71q31 -6 72 -6q25 0 28 25q35 244 219 407q207 182 375 182z" />
<glyph unicode="&#xfb02;" horiz-adv-x="1148" d="M778 1380h2q90 0 127 -82q25 29 101.5 60t111.5 33q14 0 22.5 -2.5t7.5 -8.5t-11 -14q-47 -43 -80 -209q-35 -150 -73 -436.5t-40 -392.5q0 -86 6 -116t31 -30q47 0 150 125q20 20 26 16t4 -24q-8 -57 -24 -82q-78 -102 -198 -178t-171 -76q-98 0 -61 309q49 399 59 473 q-53 -41 -100 -51q-92 -25 -191 -28q-33 0 -35 -33q-37 -332 -53 -449q-16 -127 -33.5 -201.5t-73 -181t-147.5 -188.5q-166 -145 -319 -145q-76 0 -113 38q-53 53 -45 154q0 16 7 18.5t16 -12.5q23 -43 93 -69.5t138 -26.5q74 0 112.5 36t65.5 136t51 315q27 213 56 576 q2 31 -29 31q-47 0 -152 16q-41 8 -18 25q102 76 123 73q49 -8 78 -8q20 0 24 27q45 291 316 489q130 94 239 94zM709 1270h-2q-70 0 -112 -24.5t-71 -94.5q-35 -80 -63 -342q-6 -37 24 -37q203 -4 295 35q18 141 45 287q16 98 47 143q-73 33 -163 33z" />
<glyph unicode="&#xfb03;" horiz-adv-x="1708" d="M760 1339h2q94 0 94 -137q0 -14 -7 -18t-15 2q-74 51 -166 51q-90 0 -132 -98.5t-71 -327.5q-2 -37 27 -37q125 -4 284 0q29 0 35 25q45 250 199 399q195 188 379 188q72 0 110.5 -29.5t40.5 -68.5q0 -68 -76 -125q-25 -18 -30 -2q-37 115 -177 115q-106 0 -157 -141 q-51 -168 -68 -330q-2 -33 25 -33q262 0 393 31q76 18 143 49q6 4 12.5 0t6.5 -11t-6 -16q-35 -57 -58 -145q-39 -174 -55 -389q-6 -115 29 -115q49 0 143 123q23 25 23 0q0 -61 -25 -94q-47 -74 -171 -159t-185 -85q-35 0 -49.5 60.5t-2.5 158.5q68 428 70 438q14 55 43 97 q-41 -18 -119 -33q-43 -6 -207 -14q-31 0 -32 -33q-12 -84 -40 -305l-38 -303q-4 -39 -15.5 -138.5t-15.5 -121.5q-4 -35 31 -35q84 0 166 -17q8 -2 10 -8t-6 -10q-6 -4 -29.5 -24.5t-41 -34t-25.5 -13.5q-158 4 -252 -4q-231 -16 -305 -39q-16 -4 -17.5 2t8.5 17 q51 68 154 96q27 8 41 33q27 39 63 262q33 199 90 639q6 39 -36 39h-117q-72 0 -104.5 1t-55.5 -1q-29 -2 -35 -37q-8 -55 -22.5 -189.5t-26.5 -226.5q-16 -125 -30.5 -195.5t-52.5 -165t-99 -161.5q-80 -94 -191.5 -160.5t-199.5 -66.5q-74 0 -115 40q-51 51 -43 150 q0 16 8 19.5t17 -11.5q23 -41 87 -66.5t138 -25.5q109 0 148.5 92t74.5 369q18 133 39 339t29 267q4 31 -31 31q-74 0 -147 16q-16 2 -23.5 7t-6.5 9.5t9 10.5q98 76 131 67q53 -8 76 -8q14 0 18 27q41 260 267 426q162 112 266 112z" />
<glyph unicode="&#xfb04;" horiz-adv-x="1736" d="M758 1339h2q37 0 64.5 -18t27.5 -45q0 -57 -78 -129q-27 -27 -33 2q-6 37 -34.5 62.5t-75.5 25.5q-72 0 -109 -117q-37 -121 -59 -311q-6 -37 29 -37h278q25 0 31 25q39 244 200 401q188 182 369 182q47 0 81 -22.5t42 -63.5q23 31 101.5 65t113.5 36q23 2 27 -4.5 t-9 -22.5q-55 -74 -79 -199q-37 -154 -74 -429t-39 -402q0 -84 7 -120t30 -36q53 0 149 125q18 20 24.5 16t4.5 -24q-8 -57 -25 -82q-70 -96 -190.5 -176t-175.5 -80q-49 0 -65.5 90t1.5 221l29 225l31 242q-31 -31 -97 -45q-121 -23 -208 -22q-27 0 -29 -31 q-4 -29 -21 -165l-30 -253q-49 -365 -256 -545q-80 -70 -176.5 -114.5t-178.5 -44.5q-139 0 -182 127q-78 -74 -174 -126t-174 -52q-92 0 -125 40q-51 51 -43 150q0 16 7 19.5t16 -11.5q25 -45 93 -69.5t138 -24.5q109 0 153 96t76 385q18 154 58 584q2 31 -31 31 q-68 0 -150 18q-41 8 -20 27q104 76 129 69q49 -8 76 -8q18 0 22 25q39 266 252 430q144 110 279 110zM457 -371h2q113 0 172 102.5t90 358.5q39 371 55 551q2 27 -24 27h-118h-104h-53q-31 -2 -37 -37q-8 -55 -21 -189l-22 -209q-41 -371 -174 -528q76 -76 234 -76z M1270 1280h-2q-197 0 -234 -469q-2 -35 29 -35q211 0 301 27q18 131 43 282q14 92 49 150q-65 45 -186 45z" />
</font>
</defs>
</svg>
