<?xml version="1.0" standalone="no"?>
<!DOCTYPE svg PUBLIC "-//W3C//DTD SVG 1.1//EN" "http://www.w3.org/Graphics/SVG/1.1/DTD/svg11.dtd" >
<svg xmlns="http://www.w3.org/2000/svg">
<metadata>
This is a custom SVG webfont generated by Font Squirrel.
Copyright   :  2002 2003 Adobe Systems Incorporated All Rights Reserved
Designer    : Robert Slimbach
Foundry URL : httpwwwadobecomtype
</metadata>
<defs>
<font id="webfontWbSiPJjl" horiz-adv-x="960" >
<font-face units-per-em="2048" ascent="1425" descent="-623" />
<missing-glyph horiz-adv-x="413" />
<glyph unicode=" "  horiz-adv-x="413" />
<glyph unicode="&#x09;" horiz-adv-x="413" />
<glyph unicode="&#xa0;" horiz-adv-x="413" />
<glyph unicode="!" horiz-adv-x="497" d="M465 1262h2q27 0 8 -31q-49 -94 -111.5 -392t-84.5 -462q-4 -16 -17 -10q-29 10 -53 59q-4 23 -4 90.5t8 193.5t20 234q18 145 39 199q10 35 58 59q102 58 135 60zM281 203q-4 -53 28 -103q8 -39 6 -55q-12 -16 -42.5 -34.5t-47.5 -22.5q-41 -4 -66.5 24.5t-27.5 59.5 q-10 6 -14 25.5t2 31.5q31 31 106 59q46 19 56 15z" />
<glyph unicode="&#x22;" horiz-adv-x="593" d="M344 1403h2q25 0 14 -78q-23 -162 -77 -278q-18 -39 -97 -109q-14 -10 -18 -7t0 21q20 61 38.5 193.5t12.5 191.5q16 12 64.5 39t60.5 27zM600 1405h2q20 0 12 -57q-25 -172 -86 -304q-10 -23 -39.5 -51t-48.5 -39q-25 -23 -22 -4q0 4 2 11q16 51 37.5 190t15.5 182 q18 16 64.5 44t62.5 28z" />
<glyph unicode="#" d="M506 428h-152q-18 0 -24 -18q-66 -211 -99 -271q-33 -61 -84 -94q-12 -8 -16 -5t2 17q51 119 121 351q4 20 -8 20q-131 0 -180 12q-14 4 -5 15q10 14 49.5 45.5t45.5 29.5q86 -6 118 -6q14 0 17 15l51 186q6 20 -16 20q-137 0 -187 17q-14 6 -6 14q80 80 98 76 q43 -14 129 -14q14 0 21 16l74 279q2 8 34.5 28.5t53.5 26.5q4 2 6 -1t2 -7l-92 -330q-2 -6 3 -11t11 -5h150q10 0 16 20q29 92 80 295q6 12 84 51q12 6 10 -8q0 -6 -2 -14l-46 -165l-44 -155q0 -25 18 -24q137 0 215 26q10 4 11 -6q0 -4 -4 -8q-47 -51 -128 -76t-128 -25 q-14 0 -23 -24l-49 -176q-8 -27 6 -27q96 -4 201 12q10 2 10 -5t-10 -15q-88 -80 -224 -80q-23 0 -28 -24q-47 -168 -90 -269q-8 -18 -31 -38.5t-37 -26.5q-16 -12 -16 6q2 4 4 12q33 86 98 320q4 18 -10 18zM602 745h-153q-18 0 -27 -20l-53 -182q-4 -23 12 -23h156 q14 0 14 17l55 192q2 2 0 9t-4 7z" />
<glyph unicode="$" d="M688 1235q121 -4 182 -64q37 -31 33 -92q-4 -35 -33.5 -72.5t-50.5 -50.5q-12 -6 -18 -4t-4 15q35 168 -146 198q-37 -178 -88 -456q-6 -20 10 -27q170 -61 222 -100q74 -59 73 -150q0 -215 -250 -350q-74 -41 -182 -64q-29 -8 -33 -28q-33 -127 -50 -168t-48 -64 q-20 -14 -25.5 -13t-0.5 22q35 139 51 217q4 23 -17 22q-78 0 -153.5 22.5t-110.5 55.5q-12 12 -17 37.5t3 36.5q51 72 92 176q12 35 29 16q8 -10 6 -37q-12 -115 8 -157q35 -63 160 -76q23 0 26 18q61 276 90 441q6 27 -10 32q-68 25 -104.5 42.5t-79.5 47t-61.5 70.5 t-18.5 96q0 180 170 299q100 70 225 99q18 4 23 26q12 68 20 125q2 10 35 42t47.5 40t14.5 -6q-4 -31 -18.5 -101.5t-18.5 -95.5q-7 -20 18 -20zM299 905v-2q0 -125 166 -188q18 -4 24 14q61 313 84 440q-109 -10 -191.5 -82.5t-82.5 -181.5zM725 346v2q0 70 -40 111 t-138 78q-18 6 -27 -17q-16 -84 -48 -231.5t-40 -188.5q-2 -12 3 -16t14 -2q119 18 198.5 86.5t77.5 177.5z" />
<glyph unicode="%" horiz-adv-x="1288" d="M506 1241h2q16 0 30.5 -4t21.5 -8t21.5 -13.5t22.5 -13.5q61 -41 182 -41q166 0 250 51q18 10 35 27q39 57 41 59q37 31 102 56q23 6 23 -2q-2 -6 -14 -27q-188 -285 -499.5 -686t-510.5 -612q-55 -55 -125 -70q-16 -2 -17 5t11 20q229 246 499.5 588.5t419.5 566.5 q10 14 3 16q-4 0 -9 -2q-111 -63 -262 -64q-49 0 -71 3q-6 0 -11.5 -4.5t-3.5 -10.5q4 -20 4 -59q0 -213 -159 -350q-33 -33 -93.5 -65t-109.5 -32q-84 0 -126 60.5t-42 148.5q0 162 90 289q51 68 178 137q68 37 117 37zM436 1167h-2q-86 0 -137 -108.5t-51 -229.5 q0 -74 29.5 -126t93.5 -52q86 0 134 117t46 231q0 168 -113 168zM1049 676h2q82 0 121.5 -66.5t39.5 -160.5q0 -104 -39.5 -203t-115.5 -156q-135 -100 -219 -100q-86 0 -129 63.5t-43 153.5q0 215 139 346q18 18 115 80q70 43 129 43zM971 596h-2q-78 0 -129.5 -101.5 t-51.5 -218.5q0 -100 40 -151t94 -51q61 0 105 58t59.5 126t15.5 131q0 207 -131 207z" />
<glyph unicode="&#x26;" horiz-adv-x="1452" d="M803 1282h2q70 0 119 -31q29 -20 35 -48.5t-13 -59.5q-12 -16 -25.5 -58.5t-15.5 -64.5q0 -29 -18 -12q-20 18 -21 77q4 33 -10 54q-35 68 -143 67q-115 0 -180.5 -74.5t-65.5 -179.5q0 -168 160 -188q45 -8 104 -4q27 0 2 -29q-47 -53 -82 -53h-78q-152 0 -237.5 -79 t-85.5 -218q0 -123 88 -216t256 -93q176 0 296 101t161 286q12 45 28 -4q12 -29 12.5 -72t-8.5 -59q-31 -74 -108.5 -151t-161.5 -122q-170 -88 -334 -88q-188 0 -290.5 100.5t-102.5 249.5q0 160 131 269q76 63 168 108q20 12 2 33q0 2 -2 4q-59 59 -59 158q0 158 166 286 q151 111 311 111zM584 360v2q0 39 42 92.5t124 102.5q102 63 282 70q254 6 334 59t57 211q-4 29 13 23q8 -4 20 -19q27 -29 30 -78t-18 -86q-57 -104 -184 -176q-78 -39 -197 -47q-152 -10 -270 -16q-176 -10 -170 -207q0 -16 -3 -22.5t-7 -5.5t-10 7q-43 33 -43 90z" />
<glyph unicode="'" horiz-adv-x="362" d="M356 1411h2q20 0 13 -78q-12 -80 -37 -168t-41 -118q-14 -33 -96 -107q-12 -12 -17.5 -8t-1.5 22q18 59 35.5 196.5t13.5 195.5q18 14 65.5 39.5t63.5 25.5z" />
<glyph unicode="(" horiz-adv-x="802" d="M102 217v2q0 543 297 926q90 115 198 194.5t169 96.5q29 8 57 -4q16 -10 -14 -25q-76 -33 -164 -106.5t-158 -170.5q-250 -346 -249 -847q0 -227 62 -377t136 -203q53 -37 119 -47q27 -2 0 -23q-4 -4 -8 -6q-39 -31 -101 -30q-106 0 -186 94t-119 233t-39 293z" />
<glyph unicode=")" horiz-adv-x="792" d="M690 813v-2q0 -561 -297 -932q-84 -100 -186.5 -181t-183.5 -101q-23 -8 -50 6q-4 2 -4 7t5.5 11t13.5 8q74 31 159.5 104.5t155.5 168.5q254 352 254 854q0 225 -62.5 370.5t-136.5 202.5q-53 37 -122 47q-25 2 -3 19q4 4 13 8q37 33 100 33q88 0 157.5 -61.5 t108.5 -159t58.5 -201t19.5 -201.5z" />
<glyph unicode="*" horiz-adv-x="718" d="M782 1157q-59 -68 -73 -70l-203 -45q20 -29 92 -101.5t100 -88.5q25 -16 -12 -21q-57 -6 -88 17q-49 31 -131 113q-4 6 -13.5 6t-11.5 -13q-2 -10 -12 -41.5t-15 -51t-12.5 -52.5t-7.5 -46t2 -32q4 -4 0 -7t-12 -1q-35 4 -53 33q-16 25 -2 78q18 80 41 153q4 10 0 17.5 t-15 5.5q-225 -53 -250 -64q-12 -4 -14 -1t6 13q10 18 35 44t39 30l58.5 17.5t60.5 15.5t65 16q-16 12 -66 75t-73 95q-10 16 4 25q16 12 45 22.5t37 8.5q59 -104 121 -174q41 115 78 163q20 33 51 43q14 4 37.5 3t34.5 -5q4 -2 3 -6t-5 -6q-53 -45 -115 -197q-4 -8 1 -12 t11 -2q74 20 240 53q14 2 20 0t2 -10z" />
<glyph unicode="+" horiz-adv-x="1097" d="M575 868h3q10 0 10 -69v-303q0 -31 20 -31q117 -4 375 10q18 0 6 -18q-10 -14 -44 -36t-52 -24q-176 -23 -270 -22q-37 0 -37 -43q0 -102 -11 -291q-2 -27 -29.5 -56.5t-47.5 -41.5q-8 0 -11 10v360q0 25 -13 43.5t-34 18.5q-256 0 -323 16q-25 6 -13 21q6 6 26 30l28 35 q12 16 22 12q72 -27 295 -26q12 0 12 18q0 221 -10 334q4 10 44 31.5t54 21.5z" />
<glyph unicode="," horiz-adv-x="415" d="M213 256h2q35 0 54.5 -35t19.5 -82q0 -113 -99.5 -236.5t-209.5 -176.5q-43 -18 -62 -19q-16 -2 -18 6t14 17q94 66 158.5 153.5t64.5 184.5q0 63 -55 84q-14 2 -14 10t10 14q86 51 102.5 65.5t32.5 14.5z" />
<glyph unicode="-" horiz-adv-x="684" d="M94 387q61 88 78 88q23 -2 94 2q205 12 346 49q8 2 8.5 -2t-6.5 -14q-47 -72 -125 -100q-70 -25 -185.5 -38.5t-170.5 -13.5q-49 0 -49 11q0 4 10 18z" />
<glyph unicode="." horiz-adv-x="413" d="M254 211q-8 -39 2 -82t29 -63q8 -12 -6 -27q-23 -23 -64 -46.5t-61 -23.5q-47 0 -70 53.5t-16 98.5q4 20 16 29q72 47 147 69q10 4 17.5 2t5.5 -10z" />
<glyph unicode="/" horiz-adv-x="888" d="M911 1354h2q16 6 9 -19q0 -4 -2 -8q-137 -295 -409.5 -796.5t-410.5 -694.5q-14 -18 -64 -50t-65 -32q-10 -2 -10 2t6 15q164 244 429.5 734t396.5 781q4 10 53 38t65 30z" />
<glyph unicode="0" d="M653 1253h2q117 0 192 -103t75 -300q0 -262 -68 -449.5t-176 -281.5q-59 -61 -150.5 -106.5t-165.5 -45.5q-133 0 -207.5 113t-74.5 305q0 240 60.5 406.5t125.5 244.5q63 74 152 133q126 84 235 84zM561 1161h-2q-102 0 -180 -103.5t-116 -266t-38 -353.5 q0 -162 57.5 -272.5t170.5 -110.5q90 0 156.5 70t100 183.5t50 229t16.5 234.5q0 389 -215 389z" />
<glyph unicode="1" d="M705 1253h2q12 2 10 -6q0 -4 -8 -14q-35 -51 -62 -209q-31 -168 -69.5 -479.5t-40.5 -417.5q0 -47 41 -47q129 -10 190 -33q16 -6 4 -16q-16 -14 -46 -30.5t-38 -14.5t-98 10q-86 4 -144 4q-201 0 -323 -25q-14 -2 -16.5 1.5t6.5 11.5q45 39 75 49q49 16 150 35 q31 6 41 47q43 264 135 917q2 18 -2 23.5t-14 1.5q-92 -31 -234 -43q-10 -2 -12 2t6 12q35 45 74 53q150 37 190 62q31 14 45 33l62 41q53 28 76 32z" />
<glyph unicode="2" d="M586 1253h2q131 0 198.5 -91t67.5 -216q0 -102 -48 -207.5t-99.5 -169t-135.5 -151.5q-154 -168 -278 -271q-14 -14 -11 -20t23 -10q154 -29 328 -29q150 0 256 158q20 27 20 -6q0 -39 -28 -74q-137 -188 -365 -189q-88 0 -235 13q-143 10 -162 10q-61 0 -96 -12 q-12 -6 -16.5 -2t1.5 14q10 18 43 49t53 41q43 18 78 45q203 154 359.5 360.5t156.5 401.5q0 127 -58 195.5t-153 68.5q-117 0 -188.5 -96t-73.5 -225q0 -16 -3 -20.5t-11 -0.5q-27 4 -48.5 41t-19.5 68q2 41 50.5 104.5t107.5 108.5q144 112 285 112z" />
<glyph unicode="3" d="M592 1253h2q106 0 167.5 -66.5t61.5 -160.5q0 -119 -116 -225q-45 -43 -125 -99q-29 -23 10 -26q49 -12 86 -27.5t78 -43t63.5 -76t24.5 -111.5q2 -229 -273 -404q-176 -113 -360 -112q-74 0 -113 18q-66 29 -65 88q0 39 35 98q14 29 24 15q2 -2 2 -6q25 -123 217 -123 q152 0 265.5 93t113.5 245q0 104 -67.5 172.5t-184.5 68.5q-80 0 -149 -30q-10 -6 -10 2t4 16q27 45 57 57q338 143 338 355q0 72 -45 122t-115 50q-168 0 -305 -195q-18 -29 -23 -10v10q0 47 23 78q51 74 158.5 150.5t220.5 76.5z" />
<glyph unicode="4" d="M758 1270h-2q-41 -90 -135 -242q-225 -358 -424 -571q-20 -23 8 -35q131 -33 317 -33q27 0 33 27q57 315 47 346q-4 14 16 31q20 10 49 29.5t56 41t31 23.5q14 10 20 5t2 -32q-10 -57 -43 -224t-41 -216q-8 -33 17 -33q170 0 262 72q12 10 14 4t-4 -19q-12 -37 -57 -65 q-76 -55 -226 -66q-31 -2 -39 -39q-31 -131 -51 -268q-10 -68 -8 -100q2 -18 -3 -22.5t-19 1.5q-94 43 -89 135q4 35 20.5 120t22.5 128q2 23 -1 29t-19 6q-61 0 -140 6t-162 14l-108 9q-68 4 -98 -19q-8 -6 -13 -2t-3 15q4 23 45 59q168 162 341 394.5t218 371.5 q2 10 14 29q63 70 135 125q29 20 31 8q0 -10 -14 -43z" />
<glyph unicode="5" d="M561 657h2q113 0 192 -70.5t79 -185.5q0 -129 -72 -223t-197 -174q-72 -45 -168 -75.5t-168 -30.5q-88 0 -135 22q-63 31 -63 92q0 37 35 103q20 33 26 12v-4q14 -135 225 -135q154 0 258.5 90t104.5 231q0 121 -71.5 185.5t-182.5 64.5q-166 0 -258 -67q-14 -12 -16 4 q0 10 6 22q39 82 77.5 276.5t45.5 321.5q2 18 28.5 56t46.5 59q14 14 21 0q27 -59 223 -60q209 0 320 132q8 10 13 6t3 -19q0 -10 -17.5 -41.5t-29.5 -44.5q-139 -162 -381 -162q-90 0 -119 7q-20 2 -27 -21q-53 -266 -100 -412q-4 -12 0 -19t19 -1q190 61 280 61z" />
<glyph unicode="6" d="M651 707h2q104 0 166 -74t62 -184q0 -252 -246 -404q-127 -78 -240 -78q-143 0 -228 114t-85 296q0 221 89 416.5t255 339.5q84 78 197.5 133t212.5 55q121 0 145 -98q8 -18 -4 -19q-4 0 -8 4q-39 35 -154 35q-213 0 -366 -162q-104 -113 -161 -284.5t-57 -339.5 q0 -176 70 -285t203 -109q100 0 175 77t75 218q0 104 -58.5 166t-148.5 62q-98 0 -215 -103q-10 -8 -12.5 -7t-2.5 11q10 45 43 72q176 148 291 148z" />
<glyph unicode="7" d="M680 1186h2q129 0 190.5 22.5t90.5 69.5q10 16 18 -2q2 -8 2 -23q-4 -37 -37 -106q-35 -72 -96 -172q-367 -567 -518 -856q-55 -98 -66 -203q-2 -25 -28 -16q-84 29 -76 96q8 53 78 156q412 614 571 882q12 23 7 33t-21 6q-180 -25 -361 -24q-166 0 -243 12 q-27 4 -44.5 10t-31 19.5t-6.5 29.5q14 37 49 79t59 61q23 20 31 -3q14 -45 106.5 -58t323.5 -13z" />
<glyph unicode="8" d="M680 1309h2q86 0 146.5 -64.5t60.5 -157.5q0 -127 -113 -237q-12 -12 -182 -162q-18 -16 2 -31q14 -8 60 -39l64 -41q17 -11 51 -40t47 -50.5t25.5 -53.5t12.5 -66q0 -98 -59.5 -172t-167.5 -144q-119 -80 -269 -80q-125 0 -211 72t-86 186q0 92 82 177q49 57 222 194 q20 20 4 33q-78 53 -116 108.5t-38 132.5q0 184 191 328q137 107 272 107zM584 1221h-2q-96 0 -169 -78t-73 -195q0 -135 170 -235q18 -12 37 0q219 166 219 319q0 82 -49 135.5t-133 53.5zM465 55h2q92 0 172 64.5t80 156.5q0 47 -18.5 88.5t-61.5 79t-78 61l-100 64.5 q-27 16 -49 2q-203 -156 -203 -292q0 -92 67.5 -158t188.5 -66z" />
<glyph unicode="9" d="M602 1253h2q139 0 220 -122.5t81 -305.5q0 -481 -301 -757q-195 -186 -420 -187q-49 0 -78 10q-41 10 -47 37q-2 8 -7 15.5t-13 15.5t-12 14q-12 12 -27 41q-6 18 2 23q4 2 10 -4q51 -66 203 -66q184 0 310 106.5t181.5 274.5t55.5 385q0 111 -23.5 203t-84 159.5 t-152.5 67.5q-102 0 -174 -91t-70 -216q0 -113 61.5 -179.5t155.5 -66.5q104 0 203 86q12 10 15 7t-1 -15q-8 -41 -39 -63q-53 -49 -137 -87t-149 -38q-100 0 -170 77.5t-70 198.5q0 219 186 363q144 114 289 114z" />
<glyph unicode=":" horiz-adv-x="452" d="M311 791h2q10 0 14.5 -3.5t6.5 -17.5q-4 -78 39 -133q12 -12 -2 -27q-20 -27 -86 -61q-23 -12 -37 -12q-39 0 -66.5 50t-25.5 91q-2 25 14 37q16 14 69.5 44t71.5 32zM274 211q-8 -37 2.5 -80t26.5 -65q10 -12 -4 -27q-23 -23 -64.5 -46.5t-62.5 -23.5q-47 0 -69.5 53.5 t-16.5 98.5q4 20 16 29q72 47 148 69q24 6 24 -8z" />
<glyph unicode=";" horiz-adv-x="452" d="M309 791h2q10 0 14.5 -3.5t6.5 -17.5q-4 -82 39 -133q10 -10 -2 -27q-20 -27 -86 -61q-18 -12 -35 -12q-41 0 -68.5 50t-25.5 91q-2 25 14 37q16 14 69.5 44t71.5 32zM231 258h2q35 0 54.5 -35t19.5 -82q0 -113 -99 -236.5t-210 -178.5q-39 -16 -61 -17q-16 -2 -18.5 5 t13.5 18q94 66 159 153.5t65 184.5q0 61 -56 82q-14 4 -14 12t10 14q68 33 103 64q16 16 32 16z" />
<glyph unicode="&#x3c;" horiz-adv-x="931" d="M133 434q199 63 352.5 163.5t335.5 256.5q16 12 17 -6q0 -35 -31 -74q-72 -84 -214 -193.5t-239 -158.5q-8 -4 -6 -13.5t12 -13.5q90 -45 225.5 -157.5t176.5 -178.5q29 -49 -4 -108q-12 -20 -31 2q-270 305 -588 412q-23 4 -28 38q8 25 22 31z" />
<glyph unicode="=" horiz-adv-x="1097" d="M985 635q18 0 10 -10q-12 -16 -48 -41t-48 -27q-145 -18 -502 -18q-244 0 -272 8q-18 6 -10 20l55 62q18 20 29 18q45 -12 169.5 -14t616.5 2zM965 299q16 0 8 -10q-14 -18 -48 -41t-44 -23q-156 -20 -504 -20q-207 0 -273 8q-18 6 -10 18l53 62q18 20 31 18 q76 -12 170 -14q166 -2 617 2z" />
<glyph unicode="&#x3e;" horiz-adv-x="931" d="M788 354q-139 -47 -267 -118.5t-200 -127.5l-200 -163q-27 -23 -27 -2q0 43 31 77q72 86 211 192.5t237 158.5q18 12 -4 26q-90 45 -225 159t-174 177q-33 53 4 111q8 16 29 -2q268 -303 590 -416q18 -8 24 -37q-15 -27 -29 -35z" />
<glyph unicode="?" horiz-adv-x="790" d="M586 1257h2q102 0 151 -55t49 -141q0 -45 -12 -86t-46 -88t-50 -67.5t-73 -77.5l-62 -62q-133 -141 -133 -236q0 -49 12 -65q12 -25 -8 -25q-41 -2 -78 27t-37 68q0 18 9 39.5t29.5 50t39.5 51.5l53 63l57 68q135 168 136 287q0 74 -40 116.5t-108 42.5 q-80 0 -143.5 -62.5t-69.5 -152.5q-2 -29 2 -71q6 -18 -12 -19q-31 0 -60.5 31t-27.5 68q4 39 44 90t103 94q146 112 273 112zM393 203q-4 -55 31 -103q8 -39 6 -55q-14 -18 -44 -35.5t-48 -21.5q-41 -4 -66.5 24.5t-27.5 59.5q-10 6 -14.5 25.5t1.5 31.5q31 31 107 59 q47 19 55 15z" />
<glyph unicode="@" horiz-adv-x="1609" d="M985 813h2q41 0 64 -29q16 -16 20 -2q8 12 19 23q47 37 88 49q16 6 18 -1t-8 -19q-39 -49 -79 -214t-46 -303q-10 -205 94 -204q115 0 202 144t87 325q0 244 -130 380t-380 136q-266 0 -465 -176q-115 -104 -185.5 -272.5t-70.5 -362.5q0 -256 134 -406.5t378 -150.5 q236 0 410 145q10 8 13 7t1 -13q-4 -31 -33 -59q-193 -176 -489 -177q-250 0 -396.5 164t-146.5 426q0 479 399 776q104 78 240.5 128.5t271.5 50.5q260 0 400.5 -146.5t140.5 -398.5q0 -186 -82 -337t-231 -235q-94 -51 -174 -51q-63 0 -93 74q-25 63 -16 186q2 25 -6 23 q-4 0 -10 -8q-90 -125 -244 -228q-84 -55 -139 -55q-16 0 -33.5 17.5t-33 60.5t-15.5 104q0 240 143 414q29 37 98.5 88t135.5 84q81 43 147 43zM924 731h-2q-96 0 -172 -72q-61 -61 -103.5 -171.5t-42.5 -225.5q0 -129 60 -129q47 0 128.5 80t145.5 201q14 29 84 266 q6 25 -8 33q-55 18 -90 18z" />
<glyph unicode="A" horiz-adv-x="1417" d="M903 1313h2q10 0 2 -19q-14 -29 -14 -114q4 -82 33 -226q102 -504 207 -761q25 -63 45 -88t49 -27q104 -6 145 -21q11 -3 11 -7t-9 -9q-80 -47 -92 -47q-53 4 -78 4q-27 2 -84 2q-147 0 -243 -20q-9 -2 -14 -3q-4 0 -5 1q-2 3 14 20q39 33 54 41q10 4 28 10l25 8 q27 8 20 41q-10 41 -94 338q-6 25 -24 17q-75 -28 -224 -29q-67 0 -149 6q-23 0 -39 -29q-123 -217 -166 -278q-20 -37 14 -41q86 -8 146 -23q18 -6 6 -18q-68 -51 -86 -51l-59 6q-53 4 -101 4q-145 0 -243 -20q-13 -2 -14 3q0 4 7 13q23 27 62 43q45 23 98 35q33 8 64 39 q59 55 196 309q12 25 2 39q-12 14 4 31l28 22q17 14 19 16q20 23 31 37q158 283 248 492q43 111 45 119q6 27 21 43q14 18 58 55t54 37zM735 510h2q86 0 119 8q26 5 26 23q0 4 -1 8q-70 319 -88 426q-4 12 -12.5 12t-14.5 -14q-94 -207 -213 -422q-2 -6 -2 -11q0 -12 14 -16 q43 -14 170 -14z" />
<glyph unicode="B" horiz-adv-x="1112" d="M657 1292h2q182 0 264.5 -72.5t82.5 -191.5q0 -209 -248 -309q-6 -2 -8 -6t0 -7.5t8 -3.5q127 -25 203 -81q80 -66 79 -187q0 -133 -67.5 -212t-188.5 -144q-174 -96 -555 -96q-156 0 -217 6q-17 2 -17 5q0 2 9 11q39 35 92 49q20 8 80 13q20 2 33 30q39 84 82 471 q47 434 51 531q2 33 25 61q16 27 -15 27q-121 -14 -264 -58q-25 -8 -8 13q39 49 90 67q231 84 487 84zM592 1210h-2q-35 0 -64 -4q-27 -6 -28 -37q-6 -68 -18 -164l-23 -198q-12 -100 -15 -123q-2 -10 -1 -14t4.5 -4t9.5 4q18 18 63 24q340 53 340 285q0 106 -69.5 168.5 t-196.5 62.5zM592 635h-2q-100 0 -133 -17q-29 -12 -31 -36q-8 -66 -43 -320q-23 -139 -43 -166q-6 -10 -6 -16q0 -11 18 -12q55 -3 103 -4q156 0 233 36q186 72 186 285q0 115 -75.5 182.5t-206.5 67.5z" />
<glyph unicode="C" horiz-adv-x="1224" d="M922 1303h2q152 0 241 -64q43 -34 43 -68q0 -19 -14 -38q-18 -27 -59 -138q-12 -31 -39 -47q-8 -6 -11.5 -2t-1.5 17q9 55 9 93q0 50 -15 72q-63 96 -250 97q-92 0 -188 -38t-156 -93q-221 -193 -221 -557q0 -227 119 -356.5t324 -129.5q260 0 464 219q10 12 16.5 11.5 t4.5 -19.5q-4 -37 -45 -78q-86 -98 -234.5 -165.5t-326.5 -67.5q-217 0 -351 131q-135 133 -135 392q0 404 324 648q106 82 246.5 131.5t253.5 49.5z" />
<glyph unicode="D" horiz-adv-x="1368" d="M1317 741q0 -406 -346 -618q-215 -133 -649 -139q-94 -2 -318 -2q-15 1 -15 7q0 4 7 11q35 31 88 51q20 8 84 12q20 2 37 31q25 45 65 332q29 219 62 608q6 78 37 129q14 20 -17 21q-39 -2 -145.5 -25.5t-151.5 -40.5q-14 -4 -17 0t7 15q45 43 94 63q98 39 262 66.5 t308 27.5q326 0 481 -166q127 -133 127 -383zM1161 684v2q0 256 -133 387q-137 137 -385 137q-72 0 -113 -8q-31 -6 -36 -41l-42 -385t-57 -473q-25 -170 -59 -213q-5 -7 -5 -11q0 -10 23 -13q57 -4 115 -5q100 0 198 14q155 22 253 87q106 70 173.5 204t67.5 318z" />
<glyph unicode="E" horiz-adv-x="1087" d="M711 1251h2q123 0 169 8.5t56 30.5q4 8 37 24.5t55 20.5q5 2 8 2q4 0 4 -4q2 -2 -2 -12q-66 -141 -82 -332q-2 -25 -16 -10q-20 20 -31 70q-8 66 -8 122q0 14 -5 19.5t-15 3.5q-90 -20 -359 -20q-29 0 -33 -43.5t-42 -401.5q-4 -25 20 -35q43 -20 219 -20q70 0 105 14 q20 4 30 31q14 29 25 37q23 20 67 35q23 6 23 0q0 -4 -8 -17q-66 -123 -80 -332q0 -16 -4 -22t-10.5 -2t-16.5 18q-25 36 -25 121q0 12 1 25q2 16 -4.5 22t-18.5 2q-68 -18 -321 -18q-20 0 -29 -39q-33 -258 -62 -430q-4 -18 1.5 -26.5t25.5 -10.5q115 -10 334 -10 q102 0 164 49q66 47 133 203q10 29 20 2q4 -10 3 -34t-7 -40q-10 -43 -44 -101.5t-62 -87.5q-70 -76 -162 -75q-37 0 -81 1t-99.5 3t-87.5 2q-137 6 -275 6q-156 0 -237 -12q-4 -1 -8 -1q-9 0 -8 5q0 4 7 10q27 27 66 41q41 18 125 33q23 2 37 22q35 53 82 443 q51 401 50 545q0 48 -5 67q-4 27 -31 31q-117 12 -168 22q-39 8 -16 21q2 0 4 2q98 45 111 45q22 0 151.5 -11.5t237.5 -11.5q43 -1 90 0z" />
<glyph unicode="F" horiz-adv-x="1001" d="M715 1249h2q133 0 194 19q25 6 43 35q8 12 40 25t48 15q3 1 6 1q7 0 7 -5q2 -2 -4 -16q-55 -115 -74 -322q-2 -27 -19 -14q-27 23 -36 60q-8 31 -13 127q0 16 -5 21t-17 3q-92 -27 -350 -27q-39 0 -41 -30q-29 -270 -52 -447q-2 -25 17 -35q43 -18 198 -18q143 0 168 39 l9 12q6 12 10 19q31 35 86 39q10 2 10 -2.5t-6 -16.5q-61 -131 -72 -319q-2 -23 -18 -11q-23 14 -33 45q-12 41 -16 105q-2 16 -7.5 21.5t-19.5 2.5q-84 -21 -263 -21q-30 0 -63 1q-16 0 -19 -7t-7 -34q-4 -35 -24.5 -183.5t-26.5 -207.5q-2 -35 28 -37q145 -14 193 -29 q18 -8 2 -18q-77 -49 -97 -49h-1q-23 4 -76 8q-33 2 -146 2q-125 0 -272 -18q-4 -1 -7 -1q-9 0 -9 5q0 4 6 10q41 41 73 53q16 6 105 29q29 4 43 43q37 78 78 422q4 20 -11 26q-18 8 -34 19q-14 8 -2 22q23 25 51 47q12 12 16 37q33 280 34 399q0 34 -3 54q-6 33 -31 35 q-172 23 -180 24q-31 6 -4 19q92 51 115 51h4q156 -27 473 -27z" />
<glyph unicode="G" horiz-adv-x="1376" d="M942 1303h2q180 0 277 -76q37 -30 37 -64q0 -16 -9 -33q-41 -98 -53 -147q-4 -16 -20.5 -33.5t-28.5 -21.5q-4 -2 -7 2t-1 14q9 49 9 88q0 67 -28 101q-68 90 -266 90h-6q-280 0 -428 -190q-150 -191 -150 -488q0 -246 136.5 -381t338.5 -135q127 0 205 30q29 10 23 39 q-3 14 -3 36q0 28 5 69q18 139 35 229q8 27 -27 27q-123 0 -250 20q-29 6 -4 21q95 51 116 51h3q94 -12 207 -12q207 0 295 41q8 4 14 4.5t6 -4.5t-8 -15q-35 -41 -59 -53q-35 -20 -97 -35q-20 -8 -39 -41q-20 -47 -38 -143q-12 -65 -11 -105q0 -19 2 -32q2 -29 24 -35 q7 -2 17 -2q21 0 56 8q14 4 16 -4q0 -4 -4 -8q-20 -33 -43 -39l-50 -18l-75 -25q-291 -82 -430 -82q-236 0 -383.5 133t-147.5 391q0 467 369 684q227 144 473 144z" />
<glyph unicode="H" horiz-adv-x="1492" d="M795 678h2q244 0 301 20q23 2 28 50q37 307 45 387q4 37 -26 39q-8 2 -70.5 8t-81.5 10q-27 4 -6 18q14 8 40 24.5l38 24t20 7.5q74 -8 80 -9q66 -4 99 -4q150 0 268 29q5 1 8 1q7 0 7 -4q0 -3 -5 -9q-20 -35 -55 -51q-39 -20 -105 -33q-35 -6 -51 -56q-29 -76 -84 -487 q-36 -320 -36 -452q0 -40 3 -62q4 -37 48 -39q113 -10 161 -24q25 -6 7 -21q-71 -51 -91 -51h-2q-6 0 -14 1t-22.5 2t-24.5 1q-57 4 -115 4q-168 0 -291 -33q-4 -1 -7 0q-6 0 -6 2q-1 4 5 13q18 27 53 49q47 27 93 37q37 10 43 61l25 219l28 236q2 18 -2 25t-15 5 q-121 -27 -389 -26q-59 0 -142 2t-99 2q-31 -2 -35 -49q-43 -303 -51 -410q-2 -31 4 -39t20 -10q123 -18 168 -31q18 -4 2 -14q-75 -54 -101 -54q-2 0 -3 1q-23 4 -76 8q-57 4 -109 4q-174 0 -286 -23q-11 -2 -12 4q0 4 6 11q33 39 59 49q14 8 121 37q27 8 43 47 q35 80 82 450q54 419 53 540v15q0 37 -39 41q-121 14 -158 23q-25 8 -4 16q87 53 106 54h1q2 0 27 -3l42 -6q12 0 48 -1t59 -1q158 0 266 21q10 2 13.5 1t2.5 -5t-8 -10q-27 -37 -61 -54q-31 -10 -96 -22q-33 -8 -41 -49q-20 -104 -51 -394q-6 -35 26 -41q91 -22 320 -22z " />
<glyph unicode="I" horiz-adv-x="681" d="M285 561q57 443 57 566q0 45 -43 47q-90 8 -158 22q-12 2 -14 5t10 13q78 54 103 54h4q47 -6 71 -8q49 -6 113 -7q139 0 283 23q2 1 4 0q4 0 4 -3q0 -5 -4 -11q-31 -37 -64 -52q-37 -16 -104 -30q-39 -8 -47 -43q-20 -96 -43 -316q-51 -391 -62 -516q-18 -170 -26 -192 q-10 -23 18 -27q129 -10 197 -27q16 -6 2 -16q-71 -54 -90 -54q-1 0 -2 1q-116 11 -176 10h-19q-170 0 -301 -23q-7 -1 -11 -1q-9 0 -7 6q0 2 2 6q43 43 67 53q57 20 109 29q35 8 55 55q33 90 72 436z" />
<glyph unicode="J" horiz-adv-x="647" d="M301 520q53 496 53 594q0 33 -11 44t-42 16q-53 6 -164 26q-20 6 -4 19q88 51 103 51q90 -16 223 -17q94 0 258 21q3 1 5 0q7 0 7 -4q0 -2 -4 -8q-20 -31 -61 -50q-29 -14 -107 -32q-31 -6 -39 -50q-18 -115 -88 -731q-25 -219 -59.5 -333.5t-91.5 -192.5 q-76 -106 -184.5 -176t-198.5 -70q-72 0 -107 43q-27 29 -27 113q0 12 6.5 15t12.5 -9q16 -29 66.5 -50.5t109.5 -21.5q98 0 157.5 63.5t98.5 213.5q45 159 88 526z" />
<glyph unicode="K" horiz-adv-x="1323" d="M297 567q54 445 54 548q0 11 -1 18q0 39 -41 43q-106 10 -151 20q-25 4 -4 18q73 49 87 50h1q6 0 31.5 -3.5t41.5 -3.5q70 -4 111 -4q133 0 272 23q10 2 11.5 -3t-4.5 -9q-33 -41 -66 -56q-43 -16 -98 -26q-31 -10 -37 -49q-29 -164 -68 -519q-47 -381 -55 -475 q-2 -31 2 -41t20 -12q119 -14 164 -27q23 -6 4 -16q-59 -56 -88 -56q-2 0 -4 1q-6 0 -19 2l-27 4q-13 2 -25 2q-61 4 -111 4q-180 0 -293 -23q-16 -4 -16 3q0 4 4 8q8 12 51 45q18 12 119 39q39 10 55 47q35 90 80 448zM989 1126q37 45 8 52q-86 12 -100 16q-27 6 -2 23 q79 47 91 47q8 0 33 -3q24 -3 34 -4q53 -4 94 -4q152 0 262 25q9 2 14 2q4 0 4 -1q2 -3 -12 -17q-33 -33 -72 -48q-45 -23 -157 -38q-12 -2 -25.5 -8.5t-32.5 -20.5l-27 -22q-9 -7 -34 -30l-31 -30l-150 -145q-136 -131 -224 -209q-19 -18 -20 -39q0 -10 5 -21 q57 -111 195.5 -284.5t255.5 -268.5q39 -33 84 -44t147 -15q12 2 10 -4q0 -4 -6 -10q-25 -31 -65 -39q-68 -14 -150 -15q-72 0 -147 60q-88 72 -233.5 242.5t-231.5 297.5q-27 43 -31 58q4 31 29 43q82 41 234.5 186t250.5 268z" />
<glyph unicode="L" horiz-adv-x="1042" d="M295 625q52 392 52 493q0 14 -1 23q0 31 -27 33q-8 2 -45.5 6t-73.5 9t-50 9q-25 6 -5 16q66 51 97 52q6 0 29.5 -2t39.5 -4q53 -6 121 -7q195 0 291 21q5 2 8 1q4 0 4 -3q-2 -4 -8 -12q-31 -43 -72 -54q-12 -4 -51 -12l-49 -10q-39 -8 -49 -47q-6 -25 -90 -609l-19 -143 l-18 -145q-15 -113 -15 -124q0 -31 42 -38q91 -11 190 -11q49 0 100 3q106 6 162 61q68 68 111 201q6 27 18 8q10 -24 10 -50q0 -16 -4 -34q-23 -96 -88 -180q-74 -92 -176 -94q-96 0 -266 10q-205 8 -273 8q-125 0 -213 -16q-5 -2 -8 -2q-6 0 -6 4t6 10q33 35 80 51 q49 16 111 27q33 4 49 47q33 92 86 504z" />
<glyph unicode="M" horiz-adv-x="1810" d="M889 307q6 -14 16 -15t17 9l516 850q14 23 39 86q8 18 22 18h52q189 0 319 27q7 2 11 2q6 0 6 -4q0 -5 -7 -14q-33 -37 -68 -52q-51 -23 -155 -40q-45 -10 -58 -48q-35 -90 -69 -487q-24 -297 -24 -434q0 -36 1 -62q4 -51 43 -65q29 -12 99 -15h22q54 0 86 9q16 4 17 -4 q0 -6 -13 -19q-66 -68 -366 -67q-100 0 -148 10q-25 2 -6 18q41 45 68 58q27 16 30 45q78 686 107 901q2 12 -6 12q-6 0 -13 -10q-104 -162 -252.5 -419t-218.5 -394l-37.5 -74t-37.5 -72q-35 -53 -72 -96q-12 -14 -22 -14q-2 0 -4 1q-11 3 -3 27q4 13 4 35q0 52 -24 154 q-106 449 -264 848q-4 10 -12.5 8t-10.5 -16q-131 -694 -184 -877q-10 -37 22 -37q125 -14 168 -24q20 -6 6 -23q-76 -55 -90 -55q-4 0 -27 3l-40 5q-57 4 -105 4q-166 0 -264 -23q-12 0 -12 6q0 4 6 11q23 33 59 49q37 14 129 37q27 6 45 37q49 104 120 415.5t100 524.5 q4 28 4 49q0 28 -8 44q-13 30 -64 34q-104 6 -201 6q-10 0 -12 5t6 9q74 47 119 47q14 0 117.5 7.5t150.5 7.5q23 0 33 -33z" />
<glyph unicode="N" horiz-adv-x="1466" d="M393 1274h2q35 0 72 -57q78 -121 328 -483l307 -445q6 -8 13 -12.5t12.5 -1t5.5 11.5l77 653q25 174 39 203q8 16 3 21t-27 10q-125 10 -162 18q-25 4 -6 14q78 57 98 58l62 -7q53 -4 96 -4q147 0 262 29q3 1 5 1q3 0 4 -2q1 -3 -3 -11q-18 -35 -68 -56q-37 -18 -112 -34 q-31 -6 -49 -31q-43 -59 -98 -436q-50 -350 -50 -542v-17v-17q0 -103 -69 -184q-13 -22 -21 -23q-6 0 -8 13q-37 102 -107 217q-147 246 -548 827q-13 18 -23 19q-12 0 -16 -33q-18 -174 -76 -576q-25 -209 -31 -247q-1 -7 -1 -14q0 -43 36 -50q139 -16 154 -20q20 -8 4 -23 q-73 -53 -89 -53h-1q-105 11 -167 10h-20q-160 0 -258 -23q-17 -2 -17 3q0 4 7 12q37 37 57 47q39 18 115 35q43 8 68 59q27 59 67.5 280.5t63.5 440.5q16 149 15 222q0 51 -7 65q-23 45 -74 45q-60 3 -125 3q-32 0 -65 -1q-25 0 -5 16q70 49 99 51q8 0 103 8.5t128 10.5z " />
<glyph unicode="O" horiz-adv-x="1370" d="M874 1303h3q199 0 320.5 -135.5t121.5 -376.5q0 -434 -291 -660q-227 -180 -465 -180q-207 0 -336 128t-129 392q0 231 97.5 406.5t263.5 281.5q206 144 415 144zM772 1214h-2q-156 0 -281 -100q-111 -86 -174 -237.5t-63 -327.5q0 -246 115.5 -375t294.5 -129 q246 0 374.5 194.5t128.5 473.5q0 229 -104.5 365t-288.5 136z" />
<glyph unicode="P" horiz-adv-x="1054" d="M645 1290h2q197 0 297 -88t100 -246q0 -133 -60 -221t-181 -162q-55 -35 -122 -56t-99 -21q-70 0 -105 43q-16 20 6 20q22 -1 43 -1q173 0 265 77q104 92 104 260q0 141 -77 227t-218 86q-43 0 -68 -6q-23 -6 -28 -37q-12 -70 -72 -534q-51 -420 -51 -499q0 -42 31 -44 q127 -8 184 -27q18 -6 0 -20q-72 -51 -95 -52q-2 0 -3 1q-25 2 -80 6q-66 4 -111 4q-195 0 -321 -25q-4 -1 -7 0q-9 0 -8 6q0 4 4 9q20 29 64 49q41 18 121 35q35 6 49 41q33 78 84 475q49 399 53 512q4 57 21 74q8 8 3 14t-20 4q-135 -18 -258 -55q-18 -6 -18 0q2 4 6 10 q31 41 63 55q70 33 220.5 59.5t281.5 26.5z" />
<glyph unicode="Q" horiz-adv-x="1370" d="M877 1303h2q199 0 320.5 -138.5t121.5 -378.5q0 -205 -73.5 -368.5t-190.5 -257.5q-31 -33 -88 -76q-23 -14 -4 -29q369 -305 587 -305q86 0 162 41q12 6 17 4q2 -1 1 -3q0 -3 -3 -9q-14 -35 -43 -51q-104 -68 -226 -68q-92 0 -223 56.5t-221 112.5l-217 142 q-25 16 -43 11q-91 -35 -179 -35h-10q-207 0 -338 128t-131 390q0 229 92.5 403.5t258.5 278.5q217 152 428 152zM770 1212h-2q-164 0 -285 -96q-106 -82 -167.5 -235.5t-61.5 -331.5q0 -254 121 -379t276 -125q76 0 88 10q90 63 129 64l15 -6q14 -6 24 -4 q131 74 194.5 238.5t63.5 361.5q0 223 -104.5 363t-290.5 140z" />
<glyph unicode="R" horiz-adv-x="1198" d="M635 1290h2q186 0 279.5 -77.5t93.5 -221.5q0 -76 -26 -137t-76 -104t-91 -69t-104 -54q-18 -8 -6 -37q43 -92 143 -248t170 -227q74 -76 199 -86q14 -1 13 -8q0 -3 -3 -7q-14 -18 -45 -26q-35 -10 -88 -11q-82 0 -137.5 30t-112.5 93q-68 78 -287 420q-29 49 -84 53 q-23 2 -14 17q4 12 22.5 24.5t40.5 14.5q57 8 108.5 26.5t107 53t88 96t32.5 141.5q0 123 -73.5 192.5t-206.5 69.5q-35 0 -58 -6q-20 -6 -26 -41l-103 -842q-23 -158 -45 -210q-14 -25 17 -25q98 -4 188 -27q23 -6 4 -18q-78 -49 -92 -49q-37 4 -76 6q-53 4 -88 4 q-195 0 -324 -23q-5 -1 -8 0q-7 0 -6.5 3.5t6.5 11.5q31 35 72 49q47 18 111 31q33 8 48 32.5t31 90.5q20 86 55.5 378.5t53.5 509.5q4 66 25 95q8 12 -5 12q-145 -14 -276 -60q-12 -4 -15 0.5t3 12.5q39 43 69 59q51 27 203 57.5t291 30.5z" />
<glyph unicode="S" horiz-adv-x="888" d="M666 1303h2q86 0 145 -43q23 -18 23 -45q0 -20 -13 -46q-18 -33 -39 -112q-10 -37 -39 -49q-6 -6 -11 -4t-3 16q4 35 4 63q0 51 -14 76q-33 63 -135 64q-127 0 -203 -80t-76 -201q0 -125 123 -194q25 -14 123 -62.5t133 -69.5q131 -78 131 -213q0 -190 -223 -344 q-158 -109 -328 -108q-145 0 -217 72q-18 18 -18 45q0 15 8 24q43 68 57 127q16 59 51 64q16 0 9 -21q-8 -40 -8 -71q0 -60 28 -89q51 -66 184 -65q119 0 213.5 71.5t94.5 204.5q0 113 -99 170q-53 31 -136 74t-101 53q-160 88 -160 246q0 188 180 332q146 115 314 115z" />
<glyph unicode="T" horiz-adv-x="1312" d="M768 1241h2q401 0 461 31q16 6 24 22q12 20 27 29q29 25 84 35q4 1 7 1q8 0 8 -5t-7 -17q-80 -152 -98 -368q-2 -25 -23 -6q-25 18 -30 67q-7 36 -8 84q0 32 4 70q2 14 -3.5 18t-15.5 -2q-76 -37 -360 -37q-23 0 -33 -35q-18 -74 -70 -481q-51 -404 -51 -503v-13 q2 -41 29 -41q178 -14 239 -33q27 -8 4 -18q-92 -56 -108 -56q-1 0 -2 1q-37 8 -100 10q-63 6 -152 6q-190 0 -375 -29q-3 -1 -6 0q-5 0 -7 2q-3 4 5 13q33 33 66 45q59 31 188 49q35 6 49 41q31 80 88 555q39 328 43 377q8 66 25 88q18 20 -8 20q-176 2 -369 19 q-25 2 -37 -33q-33 -82 -68 -135q-29 -45 -73 -64q-18 -8 -21 -4q0 2 4 12q31 59 59.5 157.5t30.5 166.5q2 18 52 74q7 7 11.5 7t6.5 -7q8 -39 16.5 -50.5t30.5 -21.5q86 -41 461 -41z" />
<glyph unicode="U" horiz-adv-x="1449" d="M254 543q10 92 37.5 307l34.5 272q6 45 -25 47q-68 6 -158 25q-17 4 -16 9q0 4 8 9q94 53 111 54q59 -8 71 -9q66 -4 109 -4q190 0 276 19q8 2 10.5 -2t-3.5 -10q-20 -31 -60 -50q-29 -14 -117 -30q-29 -4 -45 -41q-43 -119 -81 -531q-11 -92 -11 -167q0 -68 8 -122 q18 -115 86 -180q86 -86 248 -86q166 0 254 86q74 68 119 214.5t80 422.5q33 229 33 352q-2 41 -41 46q-139 16 -154 20q-20 6 -4 16q79 55 95 56h1q6 0 28 -3l36 -6q57 -4 106 -4q139 0 248 25q5 2 9 2q7 0 7 -6q0 -5 -6 -12q-29 -35 -63 -52q-33 -14 -103 -30 q-29 -6 -41 -39t-28 -119q-8 -49 -27.5 -183t-38 -238.5t-37.5 -176.5q-78 -283 -266 -395q-127 -76 -282 -76q-223 0 -326 125q-66 78 -84 181q-9 49 -9 115q0 74 11 169z" />
<glyph unicode="V" horiz-adv-x="1366" d="M555 -16q-2 195 -141 725q-70 283 -121 397q-25 59 -60 65q-20 4 -78.5 13.5t-78.5 13.5q-12 2 -12 8q0 4 6 11q67 51 94 51h4q90 -16 194 -17q156 0 252 23q18 4 7 -12q-14 -25 -56 -48q-47 -20 -94 -32q-29 -6 -18 -52q121 -426 209 -880q2 -10 7 -12t11 2t10 12 q174 362 455 878q20 37 -19 44l-141 22q-16 4 -6 14q79 55 95 56h1q6 0 29 -3l39 -6q57 -4 100 -4q141 0 252 25q3 1 5 0q7 0 7 -4q0 -2 -4 -8q-16 -29 -53 -49q-31 -16 -119 -37q-29 -8 -51.5 -29t-69.5 -86q-76 -106 -280.5 -482t-243.5 -497q-18 -45 -59 -90 q-33 -39 -60 -45q-2 -1 -3 -1q-2 0 -3 2q-2 3 -4 11.5t-2 20.5z" />
<glyph unicode="W" horiz-adv-x="1941" d="M203 1180v2q-66 6 -125 18q-12 1 -12 6q0 3 6 8q81 51 103 52h1l76 -9q57 -4 100 -4q186 0 277 23q10 2 11 -1t-5 -13q-35 -35 -55 -48q-18 -10 -111 -30q-27 -8 -25 -37q2 -18 35 -196.5t64.5 -373t42.5 -298.5q2 -12 11 -10.5t15 14.5q61 109 176 347t179 390 q8 16 16 61q2 27 14 47q47 82 101 127q10 12 18 10.5t2 -22.5q-15 -56 -14 -129q0 -40 4 -86q14 -147 77.5 -424.5t102.5 -353.5q16 -27 31 -2l410 878q18 41 -15 45q-96 12 -149 25q-20 4 -9 16q14 14 53.5 36t49.5 20q8 -2 31 -5l36 -6q53 -4 97 -4q152 0 254 25q4 1 7 1 q6 0 5.5 -4t-4.5 -11q-16 -27 -62 -52q-10 -6 -106 -30q-35 -8 -57.5 -32t-61.5 -87q-195 -305 -469 -952q-31 -66 -90 -146q-8 -10 -15 -10q-9 0 -18 16q-35 78 -107.5 394.5t-101.5 492.5q-6 33 -22 6q-53 -92 -181 -351l-192 -398q-8 -16 -14 -34t-13 -28 q-27 -43 -86 -88q-14 -11 -21 -11q-10 0 -5 23q4 21 4 59q0 87 -21 265q-29 229 -72.5 464.5t-84.5 344.5q-25 64 -86 70z" />
<glyph unicode="X" horiz-adv-x="1357" d="M324 1178q-139 20 -150 22q-12 4 -6 14q12 10 46 31t44 19q8 0 31.5 -3.5t38.5 -3.5q61 -4 116 -4q160 0 252 21q12 2 14.5 -1t-3.5 -13q-23 -23 -62 -48l-80 -26q-18 -6 -10 -35q14 -55 170 -391q12 -25 33 -2q238 305 274 389q8 16 4 21.5t-22 9.5q-109 18 -119 20 q-27 6 -6 19q4 2 27.5 16t41 23.5t23.5 9.5q4 0 25.5 -3t37.5 -6q57 -4 91 -4q127 0 260 27q2 1 4 1t3 -2q1 -3 -3 -11q-16 -27 -62 -49q-25 -12 -114 -31q-43 -10 -80 -43q-66 -70 -357 -457q-16 -20 -4 -47q53 -121 134 -273.5t116 -203.5q33 -47 57.5 -65.5t65.5 -22.5 q25 -4 87.5 -8.5t76.5 -6.5q16 -4 4 -14q-55 -51 -86 -51h-42q-265 0 -396 -25q-4 -1 -7 0q-4 0 -6 1q-2 3 5 12q14 25 43 45l53 26q18 10 6 33q-12 20 -211 434q-14 23 -27 4l-313 -405q-27 -33 6 -37q4 -2 71.5 -11.5t84.5 -15.5q18 -6 2 -18q-71 -49 -89 -49h-1 q-31 4 -72 6q-57 4 -111 4q-150 0 -251 -20q-9 -2 -10 3q0 4 5 11q37 43 68 53q117 31 131 35q39 10 90 70q162 178 350 442q16 23 5 53q-125 291 -220 469q-28 56 -77 62z" />
<glyph unicode="Y" horiz-adv-x="1251" d="M215 1180v2q-82 10 -139 20q-9 1 -10 6q0 3 6 9q75 47 92 47h2q8 0 32.5 -3.5t39.5 -3.5q61 -4 114 -4q113 0 238 19q10 4 10 -2q0 -2 -6 -13q-14 -23 -49 -47q-10 -6 -35 -12t-35 -12q-25 -8 -12 -31q90 -172 201 -504q8 -23 24 0l328 500q16 23 -12 29q-66 10 -99 16 q-29 4 -8 16q80 51 94 52q8 0 32 -3.5t34 -3.5q49 -4 84 -4q115 0 227 23q4 1 7 1q5 0 5 -5q0 -2 -4 -8q-29 -33 -59 -50q-43 -23 -123 -34q-31 -6 -100 -76q-80 -82 -188.5 -235.5t-166.5 -256.5q-39 -76 -49 -151q-37 -242 -37 -342q0 -33 29 -35q170 -14 219 -33 q18 -6 6 -16q-67 -51 -91 -52q-2 0 -3 1q-147 14 -229 16q-254 0 -367 -25q-5 -1 -8 0q-5 0 -6 1q-2 3 4 10q29 35 74 53q55 23 165 39q16 4 24.5 11t16.5 30q10 29 32 144.5t30 187.5q2 19 2 39q0 56 -16 120q-33 125 -104 282t-124 228q-16 23 -25.5 32t-25.5 16.5 t-41 11.5z" />
<glyph unicode="Z" horiz-adv-x="1210" d="M774 1233h2q227 0 314 29q49 16 79 59q9 9 15 9q2 0 3 -1q5 -4 3 -18q-6 -39 -27 -74q-37 -63 -143 -209q-336 -453 -733 -872q-16 -20 8 -29q59 -12 260 -28q177 -14 259 -13h20q238 8 340 236q2 8 6 12t7 1t5 -11.5t2 -18.5q0 -25 -14 -61q-63 -139 -195 -213 q-96 -55 -246 -56q-90 0 -274 12.5t-275 12.5q-113 0 -149 -25q-9 -4 -14 -4q-7 0 -6 8q0 6 6 15q8 18 35.5 51t46.5 47q219 213 498.5 531.5t383.5 502.5q6 8 3 12.5t-15 2.5q-86 -23 -453 -23q-111 0 -190 6q-25 0 -39 -30q-43 -88 -92 -148q-29 -39 -70 -49 q-14 -6 -15 -2t5 16q102 197 123 342q0 20 55 76q6 6 10 6q5 0 6 -10q18 -49 41 -59q78 -31 414 -33z" />
<glyph unicode="[" horiz-adv-x="786" d="M225 221q41 346 100.5 693.5t90.5 424.5q8 20 36.5 44t47.5 28q14 2 71.5 4t132 3t107.5 3q18 0 8 -10q-37 -37 -47 -41q-72 -20 -201 -37q-20 -2 -51 -88q-86 -270 -176 -987q-47 -408 -31 -502q6 -37 49 -45q25 -4 224 -18q20 0 8 -12q-8 -12 -30.5 -27.5t-41.5 -18.5 q-102 -20 -286 -16q-16 0 -41 16.5t-25 30.5q-2 123 55 555z" />
<glyph unicode="\" horiz-adv-x="708" d="M272 1352q35 -268 134.5 -792.5t160.5 -780.5q4 -20 -1 -24.5t-15 1.5q-76 23 -115 187q-145 637 -262 1325q-2 12 25.5 40.5t48.5 43.5q22 12 24 0z" />
<glyph unicode="]" horiz-adv-x="784" d="M604 819q-43 -346 -103.5 -693t-90.5 -425q-6 -16 -37 -41t-47 -29q-14 -4 -67.5 -6t-132.5 -3t-114 -3q-18 0 -8 10q23 29 51 41q10 4 94 19.5t105 23.5q29 12 53 88q41 131 92.5 419t83.5 562q47 403 29 502q-6 41 -47 47q-45 4 -223 17q-14 2 -9 12q27 37 68 45 q98 16 289 16q18 0 40.5 -14t22.5 -29q2 -125 -49 -559z" />
<glyph unicode="^" horiz-adv-x="888" d="M532 1288h3q2 0 8 -18q23 -98 45 -170t85.5 -193t155.5 -233q12 -12 -6 -21q-14 -8 -54 -4t-60 21q-25 20 -108 159.5t-112 227.5q-4 10 -12 0q-49 -94 -125 -207t-131 -164q-18 -16 -55 -33.5t-51 -17.5q-18 0 2 22q201 217 342 566q10 27 36.5 46t36.5 19z" />
<glyph unicode="_" horiz-adv-x="1134" d="M1090 -365v-102h-1147v102h1147z" />
<glyph unicode="`" horiz-adv-x="821" d="M424 1331h2q8 0 8 -12q10 -82 46 -185.5t75 -166.5q10 -14 -8 -15q-14 0 -42 8.5t-36 16.5q-37 27 -83 98.5t-62 143.5q-8 37 22 65q10 12 37 29.5t41 17.5z" />
<glyph unicode="a" horiz-adv-x="927" d="M588 836h2q53 0 102 -41q12 -12 23 4q37 57 106 73q9 3 14 4q4 0 7 -3q4 -5 -6 -17q-27 -33 -52 -111q-29 -96 -55 -258q-29 -175 -29 -282q0 -76 31 -76q33 0 75 44t71 93q23 33 22 0q-6 -57 -18 -76q-49 -84 -135.5 -153.5t-135.5 -69.5q-20 0 -34.5 39t-14.5 90 q0 47 12 191q2 18 -2 20t-10 -10q-102 -150 -264 -264q-100 -68 -156 -68q-31 0 -58.5 55.5t-27.5 149.5q0 238 135 414q61 84 205 174q125 78 193 78zM545 745h-2q-104 0 -187 -71q-63 -59 -107 -180t-44 -242q0 -63 17.5 -103t45.5 -40q47 0 128 77.5t157 202.5 q31 49 74 213q16 66 35 105q2 4 1 7q0 8 -10 13q-40 18 -108 18z" />
<glyph unicode="b" horiz-adv-x="909" d="M756 848h2q35 0 61.5 -56.5t26.5 -142.5q0 -168 -62.5 -295t-142.5 -202q-111 -102 -223 -150q-86 -39 -168 -39q-55 0 -92 43t-39 113q-2 17 -2 40q0 75 20 214l48 332l48 331q23 168 27 207q2 16 -2 21.5t-16 3.5q-66 -16 -152 -33q-10 -2 -13 0q-2 1 -2 3q0 3 7 13 q45 47 74 52q156 35 250 100q24 17 41 16h4q10 -4 0 -20q-25 -35 -45 -142q-37 -154 -117 -712q-4 -18 2 -24.5t18 9.5q129 176 301 273q91 45 146 45zM621 723h-3q-76 0 -173 -107.5t-150 -226.5q-37 -80 -37 -186q0 -63 32 -100t95 -37q84 0 162 71q63 59 106 175 q41 110 41 248v13q1 150 -73 150z" />
<glyph unicode="c" horiz-adv-x="696" d="M565 844h2q57 0 76 -35q9 -14 9 -30q0 -19 -13 -42q-29 -47 -39 -75q-4 -12 -13 -14.5t-14 9.5q-18 82 -112 82q-72 0 -146 -73q-41 -45 -75.5 -139.5t-34.5 -213.5q0 -113 42 -172t111 -59q156 0 289 194q16 23 17 -4q-6 -51 -31 -86q-82 -104 -225 -180 q-78 -37 -166 -37q-84 0 -132.5 74t-48.5 192.5t42 225t87 155.5q80 86 177 148q116 80 198 80z" />
<glyph unicode="d" horiz-adv-x="956" d="M582 846h2q49 0 86 -51l51 344q14 90 29 114q8 10 4 15.5t-19 1.5q-94 -20 -184 -31q-14 -2 -17.5 1t9.5 13q57 51 73 54q147 16 302 106q11 7 16.5 7t5.5 -7q0 -12 -12 -27q-45 -49 -94 -354q-86 -455 -105 -786q-1 -22 -1 -41q0 -92 26 -92q47 0 153 153q16 27 17 -4 q-4 -33 -19 -67q-41 -84 -131 -160t-137 -76q-48 0 -48 166q0 25 1 53q4 84 10 123q2 29 -4 29q-4 0 -10 -13q-117 -178 -275 -290q-94 -63 -155 -64q-18 0 -41 20.5t-42.5 77t-19.5 136.5q0 127 40 231t85 162q84 102 234 192q104 64 170 64zM547 760h-2 q-156 0 -251 -140.5t-95 -343.5q0 -88 22.5 -134t57.5 -46q33 0 86 42t106 110q125 156 168 373q10 45 18 122q-49 17 -110 17z" />
<glyph unicode="e" horiz-adv-x="700" d="M555 846h2q35 0 63.5 -35t28.5 -86q0 -70 -37 -121t-114 -104q-86 -59 -256 -123q-23 -6 -27 -23q-5 -14 -5 -39q0 -13 1 -28q2 -92 42 -148.5t107 -56.5q156 0 289 176q18 18 19 -4q0 -43 -31 -80q-70 -84 -177.5 -145.5t-205.5 -61.5q-88 0 -133 75t-47 173q0 61 4 115 q2 14 -10 20q-27 15 -28 33q0 4 3 6q4 4 20 8q31 6 35 29q37 168 140 262q63 59 156 108.5t161 49.5zM449 760h-3q-80 0 -144 -94.5t-79 -208.5q-2 -7 -1 -11q0 -7 3 -10q2 -2 7 -1q7 0 20 3q276 84 276 224q0 43 -22 70.5t-57 27.5z" />
<glyph unicode="f" horiz-adv-x="565" d="M727 1415h2q72 0 72 -55q0 -16 -58 -103q-6 -12 -16 -14t-14 12q-16 59 -90 60q-94 0 -154 -119q-66 -123 -94 -403q-2 -33 26 -33q182 0 287 47q14 6 17 -2q0 -10 -21 -27q-70 -61 -160 -84q-61 -14 -135 -18q-31 -4 -33 -35q-29 -293 -43 -410q-29 -236 -78 -382 t-143 -246q-63 -72 -147 -120t-168 -48q-51 0 -86 20q-37 20 -58.5 64.5t-21.5 91.5q0 14 6 17t12 -11q20 -41 84 -66.5t127 -25.5q129 0 196.5 101.5t108.5 379.5q39 254 70 635q2 18 -5 23.5t-26 7.5q-66 0 -141 10q-39 6 -18 20q87 59 99 60q16 0 43.5 -2t39.5 -2 q27 0 29 24q25 219 114 357q82 121 195 200q98 76 182 76z" />
<glyph unicode="g" horiz-adv-x="776" d="M492 846h2q10 0 18 -1t17 -4l16 -5q6 -2 14 -8l13 -8q5 -3 13.5 -9t11.5 -9l12 -11.5t12 -10.5q16 -14 51 -14q109 0 166 84q6 9 11 9q2 0 3 -1q6 -4 4 -18q0 -47 -59 -103q-57 -53 -123 -69q-16 -4 -17 -35q0 -10 1 -20q0 -157 -91 -267q-55 -72 -176 -153 q-88 -55 -88 -92.5t64 -69.5q31 -16 107.5 -51t105.5 -50q133 -66 133 -153q-2 -68 -65.5 -137.5t-143.5 -116.5q-150 -88 -297 -88q-117 0 -222.5 59.5t-105.5 157.5q0 96 326 299q-49 45 -49 78q0 10 22.5 32.5t58 51t44.5 37.5q6 6 5 11t-14 3q-16 -2 -30 -2 q-70 0 -112 49q-50 59 -50 158q2 176 106 295q70 80 158 120q10 6 29 19q64 43 119 43zM408 756h-2q-41 0 -87 -37q-109 -96 -108 -277v-10q0 -186 139 -186q86 0 136.5 92t50.5 219q0 199 -129 199zM311 -469h2q113 0 190 50t77 112q0 68 -91 121q-96 55 -202 96 q-11 4 -23 4q-21 0 -45 -12q-76 -39 -138.5 -97.5t-62.5 -95.5q0 -74 82 -126t211 -52z" />
<glyph unicode="h" horiz-adv-x="968" d="M776 848h2q29 0 41 -51q7 -28 7 -65q0 -31 -5 -68q-4 -25 -86 -490q-4 -16 2 -21.5t19 3.5q63 37 137 123q17 22 17 4q0 -19 -16 -56q-13 -31 -28 -45q-100 -106 -231 -190q-59 -41 -90 -41q-25 0 0 33q20 29 45 112q41 145 80 439q7 52 6 89q0 91 -39 91q-53 0 -138 -81 t-157 -194q-72 -104 -131 -329q-14 -51 -45 -86q-53 -53 -113 -64q-8 -2 -12 0q-3 1 -3 5q0 8 11 22q20 29 51 172q35 166 90.5 538.5t67.5 522.5q2 31 -5 41t-28 6q-123 -18 -139 -19q-20 0 -23 6q0 2 7 9q45 41 63 43q168 37 238 88q29 20 43 20q8 -6 7 -20.5t-9 -69.5 l-125 -823q-2 -14 0 -19.5t9 -2.5t17 16q168 211 324 303q80 49 139 49z" />
<glyph unicode="i" horiz-adv-x="516" d="M313 115h2q51 0 170 155q10 12 12.5 10.5t2.5 -12.5q-4 -57 -27 -90q-37 -57 -137 -136t-150 -79q-16 0 -27.5 20.5t-15.5 63.5q-1 12 -1 27q0 36 8 84q23 201 73 469q4 18 0 22t-20 -2q-18 -8 -67.5 -35.5l-65.5 -36.5q-14 -6 -18 -4q-1 1 -1 4t2 9q12 37 51 63l248 178 q31 23 51 23q23 0 3 -29q-31 -47 -54 -160q-49 -225 -65 -411q-3 -32 -3 -56q-1 -77 29 -77zM430 1233h2q17 -2 17 -10q0 -6 -9 -15q-25 -23 -33 -65q-5 -23 -5 -45q0 -20 4 -39q4 -10 -15 -17q-11 -1 -21 -1q-43 0 -71 22q-31 23 -29 86q4 49 37 68q36 20 82 20q19 0 41 -4 z" />
<glyph unicode="j" horiz-adv-x="485" d="M426 1251q20 -5 20 -9.5t-6 -14.5q-25 -31 -28 -86q-1 -12 -1 -23q0 -38 11 -57q8 -20 -14 -21q-59 0 -84 23q-37 27 -45 90q-1 6 -1 11q0 34 23 50q8 6 61.5 21.5t63.5 15.5zM416 852h2q3 1 5 0q7 0 7 -4q0 -8 -10 -19q-23 -23 -35 -75t-27 -168q-6 -39 -35.5 -271.5 t-43.5 -324.5q-43 -301 -216 -447q-129 -113 -241 -112q-43 0 -68 14q-70 31 -73 154q2 14 7 18t13 -8q20 -43 73.5 -65.5t108.5 -22.5q94 0 153.5 73.5t94.5 290.5q18 127 50 381t42 312q4 16 -1 20t-21 -4q-41 -29 -158 -80q-23 -10 -23 -2q0 2 3 8q29 49 53 66 q119 68 168 123q8 8 19 25.5t18 25.5q23 29 65.5 59.5t69.5 32.5z" />
<glyph unicode="k" horiz-adv-x="901" d="M709 82h2q74 0 170 164q18 29 18 -4q0 -39 -20 -70q-47 -86 -120 -149.5t-130 -63.5q-84 0 -150 133q-100 209 -145 266q-25 33 -51 7q-18 -16 -29 -52l-17.5 -87t-19.5 -93q-14 -70 -51 -104q-76 -70 -111 -70q-10 0 -10 8q0 7 6 19q35 66 70 299q102 567 131 940 q2 25 -3 34t-28 7l-65.5 -10.5t-77.5 -10.5q-33 0 -10 15q51 39 71 43q152 35 230 94q27 18 37 18q8 -2 7 -22.5t-10 -69.5q-72 -449 -129 -860q-4 -16 8.5 -21.5t26.5 9.5q217 233 303 305q111 90 179 90q31 0 55 -26.5t28 -59.5q0 -12 -14 -12q-20 3 -40 2q-95 0 -181 -56 q-104 -68 -217 -194q-23 -27 -6 -47q55 -61 143 -228q51 -92 80 -117.5t70 -25.5z" />
<glyph unicode="l" horiz-adv-x="487" d="M244 1272q-80 -12 -150 -17q-19 0 -19 5q0 4 11 12q55 45 74 49q158 23 289 94q9 6 13.5 6t4.5 -6q0 -10 -10 -24q-37 -53 -68 -211q-33 -154 -75 -438.5t-54 -454.5q-3 -42 -3 -74q0 -101 30 -100q72 0 188 170q20 31 21 0q0 -51 -23 -86q-72 -96 -168 -165t-143 -69 q-50 0 -50 134q0 69 13 173l117 822q4 25 13 89t11 72q2 12 -4 16.5t-18 2.5z" />
<glyph unicode="m" horiz-adv-x="1488" d="M336 844h2q26 0 26 -74q0 -15 -2 -33q0 -25 -5 -62.5t-12 -97t-11 -100.5q-2 -20 4 -22t16 14q143 203 303 315q86 59 144 60q41 0 41 -114v-21q-4 -84 -25 -234q-2 -18 4 -20t17 14q150 215 329 330q82 51 140 51q31 0 38 -48q2 -16 2 -35q0 -37 -10 -85 q-55 -258 -84 -473q-4 -29 -4 -49q0 -43 19 -43q31 0 77 44t80 101q12 16 18 14q4 -1 3 -11q0 -46 -37 -107q-51 -76 -139 -137.5t-131 -61.5q-47 0 -47 88q0 51 16 133q47 217 80 408q8 40 8 67q0 54 -33 54q-49 0 -131 -83t-151 -196q-57 -94 -129 -315q-16 -55 -52 -86 q-72 -57 -106 -58q-18 0 -6 23q16 27 41 127q18 72 39.5 215t25.5 244q1 17 1 31q0 86 -31 85q-39 0 -107 -66.5t-131 -162.5q-102 -150 -168 -365q-16 -49 -39 -69q-29 -23 -67.5 -45.5t-53.5 -24.5q-16 0 -2 23q16 27 35 92q29 109 54.5 279.5t27.5 250.5q0 35 -6 50.5 t-19 11.5q-37 -10 -131 -97q-12 -10 -16 -9q-3 1 -3 7q0 29 44 80q55 57 137 125t117 68z" />
<glyph unicode="n" horiz-adv-x="1003" d="M809 848h2q42 0 42 -101q0 -27 -3 -61q-23 -203 -82 -512q-6 -31 20 -18q61 29 136 116q10 10 13 11.5t4 -1.5t1 -15.5t-13.5 -44.5t-25.5 -46q-102 -117 -225 -186q-74 -43 -96 -43q-29 0 -4 28q23 31 47 121q51 186 73 443q4 41 4 72q0 93 -36 94q-53 0 -152.5 -109 t-163.5 -231q-27 -49 -100 -273q-14 -39 -41 -63q-76 -63 -113 -64q-25 0 -6 23q23 29 43 118q74 305 78 510q0 58 -18 58h-3q-37 -16 -120 -96q-20 -18 -21 -5q0 2 2 9q16 53 43 80q41 47 125 116.5t117 69.5q23 0 23 -80q0 -12 -1 -27q-2 -74 -26 -249q-2 -14 1 -20.5 t8 -5.5t11 9q147 211 312 318q90 55 145 55z" />
<glyph unicode="o" horiz-adv-x="837" d="M592 848h2q72 0 124 -77t52 -202q0 -283 -172 -434q-72 -63 -174 -117.5t-162 -54.5q-92 0 -145.5 77t-53.5 206q0 193 91 332q31 57 96 110t127 82q6 2 67 37q78 41 148 41zM473 752h-2q-59 0 -127 -58q-59 -49 -98 -149.5t-39 -235.5q0 -129 49 -186t117 -57 q86 0 153 86q106 141 107 356q0 113 -43 178.5t-117 65.5z" />
<glyph unicode="p" horiz-adv-x="956" d="M899 635v-2q0 -111 -35 -226.5t-90 -189.5q-68 -90 -180 -168q-70 -47 -156 -74q-75 -23 -127 -23q-8 0 -16 1q-27 2 -31 -28.5t-15 -86t-13 -63.5q-33 -168 -66 -207q-6 -10 1 -14.5t26 -6.5q18 -2 35 -1q50 0 101 13q69 17 107 44q23 18 23 2q0 -23 -37 -54 q-72 -59 -207 -81q-88 -18 -248 -19q-59 0 -90 6q-14 2 -14 8t12 15q74 57 133 63q35 4 47 21q16 20 43 154.5t41 240.5q4 23 -16 37q-39 27 -45 76q-2 8 2 9t14 -3q10 -6 39 -10q16 -4 23 18q27 158 61 487q2 20 -5 24.5t-23 -7.5q-27 -20 -76 -41q-45 -19 -68 -19h-4 q-51 0 0 29q156 96 195 182q20 41 28 62q16 41 69.5 95t82.5 69q9 4 13 3q3 0 5 -1q4 -4 -2 -17q-61 -127 -100 -460q-2 -18 5 -18.5t17 13.5q133 195 287 297q96 63 162 64q35 0 63.5 -56.5t28.5 -156.5zM750 571v2q0 66 -18.5 106t-51.5 40q-55 0 -139 -85t-138 -192 q-115 -200 -115 -383q0 -11 9 -16q10 -6 31 -8l37 -2q119 0 202 59q78 57 130.5 181t52.5 298z" />
<glyph unicode="q" horiz-adv-x="917" d="M582 844q33 0 59.5 -26.5t34.5 -55.5q4 -20 1 -23.5t-24 0.5q-29 10 -94 11q-121 0 -203 -74q-59 -51 -106 -165t-47 -257q0 -154 73 -154q68 0 158 90.5t156 206.5q43 76 69 197q31 133 64 184q35 63 84 101.5t86 46.5q4 1 7 0q8 0 11 -3q1 -1 1 -3q0 -5 -9 -15 q-94 -88 -151 -569q-49 -420 -84 -623q-14 -98 -47 -135q-23 -23 6 -22h8q152 0 242 73q25 20 24 6q0 -14 -18 -38q-84 -98 -303 -129q-84 -14 -285 -15q-41 0 -37 12q0 4 8 11q20 20 57 42.5t52 24.5q12 2 40.5 4t41.5 4q31 2 51 64q47 115 106 666q2 18 -4 23t-16 -9 q-156 -195 -311 -287q-84 -45 -127 -45q-41 0 -71 58.5t-30 142.5q0 236 131 407q57 74 142 140q61 47 140 90t114 43z" />
<glyph unicode="r" horiz-adv-x="714" d="M690 852h2q35 0 35 -37q0 -20 -14 -49q-29 -59 -39 -115q-2 -6 -7 -10t-11.5 -3t-8.5 7q-14 35 -51 35q-68 0 -141.5 -110.5t-124.5 -252.5q-6 -18 -64 -229q-16 -53 -39 -70q-20 -16 -61 -38.5t-51 -22.5q-23 0 -9 23q25 43 46 149q53 246 57 436v20q0 102 -21 101 q-39 -2 -139 -108q-6 -6 -10 -8.5t-5 0.5t-1 12q10 43 37 73q47 53 128 123t115 70q33 0 33 -113q0 -31 -18 -243q-2 -20 3 -22.5t15 13.5q82 143 133 213q121 156 211 156z" />
<glyph unicode="s" horiz-adv-x="591" d="M463 852h2q37 0 60 -19q22 -18 22 -48q0 -24 -51 -101q-8 -14 -16.5 -17t-12.5 11q-18 78 -102 78q-61 0 -107.5 -47t-46.5 -109q0 -53 80 -115l141 -94q86 -57 86 -117q0 -106 -170 -229q-123 -92 -215 -92q-61 0 -102 51q-35 35 -39 102q0 12 4 17.5t14 -6.5 q20 -31 74.5 -49.5t105.5 -18.5q102 0 148.5 45t46.5 90t-51 84q-16 12 -73.5 51t-88.5 62q-80 55 -80 133q0 100 121 215q51 51 124 87t126 36z" />
<glyph unicode="t" horiz-adv-x="675" d="M469 1147h2q2 1 4 1q3 0 5 -2q3 -3 2 -9.5t-7 -12.5q-55 -63 -94 -323q-6 -29 22 -29q26 -1 51 -1q174 0 287 50q20 8 21 -2q0 -8 -14 -22q-63 -63 -154 -84q-113 -27 -203 -27q-25 0 -37 -33q-41 -203 -55 -397q-3 -28 -3 -52q0 -114 66 -114q55 0 123 63.5t117 147.5 q8 12 12 14t5.5 -2t1.5 -12v-10q0 -62 -46 -119q-47 -63 -153.5 -136t-185.5 -73q-49 0 -69 70q-14 49 -14 112q0 27 3 56q2 27 67 458q2 12 -3 17.5t-21 5.5q-63 0 -136 10q-12 2 -18 4q-5 2 -5 5t8 11q5 5 18 13q74 49 92 49q6 0 28.5 -1t30.5 -1q27 0 31 27q18 88 49 190 q10 35 51 76q23 23 66 50.5t55 31.5z" />
<glyph unicode="u" horiz-adv-x="1024" d="M416 846h2q8 0 11 -4t1 -10.5t-8 -10.5q-18 -18 -41 -84q-27 -63 -52.5 -220t-29.5 -261q-1 -16 -1 -30q0 -113 58 -113q59 0 144.5 93t156.5 220q20 37 35 78t22 67.5t19 83t19 80.5q8 33 32 37q35 10 97 51q35 25 49 25q6 0 9 -4t0 -11.5t-11 -15.5q-31 -27 -54 -100 q-57 -180 -75 -434q-3 -42 -4 -74q0 -100 34 -100q49 0 154 157q20 33 21 8v-6q0 -47 -21 -86q-35 -63 -124 -143t-150 -80q-23 0 -37 38q-13 33 -13 80v13q2 127 21 229q2 20 -4 22.5t-17 -13.5q-139 -213 -305 -316q-86 -49 -131 -49q-37 0 -55 50q-15 41 -15 97 q0 12 1 25q8 209 82 508q2 14 -4.5 16.5t-22.5 -6.5l-63 -41q-46 -31 -66 -43q-10 -6 -17 -8t-7 5q0 5 3 14q25 47 52 71q201 137 213 150q14 14 46 29.5t46 15.5z" />
<glyph unicode="v" horiz-adv-x="823" d="M803 741v-2q2 -203 -336 -594q-68 -82 -78 -100q-4 -6 -29 -35q-14 -14 -46.5 -33.5t-45.5 -23.5q-14 0 -6 31q14 57 14 116q0 15 1 30q0 107 -13 249q-14 162 -39 242q-14 45 -28.5 57t-36.5 2q-33 -16 -115 -113q-18 -25 -18 2q6 47 34 88q47 55 107 105q20 18 39 39 q10 16 36.5 31.5t41.5 15.5q51 0 80 -182q25 -154 32 -476q0 -37 27 -12q109 115 186.5 251t77.5 222q0 80 -55 105q-14 4 2 26q18 27 56 48.5t59 21.5q53 0 53 -111z" />
<glyph unicode="w" horiz-adv-x="1282" d="M1245 694v-2q0 -199 -371 -647q-76 -82 -104 -82q-23 0 -37 49q-16 43 -37.5 188.5t-29.5 258.5q-3 42 -18 42q-12 0 -32 -30q-164 -225 -249 -369q-20 -39 -64 -84q-23 -25 -54.5 -43t-41.5 -18q-16 0 -8 23q23 39 32 141q15 98 15 231v34q-2 155 -21 247q-4 33 -14 44 t-27 5q-43 -12 -147 -125q-18 -18 -19 4q8 41 35 78q53 66 138 136.5t120 70.5q45 0 54 -148q4 -85 4 -179q0 -132 -9 -281q-2 -20 9 -19q6 0 18 17q68 86 213 327q20 33 45 68q14 16 23 53q0 8 2 13t5 9.5t4 6.5t7 5t8 5q33 16 72 55q23 20 41 21q16 0 -4 -37 q-20 -36 -21 -154q0 -36 2 -80q2 -111 21.5 -221t42.5 -145q16 -29 43 -4q92 88 169 241.5t77 284.5q0 78 -29 145q-8 10 -3 18q4 6 15 5h6q41 -4 80 -48t39 -110z" />
<glyph unicode="x" horiz-adv-x="948" d="M365 844h2q33 0 69 -101l24 -61l24 -73l22 -64q12 -41 33 -8q102 160 170 211q10 10 10 32q0 14 20 29q55 43 86 53q4 1 7 1q7 0 8 -4q2 -5 0 -30q-1 -10 -1 -18q0 -102 87 -125q13 -3 13 -9t-15 -15q-24 -13 -52 -13q-12 0 -25 2q-42 8 -73 35q-8 8 -18 8q-19 0 -47 -28 q-63 -55 -148 -201q-14 -27 -14 -52q0 -12 4 -24q49 -150 85 -222.5t79 -72.5t82 52.5t82 142.5q6 12 10 15t6 0t6 -13q3 -11 3 -24q0 -36 -23 -81q-37 -78 -113 -149.5t-141 -71.5q-23 0 -44.5 20.5t-41.5 65.5l-32 72q-11 27 -31.5 86t-20.5 61q-12 39 -33 6 q-117 -178 -188 -247q-80 -74 -150 -74q-86 0 -88 92q0 47 39 98q23 39 29 0q10 -74 73 -73q59 0 137 95t127 198q12 29 3 61q-74 279 -125 279q-57 0 -162 -170q-16 -27 -21 -3q-1 8 -1 16q0 34 22 68q63 100 153 177q66 51 93 51z" />
<glyph unicode="y" horiz-adv-x="827" d="M272 846h2q68 0 117 -225q37 -154 66 -480q2 -18 10 -19t16 11q55 90 126 271.5t73 287.5q0 14 -14.5 27.5t-40.5 17.5q-18 4 8 31q29 29 73 54.5t66 29.5q3 1 6 1q7 0 12 -7q7 -10 7 -29q-2 -133 -99.5 -365.5t-203.5 -422.5q-33 -57 -37 -82q-2 -27 -39 -45 q-10 -8 -23 -25q-125 -201 -258 -321.5t-217 -120.5q-40 0 -39 26q0 9 4 21q47 94 70 125q12 25 27 6q17 -14 37 -14q18 0 38 10q61 25 138 102.5t141 186.5q10 18 10 71v18q0 128 -27 303q-30 187 -71 300q-33 92 -49 102q-6 4 -15 4q-23 0 -64.5 -50t-72.5 -111 q-14 -35 -18 4q0 53 22 92q39 63 110.5 139t108.5 76z" />
<glyph unicode="z" horiz-adv-x="843" d="M391 842h2q37 0 137 -31q92 -27 117 -27h7q36 0 57 21q12 10 53 51q31 37 72 37q13 0 12 -9q0 -11 -21 -36l-102 -117q-205 -227 -455 -532q-23 -25 6 -29q33 -4 97 -27q170 -59 227 -59q68 0 118 66.5t66 160.5q6 33 21 13q14 -16 15 -50t-7 -53q-41 -109 -126 -185.5 t-169 -76.5q-31 0 -70.5 11.5t-105.5 37l-88 33.5q-41 16 -74 16q-57 0 -114 -65q-29 -29 -52 -29q-9 0 -9 9q0 3 1 8q10 39 76 108q356 393 496 565q16 23 -3 23q-31 0 -116 18q-127 23 -152 23q-59 0 -100 -22.5t-52.5 -41t-29.5 -53.5q-20 -49 -27 -127q0 -29 -20 -8 q-35 35 -35 74q2 41 40 100t91 106q108 97 217 97z" />
<glyph unicode="{" horiz-adv-x="765" d="M498 -406h-2q-129 0 -213 67t-64 214q14 115 80 318q49 150 -3 223t-155 82q-23 2 -8 16q6 8 25.5 21.5t27.5 13.5q131 12 169 91t26 214q-53 506 391 582q12 2 14 -1t-4 -12q-2 -10 -20.5 -28.5t-28.5 -22.5q-137 -41 -186 -139t-39 -250q12 -205 10 -225 q-16 -131 -182 -211q-20 -12 -6 -19q51 -31 79.5 -70.5t38 -78.5t2 -96.5t-18.5 -100.5t-36 -116q-74 -236 -39 -316q41 -90 203 -106q18 0 2 -17q-32 -33 -63 -33z" />
<glyph unicode="|" horiz-adv-x="573" d="M240 1671h112v-2228h-112v2228z" />
<glyph unicode="}" horiz-adv-x="776" d="M301 1436h2q127 0 210 -65.5t65 -211.5q-14 -115 -82 -313q-49 -143 5 -214t154 -79q20 -2 15 -16q-6 -6 -29 -20.5t-29 -16.5q-133 -18 -172 -99.5t-24 -218.5q55 -510 -391 -588q-12 -2 -14.5 2.5t3.5 10.5q4 12 20.5 30.5t28.5 20.5q268 78 224 389q-14 145 -8 229 q14 127 182 226q23 14 8 20q-51 31 -80 71t-39 77t-3 92t18.5 97t33.5 110q80 238 45 309q-37 82 -204 108q-18 2 -2 17q20 29 63 33z" />
<glyph unicode="~" horiz-adv-x="1107" d="M393 565h2q80 0 213 -96q96 -72 162 -72q94 0 199 121q18 23 63 43q20 8 21 2q2 -2 -2 -10q-39 -88 -142.5 -179t-199.5 -91q-68 0 -205 94q-98 72 -168 72q-106 0 -266 -166q-14 -18 -17 2q0 35 23 63q59 74 153 145.5t164 71.5z" />
<glyph unicode="&#xa1;" horiz-adv-x="475" d="M12 -459h-2q-12 -2 -15 4t7 27q51 92 116.5 386t90.5 466q2 14 16 10q29 -8 54 -59q2 -23 2 -89.5t-10.5 -192.5t-24.5 -236q-18 -147 -39 -199q-14 -35 -60 -59q-104 -56 -135 -58zM348 831q-6 -51 29 -100q8 -41 8 -55q-16 -18 -46 -36.5t-48 -21.5q-37 -6 -63.5 24 t-28.5 60q-10 6 -14.5 26t1.5 30q25 29 107 59q47 20 55 14z" />
<glyph unicode="&#xa2;" d="M866 874v-2q0 -29 -24.5 -63.5t-48.5 -46.5q-12 -4 -17.5 -3t-3.5 9q8 59 -19.5 101t-84.5 53q-20 6 -27 -21l-117 -602q-6 -27 21 -27q147 6 272 123q20 18 21 -2q-8 -33 -33 -61q-111 -115 -289 -148q-20 -2 -22 -28q-27 -106 -43 -142q-16 -41 -64 -86q-25 -29 -18 6 q20 55 55 218q6 25 -21 24q-121 8 -197.5 87t-76.5 220q0 229 174 369q119 98 264 137q20 6 27 29q2 16 7 46t9 51.5t6 37.5q2 14 70 72q10 10 14.5 7t1.5 -22q-12 -68 -36 -180q-2 -14 1 -18t17 -6q117 -6 158 -60q24 -29 24 -72zM272 545v-2q0 -209 156 -258q23 -6 29 20 q70 344 114 596q2 14 -1 21.5t-13 5.5q-84 -12 -151 -70q-63 -51 -98.5 -136t-35.5 -177z" />
<glyph unicode="&#xa3;" d="M702 1253h3q63 0 102 -29.5t35 -74.5q0 -47 -62 -102q-25 -20 -24 0q2 57 -42 92t-114 35q-43 0 -88 -33t-68 -80q-47 -94 -77 -391q-4 -29 22 -29q254 0 348 25q6 2 8.5 -1t-0.5 -8q-4 -25 -65 -53q-76 -33 -297 -39q-27 0 -33 -26q-35 -264 -176 -400q-8 -6 -5 -12 t13 -4q88 8 215 -12q145 -23 207 -23q152 0 266 254q10 16 19 14q20 -10 2 -75q-53 -160 -140 -246t-188 -84q-102 2 -244 45q-152 41 -198 41q-55 2 -154 -72q-25 -16 -24 0q6 41 32 62q127 106 156 166q53 98 70 350q0 23 -15 22q-131 0 -190 19q-16 8 -6 18q72 59 88 55 q43 -14 110 -14q8 0 16.5 7t8.5 16q10 88 17.5 139t32 121.5t63.5 115.5q92 113 200 162q98 49 176 49z" />
<glyph unicode="&#xa4;" d="M555 967h2q96 0 164 -54q12 -12 27 2l94 95q8 6 42 17t50 11q20 0 2 -18q-27 -29 -154 -182q47 -92 45 -199t-79 -213q-6 -8 -6.5 -20.5t3.5 -18.5q84 -115 142 -172q10 -14 0 -20q-27 -12 -81 8t-79 45q-2 2 -30 32l-42 46q-106 -82 -211 -82q-113 0 -176 63 q-27 -23 -83 -80t-68 -67q-18 -18 -19 10q0 51 19 78q23 29 92 106q10 10 0 33q-37 66 -33 180q2 119 88 228q-51 59 -78 96q-49 59 -43 84q0 23 35 69q12 27 23 5q18 -35 127 -162q8 -18 24 -6q111 86 203 86zM508 887h-2q-94 0 -155.5 -76t-65.5 -188q-4 -135 56 -216 t154.5 -81t153 64.5t64.5 197.5q6 131 -49.5 215t-155.5 84z" />
<glyph unicode="&#xa5;" d="M387 420l12 135h-80q-129 0 -159 10q-23 6 -8 17q76 55 86 53q2 0 10 -3t19.5 -4t46 -3t87.5 -2q-20 106 -89.5 274t-106.5 207q-23 27 -55 31q-55 4 -99 16q-12 4 0 12q51 43 70 43q74 -12 153 -8q88 0 203 12q14 2 6 -8q-20 -29 -34 -37q-27 -14 -72 -24 q-25 -6 -10 -33q90 -240 137 -403q8 -18 20 2q92 141 240 401q10 23 -6 25q-8 2 -48 8t-48 8q-12 4 -3 14q57 43 76 43q49 -10 137 -8q76 0 183 16q6 2 7 -1t-5 -11q-23 -35 -53 -45q-12 -4 -44 -12t-36 -10q-41 -10 -74 -45q-53 -57 -149.5 -205t-145.5 -240 q-12 -23 16 -22q139 0 250 14q10 2 12.5 -1t-4.5 -11q-27 -27 -57 -39q-63 -27 -182 -31h-43q-18 0 -23 -20l-12 -93q-4 -23 18 -22q139 0 261 16q12 0 4 -12q-18 -31 -70 -45q-68 -27 -203 -27q-20 0 -24 -24q-25 -199 -23 -234q4 -20 23 -20q135 -12 180 -31q12 -4 2 -14 q-63 -45 -72 -45q-100 14 -221 16q-109 0 -283 -20q-12 -2 -12 4q0 2 4 6q27 33 62 47l131 33q33 8 39 26q25 57 47 254h-90q-113 0 -193 12q-16 4 -6 15q16 16 47 37.5t41 19.5q72 -14 213 -14z" />
<glyph unicode="&#xa6;" horiz-adv-x="587" d="M246 1505h125v-780h-125v780zM246 -389v780h125v-780h-125z" />
<glyph unicode="&#xa7;" horiz-adv-x="862" d="M664 1167h2q82 0 112 -45q12 -18 8 -32q-10 -47 -63 -84q-14 -8 -16 2q-8 33 -39 56t-80 23q-66 0 -108 -46t-42 -117q0 -55 44 -110.5t153 -154.5q133 -117 133 -256q-2 -180 -135 -346q-14 -20 -21 -43q-12 -96 -72.5 -170.5t-148.5 -113.5q-70 -31 -133 -31 q-59 0 -99 21.5t-48 46.5q-18 37 -2 65q25 43 55 66q14 12 18 0q8 -49 54.5 -81t99.5 -32q82 0 123 52t41 126q0 102 -166 238q-94 76 -139 144.5t-45 158.5q0 182 163 360q12 8 27 45q39 109 113 170q109 88 211 88zM477 616q-106 94 -131 181q-6 16 -18 4 q-78 -102 -78 -211q0 -86 57.5 -162t184.5 -184q68 -57 98 -125q6 -8 13 -8t11 6q57 78 58 178q0 86 -49.5 159.5t-145.5 161.5z" />
<glyph unicode="&#xa8;" horiz-adv-x="821" d="M240 1143q6 8 48 33.5t56 29.5q20 8 23 -10q4 -35 39 -84q16 -18 -3 -39q-41 -41 -92 -65q-23 -12 -32 -4q-12 10 -33 43.5t-21 54.5q1 27 15 41zM571 1145q27 23 93 61q29 12 34 -4q6 -10 19.5 -38.5t21.5 -39.5q18 -23 -2 -47q-14 -18 -54 -48t-62 -30q-14 0 -40 36 t-28 65q0 29 18 45z" />
<glyph unicode="&#xa9;" horiz-adv-x="1392" d="M827 1237h2q225 0 366.5 -155.5t141.5 -399.5q0 -289 -216 -495.5t-488 -206.5q-227 0 -374.5 146t-147.5 396q0 303 216.5 509t499.5 206zM750 1165h-2q-233 0 -388 -174t-155 -411q0 -248 146.5 -388.5t340.5 -140.5q236 0 396.5 173t160.5 419q0 240 -133 381 t-366 141zM844 952h2q100 0 151 -39q35 -27 19 -55q-16 -33 -33 -94q-6 -25 -20 -25q-6 -2 -9 6q-10 74 -24 91q-47 59 -154 59q-92 0 -158 -51q-92 -78 -92 -228q0 -121 71 -191.5t181 -70.5q150 0 236 95q10 14 12 0q0 -16 -12 -35q-47 -66 -174 -111q-70 -25 -146 -24 q-137 0 -216 78.5t-79 207.5q0 172 168 295q130 92 277 92z" />
<glyph unicode="&#xaa;" horiz-adv-x="598" d="M422 1083h2q23 0 49 -22q10 -6 16 2q33 33 80 43q14 4 16.5 2t-5.5 -12q-18 -23 -35 -72q-45 -166 -45 -293q-2 -51 16.5 -51t45 23.5t42.5 48.5q14 16 14 0q0 -35 -12 -54q-29 -43 -89 -86t-91 -43q-12 0 -20.5 19.5t-8.5 44.5q0 47 13 131q2 10 -3.5 11t-11.5 -7 q-63 -86 -153 -152q-66 -49 -105 -49q-10 0 -20.5 10.5t-20.5 36t-12 62.5q-6 143 82 256q27 37 131 102q86 49 125 49zM393 1020h-2q-66 0 -115 -43q-35 -31 -60.5 -98.5t-22.5 -135.5q0 -70 32 -69q68 0 164 151q18 29 43 105q10 45 25 67q6 8 -11 15q-33 8 -53 8z" />
<glyph unicode="&#xab;" horiz-adv-x="985" d="M301 371q88 -88 123 -178q16 -47 12 -84q-2 -14 -17.5 -41t-27.5 -35q-12 -10 -14 0q-18 94 -101 192.5t-161 124.5q-16 6 -9 15q20 33 50 45q106 45 216.5 152.5t151.5 187.5q8 14 17 6q6 -6 8 -32t-4 -38q-55 -133 -242 -289q-16 -16 -2 -26zM657 373q39 -35 78 -99.5 t56 -115.5q14 -41 10 -70q-2 -14 -16.5 -39.5t-30.5 -36.5q-14 -14 -15 0q-16 104 -104 205.5t-170 136.5q-12 2 -4 15q16 23 45 41q266 141 383 368q12 16 16 4q18 -37 6 -65q-63 -162 -252 -316q-16 -14 -2 -28z" />
<glyph unicode="&#xac;" horiz-adv-x="1097" d="M733 514h-508q-121 0 -121 18q0 6 58 76q18 18 28 15q53 -14 293 -15q330 0 414 15q6 2 9 -2.5t1 -16.5q-12 -301 -12 -348q0 -84 14 -170q0 -6 -20 -6q-37 0 -60.5 22.5t-25.5 51.5q-10 143 -10 276q0 33 -3.5 48.5t-16.5 25.5t-40 10z" />
<glyph unicode="&#xad;" horiz-adv-x="684" d="M94 387q61 88 78 88q23 -2 94 2q205 12 346 49q8 2 8.5 -2t-6.5 -14q-47 -72 -125 -100q-70 -25 -185.5 -38.5t-170.5 -13.5q-49 0 -49 11q0 4 10 18z" />
<glyph unicode="&#xae;" horiz-adv-x="542" d="M389 1190h2q88 0 88 -64q0 -31 -51 -65q-10 -6 -8 -14q20 -59 69 -60q29 0 50.5 28.5t21.5 88.5q0 61 -46 111.5t-124 50.5q-88 0 -145 -47q-80 -72 -80 -172q0 -90 55 -139.5t131 -49.5q23 0 43.5 3t32.5 6t28.5 12.5t22.5 12.5t20.5 14.5t16.5 11.5q4 0 6 -3 q0 -18 -10 -28q-16 -23 -67.5 -47.5t-120.5 -24.5q-106 0 -162 57.5t-56 145.5q0 139 125 227q86 59 187 60q86 0 138 -49.5t52 -131.5q0 -84 -46 -128t-93 -44q-53 0 -102 68q-25 29 -25 6q-4 -33 -4 -49q0 -8 6 -8q20 0 39 -6q8 -2 4 -7q-20 -20 -27 -20q-20 4 -55 4 q-51 0 -72 -6q-8 0 -4 4q8 14 19 20q2 0 10 3.5t12 5.5q10 4 15 16q14 98 8 156l-4 6q-27 0 -60 -17q-2 0 -2 5q8 18 33 30q59 27 129 27zM367 1159h-2q-10 0 -13 -6l-6 -86q0 -10 12 -10q61 0 62 55q0 47 -53 47z" />
<glyph unicode="&#xaf;" horiz-adv-x="821" d="M248 1061q41 49 80 76q33 -8 102 -9q135 0 309 19q6 2 6 -4q0 -8 -8 -17q-55 -61 -108 -79q-80 -23 -318 -23q-72 0 -73 18q0 9 10 19z" />
<glyph unicode="&#xb0;" horiz-adv-x="548" d="M393 1313h2q86 0 131 -52.5t45 -138.5q0 -113 -65 -170q-102 -94 -197 -94q-59 0 -117.5 48t-58.5 145q0 100 78 168q37 35 90 64.5t92 29.5zM342 1235h-2q-55 0 -88 -41t-33 -100q0 -80 45 -123t105 -43q45 0 77.5 38t32.5 109q0 70 -33.5 115t-103.5 45z" />
<glyph unicode="&#xb1;" horiz-adv-x="1097" d="M571 1049h2q12 0 13 -74v-303q0 -23 14 -23q184 -6 379 2q27 0 8 -18q-12 -16 -43 -38t-47 -24q-129 -14 -266 -14q-23 0 -36 -11t-13 -22q0 -70 -7 -297q-2 -27 -30.5 -59.5t-46.5 -42.5q-4 -2 -7.5 1t-3.5 9v363q0 29 -14 44t-33 15h-53q-242 0 -276 10q-25 2 -13 21 q6 6 27.5 31.5l28.5 33.5q12 16 22 13q43 -18 299 -19q12 0 12 19q0 252 -6 340q4 8 40 25.5t50 17.5zM352 47q127 -4 629 0q16 0 8 -10q-12 -16 -48 -41t-46 -27q-143 -16 -512 -16q-252 0 -272 6q-25 6 -11 29l50 59q14 16 24 14q41 -10 178 -14z" />
<glyph unicode="&#xb2;" horiz-adv-x="657" d="M432 1460h2q82 0 122 -49t40 -117q0 -55 -22.5 -104t-48 -79t-72.5 -77q-61 -59 -164 -143q-4 -6 4 -10q53 -14 172 -15q102 0 180 107q6 6 10 8t6.5 0t2.5 -10q-4 -33 -21 -53q-100 -139 -246 -140q-49 0 -97 2t-88 6.5t-56 4.5q-39 0 -72 -11q-8 -2 -10 1t2 12 q35 45 57 59q135 74 237.5 178.5t102.5 222.5q0 61 -30.5 95t-80.5 34q-51 0 -94 -36.5t-53 -104.5q-4 -20 -4 -55q0 -8 -2 -11.5t-8 -0.5q-20 2 -38 26.5t-16 50.5q4 39 68 105q43 43 105.5 73.5t111.5 30.5z" />
<glyph unicode="&#xb3;" horiz-adv-x="657" d="M449 1462h2q70 0 107.5 -39t37.5 -96q0 -63 -59 -113q-20 -16 -70 -49q-14 -10 2 -14q141 -33 141 -141q0 -129 -176 -230q-104 -59 -207 -59q-104 0 -129 55q-8 18 6 41q27 31 46 66q4 6 9 10t10 2t5 -10q0 -43 16 -60q35 -35 109 -34q86 0 134 47t48 120 q0 117 -137 117q-47 0 -90 -16q-6 -4 -9 -1t1 11q4 14 21.5 30.5t31.5 20.5q61 23 90 37t57.5 46t28.5 77q0 41 -25.5 67.5t-72.5 26.5q-90 0 -189 -117q-8 -4 -10 3q-4 31 19 61q37 51 104.5 96t147.5 45z" />
<glyph unicode="&#xb4;" horiz-adv-x="821" d="M739 1329h2q27 -4 -20 -74q-35 -57 -110.5 -148t-110.5 -118q-14 -12 -51 -25.5t-52 -13.5q-12 0 -4 17q41 45 113 149.5t94 163.5q8 12 61 30.5t78 18.5z" />
<glyph unicode="&#xb5;" horiz-adv-x="991" d="M338 104h2q61 0 138 92.5t147 221.5q20 37 36.5 80t23.5 69.5t20.5 86t19.5 83.5q6 31 33 37q57 18 96 51q27 23 47 23q16 0 4 -21q-2 -6 -10 -12q-31 -27 -51 -100q-57 -180 -76 -436q-12 -168 33 -168q49 0 151 153q23 35 23 2q0 -49 -25 -88q-33 -63 -123 -141 t-147 -78q-23 0 -37 39t-12 90q2 53 22 231q4 18 -2 21.5t-16 -10.5q-158 -244 -291 -326q-63 -39 -92 -39q-23 0 -45 27q-12 14 -21 0q-23 -47 -36 -178q-27 -281 161 -281q27 0 6 -29q-20 -23 -63 -44t-64 -21q-66 0 -96.5 49t-28 127t8.5 174q8 88 61 430t80 467 q10 59 39 78q119 82 152 82q31 0 6 -25q-27 -27 -50 -88q-29 -70 -56 -225.5t-32 -259.5q-4 -72 15.5 -108t48.5 -36z" />
<glyph unicode="&#xb6;" horiz-adv-x="1206" d="M459 -297h2q88 0 150.5 41t101.5 126t60.5 178t39.5 231q2 18 -2 22t-16 -4q-68 -45 -138.5 -67.5t-105.5 -22.5q-166 0 -269.5 104.5t-103.5 300.5q0 195 123 320t281 125q18 0 144 5t146 5q10 0 33 25q66 78 80 77q16 0 10 -75q-2 -25 17 -25q137 0 207 29q14 6 14 -2 t-8 -19q-68 -82 -207 -88q-31 0 -35 -39q-6 -47 -20 -175l-28 -237q-13 -110 -24 -173q-18 -125 -38.5 -220.5t-60.5 -206t-92 -181t-136 -119t-189 -48.5q-74 0 -135 32t-78 87q-16 51 -2 101q12 55 45 108q4 8 8.5 12t8.5 6.5t7 -3t3 -17.5q-4 -59 14 -102 q58 -111 193 -111zM846 983h-2q-80 0 -129 -14q-61 -18 -109.5 -112.5t-48.5 -219.5q0 -135 45 -211t133 -76q41 0 64 12q25 10 30 52q18 123 33 295t15 239q0 35 -31 35z" />
<glyph unicode="&#xb7;" horiz-adv-x="405" d="M285 541q-6 -35 4 -76t28 -66q10 -10 -6 -26q-23 -23 -65.5 -46.5t-61.5 -23.5q-45 0 -66.5 50t-17.5 96q4 23 17 30q14 10 65 37t80 35q10 4 17.5 1t5.5 -11z" />
<glyph unicode="&#xb8;" horiz-adv-x="806" d="M379 6h47q-57 -76 -59 -106q0 -29 65 -70q59 -41 60 -82q0 -49 -58 -106q-47 -45 -99 -72t-85 -27q-41 0 -66 45q-6 14 -4 18.5t14.5 2.5t38.5 -2q66 0 106 25.5t40 56.5q0 18 -15.5 32.5t-74.5 51.5q-41 25 -41 59q2 25 48 82t83 92z" />
<glyph unicode="&#xb9;" horiz-adv-x="657" d="M352 1128q23 160 17 181q0 18 -17 14q-57 -10 -159 -18q-18 0 -19 2q-2 2 2 6q6 8 28.5 22.5t31.5 16.5q160 35 266 118q8 8 14 4t2 -14q-25 -55 -51 -272q-35 -287 -31 -311q4 -20 25 -23q123 -14 135 -18q14 -4 6 -13q-53 -45 -74 -45q-86 10 -161 10q-125 0 -240 -16 q-12 -2 -13 0t5 10q16 25 45 35q37 14 108 31q20 2 29 22q26 70 51 258z" />
<glyph unicode="&#xba;" horiz-adv-x="550" d="M434 1090h2q47 0 81 -44.5t34 -121.5q0 -164 -100 -254q-41 -35 -109 -70t-109 -35q-59 0 -99 45t-40 121q0 113 66 207q43 68 129 100q16 6 30 17q47 35 115 35zM352 1022h-2q-41 0 -71 -31q-78 -66 -78 -215q0 -76 31.5 -108.5t72.5 -32.5q51 0 84 43q61 78 62 203 q0 68 -27 104.5t-72 36.5z" />
<glyph unicode="&#xbb;" horiz-adv-x="985" d="M328 420q-39 37 -78 101.5t-55 115.5q-12 33 -9 70q2 14 15.5 39.5t29.5 35.5q14 14 15 0q16 -104 104 -206.5t170 -135.5q10 -2 4 -16q-23 -29 -45 -39q-256 -137 -383 -369q-10 -20 -16 -4q-16 33 -6 66q63 160 252 313q16 17 2 29zM684 424q-88 88 -121 178 q-18 47 -14 86q2 12 17.5 39t27.5 35t14 0q18 -94 101.5 -192.5t160.5 -125.5q16 -4 9 -14q-20 -33 -50 -45q-104 -45 -215.5 -153.5t-152.5 -186.5q-8 -14 -17 -6q-6 6 -8 31.5t4 38.5q29 74 86.5 140t155.5 148q14 15 2 27z" />
<glyph unicode="&#xbc;" horiz-adv-x="1435" d="M346 924q23 160 16 180q-2 18 -18 14q-59 -10 -158 -18q-18 0 -20 4q0 2 2 6q6 6 29.5 20.5t31.5 16.5q160 35 267 119q8 8 14 4t2 -15q-25 -55 -51 -272q-35 -279 -31 -311q0 -20 25 -23q125 -14 135 -18q16 -2 6 -13q-53 -45 -74 -45q-86 10 -162 11q-139 0 -239 -19 q-12 -2 -14.5 1t6.5 12q16 25 45 34q27 12 106 31q23 2 31 23q28 88 51 258zM1192 1284q41 25 100 37q10 2 12.5 -1t-1.5 -11q-141 -223 -496.5 -687t-536.5 -645q-18 -16 -62 -37.5t-58 -21.5q-20 0 -7 12q211 217 552 664.5t497 689.5zM696 184q231 211 359 447 q14 23 123 90q25 12 20 -2q-4 -12 -27 -47q-53 -80 -151 -206t-176 -208q-16 -16 6 -22q61 -16 180 -21q23 0 23 21q16 129 10 163q-2 14 12 19q47 20 101 67q8 6 13 3t3 -13q-10 -90 -35 -248q-2 -10 3 -12t16 -2q74 -4 141 37q12 6 12 -2q0 -2 -2 -4q-8 -23 -27 -39 q-53 -49 -139 -55q-14 0 -18 -17q-2 -10 -9.5 -43t-9.5 -49q-12 -53 -26 -70q-33 -33 -86 -49q-8 -4 -12.5 -2t-2.5 10q27 68 41 197q2 20 -12 20q-45 0 -148.5 9.5t-111.5 9.5q-49 0 -70 -14q-12 -6 -13 6t13 26z" />
<glyph unicode="&#xbd;" horiz-adv-x="1435" d="M344 924q20 158 18 180q-2 18 -18 14q-57 -10 -160 -18q-16 0 -18 4q0 2 2 6q4 6 28.5 20.5t32.5 16.5q154 35 267 119q8 8 14 4t2 -15q-23 -47 -51 -272q-35 -279 -31 -311q0 -20 25 -23q127 -16 135 -18q16 -4 6 -13q-55 -45 -74 -45q-86 10 -162 11q-129 0 -239 -17 q-16 -4 -17 2q0 2 7 9q23 27 45 34q37 14 108 31q23 2 31 23q26 78 49 258zM1184 1284q39 25 98 37q10 2 13 -1t-3 -11q-137 -217 -493.5 -683t-536.5 -649q-16 -16 -61 -36.5t-60 -22.5q-20 0 -8 12q213 219 559.5 672t491.5 682zM1110 674h2q82 0 122 -50.5t40 -115.5 q0 -78 -36 -135.5t-108 -126.5q-84 -80 -163 -144q-6 -6 6 -10q72 -14 176 -14q84 0 174 106q18 20 18 4v-4q-4 -35 -20 -55q-100 -139 -246 -139q-49 0 -97 2t-88 6t-56 4q-39 0 -72 -10q-8 -2 -10 1t2 11q35 45 57 59q135 74 237.5 178.5t102.5 225.5q0 61 -30.5 95 t-80.5 34q-53 0 -95 -36t-52 -105q-4 -20 -4 -56q0 -14 -12 -14q-18 2 -36 29.5t-16 50.5q6 43 68 104q43 43 105.5 74t111.5 31z" />
<glyph unicode="&#xbe;" horiz-adv-x="1435" d="M477 1257h2q70 0 108 -38.5t38 -96.5q0 -61 -62 -112q-31 -25 -67 -49q-14 -10 2 -15q141 -33 141 -141q0 -129 -178 -230q-104 -59 -205 -59q-47 0 -84 15.5t-45 37.5q-8 20 6 43q18 18 47 68q2 6 7.5 8t10.5 -1t5 -11q0 -39 16 -55q35 -35 109 -35q86 0 134 47t48 121 q0 53 -36 83.5t-101 30.5q-31 0 -88 -14q-8 -4 -11.5 -2t0.5 12q4 14 21.5 30.5t32.5 20.5q61 23 89.5 37.5t57.5 46t29 76.5q0 41 -25.5 67.5t-72.5 26.5q-90 0 -189 -116q-8 -4 -10 2q-4 31 18 61q37 51 104.5 96t147.5 45zM1206 1284q37 25 99 37q10 2 13 -1t-3 -11 q-143 -223 -496.5 -687t-533.5 -645q-18 -16 -62.5 -37.5t-58.5 -21.5q-20 0 -8 12q211 217 552.5 664.5t497.5 689.5zM694 184q231 211 359 447q16 27 123 90q25 14 20 -2q-4 -14 -27 -45q-49 -78 -148 -204t-179 -212q-14 -16 6 -22q61 -16 180 -21q23 0 23 21 q18 129 10 163q-2 14 12 19q41 20 101 67q8 8 13 4t3 -14q-10 -94 -35 -248q-2 -10 3 -12t16 -2q74 -4 141 37q12 6 12 -2q0 -2 -2 -4q-10 -23 -27 -39q-53 -49 -139 -55q-14 0 -18 -17q-2 -10 -9.5 -43t-9.5 -49q-12 -53 -26 -70q-33 -33 -86 -49q-8 -4 -12.5 -2t-2.5 10 q27 68 41 197q2 20 -12 20q-45 0 -148.5 9.5t-111.5 9.5q-47 0 -72 -14q-12 -6 -12 6t14 26z" />
<glyph unicode="&#xbf;" horiz-adv-x="800" d="M225 -449h-2q-102 0 -151 55.5t-49 141.5q0 45 12 87t47 89l50 67q15 19 72 76l62 62q133 141 133 236q0 49 -12 65q-12 25 8 25q41 2 78 -27t37 -68q0 -18 -9 -39.5t-29.5 -50t-39.5 -51.5l-52 -62l-56 -69q-137 -170 -138 -287q0 -74 40 -116.5t108 -42.5 q80 0 142.5 62.5t68.5 152.5q2 31 -2 71q-2 18 12 19q31 0 60.5 -31t27.5 -68q-4 -37 -45 -90t-106 -98q-140 -109 -267 -109zM557 829q-12 -76 35 -137q8 -12 -8 -26q-20 -23 -62.5 -45.5t-60.5 -22.5q-45 0 -66.5 49t-15.5 92q4 23 14 29q14 10 64.5 35.5t79.5 34.5 q10 4 16 1.5t4 -10.5z" />
<glyph unicode="&#xc0;" horiz-adv-x="1417" d="M903 1313h2q10 0 2 -19q-14 -29 -14 -114q4 -82 33 -226q102 -504 207 -761q25 -63 45 -88t49 -27q104 -6 145 -21q20 -6 2 -16q-80 -47 -92 -47q-53 4 -78 4q-27 2 -84 2q-147 0 -243 -20q-16 -4 -18.5 -1t13.5 19q39 33 54 41q10 4 28 10l25 8q27 8 20 41 q-10 41 -94 338q-6 25 -24 17q-109 -41 -373 -23q-23 0 -39 -29q-123 -217 -166 -278q-20 -37 14 -41q86 -8 146 -23q18 -6 6 -18q-68 -51 -86 -51l-59 6q-53 4 -101 4q-145 0 -243 -20q-12 -2 -13.5 2t6.5 14q23 27 62 43q45 23 98 35q33 8 64 39q59 55 196 309q12 25 2 39 q-12 14 4 31l28 22q17 14 19 16q20 23 31 37q158 283 248 492q43 111 45 119q6 27 21 43q14 18 58 55t54 37zM735 510h2q86 0 119 8q31 6 25 31q-70 319 -88 426q-4 12 -12.5 12t-14.5 -14q-94 -207 -213 -422q-8 -20 12 -27q43 -14 170 -14zM645 1624q12 6 19 -8 q23 -33 108.5 -98.5t208.5 -120.5q4 -2 5 -5t-1 -6.5t-8 -5.5q-23 -12 -74 -12q-43 0 -178 54.5t-203 107.5q-37 27 -12 41q39 18 135 53z" />
<glyph unicode="&#xc1;" horiz-adv-x="1417" d="M903 1313h2q10 0 2 -19q-14 -29 -14 -114q4 -82 33 -226q102 -504 207 -761q25 -63 45 -88t49 -27q104 -6 145 -21q20 -6 2 -16q-80 -47 -92 -47q-53 4 -78 4q-27 2 -84 2q-147 0 -243 -20q-16 -4 -18.5 -1t13.5 19q39 33 54 41q10 4 28 10l25 8q27 8 20 41 q-10 41 -94 338q-6 25 -24 17q-109 -41 -373 -23q-23 0 -39 -29q-123 -217 -166 -278q-20 -37 14 -41q86 -8 146 -23q18 -6 6 -18q-68 -51 -86 -51l-59 6q-53 4 -101 4q-145 0 -243 -20q-12 -2 -13.5 2t6.5 14q23 27 62 43q45 23 98 35q33 8 64 39q59 55 196 309q12 25 2 39 q-12 14 4 31l28 22q17 14 19 16q20 23 31 37q158 283 248 492q43 111 45 119q6 27 21 43q14 18 58 55t54 37zM735 510h2q86 0 119 8q31 6 25 31q-70 319 -88 426q-4 12 -12.5 12t-14.5 -14q-94 -207 -213 -422q-8 -20 12 -27q43 -14 170 -14zM1247 1620h2q55 0 -32 -66 q-160 -115 -357 -178q-57 -16 -102 -10q-37 2 -6 18q53 27 149 88.5t143 106.5q6 8 21 12q129 29 182 29z" />
<glyph unicode="&#xc2;" horiz-adv-x="1417" d="M903 1313h2q10 0 2 -19q-14 -29 -14 -114q4 -82 33 -226q102 -504 207 -761q25 -63 45 -88t49 -27q104 -6 145 -21q20 -6 2 -16q-80 -47 -92 -47q-53 4 -78 4q-27 2 -84 2q-147 0 -243 -20q-16 -4 -18.5 -1t13.5 19q39 33 54 41q10 4 28 10l25 8q27 8 20 41 q-10 41 -94 338q-6 25 -24 17q-109 -41 -373 -23q-23 0 -39 -29q-123 -217 -166 -278q-20 -37 14 -41q86 -8 146 -23q18 -6 6 -18q-68 -51 -86 -51l-59 6q-53 4 -101 4q-145 0 -243 -20q-12 -2 -13.5 2t6.5 14q23 27 62 43q45 23 98 35q33 8 64 39q59 55 196 309q12 25 2 39 q-12 14 4 31l28 22q17 14 19 16q20 23 31 37q158 283 248 492q43 111 45 119q6 27 21 43q14 18 58 55t54 37zM735 510h2q86 0 119 8q31 6 25 31q-70 319 -88 426q-4 12 -12.5 12t-14.5 -14q-94 -207 -213 -422q-8 -20 12 -27q43 -14 170 -14zM864 1450q-82 -53 -168 -92 q-41 -16 -71 -17q-18 0 -52 15q-14 4 5 14q168 80 272 184q8 8 43 34t41 26t10 -8q41 -102 232 -224q8 -6 -7 -18q-35 -29 -77 -29q-12 0 -41 15q-25 10 -46.5 22t-33.5 22l-37 26l-39 28q-19 12 -31 2z" />
<glyph unicode="&#xc3;" horiz-adv-x="1417" d="M903 1313h2q10 0 2 -19q-14 -29 -14 -114q4 -82 33 -226q102 -504 207 -761q25 -63 45 -88t49 -27q104 -6 145 -21q20 -6 2 -16q-80 -47 -92 -47q-53 4 -78 4q-27 2 -84 2q-147 0 -243 -20q-16 -4 -18.5 -1t13.5 19q39 33 54 41q10 4 28 10l25 8q27 8 20 41 q-10 41 -94 338q-6 25 -24 17q-109 -41 -373 -23q-23 0 -39 -29q-123 -217 -166 -278q-20 -37 14 -41q86 -8 146 -23q18 -6 6 -18q-68 -51 -86 -51l-59 6q-53 4 -101 4q-145 0 -243 -20q-12 -2 -13.5 2t6.5 14q23 27 62 43q45 23 98 35q33 8 64 39q59 55 196 309q12 25 2 39 q-12 14 4 31l28 22q17 14 19 16q20 23 31 37q158 283 248 492q43 111 45 119q6 27 21 43q14 18 58 55t54 37zM735 510h2q86 0 119 8q31 6 25 31q-70 319 -88 426q-4 12 -12.5 12t-14.5 -14q-94 -207 -213 -422q-8 -20 12 -27q43 -14 170 -14zM1012 1475h2q41 0 100 55 q27 27 66 35q12 2 14 1t0 -10q-31 -57 -105.5 -121.5t-130.5 -64.5q-37 0 -118 49q-51 33 -78 33q-51 0 -148 -92q-8 -10 -12 2q0 35 25 65q25 35 88 80t100 45q43 0 121 -47q49 -30 76 -30z" />
<glyph unicode="&#xc4;" horiz-adv-x="1417" d="M903 1313h2q10 0 2 -19q-14 -29 -14 -114q4 -82 33 -226q102 -504 207 -761q25 -63 45 -88t49 -27q104 -6 145 -21q20 -6 2 -16q-80 -47 -92 -47q-53 4 -78 4q-27 2 -84 2q-147 0 -243 -20q-16 -4 -18.5 -1t13.5 19q39 33 54 41q10 4 28 10l25 8q27 8 20 41 q-10 41 -94 338q-6 25 -24 17q-109 -41 -373 -23q-23 0 -39 -29q-123 -217 -166 -278q-20 -37 14 -41q86 -8 146 -23q18 -6 6 -18q-68 -51 -86 -51l-59 6q-53 4 -101 4q-145 0 -243 -20q-12 -2 -13.5 2t6.5 14q23 27 62 43q45 23 98 35q33 8 64 39q59 55 196 309q12 25 2 39 q-12 14 4 31l28 22q17 14 19 16q20 23 31 37q158 283 248 492q43 111 45 119q6 27 21 43q14 18 58 55t54 37zM735 510h2q86 0 119 8q31 6 25 31q-70 319 -88 426q-4 12 -12.5 12t-14.5 -14q-94 -207 -213 -422q-8 -20 12 -27q43 -14 170 -14zM594 1477q10 10 49 36.5 t55 32.5q23 8 27 -10q4 -47 43 -92q18 -20 -2 -41q-35 -39 -100 -72q-20 -10 -33 -2q-14 10 -37 45t-21 58q5 31 19 45zM991 1477q8 8 49 35.5t56 33.5q25 8 28 -10q4 -49 41 -92q18 -20 -2 -41q-35 -39 -100 -72q-18 -10 -35 -2q-12 10 -34.5 47t-20.5 56q4 31 18 45z" />
<glyph unicode="&#xc5;" horiz-adv-x="1417" d="M903 1313h2q10 0 2 -19q-14 -29 -14 -114q4 -82 33 -226q102 -504 207 -761q25 -63 45 -88t49 -27q104 -6 145 -21q20 -6 2 -16q-80 -47 -92 -47q-53 4 -78 4q-27 2 -84 2q-147 0 -243 -20q-16 -4 -18.5 -1t13.5 19q39 33 54 41q10 4 28 10l25 8q27 8 20 41 q-10 41 -94 338q-6 25 -24 17q-109 -41 -373 -23q-23 0 -39 -29q-123 -217 -166 -278q-20 -37 14 -41q86 -8 146 -23q18 -6 6 -18q-68 -51 -86 -51l-59 6q-53 4 -101 4q-145 0 -243 -20q-12 -2 -13.5 2t6.5 14q23 27 62 43q45 23 98 35q33 8 64 39q59 55 196 309q12 25 2 39 q-12 14 4 31l28 22q17 14 19 16q20 23 31 37q158 283 248 492q43 111 45 119q6 27 21 43q14 18 58 55t54 37zM735 510h2q86 0 119 8q31 6 25 31q-70 319 -88 426q-4 12 -12.5 12t-14.5 -14q-94 -207 -213 -422q-8 -20 12 -27q43 -14 170 -14zM948 1688h2q61 0 90 -43 t21 -109q-10 -78 -84 -139q-74 -57 -139 -58q-45 0 -84 36t-29 112q8 70 66 119q91 82 157 82zM899 1616h-2q-39 0 -64.5 -24.5t-31.5 -71.5q-6 -51 21.5 -80t64.5 -29q80 0 90 88q6 49 -13.5 83t-64.5 34z" />
<glyph unicode="&#xc6;" horiz-adv-x="1837" d="M1468 1253h2q231 0 306 54q10 6 13 2t-1 -15q-53 -109 -74 -305q0 -20 -14 -10q-8 4 -20.5 27.5t-14.5 37.5q-6 23 -10 73t-4 54q0 16 -4.5 22.5t-14.5 4.5q-96 -18 -342 -18q-18 0 -24 -10.5t-11 -34.5q-31 -238 -61 -510q-2 -27 16 -31q35 -2 242 2q139 4 236 41 q14 4 17 -1t-5 -20q-29 -39 -94.5 -69.5t-104.5 -34.5q-39 -2 -156.5 -1t-150.5 1q-16 0 -23 -35q-4 -33 -14 -124t-18 -144q-8 -63 0 -91t41 -36q154 -25 286 -12q111 10 175.5 66.5t125.5 162.5q12 20 19 8q10 -25 0 -57q-29 -100 -117 -189q-72 -78 -153.5 -77.5 t-249.5 8.5t-256 8q-156 0 -260 -14q-10 -2 -5 8q2 4 7 8q25 31 67 47q12 4 113 25q35 6 45 41q31 111 63 383q0 14 -18 14q-92 0 -215 3t-137 3q-41 0 -68 -35l-278 -374q-16 -23 4 -27q113 -10 151 -27q8 -6 -2 -16q-8 -10 -42 -31.5t-44 -19.5q-86 12 -164 12 q-98 0 -245 -18q-8 0 -5 8q10 18 52 45q14 10 92 33q53 12 120.5 81.5t290.5 368.5q18 29 19 66q2 14 3 19t7 10t21 10q37 12 57 41q70 98 242 380q20 37 35.5 58.5t33.5 42.5l19 20q16 18 -17 19q-190 4 -305 26q-18 6 2 19q84 51 109 47q218 -23 710 -23zM1036 594h2 q16 0 15 22l23 186l25 195q9 76 11 99q4 82 -10 82q-39 0 -94 -84l-277 -430q-29 -47 12 -56q76 -14 293 -14z" />
<glyph unicode="&#xc7;" horiz-adv-x="1224" d="M924 1303h2q156 0 239 -66q31 -20 39 -50t-8 -54q-23 -35 -61 -138q-12 -33 -37 -47q-8 -6 -12.5 -2t-0.5 17q16 127 -6 165q-66 94 -252 95q-90 0 -188 -39t-160 -94q-219 -188 -219 -555q0 -225 119 -354.5t323 -129.5q262 0 469 211q8 8 13.5 11t7.5 -2t0 -17 q-4 -39 -43 -78q-80 -78 -187.5 -135t-224.5 -74q-41 -10 -67.5 -40.5t-26.5 -51.5q0 -29 59 -68q61 -41 62 -83q0 -47 -57 -105q-109 -98 -187 -98q-41 0 -65 45q-8 14 -5 18t13 2q14 -2 41 -2q63 0 104 27t41 55q0 18 -15.5 32.5t-74.5 51.5q-39 25 -39 64q0 18 38 61 t85 78q-256 -20 -399.5 118t-145.5 398q-2 408 326 653q106 80 247.5 130.5t252.5 50.5z" />
<glyph unicode="&#xc8;" horiz-adv-x="1087" d="M711 1251h2q123 0 169 8.5t56 30.5q4 8 37 24.5t55 20.5q12 4 12 -2q2 -2 -2 -12q-66 -141 -82 -332q-2 -25 -16 -10q-20 20 -31 70q-8 66 -8 122q0 14 -5 19.5t-15 3.5q-90 -20 -359 -20q-29 0 -33 -43.5t-42 -401.5q-4 -25 20 -35q43 -20 219 -20q70 0 105 14 q20 4 30 31q14 29 25 37q23 20 67 35q23 6 23 0q0 -4 -8 -17q-66 -123 -80 -332q0 -16 -4 -22t-10.5 -2t-16.5 18q-29 41 -24 146q2 16 -4.5 22t-18.5 2q-68 -18 -321 -18q-20 0 -29 -39q-33 -258 -62 -430q-4 -18 1.5 -26.5t25.5 -10.5q115 -10 334 -10q102 0 164 49 q66 47 133 203q10 29 20 2q4 -10 3 -34t-7 -40q-10 -43 -44 -101.5t-62 -87.5q-70 -76 -162 -75q-37 0 -81 1t-99.5 3t-87.5 2q-137 6 -275 6q-156 0 -237 -12q-12 -2 -15.5 2t6.5 12q27 27 66 41q41 18 125 33q23 2 37 22q35 53 82 443q68 535 45 612q-4 27 -31 31 q-117 12 -168 22q-39 8 -16 21q2 0 4 2q102 47 112 45q126 -27 478 -23zM473 1614q12 6 19 -8q23 -33 108.5 -98.5t208.5 -121.5q4 -2 5 -5t-1 -6t-8 -5q-23 -12 -74 -12q-43 0 -178 54t-203 108q-37 27 -12 41q39 18 135 53z" />
<glyph unicode="&#xc9;" horiz-adv-x="1087" d="M711 1251h2q123 0 169 8.5t56 30.5q4 8 37 24.5t55 20.5q12 4 12 -2q2 -2 -2 -12q-66 -141 -82 -332q-2 -25 -16 -10q-20 20 -31 70q-8 66 -8 122q0 14 -5 19.5t-15 3.5q-90 -20 -359 -20q-29 0 -33 -43.5t-42 -401.5q-4 -25 20 -35q43 -20 219 -20q70 0 105 14 q20 4 30 31q14 29 25 37q23 20 67 35q23 6 23 0q0 -4 -8 -17q-66 -123 -80 -332q0 -16 -4 -22t-10.5 -2t-16.5 18q-29 41 -24 146q2 16 -4.5 22t-18.5 2q-68 -18 -321 -18q-20 0 -29 -39q-33 -258 -62 -430q-4 -18 1.5 -26.5t25.5 -10.5q115 -10 334 -10q102 0 164 49 q66 47 133 203q10 29 20 2q4 -10 3 -34t-7 -40q-10 -43 -44 -101.5t-62 -87.5q-70 -76 -162 -75q-37 0 -81 1t-99.5 3t-87.5 2q-137 6 -275 6q-156 0 -237 -12q-12 -2 -15.5 2t6.5 12q27 27 66 41q41 18 125 33q23 2 37 22q35 53 82 443q68 535 45 612q-4 27 -31 31 q-117 12 -168 22q-39 8 -16 21q2 0 4 2q102 47 112 45q126 -27 478 -23zM1057 1624h2q55 0 -33 -65q-160 -115 -356 -179q-57 -16 -103 -10q-37 2 -6 19q53 27 149.5 88t143.5 106q6 8 20 12q130 29 183 29z" />
<glyph unicode="&#xca;" horiz-adv-x="1087" d="M711 1251h2q123 0 169 8.5t56 30.5q4 8 37 24.5t55 20.5q12 4 12 -2q2 -2 -2 -12q-66 -141 -82 -332q-2 -25 -16 -10q-20 20 -31 70q-8 66 -8 122q0 14 -5 19.5t-15 3.5q-90 -20 -359 -20q-29 0 -33 -43.5t-42 -401.5q-4 -25 20 -35q43 -20 219 -20q70 0 105 14 q20 4 30 31q14 29 25 37q23 20 67 35q23 6 23 0q0 -4 -8 -17q-66 -123 -80 -332q0 -16 -4 -22t-10.5 -2t-16.5 18q-29 41 -24 146q2 16 -4.5 22t-18.5 2q-68 -18 -321 -18q-20 0 -29 -39q-33 -258 -62 -430q-4 -18 1.5 -26.5t25.5 -10.5q115 -10 334 -10q102 0 164 49 q66 47 133 203q10 29 20 2q4 -10 3 -34t-7 -40q-10 -43 -44 -101.5t-62 -87.5q-70 -76 -162 -75q-37 0 -81 1t-99.5 3t-87.5 2q-137 6 -275 6q-156 0 -237 -12q-12 -2 -15.5 2t6.5 12q27 27 66 41q41 18 125 33q23 2 37 22q35 53 82 443q68 535 45 612q-4 27 -31 31 q-117 12 -168 22q-39 8 -16 21q2 0 4 2q102 47 112 45q126 -27 478 -23zM627 1483q-82 -53 -168 -92q-41 -16 -72 -17q-18 0 -51 15q-14 4 4 14q168 80 272 184q8 8 43 34t41 26t11 -9q41 -102 231 -223q8 -6 -6 -18q-35 -29 -78 -29q-12 0 -41 14q-25 10 -46.5 22.5 t-33.5 21.5l-37 27l-39 28q-18 12 -30 2z" />
<glyph unicode="&#xcb;" horiz-adv-x="1087" d="M711 1251h2q123 0 169 8.5t56 30.5q4 8 37 24.5t55 20.5q12 4 12 -2q2 -2 -2 -12q-66 -141 -82 -332q-2 -25 -16 -10q-20 20 -31 70q-8 66 -8 122q0 14 -5 19.5t-15 3.5q-90 -20 -359 -20q-29 0 -33 -43.5t-42 -401.5q-4 -25 20 -35q43 -20 219 -20q70 0 105 14 q20 4 30 31q14 29 25 37q23 20 67 35q23 6 23 0q0 -4 -8 -17q-66 -123 -80 -332q0 -16 -4 -22t-10.5 -2t-16.5 18q-29 41 -24 146q2 16 -4.5 22t-18.5 2q-68 -18 -321 -18q-20 0 -29 -39q-33 -258 -62 -430q-4 -18 1.5 -26.5t25.5 -10.5q115 -10 334 -10q102 0 164 49 q66 47 133 203q10 29 20 2q4 -10 3 -34t-7 -40q-10 -43 -44 -101.5t-62 -87.5q-70 -76 -162 -75q-37 0 -81 1t-99.5 3t-87.5 2q-137 6 -275 6q-156 0 -237 -12q-12 -2 -15.5 2t6.5 12q27 27 66 41q41 18 125 33q23 2 37 22q35 53 82 443q68 535 45 612q-4 27 -31 31 q-117 12 -168 22q-39 8 -16 21q2 0 4 2q102 47 112 45q126 -27 478 -23zM381 1511q10 10 49 37t55 33q23 8 27 -10q4 -47 43 -92q18 -20 -2 -41q-35 -39 -100 -72q-20 -10 -33 -2q-14 10 -37 45t-21 57q5 31 19 45zM778 1511q8 8 49 36t56 34q25 8 28 -10q4 -49 41 -92 q18 -20 -2 -41q-35 -39 -100 -72q-18 -10 -35 -2q-12 10 -34.5 47t-20.5 55q4 31 18 45z" />
<glyph unicode="&#xcc;" horiz-adv-x="681" d="M285 561q59 459 57 574q-2 37 -43 39q-90 8 -158 22q-12 2 -14 5t10 13q84 57 107 54q47 -6 71 -8q49 -6 113 -7q139 0 283 23q8 2 8 -3t-4 -11q-31 -37 -64 -52q-37 -16 -104 -30q-39 -8 -47 -43q-20 -96 -43 -316q-51 -391 -62 -516q-18 -170 -26 -192q-10 -23 18 -27 q129 -10 197 -27q16 -6 2 -16q-76 -57 -92 -53q-135 12 -195 10q-170 0 -301 -23q-20 -4 -18 5q0 2 2 6q43 43 67 53q57 20 109 29q35 8 55 55q33 90 72 436zM264 1597q12 6 19 -8q23 -33 108.5 -98.5t208.5 -120.5q4 -2 5 -5t-1 -6t-8 -5q-23 -12 -74 -13q-43 0 -178 54.5 t-203 107.5q-37 27 -12 41q39 18 135 53z" />
<glyph unicode="&#xcd;" horiz-adv-x="681" d="M285 561q59 459 57 574q-2 37 -43 39q-90 8 -158 22q-12 2 -14 5t10 13q84 57 107 54q47 -6 71 -8q49 -6 113 -7q139 0 283 23q8 2 8 -3t-4 -11q-31 -37 -64 -52q-37 -16 -104 -30q-39 -8 -47 -43q-20 -96 -43 -316q-51 -391 -62 -516q-18 -170 -26 -192q-10 -23 18 -27 q129 -10 197 -27q16 -6 2 -16q-76 -57 -92 -53q-135 12 -195 10q-170 0 -301 -23q-20 -4 -18 5q0 2 2 6q43 43 67 53q57 20 109 29q35 8 55 55q33 90 72 436zM856 1595h2q55 0 -33 -65q-160 -115 -356 -178q-57 -16 -102 -11q-37 2 -7 19q53 27 149.5 88t143.5 106 q6 8 21 13q129 28 182 28z" />
<glyph unicode="&#xce;" horiz-adv-x="681" d="M285 561q59 459 57 574q-2 37 -43 39q-90 8 -158 22q-12 2 -14 5t10 13q84 57 107 54q47 -6 71 -8q49 -6 113 -7q139 0 283 23q8 2 8 -3t-4 -11q-31 -37 -64 -52q-37 -16 -104 -30q-39 -8 -47 -43q-20 -96 -43 -316q-51 -391 -62 -516q-18 -170 -26 -192q-10 -23 18 -27 q129 -10 197 -27q16 -6 2 -16q-76 -57 -92 -53q-135 12 -195 10q-170 0 -301 -23q-20 -4 -18 5q0 2 2 6q43 43 67 53q57 20 109 29q35 8 55 55q33 90 72 436zM455 1468q-82 -53 -168 -92q-41 -16 -72 -16q-18 0 -51 14q-14 4 4 15q168 80 272 184q8 8 43 33.5t41 25.5t11 -8 q41 -102 231 -223q8 -6 -6 -19q-35 -29 -78 -28q-12 0 -41 14q-25 10 -46.5 22.5t-33.5 21.5l-37 27l-39 27q-18 12 -30 2z" />
<glyph unicode="&#xcf;" horiz-adv-x="681" d="M285 561q59 459 57 574q-2 37 -43 39q-90 8 -158 22q-12 2 -14 5t10 13q84 57 107 54q47 -6 71 -8q49 -6 113 -7q139 0 283 23q8 2 8 -3t-4 -11q-31 -37 -64 -52q-37 -16 -104 -30q-39 -8 -47 -43q-20 -96 -43 -316q-51 -391 -62 -516q-18 -170 -26 -192q-10 -23 18 -27 q129 -10 197 -27q16 -6 2 -16q-76 -57 -92 -53q-135 12 -195 10q-170 0 -301 -23q-20 -4 -18 5q0 2 2 6q43 43 67 53q57 20 109 29q35 8 55 55q33 90 72 436zM195 1520q10 10 49 36.5t55 32.5q23 8 27 -10q4 -47 43 -92q18 -20 -2 -41q-35 -39 -101 -72q-20 -10 -33 -2 q-14 10 -36.5 45t-20.5 58q5 31 19 45zM592 1520q8 8 49 35.5t55 33.5q25 8 29 -10q4 -49 41 -92q18 -20 -2 -41q-35 -39 -100 -72q-20 -10 -35 -2q-12 10 -35 47t-21 56q5 31 19 45z" />
<glyph unicode="&#xd0;" horiz-adv-x="1382" d="M1329 741q-2 -406 -352 -618q-223 -133 -655 -139q-188 -4 -302 -4q-16 2 -17 4t11 12q20 20 78 49q18 6 94 14q20 0 37 31q25 53 62 334l22 188q-152 0 -215 15q-23 8 -6 20q80 59 112.5 53t116.5 -8q8 76 19.5 203t13.5 145q6 66 35 125q8 12 4 15.5t-20 3.5 q-41 -2 -147.5 -25.5t-149.5 -38.5q-12 -6 -14.5 -2t5.5 15q47 45 93 63q98 39 264 66.5t305 27.5q326 0 481 -166q125 -127 125 -383zM1176 682v2q0 264 -136 393q-137 133 -387 133q-53 0 -110 -8q-31 -6 -33 -41q-27 -201 -51 -452q0 -18 14 -19q242 0 379 19q12 0 4 -9 q-16 -23 -53 -41q-78 -45 -283 -47h-53q-18 0 -21 -20q-20 -176 -36 -289q-25 -168 -58 -215q-16 -23 19 -22q399 -12 565 98q106 72 173 204t67 314z" />
<glyph unicode="&#xd1;" horiz-adv-x="1466" d="M393 1274h2q35 0 72 -57q78 -121 328 -483l307 -445q6 -8 13 -12.5t12.5 -1t5.5 11.5l77 653q25 174 39 203q8 16 3 21t-27 10q-125 10 -162 18q-25 4 -6 14q78 57 98 58l62 -7q53 -4 96 -4q147 0 262 29q8 2 9 -1t-3 -11q-18 -35 -68 -56q-37 -18 -112 -34 q-31 -6 -49 -31q-43 -59 -97.5 -436t-50.5 -570q2 -106 -69 -190q-23 -39 -29 -10q-37 102 -107 217q-147 246 -548 827q-31 43 -39 -14q-18 -174 -76 -576q-25 -209 -31 -247q-6 -55 35 -64q139 -16 154 -20q20 -8 4 -23q-76 -55 -90 -53q-123 12 -187 10q-160 0 -258 -23 q-14 -2 -16 1.5t6 13.5q37 37 57 47q39 18 115 35q43 8 68 59q27 59 67.5 280.5t63.5 440.5q27 252 8 287q-23 45 -74 45q-90 4 -190 2q-25 0 -5 16q70 49 99 51q8 0 103 8.5t128 10.5zM1001 1460h3q41 0 100 56q27 27 65 34q12 2 14.5 1t0.5 -9q-31 -57 -105.5 -121.5 t-130.5 -64.5q-37 0 -119 49q-51 33 -77 33q-51 0 -148 -92q-8 -10 -12 2q0 35 24 65q25 35 88.5 80t100.5 45q43 0 121 -47q48 -31 75 -31z" />
<glyph unicode="&#xd2;" horiz-adv-x="1370" d="M874 1303h3q199 0 320.5 -135.5t121.5 -376.5q0 -434 -291 -660q-227 -180 -465 -180q-207 0 -336 128t-129 392q0 231 97.5 406.5t263.5 281.5q206 144 415 144zM772 1214h-2q-156 0 -281 -100q-111 -86 -174 -237.5t-63 -327.5q0 -246 115.5 -375t294.5 -129 q246 0 374.5 194.5t128.5 473.5q0 229 -104.5 365t-288.5 136zM649 1649q12 6 19 -9q23 -33 108.5 -98t208.5 -121q4 -2 5 -5t-1 -6t-8 -5q-23 -12 -74 -12q-43 0 -178 54t-203 107q-37 27 -12 41q39 19 135 54z" />
<glyph unicode="&#xd3;" horiz-adv-x="1370" d="M874 1303h3q199 0 320.5 -135.5t121.5 -376.5q0 -434 -291 -660q-227 -180 -465 -180q-207 0 -336 128t-129 392q0 231 97.5 406.5t263.5 281.5q206 144 415 144zM772 1214h-2q-156 0 -281 -100q-111 -86 -174 -237.5t-63 -327.5q0 -246 115.5 -375t294.5 -129 q246 0 374.5 194.5t128.5 473.5q0 229 -104.5 365t-288.5 136zM1198 1634h2q55 0 -33 -65q-160 -115 -356 -178q-57 -16 -102 -11q-37 4 -7 19q53 27 149.5 88t143.5 106q6 8 21 13q129 28 182 28z" />
<glyph unicode="&#xd4;" horiz-adv-x="1370" d="M874 1303h3q199 0 320.5 -135.5t121.5 -376.5q0 -434 -291 -660q-227 -180 -465 -180q-207 0 -336 128t-129 392q0 231 97.5 406.5t263.5 281.5q206 144 415 144zM772 1214h-2q-156 0 -281 -100q-111 -86 -174 -237.5t-63 -327.5q0 -246 115.5 -375t294.5 -129 q246 0 374.5 194.5t128.5 473.5q0 229 -104.5 365t-288.5 136zM819 1483q-82 -53 -168 -92q-41 -16 -71 -17q-18 0 -52 15q-14 4 4 14q168 80 273 184q8 8 43 34t41 26t10 -9q41 -102 231 -223q8 -6 -6 -18q-35 -29 -77 -29q-12 0 -41 14q-25 10 -46.5 22.5t-33.5 21.5 l-37 27l-39 28q-19 12 -31 2z" />
<glyph unicode="&#xd5;" horiz-adv-x="1370" d="M874 1303h3q199 0 320.5 -135.5t121.5 -376.5q0 -434 -291 -660q-227 -180 -465 -180q-207 0 -336 128t-129 392q0 231 97.5 406.5t263.5 281.5q206 144 415 144zM772 1214h-2q-156 0 -281 -100q-111 -86 -174 -237.5t-63 -327.5q0 -246 115.5 -375t294.5 -129 q246 0 374.5 194.5t128.5 473.5q0 229 -104.5 365t-288.5 136zM950 1497h2q41 0 101 55q27 27 65 35q12 2 14.5 1t0.5 -9q-31 -57 -106 -121.5t-130 -64.5q-37 0 -119 49q-51 33 -78 33q-51 0 -147 -93q-8 -10 -12 2q0 35 24 66q25 35 88.5 80t100.5 45q43 0 120 -47 q49 -31 76 -31z" />
<glyph unicode="&#xd6;" horiz-adv-x="1370" d="M874 1303h3q199 0 320.5 -135.5t121.5 -376.5q0 -434 -291 -660q-227 -180 -465 -180q-207 0 -336 128t-129 392q0 231 97.5 406.5t263.5 281.5q206 144 415 144zM772 1214h-2q-156 0 -281 -100q-111 -86 -174 -237.5t-63 -327.5q0 -246 115.5 -375t294.5 -129 q246 0 374.5 194.5t128.5 473.5q0 229 -104.5 365t-288.5 136zM561 1532q10 10 49 36.5t56 33.5q23 8 26 -11q4 -47 43 -92q18 -20 -2 -41q-35 -39 -100 -72q-20 -10 -33 -2q-14 10 -36.5 45t-20.5 58q4 31 18 45zM958 1532q8 8 49.5 35.5t55.5 34.5q25 8 29 -11 q4 -49 41 -92q18 -20 -3 -41q-35 -39 -100 -72q-18 -10 -35 -2q-12 10 -34.5 47t-20.5 56q4 31 18 45z" />
<glyph unicode="&#xd7;" horiz-adv-x="1097" d="M946 811q10 2 10 -6t-10 -25q-16 -33 -125.5 -158.5t-206.5 -224.5q-18 -16 -4 -39q49 -57 176 -188t166 -164q16 -14 4 -20q-16 -10 -55 -11q-49 0 -121 66q-139 123 -243 233q-20 23 -37 7q-78 -84 -164 -164t-109 -97q-45 -31 -108 -43q-14 0 -13.5 9.5t11.5 17.5 q29 25 162 159t163 175q14 18 0 33q-213 225 -256 301q-35 51 -24 86q12 31 43 61q10 10 16 -4q27 -51 125 -170t168 -184q6 -8 19.5 -11.5t15.5 1.5q182 184 282 329q13 17 115 31z" />
<glyph unicode="&#xd8;" horiz-adv-x="1376" d="M879 1303h2q123 0 223 -58l55 82q14 20 115 68q14 6 17 1t-7 -20q-39 -66 -117 -178q152 -135 152 -407q0 -428 -293 -660q-236 -180 -459 -180q-164 0 -276 78q-12 8 -25 -6l-45 -48q-31 -29 -78 -58.5t-69 -33.5q-18 -4 -19.5 5.5t8.5 17.5q51 49 150 164q12 12 0 28 q-115 135 -115 373q0 227 97.5 402.5t263.5 281.5q213 148 420 148zM776 1214h-2q-156 0 -287 -104q-104 -82 -171.5 -234.5t-67.5 -328.5q0 -207 84 -332q369 457 678 895q8 20 -4 29q-93 75 -230 75zM666 43h2q238 0 369.5 197.5t131.5 472.5q0 217 -79 331q-14 23 -27 3 q-324 -451 -684 -891q111 -113 287 -113z" />
<glyph unicode="&#xd9;" horiz-adv-x="1449" d="M254 543q10 92 37.5 307l34.5 272q6 45 -25 47q-68 6 -158 25q-29 6 -8 18q94 53 111 54q59 -8 71 -9q66 -4 109 -4q190 0 276 19q8 2 10.5 -2t-3.5 -10q-20 -31 -60 -50q-29 -14 -117 -30q-29 -4 -45 -41q-43 -119 -81 -531q-20 -174 -2 -288.5t85 -180.5 q86 -86 248 -86q166 0 254 86q74 68 119 214.5t80 422.5q33 229 33 352q-2 41 -41 46q-139 16 -154 20q-20 6 -4 16q82 57 96 56q6 0 28 -3l36 -6q57 -4 106 -4q139 0 248 25q12 4 15 -1t-5 -15q-29 -35 -63 -52q-33 -14 -103 -30q-29 -6 -41 -39t-28 -119 q-8 -49 -27.5 -183t-38 -238.5t-37.5 -176.5q-78 -283 -266 -395q-127 -76 -282 -76q-223 0 -326 125q-66 78 -84 181.5t2 283.5zM672 1608q12 6 18 -9q23 -33 109 -98t209 -121q4 -2 5 -5t-1 -6t-8 -5q-23 -12 -74 -12q-43 0 -178.5 54t-202.5 107q-37 27 -12 41 q39 19 135 54z" />
<glyph unicode="&#xda;" horiz-adv-x="1449" d="M254 543q10 92 37.5 307l34.5 272q6 45 -25 47q-68 6 -158 25q-29 6 -8 18q94 53 111 54q59 -8 71 -9q66 -4 109 -4q190 0 276 19q8 2 10.5 -2t-3.5 -10q-20 -31 -60 -50q-29 -14 -117 -30q-29 -4 -45 -41q-43 -119 -81 -531q-20 -174 -2 -288.5t85 -180.5 q86 -86 248 -86q166 0 254 86q74 68 119 214.5t80 422.5q33 229 33 352q-2 41 -41 46q-139 16 -154 20q-20 6 -4 16q82 57 96 56q6 0 28 -3l36 -6q57 -4 106 -4q139 0 248 25q12 4 15 -1t-5 -15q-29 -35 -63 -52q-33 -14 -103 -30q-29 -6 -41 -39t-28 -119 q-8 -49 -27.5 -183t-38 -238.5t-37.5 -176.5q-78 -283 -266 -395q-127 -76 -282 -76q-223 0 -326 125q-66 78 -84 181.5t2 283.5zM1241 1602h2q55 0 -33 -66q-160 -115 -356 -178q-57 -16 -102 -10q-37 4 -7 18q53 27 149.5 88.5t143.5 106.5q6 8 21 12q129 29 182 29z" />
<glyph unicode="&#xdb;" horiz-adv-x="1449" d="M254 543q10 92 37.5 307l34.5 272q6 45 -25 47q-68 6 -158 25q-29 6 -8 18q94 53 111 54q59 -8 71 -9q66 -4 109 -4q190 0 276 19q8 2 10.5 -2t-3.5 -10q-20 -31 -60 -50q-29 -14 -117 -30q-29 -4 -45 -41q-43 -119 -81 -531q-20 -174 -2 -288.5t85 -180.5 q86 -86 248 -86q166 0 254 86q74 68 119 214.5t80 422.5q33 229 33 352q-2 41 -41 46q-139 16 -154 20q-20 6 -4 16q82 57 96 56q6 0 28 -3l36 -6q57 -4 106 -4q139 0 248 25q12 4 15 -1t-5 -15q-29 -35 -63 -52q-33 -14 -103 -30q-29 -6 -41 -39t-28 -119 q-8 -49 -27.5 -183t-38 -238.5t-37.5 -176.5q-78 -283 -266 -395q-127 -76 -282 -76q-223 0 -326 125q-66 78 -84 181.5t2 283.5zM860 1473q-82 -53 -168 -93q-41 -16 -71 -16q-18 0 -52 14q-14 4 4 15q168 80 273 184q8 8 43 33.5t41 25.5t10 -8q41 -102 231 -223 q8 -6 -6 -19q-35 -29 -78 -28q-12 0 -40 14q-25 10 -46.5 22.5t-33.5 21.5l-37 27l-39 27q-19 13 -31 3z" />
<glyph unicode="&#xdc;" horiz-adv-x="1449" d="M254 543q10 92 37.5 307l34.5 272q6 45 -25 47q-68 6 -158 25q-29 6 -8 18q94 53 111 54q59 -8 71 -9q66 -4 109 -4q190 0 276 19q8 2 10.5 -2t-3.5 -10q-20 -31 -60 -50q-29 -14 -117 -30q-29 -4 -45 -41q-43 -119 -81 -531q-20 -174 -2 -288.5t85 -180.5 q86 -86 248 -86q166 0 254 86q74 68 119 214.5t80 422.5q33 229 33 352q-2 41 -41 46q-139 16 -154 20q-20 6 -4 16q82 57 96 56q6 0 28 -3l36 -6q57 -4 106 -4q139 0 248 25q12 4 15 -1t-5 -15q-29 -35 -63 -52q-33 -14 -103 -30q-29 -6 -41 -39t-28 -119 q-8 -49 -27.5 -183t-38 -238.5t-37.5 -176.5q-78 -283 -266 -395q-127 -76 -282 -76q-223 0 -326 125q-66 78 -84 181.5t2 283.5zM594 1516q10 10 49 36.5t55 32.5q23 8 27 -10q4 -47 43 -92q18 -20 -2 -41q-35 -39 -100 -72q-20 -10 -33 -2q-14 10 -37 45t-21 57 q5 32 19 46zM991 1516q8 8 49 35.5t56 33.5q25 8 28 -10q4 -49 41 -92q18 -20 -2 -41q-35 -39 -100 -72q-18 -10 -35 -2q-12 10 -34.5 47t-20.5 55q4 32 18 46z" />
<glyph unicode="&#xdd;" horiz-adv-x="1251" d="M215 1180v2q-82 10 -139 20q-16 2 -4 15q78 49 94 47q8 0 32.5 -3.5t39.5 -3.5q61 -4 114 -4q113 0 238 19q10 4 10 -2q0 -2 -6 -13q-14 -23 -49 -47q-10 -6 -35 -12t-35 -12q-25 -8 -12 -31q90 -172 201 -504q8 -23 24 0l328 500q16 23 -12 29q-66 10 -99 16 q-29 4 -8 16q80 51 94 52q8 0 32 -3.5t34 -3.5q49 -4 84 -4q115 0 227 23q12 4 12 -4q0 -2 -4 -8q-29 -33 -59 -50q-43 -23 -123 -34q-31 -6 -100 -76q-80 -82 -188.5 -235.5t-166.5 -256.5q-39 -76 -49 -151q-37 -242 -37 -342q0 -33 29 -35q170 -14 219 -33q18 -6 6 -16 q-72 -55 -94 -51q-147 14 -229 16q-254 0 -367 -25q-12 -2 -14 1.5t4 9.5q29 35 74 53q55 23 165 39q16 4 24.5 11t16.5 30q10 29 32 144.5t30 187t-14 159.5q-33 125 -104 282t-124 228q-16 23 -25.5 32t-25.5 16.5t-41 11.5zM1161 1604h2q55 0 -33 -66 q-160 -115 -356 -178q-57 -16 -102 -10q-37 2 -6 18q53 27 149 88.5t143 106.5q6 8 21 12q129 29 182 29z" />
<glyph unicode="&#xde;" horiz-adv-x="1075" d="M700 983h2q145 0 235.5 -67.5t90.5 -223.5q0 -260 -311 -366q-117 -41 -307 -41q-23 0 -25 -33q0 -8 -5 -56.5t-5 -60.5q-4 -47 33 -51q152 -20 165 -25q16 -6 5 -20q-10 -10 -44 -31.5t-42 -19.5q-20 4 -82 8q-66 4 -125 4q-152 0 -281 -23q-6 -2 -7 3.5t3 9.5 q35 41 59 51q20 10 58 19l45 12q23 6 33 16t18 37q29 68 86 520q39 324 45 488q0 39 -33 41q-131 16 -159 24q-16 6 -2 14q25 20 55.5 39t34.5 17q6 0 29.5 -3t39.5 -3q66 -8 121 -9q102 0 270 21q8 2 11.5 -1t-0.5 -7q-20 -35 -64 -56q-49 -18 -104 -28q-35 -6 -45 -39 q-12 -39 -27 -166q-2 -10 3 -14.5t11 -1.5q113 22 215 22zM618 911h-2q-88 0 -133 -24q-25 -14 -28 -53q-2 -10 -8.5 -63.5l-18.5 -148.5l-22 -173q-6 -53 16 -68q49 -25 133 -25q129 0 199 47q123 84 123 252q0 121 -68 188.5t-191 67.5z" />
<glyph unicode="&#xdf;" horiz-adv-x="952" d="M774 1411h2q66 0 119 -48t53 -140q0 -125 -151 -295q-45 -45 -99.5 -112.5t-54.5 -98.5q0 -12 5 -24.5t21.5 -31t29 -29.5t42 -41t45.5 -44q90 -86 91 -162q0 -182 -254 -350q-102 -72 -205 -72q-63 0 -94 39q-29 41 -13 102q2 27 25 5q33 -49 162 -50q104 0 177 63.5 t73 168.5q0 88 -121 194q-59 51 -113 105q-45 51 35 133l38 39l42 44l40 43q28 30 41 48l35.5 47t34 50.5t23.5 48t17 51t5 49.5q0 82 -41 132t-112 50q-90 0 -166 -99.5t-119 -237.5t-63 -298q-45 -373 -58 -457q-33 -246 -77 -369.5t-126 -217.5q-74 -88 -167 -149.5 t-183 -61.5q-55 0 -88 24q-63 43 -59 144q0 23 8 22q4 0 10 -8q23 -39 83.5 -62.5t121.5 -23.5q127 0 193.5 109.5t107.5 363.5q37 199 78 571.5t149 538.5q78 117 207 207t250 90z" />
<glyph unicode="&#xe0;" horiz-adv-x="927" d="M588 836h2q53 0 102 -41q12 -12 23 4q37 57 106 73q16 6 20.5 1t-5.5 -17q-27 -33 -52 -111q-29 -96 -55.5 -257.5t-28.5 -272.5q-2 -86 31 -86t75 44t71 93q23 33 22 0q-6 -57 -18 -76q-49 -84 -135.5 -153.5t-135.5 -69.5q-20 0 -34.5 39t-14.5 90q0 47 12 191 q2 18 -2 20t-10 -10q-102 -150 -264 -264q-100 -68 -156 -68q-31 0 -58.5 55.5t-27.5 149.5q0 238 135 414q61 84 205 174q125 78 193 78zM545 745h-2q-104 0 -187 -71q-63 -59 -107 -180t-44 -242q0 -63 17.5 -103t45.5 -40q47 0 128 77.5t157 202.5q31 49 74 213 q16 66 35 105q6 12 -9 20q-40 18 -108 18zM485 1331h2q8 0 9 -12q10 -82 46 -185.5t74 -166.5q10 -14 -8 -15q-14 0 -41.5 8.5t-36.5 16.5q-37 27 -83 98.5t-62 143.5q-8 37 23 65q10 12 36.5 29.5t40.5 17.5z" />
<glyph unicode="&#xe1;" horiz-adv-x="927" d="M588 836h2q53 0 102 -41q12 -12 23 4q37 57 106 73q16 6 20.5 1t-5.5 -17q-27 -33 -52 -111q-29 -96 -55.5 -257.5t-28.5 -272.5q-2 -86 31 -86t75 44t71 93q23 33 22 0q-6 -57 -18 -76q-49 -84 -135.5 -153.5t-135.5 -69.5q-20 0 -34.5 39t-14.5 90q0 47 12 191 q2 18 -2 20t-10 -10q-102 -150 -264 -264q-100 -68 -156 -68q-31 0 -58.5 55.5t-27.5 149.5q0 238 135 414q61 84 205 174q125 78 193 78zM545 745h-2q-104 0 -187 -71q-63 -59 -107 -180t-44 -242q0 -63 17.5 -103t45.5 -40q47 0 128 77.5t157 202.5q31 49 74 213 q16 66 35 105q6 12 -9 20q-40 18 -108 18zM817 1329h2q27 -4 -20 -74q-35 -57 -111 -148t-110 -118q-14 -12 -51.5 -25.5t-51.5 -13.5q-12 0 -4 17q41 45 112.5 149.5t94.5 163.5q8 12 61 30.5t78 18.5z" />
<glyph unicode="&#xe2;" horiz-adv-x="927" d="M588 836h2q53 0 102 -41q12 -12 23 4q37 57 106 73q16 6 20.5 1t-5.5 -17q-27 -33 -52 -111q-29 -96 -55.5 -257.5t-28.5 -272.5q-2 -86 31 -86t75 44t71 93q23 33 22 0q-6 -57 -18 -76q-49 -84 -135.5 -153.5t-135.5 -69.5q-20 0 -34.5 39t-14.5 90q0 47 12 191 q2 18 -2 20t-10 -10q-102 -150 -264 -264q-100 -68 -156 -68q-31 0 -58.5 55.5t-27.5 149.5q0 238 135 414q61 84 205 174q125 78 193 78zM545 745h-2q-104 0 -187 -71q-63 -59 -107 -180t-44 -242q0 -63 17.5 -103t45.5 -40q47 0 128 77.5t157 202.5q31 49 74 213 q16 66 35 105q6 12 -9 20q-40 18 -108 18zM545 1128q-78 -92 -129 -137q-39 -35 -88 -35h-4q-29 -2 -11 17q143 125 256 309q4 8 21.5 19.5t23.5 11.5q8 0 11 -15q31 -197 133 -294q6 -6 -4 -21q-31 -31 -68 -31q-23 0 -39 21q-45 57 -78 155q-6 10 -13 9t-11 -9z" />
<glyph unicode="&#xe3;" horiz-adv-x="927" d="M588 836h2q53 0 102 -41q12 -12 23 4q37 57 106 73q16 6 20.5 1t-5.5 -17q-27 -33 -52 -111q-29 -96 -55.5 -257.5t-28.5 -272.5q-2 -86 31 -86t75 44t71 93q23 33 22 0q-6 -57 -18 -76q-49 -84 -135.5 -153.5t-135.5 -69.5q-20 0 -34.5 39t-14.5 90q0 47 12 191 q2 18 -2 20t-10 -10q-102 -150 -264 -264q-100 -68 -156 -68q-31 0 -58.5 55.5t-27.5 149.5q0 238 135 414q61 84 205 174q125 78 193 78zM545 745h-2q-104 0 -187 -71q-63 -59 -107 -180t-44 -242q0 -63 17.5 -103t45.5 -40q47 0 128 77.5t157 202.5q31 49 74 213 q16 66 35 105q6 12 -9 20q-40 18 -108 18zM483 1176h2q29 0 113 -46q53 -31 74 -30q37 0 82 49q20 23 61 37q18 10 12 -6q-31 -59 -92 -119t-119 -60q-31 0 -106 48q-53 31 -76 30q-49 -4 -131 -92q-12 -12 -12 4q4 37 24 68q31 37 82 77t86 40z" />
<glyph unicode="&#xe4;" horiz-adv-x="927" d="M588 836h2q53 0 102 -41q12 -12 23 4q37 57 106 73q16 6 20.5 1t-5.5 -17q-27 -33 -52 -111q-29 -96 -55.5 -257.5t-28.5 -272.5q-2 -86 31 -86t75 44t71 93q23 33 22 0q-6 -57 -18 -76q-49 -84 -135.5 -153.5t-135.5 -69.5q-20 0 -34.5 39t-14.5 90q0 47 12 191 q2 18 -2 20t-10 -10q-102 -150 -264 -264q-100 -68 -156 -68q-31 0 -58.5 55.5t-27.5 149.5q0 238 135 414q61 84 205 174q125 78 193 78zM545 745h-2q-104 0 -187 -71q-63 -59 -107 -180t-44 -242q0 -63 17.5 -103t45.5 -40q47 0 128 77.5t157 202.5q31 49 74 213 q16 66 35 105q6 12 -9 20q-40 18 -108 18zM307 1143q6 8 48 33.5t57 29.5q20 8 22 -10q4 -35 39 -84q16 -18 -2 -39q-41 -41 -92 -65q-23 -12 -33 -4q-12 10 -32.5 43.5t-20.5 54.5q0 27 14 41zM639 1145q27 23 92 61q29 12 35 -4q6 -10 19.5 -38.5t21.5 -39.5 q18 -23 -2 -47q-14 -18 -54 -48t-63 -30q-14 0 -39.5 36t-27.5 65q0 29 18 45z" />
<glyph unicode="&#xe5;" horiz-adv-x="927" d="M588 836h2q53 0 102 -41q12 -12 23 4q37 57 106 73q16 6 20.5 1t-5.5 -17q-27 -33 -52 -111q-29 -96 -55.5 -257.5t-28.5 -272.5q-2 -86 31 -86t75 44t71 93q23 33 22 0q-6 -57 -18 -76q-49 -84 -135.5 -153.5t-135.5 -69.5q-20 0 -34.5 39t-14.5 90q0 47 12 191 q2 18 -2 20t-10 -10q-102 -150 -264 -264q-100 -68 -156 -68q-31 0 -58.5 55.5t-27.5 149.5q0 238 135 414q61 84 205 174q125 78 193 78zM545 745h-2q-104 0 -187 -71q-63 -59 -107 -180t-44 -242q0 -63 17.5 -103t45.5 -40q47 0 128 77.5t157 202.5q31 49 74 213 q16 66 35 105q6 12 -9 20q-40 18 -108 18zM606 1260h2q59 0 86 -39t21 -101q-8 -82 -86 -139q-68 -47 -119 -47q-41 0 -77 33.5t-27 103.5q8 74 69 123q80 66 131 66zM561 1194h-2q-76 0 -86 -90q-6 -51 21.5 -78t64.5 -27q72 0 80 86q10 109 -78 109z" />
<glyph unicode="&#xe6;" horiz-adv-x="1185" d="M637 817h2q68 0 104 -69q8 -14 3 -21.5t-17 -3.5q-61 14 -117 14q-139 0 -245 -92q-84 -78 -125 -189.5t-41 -222.5q0 -57 16 -93t43 -36q37 0 106.5 60.5t141.5 161.5q61 88 86 151q39 104 96 168q82 92 221 164q84 39 140 39q31 0 57.5 -36t26.5 -85q0 -72 -38 -124 t-116 -105q-90 -61 -256 -125q-20 -8 -27 -29q-4 -25 -4 -59q0 -94 42 -149.5t106 -55.5q150 0 288 170q23 29 27 14v-6q0 -47 -31 -80q-72 -84 -181 -147.5t-206 -63.5q-88 0 -133 69.5t-47 172.5q0 49 2 74q2 8 -2 10q-6 2 -12 -6q-47 -66 -123 -138.5t-127 -109.5 q-96 -74 -164 -74q-16 0 -33.5 17.5t-33 60.5t-15.5 104q0 227 127 394q47 63 152 141q66 49 159 92t148 43zM938 758h-2q-74 0 -145.5 -98.5t-81.5 -204.5q-2 -12 5 -16.5t21 -0.5q276 88 277 226q0 41 -20.5 67.5t-53.5 26.5z" />
<glyph unicode="&#xe7;" horiz-adv-x="696" d="M571 844h2q53 0 74 -33q18 -29 -8 -76q-16 -25 -35 -73q-4 -12 -13 -14.5t-13 11.5q-20 80 -115 80q-76 0 -146 -73q-43 -47 -77.5 -140.5t-34.5 -214.5q0 -113 42 -171t111 -58q150 0 299 201q6 8 10.5 9t6.5 -2t0 -9q-6 -49 -31 -86q-80 -104 -223 -181 q-45 -27 -73 -56.5t-28 -47.5q0 -33 66 -74q61 -41 61 -82q0 -49 -57 -106q-109 -98 -184 -99q-41 0 -66 45q-8 14 -6 18.5t14 2.5q14 -2 41 -2q68 0 106 25.5t38 56.5q0 18 -15.5 32.5t-74.5 51.5q-39 25 -39 59q0 37 108 139l-37 -6q-6 0 -17 -1t-15 -1q-84 0 -132.5 74 t-48.5 192.5t40 221t87 157.5q51 57 170 143.5t213 86.5z" />
<glyph unicode="&#xe8;" horiz-adv-x="700" d="M555 846h2q35 0 63.5 -35t28.5 -86q0 -70 -37 -121t-114 -104q-86 -59 -256 -123q-23 -6 -27 -23q-8 -20 -4 -67q2 -92 42 -148.5t107 -56.5q156 0 289 176q18 18 19 -4q0 -43 -31 -80q-70 -84 -177.5 -145.5t-205.5 -61.5q-88 0 -133 75t-47 173q0 61 4 115q2 14 -10 20 q-23 12 -27 29q-2 6 2 10t20 8q31 6 35 29q37 168 140 262q63 59 156 108.5t161 49.5zM449 760h-3q-80 0 -144 -94.5t-79 -208.5q-4 -16 2 -20.5t27 1.5q276 84 276 224q0 43 -22 70.5t-57 27.5zM399 1331h2q8 0 9 -12q10 -82 46 -185.5t74 -166.5q10 -14 -8 -15 q-14 0 -41.5 8.5t-36.5 16.5q-37 27 -83 98.5t-62 143.5q-8 37 23 65q10 12 36.5 29.5t40.5 17.5z" />
<glyph unicode="&#xe9;" horiz-adv-x="700" d="M555 846h2q35 0 63.5 -35t28.5 -86q0 -70 -37 -121t-114 -104q-86 -59 -256 -123q-23 -6 -27 -23q-8 -20 -4 -67q2 -92 42 -148.5t107 -56.5q156 0 289 176q18 18 19 -4q0 -43 -31 -80q-70 -84 -177.5 -145.5t-205.5 -61.5q-88 0 -133 75t-47 173q0 61 4 115q2 14 -10 20 q-23 12 -27 29q-2 6 2 10t20 8q31 6 35 29q37 168 140 262q63 59 156 108.5t161 49.5zM449 760h-3q-80 0 -144 -94.5t-79 -208.5q-4 -16 2 -20.5t27 1.5q276 84 276 224q0 43 -22 70.5t-57 27.5zM735 1329h2q27 -4 -20 -74q-35 -57 -111 -148t-110 -118q-14 -12 -51 -25.5 t-52 -13.5q-12 0 -4 17q41 45 112.5 149.5t94.5 163.5q8 12 61 30.5t78 18.5z" />
<glyph unicode="&#xea;" horiz-adv-x="700" d="M555 846h2q35 0 63.5 -35t28.5 -86q0 -70 -37 -121t-114 -104q-86 -59 -256 -123q-23 -6 -27 -23q-8 -20 -4 -67q2 -92 42 -148.5t107 -56.5q156 0 289 176q18 18 19 -4q0 -43 -31 -80q-70 -84 -177.5 -145.5t-205.5 -61.5q-88 0 -133 75t-47 173q0 61 4 115q2 14 -10 20 q-23 12 -27 29q-2 6 2 10t20 8q31 6 35 29q37 168 140 262q63 59 156 108.5t161 49.5zM449 760h-3q-80 0 -144 -94.5t-79 -208.5q-4 -16 2 -20.5t27 1.5q276 84 276 224q0 43 -22 70.5t-57 27.5zM471 1128q-78 -92 -129 -137q-39 -35 -88 -35h-4q-29 -2 -10 17 q143 125 256 309q4 8 21.5 19.5t23.5 11.5q8 0 10 -15q31 -197 133 -294q6 -6 -4 -21q-31 -31 -68 -31q-23 0 -39 21q-45 57 -77 155q-6 10 -13.5 9t-11.5 -9z" />
<glyph unicode="&#xeb;" horiz-adv-x="700" d="M555 846h2q35 0 63.5 -35t28.5 -86q0 -70 -37 -121t-114 -104q-86 -59 -256 -123q-23 -6 -27 -23q-8 -20 -4 -67q2 -92 42 -148.5t107 -56.5q156 0 289 176q18 18 19 -4q0 -43 -31 -80q-70 -84 -177.5 -145.5t-205.5 -61.5q-88 0 -133 75t-47 173q0 61 4 115q2 14 -10 20 q-23 12 -27 29q-2 6 2 10t20 8q31 6 35 29q37 168 140 262q63 59 156 108.5t161 49.5zM449 760h-3q-80 0 -144 -94.5t-79 -208.5q-4 -16 2 -20.5t27 1.5q276 84 276 224q0 43 -22 70.5t-57 27.5zM227 1143q6 8 48 33.5t57 29.5q20 8 22 -10q4 -35 39 -84q16 -18 -2 -39 q-41 -41 -92 -65q-23 -12 -33 -4q-12 10 -32.5 43.5t-20.5 54.5q0 27 14 41zM559 1145q27 23 92 61q29 12 35 -4q6 -10 19.5 -38.5t21.5 -39.5q18 -23 -2 -47q-14 -18 -54 -48t-63 -30q-14 0 -39.5 36t-27.5 65q0 29 18 45z" />
<glyph unicode="&#xec;" horiz-adv-x="516" d="M315 115h2q55 0 170 155q10 12 12.5 10.5t2.5 -12.5q-4 -57 -27 -90q-35 -55 -136 -135t-151 -80q-16 0 -28.5 20.5t-16.5 63.5t7 111q25 209 71 469q4 18 0 22t-20 -2q-20 -10 -70.5 -37.5t-62.5 -34.5q-16 -6 -18.5 -4t1.5 13q12 37 51 63l250 178q31 23 51.5 23 t-0.5 -29q-31 -47 -53 -160q-41 -193 -61 -411q-13 -133 26 -133zM272 1331h2q8 0 9 -12q10 -82 46 -185.5t74 -166.5q10 -14 -8 -15q-14 0 -41.5 8.5t-36.5 16.5q-37 27 -83 98.5t-62 143.5q-8 37 23 65q10 12 36.5 29.5t40.5 17.5z" />
<glyph unicode="&#xed;" horiz-adv-x="516" d="M315 115h2q55 0 170 155q10 12 12.5 10.5t2.5 -12.5q-4 -57 -27 -90q-35 -55 -136 -135t-151 -80q-16 0 -28.5 20.5t-16.5 63.5t7 111q25 209 71 469q4 18 0 22t-20 -2q-20 -10 -70.5 -37.5t-62.5 -34.5q-16 -6 -18.5 -4t1.5 13q12 37 51 63l250 178q31 23 51.5 23 t-0.5 -29q-31 -47 -53 -160q-41 -193 -61 -411q-13 -133 26 -133zM594 1329h2q27 -4 -21 -74q-35 -57 -110.5 -148t-110.5 -118q-14 -12 -51 -25.5t-51 -13.5q-12 0 -4 17q41 45 112.5 149.5t94.5 163.5q8 12 61 30.5t78 18.5z" />
<glyph unicode="&#xee;" horiz-adv-x="516" d="M315 115h2q55 0 170 155q10 12 12.5 10.5t2.5 -12.5q-4 -57 -27 -90q-35 -55 -136 -135t-151 -80q-16 0 -28.5 20.5t-16.5 63.5t7 111q25 209 71 469q4 18 0 22t-20 -2q-20 -10 -70.5 -37.5t-62.5 -34.5q-16 -6 -18.5 -4t1.5 13q12 37 51 63l250 178q31 23 51.5 23 t-0.5 -29q-31 -47 -53 -160q-41 -193 -61 -411q-13 -133 26 -133zM332 1128q-78 -92 -129 -137q-39 -35 -88 -35h-4q-29 -2 -11 17q143 125 256 309q4 8 21.5 19.5t23.5 11.5q8 0 11 -15q31 -197 133 -294q6 -6 -4 -21q-31 -31 -68 -31q-23 0 -39 21q-45 57 -78 155 q-6 10 -13 9t-11 -9z" />
<glyph unicode="&#xef;" horiz-adv-x="516" d="M315 115h2q55 0 170 155q10 12 12.5 10.5t2.5 -12.5q-4 -57 -27 -90q-35 -55 -136 -135t-151 -80q-16 0 -28.5 20.5t-16.5 63.5t7 111q25 209 71 469q4 18 0 22t-20 -2q-20 -10 -70.5 -37.5t-62.5 -34.5q-16 -6 -18.5 -4t1.5 13q12 37 51 63l250 178q31 23 51.5 23 t-0.5 -29q-31 -47 -53 -160q-41 -193 -61 -411q-13 -133 26 -133zM96 1143q6 8 48 33.5t57 29.5q20 8 22 -10q4 -35 39 -84q16 -18 -2 -39q-41 -41 -92 -65q-23 -12 -33 -4q-12 10 -32.5 43.5t-20.5 54.5q0 27 14 41zM428 1145q27 23 92 61q29 12 35 -4q6 -10 19.5 -38.5 t21.5 -39.5q18 -23 -2 -47q-14 -18 -54 -48t-63 -30q-14 0 -39.5 36t-27.5 65q0 29 18 45z" />
<glyph unicode="&#xf0;" horiz-adv-x="849" d="M571 846h2q43 0 72 -19q16 -12 17 11q0 158 -48 268q-2 14 -22 6q-154 -98 -258 -143q-8 -4 -12.5 -4t-5.5 3t3 11q55 94 72 100q86 43 170 99q14 10 8 24q-70 123 -221 123q-88 0 -151 -41q-10 -6 -13 -2q0 4 4 12q16 37 58 62q94 57 194 57q147 0 246 -139 q10 -14 25 -6q100 66 178 127q4 4 7 2t1 -11q-4 -33 -23 -65q-20 -33 -133 -117q-16 -12 -6 -30q57 -150 58 -365q4 -539 -254 -723q-170 -123 -271 -123q-82 0 -142 66.5t-63 216.5q0 135 51.5 250.5t139.5 183.5q82 68 171 117t146 49zM500 752h-2q-78 0 -144 -62 q-145 -127 -145 -377q0 -131 47 -187t117 -56q74 0 135 65q55 53 94 165t49 263q6 90 -20 129q-39 60 -131 60z" />
<glyph unicode="&#xf1;" horiz-adv-x="1003" d="M809 848h2q53 0 39 -162q-23 -203 -82 -512q-6 -31 20 -18q61 29 136 116q10 10 13 11.5t4 -1.5t1 -15.5t-13.5 -44.5t-25.5 -46q-102 -117 -225 -186q-74 -43 -96 -43q-29 0 -4 28q23 31 47 121q51 186 73 443q16 166 -32 166q-53 0 -152.5 -109t-163.5 -231 q-27 -49 -100 -273q-14 -39 -41 -63q-76 -63 -113 -64q-25 0 -6 23q23 29 43 118q74 305 78 510q0 61 -21 58q-37 -16 -120 -96q-20 -18 -21 -5q0 2 2 9q16 53 43 80q41 47 125 116.5t117 69.5q27 0 22 -107q-2 -74 -26 -249q-2 -14 1 -20.5t8 -5.5t11 9q147 211 312 318 q90 55 145 55zM514 1176h2q29 0 113 -46q51 -31 73 -30q37 0 82 49q23 23 62 37q18 10 12 -6q-31 -59 -92 -119t-119 -60q-31 0 -106 48q-53 31 -76 30q-49 -4 -131 -92q-12 -12 -12 4q4 37 24 68q31 37 82 77t86 40z" />
<glyph unicode="&#xf2;" horiz-adv-x="837" d="M592 848h2q72 0 124 -77t52 -202q0 -283 -172 -434q-72 -63 -174 -117.5t-162 -54.5q-92 0 -145.5 77t-53.5 206q0 193 91 332q31 57 96 110t127 82q6 2 67 37q78 41 148 41zM473 752h-2q-59 0 -127 -58q-59 -49 -98 -149.5t-39 -235.5q0 -129 49 -186t117 -57 q86 0 153 86q106 141 107 356q0 113 -43 178.5t-117 65.5zM453 1331h2q8 0 8 -12q10 -82 46 -185.5t75 -166.5q10 -14 -9 -15q-14 0 -41.5 8.5t-35.5 16.5q-37 27 -83 98.5t-63 143.5q-8 37 23 65q10 12 37 29.5t41 17.5z" />
<glyph unicode="&#xf3;" horiz-adv-x="837" d="M592 848h2q72 0 124 -77t52 -202q0 -283 -172 -434q-72 -63 -174 -117.5t-162 -54.5q-92 0 -145.5 77t-53.5 206q0 193 91 332q31 57 96 110t127 82q6 2 67 37q78 41 148 41zM473 752h-2q-59 0 -127 -58q-59 -49 -98 -149.5t-39 -235.5q0 -129 49 -186t117 -57 q86 0 153 86q106 141 107 356q0 113 -43 178.5t-117 65.5zM764 1329h2q27 -4 -21 -74q-35 -57 -110.5 -148t-110.5 -118q-14 -12 -51 -25.5t-51 -13.5q-12 0 -4 17q41 45 112.5 149.5t94.5 163.5q8 12 61 30.5t78 18.5z" />
<glyph unicode="&#xf4;" horiz-adv-x="837" d="M592 848h2q72 0 124 -77t52 -202q0 -283 -172 -434q-72 -63 -174 -117.5t-162 -54.5q-92 0 -145.5 77t-53.5 206q0 193 91 332q31 57 96 110t127 82q6 2 67 37q78 41 148 41zM473 752h-2q-59 0 -127 -58q-59 -49 -98 -149.5t-39 -235.5q0 -129 49 -186t117 -57 q86 0 153 86q106 141 107 356q0 113 -43 178.5t-117 65.5zM510 1128q-78 -92 -129 -137q-39 -35 -88 -35h-4q-29 -2 -10 17q143 125 256 309q4 8 21 19.5t24 11.5q8 0 10 -15q31 -197 133 -294q6 -6 -4 -21q-31 -31 -68 -31q-23 0 -39 21q-45 57 -77 155q-6 10 -13.5 9 t-11.5 -9z" />
<glyph unicode="&#xf5;" horiz-adv-x="837" d="M592 848h2q72 0 124 -77t52 -202q0 -283 -172 -434q-72 -63 -174 -117.5t-162 -54.5q-92 0 -145.5 77t-53.5 206q0 193 91 332q31 57 96 110t127 82q6 2 67 37q78 41 148 41zM473 752h-2q-59 0 -127 -58q-59 -49 -98 -149.5t-39 -235.5q0 -129 49 -186t117 -57 q86 0 153 86q106 141 107 356q0 113 -43 178.5t-117 65.5zM434 1176h2q29 0 113 -46q53 -31 74 -30q37 0 82 49q20 23 61 37q18 10 12 -6q-31 -59 -92 -119t-119 -60q-31 0 -106 48q-53 31 -76 30q-49 -4 -131 -92q-12 -12 -12 4q4 37 24 68q31 37 82 77t86 40z" />
<glyph unicode="&#xf6;" horiz-adv-x="837" d="M592 848h2q72 0 124 -77t52 -202q0 -283 -172 -434q-72 -63 -174 -117.5t-162 -54.5q-92 0 -145.5 77t-53.5 206q0 193 91 332q31 57 96 110t127 82q6 2 67 37q78 41 148 41zM473 752h-2q-59 0 -127 -58q-59 -49 -98 -149.5t-39 -235.5q0 -129 49 -186t117 -57 q86 0 153 86q106 141 107 356q0 113 -43 178.5t-117 65.5zM272 1143q6 8 48 33.5t57 29.5q20 8 22 -10q4 -35 39 -84q16 -18 -2 -39q-41 -41 -92 -65q-23 -12 -33 -4q-12 10 -32.5 43.5t-20.5 54.5q0 27 14 41zM604 1145q27 23 92 61q29 12 35 -4q6 -10 19.5 -38.5 t21.5 -39.5q18 -23 -2 -47q-14 -18 -54 -48t-63 -30q-14 0 -39.5 36t-27.5 65q0 29 18 45z" />
<glyph unicode="&#xf7;" horiz-adv-x="1097" d="M549 594h-2q-16 0 -53 48t-37 81q0 27 52 55.5t97 28.5q16 0 17 -12q0 -59 -24.5 -130t-49.5 -71zM979 471q20 0 10 -10q-12 -16 -48 -41t-46 -27q-127 -16 -514 -16q-246 0 -268 6q-20 6 -11 23l50 61q18 23 30 18q61 -10 170 -14q156 -4 627 0zM567 250q18 4 19 -6 q-6 -193 -6 -195q0 -12 -23 -8q-47 12 -83 43t-42 70q-4 23 43 55.5t92 40.5z" />
<glyph unicode="&#xf8;" horiz-adv-x="845" d="M598 848h2q47 0 80 -31l39 66q2 6 42 22.5t54 20.5q23 4 -6 -41l-80 -123q47 -74 47 -189q0 -182 -58.5 -293.5t-174.5 -197.5q-59 -43 -143.5 -81t-131.5 -38q-59 0 -96 31q-16 10 -27 -2q-8 -10 -22 -22.5t-19 -18.5q-39 -35 -92 -53q-10 -2 -14 -1t-4 5t6 12l102 121 q12 12 2 33q-41 66 -41 172q0 207 101 346q68 109 217 184l55 31q84 47 162 47zM494 752h-2q-82 0 -154 -68q-137 -125 -137 -377q0 -82 18 -127q225 281 369 496q14 18 -2 31q-37 45 -92 45zM377 70h2q33 0 81 23.5t75 58.5q113 143 112 358q0 35 -8 88q0 6 -4 9t-8 2 t-9 -7q-190 -272 -364 -483q47 -49 123 -49z" />
<glyph unicode="&#xf9;" horiz-adv-x="1024" d="M416 846h2q8 0 11 -4t1 -10.5t-8 -10.5q-18 -18 -41 -84q-27 -63 -52.5 -220t-29.5 -261q-8 -143 57 -143q59 0 144.5 93t156.5 220q20 37 35 78t22 67.5t19 83t19 80.5q8 33 32 37q35 10 97 51q35 25 49 25q6 0 9 -4t0 -11.5t-11 -15.5q-31 -27 -54 -100 q-57 -180 -75 -434q-14 -174 30 -174q49 0 154 157q20 33 21 8v-6q0 -47 -21 -86q-35 -63 -124 -143t-150 -80q-23 0 -37.5 38t-12.5 93q2 127 21 229q2 20 -4 22.5t-17 -13.5q-139 -213 -305 -316q-86 -49 -131 -49q-37 0 -55 50t-14 122q8 209 82 508q2 14 -4.5 16.5 t-22.5 -6.5l-63 -41q-46 -31 -66 -43q-10 -6 -16.5 -8t-7.5 3t3 16q25 47 52 71q201 137 213 150q14 14 46 29.5t46 15.5zM537 1331h2q8 0 8 -12q10 -82 46 -185.5t75 -166.5q10 -14 -9 -15q-14 0 -41.5 8.5t-35.5 16.5q-37 27 -83 98.5t-63 143.5q-8 37 23 65 q10 12 37 29.5t41 17.5z" />
<glyph unicode="&#xfa;" horiz-adv-x="1024" d="M416 846h2q8 0 11 -4t1 -10.5t-8 -10.5q-18 -18 -41 -84q-27 -63 -52.5 -220t-29.5 -261q-8 -143 57 -143q59 0 144.5 93t156.5 220q20 37 35 78t22 67.5t19 83t19 80.5q8 33 32 37q35 10 97 51q35 25 49 25q6 0 9 -4t0 -11.5t-11 -15.5q-31 -27 -54 -100 q-57 -180 -75 -434q-14 -174 30 -174q49 0 154 157q20 33 21 8v-6q0 -47 -21 -86q-35 -63 -124 -143t-150 -80q-23 0 -37.5 38t-12.5 93q2 127 21 229q2 20 -4 22.5t-17 -13.5q-139 -213 -305 -316q-86 -49 -131 -49q-37 0 -55 50t-14 122q8 209 82 508q2 14 -4.5 16.5 t-22.5 -6.5l-63 -41q-46 -31 -66 -43q-10 -6 -16.5 -8t-7.5 3t3 16q25 47 52 71q201 137 213 150q14 14 46 29.5t46 15.5zM879 1329h2q27 -4 -21 -74q-35 -57 -110.5 -148t-110.5 -118q-14 -12 -51 -25.5t-51 -13.5q-12 0 -5 17q41 45 113 149.5t94 163.5q8 12 61.5 30.5 t78.5 18.5z" />
<glyph unicode="&#xfb;" horiz-adv-x="1024" d="M416 846h2q8 0 11 -4t1 -10.5t-8 -10.5q-18 -18 -41 -84q-27 -63 -52.5 -220t-29.5 -261q-8 -143 57 -143q59 0 144.5 93t156.5 220q20 37 35 78t22 67.5t19 83t19 80.5q8 33 32 37q35 10 97 51q35 25 49 25q6 0 9 -4t0 -11.5t-11 -15.5q-31 -27 -54 -100 q-57 -180 -75 -434q-14 -174 30 -174q49 0 154 157q20 33 21 8v-6q0 -47 -21 -86q-35 -63 -124 -143t-150 -80q-23 0 -37.5 38t-12.5 93q2 127 21 229q2 20 -4 22.5t-17 -13.5q-139 -213 -305 -316q-86 -49 -131 -49q-37 0 -55 50t-14 122q8 209 82 508q2 14 -4.5 16.5 t-22.5 -6.5l-63 -41q-46 -31 -66 -43q-10 -6 -16.5 -8t-7.5 3t3 16q25 47 52 71q201 137 213 150q14 14 46 29.5t46 15.5zM610 1128q-78 -92 -129 -137q-39 -35 -88 -35h-4q-29 -2 -10 17q143 125 256 309q4 8 21.5 19.5t23.5 11.5q8 0 10 -15q31 -197 133 -294q6 -6 -4 -21 q-31 -31 -67 -31q-23 0 -39 21q-45 57 -78 155q-6 10 -13.5 9t-11.5 -9z" />
<glyph unicode="&#xfc;" horiz-adv-x="1024" d="M416 846h2q8 0 11 -4t1 -10.5t-8 -10.5q-18 -18 -41 -84q-27 -63 -52.5 -220t-29.5 -261q-8 -143 57 -143q59 0 144.5 93t156.5 220q20 37 35 78t22 67.5t19 83t19 80.5q8 33 32 37q35 10 97 51q35 25 49 25q6 0 9 -4t0 -11.5t-11 -15.5q-31 -27 -54 -100 q-57 -180 -75 -434q-14 -174 30 -174q49 0 154 157q20 33 21 8v-6q0 -47 -21 -86q-35 -63 -124 -143t-150 -80q-23 0 -37.5 38t-12.5 93q2 127 21 229q2 20 -4 22.5t-17 -13.5q-139 -213 -305 -316q-86 -49 -131 -49q-37 0 -55 50t-14 122q8 209 82 508q2 14 -4.5 16.5 t-22.5 -6.5l-63 -41q-46 -31 -66 -43q-10 -6 -16.5 -8t-7.5 3t3 16q25 47 52 71q201 137 213 150q14 14 46 29.5t46 15.5zM369 1143q6 8 48 33.5t56 29.5q20 8 23 -10q4 -35 39 -84q16 -18 -3 -39q-41 -41 -92 -65q-23 -12 -32 -4q-12 10 -33 43.5t-21 54.5q1 27 15 41z M700 1145q27 23 93 61q29 12 34 -4q6 -10 19.5 -38.5t21.5 -39.5q18 -23 -2 -47q-14 -18 -54 -48t-62 -30q-14 0 -40 36t-28 65q0 29 18 45z" />
<glyph unicode="&#xfd;" horiz-adv-x="827" d="M272 846h2q68 0 117 -225q37 -154 66 -480q2 -18 10 -19t16 11q55 90 126 271.5t73 287.5q0 14 -14.5 27.5t-40.5 17.5q-18 4 8 31q29 29 73 54.5t66 29.5q10 4 17.5 -6t7.5 -29q-2 -133 -99.5 -365.5t-203.5 -422.5q-33 -57 -37 -82q-2 -27 -39 -45q-10 -8 -23 -25 q-125 -201 -258 -321.5t-217 -120.5q-53 0 -35 47q47 94 70 125q12 25 27 6q31 -27 75 -4q61 25 138 102.5t141 186.5q10 18 10 71q2 133 -27.5 320.5t-70.5 300.5q-33 92 -49 102q-6 4 -15 4q-23 0 -64.5 -50t-72.5 -111q-14 -35 -18 4q0 53 22 92q39 63 110.5 139 t108.5 76zM799 1329h2q27 -4 -21 -74q-35 -57 -110.5 -148t-110.5 -118q-14 -12 -51 -25.5t-51 -13.5q-12 0 -4 17q41 45 112.5 149.5t93.5 163.5q8 12 61.5 30.5t78.5 18.5z" />
<glyph unicode="&#xfe;" horiz-adv-x="909" d="M760 848h2q33 0 60.5 -55.5t27.5 -153.5q0 -287 -176 -477q-96 -96 -223 -156q-86 -45 -170 -45q-23 0 -48 10q-14 6 -20 -12q-25 -168 -31 -203q-35 -152 -57 -182q-12 -20 20 -23q119 -14 230 48q31 18 28 2q-2 -16 -22 -37q-72 -68 -209 -94q-111 -18 -246 -19 q-76 0 -106 6q-10 2 -13.5 5t0 7.5t13.5 12.5q57 49 135 65q29 2 49 29q39 49 102 487q106 682 146 1160q2 25 -3 32t-20 5q-86 -20 -143 -31q-16 -2 -17 4t9 14q43 47 76 56q145 31 233 100q31 23 43 10q6 -6 -2 -22q-14 -37 -37 -156q-6 -37 -98 -715q-2 -18 5 -20t17 14 q119 164 291 272q97 62 154 62zM633 723h-2q-72 0 -181.5 -124t-156.5 -237q-31 -74 -45 -229q0 -35 32.5 -58.5t81.5 -23.5q100 0 187 72q154 133 153 448q0 70 -19 111t-50 41z" />
<glyph unicode="&#xff;" horiz-adv-x="827" d="M272 846h2q68 0 117 -225q37 -154 66 -480q2 -18 10 -19t16 11q55 90 126 271.5t73 287.5q0 14 -14.5 27.5t-40.5 17.5q-18 4 8 31q29 29 73 54.5t66 29.5q10 4 17.5 -6t7.5 -29q-2 -133 -99.5 -365.5t-203.5 -422.5q-33 -57 -37 -82q-2 -27 -39 -45q-10 -8 -23 -25 q-125 -201 -258 -321.5t-217 -120.5q-53 0 -35 47q47 94 70 125q12 25 27 6q31 -27 75 -4q61 25 138 102.5t141 186.5q10 18 10 71q2 133 -27.5 320.5t-70.5 300.5q-33 92 -49 102q-6 4 -15 4q-23 0 -64.5 -50t-72.5 -111q-14 -35 -18 4q0 53 22 92q39 63 110.5 139 t108.5 76zM274 1143q6 8 48.5 33.5t56.5 29.5q20 8 22 -10q4 -35 39 -84q16 -18 -2 -39q-41 -41 -92 -65q-23 -12 -33 -4q-12 10 -32.5 43.5t-20.5 54.5q0 27 14 41zM606 1145q27 23 92 61q29 12 35 -4q6 -10 19.5 -38.5t21.5 -39.5q18 -23 -2 -47q-14 -18 -54 -48t-63 -30 q-14 0 -39.5 36t-27.5 65q0 29 18 45z" />
<glyph unicode="&#x152;" horiz-adv-x="1974" d="M887 1300h2q225 0 321 -159q18 -29 27 -2q12 55 16 116q0 14 21 13q59 -10 358 -15q217 -2 289 47q10 6 14 0q0 -2 -2 -6q-55 -117 -75 -295q0 -14 -13 -8q-8 2 -19 18.5t-14 24.5q-16 51 -20 140q-2 8 -6 13t-10 3q-106 -14 -359 -16q-27 0 -37 -41q-33 -121 -69 -408 q-2 -25 22 -33q57 -23 250 -22q88 0 127 18q18 8 58 38t50.5 36t15.5 6t5 -5t-2 -11q-57 -104 -80 -308q-2 -16 -16 -6q-41 35 -53 135q-2 14 -6.5 21.5t-14.5 5.5q-33 -4 -172 -5t-172 -7q-10 -2 -14 -4t-9.5 -6.5t-7.5 -12.5t-4 -22q-29 -201 -28 -328q0 -121 100 -135 q109 -18 252 -12q102 2 164 67q55 59 112 168q10 23 19 8q14 -33 2 -63q-25 -86 -82 -166q-57 -86 -129 -88q-150 -6 -471 -6q-137 0 -117 178q2 8 -4 10q-6 0 -14 -8q-225 -217 -510 -217q-240 0 -362 146.5t-122 387.5q0 391 285 621q100 86 235 139q134 55 269 55z M815 1219h-2q-184 0 -307 -101q-254 -199 -254 -575q0 -238 117.5 -370t308.5 -132q156 0 270 82q147 100 180 256q20 131 60 446q14 98 -23 176q-84 218 -350 218z" />
<glyph unicode="&#x153;" horiz-adv-x="1228" d="M580 848h2q59 0 104 -46t59 -136q0 -6 5.5 -7.5t9.5 3.5q74 76 170 130t170 54q37 0 63.5 -36t26.5 -87q0 -125 -141 -225q-119 -80 -273 -129q-20 -8 -26.5 -24.5t-6.5 -49.5q0 -104 45.5 -159.5t114.5 -55.5q147 0 277 170q20 29 20 -2q4 -41 -35 -84 q-70 -82 -170 -139.5t-192 -57.5q-78 0 -125 52.5t-57 132.5q-6 20 -23 4q-84 -84 -175 -138.5t-155 -54.5q-94 0 -149.5 73t-55.5 202q0 260 140 403q74 80 205 150q111 57 172 57zM477 754h-2q-61 0 -129 -62q-57 -49 -98 -151.5t-41 -237.5q0 -131 47 -183t108 -52 q43 0 90.5 28.5t75.5 67.5q106 133 107 342q0 115 -43 181.5t-115 66.5zM991 756h-2q-72 0 -147.5 -96.5t-81.5 -204.5q-2 -16 4 -20.5t22 -0.5q281 76 281 225q0 41 -21.5 69t-54.5 28z" />
<glyph unicode="&#x178;" horiz-adv-x="1251" d="M215 1180v2q-82 10 -139 20q-16 2 -4 15q78 49 94 47q8 0 32.5 -3.5t39.5 -3.5q61 -4 114 -4q113 0 238 19q10 4 10 -2q0 -2 -6 -13q-14 -23 -49 -47q-10 -6 -35 -12t-35 -12q-25 -8 -12 -31q90 -172 201 -504q8 -23 24 0l328 500q16 23 -12 29q-66 10 -99 16 q-29 4 -8 16q80 51 94 52q8 0 32 -3.5t34 -3.5q49 -4 84 -4q115 0 227 23q12 4 12 -4q0 -2 -4 -8q-29 -33 -59 -50q-43 -23 -123 -34q-31 -6 -100 -76q-80 -82 -188.5 -235.5t-166.5 -256.5q-39 -76 -49 -151q-37 -242 -37 -342q0 -33 29 -35q170 -14 219 -33q18 -6 6 -16 q-72 -55 -94 -51q-147 14 -229 16q-254 0 -367 -25q-12 -2 -14 1.5t4 9.5q29 35 74 53q55 23 165 39q16 4 24.5 11t16.5 30q10 29 32 144.5t30 187t-14 159.5q-33 125 -104 282t-124 228q-16 23 -25.5 32t-25.5 16.5t-41 11.5zM498 1516q10 10 49 36.5t55 32.5q23 8 27 -10 q4 -47 43 -92q18 -20 -2 -41q-35 -39 -101 -72q-20 -10 -32 -2q-14 10 -37 45t-21 57q5 32 19 46zM895 1516q8 8 49 35.5t55 33.5q25 8 29 -10q4 -49 41 -92q18 -20 -2 -41q-35 -39 -100 -72q-20 -10 -35 -2q-12 10 -35 47t-20 55q4 32 18 46z" />
<glyph unicode="&#x2c6;" horiz-adv-x="821" d="M457 1128q-78 -92 -129 -137q-39 -35 -88 -35h-4q-29 -2 -11 17q143 125 256 309q4 8 21.5 19.5t23.5 11.5q8 0 11 -15q31 -197 133 -294q6 -6 -4 -21q-31 -31 -68 -31q-23 0 -39 21q-45 57 -78 155q-6 10 -13 9t-11 -9z" />
<glyph unicode="&#x2dc;" horiz-adv-x="821" d="M418 1176h2q29 0 112 -46q53 -31 74 -30q37 0 82 49q20 23 62 37q18 10 12 -6q-31 -59 -92.5 -119t-118.5 -60q-31 0 -107 48q-53 31 -75 30q-49 -4 -131 -92q-12 -12 -13 4q4 37 25 68q31 37 82 77t86 40z" />
<glyph unicode="&#x2000;" horiz-adv-x="843" />
<glyph unicode="&#x2001;" horiz-adv-x="1687" />
<glyph unicode="&#x2002;" horiz-adv-x="843" />
<glyph unicode="&#x2003;" horiz-adv-x="1687" />
<glyph unicode="&#x2004;" horiz-adv-x="561" />
<glyph unicode="&#x2005;" horiz-adv-x="421" />
<glyph unicode="&#x2006;" horiz-adv-x="280" />
<glyph unicode="&#x2007;" horiz-adv-x="280" />
<glyph unicode="&#x2008;" horiz-adv-x="210" />
<glyph unicode="&#x2009;" horiz-adv-x="335" />
<glyph unicode="&#x200a;" horiz-adv-x="92" />
<glyph unicode="&#x2010;" horiz-adv-x="684" d="M94 387q61 88 78 88q23 -2 94 2q205 12 346 49q8 2 8.5 -2t-6.5 -14q-47 -72 -125 -100q-70 -25 -185.5 -38.5t-170.5 -13.5q-49 0 -49 11q0 4 10 18z" />
<glyph unicode="&#x2011;" horiz-adv-x="684" d="M94 387q61 88 78 88q23 -2 94 2q205 12 346 49q8 2 8.5 -2t-6.5 -14q-47 -72 -125 -100q-70 -25 -185.5 -38.5t-170.5 -13.5q-49 0 -49 11q0 4 10 18z" />
<glyph unicode="&#x2012;" horiz-adv-x="684" d="M94 387q61 88 78 88q23 -2 94 2q205 12 346 49q8 2 8.5 -2t-6.5 -14q-47 -72 -125 -100q-70 -25 -185.5 -38.5t-170.5 -13.5q-49 0 -49 11q0 4 10 18z" />
<glyph unicode="&#x2013;" horiz-adv-x="1142" d="M582 473h2q385 0 465 12q10 2 11 -4t-9 -16q-59 -63 -211 -78q-106 -12 -471 -12q-246 0 -273 12q-16 6 -8 19q8 10 48 39.5t54 37.5q113 -10 392 -10z" />
<glyph unicode="&#x2014;" horiz-adv-x="1918" d="M856 475h2q846 0 969 10q12 2 12 -4q-2 -4 -12 -14q-59 -63 -209 -78q-137 -12 -1239 -12q-248 0 -279 14q-23 10 -10 21q10 10 49 37.5t54 35.5q112 -10 663 -10z" />
<glyph unicode="&#x2018;" horiz-adv-x="432" d="M238 946h-2q-43 0 -63.5 31t-20.5 76q0 100 85 198.5t189 143.5q37 16 59 16q23 0 9 -16q-4 -4 -11 -9q-195 -135 -194 -278q0 -70 71 -66q12 2 13 -10q-2 -10 -17 -24q-65 -62 -118 -62z" />
<glyph unicode="&#x2019;" horiz-adv-x="432" d="M389 1411h2q43 0 63.5 -30.5t20.5 -75.5q0 -102 -83 -199.5t-187 -142.5q-39 -16 -62 -17q-23 0 -8 17q4 4 10 8q193 129 193 278q0 70 -72 66q-14 -2 -12 10q0 10 14 25q68 61 121 61z" />
<glyph unicode="&#x201a;" horiz-adv-x="399" d="M207 256h2q35 0 54.5 -35t19.5 -82q0 -111 -99.5 -235.5t-210.5 -177.5q-43 -18 -61 -19q-16 -2 -18.5 6t14.5 17q94 66 158.5 153.5t64.5 184.5q0 63 -55 84q-14 2 -14.5 10t10.5 14q86 51 102.5 65.5t32.5 14.5z" />
<glyph unicode="&#x201c;" horiz-adv-x="716" d="M238 950h-2q-41 0 -62.5 31t-21.5 74q0 102 83.5 199.5t190.5 142.5q45 18 61 18q23 0 5 -18q-2 -4 -7 -6q-197 -135 -196 -279q0 -35 21.5 -52.5t51.5 -12.5q14 2 15 -11q-2 -10 -17 -24q-67 -62 -122 -62zM528 948h-2q-86 0 -86 107q0 100 86 199.5t191 144.5 q37 16 61 16q23 0 2 -18q-2 -4 -6 -6q-197 -133 -196 -281q0 -35 21.5 -51.5t49.5 -14.5q12 2 13 -10q0 -10 -15 -24q-20 -20 -57 -41t-62 -21z" />
<glyph unicode="&#x201d;" horiz-adv-x="724" d="M395 1411h2q84 0 84 -108q0 -98 -86 -197.5t-188 -144.5q-39 -16 -62 -17q-25 0 -4 19q2 4 6 6q197 133 197 276q0 39 -20.5 55.5t-49.5 14.5q-14 -2 -14 10q0 10 14 25q66 61 121 61zM684 1411h2q82 0 82 -108q0 -106 -87 -201.5t-185 -136.5q-41 -18 -62 -19 q-23 0 -4 19q2 4 6 6q195 131 195 274q0 37 -20.5 55.5t-51.5 14.5q-14 -2 -14 10q2 10 16 25q68 61 123 61z" />
<glyph unicode="&#x201e;" horiz-adv-x="708" d="M207 256h2q35 0 54.5 -35t19.5 -82q0 -111 -99.5 -235.5t-210.5 -177.5q-43 -18 -61 -19q-16 -2 -18.5 6t14.5 17q94 66 158.5 153.5t64.5 184.5q0 63 -55 84q-14 2 -14.5 10t10.5 14q86 51 102.5 65.5t32.5 14.5zM514 256h2q35 0 54.5 -35t19.5 -82 q0 -113 -100.5 -236.5t-210.5 -176.5q-37 -18 -60 -19q-16 -2 -18 6t12 17q94 63 159.5 151t65.5 187q0 66 -57 84q-8 2 -11 6t0 9t9 9q86 51 102.5 65.5t32.5 14.5z" />
<glyph unicode="&#x2022;" horiz-adv-x="739" d="M457 659q29 16 39 10.5t6 -34.5q-8 -49 20.5 -138t71.5 -126q10 -10 -6 -39q-35 -51 -132.5 -118t-140.5 -67q-53 0 -114.5 101.5t-59.5 187.5q2 53 17 64q6 4 16 8q150 57 283 151z" />
<glyph unicode="&#x2026;" horiz-adv-x="1603" d="M274 207q-12 -80 33 -144q12 -10 -6 -26q-25 -23 -65.5 -46.5t-59.5 -23.5q-45 0 -67.5 51.5t-18.5 94.5q4 23 16 30q14 10 65.5 37t80.5 35q10 4 17 2t5 -10zM811 207q-12 -82 35 -144q8 -12 -8 -26q-25 -23 -66 -46.5t-59 -23.5q-45 0 -67.5 51.5t-18.5 94.5 q4 23 16 30q14 10 65.5 37t79.5 35q10 4 17.5 2t5.5 -10zM1352 207q-8 -37 3 -79t29 -65q10 -10 -8 -26q-23 -23 -64.5 -46.5t-60.5 -23.5q-45 0 -67.5 51.5t-16.5 94.5q0 23 15 30q74 49 145 72q10 4 18.5 2t6.5 -10z" />
<glyph unicode="&#x202f;" horiz-adv-x="335" />
<glyph unicode="&#x2039;" horiz-adv-x="632" d="M301 375h-2q41 -35 82 -95.5t57 -111.5q12 -47 11 -74q-2 -14 -17.5 -40.5t-30.5 -37.5q-14 -14 -14 0q-18 102 -105 204t-171 134q-12 4 -5 15q20 29 44 41q145 74 245.5 179t141.5 183q8 18 14 4q6 -10 9 -31.5t-3 -33.5q-55 -145 -252 -310q-18 -14 -4 -26z" />
<glyph unicode="&#x203a;" horiz-adv-x="632" d="M332 418q-41 35 -81 96t-56 111q-12 47 -11 73q2 14 16.5 41t28.5 37q14 12 15 0q18 -102 106 -203.5t172 -134.5q10 -2 4 -14q-20 -29 -43 -39q-147 -76 -247.5 -181.5t-141.5 -183.5q-6 -14 -14 -4q-6 10 -8 32t2 34q55 141 254 309q14 15 4 27z" />
<glyph unicode="&#x205f;" horiz-adv-x="421" />
<glyph unicode="&#x20ac;" d="M760 1253h2q135 0 188 -57q27 -31 25 -59q0 -23 -12 -43q-33 -80 -41 -111q-4 -12 -20.5 -26.5t-22.5 -14.5q-4 0 -5 10q16 106 0 144q-35 88 -168 88t-235 -107q-106 -111 -149 -301q-6 -31 20 -31q55 -2 178 -2q233 0 369 17q12 0 -2 -17q-49 -53 -221 -67 q-141 -12 -369 -8q-8 -66 -10 -99q-2 -12 5 -20t17 -6h127q242 0 377 16q14 0 -2 -16q-51 -53 -225 -68q-96 -8 -303 -8q2 -115 23.5 -204t89 -158.5t175.5 -69.5q98 0 160 57q57 49 119 166q4 12 12 4q14 -20 4 -61q-16 -59 -63 -138q-16 -29 -49 -47q-88 -59 -236 -59 q-193 0 -293 133t-96 381q-82 4 -121 16q-12 4 -4 15q8 8 47 29.5t51 25.5q4 -2 15.5 -3t15.5 -1q6 68 19 123q-35 2 -62 10q-18 6 -6 14q33 27 88 54q70 215 217 350q80 74 180.5 111.5t190.5 37.5z" />
<glyph unicode="&#x2122;" horiz-adv-x="716" d="M281 1145l-2 -80v-72q0 -6 8 -8q45 -4 55 -8q6 -4 4 -6q-25 -25 -31 -25q-12 4 -67 4q-51 0 -111 -8q-4 4 0 8q14 18 29 21q2 0 12 2t12 4q8 2 17 10q16 14 16 125q0 33 -10 33h-49q-2 0 -5 -4t-9.5 -15.5t-14.5 -23.5q-12 -18 -26 -19q-6 2 -7 4q8 23 19 91q0 10 22 24 q4 4 7 0q2 -12 16 -14q20 -8 96 -8q70 0 84 6q6 2 22.5 9t24.5 9q6 4 6 -4q-16 -33 -16 -86q0 -16 -18 -33q-6 -6 -7 2q-6 27 -12 64q0 4 -10 4zM516 1122h-2q0 -53 -25 -127q-2 -6 2.5 -8t14.5 -4q6 0 35 -8q6 -2 2 -6q-23 -23 -29 -21t-59 2q-41 0 -66 -4q-2 4 0 6 q14 18 25 23q37 12 43 26q23 39 22 117q0 27 -14 27h-49q-8 0 -4 8q8 14 26 21q66 16 99 16q2 0 12 -10q14 -33 61 -119q4 -4 8 0q6 10 30 46l34 50t12 14q8 4 32 8.5t48.5 6.5t26.5 2q4 0 8 -4q-8 -20 -21 -21q-27 -6 -36 -24.5t-9 -63.5q0 -47 9 -78q6 -18 24 -20 q25 -4 37 -4q10 0 2 -8q-18 -18 -31 -19q-10 0 -34.5 1t-28.5 1q-27 0 -59 -4q0 12 2 14q25 10 26 72q4 61 4 92h-4q-33 -47 -74 -149q-10 -27 -28 -33q-6 -2 -8 4q-21 86 -64 178z" />
<glyph unicode="&#xe000;" horiz-adv-x="865" d="M0 865h865v-865h-865v865z" />
<glyph unicode="&#xfb01;" horiz-adv-x="1021" d="M776 1415h2q86 0 113 -63q18 -41 -6 -99q-2 -14 -10.5 -14t-14.5 10q-47 72 -182 72q-125 0 -203 -139q-63 -119 -98 -387q-2 -33 24 -33q279 0 398 31q70 18 119 53q16 8 18 -4q0 -10 -10 -25q-47 -78 -66 -162q-39 -176 -59 -409q-12 -131 28 -131q66 0 162 145 q20 35 25 2q0 -39 -31 -82q-33 -57 -134 -138t-153 -81q-14 0 -25 20.5t-15.5 63.5t6.5 111q35 289 67 462q18 86 41 117q-47 -23 -108 -30q-82 -14 -271 -25q-29 0 -35 -37q-4 -29 -10 -94.5t-15 -148.5t-22 -179q-31 -246 -76 -380t-139 -238q-150 -168 -321 -168 q-53 0 -86 22q-35 18 -53.5 62.5t-16.5 91.5q0 8 3 13t7 3t9 -12q20 -43 79.5 -66.5t124.5 -23.5q53 0 95.5 18.5t72 44t54 79.5t39 97t28.5 127t21.5 139.5t19.5 162.5q25 215 45 452q2 18 -6 24.5t-29 6.5q-66 0 -139 12q-25 4 -27 7t9 12q66 57 102 57q6 0 36 -3t44 -3 q29 0 29 24q47 332 239 496q156 137 301 137z" />
<glyph unicode="&#xfb02;" horiz-adv-x="1042" d="M762 1409h2q31 0 59.5 -19.5t42.5 -48.5q47 61 148 82q41 6 12 -24q-57 -61 -86 -209q-31 -139 -71 -415.5t-58 -489.5q-8 -86 -3 -129t32 -43q55 0 188 174q12 14 17.5 11t3.5 -19q-8 -51 -27 -80q-70 -96 -169 -166t-138 -70q-78 0 -39 305q66 479 67 492 q-57 -37 -141 -55q-92 -20 -213 -27q-29 0 -33 -35l-43 -420q-29 -231 -77 -374.5t-140 -241.5q-158 -172 -319 -172q-55 0 -88 20q-35 18 -56.5 63.5t-21.5 94.5q0 20 12 10q4 -4 8 -12q20 -39 85 -62.5t128 -23.5q125 0 192.5 101.5t108.5 387.5q39 248 70 631 q2 18 -4 23.5t-25 7.5q-70 0 -147 12q-31 4 -12 19q74 61 96 57q68 -6 82 -6q29 0 28 26q27 182 88.5 299t190.5 222q51 39 125 71.5t125 32.5zM694 1317h-2q-70 0 -133 -41t-94 -107q-63 -135 -90 -376q-2 -33 24 -33q233 -6 351 45l30 207q20 137 25 159q18 84 33 117 q-50 29 -144 29z" />
<glyph unicode="&#xfb03;" horiz-adv-x="1568" d="M715 1364h2q49 0 76.5 -32t29.5 -83q0 -12 -4 -16t-10 0q-51 45 -152 45q-125 0 -189.5 -128t-90.5 -355q-2 -18 4 -26.5t18 -6.5q213 -8 342 -2q27 0 31 26q45 287 184 443q168 186 353 186q53 0 93 -25.5t40 -60.5q0 -47 -60 -96q-18 -14 -24 2q-31 90 -152 90 q-117 0 -192 -137q-84 -170 -105 -395q-6 -33 25 -33q252 0 405 37q57 12 115 49q16 10 16 -6q0 -8 -6 -21q-49 -84 -65 -162q-37 -158 -62 -411q-12 -133 29 -133q35 0 81 48t79 97q23 31 24 2q0 -35 -28 -80q-35 -57 -135.5 -138t-151.5 -81q-16 0 -27.5 20.5t-14.5 63.5 t7 111l14 109q12 93 26.5 191.5t27.5 166.5q18 82 43 118q-43 -23 -109 -34q-76 -14 -280 -25q-33 -4 -35 -33q-20 -131 -53 -370.5l-43 -309.5q-31 -240 -31 -270q0 -29 33 -29q18 0 53 -3t69.5 -8t38.5 -5q10 -2 11.5 -8t-4.5 -11q-74 -53 -95 -53q-180 0 -204 -2 q-156 -10 -256 -41q-16 -4 -18.5 2t9.5 17q49 49 152 77q33 10 47 39q20 49 59 258q47 305 99 715q2 16 -7.5 23.5t-27.5 7.5h-328q-31 0 -35 -37q-6 -66 -21 -203l-24 -211q-20 -143 -36.5 -232t-58.5 -201.5t-101 -180.5q-162 -184 -338 -184q-53 0 -88 20 q-35 18 -56.5 62.5t-21.5 91.5q0 14 7 16t15 -12q20 -39 79 -64.5t126 -25.5q131 0 196.5 112.5t106.5 372.5q35 209 74 651q2 16 -6 22.5t-27 6.5q-76 0 -147 16q-35 8 -21 21q82 59 105 55q45 -8 88 -8q27 0 26 22q47 301 250 474q123 102 232 102z" />
<glyph unicode="&#xfb04;" horiz-adv-x="1574" d="M709 1364h2q90 0 90 -61q0 -16 -20.5 -50t-30.5 -43l-7 -2q-6 -4 -10 -6t-6 4q-23 61 -96 62q-102 0 -164 -115q-66 -111 -90 -358q-4 -33 24 -33q268 -6 338 -2q25 0 29 26q20 137 60 237.5t120 195.5q66 80 164 135t186 55q33 0 63 -19.5t42 -48.5q23 29 69 52.5 t78 29.5q18 4 20.5 -2t-9.5 -22q-20 -25 -30.5 -40.5t-26 -58.5t-29.5 -106q-31 -145 -71 -418.5t-56 -488.5q-8 -88 -2 -132t30 -44q59 0 189 174q12 16 16 13t2 -19q0 -45 -24 -82q-68 -94 -167.5 -165t-140.5 -71q-84 0 -39 307q33 264 66 490q-55 -37 -129 -51 q-76 -18 -225 -25q-31 0 -33 -29q-6 -43 -20.5 -195.5t-20.5 -207.5q-27 -219 -75 -350t-138 -226q-76 -86 -176.5 -137t-198.5 -51q-123 0 -160 119q-166 -170 -321 -170q-57 0 -92 20q-37 18 -57.5 63.5t-20.5 92.5q0 14 6 16t14 -12q18 -39 82 -64.5t129 -25.5 q131 0 197.5 110.5t107.5 378.5q41 279 70 637q2 18 -6 24.5t-29 6.5q-68 0 -147 14q-35 8 -21 21q84 61 103 57q49 -8 90 -8q29 0 29 22q41 295 233 465q47 43 116 77t124 34zM334 -426h2q90 0 154.5 39t105.5 120t65.5 181t40.5 248q25 209 50 491q2 12 -6.5 18.5 t-26.5 6.5q-61 -2 -174 -1t-154 1q-31 0 -35 -37q-33 -326 -43 -405q-55 -440 -180 -590q58 -72 201 -72zM1225 1321h-2q-268 0 -314 -522q-2 -33 25 -33q90 -4 198.5 8t151.5 31l30 195l25 169q12 68 31 117q-43 35 -145 35z" />
</font>
</defs>
</svg>
