<?xml version="1.0" standalone="no"?>
<!DOCTYPE svg PUBLIC "-//W3C//DTD SVG 1.1//EN" "http://www.w3.org/Graphics/SVG/1.1/DTD/svg11.dtd" >
<svg xmlns="http://www.w3.org/2000/svg">
<metadata>
This is a custom SVG webfont generated by Font Squirrel.
Copyright   :  2002 2003 Adobe Systems Incorporated All Rights Reserved
Designer    : Robert Slimbach
Foundry URL : httpwwwadobecomtype
</metadata>
<defs>
<font id="webfontjPQQsgbt" horiz-adv-x="1013" >
<font-face units-per-em="2048" ascent="1425" descent="-623" />
<missing-glyph horiz-adv-x="428" />
<glyph unicode=" "  horiz-adv-x="428" />
<glyph unicode="&#x09;" horiz-adv-x="428" />
<glyph unicode="&#xa0;" horiz-adv-x="428" />
<glyph unicode="!" horiz-adv-x="512" d="M131 975v2q0 125 16 170q14 35 72 61q90 37 187 60q27 6 33.5 0t-5.5 -29q-41 -80 -75.5 -387t-34.5 -449q0 -16 -25 -10q-20 4 -56 27.5t-50 44.5q-8 10 -21.5 78.5t-27 191.5t-13.5 240zM279 268q25 10 32 -12q27 -80 84 -143q25 -29 -10 -64q-102 -86 -141 -86 q-27 0 -65 42t-54 75q-20 41 0 72q14 20 70.5 62t83.5 54z" />
<glyph unicode="&#x22;" horiz-adv-x="602" d="M209 1384q25 6 33 -12t8 -67q0 -76 -17.5 -177.5t-31.5 -134.5q-12 -27 -43 -62.5t-52 -49.5q-31 -18 -20 12q14 49 12 205.5t-20 214.5q14 12 61 38.5t70 32.5zM492 1382q35 12 34 -45q0 -72 -16 -183.5t-39 -156.5q-20 -47 -76 -94q-12 -8 -17 -11t-9 0t-2 19 q8 37 7 194t-16 200q12 16 60.5 43.5t73.5 33.5z" />
<glyph unicode="#" d="M510 426h-145q-20 0 -27 -18q-47 -201 -80 -271q-29 -55 -90 -98q-10 -8 -15.5 -5t-0.5 17q55 143 98 355q2 6 1 10t-3 7t-6 3q-143 0 -191 14q-18 4 -6 13q16 23 56 60.5t49 35.5q61 -8 116 -8q14 0 17 14l34 170q6 20 -16 20q-141 0 -199 17q-16 6 -8 14q18 25 57 59.5 t46 32.5q51 -14 139 -10q16 0 20 14q43 201 54 269q0 16 96 59q10 4 10 -8l-34 -158q-24 -111 -33 -166q-4 -12 14 -18h143q4 0 10.5 9t6.5 13q35 150 59 285q4 14 92 55q16 6 10 -22q-10 -55 -34.5 -159.5t-32.5 -149.5q0 -29 20 -29q139 0 228 25q10 4 10 -3q0 -6 -4 -10 q-96 -119 -266 -119q-14 0 -25 -26l-33 -154q-8 -29 8 -28q131 -2 213 12q8 2 8.5 -5t-8.5 -16q-94 -100 -233 -100q-20 0 -27 -25q-43 -193 -73 -270q-20 -43 -76 -67q-10 -6 -14.5 -1t-0.5 21q27 80 78 322q4 18 -12 18zM586 745h-152q-6 0 -13 -7t-9 -15l-37 -160 q-2 -10 2 -18t8 -8h154q14 0 14 14l39 178q2 4 -1 10t-5 6z" />
<glyph unicode="$" d="M643 1231h2q109 -4 182 -49q72 -39 72 -107q0 -43 -35 -87t-65 -60q-8 -6 -16.5 -5t-8.5 17q4 84 -36 141.5t-126 71.5q-8 -78 -20 -232.5t-14 -177.5q0 -23 18 -28q94 -29 140 -46.5t103.5 -52t81 -83t23.5 -117.5q0 -111 -55 -186.5t-166 -137.5q-92 -51 -191 -74 q-29 -6 -34 -34q-16 -117 -32.5 -158t-53.5 -66q-14 -12 -21.5 -12t-5.5 21q20 121 27 202q4 31 -27 31q-78 0 -159 22.5t-126 55.5q-20 14 -30.5 38.5t0.5 41.5q47 78 75 200q6 33 31 9q16 -16 17 -35q2 -109 51 -174q49 -61 153 -76q27 -4 29 20q20 174 39 390 q0 31 -23 36q-172 53 -244.5 117t-72.5 191q0 90 45 169.5t127 129.5q100 63 211 88q20 6 20 28q8 82 9 117q0 23 77 78q20 12 21 -6l-6 -100q-4 -67 -6 -85q-3 -22 20 -26zM299 936v-2q0 -135 170 -182q23 -6 23 16q29 344 30 393q-96 -6 -159.5 -67.5t-63.5 -157.5z M745 307v2q0 70 -39.5 110t-125.5 68q-10 4 -18.5 -3t-8.5 -17q-25 -221 -37 -361q-2 -16 5 -20t22 -2q96 20 149 79.5t53 143.5z" />
<glyph unicode="%" horiz-adv-x="1380" d="M461 1239h2q43 0 112 -37q96 -39 173 -39q186 0 284 70q12 8 31.5 34.5t26.5 30.5q23 14 116 56q25 8 25 -4q-2 -8 -14 -29q-186 -305 -497.5 -737t-453.5 -580q-61 -57 -127 -72q-23 -4 -23.5 4.5t15.5 24.5q162 176 442.5 559t417.5 606q8 14 3 18.5t-15 -1.5 q-127 -66 -332 -64q-18 0 -12 -16q12 -43 12 -107q-2 -182 -127 -307q-31 -33 -99.5 -67.5t-127.5 -34.5q-106 0 -159.5 74.5t-53.5 183.5q0 147 74 262q45 70 180 137q64 35 127 35zM387 1163h-2q-63 0 -99 -81t-36 -208q0 -90 33.5 -164.5t101.5 -74.5q66 0 98.5 83 t32.5 204q0 57 -9 107t-40 92t-80 42zM1087 684h3q102 0 155 -80t53 -194q0 -123 -38.5 -207t-88.5 -123q-127 -104 -237 -105q-109 0 -165 83t-56 188q0 197 112 309q31 31 119 82q27 16 73.5 31.5t69.5 15.5zM1008 600h-2q-57 0 -91 -75.5t-34 -186.5q0 -141 45 -205.5 t102 -64.5q74 0 104.5 80.5t30.5 179.5q0 106 -38.5 189t-116.5 83z" />
<glyph unicode="&#x26;" horiz-adv-x="1523" d="M698 1266h2q100 0 157.5 -59.5t57.5 -155.5q0 -98 -112 -195q-41 -37 -195 -143q-20 -14 -6 -35q102 -143 270 -299q18 -14 31 8q20 37 54 106.5t51 100.5q131 254 292 254q39 0 74 -20.5t47 -41.5q18 -27 -20 -28q-182 -6 -326 -219l-121 -199q-14 -23 4 -37 q211 -186 340 -186q111 0 191 65q14 12 14 -8q0 -33 -18 -55q-45 -63 -134 -112.5t-184 -49.5q-160 0 -352 170q-18 16 -41 -2q-166 -164 -352 -164q-150 0 -245 82t-95 231q0 139 131 244l88 69l59 46q20 14 7 39q-63 100 -64 215q0 180 166 293q118 86 229 86zM614 1182 h-2q-59 0 -98 -53.5t-39 -139.5q0 -113 68 -221q14 -20 35 -4q164 121 163 258q0 68 -34 114t-93 46zM535 106h2q106 0 188 74q16 14 0 33q-201 205 -297 358q-14 25 -33 4q-96 -88 -96 -210q0 -115 72 -187t164 -72z" />
<glyph unicode="'" horiz-adv-x="323" d="M213 1382h2q20 4 28.5 -12t8.5 -67q0 -74 -17.5 -175.5t-29.5 -130.5q-10 -29 -40 -66.5t-50 -49.5q-16 -10 -22.5 -6t-2.5 20q14 49 10 203.5t-22 212.5q20 16 66 41.5t69 29.5z" />
<glyph unicode="(" horiz-adv-x="774" d="M102 377q6 444 215 772q154 229 308 276q35 8 59 0q6 -2 9 -5t0 -8t-13 -11q-145 -82 -254 -262q-164 -272 -164 -688q0 -166 25.5 -301.5t68.5 -218.5t81 -132t79 -78q55 -41 129 -57q20 -6 2 -24q-49 -55 -117 -56q-74 0 -161.5 62.5t-153.5 179.5q-117 211 -113 551z " />
<glyph unicode=")" horiz-adv-x="774" d="M676 643q-6 -446 -213 -772q-68 -102 -150 -178t-159 -101q-35 -8 -60 5q-18 6 2 18q143 76 258 264q164 276 164 688q0 164 -25.5 299t-67.5 219t-81 133.5t-80 79.5q-59 45 -129 56q-20 6 0 26q18 23 54 38.5t61 15.5q72 0 161 -62.5t152 -179.5q117 -211 113 -549z " />
<glyph unicode="*" horiz-adv-x="710" d="M684 1186q-4 -6 -17 -29l-25 -40q-11 -17 -19 -19q-123 -39 -187 -66q27 -29 103.5 -91t107.5 -77q18 -8 -2 -16q-4 -2 -10 -4q-66 -16 -98 0q-63 33 -136 92q-20 14 -22 -8q-2 -10 -8 -54l-11 -69q-4 -27 -3 -57.5t8 -45.5q6 -12 -13 -12q-47 0 -67 29q-18 23 -15 80 q8 86 21 151q2 12 -2 18.5t-17 2.5q-147 -51 -239 -94q-12 -8 -13 0q0 4 5 12q33 74 67 92l53 24l55 22l62 26q-35 18 -160 151q-10 12 0 27q14 12 47 28.5t44 16.5q55 -84 133 -152q23 104 49 162q14 31 47 49q51 16 90 6q8 -4 0 -12q-49 -53 -88 -205q-2 -8 4 -11t10 -1 q96 45 215 78q25 10 31 0q2 -2 0 -4z" />
<glyph unicode="+" horiz-adv-x="1142" d="M616 870h2q12 0 13 -71q0 -25 -1 -125.5t-1 -169.5q0 -31 22 -31q51 -2 131 1t147.5 6t80.5 3q20 0 8 -18q-10 -14 -51 -44t-60 -32q-147 -25 -245 -24q-37 0 -37 -43q0 -45 -13 -273q-2 -27 -36.5 -61.5t-59.5 -46.5q-4 -2 -7 1t-3 11v350q0 61 -45 62q-248 0 -318 16 q-23 6 -10 20l27 40l30 46q12 16 23 11q72 -27 281 -27q12 0 12 18q0 229 -17 320q8 8 61.5 34.5t65.5 26.5z" />
<glyph unicode="," horiz-adv-x="440" d="M356 150v-3q0 -115 -92 -244.5t-209 -185.5q-43 -25 -84 -24q-33 0 -4 22q205 166 205 355q0 49 -22.5 75.5t-49.5 32.5q-16 4 -19 14.5t15 22.5q98 63 109 72q18 18 45 18q51 0 78.5 -44.5t27.5 -110.5z" />
<glyph unicode="-" horiz-adv-x="712" d="M90 373q70 104 82 104h84q229 14 373 55q10 4 8 -6q0 -6 -4 -14q-20 -35 -57 -68.5t-66 -44.5q-59 -23 -192.5 -41t-182.5 -18q-41 2 -49 7.5t4 25.5z" />
<glyph unicode="." horiz-adv-x="440" d="M309 258q-6 -109 49 -172q14 -12 0 -31q-27 -29 -72.5 -56.5t-68.5 -27.5q-57 0 -92 61.5t-35 117.5q0 23 14 34q16 12 79 43t98 41q28 8 28 -10z" />
<glyph unicode="/" horiz-adv-x="894" d="M829 1354q12 2 14.5 -3t-3.5 -22q-100 -287 -316.5 -796.5t-326.5 -702.5q-12 -16 -62.5 -46t-66.5 -30q-8 -2 -9.5 2t4.5 15q127 231 331 723.5t304 787.5q4 10 54 38t77 34z" />
<glyph unicode="0" d="M608 1245h2q94 0 165 -52t108 -139t54 -182.5t17 -195.5q0 -229 -72.5 -383t-179.5 -223q-141 -100 -268 -101q-131 0 -218 82t-123 204t-36 273q0 383 176 549q74 72 197 125q94 43 178 43zM475 1141h-2q-63 0 -119 -56q-92 -96 -92 -432q0 -90 14.5 -183t45 -186.5 t89 -151.5t136.5 -58q57 0 104 41q94 90 94 442q0 92 -14 187.5t-44 187.5t-85 150.5t-127 58.5z" />
<glyph unicode="1" d="M428 623v2q0 358 -12 397q-4 20 -31 16q-117 -18 -215 -22q-14 0 -20.5 3t0.5 11q66 53 81 57q301 61 418 160q12 10 17 -4q0 -6 -2 -14q-27 -80 -27 -617q0 -432 16 -489q6 -20 37 -25q129 -10 213 -32q23 -8 10 -19q-27 -29 -55.5 -47t-38.5 -18q-162 16 -295 18 q-209 0 -377 -29q-16 -4 -19 -1t3 16q6 8 36 28.5t42 26.5q66 27 164 47q18 4 26 35q29 101 29 500z" />
<glyph unicode="2" d="M537 1245h2q152 0 234.5 -102.5t82.5 -229.5q0 -129 -66.5 -246.5t-189.5 -258.5q-33 -37 -211 -211q-14 -12 4 -21q94 -29 338 -29q154 0 248 109q23 29 22 -2q0 -25 -20 -59q-147 -213 -393 -213q-104 0 -239.5 8t-158.5 8q-74 0 -114 -4q-23 0 -15 14q53 84 103 111 q182 90 323.5 294.5t141.5 395.5q0 129 -59.5 222t-180.5 93q-90 0 -143 -71.5t-53 -157.5q0 -61 8 -94q4 -14 0 -20.5t-17 -4.5q-39 4 -71.5 39t-32.5 80q0 49 51 117.5t109 111.5q160 121 297 121z" />
<glyph unicode="3" d="M559 1245h2q123 0 199 -72.5t76 -179.5q0 -109 -109 -198q-12 -10 -111 -78q-23 -18 9 -27q129 -31 182 -72q55 -37 84 -84t29 -124q0 -225 -285 -396q-199 -115 -350 -114q-137 0 -183 63q-29 33 -2 74q23 25 45 104q4 10 10.5 14.5t11.5 -0.5t7 -16q10 -45 35 -71 q63 -63 201 -64q133 0 214 83t81 206q0 115 -73 183.5t-212 68.5q-72 0 -133 -27q-10 -4 -12.5 5t4.5 20q25 61 63 80q78 33 119 53t86 54t64.5 76t19.5 97q0 84 -52.5 140.5t-138.5 56.5q-80 0 -158.5 -53.5t-134.5 -126.5q-18 -27 -18 4q0 45 23 80q55 92 164.5 166.5 t242.5 74.5z" />
<glyph unicode="4" d="M711 1278q-39 -127 -207 -405.5t-279 -411.5q-6 -6 -1 -18.5t20 -16.5q145 -31 303 -31q31 0 31 25q4 270 -21 336q-10 20 12 30q92 29 189 119q31 31 30 -22q-4 -350 -10 -457q0 -31 21 -31q145 0 231 62q14 10 14 -6q-2 -18 -14 -33q-84 -98 -237 -115q-20 0 -21 -43 q0 -76 -12 -166q-10 -72 -28.5 -100.5t-74 -61t-90.5 -41.5q-29 -10 -26 7q0 2 2 4q27 82 32 336q0 35 -7 45t-25 10q-102 2 -255 13t-173 11q-59 4 -88 -14q-18 -12 -18.5 8.5t34.5 55.5q150 152 308.5 404.5t197.5 393.5q2 8 51 57.5t88 82.5q27 20 30 12t-7 -39z" />
<glyph unicode="5" d="M588 1161h2q236 0 330 113q31 39 30 -6q0 -31 -18 -60q-72 -123 -177.5 -175t-267.5 -52q-78 0 -125 6q-27 4 -28 -24q-18 -121 -49 -242q-6 -31 32 -33q43 -4 145.5 -16.5t149.5 -16.5q150 -18 228 -78.5t78 -183.5q0 -119 -75 -206t-196 -164q-195 -123 -381 -123 q-70 0 -122 21.5t-64 60.5q-16 31 6 65q35 57 49 100q4 14 11.5 18.5t12.5 -0.5t5 -18q2 -39 35 -75q61 -66 204 -66q145 0 222 80t77 186q0 111 -63.5 158t-222.5 66q-168 23 -240 2q-37 -10 -24 24q35 88 60.5 278.5t16.5 303.5q-2 14 29 53t53 60q16 10 21 2 q43 -58 256 -58z" />
<glyph unicode="6" d="M686 721h2q127 0 196.5 -79t69.5 -208q0 -225 -247 -379q-131 -82 -267 -82q-156 0 -252 103q-123 123 -122 379q0 440 340 702q80 63 189.5 107.5t201.5 44.5q78 0 121 -29q45 -29 63 -82q6 -18 -1 -21t-15 3q-66 41 -207 41q-203 0 -326 -140q-152 -168 -151 -497 q0 -274 116 -406q78 -88 197 -88q84 0 132 59.5t48 161.5q0 125 -68.5 187.5t-162.5 62.5q-84 0 -172 -67q-18 -12 -19 4q0 39 31 65q184 158 303 158z" />
<glyph unicode="7" d="M659 1171h3q233 0 272 84q12 23 22 -2q4 -10 5 -24q2 -51 -33 -142q-37 -86 -92 -180q-270 -469 -410 -766q-53 -113 -61 -223q-2 -27 -35 -18q-35 8 -68 40.5t-31 67.5q0 51 93 191q236 362 454 762q12 27 8 38t-22 7q-117 -23 -389 -23q-168 0 -219.5 8t-76 23.5 t-22.5 48.5q4 35 49.5 103.5t67.5 84.5q20 18 29 -2q25 -49 106.5 -63.5t349.5 -14.5z" />
<glyph unicode="8" d="M621 1290h2q133 0 202.5 -68.5t69.5 -177t-96 -200.5l-152 -129q-14 -14 4 -29l70 -40l69 -39q24 -13 56.5 -38.5t48.5 -48t28.5 -55.5t12.5 -72q0 -195 -268 -352q-127 -72 -242 -72q-145 0 -248.5 63.5t-103.5 207.5q0 86 80 166q61 61 192 167q18 14 -4 31 q-182 111 -182 270q0 184 200 316q155 100 261 100zM516 1192h-2q-68 0 -117 -45q-68 -57 -67 -160q0 -145 219 -246q25 -12 49 4q127 96 127 222q0 88 -56.5 156.5t-152.5 68.5zM541 74h2q76 0 135 43q63 47 63 129q0 27 -8 52.5t-16 43.5t-32 42l-35 35q-11 11 -47 34 l-48 30q-12 8 -56 33l-55 31q-23 14 -41 -4q-55 -41 -94 -102.5t-39 -121.5q0 -106 74 -175.5t197 -69.5z" />
<glyph unicode="9" d="M559 1245h2q98 0 173 -44t118 -117.5t63.5 -158.5t20.5 -177q0 -461 -307 -703q-203 -168 -398 -168q-92 0 -135 33q-55 45 -55 102q-2 12 3 17.5t13 -2.5q70 -57 224 -58q209 0 329 160q115 135 115 487q0 119 -30.5 233t-78.5 181q-78 111 -184 111q-84 0 -129 -67.5 t-45 -174.5q0 -131 70.5 -206t173.5 -75q86 0 155 62q12 8 15.5 2t-0.5 -18q-10 -43 -41 -70q-125 -123 -273 -123q-125 0 -206.5 77t-81.5 224q0 223 206 367q160 106 283 106z" />
<glyph unicode=":" horiz-adv-x="501" d="M303 801h2q23 4 29 -27q6 -41 25.5 -85t35.5 -56q16 -16 4 -35q-31 -45 -90 -82q-31 -18 -51 -18q-47 0 -83 45t-46 98q-14 47 16 74q23 23 79 53.5t79 32.5zM342 258q-2 -47 13.5 -97t37.5 -75q14 -12 0 -31q-27 -29 -73 -56.5t-68 -27.5q-57 0 -93 61.5t-36 117.5 q0 25 16 34q16 12 80 43t96 39q10 4 19.5 2t7.5 -10z" />
<glyph unicode=";" horiz-adv-x="507" d="M301 801h2q20 0 29 -25q23 -106 63 -139q16 -16 2 -35q-33 -51 -90 -84q-31 -20 -49 -20q-45 0 -79 45t-48 96q-8 27 -5 39t24 35q20 20 77.5 54t73.5 34zM389 152v-2q0 -115 -92 -245t-209 -188q-53 -23 -84 -22q-14 0 -16 5t12 15q205 166 205 357q0 49 -22.5 75.5 t-49.5 30.5q-10 2 -14 8.5t-1 13.5t11 13q63 37 109 76q20 16 43 16q53 0 80.5 -43.5t27.5 -109.5z" />
<glyph unicode="&#x3c;" horiz-adv-x="983" d="M143 455q203 63 364 167.5t335 260.5q16 14 16 -11q0 -12 -9 -43.5t-18 -42.5q-74 -90 -204.5 -192t-218.5 -152q-6 -2 -6.5 -13t8.5 -13q96 -53 223 -163t160 -169q23 -45 -17 -123q-4 -12 -9 -14t-9 1t-15 13q-260 293 -571 408q-23 12 -39 57q0 25 10 29z" />
<glyph unicode="=" horiz-adv-x="1142" d="M1018 649h2q18 2 8 -10q-12 -18 -51 -50t-49 -34q-152 -23 -490 -23q-209 0 -280 11q-20 6 -11 22l66 76q18 20 31 18q39 -12 178 -16q358 -4 596 6zM997 301h2q10 2 12.5 -1t-3.5 -9q-14 -20 -51 -51t-48 -33q-162 -23 -491 -23q-227 0 -283 13q-18 2 -8 20l66 74 q16 20 30 18q63 -14 180 -14q361 -2 594 6z" />
<glyph unicode="&#x3e;" horiz-adv-x="983" d="M840 365q-205 -66 -360.5 -166.5t-329.5 -253.5q-20 -20 -21 4q0 12 10.5 46t18.5 44q76 90 203.5 191.5t213.5 148.5q6 2 6.5 12t-8.5 17q-94 51 -219 160.5t-157 168.5q-10 18 -7 56t17 69q10 25 33 0q264 -295 575 -411q18 -4 37 -54q0 -28 -12 -32z" />
<glyph unicode="?" horiz-adv-x="831" d="M506 1266q121 2 184.5 -63.5t63.5 -160.5q0 -90 -46 -159.5t-159 -184.5q-109 -104 -109 -202q0 -47 21 -82q16 -20 -12 -21q-63 0 -106.5 31t-43.5 88q0 25 20.5 63.5t41 68.5t75.5 104q82 113 82 225q0 86 -45 134t-111 48q-70 0 -113.5 -50t-43.5 -124q0 -72 10 -96 q4 -8 -1 -13.5t-19 -5.5q-43 -2 -77 28t-34 75q0 80 147 180q156 117 275 117zM420 268q31 16 35 -14q20 -88 77 -148q20 -20 -10 -49q-27 -29 -75 -60.5t-72 -31.5q-29 0 -65 43t-50 80q-10 29 -9 42t15 32q16 20 70.5 57t83.5 49z" />
<glyph unicode="@" horiz-adv-x="1677" d="M1014 817h2q41 0 65 -24q14 -14 21 -5q2 4 18 21q61 37 99 45q8 2 12 0t2 -7t-8 -13q-33 -47 -70 -215t-39 -308q-6 -197 92.5 -196.5t189.5 121t91 327.5q0 246 -135 386.5t-389 140.5q-276 0 -476 -183q-231 -223 -231 -604q0 -260 138.5 -415.5t383.5 -155.5 q238 0 402 139q12 10 16 8t0 -18q-8 -37 -33 -60q-201 -178 -493 -178q-260 0 -413 169t-153 446q0 469 402 757q106 80 247.5 131.5t278.5 51.5q262 0 412.5 -149.5t150.5 -407.5q0 -193 -95 -341.5t-242 -228.5q-100 -51 -181 -51q-70 0 -100 74q-25 61 -21 192 q2 20 -6 20.5t-16 -12.5q-92 -133 -217 -217q-84 -57 -148 -57q-31 0 -58.5 46t-27.5 138q0 106 40 221t102 191q33 41 115.5 98.5t144.5 85.5q72 37 127 37zM930 725h-2q-82 0 -135 -59q-49 -59 -86 -165t-37 -222q0 -125 51 -125q49 0 117.5 80.5t113.5 179.5 q14 37 42 136t36 122q8 27 -12 37q-33 16 -88 16z" />
<glyph unicode="A" horiz-adv-x="1470" d="M627 397h-2q-51 0 -117 6q-33 6 -45 -26q-92 -184 -113 -234q-16 -41 19 -47q119 -14 166 -30q20 -8 6 -23q-66 -55 -92 -55q-20 4 -82 8q-70 4 -123 4q-104 0 -242 -16q-8 0 -11 1t-3 5t3 8t9 10q29 29 51 45q6 4 88 29q31 8 66 49q74 92 153 270q12 23 0 41 q-10 18 0 27q23 27 58 63q16 16 24 37q121 260 183 416q33 82 43 125l7 29q5 20 9 32.5t10 18.5q113 90 162 110q7 4 12 4q3 0 5 -1q5 -4 -1 -23q-8 -16 -8 -52t4 -61q8 -41 58 -198q70 -205 163 -428.5t154 -331.5q70 -121 139 -131q31 -8 109 -17q17 0 17 -6t-15 -18 q-33 -31 -66.5 -40t-99.5 -9q-229 8 -244 8q-80 0 -120 -8q-16 -4 -18.5 3t7.5 19q18 29 54 58q23 20 8 53q-12 33 -58 143l-59 148q-10 31 -37 22q-92 -37 -231 -37zM731 506h2q59 0 92 4q26 3 27 21q0 4 -2 10q-117 334 -135 393q-2 6 -7 11q-3 3 -7 3l-4 -1q-5 -3 -9 -15 q-63 -168 -151 -381l-2 -6q0 -14 24 -23q41 -16 172 -16z" />
<glyph unicode="B" horiz-adv-x="1267" d="M639 1288h2q246 0 346 -69.5t100 -206.5q0 -127 -104 -209q-29 -20 -119 -66q-29 -14 2 -18q133 -23 209 -68q109 -68 109 -221q0 -213 -275 -340q-223 -100 -571 -100q-129 0 -215 6q-18 4 -4 16q37 43 98 64q31 10 37 49q25 111 25 410q0 399 -21 534q-2 37 16 66 q8 12 9.5 17t-5 7t-20.5 2q-84 -4 -225 -35q-15 -2 -15 4q0 4 7 11q41 53 88 67q94 31 249.5 55.5t276.5 24.5zM569 1194h-2q-23 0 -47 -4q-27 -8 -26 -45q0 -35 1 -196t1 -230q0 -39 26 -25q35 18 58 23q98 12 129 12q29 0 63 25q90 57 90 190q0 121 -77 185.5t-216 64.5z M621 639h-3q-49 0 -86 -12q-23 -6 -28.5 -13.5t-7.5 -27.5q0 -209 -2 -293q-2 -119 -19 -154q-5 -9 -5 -15q0 -15 26 -20q57 -10 137 -10q127 0 214 63.5t87 192.5q0 141 -86 215t-227 74z" />
<glyph unicode="C" horiz-adv-x="1384" d="M928 1292h2q166 0 268 -49q90 -41 92 -88q4 -29 -8 -55q-35 -78 -55 -150q-10 -43 -39 -51q-6 -2 -10 2t-4 14q-6 127 -44 172q-88 109 -315 109q-193 0 -311 -109q-160 -154 -160 -438q0 -279 150 -442q66 -72 170 -113t219 -41q131 0 225 68q92 74 166 205q8 18 18 10 q6 -4 12 -26q4 -15 3 -27q0 -97 -90 -209q-31 -35 -78 -56q-61 -25 -168 -46t-201 -21q-139 0 -257 32.5t-215 101.5t-153.5 190.5t-56.5 287.5q0 178 74 312.5t186 218.5q109 84 271 141t309 57z" />
<glyph unicode="D" horiz-adv-x="1519" d="M707 1286h2q221 0 344 -38t217 -120q162 -143 162 -432q0 -186 -83 -319t-184 -197q-299 -203 -770 -203q-197 0 -284 9q-37 4 -15 20q76 61 111 70q35 10 45 51q27 84 27 397q0 483 -33 596q-8 33 -49 33q-70 0 -197 -25q-15 -2 -15 4q0 4 7 11q66 61 100 69 q92 25 292 49.5t323 24.5zM635 1188h-2q-84 0 -111 -8q-31 -6 -30 -33q8 -246 8 -442q0 -175 -6.5 -364t-6.5 -207q0 -11 8 -17q9 -8 29 -13q57 -12 154 -12q266 0 390 128t124 380q0 268 -137 428t-420 160z" />
<glyph unicode="E" horiz-adv-x="1181" d="M279 547v2q0 504 -37 590q-6 16 -39 22q-141 20 -152 23q-27 5 -27 13q0 4 9 9q107 59 118 60q27 0 93 -7.5t102 -9.5q135 -6 367 -6q221 0 303 49q6 3 10 3t5 -3q3 -6 -1 -18q-38 -115 -37 -261v-42q0 -12 -3 -15.5t-11 -1.5q-47 18 -59 56q-14 35 -41 123 q-14 33 -23 32h-6q-115 -25 -318 -24q-23 0 -29.5 -6.5t-6.5 -24.5q4 -109 4 -381q0 -18 24 -31q49 -20 246 -20q80 0 100 24q4 4 15.5 23.5t19.5 28.5q10 12 76 39q14 8 18.5 5t-2.5 -20q-49 -125 -49 -344q0 -12 -7 -14t-19 10q-39 35 -60 129q-4 12 -6 17.5t-8 9.5t-17 4 q-104 -16 -317 -17q-16 0 -16 -45q0 -70 -4.5 -211t-4.5 -174q0 -43 43 -53q77 -10 154 -10l154 10q92 14 143 49q70 49 125 180q14 25 25 9q14 -22 13 -51q0 -10 -1 -21q-14 -92 -90 -188q-74 -82 -154 -82q-74 0 -258 8q-276 6 -303 6q-225 0 -301 -16q-3 -1 -6 -1 q-8 0 -8 6q0 5 6 13q39 43 69 53q49 20 119 33q18 4 33 35q27 68 27 424z" />
<glyph unicode="F" horiz-adv-x="1120" d="M713 1243h2q217 0 317 53q7 4 11 5q4 0 6 -4q2 -3 1 -6q0 -6 -3 -15q-38 -118 -39 -258q0 -25 2 -51q0 -16 -5.5 -19.5t-11.5 0.5q-12 4 -34.5 26.5t-26.5 35.5q-25 49 -41 123q-8 37 -37 30q-131 -23 -311 -22q-25 0 -34 -6.5t-9 -24.5q2 -109 2 -412q0 -29 24 -32 q68 -23 258 -23q51 0 75 10.5t50 46.5q25 31 90 50q10 4 14.5 1t0.5 -14q-45 -156 -45 -334q0 -35 -29 -8q-25 20 -37 47q-18 33 -29 90q-10 29 -30 27q-119 -17 -265 -17q-29 0 -59 1q-20 0 -20 -43q0 -238 -2 -350q0 -49 41 -54q154 -16 194 -35q20 -4 4 -14 q-33 -31 -64.5 -47t-43.5 -14q-10 2 -92 10q-82 4 -175 4q-186 0 -309 -23q-10 -2 -15.5 -2t-6.5 2q0 4 8 15q23 37 65 57q43 18 115 39q25 6 33 39q27 66 27 405q0 18 -13 25q-8 2 -41 18q-14 8 0 25q8 12 25.5 34.5t19.5 24.5q10 16 11 35q0 369 -31 441q-12 18 -31 24 q-98 12 -170 27q-12 2 -17 5q-4 3 -5 6q0 5 10 9q94 60 120 60h3q123 -23 553 -23z" />
<glyph unicode="G" horiz-adv-x="1517" d="M950 1292h2q182 0 299 -51q92 -49 92 -104q0 -12 -10 -33q-47 -86 -57 -158q-2 -18 -20.5 -38.5t-32.5 -22.5q-12 0 -9 22q1 10 1 20q0 105 -62 169q-104 109 -326 108q-160 0 -284 -86q-199 -139 -199 -467q0 -139 39 -249.5t97.5 -176t135 -107.5t144 -57.5 t133.5 -15.5q94 0 154 23q27 12 28 47q0 178 -4 293q-2 23 -12 30.5t-37 7.5q-119 0 -242 25q-25 4 -6 21q94 68 121 67q123 -16 252 -16q203 0 336 32q10 4 14 0q1 -1 1 -3q0 -5 -5 -13q-16 -31 -49 -53q-29 -14 -94 -39q-25 -12 -37 -43q-18 -51 -19 -180q0 -59 13 -92 q13 -24 64 -25q14 0 30 2q23 0 12 -16q-14 -31 -51 -41q-68 -23 -141 -43q-328 -78 -482 -78q-317 0 -477 151q-174 164 -174 453q0 213 107.5 371.5t300.5 253.5q225 112 454 112z" />
<glyph unicode="H" horiz-adv-x="1630" d="M279 580v2q0 461 -17 544q-4 29 -47 31q-109 10 -156 21q-16 4 -6 14q20 12 46 29.5t39.5 25.5t19.5 8q27 0 90 -6q135 -6 162 -6q152 0 278 19q8 2 10 -3.5t-2 -9.5q-4 -12 -24.5 -31.5t-36.5 -27.5q-33 -12 -80 -23q-37 -8 -45 -43q-10 -55 -10 -272v-96q0 -33 41 -45 q88 -18 307 -19q211 0 262 10q23 6 23 56q0 242 2 362q0 27 -35 31q-82 4 -154 20q-25 4 -8 17q86 68 105 67h1q12 0 48 -3t55 -5q74 -4 94 -4q186 0 338 27h4q9 0 4 -8q-16 -37 -51 -58q-25 -14 -92 -33q-31 -8 -44.5 -19t-21.5 -44q-27 -109 -26 -475q0 -397 28 -500 q8 -29 62 -37q131 -14 155 -24q12 -3 13 -10q0 -5 -8 -11q-68 -57 -93 -57q-8 0 -77 4q-16 0 -56.5 1t-62.5 1q-205 0 -359 -33q-4 -1 -7 -1q-4 0 -5 2q-2 3 2 12q20 33 45 51q27 18 90 43q31 12 40 24.5t11 53.5q2 129 3 411q0 39 -23 39q-82 -16 -297 -16q-242 0 -281 -2 q-33 -2 -32 -62q0 -328 2 -366q2 -55 35 -60q133 -18 170 -30q12 -4 6 -13q-74 -66 -91 -65q-8 0 -43.5 3t-64.5 5q-86 4 -135 4q-170 0 -328 -25q-15 -2 -15 5q0 4 5 10q23 37 53 51q41 20 119 41q25 10 37 55q29 111 29 443z" />
<glyph unicode="I" horiz-adv-x="778" d="M279 635v2q0 406 -15 479q-8 33 -43 35q-88 8 -147 25q-29 4 -6 18q77 64 97 64q1 0 1 -1q43 -6 84 -8q61 -6 151 -6q121 0 314 21q3 1 5 0q4 0 6 -2q1 -2 1 -4q0 -3 -2 -7q-35 -51 -63 -63q-33 -12 -95 -25q-43 -10 -49 -41q-18 -66 -18 -458q0 -395 8 -512 q2 -33 9 -43.5t24 -12.5q125 -16 170 -26q23 -8 8 -17q-74 -66 -100 -66q-2 0 -3 1q-27 4 -88 8q-78 4 -147 4q-195 0 -332 -25q-15 0 -15 6t23 35q16 20 29 27q29 16 113 37q41 10 53 61q27 93 27 494z" />
<glyph unicode="J" horiz-adv-x="733" d="M506 434v-2q0 -229 -36 -370.5t-118 -233.5q-88 -106 -203.5 -171t-207.5 -65q-78 0 -115 46q-37 49 -37 123q0 20 3.5 25t17.5 -5q29 -25 91 -47.5t126 -22.5q98 0 154.5 59.5t78.5 233.5q18 170 19 522q0 444 -21 574q-4 29 -17.5 41t-45.5 16q-121 14 -156 23 q-20 4 -4 16q77 62 101 62q2 0 3 -1q4 0 39 -4t60 -6q86 -4 141 -4q205 0 323 25q2 1 4 0q5 0 5 -5q0 -3 -2 -8q-27 -37 -54 -55q-31 -16 -112 -37q-23 -4 -29 -41q-8 -88 -8 -688z" />
<glyph unicode="K" horiz-adv-x="1454" d="M279 610v2q0 428 -15 508q-6 33 -41 35q-90 8 -151 21q-25 6 -4 22q79 57 97 57h1q6 -2 32.5 -4t43.5 -4q70 -4 135 -4q193 0 328 23q3 1 5 0q5 0 7 -2q2 -4 -6 -13q-35 -47 -58 -57q-29 -12 -98 -27q-37 -10 -43 -41q-16 -135 -16 -489q0 -242 8 -487q4 -53 35 -56 q127 -12 168 -24q20 -6 6 -17q-23 -25 -53.5 -45t-41.5 -20q-27 4 -96 8q-82 4 -151 4q-190 0 -320 -29q-4 -1 -6 0q-9 0 -9 6q0 4 5 7q18 33 53 55q43 20 105 39q43 14 51 53q29 102 29 479zM778 678q49 -94 174 -251t238 -267q72 -68 137.5 -91.5t165.5 -27.5q14 0 14 -7 q0 -2 -2 -5q-25 -41 -61 -45q-82 -12 -158 -13q-197 0 -307 101q-170 152 -387 460q-35 47 -74 76q-13 9 -13 21q0 10 11 14q82 31 154 94q82 70 195.5 190t152.5 183q27 43 -4 47q-18 2 -61.5 8t-55.5 9q-16 4 -17 7t11 13q75 59 91 59q9 0 35 -3l42 -5q14 0 44 -1t46 -1 q164 0 293 21q5 1 8 0q7 0 8 -2q2 -4 -6 -15q-29 -43 -70 -53q-45 -18 -129 -35q-51 -10 -137 -90q-182 -170 -338 -332q-20 -22 0 -59z" />
<glyph unicode="L" horiz-adv-x="1144" d="M281 635v2q0 422 -29 498q-6 20 -41 26q-2 0 -60 9l-83 14q-27 6 -9 18q72 53 97 53l39 -2q39 -4 63 -6q82 -4 141 -4q166 0 316 21q3 1 4 0q4 0 5 -2q1 -4 -3 -11q-18 -43 -68 -61q-31 -10 -88 -23q-47 -10 -53 -55q-10 -137 -10 -475q0 -76 -5 -261.5t-5 -230.5 q0 -49 59 -59q62 -8 126 -8t130 8q94 14 154 61q61 55 112 185q10 23 21 10q20 -20 19 -55q0 -9 -1 -19q-6 -55 -34.5 -114.5t-53.5 -87.5q-39 -45 -69.5 -62.5t-75.5 -17.5q-68 0 -244 8q-258 6 -293 6q-174 0 -299 -16q-6 -1 -10 -1q-10 0 -10.5 4.5t6.5 12.5q20 31 65 51 q43 16 117 33q29 8 41 45q29 92 29 506z" />
<glyph unicode="M" horiz-adv-x="1953" d="M987 408q20 -29 37 -9q61 100 191.5 340t193.5 373q10 20 24.5 58t18.5 51q6 20 41 20q279 0 418 21q3 1 6 0q8 0 8 -5q0 -4 -6 -12q-41 -51 -76 -63.5t-125 -30.5q-49 -14 -59 -47q-15 -50 -15 -218q0 -67 3 -153q18 -526 36 -596q10 -37 39 -39q152 -18 170 -24 q20 -8 6 -19q-74 -66 -100 -65l-88 6q-66 4 -115 4q-195 0 -321 -25q-16 -4 -17 2q0 4 5 9q33 43 53 57q16 12 82 35q27 10 28 47q4 111 11 829q0 12 -4.5 13.5t-12.5 -11.5q-299 -549 -385 -753q-14 -35 -35.5 -71t-32 -49l-46 -55t-37.5 -44q-12 -14 -20 -14h-3 q-8 3 -8 24q0 84 -59 231q-131 344 -338 733q-10 23 -23 15q-4 -4 -4 -10q-8 -156 -26.5 -444t-22.5 -369q0 -45 37 -50q133 -20 164 -28q25 -6 8 -23q-77 -59 -97 -59h-2q-33 4 -77 8q-27 2 -109 2q-170 0 -283 -23q-10 -2 -13 0q-1 1 -1 3q0 3 2 8q8 16 30.5 35.5 t39.5 27.5q14 8 115 35q33 8 49 45q31 84 65.5 369.5t40.5 490.5q2 27 1 54.5t-6 50t-18.5 39t-35.5 20.5q-37 6 -107.5 12.5t-95.5 10.5q-31 6 -6 18q95 53 108 53q15 0 55.5 -3t67.5 -3q28 0 59 1q114 3 154 13q20 6 27 -14q14 -47 147 -303q254 -475 289 -532z" />
<glyph unicode="N" horiz-adv-x="1591" d="M291 823v2q0 223 -25 279q-18 53 -80 61q-76 10 -184 11q-13 0 -13 6q0 3 5 6q55 55 94 59q293 20 313 21q33 0 64 -45q172 -236 429 -551.5t327 -356.5q33 -14 32 9q2 37 2 370.5t-16 411.5q-6 23 -17.5 31t-35.5 12q-90 8 -162 22q-23 4 -10 17q81 66 105 65h1 q92 -10 176 -10q143 0 287 25q3 1 6 0q7 0 7 -5q0 -4 -5 -12q-29 -43 -67 -61q-47 -18 -105 -31q-31 -8 -43 -59q-31 -100 -30 -527q0 -500 10 -596q6 -35 -19 -34q-115 0 -247 153q-203 221 -670 830q-14 18 -26.5 14t-12.5 -25q-4 -119 -4 -405q0 -174 10 -352 q0 -55 51 -64q16 -4 67.5 -11t63.5 -11q23 -8 6 -21q-68 -61 -96 -61q-37 4 -71 6q-57 4 -99 4q-190 0 -299 -25q-14 -2 -16 0t2 13q27 41 61 59q33 12 109 33q35 10 52.5 25.5t27.5 48.5q45 139 45 669z" />
<glyph unicode="O" horiz-adv-x="1554" d="M909 1290h2q268 0 410.5 -169t142.5 -423q0 -338 -233 -526q-51 -43 -141.5 -93t-141.5 -69q-164 -59 -264 -59q-266 0 -431 156.5t-165 445.5q0 285 195 479q96 92 282 178q172 80 344 80zM748 1180h-3q-158 0 -266 -95q-154 -127 -153 -413q0 -276 144 -438t370 -162 q133 0 219 63q172 115 172 455q0 262 -130 426t-353 164z" />
<glyph unicode="P" horiz-adv-x="1218" d="M279 594v2q0 438 -25 528q-8 29 -33 29h-11q-62 0 -183 -20q-12 -2 -17 1q-2 1 -1 3q0 3 3 8q45 53 80 65q66 25 246 50.5t315 25.5q272 0 385 -102q102 -92 103 -260q0 -190 -191 -322q-61 -45 -150 -81t-126 -36q-80 0 -113 41q-25 25 8 25q170 0 246 61q88 80 88 234 q0 150 -80 248t-235 98q-33 0 -58 -8q-23 -6 -24 -39q-6 -74 -6 -610q0 -305 8 -392q4 -41 47 -45q131 -8 184 -26q20 -4 6 -19q-16 -16 -53 -40.5t-49 -22.5q-25 2 -100 6q-90 4 -152 4q-246 0 -352 -29q-4 -1 -7 0q-6 0 -8 2q-3 4 3 13q35 51 61 63q18 8 107 35 q37 12 53 53q31 92 31 457z" />
<glyph unicode="Q" horiz-adv-x="1554" d="M903 1290h2q184 0 315.5 -86t188.5 -217t57 -293q0 -188 -61.5 -310t-171.5 -214l-47 -38q-16 -13 -29.5 -21.5t-23.5 -16.5q-18 -14 6 -45q102 -115 244.5 -187.5t261.5 -72.5q98 0 172 35q18 8 18 -6q0 -10 -14.5 -30.5t-30.5 -33.5q-57 -41 -145.5 -65.5t-155.5 -24.5 q-150 0 -287 59.5t-332 217.5q-38 29 -64 28q-7 0 -13 -2q-62 -15 -102 -14h-9q-117 0 -220.5 35t-188.5 103.5t-135 186t-50 271.5q0 276 184 471q94 102 281 186q174 84 350 84zM750 1182h-2q-154 0 -261 -95q-158 -133 -157 -428q0 -279 149.5 -434t333.5 -155 q47 0 64 12q12 10 52 27.5t52 19.5q14 4 31 0q16 -8 37 8q53 33 85.5 69t62.5 135t30 251q0 258 -127 424t-350 166z" />
<glyph unicode="R" horiz-adv-x="1335" d="M664 1286h2q461 0 460 -330q0 -139 -112 -229q-53 -43 -123 -80q-16 -10 -2 -47q61 -133 158.5 -278.5t164.5 -206.5q82 -70 203 -76q14 -1 14 -9q0 -5 -6 -14q-20 -25 -51 -30q-61 -14 -131 -15q-197 0 -313 142q-104 127 -258 385q-35 55 -103 55q-31 0 -49 -4 q-23 -2 -22 -35q0 -43 -2 -182t-2 -184.5t30 -51.5q170 -25 180 -28q18 -6 3 -23q-63 -58 -89 -58q-2 0 -4 1q-29 4 -102.5 8t-114.5 4q-217 0 -340 -25q-20 -6 -20 5q0 4 4 10q35 45 72 61q41 16 96 31q37 8 45 37q29 94 29 543q0 373 -23 462q-6 33 -37 33q-49 0 -178 -20 q-12 -2 -15 3q-1 2 -1 3q0 4 4 8q45 51 82 59q82 25 250 50.5t301 25.5zM594 1190h-2q-51 0 -76 -10q-18 -6 -18 -35l-2 -483q0 -23 13 -30t60 -7q158 0 243 58t85 202q0 137 -81 221t-222 84z" />
<glyph unicode="S" horiz-adv-x="1015" d="M668 1290h2q96 0 155 -35q45 -25 46 -61q0 -13 -4 -24l-7 -21q-4 -12 -6 -21q-14 -59 -20 -110q0 -33 -37 -57q-18 -12 -21 14q-6 111 -35 147q-57 74 -184 74q-102 0 -165.5 -62.5t-63.5 -172.5q0 -123 135 -185q35 -16 158.5 -64t160.5 -65q158 -74 158 -227 q0 -209 -233 -354q-184 -113 -385 -113q-147 0 -213 61q-16 14 -25 41q-4 13 -4 23.5t4 17.5q53 121 61 203q2 31 23 20q10 -6 21.5 -22t11.5 -29q-2 -94 37 -137q72 -76 219 -76q137 0 200.5 67.5t63.5 153.5q0 119 -125 173l-98 40l-103 43l-76 33q-184 88 -184 271 q0 209 205 344q156 110 328 110z" />
<glyph unicode="T" horiz-adv-x="1376" d="M715 1229h2q406 0 479 28q12 10 125 78q10 6 17 6q2 0 4 -1q4 -2 4 -6t-3 -11q-57 -149 -57 -322q0 -31 2 -63q6 -47 -24 -23q-47 35 -64 80q-12 35 -29 140q-6 27 -34 26q-168 -23 -299 -24q-18 0 -22.5 -7.5t-8.5 -33.5q-8 -96 -8 -453q0 -358 14 -487q6 -45 39 -47 q172 -25 217 -39q20 -6 4 -21q-89 -66 -104 -65q-20 0 -57 4.5t-54 5.5q-68 6 -172 6q-297 0 -416 -31q-3 -1 -5 0q-6 0 -7 3q-2 5 4 14q37 47 72 61q43 23 176 49q33 6 43 49q25 102 25 553q0 322 -9 381q-10 55 -32 56q-70 0 -175.5 4t-115.5 4q-39 0 -56 -47 q-29 -82 -63 -133q-37 -49 -66 -66q-10 -6 -16 -8t-8 2q-1 2 -1 5t1 7q54 176 54 323q0 15 -1 29q0 16 62 80q9 9 14.5 9.5t7.5 -9.5q14 -53 45 -69q86 -37 496 -37z" />
<glyph unicode="U" horiz-adv-x="1570" d="M471 662v-3q0 -207 30.5 -309t88.5 -162q100 -109 278 -108q186 0 273 108q57 72 78.5 193t21.5 346q0 285 -24 377q-14 37 -46 43q-102 8 -172 24q-25 6 -10 19q20 18 60.5 41.5t50.5 21.5q25 -4 74 -6q61 -4 106 -4q184 0 279 23q5 1 8 1q7 0 7 -5t-7 -15 q-18 -37 -60 -57q-20 -12 -114 -39q-33 -10 -35 -55q-8 -131 -8 -291q-4 -297 -45 -458t-164 -261q-150 -133 -391 -133q-254 0 -377 139q-72 84 -99.5 195.5t-27.5 326.5q0 336 -2 449q0 78 -29 80q-98 12 -170 28q-15 5 -15 12q0 4 7 9q33 27 67.5 46t45.5 19q72 -8 75 -8 q49 -6 140 -6q172 0 329 23q4 1 7 0q6 0 7 -2q1 -4 -8 -15q-29 -47 -57 -59q-33 -16 -113 -35q-29 -8 -38 -39q-21 -57 -21 -454z" />
<glyph unicode="V" horiz-adv-x="1452" d="M203 1063q-31 49 -48.5 66.5t-41.5 21.5q-23 4 -74 12t-72 13q-15 2 -15 8q0 5 9 12q77 60 107 60q2 0 4 -1q12 0 47 -3t55 -5q78 -4 113 -4q168 0 307 23q4 1 7 0q4 0 6 -1q3 -3 -3 -14q-23 -37 -55 -57q-14 -6 -90 -31q-29 -8 -15 -43q197 -469 324 -807q4 -12 10 -14 t11.5 2t9.5 14l184 440q115 280 137 349q8 27 1 36t-31 13q-86 10 -148 23q-25 4 -8 16q85 64 107 63h1q45 -4 74 -8q57 -4 111 -4q147 0 274 21q13 3 13 -3q0 -4 -5 -12q-20 -37 -53 -53q-29 -12 -110 -35q-33 -8 -54.5 -29.5t-58.5 -80.5q-66 -102 -181.5 -353.5 t-197.5 -457.5q-49 -123 -72 -166q-20 -25 -68 -72t-62.5 -47t-22.5 39q-2 4 -2 6q-49 215 -188.5 565.5t-235.5 497.5z" />
<glyph unicode="W" horiz-adv-x="2095" d="M1116 1243q23 20 32 19.5t5 -29.5q-2 -13 -2 -28q0 -56 25 -146q53 -215 272 -725q18 -41 37 2l147.5 417l120.5 345q10 29 4 39t-33 14q-119 18 -143 23q-25 6 -8 16q27 25 59.5 45t40.5 20t35 -3l43 -5q61 -4 107 -4q172 0 278 27q5 1 8 1q5 0 5 -3q0 -6 -5 -13 q-12 -33 -53 -55q-29 -16 -102 -35q-10 -2 -17.5 -5t-15.5 -7t-12.5 -7t-12.5 -10.5t-10 -10.5t-10 -14t-10.5 -14t-12.5 -17.5t-12 -18.5q-90 -133 -313 -742q-53 -139 -66 -188q-14 -53 -61 -108q-23 -29 -80 -70q-4 -1 -7 -2q-6 0 -10 5q-6 7 -10 26q-37 168 -303 817 q-4 8 -12 10t-13 -8l-264 -672q-16 -47 -61 -102q-29 -37 -80 -70q-10 -4 -16.5 5t-12.5 40q-43 213 -174 584.5t-219 511.5q-33 49 -74 55q-14 2 -53 9t-65 14q-15 2 -15 8q0 5 8 12q87 59 104 59q7 0 37 -3l50 -5q66 -4 117 -4q170 0 313 23q8 2 11 -2t-3 -13 q-16 -31 -57 -55q-14 -10 -88 -33q-31 -10 -21 -39q47 -129 258 -792q12 -37 29 2q47 96 132 322.5t118 355.5q20 74 49 118.5t92 112.5z" />
<glyph unicode="X" horiz-adv-x="1476" d="M344 1079q-49 66 -117 78q-12 2 -60 9.5t-75 13.5q-12 2 -15 7t7 9l31 22q25 17 43 27t26 10q12 0 39 -3t39 -3q53 -6 139 -6q162 0 287 25q3 1 6 0q5 0 7 -2q3 -4 -3 -13q-16 -35 -51 -55l-55 -24q-18 -6 -8 -35q29 -70 196 -346q16 -27 37 2q150 193 217 321 q16 35 -24 41l-43 8l-54 11q-31 4 -8 18q87 62 98 61q8 0 31.5 -3l38.5 -5q53 -4 92 -4q152 0 269 23q14 4 14 -2q0 -2 -6 -13q-23 -37 -64 -59q-18 -6 -64 -17.5l-61 -15.5q-37 -6 -90 -57q-29 -25 -307 -389q-16 -18 0 -45q207 -354 338 -512q45 -53 98 -62q20 -2 59 -7 l67 -9q30 -4 48 -8q12 -5 12 -12q0 -5 -5 -11q-77 -55 -96 -55h-1q-121 5 -217 5q-216 0 -303 -26q-6 -2 -11 -1q-5 0 -7 2q-4 5 4 18q33 39 41 47q14 10 43 24q25 14 6 52l-230 374q-14 25 -30 0l-108 -144l-101 -136q-39 -53 -53 -76q-20 -33 10 -37q135 -23 155 -31 q18 -6 5 -18q-65 -60 -84 -60q-1 0 -2 1q-8 2 -20.5 3t-30 3t-27.5 4q-57 4 -109 4q-184 0 -287 -20q-16 -3 -16 3q0 3 6 9q35 47 66 57q39 14 108 31q47 12 97 61q131 131 348 430q14 18 -4 52q-205 350 -281 456z" />
<glyph unicode="Y" horiz-adv-x="1310" d="M215 1087q-29 33 -51.5 46.5t-63.5 21.5q-6 2 -53 8t-76 15q-8 0 -12 4q-3 3 -3 6t5 8q72 59 96 59q135 -12 238 -12q137 0 301 17q25 2 6 -19q-29 -41 -57 -49q-16 -6 -41 -13.5t-29 -9.5q-29 -8 -10 -39q104 -176 244 -462q8 -20 22 4l264 456q16 25 -18 29 q-94 16 -115 21q-29 6 -10 16q71 62 95 62q2 0 3 -1q4 0 31 -3l43 -5q57 -4 98 -4q102 0 242 19q3 1 6 0q5 0 7 -2q1 -1 1 -4q0 -4 -4 -11q-33 -45 -63 -55q-68 -23 -107 -29q-35 -8 -90 -67q-178 -197 -307 -463q-39 -74 -39 -182q0 -238 8 -316q2 -29 33 -35 q174 -18 225 -35q18 -6 6 -18q-27 -25 -63.5 -44t-46.5 -17q-31 4 -117 12q-98 4 -154 4q-225 0 -397 -27q-4 -1 -7 0q-4 0 -6 1q-3 3 3 12q25 45 84 65q84 29 153 41q33 6 41 53q16 98 17 275q0 100 -31 166q-59 135 -150.5 287.5t-150.5 213.5z" />
<glyph unicode="Z" horiz-adv-x="1271" d="M723 1223h2q225 0 317 30q55 18 93 62q6 6 11 6t8 -8t3 -19q0 -35 -18 -71q-45 -102 -170 -279q-197 -283 -557 -717q-12 -16 14 -26q57 -20 183 -33.5t233 -13.5q123 0 194 16q113 27 203 172q16 27 23 16q7 -9 7 -29q0 -14 -3 -32q-10 -53 -74 -132t-145 -126 q-98 -59 -273 -59q-49 0 -280 10q-154 10 -230 10q-137 0 -178 -20q-13 -6 -20 -6h-5q-6 3 -2 18q6 37 35 61q168 162 458 502t370 514q4 8 1 12t-14 2q-123 -31 -427 -31q-36 0 -74 1q-90 0 -144 4q-23 0 -39 -33q-55 -94 -96 -137q-31 -35 -70 -43q-15 0 -14 5q0 4 4 15 q82 178 105 391q2 25 61 70q4 4 7 4q5 0 7 -10q16 -55 62 -68q104 -28 432 -28z" />
<glyph unicode="[" horiz-adv-x="772" d="M219 225v2q0 326 18.5 685.5t41.5 426.5q8 18 33.5 41t41.5 27q14 4 328 10q20 0 10 -14q-23 -33 -53 -49q-12 -4 -88 -15.5t-96 -17.5q-27 -12 -41 -100q-53 -279 -54 -977q0 -358 31 -482q10 -37 55 -49q66 -14 220 -20q18 -4 6 -19q-45 -45 -78 -51q-78 -16 -285 -16 q-16 0 -42.5 15.5t-28.5 29.5q-19 122 -19 573z" />
<glyph unicode="\" horiz-adv-x="718" d="M172 1352q66 -258 228.5 -782.5t254.5 -792.5q6 -20 3 -24.5t-15 -2.5q-29 4 -78 59.5t-78 137.5q-326 1004 -415 1313q-4 16 24.5 47.5t48.5 44.5q25 14 27 0z" />
<glyph unicode="]" horiz-adv-x="776" d="M559 799v-2q0 -326 -18.5 -685.5t-40.5 -424.5q-6 -18 -33 -41t-43 -29q-14 -4 -330 -10q-20 0 -8 16q33 39 53 47q10 2 86 14.5t99 20.5q29 12 41 100q23 131 38 421t15 556q0 371 -33 480q-10 41 -55 51q-35 8 -217 20q-18 4 -7 17q53 47 80 51q76 16 281 16 q18 0 45 -14t29 -29q18 -141 18 -575z" />
<glyph unicode="^" horiz-adv-x="942" d="M537 1288h2q4 0 10 -16q25 -100 47 -174t89 -197t165 -235q10 -14 -8.5 -20.5t-69.5 0.5t-76 24q-29 23 -108.5 149.5t-110.5 210.5q-6 10 -10 0q-152 -279 -250 -352q-18 -12 -60 -29.5t-59 -17.5q-20 0 0 20q94 96 185.5 253t152.5 306q10 27 49.5 52.5t51.5 25.5z" />
<glyph unicode="_" horiz-adv-x="1138" d="M1143 -365v-102h-1147v102h1147z" />
<glyph unicode="`" horiz-adv-x="854" d="M518 961q12 -16 -12 -17q-18 0 -50 7t-40 14q-43 27 -106.5 107.5t-88.5 152.5q-12 31 12 57q8 10 48.5 25.5t66.5 15.5q27 -88 75 -191t95 -171z" />
<glyph unicode="a" horiz-adv-x="917" d="M504 842h2q129 0 186.5 -97.5t59.5 -232.5q0 -172 -15 -362q-2 -23 19 -35q29 -18 83 -19q25 0 56 4q7 1 7 -4q0 -8 -17 -28q-6 -8 -13 -13q-51 -41 -141 -65.5t-153 -24.5q-16 0 -26.5 7.5t-8.5 19.5l8 106q0 25 -19 15q-12 -6 -72 -43l-100 -60q-63 -35 -118 -35 q-68 0 -123.5 52.5t-55.5 140.5q0 98 123 168q63 35 170 76t164 53q31 6 31 31q-4 231 -180 231q-61 0 -105 -43q-49 -47 -65 -172q-4 -33 -29 -20q-31 16 -53.5 49.5t-22.5 62.5q0 35 51 70q109 80 224 131q80 37 133 37zM391 115h2q86 0 144 69q18 18 18 47q0 18 1 63.5 t1 63.5q0 33 -27 33q-47 0 -113.5 -19.5t-101.5 -39.5q-49 -31 -49 -76q0 -55 35 -98t90 -43z" />
<glyph unicode="b" horiz-adv-x="1019" d="M666 842h2q141 0 214.5 -103.5t73.5 -238.5q0 -184 -118 -316q-84 -90 -246 -161q-106 -49 -201 -50q-84 0 -172 37q-4 2 -8 2t-9 -2t-9.5 -3t-12.5 -5l-14 -7q-6 -3 -18.5 -10.5t-20.5 -11.5q-7 -4 -13 -3q-3 0 -5 1q-6 4 -3 15q29 127 29 657q0 473 -20 561 q-6 33 -47 41q-59 12 -88 17q-14 2 -14 7q0 2 1 5q4 8 22.5 21.5t33.5 15.5q150 16 223 39q18 6 94 47q4 2 7 2q8 0 9 -17q0 -8 -2 -18q-20 -129 -20 -500v-143q0 -35 26 -19q156 90 191 107q64 33 115 33zM530 702h-2q-90 0 -168 -65q-27 -27 -26 -82q0 -295 6 -383 q4 -39 27 -57q47 -41 141 -41q109 0 176.5 84t67.5 243q0 131 -63 216t-159 85z" />
<glyph unicode="c" horiz-adv-x="843" d="M573 842h2q117 0 175 -66q33 -35 32 -82q0 -41 -33.5 -76.5t-66.5 -50.5q-29 -12 -29 8q-8 57 -28 89q-47 74 -156 73q-78 0 -131 -49q-80 -70 -80 -237q0 -160 72.5 -251t199.5 -91q74 0 149 33.5t124 86.5q18 18 18 -2q0 -45 -33 -82q-100 -104 -237 -145 q-78 -27 -156 -27q-139 0 -235.5 91.5t-96.5 269.5q0 209 156 338q68 61 173 115.5t181 54.5z" />
<glyph unicode="d" horiz-adv-x="1058" d="M606 842h2q39 0 64 -6q10 -2 15 4t5 18q0 248 -6 324q-2 37 -5 47t-17 12q-41 8 -138 14q-14 4 -4 13l20 19q15 15 23 21.5t17 6.5q143 12 227 41q59 18 94 41q12 9 18 9q2 0 4 -1q5 -4 1 -21q-39 -133 -39 -710q0 -438 24 -520q6 -25 37 -33q26 -4 52.5 -4t54.5 4 q14 2 14 -7q0 -10 -20 -36q-43 -49 -141.5 -82t-162.5 -33q-29 0 -36 29q-6 20 -11 92q-2 27 -10 31t-24 -6q-113 -68 -185 -99q-72 -33 -125 -33q-113 0 -202 92.5t-89 249.5q0 199 123 318q84 80 226 149q110 56 194 56zM512 743h-2q-82 0 -141 -49q-102 -80 -103 -254 q0 -137 68.5 -231t179.5 -94q86 0 150 59q27 18 26 55q2 106 2 410q0 35 -22 55q-56 49 -158 49z" />
<glyph unicode="e" horiz-adv-x="845" d="M522 842h2q123 0 182 -81q51 -71 51 -155q0 -12 -1 -24q0 -20 18 -21l37 6q14 2 14 -8q0 -8 -12 -22.5t-25 -20.5q-66 -35 -239 -59q-119 -18 -262 -29q-25 -2 -25 -35q2 -141 73 -214t200 -73q76 0 150.5 36t119.5 79q18 16 18 -4q0 -39 -28 -67q-82 -88 -267 -152 q-68 -25 -155 -25q-133 0 -221.5 95.5t-88.5 273.5q0 193 113 320q63 70 176 129q96 51 170 51zM422 750h-2q-57 0 -102 -55q-53 -65 -52 -158q0 -13 8 -19q10 -8 33 -8q141 0 228 14q39 8 38 39q0 78 -34.5 132.5t-116.5 54.5z" />
<glyph unicode="f" horiz-adv-x="636" d="M662 1401h2q92 0 133 -66q16 -20 16 -49t-33 -61q-39 -41 -75 -62q-6 -4 -13.5 -4t-9.5 8q-12 45 -51 82t-96 37q-53 0 -97 -53q-54 -72 -54 -318q0 -33 1 -69q2 -20 8 -26.5t27 -8.5q53 -4 99 -4q107 0 173 20q12 2 13 -6q0 -8 -15 -24q-18 -23 -63 -48.5t-78 -33.5 q-61 -16 -146 -17q-23 0 -22 -24q0 -471 12 -541q4 -39 41 -45q113 -12 168 -29q16 -10 6 -18q-65 -53 -81 -53h-1q-80 10 -209 12q-186 0 -292 -20q-6 -1 -10 -1q-6 0 -8 2q-1 1 -1 2q0 4 4 11q8 14 28.5 34.5t31.5 22.5q20 8 69 23q33 10 35 57q8 127 8 537q0 29 -18 30 q-88 10 -112.5 18.5t-8.5 24.5q61 57 78 64q12 2 49 6q18 4 20 35q6 111 46 213q55 154 208 258q114 84 218 84z" />
<glyph unicode="g" horiz-adv-x="888" d="M498 842h2q72 0 157 -49q29 -14 64 -15q115 0 186 94q6 8 10 8h3q3 -2 2 -9q0 -70 -47.5 -122t-124.5 -77q-16 -6 -11 -25q12 -41 13 -86q0 -156 -148 -250q-16 -10 -223 -125q-39 -18 -39 -41q0 -31 86 -47q31 -6 151.5 -24.5t168.5 -28.5q61 -12 97 -56t36 -100 q0 -139 -119 -239q-104 -96 -244 -150q-115 -47 -225 -47q-133 0 -220 63.5t-87 157.5q0 39 43 86q35 39 182 156q20 14 0 23q-33 16 -56.5 50t-23.5 70q0 23 25 41q39 29 143 86q25 12 0 17q-227 25 -227 252q0 115 71 196q68 86 215 152q91 39 140 39zM395 748h-2 q-51 0 -84 -33q-57 -57 -57 -167q0 -120 50 -187q52 -69 134 -68q51 0 82 31q55 45 55 172q0 109 -42 180.5t-136 71.5zM426 -436h2q123 0 202 53t79 133q0 88 -129 119q-119 35 -248 41q-5 1 -10 1q-24 0 -50 -17q-47 -33 -79.5 -78t-32.5 -78q0 -70 77.5 -122t188.5 -52z " />
<glyph unicode="h" horiz-adv-x="1091" d="M674 842h2q252 0 252 -342q0 -70 -8.5 -209t-8.5 -150q0 -27 19 -39q27 -16 129 -41q13 -4 13 -9q0 -3 -5 -7q-47 -39 -68 -39q-266 -4 -335 -31q-5 -2 -9 -1q-6 0 -9 3q-5 6 1 17q43 47 60 94q16 57 16 318q0 305 -176 305q-84 0 -160 -72q-27 -25 -27 -82 q0 -342 9 -440q2 -25 37 -35q66 -8 104 -21q18 -8 2 -20q-59 -51 -74 -52q-1 0 -2 1l-78 6q-61 4 -102 4q-129 0 -240 -18q-10 -2 -15 -1t-4 6t7 11q37 43 43 47q12 6 32.5 14.5t26.5 10.5q20 8 35 51q25 104 25 555q0 444 -16 538q-8 29 -46 37q-45 6 -94 15q-12 2 -14 6 q0 2 2 4q31 37 55 39q133 14 211 37q47 12 101 49q4 3 7 3q8 0 9 -20v-16q-18 -158 -19 -649q0 -33 21 -19q27 14 79 49t73 48q90 45 139 45z" />
<glyph unicode="i" horiz-adv-x="540" d="M307 1028h-2q-78 0 -108 27q-43 35 -43 119q0 39 28 59q20 14 74.5 26.5t93.5 14.5q37 0 19 -29q-17 -27 -18 -81q0 -62 22 -101q4 -14 -8 -25q-25 -10 -58 -10zM180 401v2q0 162 -10 234q-4 27 -31 35q-27 14 -78 33q-20 8 21 34q10 8 14 9q164 23 277 96q8 7 13 6h3 q6 -2 4 -14q-18 -102 -18 -424q0 -203 10 -279q6 -35 37 -51t102 -27q12 -1 13 -7q0 -5 -9 -13q-45 -43 -73 -43q-27 0 -100.5 4t-102.5 4q-63 0 -193 -14q-2 0 -4 -1q-10 0 -9 6q0 4 5 11q20 25 86 55q27 14 31 41q12 90 12 303z" />
<glyph unicode="j" horiz-adv-x="505" d="M322 1030h-3q-11 -1 -21 0q-73 0 -110 25q-57 35 -57 127q0 39 23 51q61 43 172 43q39 0 20.5 -26.5t-18.5 -90t14 -102.5q11 -27 -20 -27zM170 283v2q0 274 -20 342q-8 27 -33 43q-14 8 -99 35q-16 4 15 26q12 8 20 10q168 20 289 101q9 7 15 6q9 0 10 -14q4 -47 4 -619 q0 -205 -37 -334t-119 -219q-184 -207 -311 -207q-59 0 -97 53q-27 35 -26 86q0 23 22 9q51 -33 160 -33q74 0 117 46t61 155q29 119 29 512z" />
<glyph unicode="k" horiz-adv-x="1024" d="M168 666v2q0 424 -16 532q-4 23 -12.5 33t-30.5 16q-59 8 -82 15q-10 2 -13.5 4t-1.5 8q6 8 25.5 21.5t32.5 15.5q117 12 206 41q53 16 89 43q5 4 8 3q8 0 10 -20q0 -10 -2 -22q-18 -106 -19 -690q0 -412 9 -551q2 -27 30 -31l38 -6q26 -4 46 -8l31 -6q18 -6 6 -19 q-59 -55 -82 -55q-33 4 -71 4q-61 4 -111 4q-164 0 -256 -18q-14 -1 -14 5q0 5 8 13q18 25 43 43q14 10 67 27q31 10 39 49q23 158 23 547zM883 113q62 -54 153 -54q20 0 41 2q11 0 11 -7q0 -18 -17.5 -33t-32.5 -19q-98 -27 -229 -27q-33 0 -73 22.5t-64 55.5 q-139 156 -232 291q-14 23 -55 78q-8 8 -8 13q0 6 10 7q43 12 113.5 89t113.5 149q19 29 19 90v23q-2 12 3 16t19 4q174 0 320 33q5 2 8 1q4 0 4 -3q0 -6 -6 -17q-29 -47 -72 -65q-37 -14 -116 -35q-25 -8 -66 -41q-20 -20 -129 -139q-16 -14 -2 -39q41 -90 130 -214 t157 -181z" />
<glyph unicode="l" horiz-adv-x="528" d="M166 725v2q0 375 -14 471q-6 27 -37 39q-23 6 -105 20q-14 4 -6 13q4 10 22.5 22.5t28.5 14.5q154 18 219 43q45 12 97 45q6 3 9 3t5 -2q4 -5 0 -20q-23 -117 -23 -696q0 -449 15 -559q6 -29 37 -33q43 -4 121 -25q8 -3 8 -7.5t-8 -10.5q-57 -53 -84 -53q-33 4 -74 4 q-70 4 -125 4q-152 0 -244 -20q-4 -1 -7 -1q-8 0 -7 5q0 4 4 10q16 33 41 47q10 6 33.5 15.5t36.5 15.5q27 10 34 45q23 104 23 608z" />
<glyph unicode="m" horiz-adv-x="1646" d="M184 401v2q0 182 -12 230q-10 31 -35 41q-4 2 -90 28q-14 2 12 31q14 14 27 17q63 10 139 39.5t119 60.5q6 4 10 4q9 0 11 -23q10 -45 10 -133q2 -35 28 -12q74 55 170 117q72 39 119 39q162 0 215 -154q10 -25 31 -10q82 63 174 123q66 41 127 41q133 0 189.5 -98.5 t56.5 -231.5q0 -80 -21 -373q0 -27 15 -39q31 -35 147 -53q10 -1 10 -6q0 -4 -6 -10q-33 -25 -61 -31q-61 -14 -221 -14q-94 0 -121 6q-18 8 -6 20q33 41 45 80q18 49 18 316q0 293 -176 292q-78 0 -154 -88q-23 -25 -22 -65q-6 -307 -14 -418q-2 -33 22 -37q63 -6 127 -26 q18 -4 6 -17q-69 -55 -85 -55h-1q-8 2 -31.5 3t-35.5 1q-29 2 -99 2q-141 0 -219 -18q-4 -1 -7 -1q-4 0 -5 2q-2 3 2 11q20 35 45 53q6 2 26.5 11.5l32.5 15.5q23 8 25 51q10 102 10 303q0 272 -166 272q-90 0 -157 -86q-29 -31 -29 -94v-391q0 -39 27 -43q57 -10 104 -20 q16 -6 2 -21q-66 -53 -80 -53q-49 4 -74 4q-49 4 -92 4q-137 0 -227 -16q-15 -2 -15 3q0 4 5 11q18 39 45 51q35 14 63 23q23 6 33 49q14 79 14 280z" />
<glyph unicode="n" horiz-adv-x="1105" d="M184 395v2q0 188 -14 238q-6 23 -27 33q-37 18 -96 32q-16 2 14 33q16 14 25 17q141 18 254 98q8 7 13 7q9 0 12 -17q12 -39 12 -138q0 -10 6 -14t16 4l156 105q72 47 143 47q246 0 246 -350q0 -74 -8 -203t-8 -156q0 -23 20 -37q41 -27 135 -41q9 -1 10 -7q0 -4 -6 -11 q-23 -27 -49 -35q-74 -25 -217 -25q-106 0 -137 15q-23 4 -6 20q39 39 51 84q14 61 14 310q0 295 -176 294q-90 0 -161 -82q-27 -29 -27 -71q0 -266 4 -426q0 -25 31 -33q80 -12 102 -22q16 -4 2 -17q-63 -57 -86 -57l-65 6q-27 2 -95 2q-168 0 -233 -16q-11 -2 -11 3 q0 4 5 11q16 39 41 51q4 2 25.5 10.5t35.5 16.5q27 16 33 49q16 82 16 270z" />
<glyph unicode="o" horiz-adv-x="991" d="M596 842h2q158 0 245 -102.5t87 -258.5q0 -182 -109 -297q-82 -90 -229 -157q-111 -53 -197 -54q-133 0 -232.5 90.5t-99.5 272.5q0 223 152 344q74 53 199 113q106 49 182 49zM463 739h-2q-72 0 -129 -61q-74 -78 -74 -238q0 -162 76 -259t188 -97q68 0 121 43 q86 66 86 256q0 152 -66.5 254t-199.5 102z" />
<glyph unicode="p" horiz-adv-x="1048" d="M164 209v2q0 367 -21 446q-6 18 -30 33q-16 10 -48 20.5t-42 14.5q-12 4 12 27q8 8 16 10q115 27 168 50.5t111 72.5q5 4 8 4q6 0 8 -10q6 -25 12 -187q0 -29 25 -10q141 92 197 121q72 39 116 39q143 0 216 -102.5t73 -241.5q0 -197 -131 -322q-90 -90 -246 -166 q-80 -37 -153 -37q-41 0 -78 17q-23 8 -23 -15q0 -57 1 -129.5t1 -118.5t2 -81q4 -43 39 -45q125 -14 142 -19q20 -6 6 -20q-70 -61 -88 -62q-73 4 -144.5 4t-141.5 -4q-140 -8 -194 -26q-7 -2 -11 -2q-7 0 -7 4.5t6 13.5q39 45 49 51q27 14 84 35q31 14 39 49 q27 160 27 584zM791 397v2q0 127 -62.5 213t-165.5 86q-94 0 -174 -84q-27 -23 -29 -57q-3 -72 -3 -169t3 -220q2 -37 23 -53q53 -41 145 -41q88 0 148 41q115 81 115 282z" />
<glyph unicode="q" d="M621 842h2q82 0 159 -33q18 -6 35 4q18 10 74 45q11 6 16.5 6t5.5 -6q0 -2 -2 -6q-33 -139 -32 -623q0 -502 24 -594q8 -33 41 -34q27 -2 121 -13q9 -1 9 -7q0 -4 -5 -11q-61 -70 -92 -70h-33q-288 0 -459 -35q-3 -1 -6 0q-5 0 -6 3q-2 4 6 12q20 39 62 61q4 2 90 33 q29 8 35 47q14 92 14 336v115q0 39 -27 22q-104 -63 -184 -94q-70 -27 -111 -27q-125 0 -210 94.5t-85 249.5q0 207 166 349q84 76 224 137q96 39 168 39zM500 737h-2q-82 0 -152 -63q-86 -86 -86 -246q0 -150 75 -237t177 -87q84 0 139 56q29 23 29 67v283q-2 162 -43 190 q-53 37 -137 37z" />
<glyph unicode="r" horiz-adv-x="798" d="M182 420v2q0 168 -24 213q-10 23 -39 35q-4 2 -82 20q-2 1 -2 3q0 4 4 12q6 12 17.5 23t17.5 11q135 23 258 111q6 4 10 4q10 0 14 -18q23 -96 23 -189q0 -10 6 -12t14 6q84 98 144 150q57 51 108 51t92 -49q27 -35 27 -88q0 -41 -29.5 -80t-68.5 -62q-33 -23 -39 4 q-16 86 -101 86q-31 0 -66.5 -25.5t-59.5 -62.5q-27 -37 -27 -112q2 -35 2 -149v-142q0 -41 35 -64q53 -33 178 -32q16 0 6 -19q-20 -33 -55 -45q-31 -10 -94 -10q-53 4 -97 4q-74 4 -104 4q-102 0 -168 -10q-6 -2 -10.5 -2t-6.5 2q-5 4 1 16q8 14 63 55q29 27 39 64 q14 53 14 295z" />
<glyph unicode="s" horiz-adv-x="755" d="M500 842q78 0 123 -31q28 -18 28 -43q0 -14 -10 -31q-25 -47 -31 -108q-4 -29 -37 -47q-18 -14 -18 8q-14 100 -41 125q-45 39 -115 39q-61 0 -100 -38t-39 -91q0 -63 72 -97q23 -10 117 -35.5t116 -33.5q131 -41 131 -160q0 -68 -46 -129t-109 -102q-150 -96 -295 -97 q-113 0 -168 47q-12 10 -18 35q-2 9 -2 17q0 12 5 20q47 74 70 141q6 14 17 9q25 -12 20 -35q0 -57 39 -96q49 -49 145 -50q76 0 118 37t42 92q0 63 -76 91q-25 8 -97 29l-105 32q-137 45 -138 166q0 150 168 258q119 78 234 78z" />
<glyph unicode="t" horiz-adv-x="692" d="M528 807q82 0 164 22q15 5 15 -3t-11 -21q-57 -68 -129 -84q-80 -23 -186 -23q-20 0 -21 -26q-4 -47 -3 -139q0 -62 1 -144q0 -195 48 -244q43 -43 112 -43q63 0 156 62q10 10 10 -8q0 -35 -27 -66q-104 -115 -278 -115q-100 0 -162 62q-61 66 -61 235q0 82 4 233.5 t4 166.5q0 27 -23 28q-82 4 -127 19q-18 4 -17 10q0 5 7 14q76 70 97 70h1q8 0 28 -2t28 0q14 0 18 27q12 102 29 139q23 41 82 93t94 69q8 4 13 4q2 0 3 -1q4 -3 0 -14q-29 -109 -28 -299q0 -20 22 -20q27 -3 79 -3q26 0 58 1z" />
<glyph unicode="u" horiz-adv-x="1085" d="M358 395v-2q0 -201 68 -250q41 -33 111 -32q41 0 84 23.5t67 58.5q23 31 23 79q0 72 2 161t3 147.5t1 74.5q0 25 -29 37q-14 6 -133 39q-14 4 -2 14q41 35 57 35q180 6 310 60q12 4 15 0t1 -21q-25 -115 -25 -407q0 -190 15 -248q8 -39 43 -49q35 -7 73 -8q15 0 31 2 q13 3 13 -4q0 -3 -3 -7q-8 -27 -30 -39q-61 -41 -142.5 -68.5t-128.5 -27.5q-31 0 -41 29q-8 25 -20 123q0 12 -9.5 13t-15.5 -5q-84 -70 -166 -113q-66 -37 -137 -37q-238 0 -237 310q0 209 14 360q0 25 -18 37q-33 23 -117 49q-9 3 -9 6q0 2 3 4q37 33 49 33 q197 18 303 72q2 1 4 0q5 0 7 -3q3 -5 -1 -16q-33 -96 -33 -430z" />
<glyph unicode="v" horiz-adv-x="946" d="M410 -23q-55 209 -136 408t-131 277q-25 39 -54.5 50t-106.5 21q-11 1 -12 7q0 4 7 12q63 49 80 49q231 0 342 35q3 1 6 0q6 0 7 -3q2 -5 -4 -14q-20 -41 -41 -67q-12 -18 -2 -43q113 -297 159 -457q4 -10 12.5 -9t12.5 11q47 102 99 238.5t69 199.5q8 29 -8 33 q-6 2 -115 25q-16 4 -4 14q68 55 84 55q66 -6 135 -10q106 0 195 20q11 3 10 -5q0 -4 -2 -9q-16 -39 -49 -53q-10 -6 -36 -15.5t-38 -15.5q-20 -10 -51 -53q-78 -109 -295 -604q-6 -14 -21.5 -31.5t-29 -29t-33 -26t-23.5 -18.5q-8 -8 -14 -7q-8 -1 -12 15z" />
<glyph unicode="w" horiz-adv-x="1417" d="M379 -27q-23 137 -99.5 369.5t-123.5 310.5q-27 43 -54.5 56.5t-105.5 23.5q-10 0 -10 5q0 4 8 12q43 43 63 43q264 6 355 41q5 2 8 2t5 -2q3 -4 -1 -15q-12 -39 -41 -76q-18 -18 -10 -36q51 -147 127 -431q10 -27 24 0q113 221 174 443q10 35 113 108q6 4 10 5.5t6 -2 t2 -9.5q0 -92 68 -285.5t119 -281.5q10 -20 24 4q41 80 86 208t60 208q8 45 -15 49q-16 4 -55 11t-55 11q-23 6 -4 19q12 6 33 20l33 24q13 9 18 9q12 0 57 -4t76 -4q133 0 201 22q13 2 13 -3q0 -4 -5 -13q-39 -45 -47 -49q-16 -10 -72 -31q-41 -12 -64 -59l-82 -191 l-121 -270q-48 -104 -77 -156q-41 -72 -111 -98q-4 -4 -7 -4q-7 0 -11 20q-35 127 -178 498q-10 29 -27 2q-127 -283 -178 -418q-6 -16 -42 -50t-71 -46q-14 -6 -16 10z" />
<glyph unicode="x" horiz-adv-x="1021" d="M807 154q55 -68 115 -76q14 -2 39.5 -7t43.5 -10l25 -6q8 -3 8 -8q0 -4 -6 -10q-12 -14 -40.5 -31.5t-43.5 -17.5q-96 10 -180 12q-160 0 -242 -20q-3 -1 -4 -1q-4 0 -5 3q-1 4 3 12q12 29 35 45q16 12 39 22q10 10 0 31q-57 100 -115 189q-14 16 -22 4l-154 -183 q-23 -23 12 -26q98 -14 117 -25q2 0 4 -2t2 -6t-6 -8q-59 -45 -74 -45h-2q-18 2 -59 6q-49 4 -80 4q-127 0 -209 -20q-4 -1 -6 -1q-7 0 -7 5t5 10q29 33 51 45q10 6 86 31q29 6 60 32q66 59 215 248q12 16 2 33q-94 176 -170 268q-31 43 -66 56q-39 12 -127 22q-20 0 -4 16 q51 39 57 39q213 12 320 62q4 2 7 2t4 -2q3 -4 -1 -15q-12 -33 -14 -40q-4 -31 10 -54q45 -94 113 -198q8 -18 20 0q90 111 111 161q8 18 -19 25q-6 2 -32.5 7t-38.5 9q-14 6 -4 15q66 55 77 55q40 -2 77 -2q155 0 251 29q14 4 14 -2t-8 -19q-29 -41 -61 -53 q-29 -12 -101 -33q-35 -10 -57 -41q-31 -37 -91 -119t-73 -96q-12 -16 -2 -35q123 -204 201 -286z" />
<glyph unicode="y" horiz-adv-x="952" d="M109 -381h2q96 0 196.5 93t153.5 218q10 23 -8 47q-29 53 -39 84q-57 186 -134 359.5t-118 232.5q-20 33 -49 47.5t-119 30.5q-10 2 -10 6q0 3 8 8q53 39 63 41q242 23 322 64q4 2 6 2q7 0 6 -12q-2 -6 -4 -15q-17 -59 -17 -88q0 -12 3 -18q80 -184 200 -520 q2 -6 5.5 -8.5t6.5 -1.5t7 4.5t6 9.5q47 109 85 248t42 211q4 33 -16 47q-14 10 -115 28q-14 6 -2 19q74 55 80 55q236 0 344 27q9 2 9 -4q0 -4 -3 -13q-25 -45 -53 -57q-12 -8 -39 -18.5t-31 -12.5q-31 -12 -49 -59q-12 -31 -104.5 -285t-147.5 -375q-147 -317 -272 -450 q-90 -100 -174 -101q-61 0 -101 41q-45 51 -49 111q-2 12 3 17.5t15 0.5q30 -14 91 -14z" />
<glyph unicode="z" horiz-adv-x="890" d="M481 803h2q217 0 295 39q6 4 10.5 2t5.5 -9.5t-3 -19.5q-25 -61 -72 -143q-139 -217 -379 -490q-23 -25 2 -35q59 -20 231 -20q115 0 177.5 28.5t130.5 114.5q23 31 22 -4q0 -43 -31 -92q-68 -96 -153.5 -146.5t-241.5 -50.5q-94 0 -240.5 11.5t-168.5 11.5q-21 0 -21 9 q0 5 6 14q63 74 92 100q117 113 257.5 272.5t195.5 251.5q16 27 -10 27q-188 -12 -326 -19q-37 0 -53 -32q-41 -66 -84 -109q-29 -33 -66 -37q-13 -3 -13 6q0 4 3 11q84 186 88 311q0 18 43 63q4 4 8 5q5 0 9 -9q25 -35 78.5 -48t205.5 -13z" />
<glyph unicode="{" horiz-adv-x="765" d="M623 -424h-2q-145 0 -246 68.5t-101 220.5q0 94 48 313q31 145 -33 220t-174 83q-27 2 -15 19q37 45 58 45q98 10 142 54t40 107.5t-18 141.5q-31 104 -27 200.5t37 173t120 134t222 82.5q12 2 16 -2t0 -15q-4 -16 -21.5 -38.5t-27.5 -24.5q-233 -72 -168 -379 q39 -207 39 -229q0 -129 -174 -211q-25 -10 -2 -25q72 -37 110.5 -85t48 -111.5t3.5 -121t-25 -145.5q-51 -246 -4 -315q49 -86 215 -101q25 -2 6 -20q-22 -39 -67 -39z" />
<glyph unicode="|" horiz-adv-x="608" d="M233 1671h152v-2228h-152v2228z" />
<glyph unicode="}" horiz-adv-x="763" d="M150 1438h2q145 0 242.5 -67.5t97.5 -217.5q0 -76 -46 -305q-31 -141 36 -217t173 -84q23 0 11 -19q-6 -10 -27 -26.5t-29 -18.5q-96 -14 -141 -57t-43 -106.5t20 -145.5q125 -516 -348 -600q-12 -2 -15 2t1 14q4 16 19.5 38t25.5 26q238 74 164 379q-37 176 -37 233 q0 135 174 223q25 12 2 25q-57 31 -93 71t-52.5 78.5t-17.5 95t5.5 101.5t20.5 113q49 236 4 307q-49 80 -211 100q-18 2 -6 19q27 39 68 39z" />
<glyph unicode="~" horiz-adv-x="1230" d="M453 578h2q86 0 227 -101q115 -78 176 -78q88 0 186 119q20 27 84 53q18 6 23.5 5t-0.5 -15q-47 -104 -159.5 -202.5t-219.5 -98.5q-78 0 -211 96q-111 78 -178 78q-70 0 -145.5 -55t-126.5 -117q-10 -14 -16.5 -12t-6.5 16q0 45 25 82q68 84 166 157t174 73z" />
<glyph unicode="&#xa1;" horiz-adv-x="512" d="M240 573q-29 -10 -37 17q-25 70 -86 135q-27 29 14 63q115 96 141.5 96.5t62.5 -42.5t52 -78q18 -41 -6 -78q-16 -25 -66 -64t-75 -49zM383 -127v-2q0 -127 -16 -172q-18 -37 -72 -61q-84 -37 -186 -60q-27 -6 -33 -1t4 30q41 80 74.5 385t33.5 448q0 18 25 13 q18 -4 55 -30t51 -42q8 -10 22.5 -79t28 -190.5t13.5 -238.5z" />
<glyph unicode="&#xa2;" d="M897 879v-2q0 -33 -35 -70t-59 -47q-25 -6 -25 8q2 53 -30.5 94t-83.5 58q-23 10 -23 -17l-49 -581q-2 -25 24 -25q162 8 279 121q20 20 23 6v-8q0 -43 -27 -74q-113 -121 -291 -158q-25 -2 -27 -28q-10 -102 -22 -138q-12 -41 -66 -100q-8 -8 -14 -9t-8 3t0 14 q16 86 31 219q2 25 -25 25q-160 6 -255 94t-95 260q0 109 44 198t109 142q119 94 275 144q20 6 22 26l9 133q0 18 65 74q20 18 21 -10q0 -25 -2 -48l-6 -62q-3 -38 -5 -74q-4 -23 21 -23q137 -6 190 -59q35 -37 35 -86zM326 629v-2q0 -115 42 -198t117 -116q25 -8 27 21 q31 295 47 575q2 14 -3 20.5t-13 4.5q-78 -12 -135 -66q-82 -73 -82 -239z" />
<glyph unicode="&#xa3;" d="M705 1245h2q63 0 107 -27.5t44 -78.5q0 -57 -65 -119q-25 -29 -33 2q-12 61 -63.5 93t-116.5 32q-37 0 -67 -25.5t-46 -66.5q-33 -96 -33 -387q0 -29 29 -29q238 0 319 18q16 4 17 -4q0 -4 -2 -10q-25 -37 -74 -59q-72 -33 -262 -33q-29 0 -35 -27q-18 -133 -60 -212 t-116 -136q-8 -6 -10 -11t2 -8t14 -1q94 18 225 0q201 -33 219 -33q86 0 136.5 52t93.5 171q10 23 16 23q8 0 16.5 -9.5t11.5 -29t-5 -49.5q-33 -145 -130.5 -247t-197.5 -102q-84 0 -246 49.5t-215 49.5q-72 0 -160 -70q-16 -12 -22 -9t-6 15q0 35 28 64q111 109 144 170 q43 88 43 319q0 31 -27 31q-115 0 -174 16q-25 6 -10 17q25 25 58.5 47t41.5 20q72 -10 86 -10q27 0 27 23q4 236 86 348q78 104 186 159q136 74 224 74z" />
<glyph unicode="&#xa4;" d="M551 952h2q106 0 174 -49q16 -12 27 2q25 27 102 94q10 8 46 19.5t63 9.5q20 0 2 -18q-37 -35 -166 -191q51 -86 51 -188q0 -100 -76 -203q-16 -20 0 -41q78 -98 156 -176q16 -12 0 -18q-35 -16 -96.5 0t-92.5 45l-37 37l-40 40q-109 -80 -213 -79q-123 0 -185 61 q-29 -25 -91 -87l-68 -69q-12 -8 -15.5 -6t-7.5 17q-10 57 16 88l44 51l53 59q12 16 -2 33q-37 63 -37 172q0 115 80 217l-88 98q-45 59 -43 82q10 43 47 86q14 23 24 4q12 -20 36 -48l58 -66q35 -39 43 -49q16 -12 29 -5q113 78 205 78zM504 868h-2q-86 0 -139.5 -69.5 t-53.5 -184.5q0 -131 57.5 -209.5t141.5 -78.5q182 0 188 252q4 125 -49 207.5t-143 82.5z" />
<glyph unicode="&#xa5;" d="M381 424v127h-49q-123 0 -195 14q-20 6 -10 17q72 68 80 65q63 -18 166 -18q-33 113 -121 267.5t-135 201.5q-29 29 -72 35q-53 6 -90 16q-16 2 -4 14q53 53 74 54q100 -14 178 -15q164 0 258 17q8 2 10 -1.5t-2 -7.5q-2 -2 -13.5 -20.5t-19.5 -22.5q-20 -12 -71 -26 q-20 -6 -5 -35q139 -295 175 -385q4 -6 10 -6t10 8q29 55 63 132l69 156q34 79 40 91q12 25 -10 26q-6 2 -46 7.5t-53 9.5q-12 6 -2 16q68 51 89 49l49 -6q10 0 37.5 -1t46.5 -1q123 0 190 19q6 2 7 -1t-3 -12q-25 -37 -49 -47q-47 -16 -84 -24q-37 -10 -68 -50 q-102 -125 -231 -434q-10 -25 18 -24q92 0 252 18q10 2 11.5 0t-2.5 -10q-27 -39 -60 -53q-70 -33 -188 -33h-29q-20 0 -20 -21v-84q0 -23 24 -22q53 0 252 18q10 0 6 -10q-6 -12 -27.5 -31.5t-43.5 -25.5q-78 -29 -187 -29q-25 0 -24 -22q0 -193 6 -218q4 -18 26 -22 q117 -10 172 -27q16 -6 2 -18q-59 -51 -69 -51q-27 4 -107 8q-90 4 -153 4q-92 0 -295 -23q-8 -2 -11 2.5t1 8.5q39 43 55 51q23 10 125 37q23 4 28 28q14 53 15 240h-68q-137 0 -223 14q-12 4 -12 7q-2 2 4 8q68 72 82 69q4 0 19.5 -3t33.5 -6t63.5 -6t104.5 -3z" />
<glyph unicode="&#xa6;" horiz-adv-x="616" d="M233 1505h152v-780h-152v780zM233 -389v780h152v-780h-152z" />
<glyph unicode="&#xa7;" horiz-adv-x="864" d="M565 1174h2q41 0 69 -9.5t34 -14.5t22 -22q12 -12 13 -36q0 -59 -62 -105q-14 -8 -16 4q-16 35 -58.5 62.5t-93.5 27.5q-59 0 -97 -34.5t-38 -98.5q0 -18 4 -34.5t17.5 -34t24.5 -30.5t38 -34l45 -34l58 -42l65 -47q117 -86 156.5 -158.5t39.5 -158.5q0 -141 -102 -305 q-12 -25 -12 -43q-2 -86 -70.5 -165t-165.5 -124q-72 -35 -164 -35q-94 0 -135 59q-23 33 2 70q29 57 62 76q14 10 18 0q10 -41 60.5 -76t101.5 -35q78 0 112.5 42t34.5 102q0 98 -200 229q-137 92 -198.5 167t-61.5 191q0 158 125 330q6 10 12 39q31 92 127 176 q112 101 231 101zM406 592q-145 104 -179 178q-8 16 -16 2q-29 -47 -29 -119q0 -90 71 -171t257 -208q80 -57 125 -122q4 -8 12 -8.5t10 6.5q27 49 27 100q0 84 -67.5 162t-210.5 180z" />
<glyph unicode="&#xa8;" horiz-adv-x="854" d="M141 1184q8 10 52.5 40.5t62.5 37.5q25 8 31 -13q12 -51 63 -102q20 -25 0 -47q-37 -47 -104 -82q-20 -12 -39 -4q-18 12 -50 52t-32 67q0 33 16 51zM510 1184q61 53 100 73q33 12 43 -4q43 -76 62 -92q25 -27 4 -57q-16 -25 -59.5 -59.5t-69.5 -34.5q-16 0 -47 38.5 t-49 79.5q-13 33 16 56z" />
<glyph unicode="&#xa9;" horiz-adv-x="1390" d="M807 1233h2q225 0 361.5 -153.5t136.5 -397.5q0 -195 -106.5 -359.5t-268.5 -255t-330 -90.5q-227 0 -372.5 144.5t-145.5 394.5q0 158 63.5 295t167 227t232.5 142.5t260 52.5zM719 1153h-2q-229 0 -381 -171t-152 -404.5t147.5 -378t334.5 -144.5q238 0 391 173 t153 411q0 231 -131 372.5t-360 141.5zM819 948h2q104 0 154 -41q14 -10 19 -27.5t-1 -25.5q-8 -14 -39 -115q-6 -20 -24 -20q-4 0 -4 4q-8 78 -27 96q-59 66 -158 66q-80 0 -129 -43q-86 -72 -86 -226q0 -115 66.5 -181t167.5 -66q145 0 231 90q10 10 10 -4q-2 -23 -16 -43 q-20 -27 -76.5 -61t-103.5 -50q-55 -25 -141 -25q-143 0 -223.5 79t-80.5 206q0 176 175 295q128 92 284 92z" />
<glyph unicode="&#xaa;" horiz-adv-x="626" d="M346 1075h2q86 0 126 -59.5t40 -136.5q0 -109 -10 -205q-2 -16 14 -21q23 -10 90 -14q12 0 -18 -35l-6 -6q-80 -45 -201 -49q-18 0 -18 18l6 62q2 4 -3.5 7t-9.5 1q-10 -6 -43.5 -28.5t-54.5 -33.5q-35 -23 -82 -22q-45 0 -86 35t-41 92q0 29 21.5 56.5t48.5 41.5 q109 59 223 80q27 2 27 25q-4 113 -117 112q-37 0 -66 -24q-27 -29 -45 -103q-2 -8 -8 -13t-14 1q-49 45 -49 76q0 18 24 37q80 53 152 82q55 24 98 24zM215 711v-2q4 -23 24.5 -39.5t49.5 -14.5q37 0 71 35q10 20 11 39q4 41 0 57q-12 16 -33 15q-80 -4 -115 -37 q-24 -24 -8 -53z" />
<glyph unicode="&#xab;" horiz-adv-x="1007" d="M317 371q86 -78 140 -185q23 -47 22 -88q0 -16 -16.5 -41.5t-32.5 -38.5q-10 -8 -16 0q-33 104 -125 202.5t-176 127.5q-16 2 -13 14q14 35 41 48q98 49 208 166.5t138 193.5q6 18 19 6q25 -31 18 -59q-35 -145 -209 -314q-14 -18 2 -32zM690 371q96 -86 154 -217 q18 -45 18 -72q0 -14 -14 -42t-35 -38q-14 -10 -16 0q-35 109 -133.5 211t-180.5 137q-12 6 -10 17q10 25 41 45q238 143 344 383q8 29 19 8q25 -43 20 -60q-45 -182 -211 -333q-19 -19 4 -39z" />
<glyph unicode="&#xac;" horiz-adv-x="1142" d="M741 496h-495q-113 0 -113 20q0 6 24.5 40t41.5 52q18 18 28 15q53 -14 285 -15q330 0 414 15q6 2 9 -2.5t1 -16.5q-12 -301 -12 -348q0 -88 14 -166q2 -2 -4 -6t-12 -4q-39 0 -73 22.5t-38 51.5q-10 109 -10 258q0 33 -3 48t-16.5 25.5t-40.5 10.5z" />
<glyph unicode="&#xad;" horiz-adv-x="712" d="M90 373q70 104 82 104h84q229 14 373 55q10 4 8 -6q0 -6 -4 -14q-20 -35 -57 -68.5t-66 -44.5q-59 -23 -192.5 -41t-182.5 -18q-41 2 -49 7.5t4 25.5z" />
<glyph unicode="&#xae;" horiz-adv-x="634" d="M356 1157h2q98 0 99 -70q0 -41 -51 -69q-12 -6 -9 -17q25 -61 74 -61q72 0 72 121q0 70 -48.5 123t-134.5 53q-98 0 -159 -51q-88 -72 -88 -187q0 -98 59 -150t143 -52q25 0 47.5 3t37 7t32 12t24.5 12.5l22.5 14.5t17.5 12q6 6 6 -2q0 -16 -10 -31q-16 -27 -74 -52 t-135 -25q-117 0 -177.5 61t-60.5 160q0 152 137 248q94 66 207 65q92 0 149.5 -53t57.5 -143.5t-51 -140.5t-105 -50q-55 0 -108 70q-29 33 -29 12q-2 -8 -3 -24.5t-1 -24.5q0 -10 8 -10q23 0 41 -7q10 -2 6 -8q-25 -25 -30 -24q-20 4 -64 4q-55 0 -80 -6q-6 0 -6 4 q12 18 21 22q4 4 22 10q12 6 14 19q16 102 11 166l-4 6q-4 0 -62 -14q-2 0 -2 2q12 25 35 34q57 31 147 31zM332 1118h-2q-10 0 -15 -6l-6 -86q0 -12 17 -12q61 0 61 53q0 51 -55 51z" />
<glyph unicode="&#xaf;" horiz-adv-x="854" d="M172 1061q12 18 36.5 49t37.5 39q33 -10 123 -10q225 0 329 22q27 0 2 -24q-55 -74 -118 -95q-82 -25 -336 -24q-80 0 -80 26q0 7 6 17z" />
<glyph unicode="&#xb0;" horiz-adv-x="581" d="M340 1325h2q94 0 143.5 -55.5t49.5 -147.5q0 -115 -72 -180q-115 -100 -217 -100q-66 0 -129.5 51t-63.5 154q0 106 86 178q41 37 99.5 68.5t101.5 31.5zM283 1235h-2q-55 0 -88 -41t-33 -102q0 -80 45 -124t104 -44q45 0 79 37.5t34 111.5q0 72 -33.5 117t-105.5 45z " />
<glyph unicode="&#xb1;" horiz-adv-x="1142" d="M616 1077h2q14 0 15 -73v-297q0 -23 14 -23q76 -2 138.5 -1t141.5 2t89 1q29 0 10 -18q-12 -18 -48 -49t-50 -33q-162 -14 -250 -15q-23 0 -35 -11t-12 -19q0 -115 -8 -271q-2 -25 -41 -64.5t-58 -49.5q-4 -2 -7 1t-3 9v346q0 29 -14.5 44t-32.5 15h-49q-244 0 -279 11 q-27 4 -12 20q14 14 57 86q12 18 23 12q43 -18 295 -18q12 0 12 18q0 264 -6 326q8 10 51 30.5t57 20.5zM391 94q2 -6 316 -4l313 4q16 0 8 -10q-14 -18 -53 -52t-49 -36q-141 -16 -514 -16q-256 0 -277 6q-25 10 -8 32l57 72q16 20 27 19q45 -11 180 -15z" />
<glyph unicode="&#xb2;" horiz-adv-x="663" d="M350 1448h2q98 0 143.5 -57.5t45.5 -133.5q0 -109 -129 -235q-23 -23 -131 -119q-6 -6 2 -10q41 -18 184 -19q82 0 149 93q20 25 21 -4q0 -27 -14 -52q-90 -147 -232 -147q-61 0 -144 6t-112 6q-33 0 -67 -10q-10 -2 -12.5 2t1.5 10q47 72 60 76q123 57 193.5 151.5 t70.5 188.5q0 72 -33 121t-92 49q-45 0 -73.5 -40t-30.5 -95q0 -43 2 -58q2 -6 2 -10t-2 -6t-9 0q-27 0 -51 27.5t-24 54.5q0 45 59 109q39 43 102.5 72.5t118.5 29.5z" />
<glyph unicode="&#xb3;" horiz-adv-x="663" d="M360 1450h2q76 0 124.5 -43t48.5 -100q0 -59 -62 -105q-31 -25 -70 -45q-14 -10 7 -14q57 -12 88.5 -23.5t61.5 -43.5t30 -83q0 -111 -160 -207q-135 -78 -233 -77q-104 0 -121 53q-10 25 2 37q29 49 39 78q2 8 10 7t10 -10q6 -29 25 -45q47 -43 123 -43q66 0 101.5 39 t35.5 90q0 139 -148 140q-33 0 -81 -17q-8 -2 -11.5 2t0.5 11q14 41 45 57q82 35 115 64.5t33 82.5q0 37 -28 65t-73 28q-78 0 -168 -99q-4 -6 -8 -5t-4 9q-4 33 15 58q37 51 103 95t148 44z" />
<glyph unicode="&#xb4;" horiz-adv-x="854" d="M664 1329h2q14 -2 13 -20.5t-17 -51.5q-31 -57 -98.5 -151t-100.5 -117q-14 -12 -54 -27.5t-61 -15.5q-8 0 -9 5t3 10q35 49 93.5 157.5t76.5 169.5q6 12 65.5 26.5t86.5 14.5z" />
<glyph unicode="&#xb5;" horiz-adv-x="1087" d="M518 121h2q80 0 146 102q18 27 18 76q0 176 14 440q2 37 19 43q25 10 113 38t98 32q12 2 14 -4t-2 -17q-47 -102 -47 -454q0 -150 20.5 -205t69.5 -55q43 0 102 51q12 12 15 -12q2 -16 -4 -33q-29 -76 -101.5 -118t-142.5 -42q-141 0 -154 184q0 10 -6 13.5t-12 -4.5 q-82 -115 -193 -166q-53 -23 -104 -23q-66 0 -115 56q-8 10 -14 -3q-23 -66 -18 -204q2 -133 54 -194.5t163 -63.5q16 0 18 -6.5t-10 -22.5q-20 -29 -73.5 -52.5t-84.5 -23.5q-84 0 -122 76t-38 287q0 709 11 848q6 78 18 102.5t51 34.5q127 35 154 53q10 8 17 2t1 -25 q-45 -117 -45 -464q0 -147 58 -207q38 -39 110 -39z" />
<glyph unicode="&#xb6;" horiz-adv-x="1236" d="M557 -309h2q78 0 133.5 29.5t87 75.5t50 125t24.5 150.5t10 180.5q0 20 -4 25.5t-16 -3.5q-70 -47 -149 -77.5t-103 -30.5q-197 0 -322 113.5t-125 336.5q0 109 39 194t99.5 132t121 71.5t113.5 26.5q8 0 80 5.5t135.5 8.5t83.5 3q14 0 31 24q63 78 84 76q20 0 20 -74 q0 -27 21 -26q145 0 207 30q12 6 16 -2t-2 -18q-45 -84 -207 -100q-31 -2 -31 -41q14 -373 15 -398q0 -106 -2 -181t-12.5 -183.5t-29 -185t-54 -161.5t-85 -137.5t-125 -86t-169.5 -33.5q-74 0 -136.5 29.5t-81.5 76.5q-16 47 -8 101q14 88 41 137q6 8 11.5 13t10.5 2 t5 -17q4 -66 24 -103q60 -108 197 -108zM791 961q-82 2 -129 -27q-100 -63 -101 -258q0 -158 58.5 -250t148.5 -92q43 0 76 14q18 10 22 60q2 98 -9 281t-23 233q-12 39 -43 39z" />
<glyph unicode="&#xb7;" horiz-adv-x="428" d="M303 563q-6 -109 49 -172q14 -12 0 -31q-27 -29 -73 -56.5t-68 -27.5q-57 0 -92 61.5t-35 119.5q0 20 14.5 32.5t78 42t97.5 39.5q29 12 29 -8z" />
<glyph unicode="&#xb8;" horiz-adv-x="856" d="M449 14h59q-68 -92 -68 -116q0 -27 64 -64q86 -51 86 -98q0 -53 -58 -111q-41 -41 -105.5 -69.5t-113.5 -30.5h-15q-5 0 -9 1t-4 4v7q0 10 21.5 32.5t37.5 27.5q41 12 59.5 17t38 20.5t19.5 35.5q0 29 -99 84q-55 31 -55 72q0 23 31 63q39 53 111 125z" />
<glyph unicode="&#xb9;" horiz-adv-x="663" d="M272 1106v2q0 145 -8 178q-4 14 -18 14q-23 -2 -76 -5t-61.5 -3t-11.5 2t-1 9q4 8 22.5 25.5t28.5 19.5q203 45 279 108q6 4 11 -1t3 -13q-16 -61 -16 -314q0 -225 10 -266q4 -16 29 -16q94 -10 135 -19q12 -6 6 -12q-57 -57 -67 -53q-86 10 -181 10q-164 0 -260 -18 q-10 -2 -13 0t1 10q29 39 49 47q61 18 105 29q14 2 18 18q16 51 16 248z" />
<glyph unicode="&#xba;" horiz-adv-x="671" d="M399 1079h2q106 0 160.5 -60.5t54.5 -156.5q0 -90 -39.5 -145t-113.5 -96q-115 -66 -182 -66q-41 0 -77 9t-73 31.5t-58.5 68t-21.5 110.5q0 156 166 246q114 59 182 59zM317 1006h-2q-47 0 -77 -35q-45 -45 -45 -133q0 -104 45 -155.5t112 -51.5q41 0 72 28 q47 33 47 150q0 88 -37 142.5t-115 54.5z" />
<glyph unicode="&#xbb;" horiz-adv-x="1007" d="M309 434q-96 86 -151 217q-20 45 -21 70q0 14 15.5 42t33.5 40q14 10 19 0q35 -109 133 -213.5t180 -136.5q14 -4 10 -17q-16 -29 -41 -45q-244 -143 -342 -383q-10 -18 -20 -8q-31 37 -23 63q45 172 213 330q17 21 -6 41zM682 432q-90 82 -139 186q-23 51 -23 89 q0 14 17.5 40.5t33.5 36.5q10 10 15 0q33 -104 126 -202.5t175 -124.5q16 -4 12 -19q-18 -33 -41 -45q-98 -49 -207.5 -165.5t-136.5 -194.5q-8 -18 -20 -4q-6 6 -13.5 27.5t-5.5 31.5q33 143 209 311q14 19 -2 33z" />
<glyph unicode="&#xbc;" horiz-adv-x="1437" d="M283 901v2q0 147 -9 180q-4 12 -22 13q-20 -2 -70.5 -5.5t-56.5 -3.5q-12 0 -16.5 2.5t-2.5 6.5q2 8 24 26.5t32 20.5q199 45 274 108q6 4 12.5 -1t4.5 -13q-18 -61 -19 -313q0 -240 10 -267q4 -16 29 -16q113 -12 135 -20q12 -2 8 -11q-12 -12 -27.5 -25.5t-27.5 -21.5 t-14 -6q-86 10 -180 10q-174 0 -261 -16q-10 -2 -13 0t1 10q29 37 47 47q61 18 107 29q14 2 18 18q17 51 17 246zM1137 1274q14 14 100 35q10 4 13 0t-1 -13q-145 -268 -427.5 -692t-450.5 -627q-12 -16 -53.5 -35.5t-59.5 -23.5q-20 0 -10 12q180 215 453.5 633t435.5 711z M1137 643q-59 -121 -260 -389q-14 -14 10 -21q59 -16 155 -16q18 0 19 16q2 106 -10 162q-6 14 6 19q29 8 75 31.5t66 41.5q10 10 16.5 7.5t6.5 -17.5q-4 -209 -7 -246q0 -16 17 -16q78 0 137 33q12 8 12 -4q0 -2 -2 -6q-4 -14 -22 -39q-45 -45 -129 -52q-16 0 -17 -20 q0 -23 -4 -80q-8 -47 -16 -57q-49 -45 -129 -70q-8 -2 -13.5 1t-3.5 9q16 55 17 185q0 29 -19 28q-66 2 -154.5 7.5t-103.5 5.5q-33 4 -53 -9q-16 -8 -16 11q2 14 14 26q94 90 179 214t124 231q6 20 119 88q18 10 16 -6q-3 -17 -30 -68z" />
<glyph unicode="&#xbd;" horiz-adv-x="1437" d="M254 901v2q0 147 -8 180q-2 12 -21 13q-57 -6 -125 -6q-10 -2 -17 0t-5 6q2 6 21.5 25.5t29.5 21.5q207 45 281 108q6 4 11 -1t3 -13q-18 -61 -18 -313q0 -227 10 -269q4 -14 28 -14q109 -10 129 -18q10 -6 9 -11q-59 -55 -66 -55q-86 10 -178 10q-176 0 -250 -14 q-25 -2 -18 10q6 8 24.5 25.5t24.5 19.5q25 12 98 29q14 2 19 18q18 58 18 246zM1079 1274q10 12 99 35q10 4 13 0t-1 -13q-143 -266 -425 -690t-452 -629q-12 -16 -53 -35.5t-59 -23.5q-20 0 -11 12q182 221 456.5 638t432.5 706zM1096 672h2q98 0 144 -58.5t46 -132.5 q0 -111 -131 -235q-33 -35 -131 -117q-8 -8 2 -12q55 -18 186 -19q76 0 150 92q20 25 20 -4q0 -31 -16 -51q-102 -147 -240 -147q-16 0 -127 6q-55 6 -110 6q-45 0 -76 -10q-10 -2 -12 2t2 10q47 70 59 76q123 59 192.5 152.5t69.5 187.5q0 72 -32.5 121t-92.5 49 q-45 0 -72.5 -40t-29.5 -95q0 -45 2 -58q6 -18 -8 -18q-27 2 -51.5 29.5t-24.5 54.5q0 45 60 108q39 43 102.5 73t116.5 30z" />
<glyph unicode="&#xbe;" horiz-adv-x="1456" d="M412 1245h2q76 0 124 -43t48 -100q0 -55 -62 -105q-16 -12 -40 -27l-29 -20q-12 -6 2 -10q2 -2 4 -2q43 -8 67.5 -16.5t54 -24.5t44 -44t14.5 -67q0 -111 -158 -204q-139 -78 -239.5 -78t-116.5 51q-8 27 2 39q18 18 39 76q4 10 11 10t9 -10q6 -29 25 -45q51 -43 123 -43 q66 0 101.5 37.5t35.5 91.5q0 139 -147 139q-33 0 -82 -16q-8 -2 -10.5 3t2.5 11q14 41 43 55q78 31 112.5 62.5t34.5 85.5q0 37 -27.5 64.5t-72.5 27.5q-80 0 -166 -99q-14 -14 -15 5q-4 33 15 55q37 51 103.5 96t148.5 45zM1128 1274q14 18 99 35q10 2 13 -1t-1 -12 q-143 -266 -425 -690t-452 -629q-12 -16 -53 -35.5t-61 -23.5q-20 0 -8 12q178 213 448 628t440 716zM1128 643q-59 -121 -260 -389q-14 -14 11 -21q59 -16 155 -16q18 0 19 19q2 106 -11 157q-6 18 7 19q90 27 143 75q20 20 20 -10q-4 -209 -6 -244q0 -18 19 -18 q76 0 135 33q8 4 10 1t0 -13q-4 -16 -22 -35q-43 -47 -131 -54q-14 0 -15 -20q0 -23 -4 -80q-8 -47 -16 -57q-49 -45 -129 -70q-8 -2 -13.5 1t-3.5 9q16 55 17 185q0 29 -19 28q-66 2 -153.5 7.5t-104.5 5.5q-33 4 -53 -9q-12 -8 -12 8.5t12 28.5q94 88 177 212t124 233 q6 20 119 88q18 10 16 -6q-4 -17 -31 -68z" />
<glyph unicode="&#xbf;" horiz-adv-x="831" d="M422 571q-29 -10 -39 17q-27 68 -86 135q-23 25 10 49q121 102 148 102q25 0 58.5 -38.5t49.5 -71.5q18 -45 -6 -84q-18 -29 -63 -63t-72 -46zM326 -424h-2q-121 -2 -183.5 63.5t-64.5 159.5q0 90 47 161t160 183q106 106 106 203q0 59 -18 82q-16 20 12 21q59 0 102 -32 t43 -87q0 -35 -25.5 -78t-84.5 -125q-16 -20 -25 -33q-82 -117 -82 -227q0 -84 45 -132t111 -48q70 0 115 51t45 123q0 70 -11 96q-4 8 1.5 13t19.5 5q43 0 77 -28.5t34 -73.5q0 -82 -148 -180q-155 -115 -274 -117z" />
<glyph unicode="&#xc0;" horiz-adv-x="1470" d="M627 397h-2q-51 0 -117 6q-33 6 -45 -26q-92 -184 -113 -234q-16 -41 19 -47q119 -14 166 -30q20 -8 6 -23q-66 -55 -92 -55q-20 4 -82 8q-70 4 -123 4q-104 0 -242 -16q-8 0 -11 1t-3 5t3 8t9 10q29 29 51 45q6 4 88 29q31 8 66 49q74 92 153 270q12 23 0 41 q-10 18 0 27q23 27 58 63q16 16 24 37q121 260 183 416q33 82 43 125l7 29q5 20 9 32.5t10 18.5q113 90 162 110q12 6 17.5 2t-1.5 -22q-8 -16 -8 -52t4 -61q8 -41 58 -198q70 -205 163 -428.5t154 -331.5q70 -121 139 -131q31 -8 109 -17q33 0 2 -24q-33 -31 -66.5 -40 t-99.5 -9q-57 4 -117 4q-90 4 -127 4q-80 0 -120 -8q-16 -4 -18.5 3t7.5 19q18 29 54 58q23 20 8 53q-12 33 -58 143l-59 148q-10 31 -37 22q-92 -37 -231 -37zM731 506h2q59 0 92 4t25 31q-117 334 -135 393q-2 6 -7.5 11t-10.5 2t-9 -15q-63 -168 -151 -381q-6 -18 22 -29 q41 -16 172 -16zM537 1651q14 4 22 -6q33 -39 128 -110t235 -130q16 -8 -2 -19q-39 -25 -78 -24q-47 0 -198.5 57.5t-233.5 114.5q-41 29 -17 47q64 45 144 70z" />
<glyph unicode="&#xc1;" horiz-adv-x="1470" d="M627 397h-2q-51 0 -117 6q-33 6 -45 -26q-92 -184 -113 -234q-16 -41 19 -47q119 -14 166 -30q20 -8 6 -23q-66 -55 -92 -55q-20 4 -82 8q-70 4 -123 4q-104 0 -242 -16q-8 0 -11 1t-3 5t3 8t9 10q29 29 51 45q6 4 88 29q31 8 66 49q74 92 153 270q12 23 0 41 q-10 18 0 27q23 27 58 63q16 16 24 37q121 260 183 416q33 82 43 125l7 29q5 20 9 32.5t10 18.5q113 90 162 110q12 6 17.5 2t-1.5 -22q-8 -16 -8 -52t4 -61q8 -41 58 -198q70 -205 163 -428.5t154 -331.5q70 -121 139 -131q31 -8 109 -17q33 0 2 -24q-33 -31 -66.5 -40 t-99.5 -9q-57 4 -117 4q-90 4 -127 4q-80 0 -120 -8q-16 -4 -18.5 3t7.5 19q18 29 54 58q23 20 8 53q-12 33 -58 143l-59 148q-10 31 -37 22q-92 -37 -231 -37zM731 506h2q59 0 92 4t25 31q-117 334 -135 393q-2 6 -7.5 11t-10.5 2t-9 -15q-63 -168 -151 -381q-6 -18 22 -29 q41 -16 172 -16zM1176 1634h2q14 0 17 -3t3 -13q-4 -33 -53 -68q-45 -37 -152.5 -96t-210.5 -92q-35 -12 -110 2q-33 4 -10 18q55 29 151 94.5t141 114.5q10 10 19 13q137 30 203 30z" />
<glyph unicode="&#xc2;" horiz-adv-x="1470" d="M627 397h-2q-51 0 -117 6q-33 6 -45 -26q-92 -184 -113 -234q-16 -41 19 -47q119 -14 166 -30q20 -8 6 -23q-66 -55 -92 -55q-20 4 -82 8q-70 4 -123 4q-104 0 -242 -16q-8 0 -11 1t-3 5t3 8t9 10q29 29 51 45q6 4 88 29q31 8 66 49q74 92 153 270q12 23 0 41 q-10 18 0 27q23 27 58 63q16 16 24 37q121 260 183 416q33 82 43 125l7 29q5 20 9 32.5t10 18.5q113 90 162 110q12 6 17.5 2t-1.5 -22q-8 -16 -8 -52t4 -61q8 -41 58 -198q70 -205 163 -428.5t154 -331.5q70 -121 139 -131q31 -8 109 -17q33 0 2 -24q-33 -31 -66.5 -40 t-99.5 -9q-57 4 -117 4q-90 4 -127 4q-80 0 -120 -8q-16 -4 -18.5 3t7.5 19q18 29 54 58q23 20 8 53q-12 33 -58 143l-59 148q-10 31 -37 22q-92 -37 -231 -37zM731 506h2q59 0 92 4t25 31q-117 334 -135 393q-2 6 -7.5 11t-10.5 2t-9 -15q-63 -168 -151 -381q-6 -18 22 -29 q41 -16 172 -16zM768 1450q-100 -70 -164 -96q-39 -18 -74 -19q-27 0 -59 23q-8 8 4 16q156 78 262 199q4 6 44 32.5t48 26.5q6 0 9 -6q59 -113 272 -240q10 -4 -4 -18q-49 -39 -82 -39q-14 0 -47 17q-35 14 -60.5 28.5t-59.5 37t-56 34.5q-19 12 -33 4z" />
<glyph unicode="&#xc3;" horiz-adv-x="1470" d="M627 397h-2q-51 0 -117 6q-33 6 -45 -26q-92 -184 -113 -234q-16 -41 19 -47q119 -14 166 -30q20 -8 6 -23q-66 -55 -92 -55q-20 4 -82 8q-70 4 -123 4q-104 0 -242 -16q-8 0 -11 1t-3 5t3 8t9 10q29 29 51 45q6 4 88 29q31 8 66 49q74 92 153 270q12 23 0 41 q-10 18 0 27q23 27 58 63q16 16 24 37q121 260 183 416q33 82 43 125l7 29q5 20 9 32.5t10 18.5q113 90 162 110q12 6 17.5 2t-1.5 -22q-8 -16 -8 -52t4 -61q8 -41 58 -198q70 -205 163 -428.5t154 -331.5q70 -121 139 -131q31 -8 109 -17q33 0 2 -24q-33 -31 -66.5 -40 t-99.5 -9q-57 4 -117 4q-90 4 -127 4q-80 0 -120 -8q-16 -4 -18.5 3t7.5 19q18 29 54 58q23 20 8 53q-12 33 -58 143l-59 148q-10 31 -37 22q-92 -37 -231 -37zM731 506h2q59 0 92 4t25 31q-117 334 -135 393q-2 6 -7.5 11t-10.5 2t-9 -15q-63 -168 -151 -381q-6 -18 22 -29 q41 -16 172 -16zM924 1479h2q47 0 98 55q18 23 70 35q10 4 13 2t1 -10q-23 -61 -95.5 -131t-133.5 -70q-41 0 -134 49q-68 37 -88 35q-59 -4 -139 -96q-4 -10 -12 2q-4 10 0 35.5t12 39.5q27 39 87.5 87.5t96.5 48.5q51 0 138 -52q53 -30 84 -30z" />
<glyph unicode="&#xc4;" horiz-adv-x="1470" d="M627 397h-2q-51 0 -117 6q-33 6 -45 -26q-92 -184 -113 -234q-16 -41 19 -47q119 -14 166 -30q20 -8 6 -23q-66 -55 -92 -55q-20 4 -82 8q-70 4 -123 4q-104 0 -242 -16q-8 0 -11 1t-3 5t3 8t9 10q29 29 51 45q6 4 88 29q31 8 66 49q74 92 153 270q12 23 0 41 q-10 18 0 27q23 27 58 63q16 16 24 37q121 260 183 416q33 82 43 125l7 29q5 20 9 32.5t10 18.5q113 90 162 110q12 6 17.5 2t-1.5 -22q-8 -16 -8 -52t4 -61q8 -41 58 -198q70 -205 163 -428.5t154 -331.5q70 -121 139 -131q31 -8 109 -17q33 0 2 -24q-33 -31 -66.5 -40 t-99.5 -9q-57 4 -117 4q-90 4 -127 4q-80 0 -120 -8q-16 -4 -18.5 3t7.5 19q18 29 54 58q23 20 8 53q-12 33 -58 143l-59 148q-10 31 -37 22q-92 -37 -231 -37zM731 506h2q59 0 92 4t25 31q-117 334 -135 393q-2 6 -7.5 11t-10.5 2t-9 -15q-63 -168 -151 -381q-6 -18 22 -29 q41 -16 172 -16zM483 1495q10 10 53.5 42t59.5 38q27 8 33 -12q10 -51 61 -109q23 -20 4 -45q-43 -51 -108 -84q-23 -12 -39 -2q-16 8 -48 50t-32 73q0 29 16 49zM915 1495q12 12 53.5 42t59.5 38q27 12 35 -12q12 -49 59 -103q25 -25 6 -49q-37 -49 -106 -86 q-25 -10 -43 -2q-18 12 -48 51t-32 68q-4 30 16 53z" />
<glyph unicode="&#xc5;" horiz-adv-x="1470" d="M627 397h-2q-51 0 -117 6q-33 6 -45 -26q-92 -184 -113 -234q-16 -41 19 -47q119 -14 166 -30q20 -8 6 -23q-66 -55 -92 -55q-20 4 -82 8q-70 4 -123 4q-104 0 -242 -16q-8 0 -11 1t-3 5t3 8t9 10q29 29 51 45q6 4 88 29q31 8 66 49q74 92 153 270q12 23 0 41 q-10 18 0 27q23 27 58 63q16 16 24 37q121 260 183 416q33 82 43 125l7 29q5 20 9 32.5t10 18.5q113 90 162 110q12 6 17.5 2t-1.5 -22q-8 -16 -8 -52t4 -61q8 -41 58 -198q70 -205 163 -428.5t154 -331.5q70 -121 139 -131q31 -8 109 -17q33 0 2 -24q-33 -31 -66.5 -40 t-99.5 -9q-57 4 -117 4q-90 4 -127 4q-80 0 -120 -8q-16 -4 -18.5 3t7.5 19q18 29 54 58q23 20 8 53q-12 33 -58 143l-59 148q-10 31 -37 22q-92 -37 -231 -37zM731 506h2q59 0 92 4t25 31q-117 334 -135 393q-2 6 -7.5 11t-10.5 2t-9 -15q-63 -168 -151 -381q-6 -18 22 -29 q41 -16 172 -16zM823 1692h2q68 0 105 -46.5t37 -117.5q0 -88 -72 -150q-72 -63 -145 -63q-49 0 -96.5 39t-47.5 121q0 78 56 129q93 88 161 88zM780 1610h-2q-86 0 -86 -99q0 -55 33 -84.5t70 -29.5q80 0 79 92q0 47 -24.5 84t-69.5 37z" />
<glyph unicode="&#xc6;" horiz-adv-x="1961" d="M1423 1243h2q268 0 361 49q12 8 16 1t-2 -21q-43 -129 -37 -303q2 -10 -3 -15.5t-13 -3.5q-18 8 -35.5 28.5t-23.5 35.5q-16 37 -39 121q-12 33 -37 28q-106 -18 -299 -18q-33 0 -35 -31v-471q0 -27 22 -31q29 -6 246 -2q80 0 154 15q66 10 100 26q16 6 15 -6 q0 -8 -9 -18q-31 -41 -100.5 -75t-112.5 -38l-303 -8q-16 0 -16 -37q0 -55 -2 -160.5t-2 -158.5q0 -45 57 -56q123 -16 272 -8q90 6 154 51q82 63 137 180q10 25 23 9q20 -25 12 -74q-16 -102 -94 -191q-70 -76 -154 -75q-72 0 -256 8q-283 6 -307 6q-205 0 -299 -12 q-12 -4 -14 1t6 17q31 41 74 55q51 14 118 29q27 6 37 43q23 113 23 344q0 33 -21 33q-100 -2 -233 2t-137 4q-45 0 -68 -35q-217 -326 -227 -346q-18 -35 10 -41q121 -12 168 -28q18 -6 4 -23q-55 -55 -90 -55q-184 12 -199 12q-106 0 -260 -16q-6 0 -9 1t-3 5t4 8 q27 43 59 55q8 4 38 13l44 12q61 14 111 74q143 182 272 383q20 29 21 75q0 25 24 31q33 8 51 39q86 137 191 342q16 31 31.5 53.5t33 38.5t19.5 21q18 23 -19 22q-227 8 -296 29q-23 2 -5 18q10 10 61.5 38t63.5 26q186 -25 725 -25zM1059 1090q-6 63 -17 63q-33 0 -73 -66 q-86 -131 -236 -399q-18 -31 -12 -44t41 -19q61 -12 280 -13q18 0 19 25q6 281 -2 453z" />
<glyph unicode="&#xc7;" horiz-adv-x="1382" d="M926 1292h2q170 0 274 -49q82 -39 88 -86q0 -43 -8 -55q-37 -94 -53 -148q-4 -18 -18.5 -34.5t-24.5 -18.5q-6 -4 -10.5 0t-4.5 14q4 123 -41 175q-88 109 -319 108q-186 0 -305 -111q-162 -152 -162 -436q0 -274 150 -438q66 -72 169 -112t220 -40q133 0 225 66 q92 70 164 197q10 20 20 12q6 -4 11.5 -25.5t3.5 -36.5q-27 -119 -93 -206q-29 -33 -75 -54q-125 -47 -305 -59q-39 -51 -39 -66q0 -27 63 -65q86 -49 86 -98q0 -53 -57 -111q-43 -39 -107.5 -68.5t-111.5 -29.5q-18 -2 -24.5 1t-4.5 11q0 8 21.5 30.5t37.5 26.5 q94 29 111 52q6 12 6 24q0 27 -98 84q-55 31 -55 72q0 25 26 57q31 39 72 76q-139 0 -256 34.5t-212 104.5t-149.5 190.5t-54.5 282.5q0 334 262 529q109 82 270 141t306 59z" />
<glyph unicode="&#xc8;" horiz-adv-x="1181" d="M279 547v2q0 504 -37 590q-6 16 -39 22q-141 20 -152 23q-43 8 -18 22q111 61 119 60q78 -10 194 -17q135 -6 367 -6q221 0 303 49q12 6 15 0t-1 -18q-43 -131 -37 -303q0 -12 -3 -15.5t-11 -1.5q-47 18 -59 56q-14 35 -41 123q-14 33 -23 32h-6q-115 -25 -318 -24 q-23 0 -29.5 -6.5t-6.5 -24.5q4 -109 4 -381q0 -18 24 -31q49 -20 246 -20q80 0 100 24q4 4 15.5 23.5t19.5 28.5q10 12 76 39q14 8 18.5 5t-2.5 -20q-49 -125 -49 -344q0 -12 -7 -14t-19 10q-39 35 -60 129q-4 12 -6 17.5t-8 9.5t-17 4q-104 -16 -317 -17q-16 0 -16 -45 q0 -70 -4.5 -211t-4.5 -174q0 -43 43 -53q154 -20 308 0q92 14 143 49q70 49 125 180q14 25 25 9q18 -29 12 -72q-14 -92 -90 -188q-74 -82 -154 -82q-74 0 -258 8q-276 6 -303 6q-225 0 -301 -16q-10 -2 -13 2t5 16q39 43 69 53q49 20 119 33q18 4 33 35q27 68 27 424z M367 1626q14 4 22 -6q33 -39 128 -109.5t235 -130.5q16 -8 -2 -18q-39 -25 -78 -25q-47 0 -198.5 57.5t-233.5 114.5q-41 29 -17 47q64 45 144 70z" />
<glyph unicode="&#xc9;" horiz-adv-x="1181" d="M279 547v2q0 504 -37 590q-6 16 -39 22q-141 20 -152 23q-43 8 -18 22q111 61 119 60q78 -10 194 -17q135 -6 367 -6q221 0 303 49q12 6 15 0t-1 -18q-43 -131 -37 -303q0 -12 -3 -15.5t-11 -1.5q-47 18 -59 56q-14 35 -41 123q-14 33 -23 32h-6q-115 -25 -318 -24 q-23 0 -29.5 -6.5t-6.5 -24.5q4 -109 4 -381q0 -18 24 -31q49 -20 246 -20q80 0 100 24q4 4 15.5 23.5t19.5 28.5q10 12 76 39q14 8 18.5 5t-2.5 -20q-49 -125 -49 -344q0 -12 -7 -14t-19 10q-39 35 -60 129q-4 12 -6 17.5t-8 9.5t-17 4q-104 -16 -317 -17q-16 0 -16 -45 q0 -70 -4.5 -211t-4.5 -174q0 -43 43 -53q154 -20 308 0q92 14 143 49q70 49 125 180q14 25 25 9q18 -29 12 -72q-14 -92 -90 -188q-74 -82 -154 -82q-74 0 -258 8q-276 6 -303 6q-225 0 -301 -16q-10 -2 -13 2t5 16q39 43 69 53q49 20 119 33q18 4 33 35q27 68 27 424z M989 1616h2q14 0 17.5 -3t3.5 -14q-4 -33 -54 -67q-45 -37 -152.5 -96.5t-209.5 -92.5q-35 -12 -111 3q-33 4 -10 18q55 29 151.5 94.5t141.5 114.5q10 10 18 12q140 31 203 31z" />
<glyph unicode="&#xca;" horiz-adv-x="1181" d="M279 547v2q0 504 -37 590q-6 16 -39 22q-141 20 -152 23q-43 8 -18 22q111 61 119 60q78 -10 194 -17q135 -6 367 -6q221 0 303 49q12 6 15 0t-1 -18q-43 -131 -37 -303q0 -12 -3 -15.5t-11 -1.5q-47 18 -59 56q-14 35 -41 123q-14 33 -23 32h-6q-115 -25 -318 -24 q-23 0 -29.5 -6.5t-6.5 -24.5q4 -109 4 -381q0 -18 24 -31q49 -20 246 -20q80 0 100 24q4 4 15.5 23.5t19.5 28.5q10 12 76 39q14 8 18.5 5t-2.5 -20q-49 -125 -49 -344q0 -12 -7 -14t-19 10q-39 35 -60 129q-4 12 -6 17.5t-8 9.5t-17 4q-104 -16 -317 -17q-16 0 -16 -45 q0 -70 -4.5 -211t-4.5 -174q0 -43 43 -53q154 -20 308 0q92 14 143 49q70 49 125 180q14 25 25 9q18 -29 12 -72q-14 -92 -90 -188q-74 -82 -154 -82q-74 0 -258 8q-276 6 -303 6q-225 0 -301 -16q-10 -2 -13 2t5 16q39 43 69 53q49 20 119 33q18 4 33 35q27 68 27 424z M578 1466q-100 -70 -164 -96q-39 -18 -74 -18q-25 0 -59 22q-8 8 4 17q156 78 262 198q4 6 44 33t48 27q4 0 8 -7q59 -113 273 -239q10 -4 -5 -19q-49 -39 -81 -38q-14 0 -48 16q-35 14 -60.5 28.5t-59 37t-56.5 34.5q-18 12 -32 4z" />
<glyph unicode="&#xcb;" horiz-adv-x="1181" d="M279 547v2q0 504 -37 590q-6 16 -39 22q-141 20 -152 23q-43 8 -18 22q111 61 119 60q78 -10 194 -17q135 -6 367 -6q221 0 303 49q12 6 15 0t-1 -18q-43 -131 -37 -303q0 -12 -3 -15.5t-11 -1.5q-47 18 -59 56q-14 35 -41 123q-14 33 -23 32h-6q-115 -25 -318 -24 q-23 0 -29.5 -6.5t-6.5 -24.5q4 -109 4 -381q0 -18 24 -31q49 -20 246 -20q80 0 100 24q4 4 15.5 23.5t19.5 28.5q10 12 76 39q14 8 18.5 5t-2.5 -20q-49 -125 -49 -344q0 -12 -7 -14t-19 10q-39 35 -60 129q-4 12 -6 17.5t-8 9.5t-17 4q-104 -16 -317 -17q-16 0 -16 -45 q0 -70 -4.5 -211t-4.5 -174q0 -43 43 -53q154 -20 308 0q92 14 143 49q70 49 125 180q14 25 25 9q18 -29 12 -72q-14 -92 -90 -188q-74 -82 -154 -82q-74 0 -258 8q-276 6 -303 6q-225 0 -301 -16q-10 -2 -13 2t5 16q39 43 69 53q49 20 119 33q18 4 33 35q27 68 27 424z M279 1511q10 10 53 42t59 38q27 8 33 -12q10 -51 61 -109q23 -20 4 -45q-43 -51 -108 -84q-23 -12 -39 -2q-16 8 -48 50.5t-32 72.5q1 29 17 49zM711 1511q12 12 53 42t59 38q27 12 35 -12q12 -49 60 -102q25 -25 6 -50q-37 -49 -107 -86q-25 -10 -43 -2q-18 12 -48 51.5 t-32 67.5q-3 30 17 53z" />
<glyph unicode="&#xcc;" horiz-adv-x="778" d="M279 635v2q0 406 -15 479q-8 33 -43 35q-88 8 -147 25q-29 4 -6 18q80 66 98 63q43 -6 84 -8q61 -6 151 -6q121 0 314 21q8 2 11 -2.5t-1 -10.5q-35 -51 -63 -63q-33 -12 -95 -25q-43 -10 -49 -41q-18 -66 -18 -458q0 -395 8 -512q2 -33 9 -43.5t24 -12.5 q125 -16 170 -26q23 -8 8 -17q-78 -70 -103 -65q-27 4 -88 8q-78 4 -147 4q-195 0 -332 -25q-18 0 -14 9q6 12 22.5 32.5t28.5 26.5q29 16 113 37q41 10 53 61q27 93 27 494zM160 1622q14 4 22 -6q33 -39 128.5 -109.5t234.5 -130.5q16 -8 -2 -18q-39 -25 -78 -25 q-47 0 -198.5 57.5t-233.5 114.5q-41 29 -17 47q64 45 144 70z" />
<glyph unicode="&#xcd;" horiz-adv-x="778" d="M279 635v2q0 406 -15 479q-8 33 -43 35q-88 8 -147 25q-29 4 -6 18q80 66 98 63q43 -6 84 -8q61 -6 151 -6q121 0 314 21q8 2 11 -2.5t-1 -10.5q-35 -51 -63 -63q-33 -12 -95 -25q-43 -10 -49 -41q-18 -66 -18 -458q0 -395 8 -512q2 -33 9 -43.5t24 -12.5 q125 -16 170 -26q23 -8 8 -17q-78 -70 -103 -65q-27 4 -88 8q-78 4 -147 4q-195 0 -332 -25q-18 0 -14 9q6 12 22.5 32.5t28.5 26.5q29 16 113 37q41 10 53 61q27 93 27 494zM793 1612h2q14 0 17 -3t3 -14q-4 -33 -53 -67q-45 -37 -152.5 -96.5t-210.5 -92.5q-35 -12 -110 2 q-33 4 -10 19q55 29 151 94.5t141 114.5q10 10 19 12q140 31 203 31z" />
<glyph unicode="&#xce;" horiz-adv-x="778" d="M279 635v2q0 406 -15 479q-8 33 -43 35q-88 8 -147 25q-29 4 -6 18q80 66 98 63q43 -6 84 -8q61 -6 151 -6q121 0 314 21q8 2 11 -2.5t-1 -10.5q-35 -51 -63 -63q-33 -12 -95 -25q-43 -10 -49 -41q-18 -66 -18 -458q0 -395 8 -512q2 -33 9 -43.5t24 -12.5 q125 -16 170 -26q23 -8 8 -17q-78 -70 -103 -65q-27 4 -88 8q-78 4 -147 4q-195 0 -332 -25q-18 0 -14 9q6 12 22.5 32.5t28.5 26.5q29 16 113 37q41 10 53 61q27 93 27 494zM375 1458q-100 -70 -164 -96q-39 -18 -74 -19q-27 0 -59 23q-8 8 4 16q156 78 262 199 q4 6 44 32.5t48 26.5q6 0 8 -6q59 -113 273 -239q10 -4 -4 -19q-49 -39 -82 -39q-14 0 -47 17q-35 14 -60.5 28.5t-59.5 37t-56 34.5q-19 12 -33 4z" />
<glyph unicode="&#xcf;" horiz-adv-x="778" d="M279 635v2q0 406 -15 479q-8 33 -43 35q-88 8 -147 25q-29 4 -6 18q80 66 98 63q43 -6 84 -8q61 -6 151 -6q121 0 314 21q8 2 11 -2.5t-1 -10.5q-35 -51 -63 -63q-33 -12 -95 -25q-43 -10 -49 -41q-18 -66 -18 -458q0 -395 8 -512q2 -33 9 -43.5t24 -12.5 q125 -16 170 -26q23 -8 8 -17q-78 -70 -103 -65q-27 4 -88 8q-78 4 -147 4q-195 0 -332 -25q-18 0 -14 9q6 12 22.5 32.5t28.5 26.5q29 16 113 37q41 10 53 61q27 93 27 494zM82 1513q10 10 53 42t60 38q27 8 32 -12q10 -51 62 -108q23 -20 4 -46q-43 -51 -109 -84 q-23 -12 -39 -2q-16 8 -47.5 50.5t-31.5 72.5q0 29 16 49zM514 1513q12 12 53 42t60 38q27 12 35 -12q12 -49 59 -102q25 -25 6 -49q-37 -49 -106 -87q-25 -10 -43 -2q-18 12 -48 51.5t-32 67.5q-4 30 16 53z" />
<glyph unicode="&#xd0;" horiz-adv-x="1531" d="M707 1280h2q213 0 346 -38t227 -120q162 -139 162 -430q0 -184 -84 -315t-184 -197q-297 -203 -770 -203q-197 0 -285 9q-37 4 -15 20q70 57 111 70q35 6 47 49q29 104 25 473q-172 0 -219 14q-23 4 -9 19q49 41 89 61q10 6 22 4q31 -4 117 -6q-10 342 -31 426 q-10 33 -49 33q-113 -8 -199 -25q-12 -2 -14 2t6 13q63 59 100 67q94 27 283 50.5t322 23.5zM639 1182h-2q-76 0 -107 -8q-29 -6 -28 -31q6 -154 8 -432q0 -23 18 -23q248 0 373 17q16 0 6 -11q-4 -8 -25.5 -28.5t-33.5 -26.5q-72 -39 -320 -43q-18 0 -18 -25 q0 -303 -12 -434q-4 -23 34 -35q41 -10 164 -10q508 0 508 508q0 264 -140 423t-425 159z" />
<glyph unicode="&#xd1;" horiz-adv-x="1591" d="M291 823v2q0 223 -25 279q-18 53 -80 61q-76 10 -184 11q-10 0 -12 4t4 8q55 55 94 59q293 20 313 21q33 0 64 -45q172 -236 429 -551.5t327 -356.5q33 -14 32 9q2 37 2 370.5t-16 411.5q-6 23 -17.5 31t-35.5 12q-90 8 -162 22q-23 4 -10 17q84 68 106 65 q92 -10 176 -10q143 0 287 25q10 2 12 -2t-4 -15q-29 -43 -67 -61q-47 -18 -105 -31q-31 -8 -43 -59q-31 -100 -30 -527q0 -500 10 -596q6 -35 -19 -34q-115 0 -247 153q-203 221 -670 830q-14 18 -26.5 14t-12.5 -25q-4 -119 -4 -405q0 -174 10 -352q0 -55 51 -64 q16 -4 67.5 -11t63.5 -11q23 -8 6 -21q-68 -61 -96 -61q-37 4 -71 6q-57 4 -99 4q-190 0 -299 -25q-14 -2 -16 0t2 13q27 41 61 59q33 12 109 33q35 10 52.5 25.5t27.5 48.5q45 139 45 669zM963 1462h2q47 0 98 56q18 23 70 34q10 4 13 2t1 -10q-23 -61 -95.5 -131 t-133.5 -70q-41 0 -134 50q-68 37 -88 34q-59 -4 -139 -96q-4 -10 -12 2q-4 10 0 36t12 40q27 39 87.5 87t96.5 48q51 0 138 -51q53 -31 84 -31z" />
<glyph unicode="&#xd2;" horiz-adv-x="1554" d="M909 1290h2q268 0 410.5 -169t142.5 -423q0 -338 -233 -526q-51 -43 -141.5 -93t-141.5 -69q-164 -59 -264 -59q-266 0 -431 156.5t-165 445.5q0 285 195 479q96 92 282 178q172 80 344 80zM748 1180h-3q-158 0 -266 -95q-154 -127 -153 -413q0 -276 144 -438t370 -162 q133 0 219 63q172 115 172 455q0 262 -130 426t-353 164zM565 1653q14 4 23 -6q33 -39 128 -110t234 -130q16 -8 -2 -18q-39 -25 -78 -25q-47 0 -198.5 57.5t-233.5 114.5q-41 29 -16 47q63 45 143 70z" />
<glyph unicode="&#xd3;" horiz-adv-x="1554" d="M909 1290h2q268 0 410.5 -169t142.5 -423q0 -338 -233 -526q-51 -43 -141.5 -93t-141.5 -69q-164 -59 -264 -59q-266 0 -431 156.5t-165 445.5q0 285 195 479q96 92 282 178q172 80 344 80zM748 1180h-3q-158 0 -266 -95q-154 -127 -153 -413q0 -276 144 -438t370 -162 q133 0 219 63q172 115 172 455q0 262 -130 426t-353 164zM1178 1636h2q14 0 17 -3t3 -13q-4 -33 -53 -68q-45 -37 -152.5 -96t-210.5 -92q-35 -12 -110 2q-33 4 -10 18q55 29 151 94.5t141 114.5q10 10 19 13q140 30 203 30z" />
<glyph unicode="&#xd4;" horiz-adv-x="1554" d="M909 1290h2q268 0 410.5 -169t142.5 -423q0 -338 -233 -526q-51 -43 -141.5 -93t-141.5 -69q-164 -59 -264 -59q-266 0 -431 156.5t-165 445.5q0 285 195 479q96 92 282 178q172 80 344 80zM748 1180h-3q-158 0 -266 -95q-154 -127 -153 -413q0 -276 144 -438t370 -162 q133 0 219 63q172 115 172 455q0 262 -130 426t-353 164zM788 1485q-100 -70 -163 -96q-39 -18 -74 -19q-27 0 -59 23q-8 8 4 16q156 78 262 199q4 6 44 32.5t48 26.5q6 0 8 -6q59 -113 272 -240q10 -4 -4 -18q-49 -39 -82 -39q-14 0 -47 16q-35 14 -60.5 28.5t-59 37 t-56.5 35.5q-19 12 -33 4z" />
<glyph unicode="&#xd5;" horiz-adv-x="1554" d="M909 1290h2q268 0 410.5 -169t142.5 -423q0 -338 -233 -526q-51 -43 -141.5 -93t-141.5 -69q-164 -59 -264 -59q-266 0 -431 156.5t-165 445.5q0 285 195 479q96 92 282 178q172 80 344 80zM748 1180h-3q-158 0 -266 -95q-154 -127 -153 -413q0 -276 144 -438t370 -162 q133 0 219 63q172 115 172 455q0 262 -130 426t-353 164zM915 1495h3q47 0 98 55q18 23 69 35q10 4 13.5 2t1.5 -10q-23 -61 -95.5 -131t-134.5 -70q-41 0 -133 49q-68 37 -88 35q-59 -4 -139 -96q-4 -10 -12 2q-4 10 0 35.5t12 40.5q27 39 87 87t97 48q51 0 137 -51 q53 -31 84 -31z" />
<glyph unicode="&#xd6;" horiz-adv-x="1554" d="M909 1290h2q268 0 410.5 -169t142.5 -423q0 -338 -233 -526q-51 -43 -141.5 -93t-141.5 -69q-164 -59 -264 -59q-266 0 -431 156.5t-165 445.5q0 285 195 479q96 92 282 178q172 80 344 80zM748 1180h-3q-158 0 -266 -95q-154 -127 -153 -413q0 -276 144 -438t370 -162 q133 0 219 63q172 115 172 455q0 262 -130 426t-353 164zM489 1530q10 10 53.5 42t59.5 38q27 8 33 -13q10 -51 61 -108q23 -20 4 -45q-43 -51 -108 -84q-23 -12 -39 -2q-16 8 -48 50t-32 73q0 29 16 49zM922 1530q12 12 53 42t59 38q27 12 35 -13q12 -49 59 -102 q25 -25 7 -49q-37 -49 -107 -86q-25 -10 -43 -2q-18 12 -48 51t-32 68q-3 30 17 53z" />
<glyph unicode="&#xd7;" horiz-adv-x="1142" d="M985 807q10 2 10 -7t-8 -26q-18 -35 -124.5 -162t-198.5 -221q-18 -18 -5 -39q47 -55 174.5 -188t159.5 -162q18 -14 6 -20q-25 -12 -73 -13q-51 0 -119 66q-137 121 -232 223q-20 25 -36 4q-80 -86 -160 -158.5t-100 -85.5q-35 -29 -125 -45q-8 0 -11.5 4.5t-0.5 11.5 t10 11q27 23 156.5 156t162.5 174q14 25 0 32l-72 79l-66 75l-51 57q-28 31 -43.5 50.5t-21.5 31.5q-35 51 -22 84q12 31 55 74q10 10 16 -4q27 -49 119 -160.5t162 -181.5q8 -8 20.5 -10t14.5 2q156 156 266 315q12 19 137 33z" />
<glyph unicode="&#xd8;" horiz-adv-x="1552" d="M909 1290h2q147 0 271 -59l73 110q18 27 117 50q12 2 15.5 -3.5t-3.5 -15.5q-47 -80 -124 -188q207 -162 206 -486q0 -180 -67.5 -312t-167.5 -212q-51 -43 -141.5 -93t-141.5 -69q-158 -61 -264 -61q-188 0 -322 76q-14 8 -30 -9l-43 -43q-33 -33 -84 -61.5t-84 -34.5 q-20 -4 -21.5 4t11.5 19q43 43 153 168q12 12 -2 26q-174 162 -174 451t197 485q84 84 288 178q178 80 336 80zM752 1182h-2q-156 0 -267 -90q-164 -141 -164 -420q0 -260 113 -408q303 362 619 787q12 20 -7 34q-122 97 -292 97zM840 72h2q125 0 217 63q178 123 178 455 q0 242 -96 387q-14 27 -31 2q-334 -451 -618 -780q139 -127 348 -127z" />
<glyph unicode="&#xd9;" horiz-adv-x="1570" d="M471 662v-3q0 -207 30.5 -309t88.5 -162q100 -109 278 -108q186 0 273 108q57 72 78.5 193t21.5 346q0 285 -24 377q-14 37 -46 43q-102 8 -172 24q-25 6 -10 19q20 18 60.5 41.5t50.5 21.5q25 -4 74 -6q61 -4 106 -4q184 0 279 23q27 6 8 -19q-18 -37 -60 -57 q-20 -12 -114 -39q-33 -10 -35 -55q-8 -131 -8 -291q-4 -297 -45 -458t-164 -261q-150 -133 -391 -133q-254 0 -377 139q-72 84 -99.5 195.5t-27.5 326.5q0 336 -2 449q0 78 -29 80q-98 12 -170 28q-25 8 -8 21q33 27 67.5 46t45.5 19q72 -8 75 -8q49 -6 140 -6 q172 0 329 23q12 2 13.5 -2t-7.5 -15q-29 -47 -57 -59q-33 -16 -113 -35q-29 -8 -38 -39q-21 -57 -21 -454zM598 1626q14 4 23 -6q33 -39 128 -109.5t234 -130.5q16 -8 -2 -18q-39 -25 -78 -25q-47 0 -198.5 57.5t-233.5 114.5q-41 29 -16 47q63 45 143 70z" />
<glyph unicode="&#xda;" horiz-adv-x="1570" d="M471 662v-3q0 -207 30.5 -309t88.5 -162q100 -109 278 -108q186 0 273 108q57 72 78.5 193t21.5 346q0 285 -24 377q-14 37 -46 43q-102 8 -172 24q-25 6 -10 19q20 18 60.5 41.5t50.5 21.5q25 -4 74 -6q61 -4 106 -4q184 0 279 23q27 6 8 -19q-18 -37 -60 -57 q-20 -12 -114 -39q-33 -10 -35 -55q-8 -131 -8 -291q-4 -297 -45 -458t-164 -261q-150 -133 -391 -133q-254 0 -377 139q-72 84 -99.5 195.5t-27.5 326.5q0 336 -2 449q0 78 -29 80q-98 12 -170 28q-25 8 -8 21q33 27 67.5 46t45.5 19q72 -8 75 -8q49 -6 140 -6 q172 0 329 23q12 2 13.5 -2t-7.5 -15q-29 -47 -57 -59q-33 -16 -113 -35q-29 -8 -38 -39q-21 -57 -21 -454zM1214 1614h3q14 0 17 -3t3 -14q-4 -33 -53 -67q-45 -37 -152.5 -96.5t-210.5 -92.5q-35 -12 -110 2q-33 4 -11 19q55 29 151.5 94.5t141.5 114.5q10 10 19 12 q139 31 202 31z" />
<glyph unicode="&#xdb;" horiz-adv-x="1570" d="M471 662v-3q0 -207 30.5 -309t88.5 -162q100 -109 278 -108q186 0 273 108q57 72 78.5 193t21.5 346q0 285 -24 377q-14 37 -46 43q-102 8 -172 24q-25 6 -10 19q20 18 60.5 41.5t50.5 21.5q25 -4 74 -6q61 -4 106 -4q184 0 279 23q27 6 8 -19q-18 -37 -60 -57 q-20 -12 -114 -39q-33 -10 -35 -55q-8 -131 -8 -291q-4 -297 -45 -458t-164 -261q-150 -133 -391 -133q-254 0 -377 139q-72 84 -99.5 195.5t-27.5 326.5q0 336 -2 449q0 78 -29 80q-98 12 -170 28q-25 8 -8 21q33 27 67.5 46t45.5 19q72 -8 75 -8q49 -6 140 -6 q172 0 329 23q12 2 13.5 -2t-7.5 -15q-29 -47 -57 -59q-33 -16 -113 -35q-29 -8 -38 -39q-21 -57 -21 -454zM809 1462q-100 -70 -164 -96q-39 -18 -74 -18q-27 0 -59 22q-8 8 4 16q156 78 262 199q4 6 44 33t48 27q6 0 9 -7q59 -113 272 -239q10 -4 -4 -19q-49 -39 -82 -39 q-14 0 -47 17q-35 14 -60.5 28.5t-59.5 37t-56 34.5q-19 12 -33 4z" />
<glyph unicode="&#xdc;" horiz-adv-x="1570" d="M471 662v-3q0 -207 30.5 -309t88.5 -162q100 -109 278 -108q186 0 273 108q57 72 78.5 193t21.5 346q0 285 -24 377q-14 37 -46 43q-102 8 -172 24q-25 6 -10 19q20 18 60.5 41.5t50.5 21.5q25 -4 74 -6q61 -4 106 -4q184 0 279 23q27 6 8 -19q-18 -37 -60 -57 q-20 -12 -114 -39q-33 -10 -35 -55q-8 -131 -8 -291q-4 -297 -45 -458t-164 -261q-150 -133 -391 -133q-254 0 -377 139q-72 84 -99.5 195.5t-27.5 326.5q0 336 -2 449q0 78 -29 80q-98 12 -170 28q-25 8 -8 21q33 27 67.5 46t45.5 19q72 -8 75 -8q49 -6 140 -6 q172 0 329 23q12 2 13.5 -2t-7.5 -15q-29 -47 -57 -59q-33 -16 -113 -35q-29 -8 -38 -39q-21 -57 -21 -454zM518 1516q10 10 53 41.5t60 37.5q27 8 33 -12q10 -51 61 -108q23 -20 4 -45q-43 -51 -108 -84q-23 -12 -39 -3q-16 8 -48 50.5t-32 72.5t16 50zM950 1516 q12 12 53 41.5t60 37.5q27 12 35 -12q12 -49 59 -102q25 -25 6 -49q-37 -49 -106 -86q-25 -10 -43 -3q-18 12 -48 51.5t-32 67.5q-4 31 16 54z" />
<glyph unicode="&#xdd;" horiz-adv-x="1310" d="M215 1087q-29 33 -51.5 46.5t-63.5 21.5q-6 2 -53 8t-76 15q-8 0 -12 4t-3 7t5 7q72 59 96 59q6 0 40 -3l59 -5q82 -4 139 -4q137 0 301 17q25 2 6 -19q-29 -41 -57 -49q-16 -6 -41 -13.5t-29 -9.5q-29 -8 -10 -39q104 -176 244 -462q8 -20 22 4l264 456q16 25 -18 29 q-94 16 -115 21q-29 6 -10 16q76 66 98 61q4 0 31 -3l43 -5q57 -4 98 -4q102 0 242 19q10 2 13 -2.5t-3 -14.5q-33 -45 -63 -55q-68 -23 -107 -29q-35 -8 -90 -67q-178 -197 -307 -463q-39 -74 -39 -182q0 -238 8 -316q2 -29 33 -35q174 -18 225 -35q18 -6 6 -18 q-27 -25 -63.5 -44t-46.5 -17q-31 4 -117 12q-98 4 -154 4q-225 0 -397 -27q-10 -2 -13 1t3 12q25 45 84 65q84 29 153 41q33 6 41 53q16 98 17 275q0 100 -31 166q-59 135 -150.5 287.5t-150.5 213.5zM1106 1624h2q14 0 17 -3t3 -13q-4 -33 -53 -68q-45 -37 -152.5 -96.5 t-209.5 -91.5q-35 -12 -111 2q-33 4 -10 18q55 29 151.5 94.5t141.5 114.5q10 10 18 12q137 31 203 31z" />
<glyph unicode="&#xde;" horiz-adv-x="1204" d="M1124 678v-2q0 -231 -282 -350q-133 -57 -342 -62q-16 0 -17 -20v-97q0 -41 45 -45q127 -14 193 -32q20 -6 4 -23q-72 -63 -100.5 -59t-96.5 8q-78 4 -145 4q-233 0 -344 -27q-10 -2 -11 3.5t3 11.5q4 14 23.5 35.5t33.5 29.5q25 12 107 33q25 8 34 18.5t15 32.5 q25 82 24 500q0 408 -14 487q-4 29 -43 35q-90 8 -139 19q-23 8 -4 22q80 61 94 57q8 0 32.5 -3t41.5 -3q70 -4 141 -4q154 0 305 19q12 2 14 -4q0 -2 -4 -7q-29 -47 -59 -59q-31 -14 -86 -25q-49 -12 -51 -43q-2 -18 -4.5 -73.5t-2.5 -73.5q2 -10 7.5 -16.5t13.5 -3.5 q51 10 98 16q68 10 144 10q207 0 292 -82q80 -77 80 -227zM893 631v2q0 123 -70.5 191.5t-195.5 68.5q-76 0 -113 -19q-27 -18 -29 -57q0 -4 -1 -59.5t-2 -145.5t-1 -178q0 -47 29 -59q43 -25 127 -25q104 0 170 58q86 73 86 223z" />
<glyph unicode="&#xdf;" horiz-adv-x="1093" d="M735 1401h2q115 0 188.5 -70.5t73.5 -185.5q0 -111 -84 -199l-60 -59l-56 -56q-55 -57 -56 -88q0 -27 33 -54t154 -105q102 -66 102 -185q0 -121 -77.5 -215t-174.5 -153q-102 -59 -182 -60q-47 0 -76.5 40t-29.5 93q-2 12 5 15.5t15 -6.5q47 -43 158 -43q78 0 132 51 t54 131q0 92 -102 166l-88.5 62t-90.5 69q-35 37 -32.5 79t28.5 64q70 63 152 148q102 109 102 235q0 92 -54 162t-140 70q-59 0 -109 -41q-72 -61 -106.5 -207t-34.5 -434v-205q0 -264 16 -307q8 -25 78 -43q16 -4 8 -17q-55 -66 -80 -61q-12 2 -55 6q-23 2 -74 2 q-152 0 -243 -18q-8 -2 -12.5 -1t-4.5 5t4 8q14 27 43 47q25 12 86 35q25 8 29 33q4 31 4 190v371q0 23 -16 22q-72 6 -117 19q-23 2 -10 18q35 45 90 74q6 2 23.5 3t23.5 3q14 0 14 25q6 203 127 346q98 123 238 182q94 39 182 39z" />
<glyph unicode="&#xe0;" horiz-adv-x="917" d="M504 842h2q129 0 186.5 -97.5t59.5 -232.5q0 -172 -15 -362q-2 -23 19 -35q43 -27 139 -15q18 2 -10 -32q-6 -8 -13 -13q-51 -41 -141 -65.5t-153 -24.5q-16 0 -26.5 7.5t-8.5 19.5l8 106q0 25 -19 15q-12 -6 -72 -43l-100 -60q-63 -35 -118 -35q-68 0 -123.5 52.5 t-55.5 140.5q0 98 123 168q63 35 170 76t164 53q31 6 31 31q-4 231 -180 231q-61 0 -105 -43q-49 -47 -65 -172q-4 -33 -29 -20q-31 16 -53.5 49.5t-22.5 62.5q0 35 51 70q109 80 224 131q80 37 133 37zM391 115h2q86 0 144 69q18 18 18 47q0 18 1 63.5t1 63.5q0 33 -27 33 q-47 0 -113.5 -19.5t-101.5 -39.5q-49 -31 -49 -76q0 -55 35 -98t90 -43zM547 961q12 -16 -12 -17q-18 0 -50 7t-41 14q-43 27 -106.5 107.5t-87.5 152.5q-12 31 12 57q8 10 48 25.5t67 15.5q27 -88 75 -191t95 -171z" />
<glyph unicode="&#xe1;" horiz-adv-x="917" d="M504 842h2q129 0 186.5 -97.5t59.5 -232.5q0 -172 -15 -362q-2 -23 19 -35q43 -27 139 -15q18 2 -10 -32q-6 -8 -13 -13q-51 -41 -141 -65.5t-153 -24.5q-16 0 -26.5 7.5t-8.5 19.5l8 106q0 25 -19 15q-12 -6 -72 -43l-100 -60q-63 -35 -118 -35q-68 0 -123.5 52.5 t-55.5 140.5q0 98 123 168q63 35 170 76t164 53q31 6 31 31q-4 231 -180 231q-61 0 -105 -43q-49 -47 -65 -172q-4 -33 -29 -20q-31 16 -53.5 49.5t-22.5 62.5q0 35 51 70q109 80 224 131q80 37 133 37zM391 115h2q86 0 144 69q18 18 18 47q0 18 1 63.5t1 63.5q0 33 -27 33 q-47 0 -113.5 -19.5t-101.5 -39.5q-49 -31 -49 -76q0 -55 35 -98t90 -43zM700 1329h2q14 -2 13.5 -20.5t-17.5 -51.5q-31 -57 -98.5 -151t-99.5 -117q-14 -12 -54 -27.5t-61 -15.5q-8 0 -9 5t3 10q35 49 93 157.5t77 169.5q6 12 65 26.5t86 14.5z" />
<glyph unicode="&#xe2;" horiz-adv-x="917" d="M504 842h2q129 0 186.5 -97.5t59.5 -232.5q0 -172 -15 -362q-2 -23 19 -35q43 -27 139 -15q18 2 -10 -32q-6 -8 -13 -13q-51 -41 -141 -65.5t-153 -24.5q-16 0 -26.5 7.5t-8.5 19.5l8 106q0 25 -19 15q-12 -6 -72 -43l-100 -60q-63 -35 -118 -35q-68 0 -123.5 52.5 t-55.5 140.5q0 98 123 168q63 35 170 76t164 53q31 6 31 31q-4 231 -180 231q-61 0 -105 -43q-49 -47 -65 -172q-4 -33 -29 -20q-31 16 -53.5 49.5t-22.5 62.5q0 35 51 70q109 80 224 131q80 37 133 37zM391 115h2q86 0 144 69q18 18 18 47q0 18 1 63.5t1 63.5q0 33 -27 33 q-47 0 -113.5 -19.5t-101.5 -39.5q-49 -31 -49 -76q0 -55 35 -98t90 -43zM438 1114q-59 -82 -104 -127q-16 -16 -49 -27.5t-52 -11.5q-14 -2 -22 0t0 17q129 129 219 307q6 12 35 28.5t37 16.5q10 0 12 -12q53 -188 182 -297q12 -8 0 -23q-27 -37 -84 -43q-23 -4 -43 19 q-55 49 -104 153q-11 23 -27 0z" />
<glyph unicode="&#xe3;" horiz-adv-x="917" d="M504 842h2q129 0 186.5 -97.5t59.5 -232.5q0 -172 -15 -362q-2 -23 19 -35q43 -27 139 -15q18 2 -10 -32q-6 -8 -13 -13q-51 -41 -141 -65.5t-153 -24.5q-16 0 -26.5 7.5t-8.5 19.5l8 106q0 25 -19 15q-12 -6 -72 -43l-100 -60q-63 -35 -118 -35q-68 0 -123.5 52.5 t-55.5 140.5q0 98 123 168q63 35 170 76t164 53q31 6 31 31q-4 231 -180 231q-61 0 -105 -43q-49 -47 -65 -172q-4 -33 -29 -20q-31 16 -53.5 49.5t-22.5 62.5q0 35 51 70q109 80 224 131q80 37 133 37zM391 115h2q86 0 144 69q18 18 18 47q0 18 1 63.5t1 63.5q0 33 -27 33 q-47 0 -113.5 -19.5t-101.5 -39.5q-49 -31 -49 -76q0 -55 35 -98t90 -43zM586 1112h2q35 0 82 55q16 20 59 35q10 2 12 -1t-2 -11q-39 -106 -131 -170q-35 -23 -73.5 -23t-122.5 50q-63 37 -84 34q-53 -2 -131 -96q-12 -16 -17 2q0 45 19 74q35 53 92 102q47 33 78 33 q37 0 131 -51q63 -33 86 -33z" />
<glyph unicode="&#xe4;" horiz-adv-x="917" d="M504 842h2q129 0 186.5 -97.5t59.5 -232.5q0 -172 -15 -362q-2 -23 19 -35q43 -27 139 -15q18 2 -10 -32q-6 -8 -13 -13q-51 -41 -141 -65.5t-153 -24.5q-16 0 -26.5 7.5t-8.5 19.5l8 106q0 25 -19 15q-12 -6 -72 -43l-100 -60q-63 -35 -118 -35q-68 0 -123.5 52.5 t-55.5 140.5q0 98 123 168q63 35 170 76t164 53q31 6 31 31q-4 231 -180 231q-61 0 -105 -43q-49 -47 -65 -172q-4 -33 -29 -20q-31 16 -53.5 49.5t-22.5 62.5q0 35 51 70q109 80 224 131q80 37 133 37zM391 115h2q86 0 144 69q18 18 18 47q0 18 1 63.5t1 63.5q0 33 -27 33 q-47 0 -113.5 -19.5t-101.5 -39.5q-49 -31 -49 -76q0 -55 35 -98t90 -43zM172 1184q8 10 52 40.5t63 37.5q25 8 30 -13q12 -51 64 -102q20 -25 0 -47q-37 -47 -105 -82q-20 -12 -38 -4q-18 12 -50 52t-32 67q0 33 16 51zM541 1184q61 53 100 73q33 12 43 -4q43 -76 61 -92 q25 -27 5 -57q-16 -25 -59.5 -59.5t-69.5 -34.5q-16 0 -47 38.5t-50 79.5q-12 33 17 56z" />
<glyph unicode="&#xe5;" horiz-adv-x="917" d="M504 842h2q129 0 186.5 -97.5t59.5 -232.5q0 -172 -15 -362q-2 -23 19 -35q43 -27 139 -15q18 2 -10 -32q-6 -8 -13 -13q-51 -41 -141 -65.5t-153 -24.5q-16 0 -26.5 7.5t-8.5 19.5l8 106q0 25 -19 15q-12 -6 -72 -43l-100 -60q-63 -35 -118 -35q-68 0 -123.5 52.5 t-55.5 140.5q0 98 123 168q63 35 170 76t164 53q31 6 31 31q-4 231 -180 231q-61 0 -105 -43q-49 -47 -65 -172q-4 -33 -29 -20q-31 16 -53.5 49.5t-22.5 62.5q0 35 51 70q109 80 224 131q80 37 133 37zM391 115h2q86 0 144 69q18 18 18 47q0 18 1 63.5t1 63.5q0 33 -27 33 q-47 0 -113.5 -19.5t-101.5 -39.5q-49 -31 -49 -76q0 -55 35 -98t90 -43zM496 1280h2q63 0 96 -41t33 -104q0 -84 -76 -148q-68 -51 -121 -51q-45 0 -89 36t-44 109q0 76 63 129q75 70 136 70zM455 1206h-2q-76 0 -76 -90q0 -51 29.5 -78.5t66.5 -27.5q70 0 70 86 q0 47 -22.5 78.5t-65.5 31.5z" />
<glyph unicode="&#xe6;" horiz-adv-x="1337" d="M1014 842h2q125 0 182 -81t51 -181q0 -12 5.5 -16.5t13.5 -2.5q25 4 39 4t8 -14q-14 -27 -49 -45q-66 -31 -228 -57q-137 -23 -260 -33q-29 -6 -24 -35q6 -139 80.5 -205.5t195.5 -66.5q145 0 268 112q18 18 19 2v-6q-8 -47 -25 -63q-72 -74 -195.5 -127.5t-232.5 -53.5 q-78 0 -146.5 41t-107.5 117q-8 27 -37 6q-90 -70 -202 -127q-74 -35 -129 -35q-66 0 -122.5 52.5t-56.5 142.5q0 51 42 96t88 72q129 74 327 121q31 6 31 37q0 98 -45 163.5t-137 65.5q-66 0 -105 -43q-53 -61 -61 -174q-4 -29 -27 -21q-25 10 -53.5 51.5t-28.5 65.5 q0 31 62 74q98 74 213 125q78 39 135 39q141 0 196 -131q10 -20 29 -2q53 49 136 91t149 42zM266 252v-2q0 -53 37 -94t92 -41q45 0 92.5 26.5t69.5 57.5q16 23 12 47q-10 88 -12 112q-4 31 -25 31q-55 -2 -122.5 -21.5t-96.5 -39.5q-47 -29 -47 -76zM911 748h-2 q-57 0 -104 -65t-47 -159q0 -31 35 -30q133 4 233 22q41 8 41 39q0 193 -156 193z" />
<glyph unicode="&#xe7;" horiz-adv-x="847" d="M575 842h3q117 0 172 -64q33 -35 32 -82q0 -41 -33.5 -76.5t-66.5 -50.5q-27 -12 -27 4q-4 53 -30 91q-47 74 -164 73q-70 0 -123 -49q-80 -70 -80 -237q0 -162 75 -252t202 -90q143 0 268 120q18 18 18 -4q0 -18 -11 -45.5t-24 -38.5q-104 -104 -239 -143 q-78 -76 -78 -104q0 -25 63 -64q84 -49 84 -98q0 -51 -57 -109q-39 -39 -103.5 -68.5t-111.5 -31.5q-31 0 -31 12q2 10 23.5 32.5t36.5 26.5q41 10 60.5 17.5t37.5 22t18 34.5q0 27 -96 84q-55 31 -55 72q0 23 27 57q29 37 92 96q-33 -4 -62 -4q-139 0 -235.5 91.5 t-96.5 269.5q0 209 156 338q68 61 174 115.5t182 54.5z" />
<glyph unicode="&#xe8;" horiz-adv-x="845" d="M522 842h2q123 0 181.5 -81t50.5 -179q0 -20 18 -21l37 6q14 2 14 -8q0 -8 -12 -22.5t-25 -20.5q-66 -35 -239 -59q-119 -18 -262 -29q-25 -2 -25 -35q2 -141 73 -214t200 -73q76 0 150.5 36t119.5 79q18 16 18 -4q0 -39 -28 -67q-82 -88 -267 -152q-68 -25 -155 -25 q-133 0 -221.5 95.5t-88.5 273.5q0 193 113 320q63 70 176 129q96 51 170 51zM422 750h-2q-57 0 -101.5 -54.5t-52.5 -152.5q-2 -16 8.5 -24.5t32.5 -8.5q141 0 228 14q39 8 38 39q0 78 -34.5 132.5t-116.5 54.5zM551 961q12 -16 -12 -17q-18 0 -50 7t-40 14 q-43 27 -106.5 107.5t-88.5 152.5q-12 31 12 57q8 10 48 25.5t67 15.5q27 -88 75 -191t95 -171z" />
<glyph unicode="&#xe9;" horiz-adv-x="845" d="M522 842h2q123 0 181.5 -81t50.5 -179q0 -20 18 -21l37 6q14 2 14 -8q0 -8 -12 -22.5t-25 -20.5q-66 -35 -239 -59q-119 -18 -262 -29q-25 -2 -25 -35q2 -141 73 -214t200 -73q76 0 150.5 36t119.5 79q18 16 18 -4q0 -39 -28 -67q-82 -88 -267 -152q-68 -25 -155 -25 q-133 0 -221.5 95.5t-88.5 273.5q0 193 113 320q63 70 176 129q96 51 170 51zM422 750h-2q-57 0 -101.5 -54.5t-52.5 -152.5q-2 -16 8.5 -24.5t32.5 -8.5q141 0 228 14q39 8 38 39q0 78 -34.5 132.5t-116.5 54.5zM698 1329h2q14 -2 13.5 -20.5t-17.5 -51.5 q-31 -57 -98.5 -151t-99.5 -117q-14 -12 -54.5 -27.5t-60.5 -15.5q-8 0 -9 5t3 10q35 49 93 157.5t77 169.5q6 12 65 26.5t86 14.5z" />
<glyph unicode="&#xea;" horiz-adv-x="845" d="M522 842h2q123 0 181.5 -81t50.5 -179q0 -20 18 -21l37 6q14 2 14 -8q0 -8 -12 -22.5t-25 -20.5q-66 -35 -239 -59q-119 -18 -262 -29q-25 -2 -25 -35q2 -141 73 -214t200 -73q76 0 150.5 36t119.5 79q18 16 18 -4q0 -39 -28 -67q-82 -88 -267 -152q-68 -25 -155 -25 q-133 0 -221.5 95.5t-88.5 273.5q0 193 113 320q63 70 176 129q96 51 170 51zM422 750h-2q-57 0 -101.5 -54.5t-52.5 -152.5q-2 -16 8.5 -24.5t32.5 -8.5q141 0 228 14q39 8 38 39q0 78 -34.5 132.5t-116.5 54.5zM453 1114q-59 -82 -105 -127q-16 -16 -49 -27.5t-51 -11.5 q-14 -2 -22.5 0t-0.5 17q129 129 219 307q6 12 35 28.5t37 16.5q10 0 12 -12q53 -188 183 -297q10 -8 0 -23q-27 -37 -84 -43q-20 -4 -43 19q-55 49 -105 153q-10 23 -26 0z" />
<glyph unicode="&#xeb;" horiz-adv-x="845" d="M522 842h2q123 0 181.5 -81t50.5 -179q0 -20 18 -21l37 6q14 2 14 -8q0 -8 -12 -22.5t-25 -20.5q-66 -35 -239 -59q-119 -18 -262 -29q-25 -2 -25 -35q2 -141 73 -214t200 -73q76 0 150.5 36t119.5 79q18 16 18 -4q0 -39 -28 -67q-82 -88 -267 -152q-68 -25 -155 -25 q-133 0 -221.5 95.5t-88.5 273.5q0 193 113 320q63 70 176 129q96 51 170 51zM422 750h-2q-57 0 -101.5 -54.5t-52.5 -152.5q-2 -16 8.5 -24.5t32.5 -8.5q141 0 228 14q39 8 38 39q0 78 -34.5 132.5t-116.5 54.5zM180 1184q8 10 52 40.5t63 37.5q25 8 31 -13q12 -51 63 -102 q20 -25 0 -47q-37 -47 -104 -82q-20 -12 -39 -4q-18 12 -50 52t-32 67q0 33 16 51zM549 1184q61 53 100 73q33 12 43 -4q43 -76 62 -92q25 -27 4 -57q-16 -25 -59.5 -59.5t-69.5 -34.5q-16 0 -47 38.5t-50 79.5q-12 33 17 56z" />
<glyph unicode="&#xec;" horiz-adv-x="540" d="M180 401v2q0 162 -10 234q-4 27 -31 35q-27 14 -78 33q-20 8 21 34q10 8 14 9q164 23 277 96q10 8 16 6t4 -14q-18 -131 -18 -424q0 -203 10 -279q8 -37 38 -52t101 -26q23 -2 4 -20q-45 -43 -73 -43q-27 0 -100.5 4t-102.5 4q-57 0 -186 -14q-16 -2 -15 6q0 4 6 10 q23 31 80 55q27 12 31 43q12 90 12 301zM342 961q12 -16 -12 -17q-18 0 -50 7t-40 14q-43 27 -106.5 107.5t-88.5 152.5q-12 31 12 57q8 10 48 25.5t67 15.5q27 -88 75 -191t95 -171z" />
<glyph unicode="&#xed;" horiz-adv-x="540" d="M180 401v2q0 162 -10 234q-4 27 -31 35q-27 14 -78 33q-20 8 21 34q10 8 14 9q164 23 277 96q10 8 16 6t4 -14q-18 -131 -18 -424q0 -203 10 -279q8 -37 38 -52t101 -26q23 -2 4 -20q-45 -43 -73 -43q-27 0 -100.5 4t-102.5 4q-57 0 -186 -14q-16 -2 -15 6q0 4 6 10 q23 31 80 55q27 12 31 43q12 90 12 301zM508 1329h2q14 -2 13 -20.5t-17 -51.5q-31 -57 -98.5 -151t-100.5 -117q-14 -12 -54 -27.5t-60 -15.5q-8 0 -9.5 5t2.5 10q35 49 93.5 157.5t76.5 169.5q6 12 65.5 26.5t86.5 14.5z" />
<glyph unicode="&#xee;" horiz-adv-x="540" d="M180 401v2q0 162 -10 234q-4 27 -31 35q-27 14 -78 33q-20 8 21 34q10 8 14 9q164 23 277 96q10 8 16 6t4 -14q-18 -131 -18 -424q0 -203 10 -279q8 -37 38 -52t101 -26q23 -2 4 -20q-45 -43 -73 -43q-27 0 -100.5 4t-102.5 4q-57 0 -186 -14q-16 -2 -15 6q0 4 6 10 q23 31 80 55q27 12 31 43q12 90 12 301zM248 1114q-59 -82 -105 -127q-16 -16 -49 -27.5t-51 -11.5q-14 -2 -22.5 0t-0.5 17q129 129 220 307q6 12 34.5 28.5t36.5 16.5q10 0 13 -12q53 -188 182 -297q10 -8 0 -23q-27 -37 -84 -43q-20 -4 -43 19q-55 49 -105 153 q-10 23 -26 0z" />
<glyph unicode="&#xef;" horiz-adv-x="540" d="M180 401v2q0 162 -10 234q-4 27 -31 35q-27 14 -78 33q-20 8 21 34q10 8 14 9q164 23 277 96q10 8 16 6t4 -14q-18 -131 -18 -424q0 -203 10 -279q8 -37 38 -52t101 -26q23 -2 4 -20q-45 -43 -73 -43q-27 0 -100.5 4t-102.5 4q-57 0 -186 -14q-16 -2 -15 6q0 4 6 10 q23 31 80 55q27 12 31 43q12 90 12 301zM-23 1184q8 10 52.5 40.5t62.5 37.5q25 8 31 -13q12 -51 63 -102q20 -25 0 -47q-37 -47 -104 -82q-20 -12 -39 -4q-18 12 -50 52t-32 67q0 33 16 51zM346 1184q61 53 100 73q33 12 43 -4q43 -76 62 -92q25 -27 4 -57 q-16 -25 -59 -59.5t-70 -34.5q-16 0 -47 38.5t-49 79.5q-13 33 16 56z" />
<glyph unicode="&#xf0;" horiz-adv-x="991" d="M434 1401h2q174 0 297 -135q14 -14 29 -4q158 104 184 124q12 12 12 -4q0 -23 -14 -51q-18 -41 -141 -131q-18 -12 -6 -31q111 -186 110 -503q0 -207 -59.5 -356.5t-169.5 -225.5q-66 -45 -146.5 -78t-132.5 -33q-63 0 -118.5 16.5t-106.5 53.5t-81 108.5t-30 170.5 q0 231 181 376q184 143 340 144q59 0 108 -23q8 -4 13.5 2t3.5 15q-12 135 -68 239q-12 20 -29 8q-195 -119 -282 -157q-6 -2 -12.5 -2t-7.5 3t3 9q57 92 74 102q31 16 186 111q18 10 5 25q-96 125 -250 124q-94 0 -162 -36q-12 -8 -16.5 -3t2.5 15q16 39 55 63 q102 64 227 64zM483 750h-2q-92 0 -153 -72q-70 -80 -70 -227q0 -174 70.5 -273.5t175.5 -99.5q74 0 123 61q33 41 58.5 143.5t25.5 249.5q0 92 -41 140q-66 78 -187 78z" />
<glyph unicode="&#xf1;" horiz-adv-x="1105" d="M184 395v2q0 188 -14 238q-6 23 -27 33q-37 18 -96 32q-16 2 14 33q16 14 25 17q141 18 254 98q20 18 25 -10q12 -39 12 -138q0 -10 6 -14t16 4l156 105q72 47 143 47q246 0 246 -350q0 -74 -8 -203t-8 -156q0 -23 20 -37q41 -27 135 -41q16 -2 4 -18q-23 -27 -49 -35 q-74 -25 -217 -25q-106 0 -137 15q-23 4 -6 20q39 39 51 84q14 61 14 310q0 295 -176 294q-90 0 -161 -82q-27 -29 -27 -71q0 -266 4 -426q0 -25 31 -33q80 -12 102 -22q16 -4 2 -17q-63 -57 -86 -57l-65 6q-27 2 -95 2q-168 0 -233 -16q-10 -2 -11 2t5 12q16 39 41 51 q4 2 25.5 10.5t35.5 16.5q27 16 33 49q16 82 16 270zM688 1112h2q35 0 82 55q16 20 59 35q10 2 12.5 -1t-1.5 -11q-39 -106 -131 -170q-35 -23 -74 -23t-123 50q-63 37 -84 34q-53 -2 -131 -96q-12 -16 -16 2q0 45 18 74q35 53 92 102q47 33 78 33q37 0 131 -51 q63 -33 86 -33z" />
<glyph unicode="&#xf2;" horiz-adv-x="991" d="M596 842h2q158 0 245 -102.5t87 -258.5q0 -182 -109 -297q-82 -90 -229 -157q-111 -53 -197 -54q-133 0 -232.5 90.5t-99.5 272.5q0 223 152 344q74 53 199 113q106 49 182 49zM463 739h-2q-72 0 -129 -61q-74 -78 -74 -238q0 -162 76 -259t188 -97q68 0 121 43 q86 66 86 256q0 152 -66.5 254t-199.5 102zM604 961q12 -16 -12 -17q-18 0 -50 7t-40 14q-43 27 -106.5 107.5t-88.5 152.5q-12 31 12 57q8 10 48.5 25.5t66.5 15.5q27 -88 75 -191t95 -171z" />
<glyph unicode="&#xf3;" horiz-adv-x="991" d="M596 842h2q158 0 245 -102.5t87 -258.5q0 -182 -109 -297q-82 -90 -229 -157q-111 -53 -197 -54q-133 0 -232.5 90.5t-99.5 272.5q0 223 152 344q74 53 199 113q106 49 182 49zM463 739h-2q-72 0 -129 -61q-74 -78 -74 -238q0 -162 76 -259t188 -97q68 0 121 43 q86 66 86 256q0 152 -66.5 254t-199.5 102zM733 1329h2q14 -2 13.5 -20.5t-17.5 -51.5q-31 -57 -98.5 -151t-100.5 -117q-14 -12 -54 -27.5t-60 -15.5q-8 0 -9 5t3 10q35 49 93 157.5t77 169.5q6 12 65 26.5t86 14.5z" />
<glyph unicode="&#xf4;" horiz-adv-x="991" d="M596 842h2q158 0 245 -102.5t87 -258.5q0 -182 -109 -297q-82 -90 -229 -157q-111 -53 -197 -54q-133 0 -232.5 90.5t-99.5 272.5q0 223 152 344q74 53 199 113q106 49 182 49zM463 739h-2q-72 0 -129 -61q-74 -78 -74 -238q0 -162 76 -259t188 -97q68 0 121 43 q86 66 86 256q0 152 -66.5 254t-199.5 102zM500 1114q-59 -82 -105 -127q-16 -16 -49 -27.5t-51 -11.5q-14 -2 -22.5 0t-0.5 17q129 129 220 307q6 12 34.5 28.5t36.5 16.5q10 0 12 -12q53 -188 183 -297q12 -8 0 -23q-27 -37 -84 -43q-23 -4 -43 19q-55 49 -105 153 q-10 23 -26 0z" />
<glyph unicode="&#xf5;" horiz-adv-x="991" d="M596 842h2q158 0 245 -102.5t87 -258.5q0 -182 -109 -297q-82 -90 -229 -157q-111 -53 -197 -54q-133 0 -232.5 90.5t-99.5 272.5q0 223 152 344q74 53 199 113q106 49 182 49zM463 739h-2q-72 0 -129 -61q-74 -78 -74 -238q0 -162 76 -259t188 -97q68 0 121 43 q86 66 86 256q0 152 -66.5 254t-199.5 102zM633 1112h2q35 0 82 55q16 20 59 35q10 2 12.5 -1t-2.5 -11q-39 -106 -131 -170q-35 -23 -73.5 -23t-122.5 50q-63 37 -84 34q-53 -2 -131 -96q-12 -16 -17 2q0 45 19 74q37 53 92 102q47 33 78 33q37 0 131 -51q63 -33 86 -33z " />
<glyph unicode="&#xf6;" horiz-adv-x="991" d="M596 842h2q158 0 245 -102.5t87 -258.5q0 -182 -109 -297q-82 -90 -229 -157q-111 -53 -197 -54q-133 0 -232.5 90.5t-99.5 272.5q0 223 152 344q74 53 199 113q106 49 182 49zM463 739h-2q-72 0 -129 -61q-74 -78 -74 -238q0 -162 76 -259t188 -97q68 0 121 43 q86 66 86 256q0 152 -66.5 254t-199.5 102zM213 1184q8 10 52 40.5t63 37.5q25 8 30 -13q12 -51 64 -102q20 -25 0 -47q-37 -47 -105 -82q-20 -12 -38 -4q-18 12 -50 52t-32 67q0 33 16 51zM582 1184q61 53 100 73q33 12 43 -4q43 -76 61 -92q25 -27 5 -57 q-16 -25 -59.5 -59.5t-69.5 -34.5q-16 0 -47 38.5t-50 79.5q-12 33 17 56z" />
<glyph unicode="&#xf7;" horiz-adv-x="1142" d="M580 580h-2q-20 0 -61.5 53t-41.5 92q0 31 59.5 62.5t110.5 31.5q18 0 19 -12q0 -68 -28.5 -147.5t-55.5 -79.5zM1016 479h2q6 0 9 -4t-1 -6q-14 -18 -53 -51t-49 -35q-125 -16 -514 -16q-244 0 -269 6q-20 4 -8 24q12 16 64 78q14 23 30 19q61 -10 170 -15h619zM604 262 q23 4 23 -6q-10 -190 -9 -221q0 -14 -26 -10q-127 35 -143 127q-4 27 49 64.5t106 45.5z" />
<glyph unicode="&#xf8;" horiz-adv-x="993" d="M600 842h2q76 0 148 -31l43 66q6 12 106 41q16 0 12 -11q-10 -25 -92 -141q111 -102 111 -284.5t-109 -295.5q-80 -92 -225 -157q-117 -55 -203 -56q-74 0 -147 31q-18 6 -29 -4q-25 -27 -51 -51q-39 -39 -109 -53q-12 -2 -15 2t3 12l53 60l62 71q8 8 -2 25 q-94 94 -95 266q0 229 152 346q66 49 199 115q106 49 186 49zM465 739h-2q-78 0 -135 -61q-78 -82 -78 -234q0 -147 53 -235q217 274 334 442q12 20 -2 31q-64 57 -170 57zM516 82h2q68 0 129 47q92 74 92 250q0 119 -34 196q-6 25 -21 5q-176 -244 -336 -435 q66 -63 168 -63z" />
<glyph unicode="&#xf9;" horiz-adv-x="1085" d="M358 395v-2q0 -201 68 -250q41 -33 111 -32q41 0 84 23.5t67 58.5q23 31 23 79q0 72 2 161t3 147.5t1 74.5q0 25 -29 37q-14 6 -133 39q-14 4 -2 14q41 35 57 35q180 6 310 60q12 4 15 0t1 -21q-25 -115 -25 -407q0 -190 15 -248q8 -39 43 -49q49 -10 104 -6 q10 2 12 -1.5t-2 -9.5q-8 -27 -30 -39q-61 -41 -142.5 -68.5t-128.5 -27.5q-31 0 -41 29q-8 25 -20 123q0 12 -9.5 13t-15.5 -5q-84 -70 -166 -113q-66 -37 -137 -37q-238 0 -237 310q0 209 14 360q0 25 -18 37q-33 23 -117 49q-14 4 -6 10q37 33 49 33q197 18 303 72 q8 2 11 -3t-1 -16q-33 -96 -33 -430zM623 961q12 -16 -13 -17q-16 0 -49 7t-41 14q-43 27 -106.5 107.5t-87.5 152.5q-12 31 12 57q8 10 48 25.5t67 15.5q27 -88 75 -191t95 -171z" />
<glyph unicode="&#xfa;" horiz-adv-x="1085" d="M358 395v-2q0 -201 68 -250q41 -33 111 -32q41 0 84 23.5t67 58.5q23 31 23 79q0 72 2 161t3 147.5t1 74.5q0 25 -29 37q-14 6 -133 39q-14 4 -2 14q41 35 57 35q180 6 310 60q12 4 15 0t1 -21q-25 -115 -25 -407q0 -190 15 -248q8 -39 43 -49q49 -10 104 -6 q10 2 12 -1.5t-2 -9.5q-8 -27 -30 -39q-61 -41 -142.5 -68.5t-128.5 -27.5q-31 0 -41 29q-8 25 -20 123q0 12 -9.5 13t-15.5 -5q-84 -70 -166 -113q-66 -37 -137 -37q-238 0 -237 310q0 209 14 360q0 25 -18 37q-33 23 -117 49q-14 4 -6 10q37 33 49 33q197 18 303 72 q8 2 11 -3t-1 -16q-33 -96 -33 -430zM780 1329h2q14 -2 13.5 -20.5t-17.5 -51.5q-31 -57 -98.5 -151t-99.5 -117q-14 -12 -54.5 -27.5t-60.5 -15.5q-8 0 -9 5t3 10q35 49 93 157.5t77 169.5q6 12 65 26.5t86 14.5z" />
<glyph unicode="&#xfb;" horiz-adv-x="1085" d="M358 395v-2q0 -201 68 -250q41 -33 111 -32q41 0 84 23.5t67 58.5q23 31 23 79q0 72 2 161t3 147.5t1 74.5q0 25 -29 37q-14 6 -133 39q-14 4 -2 14q41 35 57 35q180 6 310 60q12 4 15 0t1 -21q-25 -115 -25 -407q0 -190 15 -248q8 -39 43 -49q49 -10 104 -6 q10 2 12 -1.5t-2 -9.5q-8 -27 -30 -39q-61 -41 -142.5 -68.5t-128.5 -27.5q-31 0 -41 29q-8 25 -20 123q0 12 -9.5 13t-15.5 -5q-84 -70 -166 -113q-66 -37 -137 -37q-238 0 -237 310q0 209 14 360q0 25 -18 37q-33 23 -117 49q-14 4 -6 10q37 33 49 33q197 18 303 72 q8 2 11 -3t-1 -16q-33 -96 -33 -430zM537 1114q-59 -82 -105 -127q-16 -16 -49 -27.5t-51 -11.5q-14 -2 -22.5 0t-0.5 17q129 129 219 307q6 12 35 28.5t37 16.5q10 0 12 -12q53 -188 183 -297q12 -8 0 -23q-27 -37 -84 -43q-23 -4 -43 19q-55 49 -105 153q-10 23 -26 0z " />
<glyph unicode="&#xfc;" horiz-adv-x="1085" d="M358 395v-2q0 -201 68 -250q41 -33 111 -32q41 0 84 23.5t67 58.5q23 31 23 79q0 72 2 161t3 147.5t1 74.5q0 25 -29 37q-14 6 -133 39q-14 4 -2 14q41 35 57 35q180 6 310 60q12 4 15 0t1 -21q-25 -115 -25 -407q0 -190 15 -248q8 -39 43 -49q49 -10 104 -6 q10 2 12 -1.5t-2 -9.5q-8 -27 -30 -39q-61 -41 -142.5 -68.5t-128.5 -27.5q-31 0 -41 29q-8 25 -20 123q0 12 -9.5 13t-15.5 -5q-84 -70 -166 -113q-66 -37 -137 -37q-238 0 -237 310q0 209 14 360q0 25 -18 37q-33 23 -117 49q-14 4 -6 10q37 33 49 33q197 18 303 72 q8 2 11 -3t-1 -16q-33 -96 -33 -430zM258 1184q8 10 52 40.5t63 37.5q25 8 30 -13q12 -51 64 -102q20 -25 0 -47q-37 -47 -105 -82q-20 -12 -38 -4q-18 12 -50 52t-32 67q0 33 16 51zM627 1184q61 53 100 73q33 12 43 -4q43 -76 61 -92q25 -27 5 -57q-16 -25 -59.5 -59.5 t-69.5 -34.5q-16 0 -47 38.5t-50 79.5q-12 33 17 56z" />
<glyph unicode="&#xfd;" horiz-adv-x="952" d="M109 -381h2q96 0 196.5 93t153.5 218q10 23 -8 47q-29 53 -39 84q-57 186 -134 359.5t-118 232.5q-20 33 -49 47.5t-119 30.5q-18 4 -2 14q53 39 63 41q242 23 322 64q14 6 12 -10q-2 -6 -4 -15q-25 -84 -14 -106q80 -184 200 -520q2 -6 5.5 -8.5t6.5 -1.5t7 4.5t6 9.5 q47 109 85 248t42 211q4 33 -16 47q-14 10 -115 28q-14 6 -2 19q74 55 80 55q236 0 344 27q8 2 9 -2.5t-3 -14.5q-25 -45 -53 -57q-12 -8 -39 -18.5t-31 -12.5q-31 -12 -49 -59q-12 -31 -104.5 -285t-147.5 -375q-147 -317 -272 -450q-90 -100 -174 -101q-61 0 -101 41 q-45 51 -49 111q-2 12 3 17.5t15 0.5q30 -14 91 -14zM770 1329h2q14 -2 13 -20.5t-17 -51.5q-31 -57 -98.5 -151t-100.5 -117q-14 -12 -54 -27.5t-60 -15.5q-8 0 -9.5 5t3.5 10q35 49 93 157.5t76 169.5q6 12 65.5 26.5t86.5 14.5z" />
<glyph unicode="&#xfe;" horiz-adv-x="1024" d="M958 502v-2q0 -197 -129 -320q-90 -90 -245 -166q-78 -39 -144 -39q-45 0 -88 19q-10 4 -17 0t-5 -12q0 -279 4 -336q2 -39 39 -45q106 -10 131 -19q16 -6 2 -20q-55 -61 -88 -62q-340 14 -469 -26q-12 -2 -15.5 2t5.5 14q25 41 55 55q12 6 24.5 10.5t26.5 10.5t27 10 q31 12 39 49q27 135 26 783q0 676 -18 796q-6 31 -45 39l-94 19q-18 0 -13 10q16 31 56 39q211 31 315 90q10 6 13 -2t-1 -23q-18 -80 -18 -493v-178q0 -31 28 -15q84 53 195 115q68 37 113 37q145 0 217.5 -100.5t72.5 -239.5zM764 397v2q0 127 -61.5 213t-163.5 86 q-96 0 -174 -77q-29 -23 -31 -54q-8 -199 0 -397q4 -39 22 -51q49 -41 144 -41q92 0 151 41q113 81 113 278z" />
<glyph unicode="&#xff;" horiz-adv-x="952" d="M109 -381h2q96 0 196.5 93t153.5 218q10 23 -8 47q-29 53 -39 84q-57 186 -134 359.5t-118 232.5q-20 33 -49 47.5t-119 30.5q-18 4 -2 14q53 39 63 41q242 23 322 64q14 6 12 -10q-2 -6 -4 -15q-25 -84 -14 -106q80 -184 200 -520q2 -6 5.5 -8.5t6.5 -1.5t7 4.5t6 9.5 q47 109 85 248t42 211q4 33 -16 47q-14 10 -115 28q-14 6 -2 19q74 55 80 55q236 0 344 27q8 2 9 -2.5t-3 -14.5q-25 -45 -53 -57q-12 -8 -39 -18.5t-31 -12.5q-31 -12 -49 -59q-12 -31 -104.5 -285t-147.5 -375q-147 -317 -272 -450q-90 -100 -174 -101q-61 0 -101 41 q-45 51 -49 111q-2 12 3 17.5t15 0.5q30 -14 91 -14zM250 1188q8 10 52 41t63 37q25 8 30 -13q12 -51 64 -102q20 -25 0 -47q-37 -47 -105 -82q-20 -12 -39 -4q-18 12 -50 52t-32 67q1 33 17 51zM618 1188q61 53 101 74q33 12 43 -5q43 -76 61 -92q25 -27 4 -57 q-16 -25 -59 -59.5t-70 -34.5q-16 0 -46.5 39t-49.5 80q-13 32 16 55z" />
<glyph unicode="&#x152;" horiz-adv-x="2174" d="M870 1292h2q262 0 373 -149q23 -33 27 -2q2 16 2 47q0 41 -2 55q0 16 22 14q94 -12 426 -14q213 -2 301 51q10 6 14.5 1t0.5 -17q-45 -127 -39 -313q0 -25 -17 -15q-16 6 -33.5 25.5t-23.5 32.5q-20 55 -39 125q-4 16 -11 24t-15 6q-111 -18 -326 -20q-18 0 -24.5 -8.5 t-12.5 -32.5q-18 -111 -18 -371q0 -27 26 -33q49 -20 258 -20q76 0 109 22q8 6 19.5 24.5t19.5 27.5q14 20 76 39q14 4 18 0.5t0 -17.5q-47 -109 -47 -336q0 -39 -37 -6q-35 33 -53 129q-2 10 -5 16.5t-9.5 10.5t-14.5 2q-45 -6 -340 -15q-20 0 -20 -43q0 -193 14 -331 q4 -41 28.5 -71t69.5 -38q94 -18 223 -10q104 6 170 61q66 53 115 172q10 25 23 9q25 -25 20 -64q-14 -90 -82 -194q-59 -74 -139 -76q-211 -6 -502 -6q-156 0 -155 139q0 37 -2 53q0 23 -21 2q-154 -147 -375 -205q-82 -23 -178 -22q-279 0 -438.5 162.5t-159.5 435.5 q0 143 39 248.5t121 201.5q51 61 142 125t173 97q180 71 307 71zM782 1196h-2q-168 0 -274 -88q-178 -147 -178 -463q0 -268 142 -418.5t372 -150.5q141 0 252 71q76 49 122 130t46 163v334q4 96 -41 174q-136 248 -439 248z" />
<glyph unicode="&#x153;" horiz-adv-x="1492" d="M596 842h2q160 0 246 -135q12 -27 37 -2q49 53 134 95t152 42q127 0 184.5 -81t51.5 -186q0 -12 5 -16t13 -2q4 0 12.5 2t14.5 3t10 1q14 0 12 -14q-2 -8 -15 -21.5t-25 -19.5q-55 -29 -248 -59q-117 -18 -250 -27q-25 -2 -21 -33q14 -281 277 -280q145 0 264 114 q10 10 15.5 8t2.5 -16q-4 -39 -22 -61q-74 -72 -194.5 -126.5t-231.5 -54.5q-168 0 -244 150q-8 18 -35 0q-195 -150 -344 -150q-137 0 -236.5 91.5t-99.5 275.5q0 119 46.5 207t109.5 135q72 53 193 113q90 47 184 47zM463 741h-2q-74 0 -129 -59q-74 -82 -74 -238 q0 -164 75 -263t189 -99q66 0 121 45q84 72 84 254q0 154 -64.5 257t-199.5 103zM1067 750h-2q-57 0 -102 -60.5t-48 -146.5q-2 -37 31 -37q150 -4 236 14q41 6 41 37q0 193 -156 193z" />
<glyph unicode="&#x178;" horiz-adv-x="1310" d="M215 1087q-29 33 -51.5 46.5t-63.5 21.5q-6 2 -53 8t-76 15q-8 0 -12 4t-3 7t5 7q72 59 96 59q6 0 40 -3l59 -5q82 -4 139 -4q137 0 301 17q25 2 6 -19q-29 -41 -57 -49q-16 -6 -41 -13.5t-29 -9.5q-29 -8 -10 -39q104 -176 244 -462q8 -20 22 4l264 456q16 25 -18 29 q-94 16 -115 21q-29 6 -10 16q76 66 98 61q4 0 31 -3l43 -5q57 -4 98 -4q102 0 242 19q10 2 13 -2.5t-3 -14.5q-33 -45 -63 -55q-68 -23 -107 -29q-35 -8 -90 -67q-178 -197 -307 -463q-39 -74 -39 -182q0 -238 8 -316q2 -29 33 -35q174 -18 225 -35q18 -6 6 -18 q-27 -25 -63.5 -44t-46.5 -17q-31 4 -117 12q-98 4 -154 4q-225 0 -397 -27q-10 -2 -13 1t3 12q25 45 84 65q84 29 153 41q33 6 41 53q16 98 17 275q0 100 -31 166q-59 135 -150.5 287.5t-150.5 213.5zM395 1509q10 10 53.5 42t59.5 38q27 8 33 -12q10 -51 61 -109 q23 -20 4 -45q-43 -51 -108 -84q-23 -12 -39 -2q-16 8 -48 50.5t-32 72.5q0 29 16 49zM827 1509q12 12 53.5 42t59.5 38q27 12 35 -12q12 -49 59 -102q25 -25 6 -50q-37 -49 -106 -86q-25 -10 -43 -2q-18 12 -48 51t-32 68q-4 30 16 53z" />
<glyph unicode="&#x2c6;" horiz-adv-x="854" d="M412 1114q-59 -82 -105 -127q-16 -16 -49 -27.5t-51 -11.5q-14 -2 -22.5 0t-0.5 17q129 129 219 307q6 12 35 28.5t37 16.5q10 0 12 -12q53 -188 183 -297q10 -8 0 -23q-27 -37 -84 -43q-20 -4 -43 19q-55 49 -105 153q-10 23 -26 0z" />
<glyph unicode="&#x2dc;" horiz-adv-x="854" d="M559 1112h2q35 0 82 55q16 20 59 35q10 2 12.5 -1t-1.5 -11q-39 -106 -131 -170q-35 -23 -74 -23t-123 50q-63 37 -84 34q-53 -2 -131 -96q-12 -16 -16 2q0 45 18 74q37 53 92 102q47 33 78 33q37 0 131 -51q63 -33 86 -33z" />
<glyph unicode="&#x2000;" horiz-adv-x="845" />
<glyph unicode="&#x2001;" horiz-adv-x="1691" />
<glyph unicode="&#x2002;" horiz-adv-x="845" />
<glyph unicode="&#x2003;" horiz-adv-x="1691" />
<glyph unicode="&#x2004;" horiz-adv-x="563" />
<glyph unicode="&#x2005;" horiz-adv-x="421" />
<glyph unicode="&#x2006;" horiz-adv-x="280" />
<glyph unicode="&#x2007;" horiz-adv-x="280" />
<glyph unicode="&#x2008;" horiz-adv-x="210" />
<glyph unicode="&#x2009;" horiz-adv-x="337" />
<glyph unicode="&#x200a;" horiz-adv-x="92" />
<glyph unicode="&#x2010;" horiz-adv-x="712" d="M90 373q70 104 82 104h84q229 14 373 55q10 4 8 -6q0 -6 -4 -14q-20 -35 -57 -68.5t-66 -44.5q-59 -23 -192.5 -41t-182.5 -18q-41 2 -49 7.5t4 25.5z" />
<glyph unicode="&#x2011;" horiz-adv-x="712" d="M90 373q70 104 82 104h84q229 14 373 55q10 4 8 -6q0 -6 -4 -14q-20 -35 -57 -68.5t-66 -44.5q-59 -23 -192.5 -41t-182.5 -18q-41 2 -49 7.5t4 25.5z" />
<glyph unicode="&#x2012;" horiz-adv-x="712" d="M90 373q70 104 82 104h84q229 14 373 55q10 4 8 -6q0 -6 -4 -14q-20 -35 -57 -68.5t-66 -44.5q-59 -23 -192.5 -41t-182.5 -18q-41 2 -49 7.5t4 25.5z" />
<glyph unicode="&#x2013;" horiz-adv-x="1159" d="M612 483h2q338 0 451 11q10 2 10 -4.5t-10 -16.5q-31 -33 -89 -60.5t-120 -33.5q-158 -14 -475 -14q-225 0 -272 14q-20 6 -9 18q8 12 47 50t54 47q122 -11 411 -11z" />
<glyph unicode="&#x2014;" horiz-adv-x="1908" d="M870 483h2q834 0 947 11q10 2 10 -7q0 -6 -10 -16q-29 -31 -88.5 -59.5t-120.5 -32.5q-131 -14 -1147 -14q-311 0 -354 14q-18 8 -9 18q6 10 46 49t55 48q122 -11 669 -11z" />
<glyph unicode="&#x2018;" horiz-adv-x="440" d="M170 903h-2q-55 0 -76.5 40t-21.5 83q0 109 85 208t169 138q43 16 67 17q39 0 0 -29q-162 -121 -162 -270q0 -43 21.5 -64.5t52.5 -19.5q12 0 16.5 -6.5t0 -15.5t-14.5 -19q-25 -23 -65.5 -42.5t-69.5 -19.5z" />
<glyph unicode="&#x2019;" horiz-adv-x="440" d="M283 1384h2q55 0 76.5 -39.5t21.5 -82.5q0 -109 -85 -207.5t-169 -136.5q-43 -16 -68 -17q-37 0 0 31q68 47 115 118.5t47 149.5q0 43 -21.5 63.5t-51.5 18.5q-12 0 -16.5 6t-0.5 15.5t14 17.5q25 25 66 44t70 19z" />
<glyph unicode="&#x201a;" horiz-adv-x="428" d="M350 143v-2q0 -106 -93 -237t-208 -187q-8 -4 -40 -14t-44 -10q-33 0 -6 22q207 168 207 355q0 49 -22.5 75.5t-49.5 32.5q-10 2 -14 9.5t-1 15.5t11 12q8 6 47 32l58 38q20 20 47 20q53 0 80.5 -47t27.5 -115z" />
<glyph unicode="&#x201c;" horiz-adv-x="743" d="M170 903h-2q-55 0 -76.5 40t-21.5 83q0 109 85 205t169 133q43 16 57 16q43 -2 8 -30q-160 -113 -160 -263q0 -43 21.5 -63t52.5 -18q12 0 16.5 -6.5t0 -15.5t-14.5 -19q-25 -23 -65.5 -42.5t-69.5 -19.5zM477 903h-2q-55 0 -76.5 40t-21.5 83q0 111 87 213t171 139 q33 16 57 17q45 0 8 -29q-68 -51 -115.5 -126t-47.5 -153q0 -43 21.5 -63t51.5 -18q12 0 16.5 -6.5t0.5 -15.5t-15 -19q-69 -62 -135 -62z" />
<glyph unicode="&#x201d;" horiz-adv-x="743" d="M283 1391h2q53 0 75.5 -40t22.5 -83q0 -111 -87 -213.5t-171 -139.5q-33 -16 -57 -16q-49 0 -7 31q66 47 114 122.5t48 153.5q0 43 -21.5 63.5t-51.5 18.5q-12 0 -16.5 6t-0.5 15.5t14 19.5q70 62 136 62zM588 1391h2q55 0 77.5 -40t22.5 -83q0 -109 -84 -204t-170 -134 q-43 -14 -59 -15q-43 0 -4 29q158 117 157 262q0 43 -21.5 63.5t-53.5 18.5q-12 0 -16.5 6t0.5 15.5t16 19.5q70 62 133 62z" />
<glyph unicode="&#x201e;" horiz-adv-x="780" d="M350 143v-2q0 -106 -93 -238t-208 -188q-39 -20 -84 -24q-33 0 -4 22q205 166 205 357q0 49 -22.5 75.5t-49.5 32.5q-16 4 -15 16.5t15 22.5l99 68q29 20 47 20q53 0 81.5 -47t28.5 -115zM702 145v-2q0 -106 -92 -237t-209 -189q-49 -23 -84 -22q-14 -2 -16 5t12 15 q205 166 205 357q0 49 -22.5 75.5t-49.5 30.5q-16 6 -14 18.5t17 22.5q70 45 98 68q27 18 45 18q53 0 81.5 -47t28.5 -113z" />
<glyph unicode="&#x2022;" horiz-adv-x="772" d="M481 684q20 10 31.5 3t9.5 -32q-6 -51 30 -153.5t83 -143.5q14 -10 -4 -36q-35 -55 -144.5 -128t-156.5 -73q-59 0 -127 113.5t-68 209.5q0 59 31 76z" />
<glyph unicode="&#x2026;" horiz-adv-x="1656" d="M338 258q-2 -47 12.5 -97t38.5 -75q12 -12 -2 -31q-25 -29 -72 -56.5t-69 -27.5q-57 0 -92 61.5t-35 117.5q0 23 14 34q16 12 78.5 43t97.5 41q10 4 20.5 1t8.5 -11zM911 256q4 -94 54 -172q10 -20 -2 -31q-23 -27 -75 -54.5t-71 -27.5q-57 0 -89 66.5t-32 120.5 q0 20 14.5 32.5t76 39t96.5 34.5q28 10 28 -8zM1485 254q-2 -43 13 -94t38 -74q14 -14 -2 -31q-25 -29 -73 -56.5t-72 -27.5q-57 0 -89 65.5t-32 123.5q0 20 14 33q43 33 174 71q29 8 29 -10z" />
<glyph unicode="&#x202f;" horiz-adv-x="337" />
<glyph unicode="&#x2039;" horiz-adv-x="641" d="M317 373q96 -86 146 -195q23 -45 22 -82q0 -16 -16 -42.5t-33 -41.5q-12 -10 -16 0q-35 104 -130 207t-179 131q-14 2 -11 15q14 33 41 47q113 61 213.5 177t128.5 191q6 18 19 6q8 -8 15 -30.5t5 -32.5q-37 -150 -205 -315q-18 -19 0 -35z" />
<glyph unicode="&#x203a;" horiz-adv-x="641" d="M313 424q-94 86 -145 197q-23 51 -23 81q0 39 50 84q12 10 16 0q35 -106 130 -207.5t179 -129.5q12 -6 10 -17q-12 -29 -41 -45q-115 -61 -214 -178t-125 -193q-6 -18 -19 -4q-8 6 -16.5 25.5t-5.5 30.5q37 154 206 323q16 17 -2 33z" />
<glyph unicode="&#x205f;" horiz-adv-x="421" />
<glyph unicode="&#x20ac;" d="M698 1245h2q147 0 209 -57q29 -29 29 -62q0 -23 -8 -43q-16 -45 -29 -108q-2 -14 -16.5 -30.5t-24.5 -16.5t-10 12q0 88 -23 133q-45 98 -188 98q-111 0 -188 -92q-80 -102 -103 -307q-2 -18 2 -24.5t21 -6.5q82 -4 143 -4q223 0 363 17q10 0 0 -17q-59 -61 -230 -73 q-84 -8 -309 -9q-2 -45 0 -92q0 -25 27 -24q4 0 47 -1t55 -1q176 0 356 16q12 0 0 -14q-55 -61 -227 -78q-88 -6 -250 -6q8 -74 27.5 -139.5t55.5 -129t97.5 -101.5t139.5 -38q84 0 143 55q63 59 104 154q8 10 15 6q8 -4 14 -21.5t4 -33.5q-10 -78 -53 -148q-14 -25 -47 -47 t-103.5 -39.5t-142.5 -17.5q-199 0 -331 122t-150 382q-86 4 -127 14q-14 4 -8 16q8 10 48 38t52 26q4 0 13 -1t16 -1q0 39 4 113q-37 2 -64 14q-18 2 -10 14q10 12 41 32.5t51 29.5q49 211 178 336q74 74 181.5 114.5t203.5 40.5z" />
<glyph unicode="&#x2122;" horiz-adv-x="815" d="M215 1133l-2 -86v-68q0 -8 10 -10q51 -4 58 -8q10 -2 6 -7q-25 -31 -33 -28q-20 4 -80 4q-25 0 -119 -8q-4 0 0 6q10 23 31 26q18 6 25 7q10 2 18 10q18 18 18 127q0 35 -10 35h-51q-2 0 -5 -4.5l-10.5 -16.5l-15.5 -25q-10 -20 -30 -20q-6 0 -7 4q20 49 21 100 q2 4 11 14.5t11 14.5q4 4 7 0q2 -10 20 -18q25 -8 107 -8q72 0 88 6q14 4 51 22q8 2 8 -4q-18 -25 -18 -96q0 -16 -23 -35q-8 -8 -8 2q0 4 -2 11t-5 22.5t-5 32.5q0 8 -11 4q-14 -2 -55 -6zM469 1108h-2q0 -35 -27 -129q-2 -6 3.5 -9t13.5 -5q10 -2 37 -9q6 -2 2 -6 q-18 -29 -27 -24q-6 2 -66 2q-20 0 -69 -4v4q10 25 24 28q39 12 48 29q23 45 22 121q0 25 -14 29h-54q-4 0 -2 6q8 23 27 24q8 4 48 11.5t65 7.5q4 0 14 -10q6 -18 29.5 -62.5t29.5 -58.5q2 -2 5.5 -3t5.5 1l17 25l25 38l19 33q2 2 5 6t7 6l2 4q8 4 36 8.5t54.5 7.5t28.5 3 q10 0 10 -4q-6 -23 -22 -27q-27 -6 -37 -24.5t-10 -65.5t10 -78q4 -20 25 -22q25 -4 41 -5q12 0 2 -10q-23 -23 -33 -22q-14 0 -42 1t-34 1q-37 0 -61 -4q-8 8 0 14q27 14 28 78q4 66 4 92h-4q-31 -43 -75 -150q-12 -29 -35 -36q-6 -4 -8 4q-25 96 -66 184z" />
<glyph unicode="&#xe000;" horiz-adv-x="850" d="M0 850h850v-850h-850v850z" />
<glyph unicode="&#xfb01;" horiz-adv-x="1122" d="M735 1401h2q68 0 115 -33t49 -90q4 -31 -27 -66q-45 -49 -83 -69q-23 -10 -25 10q-18 141 -158 141q-109 0 -153 -114q-68 -121 -68 -336q0 -25 35 -31q41 -6 186.5 -4t218.5 10q49 6 138 41q8 2 11 -1t1 -13q-23 -115 -23 -412q0 -227 13 -307q6 -33 37 -37 q94 -16 116 -24q18 -4 2 -21q-57 -57 -78 -53q-37 6 -83 6q-29 2 -97 2q-170 0 -241 -14q-8 -4 -11 2q-2 6 6 16q27 39 80 59q25 10 33 18.5t12 24.5q16 78 17 328q0 205 -10 260q-4 16 -10.5 24.5t-18.5 6.5q-82 -16 -315 -16q-25 0 -25 -25q-6 -434 10 -551 q2 -16 8.5 -25.5t13.5 -12.5t21 -5q98 -16 123 -24q18 -6 4 -19q-70 -57 -84 -57q-18 2 -76 6q-70 4 -114 4q-147 0 -262 -18q-12 -2 -15.5 2t4.5 14q25 43 60 55q18 8 65 23q33 8 35 51q8 172 8 551q0 27 -18 31q-10 2 -39 4t-52.5 5t-35.5 7q-25 6 -8 23q78 70 98 67h23 q6 -2 18 -2q20 2 20 31q10 158 93 280q74 117 221 207q116 70 233 70z" />
<glyph unicode="&#xfb02;" horiz-adv-x="1120" d="M705 1397h2q84 0 124 -49q12 -14 31 -7q23 10 111 66q10 6 15 3t1 -13q-33 -129 -33 -717q0 -467 15 -553q6 -33 39 -39q70 -6 112 -22q16 -4 2 -19q-55 -61 -75 -57q-27 4 -64 6q-53 4 -111 4q-158 0 -245 -16q-27 -6 -13 12q16 33 37 47q14 8 68 29q16 6 24 37 q12 70 17 483v149q0 33 -23 19q-74 -45 -211 -49q-6 0 -54 -1t-68 -1q-25 0 -25 -27q-4 -397 10 -549q2 -39 41 -45q80 -12 119 -25q20 -6 6 -20q-57 -53 -82 -53q-156 10 -190 8q-160 2 -262 -16q-10 -2 -13.5 2t2.5 10q29 47 54 57q23 10 73 25q18 4 24.5 14t8.5 39 q10 123 10 547q0 33 -18 33q-98 6 -129 18q-14 4 -16.5 7t10.5 14q76 66 96 67q8 0 24.5 -1t22.5 -1q14 0 18 31q4 129 54 223q63 139 223 246q51 33 121 58.5t117 25.5zM602 1296h-2q-74 0 -135 -67q-39 -49 -60.5 -151.5t-17.5 -227.5q2 -35 33 -35q180 -18 307 6 q37 6 37 43q0 162 -4 314q-4 39 -25 59q-55 59 -133 59z" />
<glyph unicode="&#xfb03;" horiz-adv-x="1722" d="M639 1352h2q86 0 131 -60q14 -23 14 -45q0 -29 -30 -59q-20 -20 -70 -58q-16 -6 -22 7q-10 41 -47 75.5t-88.5 34.5t-90.5 -49q-61 -82 -53 -350q2 -31 37 -35q119 -10 334 -6q27 0 26 29q0 297 295 485q131 80 254 80q63 0 110.5 -34t49.5 -91q0 -35 -30.5 -70 t-78.5 -61q-25 -12 -26 12q-8 57 -49 95t-111 38q-76 0 -133 -63q-80 -96 -80 -385q0 -25 33 -31q229 -12 409 10q51 4 140 39q8 2 11 -1t1 -11q-23 -123 -23 -416q0 -227 11 -305q4 -33 37 -37q98 -18 118 -24q18 -8 4 -21q-57 -57 -79 -53q-37 6 -82 6q-29 2 -95 2 q-174 0 -249 -16q-12 -4 -13 2q-2 6 8 16q31 41 84 59q25 10 33 18.5t12 24.5q16 78 17 326q0 229 -10 270q-2 12 -5.5 19.5t-9.5 10.5t-14 1q-106 -20 -326 -20q-20 0 -20 -25q-6 -420 10 -551q6 -39 41 -45q88 -8 125 -24q20 -6 2 -19q-61 -55 -78 -55q-23 2 -84 6 q-33 2 -102 2q-133 0 -266 -18q-10 -2 -12.5 2t1.5 10q27 47 58 59q35 14 63 23q31 8 33 57q10 164 10 541q0 31 -20 31h-353q-23 0 -22 -25q-6 -430 10 -547q2 -16 8.5 -25.5t13.5 -12.5t19 -5q94 -14 111 -20q14 -4 6 -19q-18 -18 -45 -39.5t-37 -19.5q-37 4 -74 4 q-61 4 -106 4q-164 0 -262 -18q-12 -2 -15.5 2t2.5 12q8 14 27.5 34.5t30.5 24.5q8 2 28.5 10.5t40.5 12.5q20 6 26.5 15t8.5 42q8 170 8 543q0 33 -18 33q-115 12 -144 22q-18 8 -4 23q74 70 95 65q8 0 28.5 -2t30.5 -2q16 0 16 27q8 104 39 182q53 147 205 250 q105 76 209 76z" />
<glyph unicode="&#xfb04;" horiz-adv-x="1726" d="M639 1352h2q86 0 131 -60q14 -23 14 -45q0 -29 -30 -59q-20 -20 -70 -58q-16 -6 -22 7q-10 41 -47 75.5t-88.5 34.5t-90.5 -49q-59 -80 -51 -358q0 -23 29 -25q86 -10 340 -6q29 0 28 35q6 311 291 479q119 74 221 74q98 0 144 -51q12 -12 28 0q18 8 57.5 31.5t51.5 29.5 q8 6 13 3t1 -13q-31 -147 -30 -719q0 -451 12 -549q6 -33 41 -39q82 -8 115 -24q12 -4 2 -19q-14 -16 -43 -36.5t-37 -18.5q-90 10 -172 8q-154 0 -246 -16q-12 -2 -14 1t2 11q31 45 45 53l57 25q20 10 27 35q12 66 16 483v156q0 29 -20 16q-78 -41 -216 -45q-90 -4 -131 -4 q-25 0 -24 -27q-6 -422 10 -553q6 -39 43 -43q94 -14 125 -29q14 -4 2 -16q-59 -59 -84 -55q-117 10 -172 8q-166 0 -270 -16q-8 -2 -12.5 2t-0.5 10q8 14 28 34.5t30 24.5q8 2 27.5 9.5t31.5 11.5q18 6 24.5 16t8.5 43q10 164 10 535q0 35 -20 35h-120q-60 0 -138 1t-92 1 q-25 0 -25 -25q-6 -436 10 -549q2 -18 8.5 -26.5t12.5 -11.5t20 -5q76 -12 109 -20q20 -8 8 -19q-61 -61 -82 -59q-37 4 -76 4q-57 4 -106 4q-166 0 -260 -18q-12 -2 -15.5 2t2.5 14q29 45 58 57l32.5 12.5t36.5 12.5q33 8 35 55q8 170 8 543q0 33 -18 33q-123 14 -146 22 q-23 6 -4 21q23 25 54.5 46t42.5 21q8 0 29.5 -2t27.5 -2q18 0 18 27q8 104 39 182q51 141 205 250q105 76 209 76zM1198 1294h-2q-82 0 -137 -69q-86 -111 -76 -383q2 -18 7 -22.5t24 -6.5q70 -4 164 0q104 4 153 12q35 8 35 43q2 137 -2 303q-2 39 -18 60q-58 63 -148 63z " />
</font>
</defs>
</svg>
